G04 #@! TF.GenerationSoftware,KiCad,Pcbnew,5.1.10*
G04 #@! TF.CreationDate,2021-05-19T15:46:58-05:00*
G04 #@! TF.ProjectId,Rectifier,52656374-6966-4696-9572-2e6b69636164,rev?*
G04 #@! TF.SameCoordinates,Original*
G04 #@! TF.FileFunction,Copper,L2,Bot*
G04 #@! TF.FilePolarity,Positive*
%FSLAX46Y46*%
G04 Gerber Fmt 4.6, Leading zero omitted, Abs format (unit mm)*
G04 Created by KiCad (PCBNEW 5.1.10) date 2021-05-19 15:46:58*
%MOMM*%
%LPD*%
G01*
G04 APERTURE LIST*
G04 #@! TA.AperFunction,ComponentPad*
%ADD10C,2.400000*%
G04 #@! TD*
G04 #@! TA.AperFunction,ComponentPad*
%ADD11R,2.400000X2.400000*%
G04 #@! TD*
G04 #@! TA.AperFunction,ComponentPad*
%ADD12C,0.900000*%
G04 #@! TD*
G04 #@! TA.AperFunction,ComponentPad*
%ADD13C,10.600000*%
G04 #@! TD*
G04 #@! TA.AperFunction,ComponentPad*
%ADD14C,2.600000*%
G04 #@! TD*
G04 #@! TA.AperFunction,ComponentPad*
%ADD15R,2.600000X2.600000*%
G04 #@! TD*
G04 #@! TA.AperFunction,ComponentPad*
%ADD16O,1.950000X1.700000*%
G04 #@! TD*
G04 #@! TA.AperFunction,ComponentPad*
%ADD17O,3.200000X3.200000*%
G04 #@! TD*
G04 #@! TA.AperFunction,ComponentPad*
%ADD18R,3.200000X3.200000*%
G04 #@! TD*
G04 #@! TA.AperFunction,Conductor*
%ADD19C,1.200000*%
G04 #@! TD*
G04 APERTURE END LIST*
D10*
X178750000Y-64750000D03*
D11*
X178750000Y-69750000D03*
D10*
X127250000Y-69750000D03*
D11*
X127250000Y-64750000D03*
D12*
X175810749Y-35689251D03*
X173000000Y-34525000D03*
X170189251Y-35689251D03*
X169025000Y-38500000D03*
X170189251Y-41310749D03*
X173000000Y-42475000D03*
X175810749Y-41310749D03*
X176975000Y-38500000D03*
D13*
X173000000Y-38500000D03*
D12*
X135810749Y-36189251D03*
X133000000Y-35025000D03*
X130189251Y-36189251D03*
X129025000Y-39000000D03*
X130189251Y-41810749D03*
X133000000Y-42975000D03*
X135810749Y-41810749D03*
X136975000Y-39000000D03*
D13*
X133000000Y-39000000D03*
D14*
X126250000Y-57000000D03*
D15*
X126250000Y-52000000D03*
D14*
X126250000Y-84250000D03*
D15*
X126250000Y-79250000D03*
D14*
X179500000Y-52000000D03*
D15*
X179500000Y-57000000D03*
D16*
X182000000Y-84250000D03*
X182000000Y-81750000D03*
X182000000Y-79250000D03*
G04 #@! TA.AperFunction,ComponentPad*
G36*
G01*
X181275000Y-75900000D02*
X182725000Y-75900000D01*
G75*
G02*
X182975000Y-76150000I0J-250000D01*
G01*
X182975000Y-77350000D01*
G75*
G02*
X182725000Y-77600000I-250000J0D01*
G01*
X181275000Y-77600000D01*
G75*
G02*
X181025000Y-77350000I0J250000D01*
G01*
X181025000Y-76150000D01*
G75*
G02*
X181275000Y-75900000I250000J0D01*
G01*
G37*
G04 #@! TD.AperFunction*
D17*
X150990000Y-57500000D03*
D18*
X135750000Y-57500000D03*
D17*
X150990000Y-78500000D03*
D18*
X135750000Y-78500000D03*
D17*
X150990000Y-66500000D03*
D18*
X135750000Y-66500000D03*
D17*
X150990000Y-51500000D03*
D18*
X135750000Y-51500000D03*
D17*
X170240000Y-57500000D03*
D18*
X155000000Y-57500000D03*
D17*
X150990000Y-84500000D03*
D18*
X135750000Y-84500000D03*
D17*
X170240000Y-78500000D03*
D18*
X155000000Y-78500000D03*
D17*
X150990000Y-72500000D03*
D18*
X135750000Y-72500000D03*
D17*
X170240000Y-66500000D03*
D18*
X155000000Y-66500000D03*
D17*
X170240000Y-51500000D03*
D18*
X155000000Y-51500000D03*
D17*
X170240000Y-84500000D03*
D18*
X155000000Y-84500000D03*
D17*
X170240000Y-72500000D03*
D18*
X155000000Y-72500000D03*
D19*
X135750000Y-72500000D02*
X135750000Y-66500000D01*
X170240000Y-84500000D02*
X170240000Y-78500000D01*
X155000000Y-66500000D02*
X157800000Y-66500000D01*
X157800000Y-66500000D02*
X166800000Y-75500000D01*
X166800000Y-75500000D02*
X180750000Y-75500000D01*
X180750000Y-75500000D02*
X182000000Y-76750000D01*
X179500000Y-57000000D02*
X177000000Y-57000000D01*
X155000000Y-57500000D02*
X157800000Y-57500000D01*
X157800000Y-57500000D02*
X160203100Y-59903100D01*
X160203100Y-59903100D02*
X174096900Y-59903100D01*
X174096900Y-59903100D02*
X177000000Y-57000000D01*
X126250000Y-79250000D02*
X126250000Y-76750000D01*
X126250000Y-76750000D02*
X127250000Y-75750000D01*
X127250000Y-75750000D02*
X127250000Y-69750000D01*
X170240000Y-72500000D02*
X170240000Y-66500000D01*
X135750000Y-84250000D02*
X135750000Y-78500000D01*
X135750000Y-84500000D02*
X135750000Y-84250000D01*
X135750000Y-84250000D02*
X126250000Y-84250000D01*
X135750000Y-78500000D02*
X135750000Y-75700000D01*
X135750000Y-75700000D02*
X134612400Y-75700000D01*
X134612400Y-75700000D02*
X132950000Y-74037600D01*
X132950000Y-74037600D02*
X132950000Y-72549900D01*
X132950000Y-72549900D02*
X127550100Y-67150000D01*
X127550100Y-67150000D02*
X127250000Y-67150000D01*
X127250000Y-64750000D02*
X127250000Y-67150000D01*
X170240000Y-51500000D02*
X170240000Y-57500000D01*
X135750000Y-57500000D02*
X138550000Y-57500000D01*
X138550000Y-57500000D02*
X143256300Y-62206300D01*
X143256300Y-62206300D02*
X169406300Y-62206300D01*
X169406300Y-62206300D02*
X176350000Y-69150000D01*
X176350000Y-69150000D02*
X176350000Y-69750000D01*
X135750000Y-57000000D02*
X135750000Y-57500000D01*
X178750000Y-69750000D02*
X176350000Y-69750000D01*
X135750000Y-51500000D02*
X135750000Y-57000000D01*
X135750000Y-57000000D02*
X126250000Y-57000000D01*
M02*
