G04 #@! TF.GenerationSoftware,KiCad,Pcbnew,5.1.10*
G04 #@! TF.CreationDate,2021-05-19T15:46:58-05:00*
G04 #@! TF.ProjectId,Rectifier,52656374-6966-4696-9572-2e6b69636164,rev?*
G04 #@! TF.SameCoordinates,Original*
G04 #@! TF.FileFunction,Legend,Bot*
G04 #@! TF.FilePolarity,Positive*
%FSLAX46Y46*%
G04 Gerber Fmt 4.6, Leading zero omitted, Abs format (unit mm)*
G04 Created by KiCad (PCBNEW 5.1.10) date 2021-05-19 15:46:58*
%MOMM*%
%LPD*%
G01*
G04 APERTURE LIST*
%ADD10C,0.120000*%
%ADD11C,2.400000*%
%ADD12R,2.400000X2.400000*%
%ADD13C,0.900000*%
%ADD14C,10.600000*%
%ADD15C,2.600000*%
%ADD16R,2.600000X2.600000*%
%ADD17O,1.950000X1.700000*%
%ADD18O,3.200000X3.200000*%
%ADD19R,3.200000X3.200000*%
G04 APERTURE END LIST*
D10*
X120250000Y-60500000D02*
X185500000Y-60500000D01*
X120250000Y-48500000D02*
X185500000Y-48500000D01*
%LPC*%
D11*
X178750000Y-64750000D03*
D12*
X178750000Y-69750000D03*
D11*
X127250000Y-69750000D03*
D12*
X127250000Y-64750000D03*
D13*
X175810749Y-35689251D03*
X173000000Y-34525000D03*
X170189251Y-35689251D03*
X169025000Y-38500000D03*
X170189251Y-41310749D03*
X173000000Y-42475000D03*
X175810749Y-41310749D03*
X176975000Y-38500000D03*
D14*
X173000000Y-38500000D03*
D13*
X135810749Y-36189251D03*
X133000000Y-35025000D03*
X130189251Y-36189251D03*
X129025000Y-39000000D03*
X130189251Y-41810749D03*
X133000000Y-42975000D03*
X135810749Y-41810749D03*
X136975000Y-39000000D03*
D14*
X133000000Y-39000000D03*
D15*
X126250000Y-57000000D03*
D16*
X126250000Y-52000000D03*
D15*
X126250000Y-84250000D03*
D16*
X126250000Y-79250000D03*
D15*
X179500000Y-52000000D03*
D16*
X179500000Y-57000000D03*
D17*
X182000000Y-84250000D03*
X182000000Y-81750000D03*
X182000000Y-79250000D03*
G36*
G01*
X181275000Y-75900000D02*
X182725000Y-75900000D01*
G75*
G02*
X182975000Y-76150000I0J-250000D01*
G01*
X182975000Y-77350000D01*
G75*
G02*
X182725000Y-77600000I-250000J0D01*
G01*
X181275000Y-77600000D01*
G75*
G02*
X181025000Y-77350000I0J250000D01*
G01*
X181025000Y-76150000D01*
G75*
G02*
X181275000Y-75900000I250000J0D01*
G01*
G37*
D18*
X150990000Y-57500000D03*
D19*
X135750000Y-57500000D03*
D18*
X150990000Y-78500000D03*
D19*
X135750000Y-78500000D03*
D18*
X150990000Y-66500000D03*
D19*
X135750000Y-66500000D03*
D18*
X150990000Y-51500000D03*
D19*
X135750000Y-51500000D03*
D18*
X170240000Y-57500000D03*
D19*
X155000000Y-57500000D03*
D18*
X150990000Y-84500000D03*
D19*
X135750000Y-84500000D03*
D18*
X170240000Y-78500000D03*
D19*
X155000000Y-78500000D03*
D18*
X150990000Y-72500000D03*
D19*
X135750000Y-72500000D03*
D18*
X170240000Y-66500000D03*
D19*
X155000000Y-66500000D03*
D18*
X170240000Y-51500000D03*
D19*
X155000000Y-51500000D03*
D18*
X170240000Y-84500000D03*
D19*
X155000000Y-84500000D03*
D18*
X170240000Y-72500000D03*
D19*
X155000000Y-72500000D03*
M02*
