M48
; DRILL file {KiCad 5.1.10} date Wed May 19 15:42:01 2021
; FORMAT={-:-/ absolute / metric / decimal}
; #@! TF.CreationDate,2021-05-19T15:42:01-05:00
; #@! TF.GenerationSoftware,Kicad,Pcbnew,5.1.10
; #@! TF.FileFunction,Plated,1,2,PTH
FMAT,2
METRIC
T1C0.200
T2C0.400
T3C0.600
T4C0.950
T5C1.000
T6C1.300
T7C3.250
T8C5.300
%
G90
G05
T1
X43.35Y-60.5
X43.98Y-58.98
X43.98Y-62.02
X44.0Y-37.2
X44.63Y-35.68
X44.63Y-38.72
X45.5Y-58.35
X45.5Y-62.65
X46.15Y-35.05
X46.15Y-39.35
X47.02Y-58.98
X47.02Y-62.02
X47.65Y-60.5
X47.67Y-35.68
X47.67Y-38.72
X48.3Y-37.2
X50.35Y-102.25
X50.98Y-100.73
X50.98Y-103.77
X52.5Y-100.1
X52.5Y-104.5
X54.02Y-100.73
X54.02Y-103.77
X54.65Y-102.25
X73.35Y-44.5
X73.98Y-42.98
X73.98Y-46.02
X75.35Y-107.25
X75.5Y-42.35
X75.5Y-46.65
X75.98Y-105.75
X75.98Y-108.75
X77.02Y-42.98
X77.02Y-46.02
X77.2Y-19.8
X77.5Y-105.1
X77.5Y-109.4
X77.65Y-44.5
X77.83Y-18.28
X77.83Y-21.32
X79.02Y-105.73
X79.02Y-108.77
X79.35Y-17.65
X79.35Y-21.95
X79.65Y-107.25
X80.87Y-18.28
X80.87Y-21.32
X81.5Y-19.8
T2
X38.3Y-54.86
X38.632Y-33.863
X71.828Y-113.029
X74.879Y-110.847
X84.934Y-84.739
X86.395Y-61.391
X89.349Y-49.284
X94.369Y-91.783
X95.504Y-99.064
X95.989Y-104.746
T3
X23.525Y-26.0
X23.525Y-106.0
X24.689Y-23.189
X24.689Y-28.811
X24.689Y-103.189
X24.689Y-108.811
X27.5Y-22.025
X27.5Y-29.975
X27.5Y-102.025
X27.5Y-109.975
X30.311Y-23.189
X30.311Y-28.811
X30.311Y-103.189
X30.311Y-108.811
X31.475Y-26.0
X31.475Y-106.0
X103.525Y-26.0
X103.525Y-106.0
X104.689Y-23.189
X104.689Y-28.811
X104.689Y-103.189
X104.689Y-108.811
X107.5Y-22.025
X107.5Y-29.975
X107.5Y-102.025
X107.5Y-109.975
X110.311Y-23.189
X110.311Y-28.811
X110.311Y-103.189
X110.311Y-108.811
X111.475Y-26.0
X111.475Y-106.0
T4
X92.0Y-19.25
X92.0Y-21.75
X92.0Y-24.25
T5
X39.75Y-23.3
X40.0Y-43.25
X40.0Y-61.75
X40.65Y-19.0
X40.65Y-38.0
X41.25Y-96.25
X41.25Y-118.25
X50.5Y-120.5
X53.04Y-120.5
X55.58Y-120.5
X58.12Y-120.5
X60.66Y-120.5
X63.2Y-120.5
X65.74Y-120.5
X68.28Y-120.5
X70.82Y-120.5
X73.36Y-120.5
X75.9Y-120.5
X78.44Y-120.5
X80.98Y-120.5
X81.0Y-43.25
X81.0Y-61.75
X83.52Y-120.5
X84.85Y-19.0
X84.85Y-38.0
X88.75Y-96.25
X88.75Y-118.25
X92.0Y-30.25
X92.0Y-32.75
X106.25Y-41.5
X106.25Y-44.04
X106.25Y-46.58
X106.25Y-49.12
X106.25Y-51.66
X108.79Y-41.5
X108.79Y-44.04
X108.79Y-46.58
X108.79Y-49.12
X108.79Y-51.66
T6
X89.0Y-51.5
X89.0Y-60.5
X89.0Y-87.75
X94.0Y-51.5
X94.0Y-60.5
X94.0Y-87.75
X107.5Y-58.75
X107.5Y-63.75
X107.5Y-68.75
X107.5Y-73.75
X107.5Y-88.75
X107.5Y-93.75
T7
X45.5Y-60.5
X46.15Y-37.25
X52.5Y-102.25
X75.5Y-44.5
X77.5Y-107.25
X79.35Y-19.75
T8
X27.5Y-26.0
X27.5Y-106.0
X107.5Y-26.0
X107.5Y-106.0
T0
M30
