%FSLAX45Y45*%
G04 Gerber Fmt 4.5, Leading zero omitted, Abs format (unit mm)*
G04 Created by KiCad (PCBNEW 5.1.10) date 2021-05-19 15:42:02*
%MOMM*%
%LPD*%
G01*
G04 APERTURE LIST*
%TA.AperFunction,Profile*%
%ADD10C,0.050000*%
%TD*%
%ADD11C,0.200000*%
%ADD12C,0.300000*%
G04 APERTURE END LIST*
D10*
X3800000Y-12200000D02*
X3825000Y-12200000D01*
X1750000Y-12200000D02*
X3800000Y-12200000D01*
X11750000Y-12200000D02*
X3825000Y-12200000D01*
X3837500Y-6505000D02*
X4337500Y-6505000D01*
X7912500Y-6505000D02*
X8412500Y-6505000D01*
X4337500Y-6442500D02*
X7912500Y-6442500D01*
X4337500Y-6505000D02*
X4337500Y-6442500D01*
X8412500Y-9155000D02*
X8412500Y-6505000D01*
X7912500Y-6505000D02*
X7912500Y-6442500D01*
X3837500Y-6505000D02*
X3837500Y-9155000D01*
X4337500Y-9155000D02*
X3837500Y-9155000D01*
X7912500Y-9217500D02*
X4337500Y-9217500D01*
X8412500Y-9155000D02*
X7912500Y-9155000D01*
X7912500Y-9155000D02*
X7912500Y-9217500D01*
X4337500Y-9155000D02*
X4337500Y-9217500D01*
X1750000Y-12200000D02*
X1750000Y-1600000D01*
X11750000Y-1600000D02*
X11750000Y-12200000D01*
X1750000Y-1600000D02*
X11750000Y-1600000D01*
D11*
X4325000Y-6040000D02*
X4345000Y-6060000D01*
X4345000Y-6040000D02*
X4325000Y-6060000D01*
X4387972Y-5887972D02*
X4407972Y-5907972D01*
X4407972Y-5887972D02*
X4387972Y-5907972D01*
X4387972Y-6192028D02*
X4407972Y-6212028D01*
X4407972Y-6192028D02*
X4387972Y-6212028D01*
X4390000Y-3710000D02*
X4410000Y-3730000D01*
X4410000Y-3710000D02*
X4390000Y-3730000D01*
X4452972Y-3557972D02*
X4472972Y-3577972D01*
X4472972Y-3557972D02*
X4452972Y-3577972D01*
X4452972Y-3862028D02*
X4472972Y-3882028D01*
X4472972Y-3862028D02*
X4452972Y-3882028D01*
X4540000Y-5825000D02*
X4560000Y-5845000D01*
X4560000Y-5825000D02*
X4540000Y-5845000D01*
X4540000Y-6255000D02*
X4560000Y-6275000D01*
X4560000Y-6255000D02*
X4540000Y-6275000D01*
X4605000Y-3495000D02*
X4625000Y-3515000D01*
X4625000Y-3495000D02*
X4605000Y-3515000D01*
X4605000Y-3925000D02*
X4625000Y-3945000D01*
X4625000Y-3925000D02*
X4605000Y-3945000D01*
X4692028Y-5887972D02*
X4712028Y-5907972D01*
X4712028Y-5887972D02*
X4692028Y-5907972D01*
X4692028Y-6192028D02*
X4712028Y-6212028D01*
X4712028Y-6192028D02*
X4692028Y-6212028D01*
X4755000Y-6040000D02*
X4775000Y-6060000D01*
X4775000Y-6040000D02*
X4755000Y-6060000D01*
X4757028Y-3557972D02*
X4777028Y-3577972D01*
X4777028Y-3557972D02*
X4757028Y-3577972D01*
X4757028Y-3862028D02*
X4777028Y-3882028D01*
X4777028Y-3862028D02*
X4757028Y-3882028D01*
X4820000Y-3710000D02*
X4840000Y-3730000D01*
X4840000Y-3710000D02*
X4820000Y-3730000D01*
X5025000Y-10215000D02*
X5045000Y-10235000D01*
X5045000Y-10215000D02*
X5025000Y-10235000D01*
X5087972Y-10062972D02*
X5107972Y-10082972D01*
X5107972Y-10062972D02*
X5087972Y-10082972D01*
X5087972Y-10367028D02*
X5107972Y-10387028D01*
X5107972Y-10367028D02*
X5087972Y-10387028D01*
X5240000Y-10000000D02*
X5260000Y-10020000D01*
X5260000Y-10000000D02*
X5240000Y-10020000D01*
X5240000Y-10440000D02*
X5260000Y-10460000D01*
X5260000Y-10440000D02*
X5240000Y-10460000D01*
X5392028Y-10062972D02*
X5412028Y-10082972D01*
X5412028Y-10062972D02*
X5392028Y-10082972D01*
X5392028Y-10367028D02*
X5412028Y-10387028D01*
X5412028Y-10367028D02*
X5392028Y-10387028D01*
X5455000Y-10215000D02*
X5475000Y-10235000D01*
X5475000Y-10215000D02*
X5455000Y-10235000D01*
X7325000Y-4440000D02*
X7345000Y-4460000D01*
X7345000Y-4440000D02*
X7325000Y-4460000D01*
X7387972Y-4287972D02*
X7407972Y-4307972D01*
X7407972Y-4287972D02*
X7387972Y-4307972D01*
X7387972Y-4592028D02*
X7407972Y-4612028D01*
X7407972Y-4592028D02*
X7387972Y-4612028D01*
X7525000Y-10715000D02*
X7545000Y-10735000D01*
X7545000Y-10715000D02*
X7525000Y-10735000D01*
X7540000Y-4225000D02*
X7560000Y-4245000D01*
X7560000Y-4225000D02*
X7540000Y-4245000D01*
X7540000Y-4655000D02*
X7560000Y-4675000D01*
X7560000Y-4655000D02*
X7540000Y-4675000D01*
X7587972Y-10565000D02*
X7607972Y-10585000D01*
X7607972Y-10565000D02*
X7587972Y-10585000D01*
X7587972Y-10865000D02*
X7607972Y-10885000D01*
X7607972Y-10865000D02*
X7587972Y-10885000D01*
X7692028Y-4287972D02*
X7712028Y-4307972D01*
X7712028Y-4287972D02*
X7692028Y-4307972D01*
X7692028Y-4592028D02*
X7712028Y-4612028D01*
X7712028Y-4592028D02*
X7692028Y-4612028D01*
X7710000Y-1970000D02*
X7730000Y-1990000D01*
X7730000Y-1970000D02*
X7710000Y-1990000D01*
X7740000Y-10500000D02*
X7760000Y-10520000D01*
X7760000Y-10500000D02*
X7740000Y-10520000D01*
X7740000Y-10930000D02*
X7760000Y-10950000D01*
X7760000Y-10930000D02*
X7740000Y-10950000D01*
X7755000Y-4440000D02*
X7775000Y-4460000D01*
X7775000Y-4440000D02*
X7755000Y-4460000D01*
X7772972Y-1817972D02*
X7792972Y-1837972D01*
X7792972Y-1817972D02*
X7772972Y-1837972D01*
X7772972Y-2122028D02*
X7792972Y-2142028D01*
X7792972Y-2122028D02*
X7772972Y-2142028D01*
X7892028Y-10562972D02*
X7912028Y-10582972D01*
X7912028Y-10562972D02*
X7892028Y-10582972D01*
X7892028Y-10867028D02*
X7912028Y-10887028D01*
X7912028Y-10867028D02*
X7892028Y-10887028D01*
X7925000Y-1755000D02*
X7945000Y-1775000D01*
X7945000Y-1755000D02*
X7925000Y-1775000D01*
X7925000Y-2185000D02*
X7945000Y-2205000D01*
X7945000Y-2185000D02*
X7925000Y-2205000D01*
X7955000Y-10715000D02*
X7975000Y-10735000D01*
X7975000Y-10715000D02*
X7955000Y-10735000D01*
X8077028Y-1817972D02*
X8097028Y-1837972D01*
X8097028Y-1817972D02*
X8077028Y-1837972D01*
X8077028Y-2122028D02*
X8097028Y-2142028D01*
X8097028Y-2122028D02*
X8077028Y-2142028D01*
X8140000Y-1970000D02*
X8160000Y-1990000D01*
X8160000Y-1970000D02*
X8140000Y-1990000D01*
X3850030Y-5486050D02*
G75*
G03*
X3850030Y-5486050I-20000J0D01*
G01*
X3883170Y-3386280D02*
G75*
G03*
X3883170Y-3386280I-20000J0D01*
G01*
X7202780Y-11302920D02*
G75*
G03*
X7202780Y-11302920I-20000J0D01*
G01*
X7507860Y-11084720D02*
G75*
G03*
X7507860Y-11084720I-20000J0D01*
G01*
X8513440Y-8473880D02*
G75*
G03*
X8513440Y-8473880I-20000J0D01*
G01*
X8659530Y-6139070D02*
G75*
G03*
X8659530Y-6139070I-20000J0D01*
G01*
X8954880Y-4928410D02*
G75*
G03*
X8954880Y-4928410I-20000J0D01*
G01*
X9456870Y-9178260D02*
G75*
G03*
X9456870Y-9178260I-20000J0D01*
G01*
X9570360Y-9906360D02*
G75*
G03*
X9570360Y-9906360I-20000J0D01*
G01*
X9618900Y-10474600D02*
G75*
G03*
X9618900Y-10474600I-20000J0D01*
G01*
X2352500Y-2570000D02*
X2352500Y-2630000D01*
X2322500Y-2600000D02*
X2382500Y-2600000D01*
X2352500Y-10570000D02*
X2352500Y-10630000D01*
X2322500Y-10600000D02*
X2382500Y-10600000D01*
X2468925Y-2288925D02*
X2468925Y-2348925D01*
X2438925Y-2318925D02*
X2498925Y-2318925D01*
X2468925Y-2851075D02*
X2468925Y-2911075D01*
X2438925Y-2881075D02*
X2498925Y-2881075D01*
X2468925Y-10288925D02*
X2468925Y-10348925D01*
X2438925Y-10318925D02*
X2498925Y-10318925D01*
X2468925Y-10851075D02*
X2468925Y-10911075D01*
X2438925Y-10881075D02*
X2498925Y-10881075D01*
X2750000Y-2172500D02*
X2750000Y-2232500D01*
X2720000Y-2202500D02*
X2780000Y-2202500D01*
X2750000Y-2967500D02*
X2750000Y-3027500D01*
X2720000Y-2997500D02*
X2780000Y-2997500D01*
X2750000Y-10172500D02*
X2750000Y-10232500D01*
X2720000Y-10202500D02*
X2780000Y-10202500D01*
X2750000Y-10967500D02*
X2750000Y-11027500D01*
X2720000Y-10997500D02*
X2780000Y-10997500D01*
X3031075Y-2288925D02*
X3031075Y-2348925D01*
X3001075Y-2318925D02*
X3061075Y-2318925D01*
X3031075Y-2851075D02*
X3031075Y-2911075D01*
X3001075Y-2881075D02*
X3061075Y-2881075D01*
X3031075Y-10288925D02*
X3031075Y-10348925D01*
X3001075Y-10318925D02*
X3061075Y-10318925D01*
X3031075Y-10851075D02*
X3031075Y-10911075D01*
X3001075Y-10881075D02*
X3061075Y-10881075D01*
X3147500Y-2570000D02*
X3147500Y-2630000D01*
X3117500Y-2600000D02*
X3177500Y-2600000D01*
X3147500Y-10570000D02*
X3147500Y-10630000D01*
X3117500Y-10600000D02*
X3177500Y-10600000D01*
X10352500Y-2570000D02*
X10352500Y-2630000D01*
X10322500Y-2600000D02*
X10382500Y-2600000D01*
X10352500Y-10570000D02*
X10352500Y-10630000D01*
X10322500Y-10600000D02*
X10382500Y-10600000D01*
X10468925Y-2288925D02*
X10468925Y-2348925D01*
X10438925Y-2318925D02*
X10498925Y-2318925D01*
X10468925Y-2851075D02*
X10468925Y-2911075D01*
X10438925Y-2881075D02*
X10498925Y-2881075D01*
X10468925Y-10288925D02*
X10468925Y-10348925D01*
X10438925Y-10318925D02*
X10498925Y-10318925D01*
X10468925Y-10851075D02*
X10468925Y-10911075D01*
X10438925Y-10881075D02*
X10498925Y-10881075D01*
X10750000Y-2172500D02*
X10750000Y-2232500D01*
X10720000Y-2202500D02*
X10780000Y-2202500D01*
X10750000Y-2967500D02*
X10750000Y-3027500D01*
X10720000Y-2997500D02*
X10780000Y-2997500D01*
X10750000Y-10172500D02*
X10750000Y-10232500D01*
X10720000Y-10202500D02*
X10780000Y-10202500D01*
X10750000Y-10967500D02*
X10750000Y-11027500D01*
X10720000Y-10997500D02*
X10780000Y-10997500D01*
X11031075Y-2288925D02*
X11031075Y-2348925D01*
X11001075Y-2318925D02*
X11061075Y-2318925D01*
X11031075Y-2851075D02*
X11031075Y-2911075D01*
X11001075Y-2881075D02*
X11061075Y-2881075D01*
X11031075Y-10288925D02*
X11031075Y-10348925D01*
X11001075Y-10318925D02*
X11061075Y-10318925D01*
X11031075Y-10851075D02*
X11031075Y-10911075D01*
X11001075Y-10881075D02*
X11061075Y-10881075D01*
X11147500Y-2570000D02*
X11147500Y-2630000D01*
X11117500Y-2600000D02*
X11177500Y-2600000D01*
X11147500Y-10570000D02*
X11147500Y-10630000D01*
X11117500Y-10600000D02*
X11177500Y-10600000D01*
X9233588Y-1958588D02*
X9233588Y-1891412D01*
X9166412Y-1891412D01*
X9166412Y-1958588D01*
X9233588Y-1958588D01*
X9233588Y-2208588D02*
X9233588Y-2141412D01*
X9166412Y-2141412D01*
X9166412Y-2208588D01*
X9233588Y-2208588D01*
X9233588Y-2458588D02*
X9233588Y-2391412D01*
X9166412Y-2391412D01*
X9166412Y-2458588D01*
X9233588Y-2458588D01*
X3975000Y-2380000D02*
X4025000Y-2330000D01*
X3975000Y-2280000D01*
X3925000Y-2330000D01*
X3975000Y-2380000D01*
X4000000Y-4375000D02*
X4050000Y-4325000D01*
X4000000Y-4275000D01*
X3950000Y-4325000D01*
X4000000Y-4375000D01*
X4000000Y-6225000D02*
X4050000Y-6175000D01*
X4000000Y-6125000D01*
X3950000Y-6175000D01*
X4000000Y-6225000D01*
X4065000Y-1950000D02*
X4115000Y-1900000D01*
X4065000Y-1850000D01*
X4015000Y-1900000D01*
X4065000Y-1950000D01*
X4065000Y-3850000D02*
X4115000Y-3800000D01*
X4065000Y-3750000D01*
X4015000Y-3800000D01*
X4065000Y-3850000D01*
X4125000Y-9675000D02*
X4175000Y-9625000D01*
X4125000Y-9575000D01*
X4075000Y-9625000D01*
X4125000Y-9675000D01*
X4125000Y-11875000D02*
X4175000Y-11825000D01*
X4125000Y-11775000D01*
X4075000Y-11825000D01*
X4125000Y-11875000D01*
X5050000Y-12100000D02*
X5100000Y-12050000D01*
X5050000Y-12000000D01*
X5000000Y-12050000D01*
X5050000Y-12100000D01*
X5304000Y-12100000D02*
X5354000Y-12050000D01*
X5304000Y-12000000D01*
X5254000Y-12050000D01*
X5304000Y-12100000D01*
X5558000Y-12100000D02*
X5608000Y-12050000D01*
X5558000Y-12000000D01*
X5508000Y-12050000D01*
X5558000Y-12100000D01*
X5812000Y-12100000D02*
X5862000Y-12050000D01*
X5812000Y-12000000D01*
X5762000Y-12050000D01*
X5812000Y-12100000D01*
X6066000Y-12100000D02*
X6116000Y-12050000D01*
X6066000Y-12000000D01*
X6016000Y-12050000D01*
X6066000Y-12100000D01*
X6320000Y-12100000D02*
X6370000Y-12050000D01*
X6320000Y-12000000D01*
X6270000Y-12050000D01*
X6320000Y-12100000D01*
X6574000Y-12100000D02*
X6624000Y-12050000D01*
X6574000Y-12000000D01*
X6524000Y-12050000D01*
X6574000Y-12100000D01*
X6828000Y-12100000D02*
X6878000Y-12050000D01*
X6828000Y-12000000D01*
X6778000Y-12050000D01*
X6828000Y-12100000D01*
X7082000Y-12100000D02*
X7132000Y-12050000D01*
X7082000Y-12000000D01*
X7032000Y-12050000D01*
X7082000Y-12100000D01*
X7336000Y-12100000D02*
X7386000Y-12050000D01*
X7336000Y-12000000D01*
X7286000Y-12050000D01*
X7336000Y-12100000D01*
X7590000Y-12100000D02*
X7640000Y-12050000D01*
X7590000Y-12000000D01*
X7540000Y-12050000D01*
X7590000Y-12100000D01*
X7844000Y-12100000D02*
X7894000Y-12050000D01*
X7844000Y-12000000D01*
X7794000Y-12050000D01*
X7844000Y-12100000D01*
X8098000Y-12100000D02*
X8148000Y-12050000D01*
X8098000Y-12000000D01*
X8048000Y-12050000D01*
X8098000Y-12100000D01*
X8100000Y-4375000D02*
X8150000Y-4325000D01*
X8100000Y-4275000D01*
X8050000Y-4325000D01*
X8100000Y-4375000D01*
X8100000Y-6225000D02*
X8150000Y-6175000D01*
X8100000Y-6125000D01*
X8050000Y-6175000D01*
X8100000Y-6225000D01*
X8352000Y-12100000D02*
X8402000Y-12050000D01*
X8352000Y-12000000D01*
X8302000Y-12050000D01*
X8352000Y-12100000D01*
X8485000Y-1950000D02*
X8535000Y-1900000D01*
X8485000Y-1850000D01*
X8435000Y-1900000D01*
X8485000Y-1950000D01*
X8485000Y-3850000D02*
X8535000Y-3800000D01*
X8485000Y-3750000D01*
X8435000Y-3800000D01*
X8485000Y-3850000D01*
X8875000Y-9675000D02*
X8925000Y-9625000D01*
X8875000Y-9575000D01*
X8825000Y-9625000D01*
X8875000Y-9675000D01*
X8875000Y-11875000D02*
X8925000Y-11825000D01*
X8875000Y-11775000D01*
X8825000Y-11825000D01*
X8875000Y-11875000D01*
X9200000Y-3075000D02*
X9250000Y-3025000D01*
X9200000Y-2975000D01*
X9150000Y-3025000D01*
X9200000Y-3075000D01*
X9200000Y-3325000D02*
X9250000Y-3275000D01*
X9200000Y-3225000D01*
X9150000Y-3275000D01*
X9200000Y-3325000D01*
X10625000Y-4200000D02*
X10675000Y-4150000D01*
X10625000Y-4100000D01*
X10575000Y-4150000D01*
X10625000Y-4200000D01*
X10625000Y-4454000D02*
X10675000Y-4404000D01*
X10625000Y-4354000D01*
X10575000Y-4404000D01*
X10625000Y-4454000D01*
X10625000Y-4708000D02*
X10675000Y-4658000D01*
X10625000Y-4608000D01*
X10575000Y-4658000D01*
X10625000Y-4708000D01*
X10625000Y-4962000D02*
X10675000Y-4912000D01*
X10625000Y-4862000D01*
X10575000Y-4912000D01*
X10625000Y-4962000D01*
X10625000Y-5216000D02*
X10675000Y-5166000D01*
X10625000Y-5116000D01*
X10575000Y-5166000D01*
X10625000Y-5216000D01*
X10879000Y-4200000D02*
X10929000Y-4150000D01*
X10879000Y-4100000D01*
X10829000Y-4150000D01*
X10879000Y-4200000D01*
X10879000Y-4454000D02*
X10929000Y-4404000D01*
X10879000Y-4354000D01*
X10829000Y-4404000D01*
X10879000Y-4454000D01*
X10879000Y-4708000D02*
X10929000Y-4658000D01*
X10879000Y-4608000D01*
X10829000Y-4658000D01*
X10879000Y-4708000D01*
X10879000Y-4962000D02*
X10929000Y-4912000D01*
X10879000Y-4862000D01*
X10829000Y-4912000D01*
X10879000Y-4962000D01*
X10879000Y-5216000D02*
X10929000Y-5166000D01*
X10879000Y-5116000D01*
X10829000Y-5166000D01*
X10879000Y-5216000D01*
X8835000Y-5085000D02*
X8965000Y-5215000D01*
X8965000Y-5085000D02*
X8835000Y-5215000D01*
X8965000Y-5150000D02*
G75*
G03*
X8965000Y-5150000I-65000J0D01*
G01*
X8835000Y-5985000D02*
X8965000Y-6115000D01*
X8965000Y-5985000D02*
X8835000Y-6115000D01*
X8965000Y-6050000D02*
G75*
G03*
X8965000Y-6050000I-65000J0D01*
G01*
X8835000Y-8710000D02*
X8965000Y-8840000D01*
X8965000Y-8710000D02*
X8835000Y-8840000D01*
X8965000Y-8775000D02*
G75*
G03*
X8965000Y-8775000I-65000J0D01*
G01*
X9335000Y-5085000D02*
X9465000Y-5215000D01*
X9465000Y-5085000D02*
X9335000Y-5215000D01*
X9465000Y-5150000D02*
G75*
G03*
X9465000Y-5150000I-65000J0D01*
G01*
X9335000Y-5985000D02*
X9465000Y-6115000D01*
X9465000Y-5985000D02*
X9335000Y-6115000D01*
X9465000Y-6050000D02*
G75*
G03*
X9465000Y-6050000I-65000J0D01*
G01*
X9335000Y-8710000D02*
X9465000Y-8840000D01*
X9465000Y-8710000D02*
X9335000Y-8840000D01*
X9465000Y-8775000D02*
G75*
G03*
X9465000Y-8775000I-65000J0D01*
G01*
X10685000Y-5810000D02*
X10815000Y-5940000D01*
X10815000Y-5810000D02*
X10685000Y-5940000D01*
X10815000Y-5875000D02*
G75*
G03*
X10815000Y-5875000I-65000J0D01*
G01*
X10685000Y-6310000D02*
X10815000Y-6440000D01*
X10815000Y-6310000D02*
X10685000Y-6440000D01*
X10815000Y-6375000D02*
G75*
G03*
X10815000Y-6375000I-65000J0D01*
G01*
X10685000Y-6810000D02*
X10815000Y-6940000D01*
X10815000Y-6810000D02*
X10685000Y-6940000D01*
X10815000Y-6875000D02*
G75*
G03*
X10815000Y-6875000I-65000J0D01*
G01*
X10685000Y-7310000D02*
X10815000Y-7440000D01*
X10815000Y-7310000D02*
X10685000Y-7440000D01*
X10815000Y-7375000D02*
G75*
G03*
X10815000Y-7375000I-65000J0D01*
G01*
X10685000Y-8810000D02*
X10815000Y-8940000D01*
X10815000Y-8810000D02*
X10685000Y-8940000D01*
X10815000Y-8875000D02*
G75*
G03*
X10815000Y-8875000I-65000J0D01*
G01*
X10685000Y-9310000D02*
X10815000Y-9440000D01*
X10815000Y-9310000D02*
X10685000Y-9440000D01*
X10815000Y-9375000D02*
G75*
G03*
X10815000Y-9375000I-65000J0D01*
G01*
X4387500Y-5887500D02*
X4712500Y-6212500D01*
X4712500Y-5887500D02*
X4387500Y-6212500D01*
X4550000Y-5887500D02*
X4550000Y-6212500D01*
X4387500Y-6050000D02*
X4712500Y-6050000D01*
X4452500Y-3562500D02*
X4777500Y-3887500D01*
X4777500Y-3562500D02*
X4452500Y-3887500D01*
X4615000Y-3562500D02*
X4615000Y-3887500D01*
X4452500Y-3725000D02*
X4777500Y-3725000D01*
X5087500Y-10062500D02*
X5412500Y-10387500D01*
X5412500Y-10062500D02*
X5087500Y-10387500D01*
X5250000Y-10062500D02*
X5250000Y-10387500D01*
X5087500Y-10225000D02*
X5412500Y-10225000D01*
X7387500Y-4287500D02*
X7712500Y-4612500D01*
X7712500Y-4287500D02*
X7387500Y-4612500D01*
X7550000Y-4287500D02*
X7550000Y-4612500D01*
X7387500Y-4450000D02*
X7712500Y-4450000D01*
X7587500Y-10562500D02*
X7912500Y-10887500D01*
X7912500Y-10562500D02*
X7587500Y-10887500D01*
X7750000Y-10562500D02*
X7750000Y-10887500D01*
X7587500Y-10725000D02*
X7912500Y-10725000D01*
X7772500Y-1812500D02*
X8097500Y-2137500D01*
X8097500Y-1812500D02*
X7772500Y-2137500D01*
X7935000Y-1812500D02*
X7935000Y-2137500D01*
X7772500Y-1975000D02*
X8097500Y-1975000D01*
X2485000Y-2335000D02*
X3015000Y-2865000D01*
X3015000Y-2335000D02*
X2485000Y-2865000D01*
X2937385Y-2787385D02*
X2937385Y-2412615D01*
X2562615Y-2412615D01*
X2562615Y-2787385D01*
X2937385Y-2787385D01*
X2485000Y-10335000D02*
X3015000Y-10865000D01*
X3015000Y-10335000D02*
X2485000Y-10865000D01*
X2937385Y-10787385D02*
X2937385Y-10412615D01*
X2562615Y-10412615D01*
X2562615Y-10787385D01*
X2937385Y-10787385D01*
X10485000Y-2335000D02*
X11015000Y-2865000D01*
X11015000Y-2335000D02*
X10485000Y-2865000D01*
X10937385Y-2787385D02*
X10937385Y-2412615D01*
X10562615Y-2412615D01*
X10562615Y-2787385D01*
X10937385Y-2787385D01*
X10485000Y-10335000D02*
X11015000Y-10865000D01*
X11015000Y-10335000D02*
X10485000Y-10865000D01*
X10937385Y-10787385D02*
X10937385Y-10412615D01*
X10562615Y-10412615D01*
X10562615Y-10787385D01*
X10937385Y-10787385D01*
D12*
X2033928Y-12668214D02*
X2033928Y-12368214D01*
X2105357Y-12368214D01*
X2148214Y-12382500D01*
X2176786Y-12411071D01*
X2191071Y-12439643D01*
X2205357Y-12496786D01*
X2205357Y-12539643D01*
X2191071Y-12596786D01*
X2176786Y-12625357D01*
X2148214Y-12653929D01*
X2105357Y-12668214D01*
X2033928Y-12668214D01*
X2333928Y-12668214D02*
X2333928Y-12468214D01*
X2333928Y-12525357D02*
X2348214Y-12496786D01*
X2362500Y-12482500D01*
X2391071Y-12468214D01*
X2419643Y-12468214D01*
X2519643Y-12668214D02*
X2519643Y-12468214D01*
X2519643Y-12368214D02*
X2505357Y-12382500D01*
X2519643Y-12396786D01*
X2533928Y-12382500D01*
X2519643Y-12368214D01*
X2519643Y-12396786D01*
X2705357Y-12668214D02*
X2676786Y-12653929D01*
X2662500Y-12625357D01*
X2662500Y-12368214D01*
X2862500Y-12668214D02*
X2833928Y-12653929D01*
X2819643Y-12625357D01*
X2819643Y-12368214D01*
X3205357Y-12668214D02*
X3205357Y-12368214D01*
X3305357Y-12582500D01*
X3405357Y-12368214D01*
X3405357Y-12668214D01*
X3676786Y-12668214D02*
X3676786Y-12511071D01*
X3662500Y-12482500D01*
X3633928Y-12468214D01*
X3576786Y-12468214D01*
X3548214Y-12482500D01*
X3676786Y-12653929D02*
X3648214Y-12668214D01*
X3576786Y-12668214D01*
X3548214Y-12653929D01*
X3533928Y-12625357D01*
X3533928Y-12596786D01*
X3548214Y-12568214D01*
X3576786Y-12553929D01*
X3648214Y-12553929D01*
X3676786Y-12539643D01*
X3819643Y-12468214D02*
X3819643Y-12768214D01*
X3819643Y-12482500D02*
X3848214Y-12468214D01*
X3905357Y-12468214D01*
X3933928Y-12482500D01*
X3948214Y-12496786D01*
X3962500Y-12525357D01*
X3962500Y-12611071D01*
X3948214Y-12639643D01*
X3933928Y-12653929D01*
X3905357Y-12668214D01*
X3848214Y-12668214D01*
X3819643Y-12653929D01*
X4091071Y-12639643D02*
X4105357Y-12653929D01*
X4091071Y-12668214D01*
X4076786Y-12653929D01*
X4091071Y-12639643D01*
X4091071Y-12668214D01*
X4091071Y-12482500D02*
X4105357Y-12496786D01*
X4091071Y-12511071D01*
X4076786Y-12496786D01*
X4091071Y-12482500D01*
X4091071Y-12511071D01*
X1727500Y-13152500D02*
X1747500Y-13172500D01*
X1747500Y-13152500D02*
X1727500Y-13172500D01*
X2091071Y-12998214D02*
X2119643Y-12998214D01*
X2148214Y-13012500D01*
X2162500Y-13026786D01*
X2176786Y-13055357D01*
X2191071Y-13112500D01*
X2191071Y-13183929D01*
X2176786Y-13241071D01*
X2162500Y-13269643D01*
X2148214Y-13283929D01*
X2119643Y-13298214D01*
X2091071Y-13298214D01*
X2062500Y-13283929D01*
X2048214Y-13269643D01*
X2033928Y-13241071D01*
X2019643Y-13183929D01*
X2019643Y-13112500D01*
X2033928Y-13055357D01*
X2048214Y-13026786D01*
X2062500Y-13012500D01*
X2091071Y-12998214D01*
X2319643Y-13269643D02*
X2333928Y-13283929D01*
X2319643Y-13298214D01*
X2305357Y-13283929D01*
X2319643Y-13269643D01*
X2319643Y-13298214D01*
X2448214Y-13026786D02*
X2462500Y-13012500D01*
X2491071Y-12998214D01*
X2562500Y-12998214D01*
X2591071Y-13012500D01*
X2605357Y-13026786D01*
X2619643Y-13055357D01*
X2619643Y-13083929D01*
X2605357Y-13126786D01*
X2433928Y-13298214D01*
X2619643Y-13298214D01*
X2805357Y-12998214D02*
X2833928Y-12998214D01*
X2862500Y-13012500D01*
X2876786Y-13026786D01*
X2891071Y-13055357D01*
X2905357Y-13112500D01*
X2905357Y-13183929D01*
X2891071Y-13241071D01*
X2876786Y-13269643D01*
X2862500Y-13283929D01*
X2833928Y-13298214D01*
X2805357Y-13298214D01*
X2776786Y-13283929D01*
X2762500Y-13269643D01*
X2748214Y-13241071D01*
X2733928Y-13183929D01*
X2733928Y-13112500D01*
X2748214Y-13055357D01*
X2762500Y-13026786D01*
X2776786Y-13012500D01*
X2805357Y-12998214D01*
X3091071Y-12998214D02*
X3119643Y-12998214D01*
X3148214Y-13012500D01*
X3162500Y-13026786D01*
X3176786Y-13055357D01*
X3191071Y-13112500D01*
X3191071Y-13183929D01*
X3176786Y-13241071D01*
X3162500Y-13269643D01*
X3148214Y-13283929D01*
X3119643Y-13298214D01*
X3091071Y-13298214D01*
X3062500Y-13283929D01*
X3048214Y-13269643D01*
X3033928Y-13241071D01*
X3019643Y-13183929D01*
X3019643Y-13112500D01*
X3033928Y-13055357D01*
X3048214Y-13026786D01*
X3062500Y-13012500D01*
X3091071Y-12998214D01*
X3319643Y-13298214D02*
X3319643Y-13098214D01*
X3319643Y-13126786D02*
X3333928Y-13112500D01*
X3362500Y-13098214D01*
X3405357Y-13098214D01*
X3433928Y-13112500D01*
X3448214Y-13141071D01*
X3448214Y-13298214D01*
X3448214Y-13141071D02*
X3462500Y-13112500D01*
X3491071Y-13098214D01*
X3533928Y-13098214D01*
X3562500Y-13112500D01*
X3576786Y-13141071D01*
X3576786Y-13298214D01*
X3719643Y-13298214D02*
X3719643Y-13098214D01*
X3719643Y-13126786D02*
X3733928Y-13112500D01*
X3762500Y-13098214D01*
X3805357Y-13098214D01*
X3833928Y-13112500D01*
X3848214Y-13141071D01*
X3848214Y-13298214D01*
X3848214Y-13141071D02*
X3862500Y-13112500D01*
X3891071Y-13098214D01*
X3933928Y-13098214D01*
X3962500Y-13112500D01*
X3976786Y-13141071D01*
X3976786Y-13298214D01*
X4562500Y-12983929D02*
X4305357Y-13369643D01*
X4948214Y-12998214D02*
X4976786Y-12998214D01*
X5005357Y-13012500D01*
X5019643Y-13026786D01*
X5033928Y-13055357D01*
X5048214Y-13112500D01*
X5048214Y-13183929D01*
X5033928Y-13241071D01*
X5019643Y-13269643D01*
X5005357Y-13283929D01*
X4976786Y-13298214D01*
X4948214Y-13298214D01*
X4919643Y-13283929D01*
X4905357Y-13269643D01*
X4891071Y-13241071D01*
X4876786Y-13183929D01*
X4876786Y-13112500D01*
X4891071Y-13055357D01*
X4905357Y-13026786D01*
X4919643Y-13012500D01*
X4948214Y-12998214D01*
X5176786Y-13269643D02*
X5191071Y-13283929D01*
X5176786Y-13298214D01*
X5162500Y-13283929D01*
X5176786Y-13269643D01*
X5176786Y-13298214D01*
X5376786Y-12998214D02*
X5405357Y-12998214D01*
X5433928Y-13012500D01*
X5448214Y-13026786D01*
X5462500Y-13055357D01*
X5476786Y-13112500D01*
X5476786Y-13183929D01*
X5462500Y-13241071D01*
X5448214Y-13269643D01*
X5433928Y-13283929D01*
X5405357Y-13298214D01*
X5376786Y-13298214D01*
X5348214Y-13283929D01*
X5333928Y-13269643D01*
X5319643Y-13241071D01*
X5305357Y-13183929D01*
X5305357Y-13112500D01*
X5319643Y-13055357D01*
X5333928Y-13026786D01*
X5348214Y-13012500D01*
X5376786Y-12998214D01*
X5662500Y-12998214D02*
X5691071Y-12998214D01*
X5719643Y-13012500D01*
X5733928Y-13026786D01*
X5748214Y-13055357D01*
X5762500Y-13112500D01*
X5762500Y-13183929D01*
X5748214Y-13241071D01*
X5733928Y-13269643D01*
X5719643Y-13283929D01*
X5691071Y-13298214D01*
X5662500Y-13298214D01*
X5633928Y-13283929D01*
X5619643Y-13269643D01*
X5605357Y-13241071D01*
X5591071Y-13183929D01*
X5591071Y-13112500D01*
X5605357Y-13055357D01*
X5619643Y-13026786D01*
X5633928Y-13012500D01*
X5662500Y-12998214D01*
X5862500Y-12998214D02*
X6062500Y-12998214D01*
X5933928Y-13298214D01*
X6191071Y-13298214D02*
X6248214Y-13298214D01*
X6276786Y-13283929D01*
X6291071Y-13269643D01*
X6319643Y-13226786D01*
X6333928Y-13169643D01*
X6333928Y-13055357D01*
X6319643Y-13026786D01*
X6305357Y-13012500D01*
X6276786Y-12998214D01*
X6219643Y-12998214D01*
X6191071Y-13012500D01*
X6176786Y-13026786D01*
X6162500Y-13055357D01*
X6162500Y-13126786D01*
X6176786Y-13155357D01*
X6191071Y-13169643D01*
X6219643Y-13183929D01*
X6276786Y-13183929D01*
X6305357Y-13169643D01*
X6319643Y-13155357D01*
X6333928Y-13126786D01*
X6448214Y-12998214D02*
X6448214Y-13055357D01*
X6562500Y-12998214D02*
X6562500Y-13055357D01*
X7005357Y-13412500D02*
X6991071Y-13398214D01*
X6962500Y-13355357D01*
X6948214Y-13326786D01*
X6933928Y-13283929D01*
X6919643Y-13212500D01*
X6919643Y-13155357D01*
X6933928Y-13083929D01*
X6948214Y-13041071D01*
X6962500Y-13012500D01*
X6991071Y-12969643D01*
X7005357Y-12955357D01*
X7248214Y-13098214D02*
X7248214Y-13298214D01*
X7176786Y-12983929D02*
X7105357Y-13198214D01*
X7291071Y-13198214D01*
X7448214Y-13126786D02*
X7419643Y-13112500D01*
X7405357Y-13098214D01*
X7391071Y-13069643D01*
X7391071Y-13055357D01*
X7405357Y-13026786D01*
X7419643Y-13012500D01*
X7448214Y-12998214D01*
X7505357Y-12998214D01*
X7533928Y-13012500D01*
X7548214Y-13026786D01*
X7562500Y-13055357D01*
X7562500Y-13069643D01*
X7548214Y-13098214D01*
X7533928Y-13112500D01*
X7505357Y-13126786D01*
X7448214Y-13126786D01*
X7419643Y-13141071D01*
X7405357Y-13155357D01*
X7391071Y-13183929D01*
X7391071Y-13241071D01*
X7405357Y-13269643D01*
X7419643Y-13283929D01*
X7448214Y-13298214D01*
X7505357Y-13298214D01*
X7533928Y-13283929D01*
X7548214Y-13269643D01*
X7562500Y-13241071D01*
X7562500Y-13183929D01*
X7548214Y-13155357D01*
X7533928Y-13141071D01*
X7505357Y-13126786D01*
X7919643Y-13298214D02*
X7919643Y-12998214D01*
X8048214Y-13298214D02*
X8048214Y-13141071D01*
X8033928Y-13112500D01*
X8005357Y-13098214D01*
X7962500Y-13098214D01*
X7933928Y-13112500D01*
X7919643Y-13126786D01*
X8233928Y-13298214D02*
X8205357Y-13283929D01*
X8191071Y-13269643D01*
X8176786Y-13241071D01*
X8176786Y-13155357D01*
X8191071Y-13126786D01*
X8205357Y-13112500D01*
X8233928Y-13098214D01*
X8276786Y-13098214D01*
X8305357Y-13112500D01*
X8319643Y-13126786D01*
X8333928Y-13155357D01*
X8333928Y-13241071D01*
X8319643Y-13269643D01*
X8305357Y-13283929D01*
X8276786Y-13298214D01*
X8233928Y-13298214D01*
X8505357Y-13298214D02*
X8476786Y-13283929D01*
X8462500Y-13255357D01*
X8462500Y-12998214D01*
X8733928Y-13283929D02*
X8705357Y-13298214D01*
X8648214Y-13298214D01*
X8619643Y-13283929D01*
X8605357Y-13255357D01*
X8605357Y-13141071D01*
X8619643Y-13112500D01*
X8648214Y-13098214D01*
X8705357Y-13098214D01*
X8733928Y-13112500D01*
X8748214Y-13141071D01*
X8748214Y-13169643D01*
X8605357Y-13198214D01*
X8862500Y-13283929D02*
X8891071Y-13298214D01*
X8948214Y-13298214D01*
X8976786Y-13283929D01*
X8991071Y-13255357D01*
X8991071Y-13241071D01*
X8976786Y-13212500D01*
X8948214Y-13198214D01*
X8905357Y-13198214D01*
X8876786Y-13183929D01*
X8862500Y-13155357D01*
X8862500Y-13141071D01*
X8876786Y-13112500D01*
X8905357Y-13098214D01*
X8948214Y-13098214D01*
X8976786Y-13112500D01*
X9091071Y-13412500D02*
X9105357Y-13398214D01*
X9133928Y-13355357D01*
X9148214Y-13326786D01*
X9162500Y-13283929D01*
X9176786Y-13212500D01*
X9176786Y-13155357D01*
X9162500Y-13083929D01*
X9148214Y-13041071D01*
X9133928Y-13012500D01*
X9105357Y-12969643D01*
X9091071Y-12955357D01*
X1747500Y-13558500D02*
G75*
G03*
X1747500Y-13558500I-20000J0D01*
G01*
X2091071Y-13394214D02*
X2119643Y-13394214D01*
X2148214Y-13408500D01*
X2162500Y-13422786D01*
X2176786Y-13451357D01*
X2191071Y-13508500D01*
X2191071Y-13579929D01*
X2176786Y-13637071D01*
X2162500Y-13665643D01*
X2148214Y-13679929D01*
X2119643Y-13694214D01*
X2091071Y-13694214D01*
X2062500Y-13679929D01*
X2048214Y-13665643D01*
X2033928Y-13637071D01*
X2019643Y-13579929D01*
X2019643Y-13508500D01*
X2033928Y-13451357D01*
X2048214Y-13422786D01*
X2062500Y-13408500D01*
X2091071Y-13394214D01*
X2319643Y-13665643D02*
X2333928Y-13679929D01*
X2319643Y-13694214D01*
X2305357Y-13679929D01*
X2319643Y-13665643D01*
X2319643Y-13694214D01*
X2591071Y-13494214D02*
X2591071Y-13694214D01*
X2519643Y-13379929D02*
X2448214Y-13594214D01*
X2633928Y-13594214D01*
X2805357Y-13394214D02*
X2833928Y-13394214D01*
X2862500Y-13408500D01*
X2876786Y-13422786D01*
X2891071Y-13451357D01*
X2905357Y-13508500D01*
X2905357Y-13579929D01*
X2891071Y-13637071D01*
X2876786Y-13665643D01*
X2862500Y-13679929D01*
X2833928Y-13694214D01*
X2805357Y-13694214D01*
X2776786Y-13679929D01*
X2762500Y-13665643D01*
X2748214Y-13637071D01*
X2733928Y-13579929D01*
X2733928Y-13508500D01*
X2748214Y-13451357D01*
X2762500Y-13422786D01*
X2776786Y-13408500D01*
X2805357Y-13394214D01*
X3091071Y-13394214D02*
X3119643Y-13394214D01*
X3148214Y-13408500D01*
X3162500Y-13422786D01*
X3176786Y-13451357D01*
X3191071Y-13508500D01*
X3191071Y-13579929D01*
X3176786Y-13637071D01*
X3162500Y-13665643D01*
X3148214Y-13679929D01*
X3119643Y-13694214D01*
X3091071Y-13694214D01*
X3062500Y-13679929D01*
X3048214Y-13665643D01*
X3033928Y-13637071D01*
X3019643Y-13579929D01*
X3019643Y-13508500D01*
X3033928Y-13451357D01*
X3048214Y-13422786D01*
X3062500Y-13408500D01*
X3091071Y-13394214D01*
X3319643Y-13694214D02*
X3319643Y-13494214D01*
X3319643Y-13522786D02*
X3333928Y-13508500D01*
X3362500Y-13494214D01*
X3405357Y-13494214D01*
X3433928Y-13508500D01*
X3448214Y-13537071D01*
X3448214Y-13694214D01*
X3448214Y-13537071D02*
X3462500Y-13508500D01*
X3491071Y-13494214D01*
X3533928Y-13494214D01*
X3562500Y-13508500D01*
X3576786Y-13537071D01*
X3576786Y-13694214D01*
X3719643Y-13694214D02*
X3719643Y-13494214D01*
X3719643Y-13522786D02*
X3733928Y-13508500D01*
X3762500Y-13494214D01*
X3805357Y-13494214D01*
X3833928Y-13508500D01*
X3848214Y-13537071D01*
X3848214Y-13694214D01*
X3848214Y-13537071D02*
X3862500Y-13508500D01*
X3891071Y-13494214D01*
X3933928Y-13494214D01*
X3962500Y-13508500D01*
X3976786Y-13537071D01*
X3976786Y-13694214D01*
X4562500Y-13379929D02*
X4305357Y-13765643D01*
X4948214Y-13394214D02*
X4976786Y-13394214D01*
X5005357Y-13408500D01*
X5019643Y-13422786D01*
X5033928Y-13451357D01*
X5048214Y-13508500D01*
X5048214Y-13579929D01*
X5033928Y-13637071D01*
X5019643Y-13665643D01*
X5005357Y-13679929D01*
X4976786Y-13694214D01*
X4948214Y-13694214D01*
X4919643Y-13679929D01*
X4905357Y-13665643D01*
X4891071Y-13637071D01*
X4876786Y-13579929D01*
X4876786Y-13508500D01*
X4891071Y-13451357D01*
X4905357Y-13422786D01*
X4919643Y-13408500D01*
X4948214Y-13394214D01*
X5176786Y-13665643D02*
X5191071Y-13679929D01*
X5176786Y-13694214D01*
X5162500Y-13679929D01*
X5176786Y-13665643D01*
X5176786Y-13694214D01*
X5376786Y-13394214D02*
X5405357Y-13394214D01*
X5433928Y-13408500D01*
X5448214Y-13422786D01*
X5462500Y-13451357D01*
X5476786Y-13508500D01*
X5476786Y-13579929D01*
X5462500Y-13637071D01*
X5448214Y-13665643D01*
X5433928Y-13679929D01*
X5405357Y-13694214D01*
X5376786Y-13694214D01*
X5348214Y-13679929D01*
X5333928Y-13665643D01*
X5319643Y-13637071D01*
X5305357Y-13579929D01*
X5305357Y-13508500D01*
X5319643Y-13451357D01*
X5333928Y-13422786D01*
X5348214Y-13408500D01*
X5376786Y-13394214D01*
X5762500Y-13694214D02*
X5591071Y-13694214D01*
X5676786Y-13694214D02*
X5676786Y-13394214D01*
X5648214Y-13437071D01*
X5619643Y-13465643D01*
X5591071Y-13479929D01*
X6033928Y-13394214D02*
X5891071Y-13394214D01*
X5876786Y-13537071D01*
X5891071Y-13522786D01*
X5919643Y-13508500D01*
X5991071Y-13508500D01*
X6019643Y-13522786D01*
X6033928Y-13537071D01*
X6048214Y-13565643D01*
X6048214Y-13637071D01*
X6033928Y-13665643D01*
X6019643Y-13679929D01*
X5991071Y-13694214D01*
X5919643Y-13694214D01*
X5891071Y-13679929D01*
X5876786Y-13665643D01*
X6148214Y-13394214D02*
X6348214Y-13394214D01*
X6219643Y-13694214D01*
X6448214Y-13394214D02*
X6448214Y-13451357D01*
X6562500Y-13394214D02*
X6562500Y-13451357D01*
X7005357Y-13808500D02*
X6991071Y-13794214D01*
X6962500Y-13751357D01*
X6948214Y-13722786D01*
X6933928Y-13679929D01*
X6919643Y-13608500D01*
X6919643Y-13551357D01*
X6933928Y-13479929D01*
X6948214Y-13437071D01*
X6962500Y-13408500D01*
X6991071Y-13365643D01*
X7005357Y-13351357D01*
X7276786Y-13694214D02*
X7105357Y-13694214D01*
X7191071Y-13694214D02*
X7191071Y-13394214D01*
X7162500Y-13437071D01*
X7133928Y-13465643D01*
X7105357Y-13479929D01*
X7462500Y-13394214D02*
X7491071Y-13394214D01*
X7519643Y-13408500D01*
X7533928Y-13422786D01*
X7548214Y-13451357D01*
X7562500Y-13508500D01*
X7562500Y-13579929D01*
X7548214Y-13637071D01*
X7533928Y-13665643D01*
X7519643Y-13679929D01*
X7491071Y-13694214D01*
X7462500Y-13694214D01*
X7433928Y-13679929D01*
X7419643Y-13665643D01*
X7405357Y-13637071D01*
X7391071Y-13579929D01*
X7391071Y-13508500D01*
X7405357Y-13451357D01*
X7419643Y-13422786D01*
X7433928Y-13408500D01*
X7462500Y-13394214D01*
X7919643Y-13694214D02*
X7919643Y-13394214D01*
X8048214Y-13694214D02*
X8048214Y-13537071D01*
X8033928Y-13508500D01*
X8005357Y-13494214D01*
X7962500Y-13494214D01*
X7933928Y-13508500D01*
X7919643Y-13522786D01*
X8233928Y-13694214D02*
X8205357Y-13679929D01*
X8191071Y-13665643D01*
X8176786Y-13637071D01*
X8176786Y-13551357D01*
X8191071Y-13522786D01*
X8205357Y-13508500D01*
X8233928Y-13494214D01*
X8276786Y-13494214D01*
X8305357Y-13508500D01*
X8319643Y-13522786D01*
X8333928Y-13551357D01*
X8333928Y-13637071D01*
X8319643Y-13665643D01*
X8305357Y-13679929D01*
X8276786Y-13694214D01*
X8233928Y-13694214D01*
X8505357Y-13694214D02*
X8476786Y-13679929D01*
X8462500Y-13651357D01*
X8462500Y-13394214D01*
X8733928Y-13679929D02*
X8705357Y-13694214D01*
X8648214Y-13694214D01*
X8619643Y-13679929D01*
X8605357Y-13651357D01*
X8605357Y-13537071D01*
X8619643Y-13508500D01*
X8648214Y-13494214D01*
X8705357Y-13494214D01*
X8733928Y-13508500D01*
X8748214Y-13537071D01*
X8748214Y-13565643D01*
X8605357Y-13594214D01*
X8862500Y-13679929D02*
X8891071Y-13694214D01*
X8948214Y-13694214D01*
X8976786Y-13679929D01*
X8991071Y-13651357D01*
X8991071Y-13637071D01*
X8976786Y-13608500D01*
X8948214Y-13594214D01*
X8905357Y-13594214D01*
X8876786Y-13579929D01*
X8862500Y-13551357D01*
X8862500Y-13537071D01*
X8876786Y-13508500D01*
X8905357Y-13494214D01*
X8948214Y-13494214D01*
X8976786Y-13508500D01*
X9091071Y-13808500D02*
X9105357Y-13794214D01*
X9133928Y-13751357D01*
X9148214Y-13722786D01*
X9162500Y-13679929D01*
X9176786Y-13608500D01*
X9176786Y-13551357D01*
X9162500Y-13479929D01*
X9148214Y-13437071D01*
X9133928Y-13408500D01*
X9105357Y-13365643D01*
X9091071Y-13351357D01*
X1717500Y-13924500D02*
X1717500Y-13984500D01*
X1687500Y-13954500D02*
X1747500Y-13954500D01*
X2091071Y-13790214D02*
X2119643Y-13790214D01*
X2148214Y-13804500D01*
X2162500Y-13818786D01*
X2176786Y-13847357D01*
X2191071Y-13904500D01*
X2191071Y-13975929D01*
X2176786Y-14033071D01*
X2162500Y-14061643D01*
X2148214Y-14075929D01*
X2119643Y-14090214D01*
X2091071Y-14090214D01*
X2062500Y-14075929D01*
X2048214Y-14061643D01*
X2033928Y-14033071D01*
X2019643Y-13975929D01*
X2019643Y-13904500D01*
X2033928Y-13847357D01*
X2048214Y-13818786D01*
X2062500Y-13804500D01*
X2091071Y-13790214D01*
X2319643Y-14061643D02*
X2333928Y-14075929D01*
X2319643Y-14090214D01*
X2305357Y-14075929D01*
X2319643Y-14061643D01*
X2319643Y-14090214D01*
X2591071Y-13790214D02*
X2533928Y-13790214D01*
X2505357Y-13804500D01*
X2491071Y-13818786D01*
X2462500Y-13861643D01*
X2448214Y-13918786D01*
X2448214Y-14033071D01*
X2462500Y-14061643D01*
X2476786Y-14075929D01*
X2505357Y-14090214D01*
X2562500Y-14090214D01*
X2591071Y-14075929D01*
X2605357Y-14061643D01*
X2619643Y-14033071D01*
X2619643Y-13961643D01*
X2605357Y-13933071D01*
X2591071Y-13918786D01*
X2562500Y-13904500D01*
X2505357Y-13904500D01*
X2476786Y-13918786D01*
X2462500Y-13933071D01*
X2448214Y-13961643D01*
X2805357Y-13790214D02*
X2833928Y-13790214D01*
X2862500Y-13804500D01*
X2876786Y-13818786D01*
X2891071Y-13847357D01*
X2905357Y-13904500D01*
X2905357Y-13975929D01*
X2891071Y-14033071D01*
X2876786Y-14061643D01*
X2862500Y-14075929D01*
X2833928Y-14090214D01*
X2805357Y-14090214D01*
X2776786Y-14075929D01*
X2762500Y-14061643D01*
X2748214Y-14033071D01*
X2733928Y-13975929D01*
X2733928Y-13904500D01*
X2748214Y-13847357D01*
X2762500Y-13818786D01*
X2776786Y-13804500D01*
X2805357Y-13790214D01*
X3091071Y-13790214D02*
X3119643Y-13790214D01*
X3148214Y-13804500D01*
X3162500Y-13818786D01*
X3176786Y-13847357D01*
X3191071Y-13904500D01*
X3191071Y-13975929D01*
X3176786Y-14033071D01*
X3162500Y-14061643D01*
X3148214Y-14075929D01*
X3119643Y-14090214D01*
X3091071Y-14090214D01*
X3062500Y-14075929D01*
X3048214Y-14061643D01*
X3033928Y-14033071D01*
X3019643Y-13975929D01*
X3019643Y-13904500D01*
X3033928Y-13847357D01*
X3048214Y-13818786D01*
X3062500Y-13804500D01*
X3091071Y-13790214D01*
X3319643Y-14090214D02*
X3319643Y-13890214D01*
X3319643Y-13918786D02*
X3333928Y-13904500D01*
X3362500Y-13890214D01*
X3405357Y-13890214D01*
X3433928Y-13904500D01*
X3448214Y-13933071D01*
X3448214Y-14090214D01*
X3448214Y-13933071D02*
X3462500Y-13904500D01*
X3491071Y-13890214D01*
X3533928Y-13890214D01*
X3562500Y-13904500D01*
X3576786Y-13933071D01*
X3576786Y-14090214D01*
X3719643Y-14090214D02*
X3719643Y-13890214D01*
X3719643Y-13918786D02*
X3733928Y-13904500D01*
X3762500Y-13890214D01*
X3805357Y-13890214D01*
X3833928Y-13904500D01*
X3848214Y-13933071D01*
X3848214Y-14090214D01*
X3848214Y-13933071D02*
X3862500Y-13904500D01*
X3891071Y-13890214D01*
X3933928Y-13890214D01*
X3962500Y-13904500D01*
X3976786Y-13933071D01*
X3976786Y-14090214D01*
X4562500Y-13775929D02*
X4305357Y-14161643D01*
X4948214Y-13790214D02*
X4976786Y-13790214D01*
X5005357Y-13804500D01*
X5019643Y-13818786D01*
X5033928Y-13847357D01*
X5048214Y-13904500D01*
X5048214Y-13975929D01*
X5033928Y-14033071D01*
X5019643Y-14061643D01*
X5005357Y-14075929D01*
X4976786Y-14090214D01*
X4948214Y-14090214D01*
X4919643Y-14075929D01*
X4905357Y-14061643D01*
X4891071Y-14033071D01*
X4876786Y-13975929D01*
X4876786Y-13904500D01*
X4891071Y-13847357D01*
X4905357Y-13818786D01*
X4919643Y-13804500D01*
X4948214Y-13790214D01*
X5176786Y-14061643D02*
X5191071Y-14075929D01*
X5176786Y-14090214D01*
X5162500Y-14075929D01*
X5176786Y-14061643D01*
X5176786Y-14090214D01*
X5376786Y-13790214D02*
X5405357Y-13790214D01*
X5433928Y-13804500D01*
X5448214Y-13818786D01*
X5462500Y-13847357D01*
X5476786Y-13904500D01*
X5476786Y-13975929D01*
X5462500Y-14033071D01*
X5448214Y-14061643D01*
X5433928Y-14075929D01*
X5405357Y-14090214D01*
X5376786Y-14090214D01*
X5348214Y-14075929D01*
X5333928Y-14061643D01*
X5319643Y-14033071D01*
X5305357Y-13975929D01*
X5305357Y-13904500D01*
X5319643Y-13847357D01*
X5333928Y-13818786D01*
X5348214Y-13804500D01*
X5376786Y-13790214D01*
X5591071Y-13818786D02*
X5605357Y-13804500D01*
X5633928Y-13790214D01*
X5705357Y-13790214D01*
X5733928Y-13804500D01*
X5748214Y-13818786D01*
X5762500Y-13847357D01*
X5762500Y-13875929D01*
X5748214Y-13918786D01*
X5576786Y-14090214D01*
X5762500Y-14090214D01*
X5862500Y-13790214D02*
X6048214Y-13790214D01*
X5948214Y-13904500D01*
X5991071Y-13904500D01*
X6019643Y-13918786D01*
X6033928Y-13933071D01*
X6048214Y-13961643D01*
X6048214Y-14033071D01*
X6033928Y-14061643D01*
X6019643Y-14075929D01*
X5991071Y-14090214D01*
X5905357Y-14090214D01*
X5876786Y-14075929D01*
X5862500Y-14061643D01*
X6305357Y-13790214D02*
X6248214Y-13790214D01*
X6219643Y-13804500D01*
X6205357Y-13818786D01*
X6176786Y-13861643D01*
X6162500Y-13918786D01*
X6162500Y-14033071D01*
X6176786Y-14061643D01*
X6191071Y-14075929D01*
X6219643Y-14090214D01*
X6276786Y-14090214D01*
X6305357Y-14075929D01*
X6319643Y-14061643D01*
X6333928Y-14033071D01*
X6333928Y-13961643D01*
X6319643Y-13933071D01*
X6305357Y-13918786D01*
X6276786Y-13904500D01*
X6219643Y-13904500D01*
X6191071Y-13918786D01*
X6176786Y-13933071D01*
X6162500Y-13961643D01*
X6448214Y-13790214D02*
X6448214Y-13847357D01*
X6562500Y-13790214D02*
X6562500Y-13847357D01*
X7005357Y-14204500D02*
X6991071Y-14190214D01*
X6962500Y-14147357D01*
X6948214Y-14118786D01*
X6933928Y-14075929D01*
X6919643Y-14004500D01*
X6919643Y-13947357D01*
X6933928Y-13875929D01*
X6948214Y-13833071D01*
X6962500Y-13804500D01*
X6991071Y-13761643D01*
X7005357Y-13747357D01*
X7091071Y-13790214D02*
X7276786Y-13790214D01*
X7176786Y-13904500D01*
X7219643Y-13904500D01*
X7248214Y-13918786D01*
X7262500Y-13933071D01*
X7276786Y-13961643D01*
X7276786Y-14033071D01*
X7262500Y-14061643D01*
X7248214Y-14075929D01*
X7219643Y-14090214D01*
X7133928Y-14090214D01*
X7105357Y-14075929D01*
X7091071Y-14061643D01*
X7391071Y-13818786D02*
X7405357Y-13804500D01*
X7433928Y-13790214D01*
X7505357Y-13790214D01*
X7533928Y-13804500D01*
X7548214Y-13818786D01*
X7562500Y-13847357D01*
X7562500Y-13875929D01*
X7548214Y-13918786D01*
X7376786Y-14090214D01*
X7562500Y-14090214D01*
X7919643Y-14090214D02*
X7919643Y-13790214D01*
X8048214Y-14090214D02*
X8048214Y-13933071D01*
X8033928Y-13904500D01*
X8005357Y-13890214D01*
X7962500Y-13890214D01*
X7933928Y-13904500D01*
X7919643Y-13918786D01*
X8233928Y-14090214D02*
X8205357Y-14075929D01*
X8191071Y-14061643D01*
X8176786Y-14033071D01*
X8176786Y-13947357D01*
X8191071Y-13918786D01*
X8205357Y-13904500D01*
X8233928Y-13890214D01*
X8276786Y-13890214D01*
X8305357Y-13904500D01*
X8319643Y-13918786D01*
X8333928Y-13947357D01*
X8333928Y-14033071D01*
X8319643Y-14061643D01*
X8305357Y-14075929D01*
X8276786Y-14090214D01*
X8233928Y-14090214D01*
X8505357Y-14090214D02*
X8476786Y-14075929D01*
X8462500Y-14047357D01*
X8462500Y-13790214D01*
X8733928Y-14075929D02*
X8705357Y-14090214D01*
X8648214Y-14090214D01*
X8619643Y-14075929D01*
X8605357Y-14047357D01*
X8605357Y-13933071D01*
X8619643Y-13904500D01*
X8648214Y-13890214D01*
X8705357Y-13890214D01*
X8733928Y-13904500D01*
X8748214Y-13933071D01*
X8748214Y-13961643D01*
X8605357Y-13990214D01*
X8862500Y-14075929D02*
X8891071Y-14090214D01*
X8948214Y-14090214D01*
X8976786Y-14075929D01*
X8991071Y-14047357D01*
X8991071Y-14033071D01*
X8976786Y-14004500D01*
X8948214Y-13990214D01*
X8905357Y-13990214D01*
X8876786Y-13975929D01*
X8862500Y-13947357D01*
X8862500Y-13933071D01*
X8876786Y-13904500D01*
X8905357Y-13890214D01*
X8948214Y-13890214D01*
X8976786Y-13904500D01*
X9091071Y-14204500D02*
X9105357Y-14190214D01*
X9133928Y-14147357D01*
X9148214Y-14118786D01*
X9162500Y-14075929D01*
X9176786Y-14004500D01*
X9176786Y-13947357D01*
X9162500Y-13875929D01*
X9148214Y-13833071D01*
X9133928Y-13804500D01*
X9105357Y-13761643D01*
X9091071Y-13747357D01*
X1733588Y-14384088D02*
X1733588Y-14316912D01*
X1666412Y-14316912D01*
X1666412Y-14384088D01*
X1733588Y-14384088D01*
X2091071Y-14186214D02*
X2119643Y-14186214D01*
X2148214Y-14200500D01*
X2162500Y-14214786D01*
X2176786Y-14243357D01*
X2191071Y-14300500D01*
X2191071Y-14371929D01*
X2176786Y-14429071D01*
X2162500Y-14457643D01*
X2148214Y-14471929D01*
X2119643Y-14486214D01*
X2091071Y-14486214D01*
X2062500Y-14471929D01*
X2048214Y-14457643D01*
X2033928Y-14429071D01*
X2019643Y-14371929D01*
X2019643Y-14300500D01*
X2033928Y-14243357D01*
X2048214Y-14214786D01*
X2062500Y-14200500D01*
X2091071Y-14186214D01*
X2319643Y-14457643D02*
X2333928Y-14471929D01*
X2319643Y-14486214D01*
X2305357Y-14471929D01*
X2319643Y-14457643D01*
X2319643Y-14486214D01*
X2476786Y-14486214D02*
X2533928Y-14486214D01*
X2562500Y-14471929D01*
X2576786Y-14457643D01*
X2605357Y-14414786D01*
X2619643Y-14357643D01*
X2619643Y-14243357D01*
X2605357Y-14214786D01*
X2591071Y-14200500D01*
X2562500Y-14186214D01*
X2505357Y-14186214D01*
X2476786Y-14200500D01*
X2462500Y-14214786D01*
X2448214Y-14243357D01*
X2448214Y-14314786D01*
X2462500Y-14343357D01*
X2476786Y-14357643D01*
X2505357Y-14371929D01*
X2562500Y-14371929D01*
X2591071Y-14357643D01*
X2605357Y-14343357D01*
X2619643Y-14314786D01*
X2891071Y-14186214D02*
X2748214Y-14186214D01*
X2733928Y-14329071D01*
X2748214Y-14314786D01*
X2776786Y-14300500D01*
X2848214Y-14300500D01*
X2876786Y-14314786D01*
X2891071Y-14329071D01*
X2905357Y-14357643D01*
X2905357Y-14429071D01*
X2891071Y-14457643D01*
X2876786Y-14471929D01*
X2848214Y-14486214D01*
X2776786Y-14486214D01*
X2748214Y-14471929D01*
X2733928Y-14457643D01*
X3091071Y-14186214D02*
X3119643Y-14186214D01*
X3148214Y-14200500D01*
X3162500Y-14214786D01*
X3176786Y-14243357D01*
X3191071Y-14300500D01*
X3191071Y-14371929D01*
X3176786Y-14429071D01*
X3162500Y-14457643D01*
X3148214Y-14471929D01*
X3119643Y-14486214D01*
X3091071Y-14486214D01*
X3062500Y-14471929D01*
X3048214Y-14457643D01*
X3033928Y-14429071D01*
X3019643Y-14371929D01*
X3019643Y-14300500D01*
X3033928Y-14243357D01*
X3048214Y-14214786D01*
X3062500Y-14200500D01*
X3091071Y-14186214D01*
X3319643Y-14486214D02*
X3319643Y-14286214D01*
X3319643Y-14314786D02*
X3333928Y-14300500D01*
X3362500Y-14286214D01*
X3405357Y-14286214D01*
X3433928Y-14300500D01*
X3448214Y-14329071D01*
X3448214Y-14486214D01*
X3448214Y-14329071D02*
X3462500Y-14300500D01*
X3491071Y-14286214D01*
X3533928Y-14286214D01*
X3562500Y-14300500D01*
X3576786Y-14329071D01*
X3576786Y-14486214D01*
X3719643Y-14486214D02*
X3719643Y-14286214D01*
X3719643Y-14314786D02*
X3733928Y-14300500D01*
X3762500Y-14286214D01*
X3805357Y-14286214D01*
X3833928Y-14300500D01*
X3848214Y-14329071D01*
X3848214Y-14486214D01*
X3848214Y-14329071D02*
X3862500Y-14300500D01*
X3891071Y-14286214D01*
X3933928Y-14286214D01*
X3962500Y-14300500D01*
X3976786Y-14329071D01*
X3976786Y-14486214D01*
X4562500Y-14171929D02*
X4305357Y-14557643D01*
X4948214Y-14186214D02*
X4976786Y-14186214D01*
X5005357Y-14200500D01*
X5019643Y-14214786D01*
X5033928Y-14243357D01*
X5048214Y-14300500D01*
X5048214Y-14371929D01*
X5033928Y-14429071D01*
X5019643Y-14457643D01*
X5005357Y-14471929D01*
X4976786Y-14486214D01*
X4948214Y-14486214D01*
X4919643Y-14471929D01*
X4905357Y-14457643D01*
X4891071Y-14429071D01*
X4876786Y-14371929D01*
X4876786Y-14300500D01*
X4891071Y-14243357D01*
X4905357Y-14214786D01*
X4919643Y-14200500D01*
X4948214Y-14186214D01*
X5176786Y-14457643D02*
X5191071Y-14471929D01*
X5176786Y-14486214D01*
X5162500Y-14471929D01*
X5176786Y-14457643D01*
X5176786Y-14486214D01*
X5376786Y-14186214D02*
X5405357Y-14186214D01*
X5433928Y-14200500D01*
X5448214Y-14214786D01*
X5462500Y-14243357D01*
X5476786Y-14300500D01*
X5476786Y-14371929D01*
X5462500Y-14429071D01*
X5448214Y-14457643D01*
X5433928Y-14471929D01*
X5405357Y-14486214D01*
X5376786Y-14486214D01*
X5348214Y-14471929D01*
X5333928Y-14457643D01*
X5319643Y-14429071D01*
X5305357Y-14371929D01*
X5305357Y-14300500D01*
X5319643Y-14243357D01*
X5333928Y-14214786D01*
X5348214Y-14200500D01*
X5376786Y-14186214D01*
X5576786Y-14186214D02*
X5762500Y-14186214D01*
X5662500Y-14300500D01*
X5705357Y-14300500D01*
X5733928Y-14314786D01*
X5748214Y-14329071D01*
X5762500Y-14357643D01*
X5762500Y-14429071D01*
X5748214Y-14457643D01*
X5733928Y-14471929D01*
X5705357Y-14486214D01*
X5619643Y-14486214D01*
X5591071Y-14471929D01*
X5576786Y-14457643D01*
X5862500Y-14186214D02*
X6062500Y-14186214D01*
X5933928Y-14486214D01*
X6305357Y-14286214D02*
X6305357Y-14486214D01*
X6233928Y-14171929D02*
X6162500Y-14386214D01*
X6348214Y-14386214D01*
X6448214Y-14186214D02*
X6448214Y-14243357D01*
X6562500Y-14186214D02*
X6562500Y-14243357D01*
X7005357Y-14600500D02*
X6991071Y-14586214D01*
X6962500Y-14543357D01*
X6948214Y-14514786D01*
X6933928Y-14471929D01*
X6919643Y-14400500D01*
X6919643Y-14343357D01*
X6933928Y-14271929D01*
X6948214Y-14229071D01*
X6962500Y-14200500D01*
X6991071Y-14157643D01*
X7005357Y-14143357D01*
X7091071Y-14186214D02*
X7276786Y-14186214D01*
X7176786Y-14300500D01*
X7219643Y-14300500D01*
X7248214Y-14314786D01*
X7262500Y-14329071D01*
X7276786Y-14357643D01*
X7276786Y-14429071D01*
X7262500Y-14457643D01*
X7248214Y-14471929D01*
X7219643Y-14486214D01*
X7133928Y-14486214D01*
X7105357Y-14471929D01*
X7091071Y-14457643D01*
X7633928Y-14486214D02*
X7633928Y-14186214D01*
X7762500Y-14486214D02*
X7762500Y-14329071D01*
X7748214Y-14300500D01*
X7719643Y-14286214D01*
X7676786Y-14286214D01*
X7648214Y-14300500D01*
X7633928Y-14314786D01*
X7948214Y-14486214D02*
X7919643Y-14471929D01*
X7905357Y-14457643D01*
X7891071Y-14429071D01*
X7891071Y-14343357D01*
X7905357Y-14314786D01*
X7919643Y-14300500D01*
X7948214Y-14286214D01*
X7991071Y-14286214D01*
X8019643Y-14300500D01*
X8033928Y-14314786D01*
X8048214Y-14343357D01*
X8048214Y-14429071D01*
X8033928Y-14457643D01*
X8019643Y-14471929D01*
X7991071Y-14486214D01*
X7948214Y-14486214D01*
X8219643Y-14486214D02*
X8191071Y-14471929D01*
X8176786Y-14443357D01*
X8176786Y-14186214D01*
X8448214Y-14471929D02*
X8419643Y-14486214D01*
X8362500Y-14486214D01*
X8333928Y-14471929D01*
X8319643Y-14443357D01*
X8319643Y-14329071D01*
X8333928Y-14300500D01*
X8362500Y-14286214D01*
X8419643Y-14286214D01*
X8448214Y-14300500D01*
X8462500Y-14329071D01*
X8462500Y-14357643D01*
X8319643Y-14386214D01*
X8576786Y-14471929D02*
X8605357Y-14486214D01*
X8662500Y-14486214D01*
X8691071Y-14471929D01*
X8705357Y-14443357D01*
X8705357Y-14429071D01*
X8691071Y-14400500D01*
X8662500Y-14386214D01*
X8619643Y-14386214D01*
X8591071Y-14371929D01*
X8576786Y-14343357D01*
X8576786Y-14329071D01*
X8591071Y-14300500D01*
X8619643Y-14286214D01*
X8662500Y-14286214D01*
X8691071Y-14300500D01*
X8805357Y-14600500D02*
X8819643Y-14586214D01*
X8848214Y-14543357D01*
X8862500Y-14514786D01*
X8876786Y-14471929D01*
X8891071Y-14400500D01*
X8891071Y-14343357D01*
X8876786Y-14271929D01*
X8862500Y-14229071D01*
X8848214Y-14200500D01*
X8819643Y-14157643D01*
X8805357Y-14143357D01*
X1697500Y-14796500D02*
X1747500Y-14746500D01*
X1697500Y-14696500D01*
X1647500Y-14746500D01*
X1697500Y-14796500D01*
X2191071Y-14882214D02*
X2019643Y-14882214D01*
X2105357Y-14882214D02*
X2105357Y-14582214D01*
X2076786Y-14625071D01*
X2048214Y-14653643D01*
X2019643Y-14667929D01*
X2319643Y-14853643D02*
X2333928Y-14867929D01*
X2319643Y-14882214D01*
X2305357Y-14867929D01*
X2319643Y-14853643D01*
X2319643Y-14882214D01*
X2519643Y-14582214D02*
X2548214Y-14582214D01*
X2576786Y-14596500D01*
X2591071Y-14610786D01*
X2605357Y-14639357D01*
X2619643Y-14696500D01*
X2619643Y-14767929D01*
X2605357Y-14825071D01*
X2591071Y-14853643D01*
X2576786Y-14867929D01*
X2548214Y-14882214D01*
X2519643Y-14882214D01*
X2491071Y-14867929D01*
X2476786Y-14853643D01*
X2462500Y-14825071D01*
X2448214Y-14767929D01*
X2448214Y-14696500D01*
X2462500Y-14639357D01*
X2476786Y-14610786D01*
X2491071Y-14596500D01*
X2519643Y-14582214D01*
X2805357Y-14582214D02*
X2833928Y-14582214D01*
X2862500Y-14596500D01*
X2876786Y-14610786D01*
X2891071Y-14639357D01*
X2905357Y-14696500D01*
X2905357Y-14767929D01*
X2891071Y-14825071D01*
X2876786Y-14853643D01*
X2862500Y-14867929D01*
X2833928Y-14882214D01*
X2805357Y-14882214D01*
X2776786Y-14867929D01*
X2762500Y-14853643D01*
X2748214Y-14825071D01*
X2733928Y-14767929D01*
X2733928Y-14696500D01*
X2748214Y-14639357D01*
X2762500Y-14610786D01*
X2776786Y-14596500D01*
X2805357Y-14582214D01*
X3091071Y-14582214D02*
X3119643Y-14582214D01*
X3148214Y-14596500D01*
X3162500Y-14610786D01*
X3176786Y-14639357D01*
X3191071Y-14696500D01*
X3191071Y-14767929D01*
X3176786Y-14825071D01*
X3162500Y-14853643D01*
X3148214Y-14867929D01*
X3119643Y-14882214D01*
X3091071Y-14882214D01*
X3062500Y-14867929D01*
X3048214Y-14853643D01*
X3033928Y-14825071D01*
X3019643Y-14767929D01*
X3019643Y-14696500D01*
X3033928Y-14639357D01*
X3048214Y-14610786D01*
X3062500Y-14596500D01*
X3091071Y-14582214D01*
X3319643Y-14882214D02*
X3319643Y-14682214D01*
X3319643Y-14710786D02*
X3333928Y-14696500D01*
X3362500Y-14682214D01*
X3405357Y-14682214D01*
X3433928Y-14696500D01*
X3448214Y-14725071D01*
X3448214Y-14882214D01*
X3448214Y-14725071D02*
X3462500Y-14696500D01*
X3491071Y-14682214D01*
X3533928Y-14682214D01*
X3562500Y-14696500D01*
X3576786Y-14725071D01*
X3576786Y-14882214D01*
X3719643Y-14882214D02*
X3719643Y-14682214D01*
X3719643Y-14710786D02*
X3733928Y-14696500D01*
X3762500Y-14682214D01*
X3805357Y-14682214D01*
X3833928Y-14696500D01*
X3848214Y-14725071D01*
X3848214Y-14882214D01*
X3848214Y-14725071D02*
X3862500Y-14696500D01*
X3891071Y-14682214D01*
X3933928Y-14682214D01*
X3962500Y-14696500D01*
X3976786Y-14725071D01*
X3976786Y-14882214D01*
X4562500Y-14567929D02*
X4305357Y-14953643D01*
X4948214Y-14582214D02*
X4976786Y-14582214D01*
X5005357Y-14596500D01*
X5019643Y-14610786D01*
X5033928Y-14639357D01*
X5048214Y-14696500D01*
X5048214Y-14767929D01*
X5033928Y-14825071D01*
X5019643Y-14853643D01*
X5005357Y-14867929D01*
X4976786Y-14882214D01*
X4948214Y-14882214D01*
X4919643Y-14867929D01*
X4905357Y-14853643D01*
X4891071Y-14825071D01*
X4876786Y-14767929D01*
X4876786Y-14696500D01*
X4891071Y-14639357D01*
X4905357Y-14610786D01*
X4919643Y-14596500D01*
X4948214Y-14582214D01*
X5176786Y-14853643D02*
X5191071Y-14867929D01*
X5176786Y-14882214D01*
X5162500Y-14867929D01*
X5176786Y-14853643D01*
X5176786Y-14882214D01*
X5376786Y-14582214D02*
X5405357Y-14582214D01*
X5433928Y-14596500D01*
X5448214Y-14610786D01*
X5462500Y-14639357D01*
X5476786Y-14696500D01*
X5476786Y-14767929D01*
X5462500Y-14825071D01*
X5448214Y-14853643D01*
X5433928Y-14867929D01*
X5405357Y-14882214D01*
X5376786Y-14882214D01*
X5348214Y-14867929D01*
X5333928Y-14853643D01*
X5319643Y-14825071D01*
X5305357Y-14767929D01*
X5305357Y-14696500D01*
X5319643Y-14639357D01*
X5333928Y-14610786D01*
X5348214Y-14596500D01*
X5376786Y-14582214D01*
X5576786Y-14582214D02*
X5762500Y-14582214D01*
X5662500Y-14696500D01*
X5705357Y-14696500D01*
X5733928Y-14710786D01*
X5748214Y-14725071D01*
X5762500Y-14753643D01*
X5762500Y-14825071D01*
X5748214Y-14853643D01*
X5733928Y-14867929D01*
X5705357Y-14882214D01*
X5619643Y-14882214D01*
X5591071Y-14867929D01*
X5576786Y-14853643D01*
X5905357Y-14882214D02*
X5962500Y-14882214D01*
X5991071Y-14867929D01*
X6005357Y-14853643D01*
X6033928Y-14810786D01*
X6048214Y-14753643D01*
X6048214Y-14639357D01*
X6033928Y-14610786D01*
X6019643Y-14596500D01*
X5991071Y-14582214D01*
X5933928Y-14582214D01*
X5905357Y-14596500D01*
X5891071Y-14610786D01*
X5876786Y-14639357D01*
X5876786Y-14710786D01*
X5891071Y-14739357D01*
X5905357Y-14753643D01*
X5933928Y-14767929D01*
X5991071Y-14767929D01*
X6019643Y-14753643D01*
X6033928Y-14739357D01*
X6048214Y-14710786D01*
X6305357Y-14682214D02*
X6305357Y-14882214D01*
X6233928Y-14567929D02*
X6162500Y-14782214D01*
X6348214Y-14782214D01*
X6448214Y-14582214D02*
X6448214Y-14639357D01*
X6562500Y-14582214D02*
X6562500Y-14639357D01*
X7005357Y-14996500D02*
X6991071Y-14982214D01*
X6962500Y-14939357D01*
X6948214Y-14910786D01*
X6933928Y-14867929D01*
X6919643Y-14796500D01*
X6919643Y-14739357D01*
X6933928Y-14667929D01*
X6948214Y-14625071D01*
X6962500Y-14596500D01*
X6991071Y-14553643D01*
X7005357Y-14539357D01*
X7091071Y-14582214D02*
X7276786Y-14582214D01*
X7176786Y-14696500D01*
X7219643Y-14696500D01*
X7248214Y-14710786D01*
X7262500Y-14725071D01*
X7276786Y-14753643D01*
X7276786Y-14825071D01*
X7262500Y-14853643D01*
X7248214Y-14867929D01*
X7219643Y-14882214D01*
X7133928Y-14882214D01*
X7105357Y-14867929D01*
X7091071Y-14853643D01*
X7419643Y-14882214D02*
X7476786Y-14882214D01*
X7505357Y-14867929D01*
X7519643Y-14853643D01*
X7548214Y-14810786D01*
X7562500Y-14753643D01*
X7562500Y-14639357D01*
X7548214Y-14610786D01*
X7533928Y-14596500D01*
X7505357Y-14582214D01*
X7448214Y-14582214D01*
X7419643Y-14596500D01*
X7405357Y-14610786D01*
X7391071Y-14639357D01*
X7391071Y-14710786D01*
X7405357Y-14739357D01*
X7419643Y-14753643D01*
X7448214Y-14767929D01*
X7505357Y-14767929D01*
X7533928Y-14753643D01*
X7548214Y-14739357D01*
X7562500Y-14710786D01*
X7919643Y-14882214D02*
X7919643Y-14582214D01*
X8048214Y-14882214D02*
X8048214Y-14725071D01*
X8033928Y-14696500D01*
X8005357Y-14682214D01*
X7962500Y-14682214D01*
X7933928Y-14696500D01*
X7919643Y-14710786D01*
X8233928Y-14882214D02*
X8205357Y-14867929D01*
X8191071Y-14853643D01*
X8176786Y-14825071D01*
X8176786Y-14739357D01*
X8191071Y-14710786D01*
X8205357Y-14696500D01*
X8233928Y-14682214D01*
X8276786Y-14682214D01*
X8305357Y-14696500D01*
X8319643Y-14710786D01*
X8333928Y-14739357D01*
X8333928Y-14825071D01*
X8319643Y-14853643D01*
X8305357Y-14867929D01*
X8276786Y-14882214D01*
X8233928Y-14882214D01*
X8505357Y-14882214D02*
X8476786Y-14867929D01*
X8462500Y-14839357D01*
X8462500Y-14582214D01*
X8733928Y-14867929D02*
X8705357Y-14882214D01*
X8648214Y-14882214D01*
X8619643Y-14867929D01*
X8605357Y-14839357D01*
X8605357Y-14725071D01*
X8619643Y-14696500D01*
X8648214Y-14682214D01*
X8705357Y-14682214D01*
X8733928Y-14696500D01*
X8748214Y-14725071D01*
X8748214Y-14753643D01*
X8605357Y-14782214D01*
X8862500Y-14867929D02*
X8891071Y-14882214D01*
X8948214Y-14882214D01*
X8976786Y-14867929D01*
X8991071Y-14839357D01*
X8991071Y-14825071D01*
X8976786Y-14796500D01*
X8948214Y-14782214D01*
X8905357Y-14782214D01*
X8876786Y-14767929D01*
X8862500Y-14739357D01*
X8862500Y-14725071D01*
X8876786Y-14696500D01*
X8905357Y-14682214D01*
X8948214Y-14682214D01*
X8976786Y-14696500D01*
X9091071Y-14996500D02*
X9105357Y-14982214D01*
X9133928Y-14939357D01*
X9148214Y-14910786D01*
X9162500Y-14867929D01*
X9176786Y-14796500D01*
X9176786Y-14739357D01*
X9162500Y-14667929D01*
X9148214Y-14625071D01*
X9133928Y-14596500D01*
X9105357Y-14553643D01*
X9091071Y-14539357D01*
X1617500Y-15077500D02*
X1747500Y-15207500D01*
X1747500Y-15077500D02*
X1617500Y-15207500D01*
X1747500Y-15142500D02*
G75*
G03*
X1747500Y-15142500I-65000J0D01*
G01*
X2191071Y-15278214D02*
X2019643Y-15278214D01*
X2105357Y-15278214D02*
X2105357Y-14978214D01*
X2076786Y-15021071D01*
X2048214Y-15049643D01*
X2019643Y-15063929D01*
X2319643Y-15249643D02*
X2333928Y-15263929D01*
X2319643Y-15278214D01*
X2305357Y-15263929D01*
X2319643Y-15249643D01*
X2319643Y-15278214D01*
X2433928Y-14978214D02*
X2619643Y-14978214D01*
X2519643Y-15092500D01*
X2562500Y-15092500D01*
X2591071Y-15106786D01*
X2605357Y-15121071D01*
X2619643Y-15149643D01*
X2619643Y-15221071D01*
X2605357Y-15249643D01*
X2591071Y-15263929D01*
X2562500Y-15278214D01*
X2476786Y-15278214D01*
X2448214Y-15263929D01*
X2433928Y-15249643D01*
X2805357Y-14978214D02*
X2833928Y-14978214D01*
X2862500Y-14992500D01*
X2876786Y-15006786D01*
X2891071Y-15035357D01*
X2905357Y-15092500D01*
X2905357Y-15163929D01*
X2891071Y-15221071D01*
X2876786Y-15249643D01*
X2862500Y-15263929D01*
X2833928Y-15278214D01*
X2805357Y-15278214D01*
X2776786Y-15263929D01*
X2762500Y-15249643D01*
X2748214Y-15221071D01*
X2733928Y-15163929D01*
X2733928Y-15092500D01*
X2748214Y-15035357D01*
X2762500Y-15006786D01*
X2776786Y-14992500D01*
X2805357Y-14978214D01*
X3091071Y-14978214D02*
X3119643Y-14978214D01*
X3148214Y-14992500D01*
X3162500Y-15006786D01*
X3176786Y-15035357D01*
X3191071Y-15092500D01*
X3191071Y-15163929D01*
X3176786Y-15221071D01*
X3162500Y-15249643D01*
X3148214Y-15263929D01*
X3119643Y-15278214D01*
X3091071Y-15278214D01*
X3062500Y-15263929D01*
X3048214Y-15249643D01*
X3033928Y-15221071D01*
X3019643Y-15163929D01*
X3019643Y-15092500D01*
X3033928Y-15035357D01*
X3048214Y-15006786D01*
X3062500Y-14992500D01*
X3091071Y-14978214D01*
X3319643Y-15278214D02*
X3319643Y-15078214D01*
X3319643Y-15106786D02*
X3333928Y-15092500D01*
X3362500Y-15078214D01*
X3405357Y-15078214D01*
X3433928Y-15092500D01*
X3448214Y-15121071D01*
X3448214Y-15278214D01*
X3448214Y-15121071D02*
X3462500Y-15092500D01*
X3491071Y-15078214D01*
X3533928Y-15078214D01*
X3562500Y-15092500D01*
X3576786Y-15121071D01*
X3576786Y-15278214D01*
X3719643Y-15278214D02*
X3719643Y-15078214D01*
X3719643Y-15106786D02*
X3733928Y-15092500D01*
X3762500Y-15078214D01*
X3805357Y-15078214D01*
X3833928Y-15092500D01*
X3848214Y-15121071D01*
X3848214Y-15278214D01*
X3848214Y-15121071D02*
X3862500Y-15092500D01*
X3891071Y-15078214D01*
X3933928Y-15078214D01*
X3962500Y-15092500D01*
X3976786Y-15121071D01*
X3976786Y-15278214D01*
X4562500Y-14963929D02*
X4305357Y-15349643D01*
X4948214Y-14978214D02*
X4976786Y-14978214D01*
X5005357Y-14992500D01*
X5019643Y-15006786D01*
X5033928Y-15035357D01*
X5048214Y-15092500D01*
X5048214Y-15163929D01*
X5033928Y-15221071D01*
X5019643Y-15249643D01*
X5005357Y-15263929D01*
X4976786Y-15278214D01*
X4948214Y-15278214D01*
X4919643Y-15263929D01*
X4905357Y-15249643D01*
X4891071Y-15221071D01*
X4876786Y-15163929D01*
X4876786Y-15092500D01*
X4891071Y-15035357D01*
X4905357Y-15006786D01*
X4919643Y-14992500D01*
X4948214Y-14978214D01*
X5176786Y-15249643D02*
X5191071Y-15263929D01*
X5176786Y-15278214D01*
X5162500Y-15263929D01*
X5176786Y-15249643D01*
X5176786Y-15278214D01*
X5376786Y-14978214D02*
X5405357Y-14978214D01*
X5433928Y-14992500D01*
X5448214Y-15006786D01*
X5462500Y-15035357D01*
X5476786Y-15092500D01*
X5476786Y-15163929D01*
X5462500Y-15221071D01*
X5448214Y-15249643D01*
X5433928Y-15263929D01*
X5405357Y-15278214D01*
X5376786Y-15278214D01*
X5348214Y-15263929D01*
X5333928Y-15249643D01*
X5319643Y-15221071D01*
X5305357Y-15163929D01*
X5305357Y-15092500D01*
X5319643Y-15035357D01*
X5333928Y-15006786D01*
X5348214Y-14992500D01*
X5376786Y-14978214D01*
X5748214Y-14978214D02*
X5605357Y-14978214D01*
X5591071Y-15121071D01*
X5605357Y-15106786D01*
X5633928Y-15092500D01*
X5705357Y-15092500D01*
X5733928Y-15106786D01*
X5748214Y-15121071D01*
X5762500Y-15149643D01*
X5762500Y-15221071D01*
X5748214Y-15249643D01*
X5733928Y-15263929D01*
X5705357Y-15278214D01*
X5633928Y-15278214D01*
X5605357Y-15263929D01*
X5591071Y-15249643D01*
X6048214Y-15278214D02*
X5876786Y-15278214D01*
X5962500Y-15278214D02*
X5962500Y-14978214D01*
X5933928Y-15021071D01*
X5905357Y-15049643D01*
X5876786Y-15063929D01*
X6162500Y-15006786D02*
X6176786Y-14992500D01*
X6205357Y-14978214D01*
X6276786Y-14978214D01*
X6305357Y-14992500D01*
X6319643Y-15006786D01*
X6333928Y-15035357D01*
X6333928Y-15063929D01*
X6319643Y-15106786D01*
X6148214Y-15278214D01*
X6333928Y-15278214D01*
X6448214Y-14978214D02*
X6448214Y-15035357D01*
X6562500Y-14978214D02*
X6562500Y-15035357D01*
X7005357Y-15392500D02*
X6991071Y-15378214D01*
X6962500Y-15335357D01*
X6948214Y-15306786D01*
X6933928Y-15263929D01*
X6919643Y-15192500D01*
X6919643Y-15135357D01*
X6933928Y-15063929D01*
X6948214Y-15021071D01*
X6962500Y-14992500D01*
X6991071Y-14949643D01*
X7005357Y-14935357D01*
X7276786Y-15278214D02*
X7105357Y-15278214D01*
X7191071Y-15278214D02*
X7191071Y-14978214D01*
X7162500Y-15021071D01*
X7133928Y-15049643D01*
X7105357Y-15063929D01*
X7391071Y-15006786D02*
X7405357Y-14992500D01*
X7433928Y-14978214D01*
X7505357Y-14978214D01*
X7533928Y-14992500D01*
X7548214Y-15006786D01*
X7562500Y-15035357D01*
X7562500Y-15063929D01*
X7548214Y-15106786D01*
X7376786Y-15278214D01*
X7562500Y-15278214D01*
X7919643Y-15278214D02*
X7919643Y-14978214D01*
X8048214Y-15278214D02*
X8048214Y-15121071D01*
X8033928Y-15092500D01*
X8005357Y-15078214D01*
X7962500Y-15078214D01*
X7933928Y-15092500D01*
X7919643Y-15106786D01*
X8233928Y-15278214D02*
X8205357Y-15263929D01*
X8191071Y-15249643D01*
X8176786Y-15221071D01*
X8176786Y-15135357D01*
X8191071Y-15106786D01*
X8205357Y-15092500D01*
X8233928Y-15078214D01*
X8276786Y-15078214D01*
X8305357Y-15092500D01*
X8319643Y-15106786D01*
X8333928Y-15135357D01*
X8333928Y-15221071D01*
X8319643Y-15249643D01*
X8305357Y-15263929D01*
X8276786Y-15278214D01*
X8233928Y-15278214D01*
X8505357Y-15278214D02*
X8476786Y-15263929D01*
X8462500Y-15235357D01*
X8462500Y-14978214D01*
X8733928Y-15263929D02*
X8705357Y-15278214D01*
X8648214Y-15278214D01*
X8619643Y-15263929D01*
X8605357Y-15235357D01*
X8605357Y-15121071D01*
X8619643Y-15092500D01*
X8648214Y-15078214D01*
X8705357Y-15078214D01*
X8733928Y-15092500D01*
X8748214Y-15121071D01*
X8748214Y-15149643D01*
X8605357Y-15178214D01*
X8862500Y-15263929D02*
X8891071Y-15278214D01*
X8948214Y-15278214D01*
X8976786Y-15263929D01*
X8991071Y-15235357D01*
X8991071Y-15221071D01*
X8976786Y-15192500D01*
X8948214Y-15178214D01*
X8905357Y-15178214D01*
X8876786Y-15163929D01*
X8862500Y-15135357D01*
X8862500Y-15121071D01*
X8876786Y-15092500D01*
X8905357Y-15078214D01*
X8948214Y-15078214D01*
X8976786Y-15092500D01*
X9091071Y-15392500D02*
X9105357Y-15378214D01*
X9133928Y-15335357D01*
X9148214Y-15306786D01*
X9162500Y-15263929D01*
X9176786Y-15192500D01*
X9176786Y-15135357D01*
X9162500Y-15063929D01*
X9148214Y-15021071D01*
X9133928Y-14992500D01*
X9105357Y-14949643D01*
X9091071Y-14935357D01*
X1422500Y-15376000D02*
X1747500Y-15701000D01*
X1747500Y-15376000D02*
X1422500Y-15701000D01*
X1585000Y-15376000D02*
X1585000Y-15701000D01*
X1422500Y-15538500D02*
X1747500Y-15538500D01*
X2005357Y-15374214D02*
X2191071Y-15374214D01*
X2091071Y-15488500D01*
X2133928Y-15488500D01*
X2162500Y-15502786D01*
X2176786Y-15517071D01*
X2191071Y-15545643D01*
X2191071Y-15617071D01*
X2176786Y-15645643D01*
X2162500Y-15659929D01*
X2133928Y-15674214D01*
X2048214Y-15674214D01*
X2019643Y-15659929D01*
X2005357Y-15645643D01*
X2319643Y-15645643D02*
X2333928Y-15659929D01*
X2319643Y-15674214D01*
X2305357Y-15659929D01*
X2319643Y-15645643D01*
X2319643Y-15674214D01*
X2448214Y-15402786D02*
X2462500Y-15388500D01*
X2491071Y-15374214D01*
X2562500Y-15374214D01*
X2591071Y-15388500D01*
X2605357Y-15402786D01*
X2619643Y-15431357D01*
X2619643Y-15459929D01*
X2605357Y-15502786D01*
X2433928Y-15674214D01*
X2619643Y-15674214D01*
X2891071Y-15374214D02*
X2748214Y-15374214D01*
X2733928Y-15517071D01*
X2748214Y-15502786D01*
X2776786Y-15488500D01*
X2848214Y-15488500D01*
X2876786Y-15502786D01*
X2891071Y-15517071D01*
X2905357Y-15545643D01*
X2905357Y-15617071D01*
X2891071Y-15645643D01*
X2876786Y-15659929D01*
X2848214Y-15674214D01*
X2776786Y-15674214D01*
X2748214Y-15659929D01*
X2733928Y-15645643D01*
X3091071Y-15374214D02*
X3119643Y-15374214D01*
X3148214Y-15388500D01*
X3162500Y-15402786D01*
X3176786Y-15431357D01*
X3191071Y-15488500D01*
X3191071Y-15559929D01*
X3176786Y-15617071D01*
X3162500Y-15645643D01*
X3148214Y-15659929D01*
X3119643Y-15674214D01*
X3091071Y-15674214D01*
X3062500Y-15659929D01*
X3048214Y-15645643D01*
X3033928Y-15617071D01*
X3019643Y-15559929D01*
X3019643Y-15488500D01*
X3033928Y-15431357D01*
X3048214Y-15402786D01*
X3062500Y-15388500D01*
X3091071Y-15374214D01*
X3319643Y-15674214D02*
X3319643Y-15474214D01*
X3319643Y-15502786D02*
X3333928Y-15488500D01*
X3362500Y-15474214D01*
X3405357Y-15474214D01*
X3433928Y-15488500D01*
X3448214Y-15517071D01*
X3448214Y-15674214D01*
X3448214Y-15517071D02*
X3462500Y-15488500D01*
X3491071Y-15474214D01*
X3533928Y-15474214D01*
X3562500Y-15488500D01*
X3576786Y-15517071D01*
X3576786Y-15674214D01*
X3719643Y-15674214D02*
X3719643Y-15474214D01*
X3719643Y-15502786D02*
X3733928Y-15488500D01*
X3762500Y-15474214D01*
X3805357Y-15474214D01*
X3833928Y-15488500D01*
X3848214Y-15517071D01*
X3848214Y-15674214D01*
X3848214Y-15517071D02*
X3862500Y-15488500D01*
X3891071Y-15474214D01*
X3933928Y-15474214D01*
X3962500Y-15488500D01*
X3976786Y-15517071D01*
X3976786Y-15674214D01*
X4562500Y-15359929D02*
X4305357Y-15745643D01*
X4948214Y-15374214D02*
X4976786Y-15374214D01*
X5005357Y-15388500D01*
X5019643Y-15402786D01*
X5033928Y-15431357D01*
X5048214Y-15488500D01*
X5048214Y-15559929D01*
X5033928Y-15617071D01*
X5019643Y-15645643D01*
X5005357Y-15659929D01*
X4976786Y-15674214D01*
X4948214Y-15674214D01*
X4919643Y-15659929D01*
X4905357Y-15645643D01*
X4891071Y-15617071D01*
X4876786Y-15559929D01*
X4876786Y-15488500D01*
X4891071Y-15431357D01*
X4905357Y-15402786D01*
X4919643Y-15388500D01*
X4948214Y-15374214D01*
X5176786Y-15645643D02*
X5191071Y-15659929D01*
X5176786Y-15674214D01*
X5162500Y-15659929D01*
X5176786Y-15645643D01*
X5176786Y-15674214D01*
X5476786Y-15674214D02*
X5305357Y-15674214D01*
X5391071Y-15674214D02*
X5391071Y-15374214D01*
X5362500Y-15417071D01*
X5333928Y-15445643D01*
X5305357Y-15459929D01*
X5591071Y-15402786D02*
X5605357Y-15388500D01*
X5633928Y-15374214D01*
X5705357Y-15374214D01*
X5733928Y-15388500D01*
X5748214Y-15402786D01*
X5762500Y-15431357D01*
X5762500Y-15459929D01*
X5748214Y-15502786D01*
X5576786Y-15674214D01*
X5762500Y-15674214D01*
X5933928Y-15502786D02*
X5905357Y-15488500D01*
X5891071Y-15474214D01*
X5876786Y-15445643D01*
X5876786Y-15431357D01*
X5891071Y-15402786D01*
X5905357Y-15388500D01*
X5933928Y-15374214D01*
X5991071Y-15374214D01*
X6019643Y-15388500D01*
X6033928Y-15402786D01*
X6048214Y-15431357D01*
X6048214Y-15445643D01*
X6033928Y-15474214D01*
X6019643Y-15488500D01*
X5991071Y-15502786D01*
X5933928Y-15502786D01*
X5905357Y-15517071D01*
X5891071Y-15531357D01*
X5876786Y-15559929D01*
X5876786Y-15617071D01*
X5891071Y-15645643D01*
X5905357Y-15659929D01*
X5933928Y-15674214D01*
X5991071Y-15674214D01*
X6019643Y-15659929D01*
X6033928Y-15645643D01*
X6048214Y-15617071D01*
X6048214Y-15559929D01*
X6033928Y-15531357D01*
X6019643Y-15517071D01*
X5991071Y-15502786D01*
X6233928Y-15374214D02*
X6262500Y-15374214D01*
X6291071Y-15388500D01*
X6305357Y-15402786D01*
X6319643Y-15431357D01*
X6333928Y-15488500D01*
X6333928Y-15559929D01*
X6319643Y-15617071D01*
X6305357Y-15645643D01*
X6291071Y-15659929D01*
X6262500Y-15674214D01*
X6233928Y-15674214D01*
X6205357Y-15659929D01*
X6191071Y-15645643D01*
X6176786Y-15617071D01*
X6162500Y-15559929D01*
X6162500Y-15488500D01*
X6176786Y-15431357D01*
X6191071Y-15402786D01*
X6205357Y-15388500D01*
X6233928Y-15374214D01*
X6448214Y-15374214D02*
X6448214Y-15431357D01*
X6562500Y-15374214D02*
X6562500Y-15431357D01*
X7005357Y-15788500D02*
X6991071Y-15774214D01*
X6962500Y-15731357D01*
X6948214Y-15702786D01*
X6933928Y-15659929D01*
X6919643Y-15588500D01*
X6919643Y-15531357D01*
X6933928Y-15459929D01*
X6948214Y-15417071D01*
X6962500Y-15388500D01*
X6991071Y-15345643D01*
X7005357Y-15331357D01*
X7248214Y-15374214D02*
X7191071Y-15374214D01*
X7162500Y-15388500D01*
X7148214Y-15402786D01*
X7119643Y-15445643D01*
X7105357Y-15502786D01*
X7105357Y-15617071D01*
X7119643Y-15645643D01*
X7133928Y-15659929D01*
X7162500Y-15674214D01*
X7219643Y-15674214D01*
X7248214Y-15659929D01*
X7262500Y-15645643D01*
X7276786Y-15617071D01*
X7276786Y-15545643D01*
X7262500Y-15517071D01*
X7248214Y-15502786D01*
X7219643Y-15488500D01*
X7162500Y-15488500D01*
X7133928Y-15502786D01*
X7119643Y-15517071D01*
X7105357Y-15545643D01*
X7633928Y-15674214D02*
X7633928Y-15374214D01*
X7762500Y-15674214D02*
X7762500Y-15517071D01*
X7748214Y-15488500D01*
X7719643Y-15474214D01*
X7676786Y-15474214D01*
X7648214Y-15488500D01*
X7633928Y-15502786D01*
X7948214Y-15674214D02*
X7919643Y-15659929D01*
X7905357Y-15645643D01*
X7891071Y-15617071D01*
X7891071Y-15531357D01*
X7905357Y-15502786D01*
X7919643Y-15488500D01*
X7948214Y-15474214D01*
X7991071Y-15474214D01*
X8019643Y-15488500D01*
X8033928Y-15502786D01*
X8048214Y-15531357D01*
X8048214Y-15617071D01*
X8033928Y-15645643D01*
X8019643Y-15659929D01*
X7991071Y-15674214D01*
X7948214Y-15674214D01*
X8219643Y-15674214D02*
X8191071Y-15659929D01*
X8176786Y-15631357D01*
X8176786Y-15374214D01*
X8448214Y-15659929D02*
X8419643Y-15674214D01*
X8362500Y-15674214D01*
X8333928Y-15659929D01*
X8319643Y-15631357D01*
X8319643Y-15517071D01*
X8333928Y-15488500D01*
X8362500Y-15474214D01*
X8419643Y-15474214D01*
X8448214Y-15488500D01*
X8462500Y-15517071D01*
X8462500Y-15545643D01*
X8319643Y-15574214D01*
X8576786Y-15659929D02*
X8605357Y-15674214D01*
X8662500Y-15674214D01*
X8691071Y-15659929D01*
X8705357Y-15631357D01*
X8705357Y-15617071D01*
X8691071Y-15588500D01*
X8662500Y-15574214D01*
X8619643Y-15574214D01*
X8591071Y-15559929D01*
X8576786Y-15531357D01*
X8576786Y-15517071D01*
X8591071Y-15488500D01*
X8619643Y-15474214D01*
X8662500Y-15474214D01*
X8691071Y-15488500D01*
X8805357Y-15788500D02*
X8819643Y-15774214D01*
X8848214Y-15731357D01*
X8862500Y-15702786D01*
X8876786Y-15659929D01*
X8891071Y-15588500D01*
X8891071Y-15531357D01*
X8876786Y-15459929D01*
X8862500Y-15417071D01*
X8848214Y-15388500D01*
X8819643Y-15345643D01*
X8805357Y-15331357D01*
X1217500Y-15728500D02*
X1747500Y-16258500D01*
X1747500Y-15728500D02*
X1217500Y-16258500D01*
X1669885Y-16180885D02*
X1669885Y-15806115D01*
X1295115Y-15806115D01*
X1295115Y-16180885D01*
X1669885Y-16180885D01*
X2176786Y-15829214D02*
X2033928Y-15829214D01*
X2019643Y-15972071D01*
X2033928Y-15957786D01*
X2062500Y-15943500D01*
X2133928Y-15943500D01*
X2162500Y-15957786D01*
X2176786Y-15972071D01*
X2191071Y-16000643D01*
X2191071Y-16072071D01*
X2176786Y-16100643D01*
X2162500Y-16114929D01*
X2133928Y-16129214D01*
X2062500Y-16129214D01*
X2033928Y-16114929D01*
X2019643Y-16100643D01*
X2319643Y-16100643D02*
X2333928Y-16114929D01*
X2319643Y-16129214D01*
X2305357Y-16114929D01*
X2319643Y-16100643D01*
X2319643Y-16129214D01*
X2433928Y-15829214D02*
X2619643Y-15829214D01*
X2519643Y-15943500D01*
X2562500Y-15943500D01*
X2591071Y-15957786D01*
X2605357Y-15972071D01*
X2619643Y-16000643D01*
X2619643Y-16072071D01*
X2605357Y-16100643D01*
X2591071Y-16114929D01*
X2562500Y-16129214D01*
X2476786Y-16129214D01*
X2448214Y-16114929D01*
X2433928Y-16100643D01*
X2805357Y-15829214D02*
X2833928Y-15829214D01*
X2862500Y-15843500D01*
X2876786Y-15857786D01*
X2891071Y-15886357D01*
X2905357Y-15943500D01*
X2905357Y-16014929D01*
X2891071Y-16072071D01*
X2876786Y-16100643D01*
X2862500Y-16114929D01*
X2833928Y-16129214D01*
X2805357Y-16129214D01*
X2776786Y-16114929D01*
X2762500Y-16100643D01*
X2748214Y-16072071D01*
X2733928Y-16014929D01*
X2733928Y-15943500D01*
X2748214Y-15886357D01*
X2762500Y-15857786D01*
X2776786Y-15843500D01*
X2805357Y-15829214D01*
X3091071Y-15829214D02*
X3119643Y-15829214D01*
X3148214Y-15843500D01*
X3162500Y-15857786D01*
X3176786Y-15886357D01*
X3191071Y-15943500D01*
X3191071Y-16014929D01*
X3176786Y-16072071D01*
X3162500Y-16100643D01*
X3148214Y-16114929D01*
X3119643Y-16129214D01*
X3091071Y-16129214D01*
X3062500Y-16114929D01*
X3048214Y-16100643D01*
X3033928Y-16072071D01*
X3019643Y-16014929D01*
X3019643Y-15943500D01*
X3033928Y-15886357D01*
X3048214Y-15857786D01*
X3062500Y-15843500D01*
X3091071Y-15829214D01*
X3319643Y-16129214D02*
X3319643Y-15929214D01*
X3319643Y-15957786D02*
X3333928Y-15943500D01*
X3362500Y-15929214D01*
X3405357Y-15929214D01*
X3433928Y-15943500D01*
X3448214Y-15972071D01*
X3448214Y-16129214D01*
X3448214Y-15972071D02*
X3462500Y-15943500D01*
X3491071Y-15929214D01*
X3533928Y-15929214D01*
X3562500Y-15943500D01*
X3576786Y-15972071D01*
X3576786Y-16129214D01*
X3719643Y-16129214D02*
X3719643Y-15929214D01*
X3719643Y-15957786D02*
X3733928Y-15943500D01*
X3762500Y-15929214D01*
X3805357Y-15929214D01*
X3833928Y-15943500D01*
X3848214Y-15972071D01*
X3848214Y-16129214D01*
X3848214Y-15972071D02*
X3862500Y-15943500D01*
X3891071Y-15929214D01*
X3933928Y-15929214D01*
X3962500Y-15943500D01*
X3976786Y-15972071D01*
X3976786Y-16129214D01*
X4562500Y-15814929D02*
X4305357Y-16200643D01*
X4948214Y-15829214D02*
X4976786Y-15829214D01*
X5005357Y-15843500D01*
X5019643Y-15857786D01*
X5033928Y-15886357D01*
X5048214Y-15943500D01*
X5048214Y-16014929D01*
X5033928Y-16072071D01*
X5019643Y-16100643D01*
X5005357Y-16114929D01*
X4976786Y-16129214D01*
X4948214Y-16129214D01*
X4919643Y-16114929D01*
X4905357Y-16100643D01*
X4891071Y-16072071D01*
X4876786Y-16014929D01*
X4876786Y-15943500D01*
X4891071Y-15886357D01*
X4905357Y-15857786D01*
X4919643Y-15843500D01*
X4948214Y-15829214D01*
X5176786Y-16100643D02*
X5191071Y-16114929D01*
X5176786Y-16129214D01*
X5162500Y-16114929D01*
X5176786Y-16100643D01*
X5176786Y-16129214D01*
X5305357Y-15857786D02*
X5319643Y-15843500D01*
X5348214Y-15829214D01*
X5419643Y-15829214D01*
X5448214Y-15843500D01*
X5462500Y-15857786D01*
X5476786Y-15886357D01*
X5476786Y-15914929D01*
X5462500Y-15957786D01*
X5291071Y-16129214D01*
X5476786Y-16129214D01*
X5662500Y-15829214D02*
X5691071Y-15829214D01*
X5719643Y-15843500D01*
X5733928Y-15857786D01*
X5748214Y-15886357D01*
X5762500Y-15943500D01*
X5762500Y-16014929D01*
X5748214Y-16072071D01*
X5733928Y-16100643D01*
X5719643Y-16114929D01*
X5691071Y-16129214D01*
X5662500Y-16129214D01*
X5633928Y-16114929D01*
X5619643Y-16100643D01*
X5605357Y-16072071D01*
X5591071Y-16014929D01*
X5591071Y-15943500D01*
X5605357Y-15886357D01*
X5619643Y-15857786D01*
X5633928Y-15843500D01*
X5662500Y-15829214D01*
X5933928Y-15957786D02*
X5905357Y-15943500D01*
X5891071Y-15929214D01*
X5876786Y-15900643D01*
X5876786Y-15886357D01*
X5891071Y-15857786D01*
X5905357Y-15843500D01*
X5933928Y-15829214D01*
X5991071Y-15829214D01*
X6019643Y-15843500D01*
X6033928Y-15857786D01*
X6048214Y-15886357D01*
X6048214Y-15900643D01*
X6033928Y-15929214D01*
X6019643Y-15943500D01*
X5991071Y-15957786D01*
X5933928Y-15957786D01*
X5905357Y-15972071D01*
X5891071Y-15986357D01*
X5876786Y-16014929D01*
X5876786Y-16072071D01*
X5891071Y-16100643D01*
X5905357Y-16114929D01*
X5933928Y-16129214D01*
X5991071Y-16129214D01*
X6019643Y-16114929D01*
X6033928Y-16100643D01*
X6048214Y-16072071D01*
X6048214Y-16014929D01*
X6033928Y-15986357D01*
X6019643Y-15972071D01*
X5991071Y-15957786D01*
X6148214Y-15829214D02*
X6348214Y-15829214D01*
X6219643Y-16129214D01*
X6448214Y-15829214D02*
X6448214Y-15886357D01*
X6562500Y-15829214D02*
X6562500Y-15886357D01*
X7005357Y-16243500D02*
X6991071Y-16229214D01*
X6962500Y-16186357D01*
X6948214Y-16157786D01*
X6933928Y-16114929D01*
X6919643Y-16043500D01*
X6919643Y-15986357D01*
X6933928Y-15914929D01*
X6948214Y-15872071D01*
X6962500Y-15843500D01*
X6991071Y-15800643D01*
X7005357Y-15786357D01*
X7248214Y-15929214D02*
X7248214Y-16129214D01*
X7176786Y-15814929D02*
X7105357Y-16029214D01*
X7291071Y-16029214D01*
X7633928Y-16129214D02*
X7633928Y-15829214D01*
X7762500Y-16129214D02*
X7762500Y-15972071D01*
X7748214Y-15943500D01*
X7719643Y-15929214D01*
X7676786Y-15929214D01*
X7648214Y-15943500D01*
X7633928Y-15957786D01*
X7948214Y-16129214D02*
X7919643Y-16114929D01*
X7905357Y-16100643D01*
X7891071Y-16072071D01*
X7891071Y-15986357D01*
X7905357Y-15957786D01*
X7919643Y-15943500D01*
X7948214Y-15929214D01*
X7991071Y-15929214D01*
X8019643Y-15943500D01*
X8033928Y-15957786D01*
X8048214Y-15986357D01*
X8048214Y-16072071D01*
X8033928Y-16100643D01*
X8019643Y-16114929D01*
X7991071Y-16129214D01*
X7948214Y-16129214D01*
X8219643Y-16129214D02*
X8191071Y-16114929D01*
X8176786Y-16086357D01*
X8176786Y-15829214D01*
X8448214Y-16114929D02*
X8419643Y-16129214D01*
X8362500Y-16129214D01*
X8333928Y-16114929D01*
X8319643Y-16086357D01*
X8319643Y-15972071D01*
X8333928Y-15943500D01*
X8362500Y-15929214D01*
X8419643Y-15929214D01*
X8448214Y-15943500D01*
X8462500Y-15972071D01*
X8462500Y-16000643D01*
X8319643Y-16029214D01*
X8576786Y-16114929D02*
X8605357Y-16129214D01*
X8662500Y-16129214D01*
X8691071Y-16114929D01*
X8705357Y-16086357D01*
X8705357Y-16072071D01*
X8691071Y-16043500D01*
X8662500Y-16029214D01*
X8619643Y-16029214D01*
X8591071Y-16014929D01*
X8576786Y-15986357D01*
X8576786Y-15972071D01*
X8591071Y-15943500D01*
X8619643Y-15929214D01*
X8662500Y-15929214D01*
X8691071Y-15943500D01*
X8805357Y-16243500D02*
X8819643Y-16229214D01*
X8848214Y-16186357D01*
X8862500Y-16157786D01*
X8876786Y-16114929D01*
X8891071Y-16043500D01*
X8891071Y-15986357D01*
X8876786Y-15914929D01*
X8862500Y-15872071D01*
X8848214Y-15843500D01*
X8819643Y-15800643D01*
X8805357Y-15786357D01*
M02*
