G04 #@! TF.GenerationSoftware,KiCad,Pcbnew,5.1.10*
G04 #@! TF.CreationDate,2021-05-19T15:41:42-05:00*
G04 #@! TF.ProjectId,Power Board,506f7765-7220-4426-9f61-72642e6b6963,rev?*
G04 #@! TF.SameCoordinates,Original*
G04 #@! TF.FileFunction,Legend,Top*
G04 #@! TF.FilePolarity,Positive*
%FSLAX46Y46*%
G04 Gerber Fmt 4.6, Leading zero omitted, Abs format (unit mm)*
G04 Created by KiCad (PCBNEW 5.1.10) date 2021-05-19 15:41:42*
%MOMM*%
%LPD*%
G01*
G04 APERTURE LIST*
%ADD10C,0.150000*%
%ADD11C,0.120000*%
%ADD12C,2.600000*%
%ADD13R,2.600000X2.600000*%
%ADD14C,5.500000*%
%ADD15R,3.750000X3.750000*%
%ADD16C,2.000000*%
%ADD17O,1.700000X1.700000*%
%ADD18R,1.700000X1.700000*%
%ADD19O,2.000000X1.700000*%
%ADD20O,1.950000X1.700000*%
%ADD21C,0.900000*%
%ADD22C,10.600000*%
G04 APERTURE END LIST*
D10*
X116452380Y-95654761D02*
X115452380Y-95654761D01*
X115452380Y-95416666D01*
X115500000Y-95273809D01*
X115595238Y-95178571D01*
X115690476Y-95130952D01*
X115880952Y-95083333D01*
X116023809Y-95083333D01*
X116214285Y-95130952D01*
X116309523Y-95178571D01*
X116404761Y-95273809D01*
X116452380Y-95416666D01*
X116452380Y-95654761D01*
X116357142Y-94083333D02*
X116404761Y-94130952D01*
X116452380Y-94273809D01*
X116452380Y-94369047D01*
X116404761Y-94511904D01*
X116309523Y-94607142D01*
X116214285Y-94654761D01*
X116023809Y-94702380D01*
X115880952Y-94702380D01*
X115690476Y-94654761D01*
X115595238Y-94607142D01*
X115500000Y-94511904D01*
X115452380Y-94369047D01*
X115452380Y-94273809D01*
X115500000Y-94130952D01*
X115547619Y-94083333D01*
X116452380Y-92892857D02*
X115452380Y-92892857D01*
X115452380Y-92511904D01*
X115500000Y-92416666D01*
X115547619Y-92369047D01*
X115642857Y-92321428D01*
X115785714Y-92321428D01*
X115880952Y-92369047D01*
X115928571Y-92416666D01*
X115976190Y-92511904D01*
X115976190Y-92892857D01*
X116452380Y-91464285D02*
X115928571Y-91464285D01*
X115833333Y-91511904D01*
X115785714Y-91607142D01*
X115785714Y-91797619D01*
X115833333Y-91892857D01*
X116404761Y-91464285D02*
X116452380Y-91559523D01*
X116452380Y-91797619D01*
X116404761Y-91892857D01*
X116309523Y-91940476D01*
X116214285Y-91940476D01*
X116119047Y-91892857D01*
X116071428Y-91797619D01*
X116071428Y-91559523D01*
X116023809Y-91464285D01*
X116404761Y-91035714D02*
X116452380Y-90940476D01*
X116452380Y-90750000D01*
X116404761Y-90654761D01*
X116309523Y-90607142D01*
X116261904Y-90607142D01*
X116166666Y-90654761D01*
X116119047Y-90750000D01*
X116119047Y-90892857D01*
X116071428Y-90988095D01*
X115976190Y-91035714D01*
X115928571Y-91035714D01*
X115833333Y-90988095D01*
X115785714Y-90892857D01*
X115785714Y-90750000D01*
X115833333Y-90654761D01*
X116404761Y-90226190D02*
X116452380Y-90130952D01*
X116452380Y-89940476D01*
X116404761Y-89845238D01*
X116309523Y-89797619D01*
X116261904Y-89797619D01*
X116166666Y-89845238D01*
X116119047Y-89940476D01*
X116119047Y-90083333D01*
X116071428Y-90178571D01*
X115976190Y-90226190D01*
X115928571Y-90226190D01*
X115833333Y-90178571D01*
X115785714Y-90083333D01*
X115785714Y-89940476D01*
X115833333Y-89845238D01*
X115785714Y-89511904D02*
X115785714Y-89130952D01*
X115452380Y-89369047D02*
X116309523Y-89369047D01*
X116404761Y-89321428D01*
X116452380Y-89226190D01*
X116452380Y-89130952D01*
X116452380Y-88797619D02*
X115452380Y-88797619D01*
X116452380Y-88369047D02*
X115928571Y-88369047D01*
X115833333Y-88416666D01*
X115785714Y-88511904D01*
X115785714Y-88654761D01*
X115833333Y-88750000D01*
X115880952Y-88797619D01*
X116452380Y-87892857D02*
X115785714Y-87892857D01*
X115976190Y-87892857D02*
X115880952Y-87845238D01*
X115833333Y-87797619D01*
X115785714Y-87702380D01*
X115785714Y-87607142D01*
X115785714Y-86845238D02*
X116452380Y-86845238D01*
X115785714Y-87273809D02*
X116309523Y-87273809D01*
X116404761Y-87226190D01*
X116452380Y-87130952D01*
X116452380Y-86988095D01*
X116404761Y-86892857D01*
X116357142Y-86845238D01*
D11*
X117000000Y-96750000D02*
X115000000Y-96750000D01*
X117000000Y-85750000D02*
X117000000Y-96750000D01*
X115000000Y-85750000D02*
X117000000Y-85750000D01*
X115000000Y-96750000D02*
X113000000Y-96750000D01*
X115000000Y-85750000D02*
X115000000Y-96750000D01*
X113000000Y-85750000D02*
X115000000Y-85750000D01*
D10*
X115452380Y-72011904D02*
X115452380Y-71630952D01*
X115500000Y-71440476D01*
X115595238Y-71250000D01*
X115785714Y-71154761D01*
X116119047Y-71154761D01*
X116309523Y-71250000D01*
X116404761Y-71440476D01*
X116452380Y-71630952D01*
X116452380Y-72011904D01*
X116404761Y-72202380D01*
X116309523Y-72392857D01*
X116119047Y-72488095D01*
X115785714Y-72488095D01*
X115595238Y-72392857D01*
X115500000Y-72202380D01*
X115452380Y-72011904D01*
X115452380Y-70297619D02*
X116261904Y-70297619D01*
X116357142Y-70202380D01*
X116404761Y-70107142D01*
X116452380Y-69916666D01*
X116452380Y-69535714D01*
X116404761Y-69345238D01*
X116357142Y-69250000D01*
X116261904Y-69154761D01*
X115452380Y-69154761D01*
X115452380Y-68488095D02*
X115452380Y-67345238D01*
X116452380Y-67916666D02*
X115452380Y-67916666D01*
X116452380Y-66678571D02*
X115452380Y-66678571D01*
X115452380Y-65916666D01*
X115500000Y-65726190D01*
X115547619Y-65630952D01*
X115642857Y-65535714D01*
X115785714Y-65535714D01*
X115880952Y-65630952D01*
X115928571Y-65726190D01*
X115976190Y-65916666D01*
X115976190Y-66678571D01*
X115452380Y-64678571D02*
X116261904Y-64678571D01*
X116357142Y-64583333D01*
X116404761Y-64488095D01*
X116452380Y-64297619D01*
X116452380Y-63916666D01*
X116404761Y-63726190D01*
X116357142Y-63630952D01*
X116261904Y-63535714D01*
X115452380Y-63535714D01*
X115452380Y-62869047D02*
X115452380Y-61726190D01*
X116452380Y-62297619D02*
X115452380Y-62297619D01*
X116404761Y-61154761D02*
X116452380Y-60869047D01*
X116452380Y-60392857D01*
X116404761Y-60202380D01*
X116357142Y-60107142D01*
X116261904Y-60011904D01*
X116166666Y-60011904D01*
X116071428Y-60107142D01*
X116023809Y-60202380D01*
X115976190Y-60392857D01*
X115928571Y-60773809D01*
X115880952Y-60964285D01*
X115833333Y-61059523D01*
X115738095Y-61154761D01*
X115642857Y-61154761D01*
X115547619Y-61059523D01*
X115500000Y-60964285D01*
X115452380Y-60773809D01*
X115452380Y-60297619D01*
X115500000Y-60011904D01*
D11*
X117000000Y-55750000D02*
X115000000Y-55750000D01*
X117000000Y-76750000D02*
X117000000Y-55750000D01*
X115000000Y-76750000D02*
X117000000Y-76750000D01*
X115000000Y-66250000D02*
X113000000Y-66250000D01*
X115000000Y-55750000D02*
X113000000Y-55750000D01*
X115000000Y-76750000D02*
X115000000Y-55750000D01*
X113000000Y-76750000D02*
X115000000Y-76750000D01*
D10*
X113452380Y-95273809D02*
X114452380Y-94940476D01*
X113452380Y-94607142D01*
X114452380Y-94130952D02*
X114404761Y-94226190D01*
X114357142Y-94273809D01*
X114261904Y-94321428D01*
X113976190Y-94321428D01*
X113880952Y-94273809D01*
X113833333Y-94226190D01*
X113785714Y-94130952D01*
X113785714Y-93988095D01*
X113833333Y-93892857D01*
X113880952Y-93845238D01*
X113976190Y-93797619D01*
X114261904Y-93797619D01*
X114357142Y-93845238D01*
X114404761Y-93892857D01*
X114452380Y-93988095D01*
X114452380Y-94130952D01*
X113785714Y-92940476D02*
X114452380Y-92940476D01*
X113785714Y-93369047D02*
X114309523Y-93369047D01*
X114404761Y-93321428D01*
X114452380Y-93226190D01*
X114452380Y-93083333D01*
X114404761Y-92988095D01*
X114357142Y-92940476D01*
X113785714Y-92607142D02*
X113785714Y-92226190D01*
X113452380Y-92464285D02*
X114309523Y-92464285D01*
X114404761Y-92416666D01*
X114452380Y-92321428D01*
X114452380Y-92226190D01*
X113500000Y-89511904D02*
X113452380Y-89607142D01*
X113452380Y-89750000D01*
X113500000Y-89892857D01*
X113595238Y-89988095D01*
X113690476Y-90035714D01*
X113880952Y-90083333D01*
X114023809Y-90083333D01*
X114214285Y-90035714D01*
X114309523Y-89988095D01*
X114404761Y-89892857D01*
X114452380Y-89750000D01*
X114452380Y-89654761D01*
X114404761Y-89511904D01*
X114357142Y-89464285D01*
X114023809Y-89464285D01*
X114023809Y-89654761D01*
X114452380Y-89035714D02*
X113452380Y-89035714D01*
X114452380Y-88464285D01*
X113452380Y-88464285D01*
X114452380Y-87988095D02*
X113452380Y-87988095D01*
X113452380Y-87750000D01*
X113500000Y-87607142D01*
X113595238Y-87511904D01*
X113690476Y-87464285D01*
X113880952Y-87416666D01*
X114023809Y-87416666D01*
X114214285Y-87464285D01*
X114309523Y-87511904D01*
X114404761Y-87607142D01*
X114452380Y-87750000D01*
X114452380Y-87988095D01*
X114452380Y-74369047D02*
X114452380Y-74940476D01*
X114452380Y-74654761D02*
X113452380Y-74654761D01*
X113595238Y-74750000D01*
X113690476Y-74845238D01*
X113738095Y-74940476D01*
X113547619Y-73988095D02*
X113500000Y-73940476D01*
X113452380Y-73845238D01*
X113452380Y-73607142D01*
X113500000Y-73511904D01*
X113547619Y-73464285D01*
X113642857Y-73416666D01*
X113738095Y-73416666D01*
X113880952Y-73464285D01*
X114452380Y-74035714D01*
X114452380Y-73416666D01*
X113452380Y-73130952D02*
X114452380Y-72797619D01*
X113452380Y-72464285D01*
X113500000Y-69511904D02*
X113452380Y-69607142D01*
X113452380Y-69750000D01*
X113500000Y-69892857D01*
X113595238Y-69988095D01*
X113690476Y-70035714D01*
X113880952Y-70083333D01*
X114023809Y-70083333D01*
X114214285Y-70035714D01*
X114309523Y-69988095D01*
X114404761Y-69892857D01*
X114452380Y-69750000D01*
X114452380Y-69654761D01*
X114404761Y-69511904D01*
X114357142Y-69464285D01*
X114023809Y-69464285D01*
X114023809Y-69654761D01*
X114452380Y-69035714D02*
X113452380Y-69035714D01*
X114452380Y-68464285D01*
X113452380Y-68464285D01*
X114452380Y-67988095D02*
X113452380Y-67988095D01*
X113452380Y-67750000D01*
X113500000Y-67607142D01*
X113595238Y-67511904D01*
X113690476Y-67464285D01*
X113880952Y-67416666D01*
X114023809Y-67416666D01*
X114214285Y-67464285D01*
X114309523Y-67511904D01*
X114404761Y-67607142D01*
X114452380Y-67750000D01*
X114452380Y-67988095D01*
X113500000Y-59511904D02*
X113452380Y-59607142D01*
X113452380Y-59750000D01*
X113500000Y-59892857D01*
X113595238Y-59988095D01*
X113690476Y-60035714D01*
X113880952Y-60083333D01*
X114023809Y-60083333D01*
X114214285Y-60035714D01*
X114309523Y-59988095D01*
X114404761Y-59892857D01*
X114452380Y-59750000D01*
X114452380Y-59654761D01*
X114404761Y-59511904D01*
X114357142Y-59464285D01*
X114023809Y-59464285D01*
X114023809Y-59654761D01*
X114452380Y-59035714D02*
X113452380Y-59035714D01*
X114452380Y-58464285D01*
X113452380Y-58464285D01*
X114452380Y-57988095D02*
X113452380Y-57988095D01*
X113452380Y-57750000D01*
X113500000Y-57607142D01*
X113595238Y-57511904D01*
X113690476Y-57464285D01*
X113880952Y-57416666D01*
X114023809Y-57416666D01*
X114214285Y-57464285D01*
X114309523Y-57511904D01*
X114404761Y-57607142D01*
X114452380Y-57750000D01*
X114452380Y-57988095D01*
X113452380Y-63940476D02*
X113452380Y-64416666D01*
X113928571Y-64464285D01*
X113880952Y-64416666D01*
X113833333Y-64321428D01*
X113833333Y-64083333D01*
X113880952Y-63988095D01*
X113928571Y-63940476D01*
X114023809Y-63892857D01*
X114261904Y-63892857D01*
X114357142Y-63940476D01*
X114404761Y-63988095D01*
X114452380Y-64083333D01*
X114452380Y-64321428D01*
X114404761Y-64416666D01*
X114357142Y-64464285D01*
X113452380Y-63607142D02*
X114452380Y-63273809D01*
X113452380Y-62940476D01*
X108202380Y-38940476D02*
X108202380Y-39416666D01*
X108678571Y-39464285D01*
X108630952Y-39416666D01*
X108583333Y-39321428D01*
X108583333Y-39083333D01*
X108630952Y-38988095D01*
X108678571Y-38940476D01*
X108773809Y-38892857D01*
X109011904Y-38892857D01*
X109107142Y-38940476D01*
X109154761Y-38988095D01*
X109202380Y-39083333D01*
X109202380Y-39321428D01*
X109154761Y-39416666D01*
X109107142Y-39464285D01*
X108202380Y-38607142D02*
X109202380Y-38273809D01*
X108202380Y-37940476D01*
X105750000Y-39011904D02*
X105702380Y-39107142D01*
X105702380Y-39250000D01*
X105750000Y-39392857D01*
X105845238Y-39488095D01*
X105940476Y-39535714D01*
X106130952Y-39583333D01*
X106273809Y-39583333D01*
X106464285Y-39535714D01*
X106559523Y-39488095D01*
X106654761Y-39392857D01*
X106702380Y-39250000D01*
X106702380Y-39154761D01*
X106654761Y-39011904D01*
X106607142Y-38964285D01*
X106273809Y-38964285D01*
X106273809Y-39154761D01*
X106702380Y-38535714D02*
X105702380Y-38535714D01*
X106702380Y-37964285D01*
X105702380Y-37964285D01*
X106702380Y-37488095D02*
X105702380Y-37488095D01*
X105702380Y-37250000D01*
X105750000Y-37107142D01*
X105845238Y-37011904D01*
X105940476Y-36964285D01*
X106130952Y-36916666D01*
X106273809Y-36916666D01*
X106464285Y-36964285D01*
X106559523Y-37011904D01*
X106654761Y-37107142D01*
X106702380Y-37250000D01*
X106702380Y-37488095D01*
D11*
X97500000Y-116000000D02*
X97500000Y-16000000D01*
X37500000Y-16000000D02*
X37500000Y-116000000D01*
X81000000Y-107250000D02*
G75*
G03*
X81000000Y-107250000I-3500000J0D01*
G01*
X56000000Y-102250000D02*
G75*
G03*
X56000000Y-102250000I-3500000J0D01*
G01*
X79000000Y-44500000D02*
G75*
G03*
X79000000Y-44500000I-3500000J0D01*
G01*
X49000000Y-60500000D02*
G75*
G03*
X49000000Y-60500000I-3500000J0D01*
G01*
X82850000Y-19800000D02*
G75*
G03*
X82850000Y-19800000I-3500000J0D01*
G01*
X49650000Y-37200000D02*
G75*
G03*
X49650000Y-37200000I-3500000J0D01*
G01*
X107460000Y-40170000D02*
X108790000Y-40170000D01*
X107460000Y-41500000D02*
X107460000Y-40170000D01*
X107460000Y-42770000D02*
X110120000Y-42770000D01*
X110120000Y-42770000D02*
X110120000Y-52990000D01*
X107460000Y-42770000D02*
X107460000Y-52990000D01*
X107460000Y-52990000D02*
X110120000Y-52990000D01*
X104920000Y-40170000D02*
X106250000Y-40170000D01*
X104920000Y-41500000D02*
X104920000Y-40170000D01*
X104920000Y-42770000D02*
X107580000Y-42770000D01*
X107580000Y-42770000D02*
X107580000Y-52990000D01*
X104920000Y-42770000D02*
X104920000Y-52990000D01*
X104920000Y-52990000D02*
X107580000Y-52990000D01*
X112800000Y-66550000D02*
X112800000Y-66150000D01*
X112160000Y-66550000D02*
X112800000Y-66550000D01*
X108492000Y-60008000D02*
X108888000Y-60403000D01*
X105846000Y-57362000D02*
X106226000Y-57742000D01*
X108774000Y-59757000D02*
X109154000Y-60137000D01*
X106112000Y-57096000D02*
X106508000Y-57491000D01*
X108781000Y-65298000D02*
X108888000Y-65404000D01*
X105846000Y-62362000D02*
X105953000Y-62469000D01*
X109047000Y-65032000D02*
X109154000Y-65138000D01*
X106112000Y-62096000D02*
X106219000Y-62203000D01*
X103440000Y-56190000D02*
X112560000Y-56190000D01*
X103440000Y-66310000D02*
X112560000Y-66310000D01*
X112560000Y-66310000D02*
X112560000Y-56190000D01*
X103440000Y-66310000D02*
X103440000Y-56190000D01*
X111000000Y-66310000D02*
X111000000Y-56190000D01*
X112100000Y-66310000D02*
X112100000Y-56190000D01*
X109680000Y-58750000D02*
G75*
G03*
X109680000Y-58750000I-2180000J0D01*
G01*
X109680000Y-63750000D02*
G75*
G03*
X109680000Y-63750000I-2180000J0D01*
G01*
X112800000Y-76550000D02*
X112800000Y-76150000D01*
X112160000Y-76550000D02*
X112800000Y-76550000D01*
X108492000Y-70008000D02*
X108888000Y-70403000D01*
X105846000Y-67362000D02*
X106226000Y-67742000D01*
X108774000Y-69757000D02*
X109154000Y-70137000D01*
X106112000Y-67096000D02*
X106508000Y-67491000D01*
X108781000Y-75298000D02*
X108888000Y-75404000D01*
X105846000Y-72362000D02*
X105953000Y-72469000D01*
X109047000Y-75032000D02*
X109154000Y-75138000D01*
X106112000Y-72096000D02*
X106219000Y-72203000D01*
X103440000Y-66190000D02*
X112560000Y-66190000D01*
X103440000Y-76310000D02*
X112560000Y-76310000D01*
X112560000Y-76310000D02*
X112560000Y-66190000D01*
X103440000Y-76310000D02*
X103440000Y-66190000D01*
X111000000Y-76310000D02*
X111000000Y-66190000D01*
X112100000Y-76310000D02*
X112100000Y-66190000D01*
X109680000Y-68750000D02*
G75*
G03*
X109680000Y-68750000I-2180000J0D01*
G01*
X109680000Y-73750000D02*
G75*
G03*
X109680000Y-73750000I-2180000J0D01*
G01*
X112800000Y-96550000D02*
X112800000Y-96150000D01*
X112160000Y-96550000D02*
X112800000Y-96550000D01*
X108492000Y-90008000D02*
X108888000Y-90403000D01*
X105846000Y-87362000D02*
X106226000Y-87742000D01*
X108774000Y-89757000D02*
X109154000Y-90137000D01*
X106112000Y-87096000D02*
X106508000Y-87491000D01*
X108781000Y-95298000D02*
X108888000Y-95404000D01*
X105846000Y-92362000D02*
X105953000Y-92469000D01*
X109047000Y-95032000D02*
X109154000Y-95138000D01*
X106112000Y-92096000D02*
X106219000Y-92203000D01*
X103440000Y-86190000D02*
X112560000Y-86190000D01*
X103440000Y-96310000D02*
X112560000Y-96310000D01*
X112560000Y-96310000D02*
X112560000Y-86190000D01*
X103440000Y-96310000D02*
X103440000Y-86190000D01*
X111000000Y-96310000D02*
X111000000Y-86190000D01*
X112100000Y-96310000D02*
X112100000Y-86190000D01*
X109680000Y-88750000D02*
G75*
G03*
X109680000Y-88750000I-2180000J0D01*
G01*
X109680000Y-93750000D02*
G75*
G03*
X109680000Y-93750000I-2180000J0D01*
G01*
D10*
X107690476Y-53702380D02*
X107690476Y-54416666D01*
X107642857Y-54559523D01*
X107547619Y-54654761D01*
X107404761Y-54702380D01*
X107309523Y-54702380D01*
X108690476Y-54702380D02*
X108119047Y-54702380D01*
X108404761Y-54702380D02*
X108404761Y-53702380D01*
X108309523Y-53845238D01*
X108214285Y-53940476D01*
X108119047Y-53988095D01*
X109309523Y-53702380D02*
X109404761Y-53702380D01*
X109500000Y-53750000D01*
X109547619Y-53797619D01*
X109595238Y-53892857D01*
X109642857Y-54083333D01*
X109642857Y-54321428D01*
X109595238Y-54511904D01*
X109547619Y-54607142D01*
X109500000Y-54654761D01*
X109404761Y-54702380D01*
X109309523Y-54702380D01*
X109214285Y-54654761D01*
X109166666Y-54607142D01*
X109119047Y-54511904D01*
X109071428Y-54321428D01*
X109071428Y-54083333D01*
X109119047Y-53892857D01*
X109166666Y-53797619D01*
X109214285Y-53750000D01*
X109309523Y-53702380D01*
X105666666Y-53702380D02*
X105666666Y-54416666D01*
X105619047Y-54559523D01*
X105523809Y-54654761D01*
X105380952Y-54702380D01*
X105285714Y-54702380D01*
X106190476Y-54702380D02*
X106380952Y-54702380D01*
X106476190Y-54654761D01*
X106523809Y-54607142D01*
X106619047Y-54464285D01*
X106666666Y-54273809D01*
X106666666Y-53892857D01*
X106619047Y-53797619D01*
X106571428Y-53750000D01*
X106476190Y-53702380D01*
X106285714Y-53702380D01*
X106190476Y-53750000D01*
X106142857Y-53797619D01*
X106095238Y-53892857D01*
X106095238Y-54130952D01*
X106142857Y-54226190D01*
X106190476Y-54273809D01*
X106285714Y-54321428D01*
X106476190Y-54321428D01*
X106571428Y-54273809D01*
X106619047Y-54226190D01*
X106666666Y-54130952D01*
X101892380Y-61583333D02*
X102606666Y-61583333D01*
X102749523Y-61630952D01*
X102844761Y-61726190D01*
X102892380Y-61869047D01*
X102892380Y-61964285D01*
X102320952Y-60964285D02*
X102273333Y-61059523D01*
X102225714Y-61107142D01*
X102130476Y-61154761D01*
X102082857Y-61154761D01*
X101987619Y-61107142D01*
X101940000Y-61059523D01*
X101892380Y-60964285D01*
X101892380Y-60773809D01*
X101940000Y-60678571D01*
X101987619Y-60630952D01*
X102082857Y-60583333D01*
X102130476Y-60583333D01*
X102225714Y-60630952D01*
X102273333Y-60678571D01*
X102320952Y-60773809D01*
X102320952Y-60964285D01*
X102368571Y-61059523D01*
X102416190Y-61107142D01*
X102511428Y-61154761D01*
X102701904Y-61154761D01*
X102797142Y-61107142D01*
X102844761Y-61059523D01*
X102892380Y-60964285D01*
X102892380Y-60773809D01*
X102844761Y-60678571D01*
X102797142Y-60630952D01*
X102701904Y-60583333D01*
X102511428Y-60583333D01*
X102416190Y-60630952D01*
X102368571Y-60678571D01*
X102320952Y-60773809D01*
X101892380Y-71583333D02*
X102606666Y-71583333D01*
X102749523Y-71630952D01*
X102844761Y-71726190D01*
X102892380Y-71869047D01*
X102892380Y-71964285D01*
X101892380Y-71202380D02*
X101892380Y-70535714D01*
X102892380Y-70964285D01*
X101892380Y-91583333D02*
X102606666Y-91583333D01*
X102749523Y-91630952D01*
X102844761Y-91726190D01*
X102892380Y-91869047D01*
X102892380Y-91964285D01*
X102892380Y-90583333D02*
X102892380Y-91154761D01*
X102892380Y-90869047D02*
X101892380Y-90869047D01*
X102035238Y-90964285D01*
X102130476Y-91059523D01*
X102178095Y-91154761D01*
X106738095Y-100152380D02*
X106738095Y-99152380D01*
X106738095Y-99628571D02*
X107309523Y-99628571D01*
X107309523Y-100152380D02*
X107309523Y-99152380D01*
X108214285Y-99485714D02*
X108214285Y-100152380D01*
X107976190Y-99104761D02*
X107738095Y-99819047D01*
X108357142Y-99819047D01*
X106738095Y-20152380D02*
X106738095Y-19152380D01*
X106738095Y-19628571D02*
X107309523Y-19628571D01*
X107309523Y-20152380D02*
X107309523Y-19152380D01*
X107690476Y-19152380D02*
X108309523Y-19152380D01*
X107976190Y-19533333D01*
X108119047Y-19533333D01*
X108214285Y-19580952D01*
X108261904Y-19628571D01*
X108309523Y-19723809D01*
X108309523Y-19961904D01*
X108261904Y-20057142D01*
X108214285Y-20104761D01*
X108119047Y-20152380D01*
X107833333Y-20152380D01*
X107738095Y-20104761D01*
X107690476Y-20057142D01*
X26738095Y-100152380D02*
X26738095Y-99152380D01*
X26738095Y-99628571D02*
X27309523Y-99628571D01*
X27309523Y-100152380D02*
X27309523Y-99152380D01*
X27738095Y-99247619D02*
X27785714Y-99200000D01*
X27880952Y-99152380D01*
X28119047Y-99152380D01*
X28214285Y-99200000D01*
X28261904Y-99247619D01*
X28309523Y-99342857D01*
X28309523Y-99438095D01*
X28261904Y-99580952D01*
X27690476Y-100152380D01*
X28309523Y-100152380D01*
X26738095Y-20152380D02*
X26738095Y-19152380D01*
X26738095Y-19628571D02*
X27309523Y-19628571D01*
X27309523Y-20152380D02*
X27309523Y-19152380D01*
X28309523Y-20152380D02*
X27738095Y-20152380D01*
X28023809Y-20152380D02*
X28023809Y-19152380D01*
X27928571Y-19295238D01*
X27833333Y-19390476D01*
X27738095Y-19438095D01*
%LPC*%
D12*
X94000000Y-87750000D03*
D13*
X89000000Y-87750000D03*
D14*
X77500000Y-107250000D03*
X52500000Y-102250000D03*
D15*
X88750000Y-118250000D03*
X88750000Y-96250000D03*
X41250000Y-118250000D03*
X41250000Y-96250000D03*
D14*
X45500000Y-60500000D03*
X75500000Y-44500000D03*
D15*
X81000000Y-43250000D03*
X81000000Y-61750000D03*
X40000000Y-43250000D03*
X40000000Y-61750000D03*
D16*
X39750000Y-23300000D03*
D14*
X46150000Y-37250000D03*
X79350000Y-19750000D03*
D15*
X84850000Y-19000000D03*
X84850000Y-38000000D03*
X40650000Y-19000000D03*
X40650000Y-38000000D03*
D17*
X83520000Y-120500000D03*
D18*
X80980000Y-120500000D03*
D17*
X55580000Y-120500000D03*
X53040000Y-120500000D03*
D18*
X50500000Y-120500000D03*
D17*
X65740000Y-120500000D03*
D18*
X63200000Y-120500000D03*
D17*
X73360000Y-120500000D03*
D18*
X70820000Y-120500000D03*
X68280000Y-120500000D03*
D17*
X78440000Y-120500000D03*
D18*
X75900000Y-120500000D03*
D17*
X60660000Y-120500000D03*
D18*
X58120000Y-120500000D03*
D17*
X108790000Y-51660000D03*
X108790000Y-49120000D03*
X108790000Y-46580000D03*
X108790000Y-44040000D03*
D18*
X108790000Y-41500000D03*
D17*
X106250000Y-51660000D03*
X106250000Y-49120000D03*
X106250000Y-46580000D03*
X106250000Y-44040000D03*
D18*
X106250000Y-41500000D03*
D12*
X107500000Y-58750000D03*
D13*
X107500000Y-63750000D03*
D12*
X107500000Y-68750000D03*
D13*
X107500000Y-73750000D03*
D19*
X92000000Y-32750000D03*
G36*
G01*
X91250000Y-29400000D02*
X92750000Y-29400000D01*
G75*
G02*
X93000000Y-29650000I0J-250000D01*
G01*
X93000000Y-30850000D01*
G75*
G02*
X92750000Y-31100000I-250000J0D01*
G01*
X91250000Y-31100000D01*
G75*
G02*
X91000000Y-30850000I0J250000D01*
G01*
X91000000Y-29650000D01*
G75*
G02*
X91250000Y-29400000I250000J0D01*
G01*
G37*
D12*
X89000000Y-60500000D03*
D13*
X94000000Y-60500000D03*
D12*
X107500000Y-88750000D03*
D13*
X107500000Y-93750000D03*
D12*
X94000000Y-51500000D03*
D13*
X89000000Y-51500000D03*
D20*
X92000000Y-24250000D03*
X92000000Y-21750000D03*
G36*
G01*
X91275000Y-18400000D02*
X92725000Y-18400000D01*
G75*
G02*
X92975000Y-18650000I0J-250000D01*
G01*
X92975000Y-19850000D01*
G75*
G02*
X92725000Y-20100000I-250000J0D01*
G01*
X91275000Y-20100000D01*
G75*
G02*
X91025000Y-19850000I0J250000D01*
G01*
X91025000Y-18650000D01*
G75*
G02*
X91275000Y-18400000I250000J0D01*
G01*
G37*
D21*
X110310749Y-103189251D03*
X107500000Y-102025000D03*
X104689251Y-103189251D03*
X103525000Y-106000000D03*
X104689251Y-108810749D03*
X107500000Y-109975000D03*
X110310749Y-108810749D03*
X111475000Y-106000000D03*
D22*
X107500000Y-106000000D03*
D21*
X110310749Y-23189251D03*
X107500000Y-22025000D03*
X104689251Y-23189251D03*
X103525000Y-26000000D03*
X104689251Y-28810749D03*
X107500000Y-29975000D03*
X110310749Y-28810749D03*
X111475000Y-26000000D03*
D22*
X107500000Y-26000000D03*
D21*
X30310749Y-103189251D03*
X27500000Y-102025000D03*
X24689251Y-103189251D03*
X23525000Y-106000000D03*
X24689251Y-108810749D03*
X27500000Y-109975000D03*
X30310749Y-108810749D03*
X31475000Y-106000000D03*
D22*
X27500000Y-106000000D03*
D21*
X30310749Y-23189251D03*
X27500000Y-22025000D03*
X24689251Y-23189251D03*
X23525000Y-26000000D03*
X24689251Y-28810749D03*
X27500000Y-29975000D03*
X30310749Y-28810749D03*
X31475000Y-26000000D03*
D22*
X27500000Y-26000000D03*
M02*
