  0
SECTION
  2
HEADER
  9
$ACADVER
  1
AC1014
  9
$HANDSEED
  5
FFFF
  9
$MEASUREMENT
 70
     1
  0
ENDSEC
  0
SECTION
  2
TABLES
  0
TABLE
  2
VPORT
  5
8
330
0
100
AcDbSymbolTable
 70
     4
  0
VPORT
  5
2E
330
8
100
AcDbSymbolTableRecord
100
AcDbViewportTableRecord
  2
*ACTIVE
 70
     0
 10
0.0
 20
0.0
 11
1.0
 21
1.0
 12
210.0
 22
148.5
 13
0.0
 23
0.0
 14
10.0
 24
10.0
 15
10.0
 25
10.0
 16
0.0
 26
0.0
 36
1.0
 17
0.0
 27
0.0
 37
0.0
 40
341.0
 41
1.24
 42
50.0
 43
0.0
 44
0.0
 50
0.0
 51
0.0
 71
     0
 72
   100
 73
     1
 74
     3
 75
     0
 76
     0
 77
     0
 78
     0
  0
ENDTAB
  0
TABLE
  2
LTYPE
  5
5
330
0
100
AcDbSymbolTable
 70
     1
  0
LTYPE
  5
14
330
5
100
AcDbSymbolTableRecord
100
AcDbLinetypeTableRecord
  2
BYBLOCK
 70
     0
  3

 72
    65
 73
     0
 40
0.0
  0
LTYPE
  5
15
330
5
100
AcDbSymbolTableRecord
100
AcDbLinetypeTableRecord
  2
BYLAYER
 70
     0
  3

 72
    65
 73
     0
 40
0.0
  0
LTYPE
  5
16
330
5
100
AcDbSymbolTableRecord
100
AcDbLinetypeTableRecord
  2
CONTINUOUS
 70
     0
  3
Solid line
 72
    65
 73
     0
 40
0.0
  0
ENDTAB
  0
TABLE
  2
LAYER
  5
2
100
AcDbSymbolTable
 70
2
  0
LAYER
  5
50
100
AcDbSymbolTableRecord
100
AcDbLayerTableRecord
  2
0
 70
0
  6
CONTINUOUS
  0
LAYER
  5
51
100
AcDbSymbolTableRecord
100
AcDbLayerTableRecord
  2
Layer_1
 70
0
  6
CONTINUOUS
  0
ENDTAB
  0
TABLE
  2
STYLE
  5
3
330
0
100
AcDbSymbolTable
 70
     1
  0
STYLE
  5
11
330
3
100
AcDbSymbolTableRecord
100
AcDbTextStyleTableRecord
  2
STANDARD
 70
     0
 40
0.0
 41
1.0
 50
0.0
 71
     0
 42
2.5
  3
txt
  4

  0
ENDTAB
  0
TABLE
  2
VIEW
  5
6
330
0
100
AcDbSymbolTable
 70
     0
  0
ENDTAB
  0
TABLE
  2
UCS
  5
7
330
0
100
AcDbSymbolTable
 70
     0
  0
ENDTAB
  0
TABLE
  2
APPID
  5
9
330
0
100
AcDbSymbolTable
 70
     2
  0
APPID
  5
12
330
9
100
AcDbSymbolTableRecord
100
AcDbRegAppTableRecord
  2
ACAD
 70
     0
  0
ENDTAB
  0
TABLE
  2
DIMSTYLE
  5
A
330
0
100
AcDbSymbolTable
 70
     1
  0
DIMSTYLE
105
27
330
A
100
AcDbSymbolTableRecord
100
AcDbDimStyleTableRecord
  2
ISO-25
 70
     0
  3

  4

  5

  6

  7

 40
1.0
 41
2.5
 42
0.625
 43
3.75
 44
1.25
 45
0.0
 46
0.0
 47
0.0
 48
0.0
140
2.5
141
2.5
142
0.0
143
0.03937007874016
144
1.0
145
0.0
146
1.0
147
0.625
 71
     0
 72
     0
 73
     0
 74
     0
 75
     0
 76
     0
 77
     1
 78
     8
170
     0
171
     3
172
     1
173
     0
174
     0
175
     0
176
     0
177
     0
178
     0
270
     2
271
     2
272
     2
273
     2
274
     3
340
11
275
     0
280
     0
281
     0
282
     0
283
     0
284
     8
285
     0
286
     0
287
     3
288
     0
  0
ENDTAB
  0
TABLE
  2
BLOCK_RECORD
  5
1
330
0
100
AcDbSymbolTable
 70
     1
  0
BLOCK_RECORD
  5
1F
330
1
100
AcDbSymbolTableRecord
100
AcDbBlockTableRecord
  2
*MODEL_SPACE
  0
BLOCK_RECORD
  5
1B
330
1
100
AcDbSymbolTableRecord
100
AcDbBlockTableRecord
  2
*PAPER_SPACE
  0
ENDTAB
  0
ENDSEC
  0
SECTION
  2
BLOCKS
  0
BLOCK
  5
20
330
1F
100
AcDbEntity
  8
0
100
AcDbBlockBegin
  2
*MODEL_SPACE
 70
     0
 10
0.0
 20
0.0
 30
0.0
  3
*MODEL_SPACE
  1

  0
ENDBLK
  5
21
330
1F
100
AcDbEntity
  8
0
100
AcDbBlockEnd
  0
BLOCK
  5
1C
330
1B
100
AcDbEntity
 67
     1
  8
0
100
AcDbBlockBegin
  2
*PAPER_SPACE
  1

  0
ENDBLK
  5
1D
330
1B
100
AcDbEntity
 67
     1
  8
0
100
AcDbBlockEnd
  0
ENDSEC
  0
SECTION
  2
ENTITIES
  0
SPLINE
  5
100
100
AcDbEntity
  8
Layer_1
 62
7
100
AcDbSpline
 70
8
 71
3
 72
8
 73
4
 74
0
 40
0
 40
0
 40
0
 40
0
 40
1
 40
1
 40
1
 40
1
 10
388.043008
 20
282.048378
 30
0.0
 10
390.674126
 20
282.077575
 30
0.0
 10
393.169890
 20
282.750548
 30
0.0
 10
397.577310
 20
284.619402
 30
0.0
  0
SPLINE
  5
101
100
AcDbEntity
  8
Layer_1
 62
7
100
AcDbSpline
 70
8
 71
3
 72
8
 73
4
 74
0
 40
0
 40
0
 40
0
 40
0
 40
1
 40
1
 40
1
 40
1
 10
397.577310
 20
284.619402
 30
0.0
 10
398.743427
 20
285.113877
 30
0.0
 10
398.889808
 20
284.673260
 30
0.0
 10
398.889808
 20
280.669068
 30
0.0
  0
SPLINE
  5
102
100
AcDbEntity
  8
Layer_1
 62
7
100
AcDbSpline
 70
8
 71
3
 72
8
 73
4
 74
0
 40
0
 40
0
 40
0
 40
0
 40
1
 40
1
 40
1
 40
1
 10
398.889808
 20
280.669068
 30
0.0
 10
398.889808
 20
276.288293
 30
0.0
 10
398.823761
 20
276.139162
 30
0.0
 10
396.527896
 20
275.338828
 30
0.0
  0
SPLINE
  5
103
100
AcDbEntity
  8
Layer_1
 62
7
100
AcDbSpline
 70
8
 71
3
 72
8
 73
4
 74
0
 40
0
 40
0
 40
0
 40
0
 40
1
 40
1
 40
1
 40
1
 10
396.527896
 20
275.338828
 30
0.0
 10
393.009109
 20
274.112164
 30
0.0
 10
392.765017
 20
274.204176
 30
0.0
 10
388.764794
 20
278.265458
 30
0.0
  0
LWPOLYLINE
  5
104
100
AcDbEntity
  8
Layer_1
 62
7
100
AcDbPolyline
 90
3
 70
0
 10
388.764794
 20
278.265487
 30
0.0
 10
385.071194
 20
282.015496
 30
0.0
 10
388.043008
 20
282.048378
 30
0.0
  0
LWPOLYLINE
  5
105
100
AcDbEntity
  8
Layer_1
 62
7
100
AcDbPolyline
 90
1
 70
1
 10
388.764794
 20
278.265458
 30
0.0
  0
SPLINE
  5
106
100
AcDbEntity
  8
Layer_1
 62
7
100
AcDbSpline
 70
8
 71
3
 72
8
 73
4
 74
0
 40
0
 40
0
 40
0
 40
0
 40
1
 40
1
 40
1
 40
1
 10
381.426860
 20
292.534526
 30
0.0
 10
385.758369
 20
292.822923
 30
0.0
 10
388.433934
 20
293.467436
 30
0.0
 10
391.406400
 20
294.938476
 30
0.0
  0
SPLINE
  5
107
100
AcDbEntity
  8
Layer_1
 62
7
100
AcDbSpline
 70
8
 71
3
 72
8
 73
4
 74
0
 40
0
 40
0
 40
0
 40
0
 40
1
 40
1
 40
1
 40
1
 10
391.406400
 20
294.938476
 30
0.0
 10
395.913231
 20
297.168888
 30
0.0
 10
396.255175
 20
297.011707
 30
0.0
 10
397.043235
 20
292.347269
 30
0.0
  0
SPLINE
  5
108
100
AcDbEntity
  8
Layer_1
 62
7
100
AcDbSpline
 70
8
 71
3
 72
8
 73
4
 74
0
 40
0
 40
0
 40
0
 40
0
 40
1
 40
1
 40
1
 40
1
 10
397.043235
 20
292.347269
 30
0.0
 10
397.638624
 20
288.823181
 30
0.0
 10
398.444372
 20
288.301124
 30
0.0
 10
400.852687
 20
289.879087
 30
0.0
  0
SPLINE
  5
109
100
AcDbEntity
  8
Layer_1
 62
7
100
AcDbSpline
 70
8
 71
3
 72
8
 73
4
 74
0
 40
0
 40
0
 40
0
 40
0
 40
1
 40
1
 40
1
 40
1
 10
400.852687
 20
289.879087
 30
0.0
 10
402.657506
 20
291.061644
 30
0.0
 10
402.713887
 20
291.055294
 30
0.0
 10
402.014154
 20
289.747843
 30
0.0
  0
SPLINE
  5
10a
100
AcDbEntity
  8
Layer_1
 62
7
100
AcDbSpline
 70
8
 71
3
 72
8
 73
4
 74
0
 40
0
 40
0
 40
0
 40
0
 40
1
 40
1
 40
1
 40
1
 10
402.014154
 20
289.747843
 30
0.0
 10
401.609679
 20
288.992041
 30
0.0
 10
400.572482
 20
287.734507
 30
0.0
 10
399.709276
 20
286.953335
 30
0.0
  0
SPLINE
  5
10b
100
AcDbEntity
  8
Layer_1
 62
7
100
AcDbSpline
 70
8
 71
3
 72
8
 73
4
 74
0
 40
0
 40
0
 40
0
 40
0
 40
1
 40
1
 40
1
 40
1
 10
399.709276
 20
286.953335
 30
0.0
 10
398.247902
 20
285.630803
 30
0.0
 10
398.139817
 20
285.623972
 30
0.0
 10
398.139817
 20
286.854406
 30
0.0
  0
SPLINE
  5
10c
100
AcDbEntity
  8
Layer_1
 62
7
100
AcDbSpline
 70
8
 71
3
 72
8
 73
4
 74
0
 40
0
 40
0
 40
0
 40
0
 40
1
 40
1
 40
1
 40
1
 10
398.139817
 20
286.854406
 30
0.0
 10
398.139817
 20
287.806791
 30
0.0
 10
397.773213
 20
288.033761
 30
0.0
 10
396.827320
 20
287.667071
 30
0.0
  0
SPLINE
  5
10d
100
AcDbEntity
  8
Layer_1
 62
7
100
AcDbSpline
 70
8
 71
3
 72
8
 73
4
 74
0
 40
0
 40
0
 40
0
 40
0
 40
1
 40
1
 40
1
 40
1
 10
396.827320
 20
287.667071
 30
0.0
 10
393.457861
 20
286.360866
 30
0.0
 10
387.021146
 20
285.015402
 30
0.0
 10
384.141600
 20
285.015402
 30
0.0
  0
SPLINE
  5
10e
100
AcDbEntity
  8
Layer_1
 62
7
100
AcDbSpline
 70
8
 71
3
 72
8
 73
4
 74
0
 40
0
 40
0
 40
0
 40
0
 40
1
 40
1
 40
1
 40
1
 10
384.141600
 20
285.015402
 30
0.0
 10
381.226677
 20
285.015402
 30
0.0
 10
380.728942
 20
285.315534
 30
0.0
 10
378.233603
 20
288.577899
 30
0.0
  0
LWPOLYLINE
  5
10f
100
AcDbEntity
  8
Layer_1
 62
7
100
AcDbPolyline
 90
3
 70
0
 10
378.233603
 20
288.577984
 30
0.0
 10
375.508658
 20
292.140482
 30
0.0
 10
381.426860
 20
292.534526
 30
0.0
  0
SPLINE
  5
110
100
AcDbEntity
  8
Layer_1
 62
7
100
AcDbSpline
 70
8
 71
3
 72
8
 73
4
 74
0
 40
0
 40
0
 40
0
 40
0
 40
1
 40
1
 40
1
 40
1
 10
373.888318
 20
297.104343
 30
0.0
 10
373.625263
 20
298.086718
 30
0.0
 10
373.405691
 20
299.818630
 30
0.0
 10
373.400050
 20
300.952998
 30
0.0
  0
SPLINE
  5
111
100
AcDbEntity
  8
Layer_1
 62
7
100
AcDbSpline
 70
8
 71
3
 72
8
 73
4
 74
0
 40
0
 40
0
 40
0
 40
0
 40
1
 40
1
 40
1
 40
1
 10
373.400050
 20
300.952998
 30
0.0
 10
373.388712
 20
302.983313
 30
0.0
 10
373.462980
 20
303.015600
 30
0.0
 10
378.077301
 20
303.022828
 30
0.0
  0
SPLINE
  5
112
100
AcDbEntity
  8
Layer_1
 62
7
100
AcDbSpline
 70
8
 71
3
 72
8
 73
4
 74
0
 40
0
 40
0
 40
0
 40
0
 40
1
 40
1
 40
1
 40
1
 10
378.077301
 20
303.022828
 30
0.0
 10
381.486841
 20
303.028498
 30
0.0
 10
383.858589
 20
303.539329
 30
0.0
 10
386.776772
 20
304.897833
 30
0.0
  0
SPLINE
  5
113
100
AcDbEntity
  8
Layer_1
 62
7
100
AcDbSpline
 70
8
 71
3
 72
8
 73
4
 74
0
 40
0
 40
0
 40
0
 40
0
 40
1
 40
1
 40
1
 40
1
 10
386.776772
 20
304.897833
 30
0.0
 10
388.983373
 20
305.925052
 30
0.0
 10
390.942964
 20
306.765496
 30
0.0
 10
391.131439
 20
306.765496
 30
0.0
  0
SPLINE
  5
114
100
AcDbEntity
  8
Layer_1
 62
7
100
AcDbSpline
 70
8
 71
3
 72
8
 73
4
 74
0
 40
0
 40
0
 40
0
 40
0
 40
1
 40
1
 40
1
 40
1
 10
391.131439
 20
306.765496
 30
0.0
 10
391.905553
 20
306.765496
 30
0.0
 10
394.481254
 20
299.812791
 30
0.0
 10
393.897628
 20
299.298614
 30
0.0
  0
SPLINE
  5
115
100
AcDbEntity
  8
Layer_1
 62
7
100
AcDbSpline
 70
8
 71
3
 72
8
 73
4
 74
0
 40
0
 40
0
 40
0
 40
0
 40
1
 40
1
 40
1
 40
1
 10
393.897628
 20
299.298614
 30
0.0
 10
392.118123
 20
297.730800
 30
0.0
 10
385.841934
 20
296.056687
 30
0.0
 10
380.440573
 20
295.709102
 30
0.0
  0
SPLINE
  5
116
100
AcDbEntity
  8
Layer_1
 62
7
100
AcDbSpline
 70
8
 71
3
 72
8
 73
4
 74
0
 40
0
 40
0
 40
0
 40
0
 40
1
 40
1
 40
1
 40
1
 10
380.440573
 20
295.709102
 30
0.0
 10
374.528693
 20
295.328636
 30
0.0
 10
374.353569
 20
295.365940
 30
0.0
 10
373.888318
 20
297.104343
 30
0.0
  0
LWPOLYLINE
  5
117
100
AcDbEntity
  8
Layer_1
 62
7
100
AcDbPolyline
 90
1
 70
1
 10
378.233603
 20
288.577899
 30
0.0
  0
SPLINE
  5
118
100
AcDbEntity
  8
Layer_1
 62
7
100
AcDbSpline
 70
8
 71
3
 72
8
 73
4
 74
0
 40
0
 40
0
 40
0
 40
0
 40
1
 40
1
 40
1
 40
1
 10
395.149096
 20
298.702998
 30
0.0
 10
395.154765
 20
299.218620
 30
0.0
 10
396.372161
 20
300.427030
 30
0.0
 10
397.855672
 20
301.388372
 30
0.0
  0
SPLINE
  5
119
100
AcDbEntity
  8
Layer_1
 62
7
100
AcDbSpline
 70
8
 71
3
 72
8
 73
4
 74
0
 40
0
 40
0
 40
0
 40
0
 40
1
 40
1
 40
1
 40
1
 10
397.855672
 20
301.388372
 30
0.0
 10
400.605420
 20
303.170230
 30
0.0
 10
400.620416
 20
302.477641
 30
0.0
 10
397.897625
 20
299.452989
 30
0.0
  0
SPLINE
  5
11a
100
AcDbEntity
  8
Layer_1
 62
7
100
AcDbSpline
 70
8
 71
3
 72
8
 73
4
 74
0
 40
0
 40
0
 40
0
 40
0
 40
1
 40
1
 40
1
 40
1
 10
397.897625
 20
299.452989
 30
0.0
 10
396.207071
 20
297.575121
 30
0.0
 10
395.135150
 20
297.282586
 30
0.0
 10
395.149209
 20
298.702998
 30
0.0
  0
LWPOLYLINE
  5
11b
100
AcDbEntity
  8
Layer_1
 62
7
100
AcDbPolyline
 90
1
 70
1
 10
373.888318
 20
297.104343
 30
0.0
  0
SPLINE
  5
11c
100
AcDbEntity
  8
Layer_1
 62
7
100
AcDbSpline
 70
8
 71
3
 72
8
 73
4
 74
0
 40
0
 40
0
 40
0
 40
0
 40
1
 40
1
 40
1
 40
1
 10
373.398066
 20
306.953008
 30
0.0
 10
373.403735
 20
307.468630
 30
0.0
 10
373.609247
 20
309.116750
 30
0.0
 10
373.856995
 20
310.615512
 30
0.0
  0
SPLINE
  5
11d
100
AcDbEntity
  8
Layer_1
 62
7
100
AcDbSpline
 70
8
 71
3
 72
8
 73
4
 74
0
 40
0
 40
0
 40
0
 40
0
 40
1
 40
1
 40
1
 40
1
 10
373.856995
 20
310.615512
 30
0.0
 10
374.268444
 20
313.103310
 30
0.0
 10
374.557578
 20
313.374019
 30
0.0
 10
377.178690
 20
313.725600
 30
0.0
  0
SPLINE
  5
11e
100
AcDbEntity
  8
Layer_1
 62
7
100
AcDbSpline
 70
8
 71
3
 72
8
 73
4
 74
0
 40
0
 40
0
 40
0
 40
0
 40
1
 40
1
 40
1
 40
1
 10
377.178690
 20
313.725600
 30
0.0
 10
378.757729
 20
313.937348
 30
0.0
 10
381.118932
 20
314.644082
 30
0.0
 10
382.425817
 20
315.296050
 30
0.0
  0
SPLINE
  5
11f
100
AcDbEntity
  8
Layer_1
 62
7
100
AcDbSpline
 70
8
 71
3
 72
8
 73
4
 74
0
 40
0
 40
0
 40
0
 40
0
 40
1
 40
1
 40
1
 40
1
 10
382.425817
 20
315.296050
 30
0.0
 10
384.695121
 20
316.428123
 30
0.0
 10
384.863783
 20
316.406324
 30
0.0
 10
386.177074
 20
314.810957
 30
0.0
  0
SPLINE
  5
120
100
AcDbEntity
  8
Layer_1
 62
7
100
AcDbSpline
 70
8
 71
3
 72
8
 73
4
 74
0
 40
0
 40
0
 40
0
 40
0
 40
1
 40
1
 40
1
 40
1
 10
386.177074
 20
314.810957
 30
0.0
 10
388.899439
 20
311.503805
 30
0.0
 10
389.556595
 20
309.739691
 30
0.0
 10
388.355159
 20
308.963877
 30
0.0
  0
SPLINE
  5
121
100
AcDbEntity
  8
Layer_1
 62
7
100
AcDbSpline
 70
8
 71
3
 72
8
 73
4
 74
0
 40
0
 40
0
 40
0
 40
0
 40
1
 40
1
 40
1
 40
1
 10
388.355159
 20
308.963877
 30
0.0
 10
384.557924
 20
306.511880
 30
0.0
 10
373.380945
 20
305.009206
 30
0.0
 10
373.398066
 20
306.953008
 30
0.0
  0
LWPOLYLINE
  5
122
100
AcDbEntity
  8
Layer_1
 62
7
100
AcDbPolyline
 90
2
 70
0
 10
395.149209
 20
298.702998
 30
0.0
 10
395.149096
 20
298.702998
 30
0.0
  0
SPLINE
  5
123
100
AcDbEntity
  8
Layer_1
 62
7
100
AcDbSpline
 70
8
 71
3
 72
8
 73
4
 74
0
 40
0
 40
0
 40
0
 40
0
 40
1
 40
1
 40
1
 40
1
 10
390.202044
 20
308.367043
 30
0.0
 10
389.676614
 20
309.217181
 30
0.0
 10
390.968844
 20
310.527439
 30
0.0
 10
393.940176
 20
312.157247
 30
0.0
  0
SPLINE
  5
124
100
AcDbEntity
  8
Layer_1
 62
7
100
AcDbSpline
 70
8
 71
3
 72
8
 73
4
 74
0
 40
0
 40
0
 40
0
 40
0
 40
1
 40
1
 40
1
 40
1
 10
393.940176
 20
312.157247
 30
0.0
 10
395.218573
 20
312.858454
 30
0.0
 10
395.195641
 20
312.700450
 30
0.0
 10
393.717657
 20
310.624980
 30
0.0
  0
SPLINE
  5
125
100
AcDbEntity
  8
Layer_1
 62
7
100
AcDbSpline
 70
8
 71
3
 72
8
 73
4
 74
0
 40
0
 40
0
 40
0
 40
0
 40
1
 40
1
 40
1
 40
1
 10
393.717657
 20
310.624980
 30
0.0
 10
391.668463
 20
307.747134
 30
0.0
 10
390.892904
 20
307.249030
 30
0.0
 10
390.201959
 20
308.367043
 30
0.0
  0
LWPOLYLINE
  5
126
100
AcDbEntity
  8
Layer_1
 62
7
100
AcDbPolyline
 90
1
 70
1
 10
373.398066
 20
306.953008
 30
0.0
  0
SPLINE
  5
127
100
AcDbEntity
  8
Layer_1
 62
7
100
AcDbSpline
 70
8
 71
3
 72
8
 73
4
 74
0
 40
0
 40
0
 40
0
 40
0
 40
1
 40
1
 40
1
 40
1
 10
340.888706
 20
318.094072
 30
0.0
 10
340.621398
 20
320.319609
 30
0.0
 10
340.399928
 20
324.438548
 30
0.0
 10
340.396328
 20
327.247257
 30
0.0
  0
SPLINE
  5
128
100
AcDbEntity
  8
Layer_1
 62
7
100
AcDbSpline
 70
8
 71
3
 72
8
 73
4
 74
0
 40
0
 40
0
 40
0
 40
0
 40
1
 40
1
 40
1
 40
1
 10
340.396328
 20
327.247257
 30
0.0
 10
340.387824
 20
333.729213
 30
0.0
 10
338.925969
 20
333.304554
 30
0.0
 10
338.800422
 20
326.783735
 30
0.0
  0
LWPOLYLINE
  5
129
100
AcDbEntity
  8
Layer_1
 62
7
100
AcDbPolyline
 90
1
 70
1
 10
390.201959
 20
308.367043
 30
0.0
  0
SPLINE
  5
12a
100
AcDbEntity
  8
Layer_1
 62
7
100
AcDbSpline
 70
8
 71
3
 72
8
 73
4
 74
0
 40
0
 40
0
 40
0
 40
0
 40
1
 40
1
 40
1
 40
1
 10
337.710529
 20
327.015496
 30
0.0
 10
337.160211
 20
329.696731
 30
0.0
 10
336.696321
 20
333.240491
 30
0.0
 10
336.679682
 20
334.890482
 30
0.0
  0
SPLINE
  5
12b
100
AcDbEntity
  8
Layer_1
 62
7
100
AcDbSpline
 70
8
 71
3
 72
8
 73
4
 74
0
 40
0
 40
0
 40
0
 40
0
 40
1
 40
1
 40
1
 40
1
 10
336.679682
 20
334.890482
 30
0.0
 10
336.654170
 20
337.452888
 30
0.0
 10
336.976923
 20
338.076850
 30
0.0
 10
338.894674
 20
339.168104
 30
0.0
  0
SPLINE
  5
12c
100
AcDbEntity
  8
Layer_1
 62
7
100
AcDbSpline
 70
8
 71
3
 72
8
 73
4
 74
0
 40
0
 40
0
 40
0
 40
0
 40
1
 40
1
 40
1
 40
1
 10
338.894674
 20
339.168104
 30
0.0
 10
340.129559
 20
339.870813
 30
0.0
 10
341.139912
 20
340.866425
 30
0.0
 10
341.139912
 20
341.380602
 30
0.0
  0
SPLINE
  5
12d
100
AcDbEntity
  8
Layer_1
 62
7
100
AcDbSpline
 70
8
 71
3
 72
8
 73
4
 74
0
 40
0
 40
0
 40
0
 40
0
 40
1
 40
1
 40
1
 40
1
 10
341.139912
 20
341.380602
 30
0.0
 10
341.139912
 20
342.107745
 30
0.0
 10
340.939786
 20
342.115483
 30
0.0
 10
340.239912
 20
341.415468
 30
0.0
  0
SPLINE
  5
12e
100
AcDbEntity
  8
Layer_1
 62
7
100
AcDbSpline
 70
8
 71
3
 72
8
 73
4
 74
0
 40
0
 40
0
 40
0
 40
0
 40
1
 40
1
 40
1
 40
1
 10
340.239912
 20
341.415468
 30
0.0
 10
338.777830
 20
339.953386
 30
0.0
 10
338.023984
 20
340.377761
 30
0.0
 10
338.277600
 20
342.520129
 30
0.0
  0
SPLINE
  5
12f
100
AcDbEntity
  8
Layer_1
 62
7
100
AcDbSpline
 70
8
 71
3
 72
8
 73
4
 74
0
 40
0
 40
0
 40
0
 40
0
 40
1
 40
1
 40
1
 40
1
 10
338.277600
 20
342.520129
 30
0.0
 10
338.637515
 20
345.560343
 30
0.0
 10
340.125335
 20
345.437291
 30
0.0
 10
341.582485
 20
342.246869
 30
0.0
  0
SPLINE
  5
130
100
AcDbEntity
  8
Layer_1
 62
7
100
AcDbSpline
 70
8
 71
3
 72
8
 73
4
 74
0
 40
0
 40
0
 40
0
 40
0
 40
1
 40
1
 40
1
 40
1
 10
341.582485
 20
342.246869
 30
0.0
 10
343.446548
 20
338.165546
 30
0.0
 10
345.521906
 20
336.105666
 30
0.0
 10
348.293764
 20
335.585650
 30
0.0
  0
SPLINE
  5
131
100
AcDbEntity
  8
Layer_1
 62
7
100
AcDbSpline
 70
8
 71
3
 72
8
 73
4
 74
0
 40
0
 40
0
 40
0
 40
0
 40
1
 40
1
 40
1
 40
1
 10
348.293764
 20
335.585650
 30
0.0
 10
355.140652
 20
334.301159
 30
0.0
 10
363.094384
 20
344.730274
 30
0.0
 10
364.191902
 20
356.431635
 30
0.0
  0
SPLINE
  5
132
100
AcDbEntity
  8
Layer_1
 62
7
100
AcDbSpline
 70
8
 71
3
 72
8
 73
4
 74
0
 40
0
 40
0
 40
0
 40
0
 40
1
 40
1
 40
1
 40
1
 10
364.191902
 20
356.431635
 30
0.0
 10
364.572085
 20
360.485150
 30
0.0
 10
364.467146
 20
360.841465
 30
0.0
 10
362.298926
 20
362.866989
 30
0.0
  0
LWPOLYLINE
  5
133
100
AcDbEntity
  8
Layer_1
 62
7
100
AcDbPolyline
 90
3
 70
0
 10
338.800422
 20
326.783735
 30
0.0
 10
338.711131
 20
322.140501
 30
0.0
 10
337.710529
 20
327.015496
 30
0.0
  0
SPLINE
  5
134
100
AcDbEntity
  8
Layer_1
 62
7
100
AcDbSpline
 70
8
 71
3
 72
8
 73
4
 74
0
 40
0
 40
0
 40
0
 40
0
 40
1
 40
1
 40
1
 40
1
 10
365.279641
 20
367.861011
 30
0.0
 10
371.040775
 20
370.972715
 30
0.0
 10
370.677005
 20
371.056110
 30
0.0
 10
373.329043
 20
366.015543
 30
0.0
  0
SPLINE
  5
135
100
AcDbEntity
  8
Layer_1
 62
7
100
AcDbSpline
 70
8
 71
3
 72
8
 73
4
 74
0
 40
0
 40
0
 40
0
 40
0
 40
1
 40
1
 40
1
 40
1
 10
373.329043
 20
366.015543
 30
0.0
 10
375.447515
 20
361.989099
 30
0.0
 10
375.827613
 20
357.941254
 30
0.0
 10
374.544369
 20
353.072863
 30
0.0
  0
SPLINE
  5
136
100
AcDbEntity
  8
Layer_1
 62
7
100
AcDbSpline
 70
8
 71
3
 72
8
 73
4
 74
0
 40
0
 40
0
 40
0
 40
0
 40
1
 40
1
 40
1
 40
1
 10
374.544369
 20
353.072863
 30
0.0
 10
373.393814
 20
348.707906
 30
0.0
 10
369.995216
 20
341.396334
 30
0.0
 10
367.835868
 20
338.640548
 30
0.0
  0
SPLINE
  5
137
100
AcDbEntity
  8
Layer_1
 62
7
100
AcDbSpline
 70
8
 71
3
 72
8
 73
4
 74
0
 40
0
 40
0
 40
0
 40
0
 40
1
 40
1
 40
1
 40
1
 10
367.835868
 20
338.640548
 30
0.0
 10
366.732992
 20
337.233033
 30
0.0
 10
366.710655
 20
337.290831
 30
0.0
 10
367.473600
 20
339.578050
 30
0.0
  0
SPLINE
  5
138
100
AcDbEntity
  8
Layer_1
 62
7
100
AcDbSpline
 70
8
 71
3
 72
8
 73
4
 74
0
 40
0
 40
0
 40
0
 40
0
 40
1
 40
1
 40
1
 40
1
 10
367.473600
 20
339.578050
 30
0.0
 10
367.920765
 20
340.918668
 30
0.0
 10
368.658652
 20
342.015534
 30
0.0
 10
369.113272
 20
342.015534
 30
0.0
  0
SPLINE
  5
139
100
AcDbEntity
  8
Layer_1
 62
7
100
AcDbSpline
 70
8
 71
3
 72
8
 73
4
 74
0
 40
0
 40
0
 40
0
 40
0
 40
1
 40
1
 40
1
 40
1
 10
369.113272
 20
342.015534
 30
0.0
 10
369.695225
 20
342.015534
 30
0.0
 10
369.684907
 20
342.270652
 30
0.0
 10
369.078406
 20
342.877039
 30
0.0
  0
SPLINE
  5
13a
100
AcDbEntity
  8
Layer_1
 62
7
100
AcDbSpline
 70
8
 71
3
 72
8
 73
4
 74
0
 40
0
 40
0
 40
0
 40
0
 40
1
 40
1
 40
1
 40
1
 10
369.078406
 20
342.877039
 30
0.0
 10
368.429754
 20
343.525691
 30
0.0
 10
367.744195
 20
343.428775
 30
0.0
 10
366.303430
 20
342.484753
 30
0.0
  0
SPLINE
  5
13b
100
AcDbEntity
  8
Layer_1
 62
7
100
AcDbSpline
 70
8
 71
3
 72
8
 73
4
 74
0
 40
0
 40
0
 40
0
 40
0
 40
1
 40
1
 40
1
 40
1
 10
366.303430
 20
342.484753
 30
0.0
 10
365.250983
 20
341.795169
 30
0.0
 10
364.389902
 20
340.859906
 30
0.0
 10
364.389902
 20
340.406419
 30
0.0
  0
SPLINE
  5
13c
100
AcDbEntity
  8
Layer_1
 62
7
100
AcDbSpline
 70
8
 71
3
 72
8
 73
4
 74
0
 40
0
 40
0
 40
0
 40
0
 40
1
 40
1
 40
1
 40
1
 10
364.389902
 20
340.406419
 30
0.0
 10
364.389902
 20
339.852302
 30
0.0
 10
364.755628
 20
339.885383
 30
0.0
 10
365.505052
 20
340.507332
 30
0.0
  0
SPLINE
  5
13d
100
AcDbEntity
  8
Layer_1
 62
7
100
AcDbSpline
 70
8
 71
3
 72
8
 73
4
 74
0
 40
0
 40
0
 40
0
 40
0
 40
1
 40
1
 40
1
 40
1
 10
365.505052
 20
340.507332
 30
0.0
 10
366.477222
 20
341.314157
 30
0.0
 10
366.514469
 20
341.129509
 30
0.0
 10
365.795518
 20
339.067106
 30
0.0
  0
SPLINE
  5
13e
100
AcDbEntity
  8
Layer_1
 62
7
100
AcDbSpline
 70
8
 71
3
 72
8
 73
4
 74
0
 40
0
 40
0
 40
0
 40
0
 40
1
 40
1
 40
1
 40
1
 10
365.795518
 20
339.067106
 30
0.0
 10
364.677080
 20
335.858740
 30
0.0
 10
358.298362
 20
329.018542
 30
0.0
 10
353.189792
 20
325.549389
 30
0.0
  0
SPLINE
  5
13f
100
AcDbEntity
  8
Layer_1
 62
7
100
AcDbSpline
 70
8
 71
3
 72
8
 73
4
 74
0
 40
0
 40
0
 40
0
 40
0
 40
1
 40
1
 40
1
 40
1
 10
353.189792
 20
325.549389
 30
0.0
 10
348.404655
 20
322.299865
 30
0.0
 10
345.156378
 20
319.347553
 30
0.0
 10
342.924066
 20
316.219096
 30
0.0
  0
LWPOLYLINE
  5
140
100
AcDbEntity
  8
Layer_1
 62
7
100
AcDbPolyline
 90
3
 70
0
 10
362.298926
 20
362.866989
 30
0.0
 10
360.003515
 20
365.011257
 30
0.0
 10
365.279641
 20
367.861011
 30
0.0
  0
SPLINE
  5
141
100
AcDbEntity
  8
Layer_1
 62
7
100
AcDbSpline
 70
8
 71
3
 72
8
 73
4
 74
0
 40
0
 40
0
 40
0
 40
0
 40
1
 40
1
 40
1
 40
1
 10
375.140580
 20
317.587238
 30
0.0
 10
375.366784
 20
318.176702
 30
0.0
 10
375.777950
 20
319.864195
 30
0.0
 10
376.054299
 20
321.337247
 30
0.0
  0
SPLINE
  5
142
100
AcDbEntity
  8
Layer_1
 62
7
100
AcDbSpline
 70
8
 71
3
 72
8
 73
4
 74
0
 40
0
 40
0
 40
0
 40
0
 40
1
 40
1
 40
1
 40
1
 10
376.054299
 20
321.337247
 30
0.0
 10
376.693285
 20
324.743301
 30
0.0
 10
377.868076
 20
324.717477
 30
0.0
 10
380.930060
 20
321.230098
 30
0.0
  0
LWPOLYLINE
  5
143
100
AcDbEntity
  8
Layer_1
 62
7
100
AcDbPolyline
 90
3
 70
0
 10
342.924066
 20
316.219096
 30
0.0
 10
341.374649
 20
314.047672
 30
0.0
 10
340.888706
 20
318.094072
 30
0.0
  0
SPLINE
  5
144
100
AcDbEntity
  8
Layer_1
 62
7
100
AcDbSpline
 70
8
 71
3
 72
8
 73
4
 74
0
 40
0
 40
0
 40
0
 40
0
 40
1
 40
1
 40
1
 40
1
 10
381.195269
 20
317.513906
 30
0.0
 10
378.077074
 20
316.182898
 30
0.0
 10
374.617757
 20
316.224794
 30
0.0
 10
375.140580
 20
317.587323
 30
0.0
  0
LWPOLYLINE
  5
145
100
AcDbEntity
  8
Layer_1
 62
7
100
AcDbPolyline
 90
3
 70
0
 10
380.930060
 20
321.230098
 30
0.0
 10
383.375707
 20
318.444661
 30
0.0
 10
381.195269
 20
317.513906
 30
0.0
  0
SPLINE
  5
146
100
AcDbEntity
  8
Layer_1
 62
7
100
AcDbSpline
 70
8
 71
3
 72
8
 73
4
 74
0
 40
0
 40
0
 40
0
 40
0
 40
1
 40
1
 40
1
 40
1
 10
383.889798
 20
317.895109
 30
0.0
 10
383.889798
 20
318.241389
 30
0.0
 10
384.811427
 20
318.944636
 30
0.0
 10
385.937858
 20
319.457877
 30
0.0
  0
SPLINE
  5
147
100
AcDbEntity
  8
Layer_1
 62
7
100
AcDbSpline
 70
8
 71
3
 72
8
 73
4
 74
0
 40
0
 40
0
 40
0
 40
0
 40
1
 40
1
 40
1
 40
1
 10
385.937858
 20
319.457877
 30
0.0
 10
387.980731
 20
320.388661
 30
0.0
 10
387.982346
 20
320.387102
 30
0.0
 10
386.571600
 20
318.828246
 30
0.0
  0
SPLINE
  5
148
100
AcDbEntity
  8
Layer_1
 62
7
100
AcDbSpline
 70
8
 71
3
 72
8
 73
4
 74
0
 40
0
 40
0
 40
0
 40
0
 40
1
 40
1
 40
1
 40
1
 10
386.571600
 20
318.828246
 30
0.0
 10
385.112721
 20
317.216211
 30
0.0
 10
383.889798
 20
316.790702
 30
0.0
 10
383.889798
 20
317.895109
 30
0.0
  0
LWPOLYLINE
  5
149
100
AcDbEntity
  8
Layer_1
 62
7
100
AcDbPolyline
 90
1
 70
1
 10
375.140580
 20
317.587323
 30
0.0
  0
SPLINE
  5
14a
100
AcDbEntity
  8
Layer_1
 62
7
100
AcDbSpline
 70
8
 71
3
 72
8
 73
4
 74
0
 40
0
 40
0
 40
0
 40
0
 40
1
 40
1
 40
1
 40
1
 10
414.417061
 20
320.455191
 30
0.0
 10
413.122620
 20
322.858800
 30
0.0
 10
413.293890
 20
327.765487
 30
0.0
 10
414.672180
 20
327.765487
 30
0.0
  0
SPLINE
  5
14b
100
AcDbEntity
  8
Layer_1
 62
7
100
AcDbSpline
 70
8
 71
3
 72
8
 73
4
 74
0
 40
0
 40
0
 40
0
 40
0
 40
1
 40
1
 40
1
 40
1
 10
414.672180
 20
327.765487
 30
0.0
 10
414.999383
 20
327.765487
 30
0.0
 10
415.789852
 20
327.966180
 30
0.0
 10
416.428781
 20
328.211291
 30
0.0
  0
SPLINE
  5
14c
100
AcDbEntity
  8
Layer_1
 62
7
100
AcDbSpline
 70
8
 71
3
 72
8
 73
4
 74
0
 40
0
 40
0
 40
0
 40
0
 40
1
 40
1
 40
1
 40
1
 10
416.428781
 20
328.211291
 30
0.0
 10
417.265795
 20
328.532485
 30
0.0
 10
418.068283
 20
327.673559
 30
0.0
 10
419.300079
 20
325.138167
 30
0.0
  0
LWPOLYLINE
  5
14d
100
AcDbEntity
  8
Layer_1
 62
7
100
AcDbPolyline
 90
1
 70
1
 10
383.889798
 20
317.895109
 30
0.0
  0
SPLINE
  5
14e
100
AcDbEntity
  8
Layer_1
 62
7
100
AcDbSpline
 70
8
 71
3
 72
8
 73
4
 74
0
 40
0
 40
0
 40
0
 40
0
 40
1
 40
1
 40
1
 40
1
 10
418.762233
 20
319.821109
 30
0.0
 10
417.526129
 20
318.832129
 30
0.0
 10
416.338384
 20
318.021279
 30
0.0
 10
416.122809
 20
318.019209
 30
0.0
  0
SPLINE
  5
14f
100
AcDbEntity
  8
Layer_1
 62
7
100
AcDbSpline
 70
8
 71
3
 72
8
 73
4
 74
0
 40
0
 40
0
 40
0
 40
0
 40
1
 40
1
 40
1
 40
1
 10
416.122809
 20
318.019209
 30
0.0
 10
415.907376
 20
318.016970
 30
0.0
 10
415.139641
 20
319.113354
 30
0.0
 10
414.417005
 20
320.455191
 30
0.0
  0
LWPOLYLINE
  5
150
100
AcDbEntity
  8
Layer_1
 62
7
100
AcDbPolyline
 90
3
 70
0
 10
419.300079
 20
325.138167
 30
0.0
 10
421.009710
 20
321.619266
 30
0.0
 10
418.762233
 20
319.821109
 30
0.0
  0
SPLINE
  5
151
100
AcDbEntity
  8
Layer_1
 62
7
100
AcDbSpline
 70
8
 71
3
 72
8
 73
4
 74
0
 40
0
 40
0
 40
0
 40
0
 40
1
 40
1
 40
1
 40
1
 10
351.264813
 20
322.339493
 30
0.0
 10
351.677310
 20
322.767439
 30
0.0
 10
354.174293
 20
324.471487
 30
0.0
 10
356.813688
 20
326.126296
 30
0.0
  0
SPLINE
  5
152
100
AcDbEntity
  8
Layer_1
 62
7
100
AcDbSpline
 70
8
 71
3
 72
8
 73
4
 74
0
 40
0
 40
0
 40
0
 40
0
 40
1
 40
1
 40
1
 40
1
 10
356.813688
 20
326.126296
 30
0.0
 10
361.558772
 20
329.101313
 30
0.0
 10
361.640523
 20
329.121666
 30
0.0
 10
364.109357
 20
327.944353
 30
0.0
  0
SPLINE
  5
153
100
AcDbEntity
  8
Layer_1
 62
7
100
AcDbSpline
 70
8
 71
3
 72
8
 73
4
 74
0
 40
0
 40
0
 40
0
 40
0
 40
1
 40
1
 40
1
 40
1
 10
364.109357
 20
327.944353
 30
0.0
 10
366.058800
 20
327.014731
 30
0.0
 10
366.423959
 20
326.534088
 30
0.0
 10
365.774882
 20
325.752038
 30
0.0
  0
SPLINE
  5
154
100
AcDbEntity
  8
Layer_1
 62
7
100
AcDbSpline
 70
8
 71
3
 72
8
 73
4
 74
0
 40
0
 40
0
 40
0
 40
0
 40
1
 40
1
 40
1
 40
1
 10
365.774882
 20
325.752038
 30
0.0
 10
364.907225
 20
324.706564
 30
0.0
 10
358.359931
 20
322.692321
 30
0.0
 10
355.764813
 20
322.672507
 30
0.0
  0
SPLINE
  5
155
100
AcDbEntity
  8
Layer_1
 62
7
100
AcDbSpline
 70
8
 71
3
 72
8
 73
4
 74
0
 40
0
 40
0
 40
0
 40
0
 40
1
 40
1
 40
1
 40
1
 10
355.764813
 20
322.672507
 30
0.0
 10
354.939817
 20
322.666838
 30
0.0
 10
353.421071
 20
322.413704
 30
0.0
 10
352.389827
 20
322.111247
 30
0.0
  0
SPLINE
  5
156
100
AcDbEntity
  8
Layer_1
 62
7
100
AcDbSpline
 70
8
 71
3
 72
8
 73
4
 74
0
 40
0
 40
0
 40
0
 40
0
 40
1
 40
1
 40
1
 40
1
 10
352.389827
 20
322.111247
 30
0.0
 10
351.102104
 20
321.733644
 30
0.0
 10
350.749729
 20
321.805134
 30
0.0
 10
351.264813
 20
322.339436
 30
0.0
  0
LWPOLYLINE
  5
157
100
AcDbEntity
  8
Layer_1
 62
7
100
AcDbPolyline
 90
1
 70
1
 10
414.417005
 20
320.455191
 30
0.0
  0
SPLINE
  5
158
100
AcDbEntity
  8
Layer_1
 62
7
100
AcDbSpline
 70
8
 71
3
 72
8
 73
4
 74
0
 40
0
 40
0
 40
0
 40
0
 40
1
 40
1
 40
1
 40
1
 10
325.344444
 20
327.952998
 30
0.0
 10
321.838753
 20
330.990350
 30
0.0
 10
320.019789
 20
333.705798
 30
0.0
 10
320.492721
 20
335.195915
 30
0.0
  0
SPLINE
  5
159
100
AcDbEntity
  8
Layer_1
 62
7
100
AcDbSpline
 70
8
 71
3
 72
8
 73
4
 74
0
 40
0
 40
0
 40
0
 40
0
 40
1
 40
1
 40
1
 40
1
 10
320.492721
 20
335.195915
 30
0.0
 10
321.326192
 20
337.821902
 30
0.0
 10
323.620611
 20
338.564154
 30
0.0
 10
326.573320
 20
337.163017
 30
0.0
  0
SPLINE
  5
15a
100
AcDbEntity
  8
Layer_1
 62
7
100
AcDbSpline
 70
8
 71
3
 72
8
 73
4
 74
0
 40
0
 40
0
 40
0
 40
0
 40
1
 40
1
 40
1
 40
1
 10
326.573320
 20
337.163017
 30
0.0
 10
329.168183
 20
335.931647
 30
0.0
 10
329.633518
 20
334.955424
 30
0.0
 10
328.487329
 20
333.147572
 30
0.0
  0
SPLINE
  5
15b
100
AcDbEntity
  8
Layer_1
 62
7
100
AcDbSpline
 70
8
 71
3
 72
8
 73
4
 74
0
 40
0
 40
0
 40
0
 40
0
 40
1
 40
1
 40
1
 40
1
 10
328.487329
 20
333.147572
 30
0.0
 10
327.972586
 20
332.335701
 30
0.0
 10
327.654964
 20
332.357499
 30
0.0
 10
326.745439
 20
333.266910
 30
0.0
  0
SPLINE
  5
15c
100
AcDbEntity
  8
Layer_1
 62
7
100
AcDbSpline
 70
8
 71
3
 72
8
 73
4
 74
0
 40
0
 40
0
 40
0
 40
0
 40
1
 40
1
 40
1
 40
1
 10
326.745439
 20
333.266910
 30
0.0
 10
326.017786
 20
333.994564
 30
0.0
 10
325.266775
 20
334.147380
 30
0.0
 10
324.573959
 20
333.708803
 30
0.0
  0
SPLINE
  5
15d
100
AcDbEntity
  8
Layer_1
 62
7
100
AcDbSpline
 70
8
 71
3
 72
8
 73
4
 74
0
 40
0
 40
0
 40
0
 40
0
 40
1
 40
1
 40
1
 40
1
 10
324.573959
 20
333.708803
 30
0.0
 10
323.694510
 20
333.152107
 30
0.0
 10
323.717754
 20
333.036425
 30
0.0
 10
324.711156
 20
333.026872
 30
0.0
  0
SPLINE
  5
15e
100
AcDbEntity
  8
Layer_1
 62
7
100
AcDbSpline
 70
8
 71
3
 72
8
 73
4
 74
0
 40
0
 40
0
 40
0
 40
0
 40
1
 40
1
 40
1
 40
1
 10
324.711156
 20
333.026872
 30
0.0
 10
326.368346
 20
333.009865
 30
0.0
 10
328.389874
 20
330.602400
 30
0.0
 10
328.389874
 20
328.643830
 30
0.0
  0
SPLINE
  5
15f
100
AcDbEntity
  8
Layer_1
 62
7
100
AcDbSpline
 70
8
 71
3
 72
8
 73
4
 74
0
 40
0
 40
0
 40
0
 40
0
 40
1
 40
1
 40
1
 40
1
 10
328.389874
 20
328.643830
 30
0.0
 10
328.389874
 20
326.834135
 30
0.0
 10
326.999820
 20
326.518753
 30
0.0
 10
325.344529
 20
327.952885
 30
0.0
  0
LWPOLYLINE
  5
160
100
AcDbEntity
  8
Layer_1
 62
7
100
AcDbPolyline
 90
1
 70
1
 10
351.264813
 20
322.339436
 30
0.0
  0
SPLINE
  5
161
100
AcDbEntity
  8
Layer_1
 62
7
100
AcDbSpline
 70
8
 71
3
 72
8
 73
4
 74
0
 40
0
 40
0
 40
0
 40
0
 40
1
 40
1
 40
1
 40
1
 10
326.889808
 20
335.640501
 30
0.0
 10
326.889808
 20
335.846863
 30
0.0
 10
326.721146
 20
336.015496
 30
0.0
 10
326.514813
 20
336.015496
 30
0.0
  0
SPLINE
  5
162
100
AcDbEntity
  8
Layer_1
 62
7
100
AcDbSpline
 70
8
 71
3
 72
8
 73
4
 74
0
 40
0
 40
0
 40
0
 40
0
 40
1
 40
1
 40
1
 40
1
 10
326.514813
 20
336.015496
 30
0.0
 10
326.308450
 20
336.015496
 30
0.0
 10
326.139817
 20
335.846835
 30
0.0
 10
326.139817
 20
335.640501
 30
0.0
  0
SPLINE
  5
163
100
AcDbEntity
  8
Layer_1
 62
7
100
AcDbSpline
 70
8
 71
3
 72
8
 73
4
 74
0
 40
0
 40
0
 40
0
 40
0
 40
1
 40
1
 40
1
 40
1
 10
326.139817
 20
335.640501
 30
0.0
 10
326.139817
 20
335.434139
 30
0.0
 10
326.308479
 20
335.265506
 30
0.0
 10
326.514813
 20
335.265506
 30
0.0
  0
SPLINE
  5
164
100
AcDbEntity
  8
Layer_1
 62
7
100
AcDbSpline
 70
8
 71
3
 72
8
 73
4
 74
0
 40
0
 40
0
 40
0
 40
0
 40
1
 40
1
 40
1
 40
1
 10
326.514813
 20
335.265506
 30
0.0
 10
326.721175
 20
335.265506
 30
0.0
 10
326.889808
 20
335.434167
 30
0.0
 10
326.889808
 20
335.640501
 30
0.0
  0
LWPOLYLINE
  5
165
100
AcDbEntity
  8
Layer_1
 62
7
100
AcDbPolyline
 90
2
 70
0
 10
325.344529
 20
327.952885
 30
0.0
 10
325.344444
 20
327.952998
 30
0.0
  0
SPLINE
  5
166
100
AcDbEntity
  8
Layer_1
 62
7
100
AcDbSpline
 70
8
 71
3
 72
8
 73
4
 74
0
 40
0
 40
0
 40
0
 40
0
 40
1
 40
1
 40
1
 40
1
 10
365.702315
 20
328.259367
 30
0.0
 10
364.155420
 20
328.900961
 30
0.0
 10
362.889808
 20
329.700359
 30
0.0
 10
362.889808
 20
330.035811
 30
0.0
  0
SPLINE
  5
167
100
AcDbEntity
  8
Layer_1
 62
7
100
AcDbSpline
 70
8
 71
3
 72
8
 73
4
 74
0
 40
0
 40
0
 40
0
 40
0
 40
1
 40
1
 40
1
 40
1
 10
362.889808
 20
330.035811
 30
0.0
 10
362.889808
 20
330.675619
 30
0.0
 10
371.967506
 20
339.006274
 30
0.0
 10
372.671036
 20
339.012113
 30
0.0
  0
SPLINE
  5
168
100
AcDbEntity
  8
Layer_1
 62
7
100
AcDbSpline
 70
8
 71
3
 72
8
 73
4
 74
0
 40
0
 40
0
 40
0
 40
0
 40
1
 40
1
 40
1
 40
1
 10
372.671036
 20
339.012113
 30
0.0
 10
372.894406
 20
339.014013
 30
0.0
 10
373.624271
 20
337.808693
 30
0.0
 10
374.292822
 20
336.333742
 30
0.0
  0
SPLINE
  5
169
100
AcDbEntity
  8
Layer_1
 62
7
100
AcDbSpline
 70
8
 71
3
 72
8
 73
4
 74
0
 40
0
 40
0
 40
0
 40
0
 40
1
 40
1
 40
1
 40
1
 10
374.292822
 20
336.333742
 30
0.0
 10
375.472857
 20
333.730290
 30
0.0
 10
375.467641
 20
333.688819
 30
0.0
 10
374.114239
 20
334.913499
 30
0.0
  0
SPLINE
  5
16a
100
AcDbEntity
  8
Layer_1
 62
7
100
AcDbSpline
 70
8
 71
3
 72
8
 73
4
 74
0
 40
0
 40
0
 40
0
 40
0
 40
1
 40
1
 40
1
 40
1
 10
374.114239
 20
334.913499
 30
0.0
 10
372.802876
 20
336.100280
 30
0.0
 10
372.584551
 20
336.078397
 30
0.0
 10
370.429965
 20
334.544202
 30
0.0
  0
SPLINE
  5
16b
100
AcDbEntity
  8
Layer_1
 62
7
100
AcDbSpline
 70
8
 71
3
 72
8
 73
4
 74
0
 40
0
 40
0
 40
0
 40
0
 40
1
 40
1
 40
1
 40
1
 10
370.429965
 20
334.544202
 30
0.0
 10
367.847830
 20
332.705537
 30
0.0
 10
367.658844
 20
332.098186
 30
0.0
 10
369.256394
 20
330.772337
 30
0.0
  0
SPLINE
  5
16c
100
AcDbEntity
  8
Layer_1
 62
7
100
AcDbSpline
 70
8
 71
3
 72
8
 73
4
 74
0
 40
0
 40
0
 40
0
 40
0
 40
1
 40
1
 40
1
 40
1
 10
369.256394
 20
330.772337
 30
0.0
 10
369.870605
 20
330.262611
 30
0.0
 10
370.172523
 20
329.520898
 30
0.0
 10
369.927298
 20
329.124104
 30
0.0
  0
SPLINE
  5
16d
100
AcDbEntity
  8
Layer_1
 62
7
100
AcDbSpline
 70
8
 71
3
 72
8
 73
4
 74
0
 40
0
 40
0
 40
0
 40
0
 40
1
 40
1
 40
1
 40
1
 10
369.927298
 20
329.124104
 30
0.0
 10
369.682101
 20
328.727197
 30
0.0
 10
368.673619
 20
329.161521
 30
0.0
 10
367.685546
 20
330.089811
 30
0.0
  0
SPLINE
  5
16e
100
AcDbEntity
  8
Layer_1
 62
7
100
AcDbSpline
 70
8
 71
3
 72
8
 73
4
 74
0
 40
0
 40
0
 40
0
 40
0
 40
1
 40
1
 40
1
 40
1
 10
367.685546
 20
330.089811
 30
0.0
 10
366.697814
 20
331.017761
 30
0.0
 10
365.889657
 20
331.432951
 30
0.0
 10
365.889657
 20
331.012460
 30
0.0
  0
SPLINE
  5
16f
100
AcDbEntity
  8
Layer_1
 62
7
100
AcDbSpline
 70
8
 71
3
 72
8
 73
4
 74
0
 40
0
 40
0
 40
0
 40
0
 40
1
 40
1
 40
1
 40
1
 10
365.889657
 20
331.012460
 30
0.0
 10
365.889657
 20
330.591997
 30
0.0
 10
366.532328
 20
329.666372
 30
0.0
 10
367.317808
 20
328.955499
 30
0.0
  0
SPLINE
  5
170
100
AcDbEntity
  8
Layer_1
 62
7
100
AcDbSpline
 70
8
 71
3
 72
8
 73
4
 74
0
 40
0
 40
0
 40
0
 40
0
 40
1
 40
1
 40
1
 40
1
 10
367.317808
 20
328.955499
 30
0.0
 10
368.533446
 20
327.855373
 30
0.0
 10
368.979874
 20
327.809112
 30
0.0
 10
370.317827
 20
328.644680
 30
0.0
  0
SPLINE
  5
171
100
AcDbEntity
  8
Layer_1
 62
7
100
AcDbSpline
 70
8
 71
3
 72
8
 73
4
 74
0
 40
0
 40
0
 40
0
 40
0
 40
1
 40
1
 40
1
 40
1
 10
370.317827
 20
328.644680
 30
0.0
 10
371.182337
 20
329.184567
 30
0.0
 10
371.889666
 20
329.902554
 30
0.0
 10
371.889666
 20
330.240161
 30
0.0
  0
SPLINE
  5
172
100
AcDbEntity
  8
Layer_1
 62
7
100
AcDbSpline
 70
8
 71
3
 72
8
 73
4
 74
0
 40
0
 40
0
 40
0
 40
0
 40
1
 40
1
 40
1
 40
1
 10
371.889666
 20
330.240161
 30
0.0
 10
371.889666
 20
330.577795
 30
0.0
 10
371.494800
 20
330.609997
 30
0.0
 10
371.012202
 20
330.311594
 30
0.0
  0
SPLINE
  5
173
100
AcDbEntity
  8
Layer_1
 62
7
100
AcDbSpline
 70
8
 71
3
 72
8
 73
4
 74
0
 40
0
 40
0
 40
0
 40
0
 40
1
 40
1
 40
1
 40
1
 10
371.012202
 20
330.311594
 30
0.0
 10
370.416898
 20
329.943685
 30
0.0
 10
370.293562
 20
330.183184
 30
0.0
 10
370.628617
 20
331.056283
 30
0.0
  0
SPLINE
  5
174
100
AcDbEntity
  8
Layer_1
 62
7
100
AcDbSpline
 70
8
 71
3
 72
8
 73
4
 74
0
 40
0
 40
0
 40
0
 40
0
 40
1
 40
1
 40
1
 40
1
 10
370.628617
 20
331.056283
 30
0.0
 10
370.921975
 20
331.820759
 30
0.0
 10
370.821373
 20
332.157231
 30
0.0
 10
370.381153
 20
331.885049
 30
0.0
  0
SPLINE
  5
175
100
AcDbEntity
  8
Layer_1
 62
7
100
AcDbSpline
 70
8
 71
3
 72
8
 73
4
 74
0
 40
0
 40
0
 40
0
 40
0
 40
1
 40
1
 40
1
 40
1
 10
370.381153
 20
331.885049
 30
0.0
 10
369.973389
 20
331.633049
 30
0.0
 10
369.639751
 20
331.953080
 30
0.0
 10
369.639751
 20
332.596091
 30
0.0
  0
SPLINE
  5
176
100
AcDbEntity
  8
Layer_1
 62
7
100
AcDbSpline
 70
8
 71
3
 72
8
 73
4
 74
0
 40
0
 40
0
 40
0
 40
0
 40
1
 40
1
 40
1
 40
1
 10
369.639751
 20
332.596091
 30
0.0
 10
369.639751
 20
334.272387
 30
0.0
 10
370.851420
 20
334.037622
 30
0.0
 10
372.314494
 20
332.077861
 30
0.0
  0
SPLINE
  5
177
100
AcDbEntity
  8
Layer_1
 62
7
100
AcDbSpline
 70
8
 71
3
 72
8
 73
4
 74
0
 40
0
 40
0
 40
0
 40
0
 40
1
 40
1
 40
1
 40
1
 10
372.314494
 20
332.077861
 30
0.0
 10
373.540734
 20
330.435354
 30
0.0
 10
373.522649
 20
330.674769
 30
0.0
 10
372.144699
 20
334.327861
 30
0.0
  0
SPLINE
  5
178
100
AcDbEntity
  8
Layer_1
 62
7
100
AcDbSpline
 70
8
 71
3
 72
8
 73
4
 74
0
 40
0
 40
0
 40
0
 40
0
 40
1
 40
1
 40
1
 40
1
 10
372.144699
 20
334.327861
 30
0.0
 10
371.770809
 20
335.319052
 30
0.0
 10
372.133361
 20
335.199742
 30
0.0
 10
373.625121
 20
333.840529
 30
0.0
  0
SPLINE
  5
179
100
AcDbEntity
  8
Layer_1
 62
7
100
AcDbSpline
 70
8
 71
3
 72
8
 73
4
 74
0
 40
0
 40
0
 40
0
 40
0
 40
1
 40
1
 40
1
 40
1
 10
373.625121
 20
333.840529
 30
0.0
 10
375.365735
 20
332.254687
 30
0.0
 10
375.657562
 20
332.188951
 30
0.0
 10
376.079131
 20
333.287575
 30
0.0
  0
SPLINE
  5
17a
100
AcDbEntity
  8
Layer_1
 62
7
100
AcDbSpline
 70
8
 71
3
 72
8
 73
4
 74
0
 40
0
 40
0
 40
0
 40
0
 40
1
 40
1
 40
1
 40
1
 10
376.079131
 20
333.287575
 30
0.0
 10
376.342186
 20
333.973361
 30
0.0
 10
376.167855
 20
335.004236
 30
0.0
 10
375.691209
 20
335.578422
 30
0.0
  0
SPLINE
  5
17b
100
AcDbEntity
  8
Layer_1
 62
7
100
AcDbSpline
 70
8
 71
3
 72
8
 73
4
 74
0
 40
0
 40
0
 40
0
 40
0
 40
1
 40
1
 40
1
 40
1
 10
375.691209
 20
335.578422
 30
0.0
 10
374.958935
 20
336.460762
 30
0.0
 10
375.296287
 20
336.502687
 30
0.0
 10
377.870627
 20
335.849414
 30
0.0
  0
SPLINE
  5
17c
100
AcDbEntity
  8
Layer_1
 62
7
100
AcDbSpline
 70
8
 71
3
 72
8
 73
4
 74
0
 40
0
 40
0
 40
0
 40
0
 40
1
 40
1
 40
1
 40
1
 10
377.870627
 20
335.849414
 30
0.0
 10
381.421247
 20
334.948167
 30
0.0
 10
381.300038
 20
334.671676
 30
0.0
 10
375.338154
 20
330.072123
 30
0.0
  0
SPLINE
  5
17d
100
AcDbEntity
  8
Layer_1
 62
7
100
AcDbSpline
 70
8
 71
3
 72
8
 73
4
 74
0
 40
0
 40
0
 40
0
 40
0
 40
1
 40
1
 40
1
 40
1
 10
375.338154
 20
330.072123
 30
0.0
 10
371.003386
 20
326.727865
 30
0.0
 10
369.896627
 20
326.519660
 30
0.0
 10
365.702287
 20
328.259395
 30
0.0
  0
LWPOLYLINE
  5
17e
100
AcDbEntity
  8
Layer_1
 62
7
100
AcDbPolyline
 90
1
 70
1
 10
326.889808
 20
335.640501
 30
0.0
  0
SPLINE
  5
17f
100
AcDbEntity
  8
Layer_1
 62
7
100
AcDbSpline
 70
8
 71
3
 72
8
 73
4
 74
0
 40
0
 40
0
 40
0
 40
0
 40
1
 40
1
 40
1
 40
1
 10
407.139817
 20
329.640491
 30
0.0
 10
407.139817
 20
329.846854
 30
0.0
 10
407.308479
 20
330.015487
 30
0.0
 10
407.514813
 20
330.015487
 30
0.0
  0
SPLINE
  5
180
100
AcDbEntity
  8
Layer_1
 62
7
100
AcDbSpline
 70
8
 71
3
 72
8
 73
4
 74
0
 40
0
 40
0
 40
0
 40
0
 40
1
 40
1
 40
1
 40
1
 10
407.514813
 20
330.015487
 30
0.0
 10
407.721175
 20
330.015487
 30
0.0
 10
407.889808
 20
329.846825
 30
0.0
 10
407.889808
 20
329.640491
 30
0.0
  0
SPLINE
  5
181
100
AcDbEntity
  8
Layer_1
 62
7
100
AcDbSpline
 70
8
 71
3
 72
8
 73
4
 74
0
 40
0
 40
0
 40
0
 40
0
 40
1
 40
1
 40
1
 40
1
 10
407.889808
 20
329.640491
 30
0.0
 10
407.889808
 20
329.434129
 30
0.0
 10
407.721146
 20
329.265496
 30
0.0
 10
407.514813
 20
329.265496
 30
0.0
  0
SPLINE
  5
182
100
AcDbEntity
  8
Layer_1
 62
7
100
AcDbSpline
 70
8
 71
3
 72
8
 73
4
 74
0
 40
0
 40
0
 40
0
 40
0
 40
1
 40
1
 40
1
 40
1
 10
407.514813
 20
329.265496
 30
0.0
 10
407.308450
 20
329.265496
 30
0.0
 10
407.139817
 20
329.434157
 30
0.0
 10
407.139817
 20
329.640491
 30
0.0
  0
LWPOLYLINE
  5
183
100
AcDbEntity
  8
Layer_1
 62
7
100
AcDbPolyline
 90
1
 70
1
 10
365.702287
 20
328.259395
 30
0.0
  0
SPLINE
  5
184
100
AcDbEntity
  8
Layer_1
 62
7
100
AcDbSpline
 70
8
 71
3
 72
8
 73
4
 74
0
 40
0
 40
0
 40
0
 40
0
 40
1
 40
1
 40
1
 40
1
 10
402.639817
 20
331.140501
 30
0.0
 10
402.639817
 20
331.346863
 30
0.0
 10
402.808479
 20
331.515496
 30
0.0
 10
403.014813
 20
331.515496
 30
0.0
  0
SPLINE
  5
185
100
AcDbEntity
  8
Layer_1
 62
7
100
AcDbSpline
 70
8
 71
3
 72
8
 73
4
 74
0
 40
0
 40
0
 40
0
 40
0
 40
1
 40
1
 40
1
 40
1
 10
403.014813
 20
331.515496
 30
0.0
 10
403.221175
 20
331.515496
 30
0.0
 10
403.389808
 20
331.346835
 30
0.0
 10
403.389808
 20
331.140501
 30
0.0
  0
SPLINE
  5
186
100
AcDbEntity
  8
Layer_1
 62
7
100
AcDbSpline
 70
8
 71
3
 72
8
 73
4
 74
0
 40
0
 40
0
 40
0
 40
0
 40
1
 40
1
 40
1
 40
1
 10
403.389808
 20
331.140501
 30
0.0
 10
403.389808
 20
330.934139
 30
0.0
 10
403.221146
 20
330.765506
 30
0.0
 10
403.014813
 20
330.765506
 30
0.0
  0
SPLINE
  5
187
100
AcDbEntity
  8
Layer_1
 62
7
100
AcDbSpline
 70
8
 71
3
 72
8
 73
4
 74
0
 40
0
 40
0
 40
0
 40
0
 40
1
 40
1
 40
1
 40
1
 10
403.014813
 20
330.765506
 30
0.0
 10
402.808450
 20
330.765506
 30
0.0
 10
402.639817
 20
330.934167
 30
0.0
 10
402.639817
 20
331.140501
 30
0.0
  0
LWPOLYLINE
  5
188
100
AcDbEntity
  8
Layer_1
 62
7
100
AcDbPolyline
 90
1
 70
1
 10
407.139817
 20
329.640491
 30
0.0
  0
SPLINE
  5
189
100
AcDbEntity
  8
Layer_1
 62
7
100
AcDbSpline
 70
8
 71
3
 72
8
 73
4
 74
0
 40
0
 40
0
 40
0
 40
0
 40
1
 40
1
 40
1
 40
1
 10
398.139817
 20
332.640482
 30
0.0
 10
398.139817
 20
332.846844
 30
0.0
 10
398.308479
 20
333.015506
 30
0.0
 10
398.514813
 20
333.015506
 30
0.0
  0
SPLINE
  5
18a
100
AcDbEntity
  8
Layer_1
 62
7
100
AcDbSpline
 70
8
 71
3
 72
8
 73
4
 74
0
 40
0
 40
0
 40
0
 40
0
 40
1
 40
1
 40
1
 40
1
 10
398.514813
 20
333.015506
 30
0.0
 10
398.721175
 20
333.015506
 30
0.0
 10
398.889808
 20
332.846844
 30
0.0
 10
398.889808
 20
332.640482
 30
0.0
  0
SPLINE
  5
18b
100
AcDbEntity
  8
Layer_1
 62
7
100
AcDbSpline
 70
8
 71
3
 72
8
 73
4
 74
0
 40
0
 40
0
 40
0
 40
0
 40
1
 40
1
 40
1
 40
1
 10
398.889808
 20
332.640482
 30
0.0
 10
398.889808
 20
332.434120
 30
0.0
 10
398.721146
 20
332.265487
 30
0.0
 10
398.514813
 20
332.265487
 30
0.0
  0
SPLINE
  5
18c
100
AcDbEntity
  8
Layer_1
 62
7
100
AcDbSpline
 70
8
 71
3
 72
8
 73
4
 74
0
 40
0
 40
0
 40
0
 40
0
 40
1
 40
1
 40
1
 40
1
 10
398.514813
 20
332.265487
 30
0.0
 10
398.308450
 20
332.265487
 30
0.0
 10
398.139817
 20
332.434148
 30
0.0
 10
398.139817
 20
332.640482
 30
0.0
  0
LWPOLYLINE
  5
18d
100
AcDbEntity
  8
Layer_1
 62
7
100
AcDbPolyline
 90
1
 70
1
 10
402.639817
 20
331.140501
 30
0.0
  0
SPLINE
  5
18e
100
AcDbEntity
  8
Layer_1
 62
7
100
AcDbSpline
 70
8
 71
3
 72
8
 73
4
 74
0
 40
0
 40
0
 40
0
 40
0
 40
1
 40
1
 40
1
 40
1
 10
396.824428
 20
336.177043
 30
0.0
 10
394.931820
 20
338.069622
 30
0.0
 10
394.216724
 20
338.392431
 30
0.0
 10
393.501345
 20
337.677024
 30
0.0
  0
SPLINE
  5
18f
100
AcDbEntity
  8
Layer_1
 62
7
100
AcDbSpline
 70
8
 71
3
 72
8
 73
4
 74
0
 40
0
 40
0
 40
0
 40
0
 40
1
 40
1
 40
1
 40
1
 10
393.501345
 20
337.677024
 30
0.0
 10
392.400850
 20
336.576529
 30
0.0
 10
388.929430
 20
336.500334
 30
0.0
 10
385.443241
 20
337.500142
 30
0.0
  0
SPLINE
  5
190
100
AcDbEntity
  8
Layer_1
 62
7
100
AcDbSpline
 70
8
 71
3
 72
8
 73
4
 74
0
 40
0
 40
0
 40
0
 40
0
 40
1
 40
1
 40
1
 40
1
 10
385.443241
 20
337.500142
 30
0.0
 10
383.649250
 20
338.014658
 30
0.0
 10
382.575997
 20
337.981238
 30
0.0
 10
381.861893
 20
337.388457
 30
0.0
  0
SPLINE
  5
191
100
AcDbEntity
  8
Layer_1
 62
7
100
AcDbSpline
 70
8
 71
3
 72
8
 73
4
 74
0
 40
0
 40
0
 40
0
 40
0
 40
1
 40
1
 40
1
 40
1
 10
381.861893
 20
337.388457
 30
0.0
 10
380.461720
 20
336.226422
 30
0.0
 10
375.168926
 20
337.842454
 30
0.0
 10
374.152054
 20
339.742517
 30
0.0
  0
SPLINE
  5
192
100
AcDbEntity
  8
Layer_1
 62
7
100
AcDbSpline
 70
8
 71
3
 72
8
 73
4
 74
0
 40
0
 40
0
 40
0
 40
0
 40
1
 40
1
 40
1
 40
1
 10
374.152054
 20
339.742517
 30
0.0
 10
372.843524
 20
342.187512
 30
0.0
 10
373.251146
 20
344.887852
 30
0.0
 10
375.077310
 20
345.872098
 30
0.0
  0
SPLINE
  5
193
100
AcDbEntity
  8
Layer_1
 62
7
100
AcDbSpline
 70
8
 71
3
 72
8
 73
4
 74
0
 40
0
 40
0
 40
0
 40
0
 40
1
 40
1
 40
1
 40
1
 10
375.077310
 20
345.872098
 30
0.0
 10
376.452028
 20
346.613046
 30
0.0
 10
382.047052
 20
347.211978
 30
0.0
 10
389.889808
 20
347.457742
 30
0.0
  0
SPLINE
  5
194
100
AcDbEntity
  8
Layer_1
 62
7
100
AcDbSpline
 70
8
 71
3
 72
8
 73
4
 74
0
 40
0
 40
0
 40
0
 40
0
 40
1
 40
1
 40
1
 40
1
 10
389.889808
 20
347.457742
 30
0.0
 10
393.082838
 20
347.557805
 30
0.0
 10
403.178797
 20
345.584721
 30
0.0
 10
404.753613
 20
344.552882
 30
0.0
  0
LWPOLYLINE
  5
195
100
AcDbEntity
  8
Layer_1
 62
7
100
AcDbPolyline
 90
1
 70
1
 10
398.139817
 20
332.640482
 30
0.0
  0
SPLINE
  5
196
100
AcDbEntity
  8
Layer_1
 62
7
100
AcDbSpline
 70
8
 71
3
 72
8
 73
4
 74
0
 40
0
 40
0
 40
0
 40
0
 40
1
 40
1
 40
1
 40
1
 10
404.192778
 20
341.203380
 30
0.0
 10
402.889493
 20
340.012998
 30
0.0
 10
401.327376
 20
337.852488
 30
0.0
 10
400.721414
 20
336.402227
 30
0.0
  0
SPLINE
  5
197
100
AcDbEntity
  8
Layer_1
 62
7
100
AcDbSpline
 70
8
 71
3
 72
8
 73
4
 74
0
 40
0
 40
0
 40
0
 40
0
 40
1
 40
1
 40
1
 40
1
 10
400.721414
 20
336.402227
 30
0.0
 10
400.115452
 20
334.951965
 30
0.0
 10
399.533357
 20
333.765383
 30
0.0
 10
399.427824
 20
333.765383
 30
0.0
  0
SPLINE
  5
198
100
AcDbEntity
  8
Layer_1
 62
7
100
AcDbSpline
 70
8
 71
3
 72
8
 73
4
 74
0
 40
0
 40
0
 40
0
 40
0
 40
1
 40
1
 40
1
 40
1
 10
399.427824
 20
333.765383
 30
0.0
 10
399.322375
 20
333.765383
 30
0.0
 10
398.150759
 20
334.850570
 30
0.0
 10
396.824428
 20
336.176901
 30
0.0
  0
LWPOLYLINE
  5
199
100
AcDbEntity
  8
Layer_1
 62
7
100
AcDbPolyline
 90
3
 70
0
 10
404.753613
 20
344.552882
 30
0.0
 10
406.562400
 20
343.367688
 30
0.0
 10
404.192778
 20
341.203380
 30
0.0
  0
SPLINE
  5
19a
100
AcDbEntity
  8
Layer_1
 62
7
100
AcDbSpline
 70
8
 71
3
 72
8
 73
4
 74
0
 40
0
 40
0
 40
0
 40
0
 40
1
 40
1
 40
1
 40
1
 10
386.139798
 20
335.640501
 30
0.0
 10
386.139798
 20
335.846863
 30
0.0
 10
386.308460
 20
336.015496
 30
0.0
 10
386.514794
 20
336.015496
 30
0.0
  0
SPLINE
  5
19b
100
AcDbEntity
  8
Layer_1
 62
7
100
AcDbSpline
 70
8
 71
3
 72
8
 73
4
 74
0
 40
0
 40
0
 40
0
 40
0
 40
1
 40
1
 40
1
 40
1
 10
386.514794
 20
336.015496
 30
0.0
 10
386.721156
 20
336.015496
 30
0.0
 10
386.889817
 20
335.846835
 30
0.0
 10
386.889817
 20
335.640501
 30
0.0
  0
SPLINE
  5
19c
100
AcDbEntity
  8
Layer_1
 62
7
100
AcDbSpline
 70
8
 71
3
 72
8
 73
4
 74
0
 40
0
 40
0
 40
0
 40
0
 40
1
 40
1
 40
1
 40
1
 10
386.889817
 20
335.640501
 30
0.0
 10
386.889817
 20
335.434139
 30
0.0
 10
386.721156
 20
335.265506
 30
0.0
 10
386.514794
 20
335.265506
 30
0.0
  0
SPLINE
  5
19d
100
AcDbEntity
  8
Layer_1
 62
7
100
AcDbSpline
 70
8
 71
3
 72
8
 73
4
 74
0
 40
0
 40
0
 40
0
 40
0
 40
1
 40
1
 40
1
 40
1
 10
386.514794
 20
335.265506
 30
0.0
 10
386.308431
 20
335.265506
 30
0.0
 10
386.139798
 20
335.434167
 30
0.0
 10
386.139798
 20
335.640501
 30
0.0
  0
LWPOLYLINE
  5
19e
100
AcDbEntity
  8
Layer_1
 62
7
100
AcDbPolyline
 90
2
 70
0
 10
396.824428
 20
336.176901
 30
0.0
 10
396.824428
 20
336.177043
 30
0.0
  0
SPLINE
  5
19f
100
AcDbEntity
  8
Layer_1
 62
7
100
AcDbSpline
 70
8
 71
3
 72
8
 73
4
 74
0
 40
0
 40
0
 40
0
 40
0
 40
1
 40
1
 40
1
 40
1
 10
365.889798
 20
336.390491
 30
0.0
 10
365.889798
 20
336.596854
 30
0.0
 10
366.058460
 20
336.765487
 30
0.0
 10
366.264822
 20
336.765487
 30
0.0
  0
SPLINE
  5
1a0
100
AcDbEntity
  8
Layer_1
 62
7
100
AcDbSpline
 70
8
 71
3
 72
8
 73
4
 74
0
 40
0
 40
0
 40
0
 40
0
 40
1
 40
1
 40
1
 40
1
 10
366.264822
 20
336.765487
 30
0.0
 10
366.471184
 20
336.765487
 30
0.0
 10
366.639817
 20
336.596825
 30
0.0
 10
366.639817
 20
336.390491
 30
0.0
  0
SPLINE
  5
1a1
100
AcDbEntity
  8
Layer_1
 62
7
100
AcDbSpline
 70
8
 71
3
 72
8
 73
4
 74
0
 40
0
 40
0
 40
0
 40
0
 40
1
 40
1
 40
1
 40
1
 10
366.639817
 20
336.390491
 30
0.0
 10
366.639817
 20
336.184129
 30
0.0
 10
366.471156
 20
336.015496
 30
0.0
 10
366.264822
 20
336.015496
 30
0.0
  0
SPLINE
  5
1a2
100
AcDbEntity
  8
Layer_1
 62
7
100
AcDbSpline
 70
8
 71
3
 72
8
 73
4
 74
0
 40
0
 40
0
 40
0
 40
0
 40
1
 40
1
 40
1
 40
1
 10
366.264822
 20
336.015496
 30
0.0
 10
366.058460
 20
336.015496
 30
0.0
 10
365.889798
 20
336.184157
 30
0.0
 10
365.889798
 20
336.390491
 30
0.0
  0
LWPOLYLINE
  5
1a3
100
AcDbEntity
  8
Layer_1
 62
7
100
AcDbPolyline
 90
1
 70
1
 10
386.139798
 20
335.640501
 30
0.0
  0
SPLINE
  5
1a4
100
AcDbEntity
  8
Layer_1
 62
7
100
AcDbSpline
 70
8
 71
3
 72
8
 73
4
 74
0
 40
0
 40
0
 40
0
 40
0
 40
1
 40
1
 40
1
 40
1
 10
383.139808
 20
336.390491
 30
0.0
 10
383.139808
 20
336.596854
 30
0.0
 10
383.308469
 20
336.765487
 30
0.0
 10
383.514803
 20
336.765487
 30
0.0
  0
SPLINE
  5
1a5
100
AcDbEntity
  8
Layer_1
 62
7
100
AcDbSpline
 70
8
 71
3
 72
8
 73
4
 74
0
 40
0
 40
0
 40
0
 40
0
 40
1
 40
1
 40
1
 40
1
 10
383.514803
 20
336.765487
 30
0.0
 10
383.721165
 20
336.765487
 30
0.0
 10
383.889798
 20
336.596825
 30
0.0
 10
383.889798
 20
336.390491
 30
0.0
  0
SPLINE
  5
1a6
100
AcDbEntity
  8
Layer_1
 62
7
100
AcDbSpline
 70
8
 71
3
 72
8
 73
4
 74
0
 40
0
 40
0
 40
0
 40
0
 40
1
 40
1
 40
1
 40
1
 10
383.889798
 20
336.390491
 30
0.0
 10
383.889798
 20
336.184129
 30
0.0
 10
383.721137
 20
336.015496
 30
0.0
 10
383.514803
 20
336.015496
 30
0.0
  0
SPLINE
  5
1a7
100
AcDbEntity
  8
Layer_1
 62
7
100
AcDbSpline
 70
8
 71
3
 72
8
 73
4
 74
0
 40
0
 40
0
 40
0
 40
0
 40
1
 40
1
 40
1
 40
1
 10
383.514803
 20
336.015496
 30
0.0
 10
383.308441
 20
336.015496
 30
0.0
 10
383.139808
 20
336.184157
 30
0.0
 10
383.139808
 20
336.390491
 30
0.0
  0
LWPOLYLINE
  5
1a8
100
AcDbEntity
  8
Layer_1
 62
7
100
AcDbPolyline
 90
1
 70
1
 10
365.889798
 20
336.390491
 30
0.0
  0
SPLINE
  5
1a9
100
AcDbEntity
  8
Layer_1
 62
7
100
AcDbSpline
 70
8
 71
3
 72
8
 73
4
 74
0
 40
0
 40
0
 40
0
 40
0
 40
1
 40
1
 40
1
 40
1
 10
344.871269
 20
339.050154
 30
0.0
 10
344.419540
 20
339.894198
 30
0.0
 10
344.154529
 20
341.555017
 30
0.0
 10
344.282372
 20
342.740806
 30
0.0
  0
SPLINE
  5
1aa
100
AcDbEntity
  8
Layer_1
 62
7
100
AcDbSpline
 70
8
 71
3
 72
8
 73
4
 74
0
 40
0
 40
0
 40
0
 40
0
 40
1
 40
1
 40
1
 40
1
 10
344.282372
 20
342.740806
 30
0.0
 10
344.491569
 20
344.682255
 30
0.0
 10
344.632479
 20
344.529524
 30
0.0
 10
345.697200
 20
341.206157
 30
0.0
  0
SPLINE
  5
1ab
100
AcDbEntity
  8
Layer_1
 62
7
100
AcDbSpline
 70
8
 71
3
 72
8
 73
4
 74
0
 40
0
 40
0
 40
0
 40
0
 40
1
 40
1
 40
1
 40
1
 10
345.697200
 20
341.206157
 30
0.0
 10
346.888120
 20
337.488860
 30
0.0
 10
346.395317
 20
336.202441
 30
0.0
 10
344.871269
 20
339.050154
 30
0.0
  0
LWPOLYLINE
  5
1ac
100
AcDbEntity
  8
Layer_1
 62
7
100
AcDbPolyline
 90
1
 70
1
 10
383.139808
 20
336.390491
 30
0.0
  0
SPLINE
  5
1ad
100
AcDbEntity
  8
Layer_1
 62
7
100
AcDbSpline
 70
8
 71
3
 72
8
 73
4
 74
0
 40
0
 40
0
 40
0
 40
0
 40
1
 40
1
 40
1
 40
1
 10
352.389798
 20
340.423654
 30
0.0
 10
352.389798
 20
342.733209
 30
0.0
 10
354.069071
 20
344.706775
 30
0.0
 10
355.356964
 20
343.910806
 30
0.0
  0
SPLINE
  5
1ae
100
AcDbEntity
  8
Layer_1
 62
7
100
AcDbSpline
 70
8
 71
3
 72
8
 73
4
 74
0
 40
0
 40
0
 40
0
 40
0
 40
1
 40
1
 40
1
 40
1
 10
355.356964
 20
343.910806
 30
0.0
 10
356.420806
 20
343.253310
 30
0.0
 10
356.347247
 20
340.272935
 30
0.0
 10
355.239893
 20
339.165496
 30
0.0
  0
SPLINE
  5
1af
100
AcDbEntity
  8
Layer_1
 62
7
100
AcDbSpline
 70
8
 71
3
 72
8
 73
4
 74
0
 40
0
 40
0
 40
0
 40
0
 40
1
 40
1
 40
1
 40
1
 10
355.239893
 20
339.165496
 30
0.0
 10
353.664935
 20
337.590539
 30
0.0
 10
352.389883
 20
338.153443
 30
0.0
 10
352.389883
 20
340.423654
 30
0.0
  0
LWPOLYLINE
  5
1b0
100
AcDbEntity
  8
Layer_1
 62
7
100
AcDbPolyline
 90
1
 70
1
 10
344.871269
 20
339.050154
 30
0.0
  0
SPLINE
  5
1b1
100
AcDbEntity
  8
Layer_1
 62
7
100
AcDbSpline
 70
8
 71
3
 72
8
 73
4
 74
0
 40
0
 40
0
 40
0
 40
0
 40
1
 40
1
 40
1
 40
1
 10
410.542072
 20
342.721361
 30
0.0
 10
410.302261
 20
343.109594
 30
0.0
 10
408.584211
 20
344.187156
 30
0.0
 10
406.724457
 20
345.115984
 30
0.0
  0
SPLINE
  5
1b2
100
AcDbEntity
  8
Layer_1
 62
7
100
AcDbSpline
 70
8
 71
3
 72
8
 73
4
 74
0
 40
0
 40
0
 40
0
 40
0
 40
1
 40
1
 40
1
 40
1
 10
406.724457
 20
345.115984
 30
0.0
 10
404.573443
 20
346.190230
 30
0.0
 10
403.692718
 20
346.985575
 30
0.0
 10
404.303953
 20
347.301780
 30
0.0
  0
SPLINE
  5
1b3
100
AcDbEntity
  8
Layer_1
 62
7
100
AcDbSpline
 70
8
 71
3
 72
8
 73
4
 74
0
 40
0
 40
0
 40
0
 40
0
 40
1
 40
1
 40
1
 40
1
 10
404.303953
 20
347.301780
 30
0.0
 10
405.887017
 20
348.120737
 30
0.0
 10
418.369720
 20
349.616438
 30
0.0
 10
419.222551
 20
349.089364
 30
0.0
  0
SPLINE
  5
1b4
100
AcDbEntity
  8
Layer_1
 62
7
100
AcDbSpline
 70
8
 71
3
 72
8
 73
4
 74
0
 40
0
 40
0
 40
0
 40
0
 40
1
 40
1
 40
1
 40
1
 10
419.222551
 20
349.089364
 30
0.0
 10
420.187890
 20
348.492756
 30
0.0
 10
416.620375
 20
344.578535
 30
0.0
 10
413.739553
 20
343.073537
 30
0.0
  0
SPLINE
  5
1b5
100
AcDbEntity
  8
Layer_1
 62
7
100
AcDbSpline
 70
8
 71
3
 72
8
 73
4
 74
0
 40
0
 40
0
 40
0
 40
0
 40
1
 40
1
 40
1
 40
1
 10
413.739553
 20
343.073537
 30
0.0
 10
411.344844
 20
341.822494
 30
0.0
 10
411.113367
 20
341.796983
 30
0.0
 10
410.542072
 20
342.721361
 30
0.0
  0
LWPOLYLINE
  5
1b6
100
AcDbEntity
  8
Layer_1
 62
7
100
AcDbPolyline
 90
1
 70
1
 10
352.389883
 20
340.423654
 30
0.0
  0
SPLINE
  5
1b7
100
AcDbEntity
  8
Layer_1
 62
7
100
AcDbSpline
 70
8
 71
3
 72
8
 73
4
 74
0
 40
0
 40
0
 40
0
 40
0
 40
1
 40
1
 40
1
 40
1
 10
374.787326
 20
348.573997
 30
0.0
 10
376.364069
 20
351.520157
 30
0.0
 10
399.946507
 20
370.852469
 30
0.0
 10
409.014794
 20
376.632822
 30
0.0
  0
SPLINE
  5
1b8
100
AcDbEntity
  8
Layer_1
 62
7
100
AcDbSpline
 70
8
 71
3
 72
8
 73
4
 74
0
 40
0
 40
0
 40
0
 40
0
 40
1
 40
1
 40
1
 40
1
 10
409.014794
 20
376.632822
 30
0.0
 10
413.835591
 20
379.705720
 30
0.0
 10
416.153991
 20
380.180778
 30
0.0
 10
417.632967
 20
378.398721
 30
0.0
  0
SPLINE
  5
1b9
100
AcDbEntity
  8
Layer_1
 62
7
100
AcDbSpline
 70
8
 71
3
 72
8
 73
4
 74
0
 40
0
 40
0
 40
0
 40
0
 40
1
 40
1
 40
1
 40
1
 10
417.632967
 20
378.398721
 30
0.0
 10
420.631994
 20
374.785143
 30
0.0
 10
411.967219
 20
361.466192
 30
0.0
 10
400.209307
 20
351.616110
 30
0.0
  0
LWPOLYLINE
  5
1ba
100
AcDbEntity
  8
Layer_1
 62
7
100
AcDbPolyline
 90
1
 70
1
 10
410.542072
 20
342.721361
 30
0.0
  0
SPLINE
  5
1bb
100
AcDbEntity
  8
Layer_1
 62
7
100
AcDbSpline
 70
8
 71
3
 72
8
 73
4
 74
0
 40
0
 40
0
 40
0
 40
0
 40
1
 40
1
 40
1
 40
1
 10
386.709307
 20
348.474841
 30
0.0
 10
381.239830
 20
348.385266
 30
0.0
 10
376.134917
 20
348.025493
 30
0.0
 10
375.365055
 20
347.675074
 30
0.0
  0
SPLINE
  5
1bc
100
AcDbEntity
  8
Layer_1
 62
7
100
AcDbSpline
 70
8
 71
3
 72
8
 73
4
 74
0
 40
0
 40
0
 40
0
 40
0
 40
1
 40
1
 40
1
 40
1
 10
375.365055
 20
347.675074
 30
0.0
 10
374.134195
 20
347.114891
 30
0.0
 10
374.064491
 20
347.223345
 30
0.0
 10
374.787326
 20
348.573940
 30
0.0
  0
LWPOLYLINE
  5
1bd
100
AcDbEntity
  8
Layer_1
 62
7
100
AcDbPolyline
 90
3
 70
0
 10
400.209307
 20
351.616110
 30
0.0
 10
396.653811
 20
348.637550
 30
0.0
 10
386.709307
 20
348.474841
 30
0.0
  0
SPLINE
  5
1be
100
AcDbEntity
  8
Layer_1
 62
7
100
AcDbSpline
 70
8
 71
3
 72
8
 73
4
 74
0
 40
0
 40
0
 40
0
 40
0
 40
1
 40
1
 40
1
 40
1
 10
376.621739
 20
359.403335
 30
0.0
 10
376.478306
 20
366.890428
 30
0.0
 10
378.375817
 20
371.397061
 30
0.0
 10
383.765102
 20
376.369569
 30
0.0
  0
SPLINE
  5
1bf
100
AcDbEntity
  8
Layer_1
 62
7
100
AcDbSpline
 70
8
 71
3
 72
8
 73
4
 74
0
 40
0
 40
0
 40
0
 40
0
 40
1
 40
1
 40
1
 40
1
 10
383.765102
 20
376.369569
 30
0.0
 10
385.806387
 20
378.252964
 30
0.0
 10
386.405291
 20
379.076542
 30
0.0
 10
385.202296
 20
378.345798
 30
0.0
  0
SPLINE
  5
1c0
100
AcDbEntity
  8
Layer_1
 62
7
100
AcDbSpline
 70
8
 71
3
 72
8
 73
4
 74
0
 40
0
 40
0
 40
0
 40
0
 40
1
 40
1
 40
1
 40
1
 10
385.202296
 20
378.345798
 30
0.0
 10
382.374000
 20
376.627805
 30
0.0
 10
382.605080
 20
377.633537
 30
0.0
 10
386.327310
 20
383.242110
 30
0.0
  0
SPLINE
  5
1c1
100
AcDbEntity
  8
Layer_1
 62
7
100
AcDbSpline
 70
8
 71
3
 72
8
 73
4
 74
0
 40
0
 40
0
 40
0
 40
0
 40
1
 40
1
 40
1
 40
1
 10
386.327310
 20
383.242110
 30
0.0
 10
390.231893
 20
389.125474
 30
0.0
 10
391.790636
 20
390.229002
 30
0.0
 10
393.308731
 20
388.184655
 30
0.0
  0
SPLINE
  5
1c2
100
AcDbEntity
  8
Layer_1
 62
7
100
AcDbSpline
 70
8
 71
3
 72
8
 73
4
 74
0
 40
0
 40
0
 40
0
 40
0
 40
1
 40
1
 40
1
 40
1
 10
393.308731
 20
388.184655
 30
0.0
 10
395.358378
 20
385.424476
 30
0.0
 10
393.857603
 20
372.244054
 30
0.0
 10
390.832328
 20
366.435666
 30
0.0
  0
SPLINE
  5
1c3
100
AcDbEntity
  8
Layer_1
 62
7
100
AcDbSpline
 70
8
 71
3
 72
8
 73
4
 74
0
 40
0
 40
0
 40
0
 40
0
 40
1
 40
1
 40
1
 40
1
 10
390.832328
 20
366.435666
 30
0.0
 10
389.815058
 20
364.482539
 30
0.0
 10
377.994869
 20
353.265506
 30
0.0
 10
376.953987
 20
353.265506
 30
0.0
  0
SPLINE
  5
1c4
100
AcDbEntity
  8
Layer_1
 62
7
100
AcDbSpline
 70
8
 71
3
 72
8
 73
4
 74
0
 40
0
 40
0
 40
0
 40
0
 40
1
 40
1
 40
1
 40
1
 10
376.953987
 20
353.265506
 30
0.0
 10
376.835783
 20
353.265506
 30
0.0
 10
376.686397
 20
356.027528
 30
0.0
 10
376.621739
 20
359.403335
 30
0.0
  0
LWPOLYLINE
  5
1c5
100
AcDbEntity
  8
Layer_1
 62
7
100
AcDbPolyline
 90
1
 70
1
 10
374.787326
 20
348.573940
 30
0.0
  0
SPLINE
  5
1c6
100
AcDbEntity
  8
Layer_1
 62
7
100
AcDbSpline
 70
8
 71
3
 72
8
 73
4
 74
0
 40
0
 40
0
 40
0
 40
0
 40
1
 40
1
 40
1
 40
1
 10
343.508542
 20
358.415008
 30
0.0
 10
342.172545
 20
362.874104
 30
0.0
 10
342.445521
 20
364.772211
 30
0.0
 10
344.912485
 20
368.177783
 30
0.0
  0
SPLINE
  5
1c7
100
AcDbEntity
  8
Layer_1
 62
7
100
AcDbSpline
 70
8
 71
3
 72
8
 73
4
 74
0
 40
0
 40
0
 40
0
 40
0
 40
1
 40
1
 40
1
 40
1
 10
344.912485
 20
368.177783
 30
0.0
 10
349.112154
 20
373.975257
 30
0.0
 10
355.100485
 20
376.398992
 30
0.0
 10
361.792261
 20
375.009789
 30
0.0
  0
SPLINE
  5
1c8
100
AcDbEntity
  8
Layer_1
 62
7
100
AcDbSpline
 70
8
 71
3
 72
8
 73
4
 74
0
 40
0
 40
0
 40
0
 40
0
 40
1
 40
1
 40
1
 40
1
 10
361.792261
 20
375.009789
 30
0.0
 10
364.020151
 20
374.547288
 30
0.0
 10
366.580403
 20
373.571717
 30
0.0
 10
367.481735
 20
372.841852
 30
0.0
  0
SPLINE
  5
1c9
100
AcDbEntity
  8
Layer_1
 62
7
100
AcDbSpline
 70
8
 71
3
 72
8
 73
4
 74
0
 40
0
 40
0
 40
0
 40
0
 40
1
 40
1
 40
1
 40
1
 10
367.481735
 20
372.841852
 30
0.0
 10
369.117071
 20
371.517647
 30
0.0
 10
369.110098
 20
371.509965
 30
0.0
 10
364.184447
 20
369.204973
 30
0.0
  0
SPLINE
  5
1ca
100
AcDbEntity
  8
Layer_1
 62
7
100
AcDbSpline
 70
8
 71
3
 72
8
 73
4
 74
0
 40
0
 40
0
 40
0
 40
0
 40
1
 40
1
 40
1
 40
1
 10
364.184447
 20
369.204973
 30
0.0
 10
358.105521
 20
366.360293
 30
0.0
 10
351.361020
 20
361.800539
 30
0.0
 10
347.930192
 20
358.215959
 30
0.0
  0
SPLINE
  5
1cb
100
AcDbEntity
  8
Layer_1
 62
7
100
AcDbSpline
 70
8
 71
3
 72
8
 73
4
 74
0
 40
0
 40
0
 40
0
 40
0
 40
1
 40
1
 40
1
 40
1
 10
347.930192
 20
358.215959
 30
0.0
 10
346.508646
 20
356.730690
 30
0.0
 10
345.127691
 20
355.515506
 30
0.0
 10
344.861405
 20
355.515506
 30
0.0
  0
SPLINE
  5
1cc
100
AcDbEntity
  8
Layer_1
 62
7
100
AcDbSpline
 70
8
 71
3
 72
8
 73
4
 74
0
 40
0
 40
0
 40
0
 40
0
 40
1
 40
1
 40
1
 40
1
 10
344.861405
 20
355.515506
 30
0.0
 10
344.595231
 20
355.515506
 30
0.0
 10
343.986321
 20
356.820265
 30
0.0
 10
343.508542
 20
358.415008
 30
0.0
  0
LWPOLYLINE
  5
1cd
100
AcDbEntity
  8
Layer_1
 62
7
100
AcDbPolyline
 90
1
 70
1
 10
376.621739
 20
359.403335
 30
0.0
  0
SPLINE
  5
1ce
100
AcDbEntity
  8
Layer_1
 62
7
100
AcDbSpline
 70
8
 71
3
 72
8
 73
4
 74
0
 40
0
 40
0
 40
0
 40
0
 40
1
 40
1
 40
1
 40
1
 10
345.849250
 20
361.328003
 30
0.0
 10
345.616809
 20
362.820444
 30
0.0
 10
345.035282
 20
363.765487
 30
0.0
 10
344.349439
 20
363.765487
 30
0.0
  0
SPLINE
  5
1cf
100
AcDbEntity
  8
Layer_1
 62
7
100
AcDbSpline
 70
8
 71
3
 72
8
 73
4
 74
0
 40
0
 40
0
 40
0
 40
0
 40
1
 40
1
 40
1
 40
1
 10
344.349439
 20
363.765487
 30
0.0
 10
343.632898
 20
363.765487
 30
0.0
 10
343.394504
 20
363.335074
 30
0.0
 10
343.687776
 20
362.570825
 30
0.0
  0
SPLINE
  5
1d0
100
AcDbEntity
  8
Layer_1
 62
7
100
AcDbSpline
 70
8
 71
3
 72
8
 73
4
 74
0
 40
0
 40
0
 40
0
 40
0
 40
1
 40
1
 40
1
 40
1
 10
343.687776
 20
362.570825
 30
0.0
 10
343.939776
 20
361.913754
 30
0.0
 10
344.356299
 20
360.539036
 30
0.0
 10
344.613090
 20
359.515899
 30
0.0
  0
SPLINE
  5
1d1
100
AcDbEntity
  8
Layer_1
 62
7
100
AcDbSpline
 70
8
 71
3
 72
8
 73
4
 74
0
 40
0
 40
0
 40
0
 40
0
 40
1
 40
1
 40
1
 40
1
 10
344.613090
 20
359.515899
 30
0.0
 10
345.274498
 20
356.880699
 30
0.0
 10
346.306365
 20
358.393323
 30
0.0
 10
345.849250
 20
361.328003
 30
0.0
  0
LWPOLYLINE
  5
1d2
100
AcDbEntity
  8
Layer_1
 62
7
100
AcDbPolyline
 90
1
 70
1
 10
343.508542
 20
358.415008
 30
0.0
  0
SPLINE
  5
1d3
100
AcDbEntity
  8
Layer_1
 62
7
100
AcDbSpline
 70
8
 71
3
 72
8
 73
4
 74
0
 40
0
 40
0
 40
0
 40
0
 40
1
 40
1
 40
1
 40
1
 10
352.369191
 20
364.775471
 30
0.0
 10
353.761512
 20
365.706510
 30
0.0
 10
353.908176
 20
366.015487
 30
0.0
 10
352.957805
 20
366.015487
 30
0.0
  0
SPLINE
  5
1d4
100
AcDbEntity
  8
Layer_1
 62
7
100
AcDbSpline
 70
8
 71
3
 72
8
 73
4
 74
0
 40
0
 40
0
 40
0
 40
0
 40
1
 40
1
 40
1
 40
1
 10
352.957805
 20
366.015487
 30
0.0
 10
351.500315
 20
366.015487
 30
0.0
 10
346.389817
 20
361.760882
 30
0.0
 10
346.389817
 20
360.547483
 30
0.0
  0
SPLINE
  5
1d5
100
AcDbEntity
  8
Layer_1
 62
7
100
AcDbSpline
 70
8
 71
3
 72
8
 73
4
 74
0
 40
0
 40
0
 40
0
 40
0
 40
1
 40
1
 40
1
 40
1
 10
346.389817
 20
360.547483
 30
0.0
 10
346.389817
 20
360.100545
 30
0.0
 10
347.317937
 20
360.590003
 30
0.0
 10
348.452306
 20
361.635165
 30
0.0
  0
SPLINE
  5
1d6
100
AcDbEntity
  8
Layer_1
 62
7
100
AcDbSpline
 70
8
 71
3
 72
8
 73
4
 74
0
 40
0
 40
0
 40
0
 40
0
 40
1
 40
1
 40
1
 40
1
 10
348.452306
 20
361.635165
 30
0.0
 10
349.586702
 20
362.680328
 30
0.0
 10
351.349285
 20
364.093455
 30
0.0
 10
352.369191
 20
364.775471
 30
0.0
  0
LWPOLYLINE
  5
1d7
100
AcDbEntity
  8
Layer_1
 62
7
100
AcDbPolyline
 90
1
 70
1
 10
345.849250
 20
361.328003
 30
0.0
  0
LWPOLYLINE
  5
1d8
100
AcDbEntity
  8
Layer_1
 62
7
100
AcDbPolyline
 90
1
 70
1
 10
352.369191
 20
364.775471
 30
0.0
  0
ENDSEC
  0
SECTION
  2
OBJECTS
  0
DICTIONARY
  5
C
330
0
100
AcDbDictionary
  3
ACAD_GROUP
350
D
  3
ACAD_MLINESTYLE
350
17
  0
DICTIONARY
  5
D
330
C
100
AcDbDictionary
  0
DICTIONARY
  5
1A
330
C
100
AcDbDictionary
  0
DICTIONARY
  5
17
330
C
100
AcDbDictionary
  3
STANDARD
350
18
  0
DICTIONARY
  5
19
330
C
100
AcDbDictionary
  0
ENDSEC
  0
EOF
