G04 #@! TF.GenerationSoftware,KiCad,Pcbnew,5.1.10*
G04 #@! TF.CreationDate,2021-05-19T15:42:40-05:00*
G04 #@! TF.ProjectId,Power Board,506f7765-7220-4426-9f61-72642e6b6963,rev?*
G04 #@! TF.SameCoordinates,Original*
G04 #@! TF.FileFunction,Legend,Top*
G04 #@! TF.FilePolarity,Positive*
%FSLAX46Y46*%
G04 Gerber Fmt 4.6, Leading zero omitted, Abs format (unit mm)*
G04 Created by KiCad (PCBNEW 5.1.10) date 2021-05-19 15:42:40*
%MOMM*%
%LPD*%
G01*
G04 APERTURE LIST*
%ADD10C,0.120000*%
%ADD11O,4.000000X3.200000*%
%ADD12O,5.000000X3.200000*%
%ADD13O,1.700000X1.700000*%
%ADD14R,1.700000X1.700000*%
G04 APERTURE END LIST*
D10*
X44325000Y-142405000D02*
X44325000Y-138595000D01*
X41000000Y-133530000D02*
X54000000Y-133500000D01*
X54000000Y-133515000D02*
X54000000Y-147485000D01*
X51202654Y-140500000D02*
G75*
G03*
X51202654Y-140500000I-3702654J0D01*
G01*
X50675000Y-138595000D02*
X50675000Y-142405000D01*
X47500000Y-137325000D02*
X50675000Y-138595000D01*
X44325000Y-138595000D02*
X47500000Y-137325000D01*
X50675000Y-142405000D02*
X47500000Y-143675000D01*
X54000000Y-147500000D02*
X41000000Y-147500000D01*
X41000000Y-147500000D02*
X41000000Y-133530000D01*
X47500000Y-143675000D02*
X44325000Y-142405000D01*
X70675000Y-138595000D02*
X70675000Y-142405000D01*
X74000000Y-147470000D02*
X61000000Y-147500000D01*
X61000000Y-147485000D02*
X61000000Y-133515000D01*
X71202654Y-140500000D02*
G75*
G03*
X71202654Y-140500000I-3702654J0D01*
G01*
X64325000Y-142405000D02*
X64325000Y-138595000D01*
X67500000Y-143675000D02*
X64325000Y-142405000D01*
X70675000Y-142405000D02*
X67500000Y-143675000D01*
X64325000Y-138595000D02*
X67500000Y-137325000D01*
X61000000Y-133500000D02*
X74000000Y-133500000D01*
X74000000Y-133500000D02*
X74000000Y-147470000D01*
X67500000Y-137325000D02*
X70675000Y-138595000D01*
X63055000Y-172485000D02*
X63055000Y-158515000D01*
X63055000Y-158515000D02*
X71945000Y-158515000D01*
X71945000Y-158515000D02*
X71945000Y-172485000D01*
X71945000Y-172485000D02*
X63055000Y-172485000D01*
X64325000Y-167405000D02*
X64325000Y-163595000D01*
X64325000Y-163595000D02*
X67500000Y-162325000D01*
X67500000Y-162325000D02*
X70675000Y-163595000D01*
X70675000Y-163595000D02*
X70675000Y-167405000D01*
X70675000Y-167405000D02*
X67500000Y-168675000D01*
X67500000Y-168675000D02*
X64325000Y-167405000D01*
X71202654Y-165500000D02*
G75*
G03*
X71202654Y-165500000I-3702654J0D01*
G01*
X43055000Y-172485000D02*
X43055000Y-158515000D01*
X43055000Y-158515000D02*
X51945000Y-158515000D01*
X51945000Y-158515000D02*
X51945000Y-172485000D01*
X51945000Y-172485000D02*
X43055000Y-172485000D01*
X44325000Y-167405000D02*
X44325000Y-163595000D01*
X44325000Y-163595000D02*
X47500000Y-162325000D01*
X47500000Y-162325000D02*
X50675000Y-163595000D01*
X50675000Y-163595000D02*
X50675000Y-167405000D01*
X50675000Y-167405000D02*
X47500000Y-168675000D01*
X47500000Y-168675000D02*
X44325000Y-167405000D01*
X51202654Y-165500000D02*
G75*
G03*
X51202654Y-165500000I-3702654J0D01*
G01*
X83055000Y-172485000D02*
X83055000Y-158515000D01*
X83055000Y-158515000D02*
X91945000Y-158515000D01*
X91945000Y-158515000D02*
X91945000Y-172485000D01*
X91945000Y-172485000D02*
X83055000Y-172485000D01*
X84325000Y-167405000D02*
X84325000Y-163595000D01*
X84325000Y-163595000D02*
X87500000Y-162325000D01*
X87500000Y-162325000D02*
X90675000Y-163595000D01*
X90675000Y-163595000D02*
X90675000Y-167405000D01*
X90675000Y-167405000D02*
X87500000Y-168675000D01*
X87500000Y-168675000D02*
X84325000Y-167405000D01*
X91202654Y-165500000D02*
G75*
G03*
X91202654Y-165500000I-3702654J0D01*
G01*
X90675000Y-138595000D02*
X90675000Y-142405000D01*
X94000000Y-147470000D02*
X81000000Y-147500000D01*
X81000000Y-147485000D02*
X81000000Y-133515000D01*
X91202654Y-140500000D02*
G75*
G03*
X91202654Y-140500000I-3702654J0D01*
G01*
X84325000Y-142405000D02*
X84325000Y-138595000D01*
X87500000Y-143675000D02*
X84325000Y-142405000D01*
X90675000Y-142405000D02*
X87500000Y-143675000D01*
X84325000Y-138595000D02*
X87500000Y-137325000D01*
X81000000Y-133500000D02*
X94000000Y-133500000D01*
X94000000Y-133500000D02*
X94000000Y-147470000D01*
X87500000Y-137325000D02*
X90675000Y-138595000D01*
%LPC*%
D11*
X45250000Y-136050000D03*
X45250000Y-140500000D03*
X45250000Y-144950000D03*
X49750000Y-140500000D03*
X49750000Y-144950000D03*
X49750000Y-136050000D03*
X69750000Y-144950000D03*
X69750000Y-140500000D03*
X69750000Y-136050000D03*
X65250000Y-140500000D03*
X65250000Y-136050000D03*
X65250000Y-144950000D03*
D12*
X67500000Y-169950000D03*
X67500000Y-165500000D03*
X67500000Y-161050000D03*
X47500000Y-169950000D03*
X47500000Y-165500000D03*
X47500000Y-161050000D03*
D13*
X55580000Y-126000000D03*
X53040000Y-126000000D03*
D14*
X50500000Y-126000000D03*
D13*
X65740000Y-126000000D03*
D14*
X63200000Y-126000000D03*
D13*
X73360000Y-126000000D03*
D14*
X70820000Y-126000000D03*
D12*
X87500000Y-169950000D03*
X87500000Y-165500000D03*
X87500000Y-161050000D03*
D11*
X89750000Y-144950000D03*
X89750000Y-140500000D03*
X89750000Y-136050000D03*
X85250000Y-140500000D03*
X85250000Y-136050000D03*
X85250000Y-144950000D03*
D13*
X83520000Y-126000000D03*
D14*
X80980000Y-126000000D03*
D13*
X78440000Y-126000000D03*
D14*
X75900000Y-126000000D03*
X68280000Y-126000000D03*
D13*
X60660000Y-126000000D03*
D14*
X58120000Y-126000000D03*
D13*
X78790000Y-172000000D03*
D14*
X76250000Y-172000000D03*
M02*
