M48
; DRILL file {KiCad 5.1.10} date Wed May 19 15:42:45 2021
; FORMAT={-:-/ absolute / metric / decimal}
; #@! TF.CreationDate,2021-05-19T15:42:45-05:00
; #@! TF.GenerationSoftware,Kicad,Pcbnew,5.1.10
; #@! TF.FileFunction,Plated,1,2,PTH
FMAT,2
METRIC
T1C0.400
T2C1.000
%
G90
G05
T1
X56.83Y-137.958
X72.572Y-131.219
X78.44Y-129.555
X79.756Y-136.208
T2
X50.5Y-126.0
X53.04Y-126.0
X55.58Y-126.0
X58.12Y-126.0
X60.66Y-126.0
X63.2Y-126.0
X65.74Y-126.0
X68.28Y-126.0
X70.82Y-126.0
X73.36Y-126.0
X75.9Y-126.0
X76.25Y-172.0
X78.44Y-126.0
X78.79Y-172.0
X80.98Y-126.0
X83.52Y-126.0
T2
X46.0Y-136.05G85X44.5Y-136.05
G05
X46.0Y-140.5G85X44.5Y-140.5
G05
X46.0Y-144.95G85X44.5Y-144.95
G05
X46.75Y-161.05G85X48.25Y-161.05
G05
X46.75Y-165.5G85X48.25Y-165.5
G05
X46.75Y-169.95G85X48.25Y-169.95
G05
X49.0Y-136.05G85X50.5Y-136.05
G05
X49.0Y-140.5G85X50.5Y-140.5
G05
X49.0Y-144.95G85X50.5Y-144.95
G05
X66.0Y-136.05G85X64.5Y-136.05
G05
X66.0Y-140.5G85X64.5Y-140.5
G05
X66.0Y-144.95G85X64.5Y-144.95
G05
X66.75Y-161.05G85X68.25Y-161.05
G05
X66.75Y-165.5G85X68.25Y-165.5
G05
X66.75Y-169.95G85X68.25Y-169.95
G05
X69.0Y-136.05G85X70.5Y-136.05
G05
X69.0Y-140.5G85X70.5Y-140.5
G05
X69.0Y-144.95G85X70.5Y-144.95
G05
X86.0Y-136.05G85X84.5Y-136.05
G05
X86.0Y-140.5G85X84.5Y-140.5
G05
X86.0Y-144.95G85X84.5Y-144.95
G05
X86.75Y-161.05G85X88.25Y-161.05
G05
X86.75Y-165.5G85X88.25Y-165.5
G05
X86.75Y-169.95G85X88.25Y-169.95
G05
X89.0Y-136.05G85X90.5Y-136.05
G05
X89.0Y-140.5G85X90.5Y-140.5
G05
X89.0Y-144.95G85X90.5Y-144.95
G05
T0
M30
