G04 #@! TF.GenerationSoftware,KiCad,Pcbnew,5.1.10*
G04 #@! TF.CreationDate,2021-05-19T15:42:40-05:00*
G04 #@! TF.ProjectId,Power Board,506f7765-7220-4426-9f61-72642e6b6963,rev?*
G04 #@! TF.SameCoordinates,Original*
G04 #@! TF.FileFunction,Copper,L1,Top*
G04 #@! TF.FilePolarity,Positive*
%FSLAX46Y46*%
G04 Gerber Fmt 4.6, Leading zero omitted, Abs format (unit mm)*
G04 Created by KiCad (PCBNEW 5.1.10) date 2021-05-19 15:42:40*
%MOMM*%
%LPD*%
G01*
G04 APERTURE LIST*
G04 #@! TA.AperFunction,ComponentPad*
%ADD10O,4.000000X3.200000*%
G04 #@! TD*
G04 #@! TA.AperFunction,ComponentPad*
%ADD11O,5.000000X3.200000*%
G04 #@! TD*
G04 #@! TA.AperFunction,ComponentPad*
%ADD12O,1.700000X1.700000*%
G04 #@! TD*
G04 #@! TA.AperFunction,ComponentPad*
%ADD13R,1.700000X1.700000*%
G04 #@! TD*
G04 #@! TA.AperFunction,ViaPad*
%ADD14C,0.800000*%
G04 #@! TD*
G04 #@! TA.AperFunction,Conductor*
%ADD15C,1.200000*%
G04 #@! TD*
G04 APERTURE END LIST*
D10*
X45250000Y-136050000D03*
X45250000Y-140500000D03*
X45250000Y-144950000D03*
X49750000Y-140500000D03*
X49750000Y-144950000D03*
X49750000Y-136050000D03*
X69750000Y-144950000D03*
X69750000Y-140500000D03*
X69750000Y-136050000D03*
X65250000Y-140500000D03*
X65250000Y-136050000D03*
X65250000Y-144950000D03*
D11*
X67500000Y-169950000D03*
X67500000Y-165500000D03*
X67500000Y-161050000D03*
X47500000Y-169950000D03*
X47500000Y-165500000D03*
X47500000Y-161050000D03*
D12*
X55580000Y-126000000D03*
X53040000Y-126000000D03*
D13*
X50500000Y-126000000D03*
D12*
X65740000Y-126000000D03*
D13*
X63200000Y-126000000D03*
D12*
X73360000Y-126000000D03*
D13*
X70820000Y-126000000D03*
D11*
X87500000Y-169950000D03*
X87500000Y-165500000D03*
X87500000Y-161050000D03*
D10*
X89750000Y-144950000D03*
X89750000Y-140500000D03*
X89750000Y-136050000D03*
X85250000Y-140500000D03*
X85250000Y-136050000D03*
X85250000Y-144950000D03*
D12*
X83520000Y-126000000D03*
D13*
X80980000Y-126000000D03*
D12*
X78440000Y-126000000D03*
D13*
X75900000Y-126000000D03*
X68280000Y-126000000D03*
D12*
X60660000Y-126000000D03*
D13*
X58120000Y-126000000D03*
D12*
X78790000Y-172000000D03*
D13*
X76250000Y-172000000D03*
D14*
X56830100Y-137957700D03*
X72571700Y-131219200D03*
X78440000Y-129555100D03*
X79756300Y-136207600D03*
D15*
X49837800Y-144950000D02*
X49750000Y-144950000D01*
X56830100Y-137957700D02*
X49837800Y-144950000D01*
X41031900Y-140731900D02*
X45250000Y-144950000D01*
X53947300Y-130172700D02*
X45321000Y-130172700D01*
X41031900Y-134461800D02*
X41031900Y-140731900D01*
X58120000Y-126000000D02*
X53947300Y-130172700D01*
X45321000Y-130172700D02*
X41031900Y-134461800D01*
X68280000Y-131780000D02*
X69750000Y-133250000D01*
X68280000Y-126000000D02*
X68280000Y-131780000D01*
X69750000Y-136050000D02*
X69750000Y-133250000D01*
X72571700Y-137678300D02*
X69750000Y-140500000D01*
X72571700Y-131219200D02*
X72571700Y-137678300D01*
X73360000Y-128050000D02*
X76934900Y-128050000D01*
X76934900Y-128050000D02*
X78440000Y-129555100D01*
X73360000Y-126000000D02*
X73360000Y-128050000D01*
X47459800Y-126000000D02*
X39626300Y-133833500D01*
X50500000Y-126000000D02*
X48450000Y-126000000D01*
X39626300Y-133833500D02*
X39626300Y-143129100D01*
X48450000Y-126000000D02*
X47459800Y-126000000D01*
X61997200Y-165500000D02*
X67500000Y-165500000D01*
X39626300Y-143129100D02*
X61997200Y-165500000D01*
X78790000Y-172000000D02*
X78790000Y-169950000D01*
X78356000Y-169516000D02*
X78790000Y-169950000D01*
X83520000Y-130463600D02*
X78356000Y-135627600D01*
X78356000Y-135627600D02*
X78356000Y-169516000D01*
X83520000Y-126000000D02*
X83520000Y-130463600D01*
X80980000Y-128995500D02*
X80980000Y-128050000D01*
X76250000Y-172000000D02*
X76250000Y-133725500D01*
X80980000Y-126000000D02*
X80980000Y-128050000D01*
X76250000Y-133725500D02*
X80980000Y-128995500D01*
X65250000Y-136050000D02*
X65250000Y-133250000D01*
X44224200Y-133250000D02*
X65250000Y-133250000D01*
X85250000Y-136050000D02*
X82050000Y-136050000D01*
X45250000Y-140500000D02*
X42439500Y-137689500D01*
X81892400Y-136207600D02*
X82050000Y-136050000D01*
X42439500Y-135034700D02*
X44224200Y-133250000D01*
X42439500Y-137689500D02*
X42439500Y-135034700D01*
X79756300Y-136207600D02*
X81892400Y-136207600D01*
X65250000Y-144950000D02*
X65250000Y-144397200D01*
X65250000Y-144397200D02*
X57410200Y-136557400D01*
X57410200Y-136557400D02*
X53692600Y-136557400D01*
X53692600Y-136557400D02*
X49750000Y-140500000D01*
X47500000Y-169950000D02*
X51200000Y-169950000D01*
X69750000Y-144950000D02*
X69750000Y-147750000D01*
X70809900Y-166640100D02*
X67500000Y-169950000D01*
X70809900Y-148809900D02*
X70809900Y-166640100D01*
X67500000Y-169950000D02*
X51200000Y-169950000D01*
X69750000Y-147750000D02*
X70809900Y-148809900D01*
M02*
