G04 #@! TF.GenerationSoftware,KiCad,Pcbnew,5.1.10*
G04 #@! TF.CreationDate,2021-06-04T18:55:33-05:00*
G04 #@! TF.ProjectId,Multiboard,4d756c74-6962-46f6-9172-642e6b696361,rev?*
G04 #@! TF.SameCoordinates,Original*
G04 #@! TF.FileFunction,Soldermask,Bot*
G04 #@! TF.FilePolarity,Negative*
%FSLAX46Y46*%
G04 Gerber Fmt 4.6, Leading zero omitted, Abs format (unit mm)*
G04 Created by KiCad (PCBNEW 5.1.10) date 2021-06-04 18:55:33*
%MOMM*%
%LPD*%
G01*
G04 APERTURE LIST*
%ADD10R,2.600000X2.600000*%
%ADD11C,2.600000*%
%ADD12R,1.700000X1.700000*%
%ADD13O,1.700000X1.700000*%
%ADD14C,1.600000*%
%ADD15R,1.600000X1.600000*%
%ADD16O,1.950000X1.700000*%
%ADD17O,1.600000X1.600000*%
%ADD18C,0.900000*%
%ADD19C,10.600000*%
G04 APERTURE END LIST*
D10*
X120240000Y-107580000D03*
D11*
X120240000Y-112580000D03*
D10*
X120240000Y-97445000D03*
D11*
X120240000Y-102445000D03*
D12*
X171580000Y-70580000D03*
D13*
X171580000Y-68040000D03*
X171580000Y-65500000D03*
D12*
X169040000Y-70580000D03*
D13*
X169040000Y-68040000D03*
X169040000Y-65500000D03*
D12*
X176660000Y-70580000D03*
D13*
X176660000Y-68040000D03*
X176660000Y-65500000D03*
D12*
X179200000Y-70580000D03*
D13*
X179200000Y-68040000D03*
X179200000Y-65500000D03*
D12*
X181740000Y-70580000D03*
D13*
X181740000Y-68040000D03*
X181740000Y-65500000D03*
D12*
X174120000Y-70580000D03*
D13*
X174120000Y-68040000D03*
X174120000Y-65500000D03*
D14*
X134760000Y-127095000D03*
D15*
X134760000Y-129595000D03*
D16*
X134125000Y-113840000D03*
X134125000Y-116340000D03*
X134125000Y-118840000D03*
G36*
G01*
X134850000Y-122190000D02*
X133400000Y-122190000D01*
G75*
G02*
X133150000Y-121940000I0J250000D01*
G01*
X133150000Y-120740000D01*
G75*
G02*
X133400000Y-120490000I250000J0D01*
G01*
X134850000Y-120490000D01*
G75*
G02*
X135100000Y-120740000I0J-250000D01*
G01*
X135100000Y-121940000D01*
G75*
G02*
X134850000Y-122190000I-250000J0D01*
G01*
G37*
D17*
X152540000Y-112450000D03*
X139840000Y-130230000D03*
X152540000Y-114990000D03*
X139840000Y-127690000D03*
X152540000Y-117530000D03*
X139840000Y-125150000D03*
X152540000Y-120070000D03*
X139840000Y-122610000D03*
X152540000Y-122610000D03*
X139840000Y-120070000D03*
X152540000Y-125150000D03*
X139840000Y-117530000D03*
X152540000Y-127690000D03*
X139840000Y-114990000D03*
X152540000Y-130230000D03*
D15*
X139840000Y-112450000D03*
D13*
X155715000Y-130230000D03*
X155715000Y-127690000D03*
D12*
X155715000Y-125150000D03*
D17*
X142380000Y-120705000D03*
D14*
X150000000Y-120705000D03*
X134760000Y-101595000D03*
D15*
X134760000Y-104095000D03*
D17*
X152540000Y-86950000D03*
X139840000Y-104730000D03*
X152540000Y-89490000D03*
X139840000Y-102190000D03*
X152540000Y-92030000D03*
X139840000Y-99650000D03*
X152540000Y-94570000D03*
X139840000Y-97110000D03*
X152540000Y-97110000D03*
X139840000Y-94570000D03*
X152540000Y-99650000D03*
X139840000Y-92030000D03*
X152540000Y-102190000D03*
X139840000Y-89490000D03*
X152540000Y-104730000D03*
D15*
X139840000Y-86950000D03*
D17*
X142380000Y-95205000D03*
D14*
X150000000Y-95205000D03*
D16*
X134125000Y-88340000D03*
X134125000Y-90840000D03*
X134125000Y-93340000D03*
G36*
G01*
X134850000Y-96690000D02*
X133400000Y-96690000D01*
G75*
G02*
X133150000Y-96440000I0J250000D01*
G01*
X133150000Y-95240000D01*
G75*
G02*
X133400000Y-94990000I250000J0D01*
G01*
X134850000Y-94990000D01*
G75*
G02*
X135100000Y-95240000I0J-250000D01*
G01*
X135100000Y-96440000D01*
G75*
G02*
X134850000Y-96690000I-250000J0D01*
G01*
G37*
D13*
X155715000Y-104730000D03*
X155715000Y-102190000D03*
D12*
X155715000Y-99650000D03*
D18*
X203050749Y-123769251D03*
X200240000Y-122605000D03*
X197429251Y-123769251D03*
X196265000Y-126580000D03*
X197429251Y-129390749D03*
X200240000Y-130555000D03*
X203050749Y-129390749D03*
X204215000Y-126580000D03*
D19*
X200240000Y-126580000D03*
D18*
X123050749Y-123769251D03*
X120240000Y-122605000D03*
X117429251Y-123769251D03*
X116265000Y-126580000D03*
X117429251Y-129390749D03*
X120240000Y-130555000D03*
X123050749Y-129390749D03*
X124215000Y-126580000D03*
D19*
X120240000Y-126580000D03*
D18*
X203050749Y-62769251D03*
X200240000Y-61605000D03*
X197429251Y-62769251D03*
X196265000Y-65580000D03*
X197429251Y-68390749D03*
X200240000Y-69555000D03*
X203050749Y-68390749D03*
X204215000Y-65580000D03*
D19*
X200240000Y-65580000D03*
D18*
X123050749Y-62769251D03*
X120240000Y-61605000D03*
X117429251Y-62769251D03*
X116265000Y-65580000D03*
X117429251Y-68390749D03*
X120240000Y-69555000D03*
X123050749Y-68390749D03*
X124215000Y-65580000D03*
D19*
X120240000Y-65580000D03*
D15*
X134760000Y-78595000D03*
D14*
X134760000Y-76095000D03*
X150000000Y-69705000D03*
D17*
X142380000Y-69705000D03*
G36*
G01*
X134850000Y-71190000D02*
X133400000Y-71190000D01*
G75*
G02*
X133150000Y-70940000I0J250000D01*
G01*
X133150000Y-69740000D01*
G75*
G02*
X133400000Y-69490000I250000J0D01*
G01*
X134850000Y-69490000D01*
G75*
G02*
X135100000Y-69740000I0J-250000D01*
G01*
X135100000Y-70940000D01*
G75*
G02*
X134850000Y-71190000I-250000J0D01*
G01*
G37*
D16*
X134125000Y-67840000D03*
X134125000Y-65340000D03*
X134125000Y-62840000D03*
D12*
X155715000Y-74150000D03*
D13*
X155715000Y-76690000D03*
X155715000Y-79230000D03*
D15*
X139840000Y-61450000D03*
D17*
X152540000Y-79230000D03*
X139840000Y-63990000D03*
X152540000Y-76690000D03*
X139840000Y-66530000D03*
X152540000Y-74150000D03*
X139840000Y-69070000D03*
X152540000Y-71610000D03*
X139840000Y-71610000D03*
X152540000Y-69070000D03*
X139840000Y-74150000D03*
X152540000Y-66530000D03*
X139840000Y-76690000D03*
X152540000Y-63990000D03*
X139840000Y-79230000D03*
X152540000Y-61450000D03*
X190480000Y-114140000D03*
X175240000Y-114140000D03*
X190480000Y-78580000D03*
X175240000Y-111600000D03*
X190480000Y-81120000D03*
X175240000Y-109060000D03*
X190480000Y-83660000D03*
X175240000Y-106520000D03*
X190480000Y-86200000D03*
X175240000Y-103980000D03*
X190480000Y-88740000D03*
X175240000Y-101440000D03*
X190480000Y-91280000D03*
X175240000Y-98900000D03*
X190480000Y-93820000D03*
X175240000Y-96360000D03*
X190480000Y-96360000D03*
X175240000Y-93820000D03*
X190480000Y-98900000D03*
X175240000Y-91280000D03*
X190480000Y-101440000D03*
X175240000Y-88740000D03*
X190480000Y-103980000D03*
X175240000Y-86200000D03*
X190480000Y-106520000D03*
X175240000Y-83660000D03*
X190480000Y-109060000D03*
X175240000Y-81120000D03*
X190480000Y-111600000D03*
D15*
X175240000Y-78580000D03*
D13*
X200640000Y-78580000D03*
X200640000Y-81120000D03*
X200640000Y-83660000D03*
X200640000Y-86200000D03*
X200640000Y-88740000D03*
X200640000Y-91280000D03*
X200640000Y-93820000D03*
X200640000Y-96360000D03*
X200640000Y-98900000D03*
X200640000Y-101440000D03*
X200640000Y-103980000D03*
X200640000Y-106520000D03*
X200640000Y-109060000D03*
X200640000Y-111600000D03*
D12*
X200640000Y-114140000D03*
D13*
X165080000Y-114140000D03*
X165080000Y-111600000D03*
X165080000Y-109060000D03*
X165080000Y-106520000D03*
X165080000Y-103980000D03*
X165080000Y-101440000D03*
X165080000Y-98900000D03*
X165080000Y-96360000D03*
X165080000Y-93820000D03*
X165080000Y-91280000D03*
X165080000Y-88740000D03*
X165080000Y-86200000D03*
X165080000Y-83660000D03*
X165080000Y-81120000D03*
D12*
X165080000Y-78580000D03*
D13*
X195560000Y-78580000D03*
X195560000Y-81120000D03*
X195560000Y-83660000D03*
X195560000Y-86200000D03*
X195560000Y-88740000D03*
X195560000Y-91280000D03*
X195560000Y-93820000D03*
X195560000Y-96360000D03*
X195560000Y-98900000D03*
X195560000Y-101440000D03*
X195560000Y-103980000D03*
X195560000Y-106520000D03*
X195560000Y-109060000D03*
X195560000Y-111600000D03*
D12*
X195560000Y-114140000D03*
D13*
X170160000Y-114140000D03*
X170160000Y-111600000D03*
X170160000Y-109060000D03*
X170160000Y-106520000D03*
X170160000Y-103980000D03*
X170160000Y-101440000D03*
X170160000Y-98900000D03*
X170160000Y-96360000D03*
X170160000Y-93820000D03*
X170160000Y-91280000D03*
X170160000Y-88740000D03*
X170160000Y-86200000D03*
X170160000Y-83660000D03*
X170160000Y-81120000D03*
D12*
X170160000Y-78580000D03*
M02*
