M48
; DRILL file {KiCad 5.1.10} date Tue Jun 29 02:58:10 2021
; FORMAT={-:-/ absolute / metric / decimal}
; #@! TF.CreationDate,2021-06-29T02:58:10-05:00
; #@! TF.GenerationSoftware,Kicad,Pcbnew,5.1.10
; #@! TF.FileFunction,Plated,1,2,PTH
FMAT,2
METRIC
T1C0.400
T2C1.000
T3C1.300
%
G90
G05
T1
X57.689Y-135.769
X63.887Y-138.094
X69.134Y-138.113
X70.653Y-136.705
X72.808Y-153.829
X81.256Y-136.124
T2
X57.5Y-132.75
X60.04Y-132.75
X62.58Y-132.75
X65.12Y-132.75
X67.66Y-132.75
X70.2Y-132.75
X72.74Y-132.75
X75.28Y-132.75
X76.154Y-176.72
X77.82Y-132.75
X78.694Y-176.72
X80.36Y-132.75
T3
X41.0Y-158.25
X46.0Y-158.25
X89.0Y-158.25
X94.0Y-158.25
T2
X46.75Y-166.05G85X48.25Y-166.05
G05
X46.75Y-170.5G85X48.25Y-170.5
G05
X46.75Y-174.95G85X48.25Y-174.95
G05
X56.0Y-141.05G85X54.5Y-141.05
G05
X56.0Y-145.5G85X54.5Y-145.5
G05
X56.0Y-149.95G85X54.5Y-149.95
G05
X59.0Y-141.05G85X60.5Y-141.05
G05
X59.0Y-145.5G85X60.5Y-145.5
G05
X59.0Y-149.95G85X60.5Y-149.95
G05
X66.75Y-166.05G85X68.25Y-166.05
G05
X66.75Y-170.5G85X68.25Y-170.5
G05
X66.75Y-174.95G85X68.25Y-174.95
G05
X73.65Y-141.05G85X72.15Y-141.05
G05
X73.65Y-145.5G85X72.15Y-145.5
G05
X73.65Y-149.95G85X72.15Y-149.95
G05
X76.75Y-141.05G85X78.25Y-141.05
G05
X76.75Y-145.5G85X78.25Y-145.5
G05
X76.75Y-149.95G85X78.25Y-149.95
G05
X81.35Y-141.05G85X82.85Y-141.05
G05
X81.35Y-145.5G85X82.85Y-145.5
G05
X81.35Y-149.95G85X82.85Y-149.95
G05
X86.75Y-166.05G85X88.25Y-166.05
G05
X86.75Y-170.5G85X88.25Y-170.5
G05
X86.75Y-174.95G85X88.25Y-174.95
G05
T0
M30
