%FSLAX45Y45*%
G04 Gerber Fmt 4.5, Leading zero omitted, Abs format (unit mm)*
G04 Created by KiCad (PCBNEW 5.1.10) date 2021-05-19 15:30:58*
%MOMM*%
%LPD*%
G01*
G04 APERTURE LIST*
%TA.AperFunction,Profile*%
%ADD10C,0.050000*%
%TD*%
%ADD11C,0.200000*%
%ADD12C,0.300000*%
G04 APERTURE END LIST*
D10*
X21024000Y-5558000D02*
X11024000Y-5558000D01*
X11024000Y-5558000D02*
X11024000Y-13658000D01*
X11024000Y-13658000D02*
X21024000Y-13658000D01*
X21024000Y-13658000D02*
X21024000Y-5558000D01*
D11*
X11596500Y-6528000D02*
X11656500Y-6588000D01*
X11656500Y-6528000D02*
X11596500Y-6588000D01*
X11596500Y-12628000D02*
X11656500Y-12688000D01*
X11656500Y-12628000D02*
X11596500Y-12688000D01*
X11712925Y-6246925D02*
X11772925Y-6306925D01*
X11772925Y-6246925D02*
X11712925Y-6306925D01*
X11712925Y-6809075D02*
X11772925Y-6869075D01*
X11772925Y-6809075D02*
X11712925Y-6869075D01*
X11712925Y-12346925D02*
X11772925Y-12406925D01*
X11772925Y-12346925D02*
X11712925Y-12406925D01*
X11712925Y-12909075D02*
X11772925Y-12969075D01*
X11772925Y-12909075D02*
X11712925Y-12969075D01*
X11994000Y-6130500D02*
X12054000Y-6190500D01*
X12054000Y-6130500D02*
X11994000Y-6190500D01*
X11994000Y-6925500D02*
X12054000Y-6985500D01*
X12054000Y-6925500D02*
X11994000Y-6985500D01*
X11994000Y-12230500D02*
X12054000Y-12290500D01*
X12054000Y-12230500D02*
X11994000Y-12290500D01*
X11994000Y-13025500D02*
X12054000Y-13085500D01*
X12054000Y-13025500D02*
X11994000Y-13085500D01*
X12275075Y-6246925D02*
X12335075Y-6306925D01*
X12335075Y-6246925D02*
X12275075Y-6306925D01*
X12275075Y-6809075D02*
X12335075Y-6869075D01*
X12335075Y-6809075D02*
X12275075Y-6869075D01*
X12275075Y-12346925D02*
X12335075Y-12406925D01*
X12335075Y-12346925D02*
X12275075Y-12406925D01*
X12275075Y-12909075D02*
X12335075Y-12969075D01*
X12335075Y-12909075D02*
X12275075Y-12969075D01*
X12391500Y-6528000D02*
X12451500Y-6588000D01*
X12451500Y-6528000D02*
X12391500Y-6588000D01*
X12391500Y-12628000D02*
X12451500Y-12688000D01*
X12451500Y-12628000D02*
X12391500Y-12688000D01*
X19596500Y-6528000D02*
X19656500Y-6588000D01*
X19656500Y-6528000D02*
X19596500Y-6588000D01*
X19596500Y-12628000D02*
X19656500Y-12688000D01*
X19656500Y-12628000D02*
X19596500Y-12688000D01*
X19712925Y-6246925D02*
X19772925Y-6306925D01*
X19772925Y-6246925D02*
X19712925Y-6306925D01*
X19712925Y-6809075D02*
X19772925Y-6869075D01*
X19772925Y-6809075D02*
X19712925Y-6869075D01*
X19712925Y-12346925D02*
X19772925Y-12406925D01*
X19772925Y-12346925D02*
X19712925Y-12406925D01*
X19712925Y-12909075D02*
X19772925Y-12969075D01*
X19772925Y-12909075D02*
X19712925Y-12969075D01*
X19994000Y-6130500D02*
X20054000Y-6190500D01*
X20054000Y-6130500D02*
X19994000Y-6190500D01*
X19994000Y-6925500D02*
X20054000Y-6985500D01*
X20054000Y-6925500D02*
X19994000Y-6985500D01*
X19994000Y-12230500D02*
X20054000Y-12290500D01*
X20054000Y-12230500D02*
X19994000Y-12290500D01*
X19994000Y-13025500D02*
X20054000Y-13085500D01*
X20054000Y-13025500D02*
X19994000Y-13085500D01*
X20275075Y-6246925D02*
X20335075Y-6306925D01*
X20335075Y-6246925D02*
X20275075Y-6306925D01*
X20275075Y-6809075D02*
X20335075Y-6869075D01*
X20335075Y-6809075D02*
X20275075Y-6869075D01*
X20275075Y-12346925D02*
X20335075Y-12406925D01*
X20335075Y-12346925D02*
X20275075Y-12406925D01*
X20275075Y-12909075D02*
X20335075Y-12969075D01*
X20335075Y-12909075D02*
X20275075Y-12969075D01*
X20391500Y-6528000D02*
X20451500Y-6588000D01*
X20451500Y-6528000D02*
X20391500Y-6588000D01*
X20391500Y-12628000D02*
X20451500Y-12688000D01*
X20451500Y-12628000D02*
X20391500Y-12688000D01*
X13516000Y-7609500D02*
G75*
G03*
X13516000Y-7609500I-40000J0D01*
G01*
X13516000Y-7859500D02*
G75*
G03*
X13516000Y-7859500I-40000J0D01*
G01*
X13516000Y-10159500D02*
G75*
G03*
X13516000Y-10159500I-40000J0D01*
G01*
X13516000Y-10409500D02*
G75*
G03*
X13516000Y-10409500I-40000J0D01*
G01*
X13516000Y-12709500D02*
G75*
G03*
X13516000Y-12709500I-40000J0D01*
G01*
X13516000Y-12959500D02*
G75*
G03*
X13516000Y-12959500I-40000J0D01*
G01*
X14024000Y-6145000D02*
G75*
G03*
X14024000Y-6145000I-40000J0D01*
G01*
X14024000Y-6399000D02*
G75*
G03*
X14024000Y-6399000I-40000J0D01*
G01*
X14024000Y-6653000D02*
G75*
G03*
X14024000Y-6653000I-40000J0D01*
G01*
X14024000Y-6907000D02*
G75*
G03*
X14024000Y-6907000I-40000J0D01*
G01*
X14024000Y-7161000D02*
G75*
G03*
X14024000Y-7161000I-40000J0D01*
G01*
X14024000Y-7415000D02*
G75*
G03*
X14024000Y-7415000I-40000J0D01*
G01*
X14024000Y-7669000D02*
G75*
G03*
X14024000Y-7669000I-40000J0D01*
G01*
X14024000Y-7923000D02*
G75*
G03*
X14024000Y-7923000I-40000J0D01*
G01*
X14024000Y-8695000D02*
G75*
G03*
X14024000Y-8695000I-40000J0D01*
G01*
X14024000Y-8949000D02*
G75*
G03*
X14024000Y-8949000I-40000J0D01*
G01*
X14024000Y-9203000D02*
G75*
G03*
X14024000Y-9203000I-40000J0D01*
G01*
X14024000Y-9457000D02*
G75*
G03*
X14024000Y-9457000I-40000J0D01*
G01*
X14024000Y-9711000D02*
G75*
G03*
X14024000Y-9711000I-40000J0D01*
G01*
X14024000Y-9965000D02*
G75*
G03*
X14024000Y-9965000I-40000J0D01*
G01*
X14024000Y-10219000D02*
G75*
G03*
X14024000Y-10219000I-40000J0D01*
G01*
X14024000Y-10473000D02*
G75*
G03*
X14024000Y-10473000I-40000J0D01*
G01*
X14024000Y-11245000D02*
G75*
G03*
X14024000Y-11245000I-40000J0D01*
G01*
X14024000Y-11499000D02*
G75*
G03*
X14024000Y-11499000I-40000J0D01*
G01*
X14024000Y-11753000D02*
G75*
G03*
X14024000Y-11753000I-40000J0D01*
G01*
X14024000Y-12007000D02*
G75*
G03*
X14024000Y-12007000I-40000J0D01*
G01*
X14024000Y-12261000D02*
G75*
G03*
X14024000Y-12261000I-40000J0D01*
G01*
X14024000Y-12515000D02*
G75*
G03*
X14024000Y-12515000I-40000J0D01*
G01*
X14024000Y-12769000D02*
G75*
G03*
X14024000Y-12769000I-40000J0D01*
G01*
X14024000Y-13023000D02*
G75*
G03*
X14024000Y-13023000I-40000J0D01*
G01*
X14278000Y-6970500D02*
G75*
G03*
X14278000Y-6970500I-40000J0D01*
G01*
X14278000Y-7288000D02*
G75*
G03*
X14278000Y-7288000I-40000J0D01*
G01*
X14278000Y-7605500D02*
G75*
G03*
X14278000Y-7605500I-40000J0D01*
G01*
X14278000Y-7923000D02*
G75*
G03*
X14278000Y-7923000I-40000J0D01*
G01*
X14278000Y-9520500D02*
G75*
G03*
X14278000Y-9520500I-40000J0D01*
G01*
X14278000Y-9838000D02*
G75*
G03*
X14278000Y-9838000I-40000J0D01*
G01*
X14278000Y-10155500D02*
G75*
G03*
X14278000Y-10155500I-40000J0D01*
G01*
X14278000Y-10473000D02*
G75*
G03*
X14278000Y-10473000I-40000J0D01*
G01*
X14278000Y-12070500D02*
G75*
G03*
X14278000Y-12070500I-40000J0D01*
G01*
X14278000Y-12388000D02*
G75*
G03*
X14278000Y-12388000I-40000J0D01*
G01*
X14278000Y-12705500D02*
G75*
G03*
X14278000Y-12705500I-40000J0D01*
G01*
X14278000Y-13023000D02*
G75*
G03*
X14278000Y-13023000I-40000J0D01*
G01*
X15040000Y-6970500D02*
G75*
G03*
X15040000Y-6970500I-40000J0D01*
G01*
X15040000Y-7288000D02*
G75*
G03*
X15040000Y-7288000I-40000J0D01*
G01*
X15040000Y-7605500D02*
G75*
G03*
X15040000Y-7605500I-40000J0D01*
G01*
X15040000Y-7923000D02*
G75*
G03*
X15040000Y-7923000I-40000J0D01*
G01*
X15040000Y-9520500D02*
G75*
G03*
X15040000Y-9520500I-40000J0D01*
G01*
X15040000Y-9838000D02*
G75*
G03*
X15040000Y-9838000I-40000J0D01*
G01*
X15040000Y-10155500D02*
G75*
G03*
X15040000Y-10155500I-40000J0D01*
G01*
X15040000Y-10473000D02*
G75*
G03*
X15040000Y-10473000I-40000J0D01*
G01*
X15040000Y-12070500D02*
G75*
G03*
X15040000Y-12070500I-40000J0D01*
G01*
X15040000Y-12388000D02*
G75*
G03*
X15040000Y-12388000I-40000J0D01*
G01*
X15040000Y-12705500D02*
G75*
G03*
X15040000Y-12705500I-40000J0D01*
G01*
X15040000Y-13023000D02*
G75*
G03*
X15040000Y-13023000I-40000J0D01*
G01*
X15294000Y-6145000D02*
G75*
G03*
X15294000Y-6145000I-40000J0D01*
G01*
X15294000Y-6399000D02*
G75*
G03*
X15294000Y-6399000I-40000J0D01*
G01*
X15294000Y-6653000D02*
G75*
G03*
X15294000Y-6653000I-40000J0D01*
G01*
X15294000Y-6907000D02*
G75*
G03*
X15294000Y-6907000I-40000J0D01*
G01*
X15294000Y-7161000D02*
G75*
G03*
X15294000Y-7161000I-40000J0D01*
G01*
X15294000Y-7415000D02*
G75*
G03*
X15294000Y-7415000I-40000J0D01*
G01*
X15294000Y-7669000D02*
G75*
G03*
X15294000Y-7669000I-40000J0D01*
G01*
X15294000Y-7923000D02*
G75*
G03*
X15294000Y-7923000I-40000J0D01*
G01*
X15294000Y-8695000D02*
G75*
G03*
X15294000Y-8695000I-40000J0D01*
G01*
X15294000Y-8949000D02*
G75*
G03*
X15294000Y-8949000I-40000J0D01*
G01*
X15294000Y-9203000D02*
G75*
G03*
X15294000Y-9203000I-40000J0D01*
G01*
X15294000Y-9457000D02*
G75*
G03*
X15294000Y-9457000I-40000J0D01*
G01*
X15294000Y-9711000D02*
G75*
G03*
X15294000Y-9711000I-40000J0D01*
G01*
X15294000Y-9965000D02*
G75*
G03*
X15294000Y-9965000I-40000J0D01*
G01*
X15294000Y-10219000D02*
G75*
G03*
X15294000Y-10219000I-40000J0D01*
G01*
X15294000Y-10473000D02*
G75*
G03*
X15294000Y-10473000I-40000J0D01*
G01*
X15294000Y-11245000D02*
G75*
G03*
X15294000Y-11245000I-40000J0D01*
G01*
X15294000Y-11499000D02*
G75*
G03*
X15294000Y-11499000I-40000J0D01*
G01*
X15294000Y-11753000D02*
G75*
G03*
X15294000Y-11753000I-40000J0D01*
G01*
X15294000Y-12007000D02*
G75*
G03*
X15294000Y-12007000I-40000J0D01*
G01*
X15294000Y-12261000D02*
G75*
G03*
X15294000Y-12261000I-40000J0D01*
G01*
X15294000Y-12515000D02*
G75*
G03*
X15294000Y-12515000I-40000J0D01*
G01*
X15294000Y-12769000D02*
G75*
G03*
X15294000Y-12769000I-40000J0D01*
G01*
X15294000Y-13023000D02*
G75*
G03*
X15294000Y-13023000I-40000J0D01*
G01*
X13412500Y-6236500D02*
X13412500Y-6331500D01*
X13365000Y-6284000D02*
X13460000Y-6284000D01*
X13412500Y-6486500D02*
X13412500Y-6581500D01*
X13365000Y-6534000D02*
X13460000Y-6534000D01*
X13412500Y-6736500D02*
X13412500Y-6831500D01*
X13365000Y-6784000D02*
X13460000Y-6784000D01*
X13412500Y-6986500D02*
X13412500Y-7081500D01*
X13365000Y-7034000D02*
X13460000Y-7034000D01*
X13412500Y-8786500D02*
X13412500Y-8881500D01*
X13365000Y-8834000D02*
X13460000Y-8834000D01*
X13412500Y-9036500D02*
X13412500Y-9131500D01*
X13365000Y-9084000D02*
X13460000Y-9084000D01*
X13412500Y-9286500D02*
X13412500Y-9381500D01*
X13365000Y-9334000D02*
X13460000Y-9334000D01*
X13412500Y-9536500D02*
X13412500Y-9631500D01*
X13365000Y-9584000D02*
X13460000Y-9584000D01*
X13412500Y-11336500D02*
X13412500Y-11431500D01*
X13365000Y-11384000D02*
X13460000Y-11384000D01*
X13412500Y-11586500D02*
X13412500Y-11681500D01*
X13365000Y-11634000D02*
X13460000Y-11634000D01*
X13412500Y-11836500D02*
X13412500Y-11931500D01*
X13365000Y-11884000D02*
X13460000Y-11884000D01*
X13412500Y-12086500D02*
X13412500Y-12181500D01*
X13365000Y-12134000D02*
X13460000Y-12134000D01*
X14400356Y-6180356D02*
X14400356Y-6109644D01*
X14329644Y-6109644D01*
X14329644Y-6180356D01*
X14400356Y-6180356D01*
X14400356Y-6434356D02*
X14400356Y-6363644D01*
X14329644Y-6363644D01*
X14329644Y-6434356D01*
X14400356Y-6434356D01*
X14400356Y-6688356D02*
X14400356Y-6617644D01*
X14329644Y-6617644D01*
X14329644Y-6688356D01*
X14400356Y-6688356D01*
X14400356Y-8730356D02*
X14400356Y-8659644D01*
X14329644Y-8659644D01*
X14329644Y-8730356D01*
X14400356Y-8730356D01*
X14400356Y-8984356D02*
X14400356Y-8913644D01*
X14329644Y-8913644D01*
X14329644Y-8984356D01*
X14400356Y-8984356D01*
X14400356Y-9238356D02*
X14400356Y-9167644D01*
X14329644Y-9167644D01*
X14329644Y-9238356D01*
X14400356Y-9238356D01*
X14400356Y-11280356D02*
X14400356Y-11209644D01*
X14329644Y-11209644D01*
X14329644Y-11280356D01*
X14400356Y-11280356D01*
X14400356Y-11534356D02*
X14400356Y-11463644D01*
X14329644Y-11463644D01*
X14329644Y-11534356D01*
X14400356Y-11534356D01*
X14400356Y-11788356D02*
X14400356Y-11717644D01*
X14329644Y-11717644D01*
X14329644Y-11788356D01*
X14400356Y-11788356D01*
X14654356Y-6180356D02*
X14654356Y-6109644D01*
X14583644Y-6109644D01*
X14583644Y-6180356D01*
X14654356Y-6180356D01*
X14654356Y-6434356D02*
X14654356Y-6363644D01*
X14583644Y-6363644D01*
X14583644Y-6434356D01*
X14654356Y-6434356D01*
X14654356Y-6688356D02*
X14654356Y-6617644D01*
X14583644Y-6617644D01*
X14583644Y-6688356D01*
X14654356Y-6688356D01*
X14654356Y-8730356D02*
X14654356Y-8659644D01*
X14583644Y-8659644D01*
X14583644Y-8730356D01*
X14654356Y-8730356D01*
X14654356Y-8984356D02*
X14654356Y-8913644D01*
X14583644Y-8913644D01*
X14583644Y-8984356D01*
X14654356Y-8984356D01*
X14654356Y-9238356D02*
X14654356Y-9167644D01*
X14583644Y-9167644D01*
X14583644Y-9238356D01*
X14654356Y-9238356D01*
X14654356Y-11280356D02*
X14654356Y-11209644D01*
X14583644Y-11209644D01*
X14583644Y-11280356D01*
X14654356Y-11280356D01*
X14654356Y-11534356D02*
X14654356Y-11463644D01*
X14583644Y-11463644D01*
X14583644Y-11534356D01*
X14654356Y-11534356D01*
X14654356Y-11788356D02*
X14654356Y-11717644D01*
X14583644Y-11717644D01*
X14583644Y-11788356D01*
X14654356Y-11788356D01*
X15606856Y-7450356D02*
X15606856Y-7379644D01*
X15536144Y-7379644D01*
X15536144Y-7450356D01*
X15606856Y-7450356D01*
X15606856Y-7704356D02*
X15606856Y-7633644D01*
X15536144Y-7633644D01*
X15536144Y-7704356D01*
X15606856Y-7704356D01*
X15606856Y-7958356D02*
X15606856Y-7887644D01*
X15536144Y-7887644D01*
X15536144Y-7958356D01*
X15606856Y-7958356D01*
X15606856Y-10000356D02*
X15606856Y-9929644D01*
X15536144Y-9929644D01*
X15536144Y-10000356D01*
X15606856Y-10000356D01*
X15606856Y-10254356D02*
X15606856Y-10183644D01*
X15536144Y-10183644D01*
X15536144Y-10254356D01*
X15606856Y-10254356D01*
X15606856Y-10508356D02*
X15606856Y-10437644D01*
X15536144Y-10437644D01*
X15536144Y-10508356D01*
X15606856Y-10508356D01*
X15606856Y-12550356D02*
X15606856Y-12479644D01*
X15536144Y-12479644D01*
X15536144Y-12550356D01*
X15606856Y-12550356D01*
X15606856Y-12804356D02*
X15606856Y-12733644D01*
X15536144Y-12733644D01*
X15536144Y-12804356D01*
X15606856Y-12804356D01*
X15606856Y-13058356D02*
X15606856Y-12987644D01*
X15536144Y-12987644D01*
X15536144Y-13058356D01*
X15606856Y-13058356D01*
X16543356Y-7893356D02*
X16543356Y-7822644D01*
X16472644Y-7822644D01*
X16472644Y-7893356D01*
X16543356Y-7893356D01*
X16543356Y-8147356D02*
X16543356Y-8076644D01*
X16472644Y-8076644D01*
X16472644Y-8147356D01*
X16543356Y-8147356D01*
X16543356Y-8401356D02*
X16543356Y-8330644D01*
X16472644Y-8330644D01*
X16472644Y-8401356D01*
X16543356Y-8401356D01*
X16543356Y-8655356D02*
X16543356Y-8584644D01*
X16472644Y-8584644D01*
X16472644Y-8655356D01*
X16543356Y-8655356D01*
X16543356Y-8909356D02*
X16543356Y-8838644D01*
X16472644Y-8838644D01*
X16472644Y-8909356D01*
X16543356Y-8909356D01*
X16543356Y-9163356D02*
X16543356Y-9092644D01*
X16472644Y-9092644D01*
X16472644Y-9163356D01*
X16543356Y-9163356D01*
X16543356Y-9417356D02*
X16543356Y-9346644D01*
X16472644Y-9346644D01*
X16472644Y-9417356D01*
X16543356Y-9417356D01*
X16543356Y-9671356D02*
X16543356Y-9600644D01*
X16472644Y-9600644D01*
X16472644Y-9671356D01*
X16543356Y-9671356D01*
X16543356Y-9925356D02*
X16543356Y-9854644D01*
X16472644Y-9854644D01*
X16472644Y-9925356D01*
X16543356Y-9925356D01*
X16543356Y-10179356D02*
X16543356Y-10108644D01*
X16472644Y-10108644D01*
X16472644Y-10179356D01*
X16543356Y-10179356D01*
X16543356Y-10433356D02*
X16543356Y-10362644D01*
X16472644Y-10362644D01*
X16472644Y-10433356D01*
X16543356Y-10433356D01*
X16543356Y-10687356D02*
X16543356Y-10616644D01*
X16472644Y-10616644D01*
X16472644Y-10687356D01*
X16543356Y-10687356D01*
X16543356Y-10941356D02*
X16543356Y-10870644D01*
X16472644Y-10870644D01*
X16472644Y-10941356D01*
X16543356Y-10941356D01*
X16543356Y-11195356D02*
X16543356Y-11124644D01*
X16472644Y-11124644D01*
X16472644Y-11195356D01*
X16543356Y-11195356D01*
X16543356Y-11449356D02*
X16543356Y-11378644D01*
X16472644Y-11378644D01*
X16472644Y-11449356D01*
X16543356Y-11449356D01*
X16939356Y-6585356D02*
X16939356Y-6514644D01*
X16868644Y-6514644D01*
X16868644Y-6585356D01*
X16939356Y-6585356D01*
X16939356Y-6839356D02*
X16939356Y-6768644D01*
X16868644Y-6768644D01*
X16868644Y-6839356D01*
X16939356Y-6839356D01*
X16939356Y-7093356D02*
X16939356Y-7022644D01*
X16868644Y-7022644D01*
X16868644Y-7093356D01*
X16939356Y-7093356D01*
X17051356Y-7893356D02*
X17051356Y-7822644D01*
X16980644Y-7822644D01*
X16980644Y-7893356D01*
X17051356Y-7893356D01*
X17051356Y-8147356D02*
X17051356Y-8076644D01*
X16980644Y-8076644D01*
X16980644Y-8147356D01*
X17051356Y-8147356D01*
X17051356Y-8401356D02*
X17051356Y-8330644D01*
X16980644Y-8330644D01*
X16980644Y-8401356D01*
X17051356Y-8401356D01*
X17051356Y-8655356D02*
X17051356Y-8584644D01*
X16980644Y-8584644D01*
X16980644Y-8655356D01*
X17051356Y-8655356D01*
X17051356Y-8909356D02*
X17051356Y-8838644D01*
X16980644Y-8838644D01*
X16980644Y-8909356D01*
X17051356Y-8909356D01*
X17051356Y-9163356D02*
X17051356Y-9092644D01*
X16980644Y-9092644D01*
X16980644Y-9163356D01*
X17051356Y-9163356D01*
X17051356Y-9417356D02*
X17051356Y-9346644D01*
X16980644Y-9346644D01*
X16980644Y-9417356D01*
X17051356Y-9417356D01*
X17051356Y-9671356D02*
X17051356Y-9600644D01*
X16980644Y-9600644D01*
X16980644Y-9671356D01*
X17051356Y-9671356D01*
X17051356Y-9925356D02*
X17051356Y-9854644D01*
X16980644Y-9854644D01*
X16980644Y-9925356D01*
X17051356Y-9925356D01*
X17051356Y-10179356D02*
X17051356Y-10108644D01*
X16980644Y-10108644D01*
X16980644Y-10179356D01*
X17051356Y-10179356D01*
X17051356Y-10433356D02*
X17051356Y-10362644D01*
X16980644Y-10362644D01*
X16980644Y-10433356D01*
X17051356Y-10433356D01*
X17051356Y-10687356D02*
X17051356Y-10616644D01*
X16980644Y-10616644D01*
X16980644Y-10687356D01*
X17051356Y-10687356D01*
X17051356Y-10941356D02*
X17051356Y-10870644D01*
X16980644Y-10870644D01*
X16980644Y-10941356D01*
X17051356Y-10941356D01*
X17051356Y-11195356D02*
X17051356Y-11124644D01*
X16980644Y-11124644D01*
X16980644Y-11195356D01*
X17051356Y-11195356D01*
X17051356Y-11449356D02*
X17051356Y-11378644D01*
X16980644Y-11378644D01*
X16980644Y-11449356D01*
X17051356Y-11449356D01*
X17193356Y-6585356D02*
X17193356Y-6514644D01*
X17122644Y-6514644D01*
X17122644Y-6585356D01*
X17193356Y-6585356D01*
X17193356Y-6839356D02*
X17193356Y-6768644D01*
X17122644Y-6768644D01*
X17122644Y-6839356D01*
X17193356Y-6839356D01*
X17193356Y-7093356D02*
X17193356Y-7022644D01*
X17122644Y-7022644D01*
X17122644Y-7093356D01*
X17193356Y-7093356D01*
X17447356Y-6585356D02*
X17447356Y-6514644D01*
X17376644Y-6514644D01*
X17376644Y-6585356D01*
X17447356Y-6585356D01*
X17447356Y-6839356D02*
X17447356Y-6768644D01*
X17376644Y-6768644D01*
X17376644Y-6839356D01*
X17447356Y-6839356D01*
X17447356Y-7093356D02*
X17447356Y-7022644D01*
X17376644Y-7022644D01*
X17376644Y-7093356D01*
X17447356Y-7093356D01*
X17559356Y-7893356D02*
X17559356Y-7822644D01*
X17488644Y-7822644D01*
X17488644Y-7893356D01*
X17559356Y-7893356D01*
X17559356Y-8147356D02*
X17559356Y-8076644D01*
X17488644Y-8076644D01*
X17488644Y-8147356D01*
X17559356Y-8147356D01*
X17559356Y-8401356D02*
X17559356Y-8330644D01*
X17488644Y-8330644D01*
X17488644Y-8401356D01*
X17559356Y-8401356D01*
X17559356Y-8655356D02*
X17559356Y-8584644D01*
X17488644Y-8584644D01*
X17488644Y-8655356D01*
X17559356Y-8655356D01*
X17559356Y-8909356D02*
X17559356Y-8838644D01*
X17488644Y-8838644D01*
X17488644Y-8909356D01*
X17559356Y-8909356D01*
X17559356Y-9163356D02*
X17559356Y-9092644D01*
X17488644Y-9092644D01*
X17488644Y-9163356D01*
X17559356Y-9163356D01*
X17559356Y-9417356D02*
X17559356Y-9346644D01*
X17488644Y-9346644D01*
X17488644Y-9417356D01*
X17559356Y-9417356D01*
X17559356Y-9671356D02*
X17559356Y-9600644D01*
X17488644Y-9600644D01*
X17488644Y-9671356D01*
X17559356Y-9671356D01*
X17559356Y-9925356D02*
X17559356Y-9854644D01*
X17488644Y-9854644D01*
X17488644Y-9925356D01*
X17559356Y-9925356D01*
X17559356Y-10179356D02*
X17559356Y-10108644D01*
X17488644Y-10108644D01*
X17488644Y-10179356D01*
X17559356Y-10179356D01*
X17559356Y-10433356D02*
X17559356Y-10362644D01*
X17488644Y-10362644D01*
X17488644Y-10433356D01*
X17559356Y-10433356D01*
X17559356Y-10687356D02*
X17559356Y-10616644D01*
X17488644Y-10616644D01*
X17488644Y-10687356D01*
X17559356Y-10687356D01*
X17559356Y-10941356D02*
X17559356Y-10870644D01*
X17488644Y-10870644D01*
X17488644Y-10941356D01*
X17559356Y-10941356D01*
X17559356Y-11195356D02*
X17559356Y-11124644D01*
X17488644Y-11124644D01*
X17488644Y-11195356D01*
X17559356Y-11195356D01*
X17559356Y-11449356D02*
X17559356Y-11378644D01*
X17488644Y-11378644D01*
X17488644Y-11449356D01*
X17559356Y-11449356D01*
X17701356Y-6585356D02*
X17701356Y-6514644D01*
X17630644Y-6514644D01*
X17630644Y-6585356D01*
X17701356Y-6585356D01*
X17701356Y-6839356D02*
X17701356Y-6768644D01*
X17630644Y-6768644D01*
X17630644Y-6839356D01*
X17701356Y-6839356D01*
X17701356Y-7093356D02*
X17701356Y-7022644D01*
X17630644Y-7022644D01*
X17630644Y-7093356D01*
X17701356Y-7093356D01*
X17955356Y-6585356D02*
X17955356Y-6514644D01*
X17884644Y-6514644D01*
X17884644Y-6585356D01*
X17955356Y-6585356D01*
X17955356Y-6839356D02*
X17955356Y-6768644D01*
X17884644Y-6768644D01*
X17884644Y-6839356D01*
X17955356Y-6839356D01*
X17955356Y-7093356D02*
X17955356Y-7022644D01*
X17884644Y-7022644D01*
X17884644Y-7093356D01*
X17955356Y-7093356D01*
X18209356Y-6585356D02*
X18209356Y-6514644D01*
X18138644Y-6514644D01*
X18138644Y-6585356D01*
X18209356Y-6585356D01*
X18209356Y-6839356D02*
X18209356Y-6768644D01*
X18138644Y-6768644D01*
X18138644Y-6839356D01*
X18209356Y-6839356D01*
X18209356Y-7093356D02*
X18209356Y-7022644D01*
X18138644Y-7022644D01*
X18138644Y-7093356D01*
X18209356Y-7093356D01*
X19083356Y-7893356D02*
X19083356Y-7822644D01*
X19012644Y-7822644D01*
X19012644Y-7893356D01*
X19083356Y-7893356D01*
X19083356Y-8147356D02*
X19083356Y-8076644D01*
X19012644Y-8076644D01*
X19012644Y-8147356D01*
X19083356Y-8147356D01*
X19083356Y-8401356D02*
X19083356Y-8330644D01*
X19012644Y-8330644D01*
X19012644Y-8401356D01*
X19083356Y-8401356D01*
X19083356Y-8655356D02*
X19083356Y-8584644D01*
X19012644Y-8584644D01*
X19012644Y-8655356D01*
X19083356Y-8655356D01*
X19083356Y-8909356D02*
X19083356Y-8838644D01*
X19012644Y-8838644D01*
X19012644Y-8909356D01*
X19083356Y-8909356D01*
X19083356Y-9163356D02*
X19083356Y-9092644D01*
X19012644Y-9092644D01*
X19012644Y-9163356D01*
X19083356Y-9163356D01*
X19083356Y-9417356D02*
X19083356Y-9346644D01*
X19012644Y-9346644D01*
X19012644Y-9417356D01*
X19083356Y-9417356D01*
X19083356Y-9671356D02*
X19083356Y-9600644D01*
X19012644Y-9600644D01*
X19012644Y-9671356D01*
X19083356Y-9671356D01*
X19083356Y-9925356D02*
X19083356Y-9854644D01*
X19012644Y-9854644D01*
X19012644Y-9925356D01*
X19083356Y-9925356D01*
X19083356Y-10179356D02*
X19083356Y-10108644D01*
X19012644Y-10108644D01*
X19012644Y-10179356D01*
X19083356Y-10179356D01*
X19083356Y-10433356D02*
X19083356Y-10362644D01*
X19012644Y-10362644D01*
X19012644Y-10433356D01*
X19083356Y-10433356D01*
X19083356Y-10687356D02*
X19083356Y-10616644D01*
X19012644Y-10616644D01*
X19012644Y-10687356D01*
X19083356Y-10687356D01*
X19083356Y-10941356D02*
X19083356Y-10870644D01*
X19012644Y-10870644D01*
X19012644Y-10941356D01*
X19083356Y-10941356D01*
X19083356Y-11195356D02*
X19083356Y-11124644D01*
X19012644Y-11124644D01*
X19012644Y-11195356D01*
X19083356Y-11195356D01*
X19083356Y-11449356D02*
X19083356Y-11378644D01*
X19012644Y-11378644D01*
X19012644Y-11449356D01*
X19083356Y-11449356D01*
X19591356Y-7893356D02*
X19591356Y-7822644D01*
X19520644Y-7822644D01*
X19520644Y-7893356D01*
X19591356Y-7893356D01*
X19591356Y-8147356D02*
X19591356Y-8076644D01*
X19520644Y-8076644D01*
X19520644Y-8147356D01*
X19591356Y-8147356D01*
X19591356Y-8401356D02*
X19591356Y-8330644D01*
X19520644Y-8330644D01*
X19520644Y-8401356D01*
X19591356Y-8401356D01*
X19591356Y-8655356D02*
X19591356Y-8584644D01*
X19520644Y-8584644D01*
X19520644Y-8655356D01*
X19591356Y-8655356D01*
X19591356Y-8909356D02*
X19591356Y-8838644D01*
X19520644Y-8838644D01*
X19520644Y-8909356D01*
X19591356Y-8909356D01*
X19591356Y-9163356D02*
X19591356Y-9092644D01*
X19520644Y-9092644D01*
X19520644Y-9163356D01*
X19591356Y-9163356D01*
X19591356Y-9417356D02*
X19591356Y-9346644D01*
X19520644Y-9346644D01*
X19520644Y-9417356D01*
X19591356Y-9417356D01*
X19591356Y-9671356D02*
X19591356Y-9600644D01*
X19520644Y-9600644D01*
X19520644Y-9671356D01*
X19591356Y-9671356D01*
X19591356Y-9925356D02*
X19591356Y-9854644D01*
X19520644Y-9854644D01*
X19520644Y-9925356D01*
X19591356Y-9925356D01*
X19591356Y-10179356D02*
X19591356Y-10108644D01*
X19520644Y-10108644D01*
X19520644Y-10179356D01*
X19591356Y-10179356D01*
X19591356Y-10433356D02*
X19591356Y-10362644D01*
X19520644Y-10362644D01*
X19520644Y-10433356D01*
X19591356Y-10433356D01*
X19591356Y-10687356D02*
X19591356Y-10616644D01*
X19520644Y-10616644D01*
X19520644Y-10687356D01*
X19591356Y-10687356D01*
X19591356Y-10941356D02*
X19591356Y-10870644D01*
X19520644Y-10870644D01*
X19520644Y-10941356D01*
X19591356Y-10941356D01*
X19591356Y-11195356D02*
X19591356Y-11124644D01*
X19520644Y-11124644D01*
X19520644Y-11195356D01*
X19591356Y-11195356D01*
X19591356Y-11449356D02*
X19591356Y-11378644D01*
X19520644Y-11378644D01*
X19520644Y-11449356D01*
X19591356Y-11449356D01*
X20099356Y-7893356D02*
X20099356Y-7822644D01*
X20028644Y-7822644D01*
X20028644Y-7893356D01*
X20099356Y-7893356D01*
X20099356Y-8147356D02*
X20099356Y-8076644D01*
X20028644Y-8076644D01*
X20028644Y-8147356D01*
X20099356Y-8147356D01*
X20099356Y-8401356D02*
X20099356Y-8330644D01*
X20028644Y-8330644D01*
X20028644Y-8401356D01*
X20099356Y-8401356D01*
X20099356Y-8655356D02*
X20099356Y-8584644D01*
X20028644Y-8584644D01*
X20028644Y-8655356D01*
X20099356Y-8655356D01*
X20099356Y-8909356D02*
X20099356Y-8838644D01*
X20028644Y-8838644D01*
X20028644Y-8909356D01*
X20099356Y-8909356D01*
X20099356Y-9163356D02*
X20099356Y-9092644D01*
X20028644Y-9092644D01*
X20028644Y-9163356D01*
X20099356Y-9163356D01*
X20099356Y-9417356D02*
X20099356Y-9346644D01*
X20028644Y-9346644D01*
X20028644Y-9417356D01*
X20099356Y-9417356D01*
X20099356Y-9671356D02*
X20099356Y-9600644D01*
X20028644Y-9600644D01*
X20028644Y-9671356D01*
X20099356Y-9671356D01*
X20099356Y-9925356D02*
X20099356Y-9854644D01*
X20028644Y-9854644D01*
X20028644Y-9925356D01*
X20099356Y-9925356D01*
X20099356Y-10179356D02*
X20099356Y-10108644D01*
X20028644Y-10108644D01*
X20028644Y-10179356D01*
X20099356Y-10179356D01*
X20099356Y-10433356D02*
X20099356Y-10362644D01*
X20028644Y-10362644D01*
X20028644Y-10433356D01*
X20099356Y-10433356D01*
X20099356Y-10687356D02*
X20099356Y-10616644D01*
X20028644Y-10616644D01*
X20028644Y-10687356D01*
X20099356Y-10687356D01*
X20099356Y-10941356D02*
X20099356Y-10870644D01*
X20028644Y-10870644D01*
X20028644Y-10941356D01*
X20099356Y-10941356D01*
X20099356Y-11195356D02*
X20099356Y-11124644D01*
X20028644Y-11124644D01*
X20028644Y-11195356D01*
X20099356Y-11195356D01*
X20099356Y-11449356D02*
X20099356Y-11378644D01*
X20028644Y-11378644D01*
X20028644Y-11449356D01*
X20099356Y-11449356D01*
X12024000Y-9809500D02*
X12089000Y-9744500D01*
X12024000Y-9679500D01*
X11959000Y-9744500D01*
X12024000Y-9809500D01*
X12024000Y-10309500D02*
X12089000Y-10244500D01*
X12024000Y-10179500D01*
X11959000Y-10244500D01*
X12024000Y-10309500D01*
X12024000Y-10823000D02*
X12089000Y-10758000D01*
X12024000Y-10693000D01*
X11959000Y-10758000D01*
X12024000Y-10823000D01*
X12024000Y-11323000D02*
X12089000Y-11258000D01*
X12024000Y-11193000D01*
X11959000Y-11258000D01*
X12024000Y-11323000D01*
X11759000Y-6293000D02*
X12289000Y-6823000D01*
X12289000Y-6293000D02*
X11759000Y-6823000D01*
X12289000Y-6558000D02*
G75*
G03*
X12289000Y-6558000I-265000J0D01*
G01*
X11759000Y-12393000D02*
X12289000Y-12923000D01*
X12289000Y-12393000D02*
X11759000Y-12923000D01*
X12289000Y-12658000D02*
G75*
G03*
X12289000Y-12658000I-265000J0D01*
G01*
X19759000Y-6293000D02*
X20289000Y-6823000D01*
X20289000Y-6293000D02*
X19759000Y-6823000D01*
X20289000Y-6558000D02*
G75*
G03*
X20289000Y-6558000I-265000J0D01*
G01*
X19759000Y-12393000D02*
X20289000Y-12923000D01*
X20289000Y-12393000D02*
X19759000Y-12923000D01*
X20289000Y-12658000D02*
G75*
G03*
X20289000Y-12658000I-265000J0D01*
G01*
D12*
X11307928Y-14126214D02*
X11307928Y-13826214D01*
X11379357Y-13826214D01*
X11422214Y-13840500D01*
X11450786Y-13869071D01*
X11465071Y-13897643D01*
X11479357Y-13954786D01*
X11479357Y-13997643D01*
X11465071Y-14054786D01*
X11450786Y-14083357D01*
X11422214Y-14111929D01*
X11379357Y-14126214D01*
X11307928Y-14126214D01*
X11607928Y-14126214D02*
X11607928Y-13926214D01*
X11607928Y-13983357D02*
X11622214Y-13954786D01*
X11636500Y-13940500D01*
X11665071Y-13926214D01*
X11693643Y-13926214D01*
X11793643Y-14126214D02*
X11793643Y-13926214D01*
X11793643Y-13826214D02*
X11779357Y-13840500D01*
X11793643Y-13854786D01*
X11807928Y-13840500D01*
X11793643Y-13826214D01*
X11793643Y-13854786D01*
X11979357Y-14126214D02*
X11950786Y-14111929D01*
X11936500Y-14083357D01*
X11936500Y-13826214D01*
X12136500Y-14126214D02*
X12107928Y-14111929D01*
X12093643Y-14083357D01*
X12093643Y-13826214D01*
X12479357Y-14126214D02*
X12479357Y-13826214D01*
X12579357Y-14040500D01*
X12679357Y-13826214D01*
X12679357Y-14126214D01*
X12950786Y-14126214D02*
X12950786Y-13969071D01*
X12936500Y-13940500D01*
X12907928Y-13926214D01*
X12850786Y-13926214D01*
X12822214Y-13940500D01*
X12950786Y-14111929D02*
X12922214Y-14126214D01*
X12850786Y-14126214D01*
X12822214Y-14111929D01*
X12807928Y-14083357D01*
X12807928Y-14054786D01*
X12822214Y-14026214D01*
X12850786Y-14011929D01*
X12922214Y-14011929D01*
X12950786Y-13997643D01*
X13093643Y-13926214D02*
X13093643Y-14226214D01*
X13093643Y-13940500D02*
X13122214Y-13926214D01*
X13179357Y-13926214D01*
X13207928Y-13940500D01*
X13222214Y-13954786D01*
X13236500Y-13983357D01*
X13236500Y-14069071D01*
X13222214Y-14097643D01*
X13207928Y-14111929D01*
X13179357Y-14126214D01*
X13122214Y-14126214D01*
X13093643Y-14111929D01*
X13365071Y-14097643D02*
X13379357Y-14111929D01*
X13365071Y-14126214D01*
X13350786Y-14111929D01*
X13365071Y-14097643D01*
X13365071Y-14126214D01*
X13365071Y-13940500D02*
X13379357Y-13954786D01*
X13365071Y-13969071D01*
X13350786Y-13954786D01*
X13365071Y-13940500D01*
X13365071Y-13969071D01*
X10961500Y-14590500D02*
X11021500Y-14650500D01*
X11021500Y-14590500D02*
X10961500Y-14650500D01*
X11365071Y-14456214D02*
X11393643Y-14456214D01*
X11422214Y-14470500D01*
X11436500Y-14484786D01*
X11450786Y-14513357D01*
X11465071Y-14570500D01*
X11465071Y-14641929D01*
X11450786Y-14699071D01*
X11436500Y-14727643D01*
X11422214Y-14741929D01*
X11393643Y-14756214D01*
X11365071Y-14756214D01*
X11336500Y-14741929D01*
X11322214Y-14727643D01*
X11307928Y-14699071D01*
X11293643Y-14641929D01*
X11293643Y-14570500D01*
X11307928Y-14513357D01*
X11322214Y-14484786D01*
X11336500Y-14470500D01*
X11365071Y-14456214D01*
X11593643Y-14727643D02*
X11607928Y-14741929D01*
X11593643Y-14756214D01*
X11579357Y-14741929D01*
X11593643Y-14727643D01*
X11593643Y-14756214D01*
X11865071Y-14456214D02*
X11807928Y-14456214D01*
X11779357Y-14470500D01*
X11765071Y-14484786D01*
X11736500Y-14527643D01*
X11722214Y-14584786D01*
X11722214Y-14699071D01*
X11736500Y-14727643D01*
X11750786Y-14741929D01*
X11779357Y-14756214D01*
X11836500Y-14756214D01*
X11865071Y-14741929D01*
X11879357Y-14727643D01*
X11893643Y-14699071D01*
X11893643Y-14627643D01*
X11879357Y-14599071D01*
X11865071Y-14584786D01*
X11836500Y-14570500D01*
X11779357Y-14570500D01*
X11750786Y-14584786D01*
X11736500Y-14599071D01*
X11722214Y-14627643D01*
X12079357Y-14456214D02*
X12107928Y-14456214D01*
X12136500Y-14470500D01*
X12150786Y-14484786D01*
X12165071Y-14513357D01*
X12179357Y-14570500D01*
X12179357Y-14641929D01*
X12165071Y-14699071D01*
X12150786Y-14727643D01*
X12136500Y-14741929D01*
X12107928Y-14756214D01*
X12079357Y-14756214D01*
X12050786Y-14741929D01*
X12036500Y-14727643D01*
X12022214Y-14699071D01*
X12007928Y-14641929D01*
X12007928Y-14570500D01*
X12022214Y-14513357D01*
X12036500Y-14484786D01*
X12050786Y-14470500D01*
X12079357Y-14456214D01*
X12365071Y-14456214D02*
X12393643Y-14456214D01*
X12422214Y-14470500D01*
X12436500Y-14484786D01*
X12450786Y-14513357D01*
X12465071Y-14570500D01*
X12465071Y-14641929D01*
X12450786Y-14699071D01*
X12436500Y-14727643D01*
X12422214Y-14741929D01*
X12393643Y-14756214D01*
X12365071Y-14756214D01*
X12336500Y-14741929D01*
X12322214Y-14727643D01*
X12307928Y-14699071D01*
X12293643Y-14641929D01*
X12293643Y-14570500D01*
X12307928Y-14513357D01*
X12322214Y-14484786D01*
X12336500Y-14470500D01*
X12365071Y-14456214D01*
X12593643Y-14756214D02*
X12593643Y-14556214D01*
X12593643Y-14584786D02*
X12607928Y-14570500D01*
X12636500Y-14556214D01*
X12679357Y-14556214D01*
X12707928Y-14570500D01*
X12722214Y-14599071D01*
X12722214Y-14756214D01*
X12722214Y-14599071D02*
X12736500Y-14570500D01*
X12765071Y-14556214D01*
X12807928Y-14556214D01*
X12836500Y-14570500D01*
X12850786Y-14599071D01*
X12850786Y-14756214D01*
X12993643Y-14756214D02*
X12993643Y-14556214D01*
X12993643Y-14584786D02*
X13007928Y-14570500D01*
X13036500Y-14556214D01*
X13079357Y-14556214D01*
X13107928Y-14570500D01*
X13122214Y-14599071D01*
X13122214Y-14756214D01*
X13122214Y-14599071D02*
X13136500Y-14570500D01*
X13165071Y-14556214D01*
X13207928Y-14556214D01*
X13236500Y-14570500D01*
X13250786Y-14599071D01*
X13250786Y-14756214D01*
X13836500Y-14441929D02*
X13579357Y-14827643D01*
X14222214Y-14456214D02*
X14250786Y-14456214D01*
X14279357Y-14470500D01*
X14293643Y-14484786D01*
X14307928Y-14513357D01*
X14322214Y-14570500D01*
X14322214Y-14641929D01*
X14307928Y-14699071D01*
X14293643Y-14727643D01*
X14279357Y-14741929D01*
X14250786Y-14756214D01*
X14222214Y-14756214D01*
X14193643Y-14741929D01*
X14179357Y-14727643D01*
X14165071Y-14699071D01*
X14150786Y-14641929D01*
X14150786Y-14570500D01*
X14165071Y-14513357D01*
X14179357Y-14484786D01*
X14193643Y-14470500D01*
X14222214Y-14456214D01*
X14450786Y-14727643D02*
X14465071Y-14741929D01*
X14450786Y-14756214D01*
X14436500Y-14741929D01*
X14450786Y-14727643D01*
X14450786Y-14756214D01*
X14650786Y-14456214D02*
X14679357Y-14456214D01*
X14707928Y-14470500D01*
X14722214Y-14484786D01*
X14736500Y-14513357D01*
X14750786Y-14570500D01*
X14750786Y-14641929D01*
X14736500Y-14699071D01*
X14722214Y-14727643D01*
X14707928Y-14741929D01*
X14679357Y-14756214D01*
X14650786Y-14756214D01*
X14622214Y-14741929D01*
X14607928Y-14727643D01*
X14593643Y-14699071D01*
X14579357Y-14641929D01*
X14579357Y-14570500D01*
X14593643Y-14513357D01*
X14607928Y-14484786D01*
X14622214Y-14470500D01*
X14650786Y-14456214D01*
X14865071Y-14484786D02*
X14879357Y-14470500D01*
X14907928Y-14456214D01*
X14979357Y-14456214D01*
X15007928Y-14470500D01*
X15022214Y-14484786D01*
X15036500Y-14513357D01*
X15036500Y-14541929D01*
X15022214Y-14584786D01*
X14850786Y-14756214D01*
X15036500Y-14756214D01*
X15136500Y-14456214D02*
X15322214Y-14456214D01*
X15222214Y-14570500D01*
X15265071Y-14570500D01*
X15293643Y-14584786D01*
X15307928Y-14599071D01*
X15322214Y-14627643D01*
X15322214Y-14699071D01*
X15307928Y-14727643D01*
X15293643Y-14741929D01*
X15265071Y-14756214D01*
X15179357Y-14756214D01*
X15150786Y-14741929D01*
X15136500Y-14727643D01*
X15579357Y-14456214D02*
X15522214Y-14456214D01*
X15493643Y-14470500D01*
X15479357Y-14484786D01*
X15450786Y-14527643D01*
X15436500Y-14584786D01*
X15436500Y-14699071D01*
X15450786Y-14727643D01*
X15465071Y-14741929D01*
X15493643Y-14756214D01*
X15550786Y-14756214D01*
X15579357Y-14741929D01*
X15593643Y-14727643D01*
X15607928Y-14699071D01*
X15607928Y-14627643D01*
X15593643Y-14599071D01*
X15579357Y-14584786D01*
X15550786Y-14570500D01*
X15493643Y-14570500D01*
X15465071Y-14584786D01*
X15450786Y-14599071D01*
X15436500Y-14627643D01*
X15722214Y-14456214D02*
X15722214Y-14513357D01*
X15836500Y-14456214D02*
X15836500Y-14513357D01*
X16279357Y-14870500D02*
X16265071Y-14856214D01*
X16236500Y-14813357D01*
X16222214Y-14784786D01*
X16207928Y-14741929D01*
X16193643Y-14670500D01*
X16193643Y-14613357D01*
X16207928Y-14541929D01*
X16222214Y-14499071D01*
X16236500Y-14470500D01*
X16265071Y-14427643D01*
X16279357Y-14413357D01*
X16365071Y-14456214D02*
X16550786Y-14456214D01*
X16450786Y-14570500D01*
X16493643Y-14570500D01*
X16522214Y-14584786D01*
X16536500Y-14599071D01*
X16550786Y-14627643D01*
X16550786Y-14699071D01*
X16536500Y-14727643D01*
X16522214Y-14741929D01*
X16493643Y-14756214D01*
X16407928Y-14756214D01*
X16379357Y-14741929D01*
X16365071Y-14727643D01*
X16665071Y-14484786D02*
X16679357Y-14470500D01*
X16707928Y-14456214D01*
X16779357Y-14456214D01*
X16807928Y-14470500D01*
X16822214Y-14484786D01*
X16836500Y-14513357D01*
X16836500Y-14541929D01*
X16822214Y-14584786D01*
X16650786Y-14756214D01*
X16836500Y-14756214D01*
X17193643Y-14756214D02*
X17193643Y-14456214D01*
X17322214Y-14756214D02*
X17322214Y-14599071D01*
X17307928Y-14570500D01*
X17279357Y-14556214D01*
X17236500Y-14556214D01*
X17207928Y-14570500D01*
X17193643Y-14584786D01*
X17507928Y-14756214D02*
X17479357Y-14741929D01*
X17465071Y-14727643D01*
X17450786Y-14699071D01*
X17450786Y-14613357D01*
X17465071Y-14584786D01*
X17479357Y-14570500D01*
X17507928Y-14556214D01*
X17550786Y-14556214D01*
X17579357Y-14570500D01*
X17593643Y-14584786D01*
X17607928Y-14613357D01*
X17607928Y-14699071D01*
X17593643Y-14727643D01*
X17579357Y-14741929D01*
X17550786Y-14756214D01*
X17507928Y-14756214D01*
X17779357Y-14756214D02*
X17750786Y-14741929D01*
X17736500Y-14713357D01*
X17736500Y-14456214D01*
X18007928Y-14741929D02*
X17979357Y-14756214D01*
X17922214Y-14756214D01*
X17893643Y-14741929D01*
X17879357Y-14713357D01*
X17879357Y-14599071D01*
X17893643Y-14570500D01*
X17922214Y-14556214D01*
X17979357Y-14556214D01*
X18007928Y-14570500D01*
X18022214Y-14599071D01*
X18022214Y-14627643D01*
X17879357Y-14656214D01*
X18136500Y-14741929D02*
X18165071Y-14756214D01*
X18222214Y-14756214D01*
X18250786Y-14741929D01*
X18265071Y-14713357D01*
X18265071Y-14699071D01*
X18250786Y-14670500D01*
X18222214Y-14656214D01*
X18179357Y-14656214D01*
X18150786Y-14641929D01*
X18136500Y-14613357D01*
X18136500Y-14599071D01*
X18150786Y-14570500D01*
X18179357Y-14556214D01*
X18222214Y-14556214D01*
X18250786Y-14570500D01*
X18365071Y-14870500D02*
X18379357Y-14856214D01*
X18407928Y-14813357D01*
X18422214Y-14784786D01*
X18436500Y-14741929D01*
X18450786Y-14670500D01*
X18450786Y-14613357D01*
X18436500Y-14541929D01*
X18422214Y-14499071D01*
X18407928Y-14470500D01*
X18379357Y-14427643D01*
X18365071Y-14413357D01*
X11021500Y-15016500D02*
G75*
G03*
X11021500Y-15016500I-40000J0D01*
G01*
X11365071Y-14852214D02*
X11393643Y-14852214D01*
X11422214Y-14866500D01*
X11436500Y-14880786D01*
X11450786Y-14909357D01*
X11465071Y-14966500D01*
X11465071Y-15037929D01*
X11450786Y-15095071D01*
X11436500Y-15123643D01*
X11422214Y-15137929D01*
X11393643Y-15152214D01*
X11365071Y-15152214D01*
X11336500Y-15137929D01*
X11322214Y-15123643D01*
X11307928Y-15095071D01*
X11293643Y-15037929D01*
X11293643Y-14966500D01*
X11307928Y-14909357D01*
X11322214Y-14880786D01*
X11336500Y-14866500D01*
X11365071Y-14852214D01*
X11593643Y-15123643D02*
X11607928Y-15137929D01*
X11593643Y-15152214D01*
X11579357Y-15137929D01*
X11593643Y-15123643D01*
X11593643Y-15152214D01*
X11779357Y-14980786D02*
X11750786Y-14966500D01*
X11736500Y-14952214D01*
X11722214Y-14923643D01*
X11722214Y-14909357D01*
X11736500Y-14880786D01*
X11750786Y-14866500D01*
X11779357Y-14852214D01*
X11836500Y-14852214D01*
X11865071Y-14866500D01*
X11879357Y-14880786D01*
X11893643Y-14909357D01*
X11893643Y-14923643D01*
X11879357Y-14952214D01*
X11865071Y-14966500D01*
X11836500Y-14980786D01*
X11779357Y-14980786D01*
X11750786Y-14995071D01*
X11736500Y-15009357D01*
X11722214Y-15037929D01*
X11722214Y-15095071D01*
X11736500Y-15123643D01*
X11750786Y-15137929D01*
X11779357Y-15152214D01*
X11836500Y-15152214D01*
X11865071Y-15137929D01*
X11879357Y-15123643D01*
X11893643Y-15095071D01*
X11893643Y-15037929D01*
X11879357Y-15009357D01*
X11865071Y-14995071D01*
X11836500Y-14980786D01*
X12079357Y-14852214D02*
X12107928Y-14852214D01*
X12136500Y-14866500D01*
X12150786Y-14880786D01*
X12165071Y-14909357D01*
X12179357Y-14966500D01*
X12179357Y-15037929D01*
X12165071Y-15095071D01*
X12150786Y-15123643D01*
X12136500Y-15137929D01*
X12107928Y-15152214D01*
X12079357Y-15152214D01*
X12050786Y-15137929D01*
X12036500Y-15123643D01*
X12022214Y-15095071D01*
X12007928Y-15037929D01*
X12007928Y-14966500D01*
X12022214Y-14909357D01*
X12036500Y-14880786D01*
X12050786Y-14866500D01*
X12079357Y-14852214D01*
X12365071Y-14852214D02*
X12393643Y-14852214D01*
X12422214Y-14866500D01*
X12436500Y-14880786D01*
X12450786Y-14909357D01*
X12465071Y-14966500D01*
X12465071Y-15037929D01*
X12450786Y-15095071D01*
X12436500Y-15123643D01*
X12422214Y-15137929D01*
X12393643Y-15152214D01*
X12365071Y-15152214D01*
X12336500Y-15137929D01*
X12322214Y-15123643D01*
X12307928Y-15095071D01*
X12293643Y-15037929D01*
X12293643Y-14966500D01*
X12307928Y-14909357D01*
X12322214Y-14880786D01*
X12336500Y-14866500D01*
X12365071Y-14852214D01*
X12593643Y-15152214D02*
X12593643Y-14952214D01*
X12593643Y-14980786D02*
X12607928Y-14966500D01*
X12636500Y-14952214D01*
X12679357Y-14952214D01*
X12707928Y-14966500D01*
X12722214Y-14995071D01*
X12722214Y-15152214D01*
X12722214Y-14995071D02*
X12736500Y-14966500D01*
X12765071Y-14952214D01*
X12807928Y-14952214D01*
X12836500Y-14966500D01*
X12850786Y-14995071D01*
X12850786Y-15152214D01*
X12993643Y-15152214D02*
X12993643Y-14952214D01*
X12993643Y-14980786D02*
X13007928Y-14966500D01*
X13036500Y-14952214D01*
X13079357Y-14952214D01*
X13107928Y-14966500D01*
X13122214Y-14995071D01*
X13122214Y-15152214D01*
X13122214Y-14995071D02*
X13136500Y-14966500D01*
X13165071Y-14952214D01*
X13207928Y-14952214D01*
X13236500Y-14966500D01*
X13250786Y-14995071D01*
X13250786Y-15152214D01*
X13836500Y-14837929D02*
X13579357Y-15223643D01*
X14222214Y-14852214D02*
X14250786Y-14852214D01*
X14279357Y-14866500D01*
X14293643Y-14880786D01*
X14307928Y-14909357D01*
X14322214Y-14966500D01*
X14322214Y-15037929D01*
X14307928Y-15095071D01*
X14293643Y-15123643D01*
X14279357Y-15137929D01*
X14250786Y-15152214D01*
X14222214Y-15152214D01*
X14193643Y-15137929D01*
X14179357Y-15123643D01*
X14165071Y-15095071D01*
X14150786Y-15037929D01*
X14150786Y-14966500D01*
X14165071Y-14909357D01*
X14179357Y-14880786D01*
X14193643Y-14866500D01*
X14222214Y-14852214D01*
X14450786Y-15123643D02*
X14465071Y-15137929D01*
X14450786Y-15152214D01*
X14436500Y-15137929D01*
X14450786Y-15123643D01*
X14450786Y-15152214D01*
X14650786Y-14852214D02*
X14679357Y-14852214D01*
X14707928Y-14866500D01*
X14722214Y-14880786D01*
X14736500Y-14909357D01*
X14750786Y-14966500D01*
X14750786Y-15037929D01*
X14736500Y-15095071D01*
X14722214Y-15123643D01*
X14707928Y-15137929D01*
X14679357Y-15152214D01*
X14650786Y-15152214D01*
X14622214Y-15137929D01*
X14607928Y-15123643D01*
X14593643Y-15095071D01*
X14579357Y-15037929D01*
X14579357Y-14966500D01*
X14593643Y-14909357D01*
X14607928Y-14880786D01*
X14622214Y-14866500D01*
X14650786Y-14852214D01*
X14850786Y-14852214D02*
X15036500Y-14852214D01*
X14936500Y-14966500D01*
X14979357Y-14966500D01*
X15007928Y-14980786D01*
X15022214Y-14995071D01*
X15036500Y-15023643D01*
X15036500Y-15095071D01*
X15022214Y-15123643D01*
X15007928Y-15137929D01*
X14979357Y-15152214D01*
X14893643Y-15152214D01*
X14865071Y-15137929D01*
X14850786Y-15123643D01*
X15322214Y-15152214D02*
X15150786Y-15152214D01*
X15236500Y-15152214D02*
X15236500Y-14852214D01*
X15207928Y-14895071D01*
X15179357Y-14923643D01*
X15150786Y-14937929D01*
X15593643Y-14852214D02*
X15450786Y-14852214D01*
X15436500Y-14995071D01*
X15450786Y-14980786D01*
X15479357Y-14966500D01*
X15550786Y-14966500D01*
X15579357Y-14980786D01*
X15593643Y-14995071D01*
X15607928Y-15023643D01*
X15607928Y-15095071D01*
X15593643Y-15123643D01*
X15579357Y-15137929D01*
X15550786Y-15152214D01*
X15479357Y-15152214D01*
X15450786Y-15137929D01*
X15436500Y-15123643D01*
X15722214Y-14852214D02*
X15722214Y-14909357D01*
X15836500Y-14852214D02*
X15836500Y-14909357D01*
X16279357Y-15266500D02*
X16265071Y-15252214D01*
X16236500Y-15209357D01*
X16222214Y-15180786D01*
X16207928Y-15137929D01*
X16193643Y-15066500D01*
X16193643Y-15009357D01*
X16207928Y-14937929D01*
X16222214Y-14895071D01*
X16236500Y-14866500D01*
X16265071Y-14823643D01*
X16279357Y-14809357D01*
X16365071Y-14852214D02*
X16565071Y-14852214D01*
X16436500Y-15152214D01*
X16722214Y-14980786D02*
X16693643Y-14966500D01*
X16679357Y-14952214D01*
X16665071Y-14923643D01*
X16665071Y-14909357D01*
X16679357Y-14880786D01*
X16693643Y-14866500D01*
X16722214Y-14852214D01*
X16779357Y-14852214D01*
X16807928Y-14866500D01*
X16822214Y-14880786D01*
X16836500Y-14909357D01*
X16836500Y-14923643D01*
X16822214Y-14952214D01*
X16807928Y-14966500D01*
X16779357Y-14980786D01*
X16722214Y-14980786D01*
X16693643Y-14995071D01*
X16679357Y-15009357D01*
X16665071Y-15037929D01*
X16665071Y-15095071D01*
X16679357Y-15123643D01*
X16693643Y-15137929D01*
X16722214Y-15152214D01*
X16779357Y-15152214D01*
X16807928Y-15137929D01*
X16822214Y-15123643D01*
X16836500Y-15095071D01*
X16836500Y-15037929D01*
X16822214Y-15009357D01*
X16807928Y-14995071D01*
X16779357Y-14980786D01*
X17193643Y-15152214D02*
X17193643Y-14852214D01*
X17322214Y-15152214D02*
X17322214Y-14995071D01*
X17307928Y-14966500D01*
X17279357Y-14952214D01*
X17236500Y-14952214D01*
X17207928Y-14966500D01*
X17193643Y-14980786D01*
X17507928Y-15152214D02*
X17479357Y-15137929D01*
X17465071Y-15123643D01*
X17450786Y-15095071D01*
X17450786Y-15009357D01*
X17465071Y-14980786D01*
X17479357Y-14966500D01*
X17507928Y-14952214D01*
X17550786Y-14952214D01*
X17579357Y-14966500D01*
X17593643Y-14980786D01*
X17607928Y-15009357D01*
X17607928Y-15095071D01*
X17593643Y-15123643D01*
X17579357Y-15137929D01*
X17550786Y-15152214D01*
X17507928Y-15152214D01*
X17779357Y-15152214D02*
X17750786Y-15137929D01*
X17736500Y-15109357D01*
X17736500Y-14852214D01*
X18007928Y-15137929D02*
X17979357Y-15152214D01*
X17922214Y-15152214D01*
X17893643Y-15137929D01*
X17879357Y-15109357D01*
X17879357Y-14995071D01*
X17893643Y-14966500D01*
X17922214Y-14952214D01*
X17979357Y-14952214D01*
X18007928Y-14966500D01*
X18022214Y-14995071D01*
X18022214Y-15023643D01*
X17879357Y-15052214D01*
X18136500Y-15137929D02*
X18165071Y-15152214D01*
X18222214Y-15152214D01*
X18250786Y-15137929D01*
X18265071Y-15109357D01*
X18265071Y-15095071D01*
X18250786Y-15066500D01*
X18222214Y-15052214D01*
X18179357Y-15052214D01*
X18150786Y-15037929D01*
X18136500Y-15009357D01*
X18136500Y-14995071D01*
X18150786Y-14966500D01*
X18179357Y-14952214D01*
X18222214Y-14952214D01*
X18250786Y-14966500D01*
X18365071Y-15266500D02*
X18379357Y-15252214D01*
X18407928Y-15209357D01*
X18422214Y-15180786D01*
X18436500Y-15137929D01*
X18450786Y-15066500D01*
X18450786Y-15009357D01*
X18436500Y-14937929D01*
X18422214Y-14895071D01*
X18407928Y-14866500D01*
X18379357Y-14823643D01*
X18365071Y-14809357D01*
X10974000Y-15365000D02*
X10974000Y-15460000D01*
X10926500Y-15412500D02*
X11021500Y-15412500D01*
X11365071Y-15248214D02*
X11393643Y-15248214D01*
X11422214Y-15262500D01*
X11436500Y-15276786D01*
X11450786Y-15305357D01*
X11465071Y-15362500D01*
X11465071Y-15433929D01*
X11450786Y-15491071D01*
X11436500Y-15519643D01*
X11422214Y-15533929D01*
X11393643Y-15548214D01*
X11365071Y-15548214D01*
X11336500Y-15533929D01*
X11322214Y-15519643D01*
X11307928Y-15491071D01*
X11293643Y-15433929D01*
X11293643Y-15362500D01*
X11307928Y-15305357D01*
X11322214Y-15276786D01*
X11336500Y-15262500D01*
X11365071Y-15248214D01*
X11593643Y-15519643D02*
X11607928Y-15533929D01*
X11593643Y-15548214D01*
X11579357Y-15533929D01*
X11593643Y-15519643D01*
X11593643Y-15548214D01*
X11750786Y-15548214D02*
X11807928Y-15548214D01*
X11836500Y-15533929D01*
X11850786Y-15519643D01*
X11879357Y-15476786D01*
X11893643Y-15419643D01*
X11893643Y-15305357D01*
X11879357Y-15276786D01*
X11865071Y-15262500D01*
X11836500Y-15248214D01*
X11779357Y-15248214D01*
X11750786Y-15262500D01*
X11736500Y-15276786D01*
X11722214Y-15305357D01*
X11722214Y-15376786D01*
X11736500Y-15405357D01*
X11750786Y-15419643D01*
X11779357Y-15433929D01*
X11836500Y-15433929D01*
X11865071Y-15419643D01*
X11879357Y-15405357D01*
X11893643Y-15376786D01*
X12165071Y-15248214D02*
X12022214Y-15248214D01*
X12007928Y-15391071D01*
X12022214Y-15376786D01*
X12050786Y-15362500D01*
X12122214Y-15362500D01*
X12150786Y-15376786D01*
X12165071Y-15391071D01*
X12179357Y-15419643D01*
X12179357Y-15491071D01*
X12165071Y-15519643D01*
X12150786Y-15533929D01*
X12122214Y-15548214D01*
X12050786Y-15548214D01*
X12022214Y-15533929D01*
X12007928Y-15519643D01*
X12365071Y-15248214D02*
X12393643Y-15248214D01*
X12422214Y-15262500D01*
X12436500Y-15276786D01*
X12450786Y-15305357D01*
X12465071Y-15362500D01*
X12465071Y-15433929D01*
X12450786Y-15491071D01*
X12436500Y-15519643D01*
X12422214Y-15533929D01*
X12393643Y-15548214D01*
X12365071Y-15548214D01*
X12336500Y-15533929D01*
X12322214Y-15519643D01*
X12307928Y-15491071D01*
X12293643Y-15433929D01*
X12293643Y-15362500D01*
X12307928Y-15305357D01*
X12322214Y-15276786D01*
X12336500Y-15262500D01*
X12365071Y-15248214D01*
X12593643Y-15548214D02*
X12593643Y-15348214D01*
X12593643Y-15376786D02*
X12607928Y-15362500D01*
X12636500Y-15348214D01*
X12679357Y-15348214D01*
X12707928Y-15362500D01*
X12722214Y-15391071D01*
X12722214Y-15548214D01*
X12722214Y-15391071D02*
X12736500Y-15362500D01*
X12765071Y-15348214D01*
X12807928Y-15348214D01*
X12836500Y-15362500D01*
X12850786Y-15391071D01*
X12850786Y-15548214D01*
X12993643Y-15548214D02*
X12993643Y-15348214D01*
X12993643Y-15376786D02*
X13007928Y-15362500D01*
X13036500Y-15348214D01*
X13079357Y-15348214D01*
X13107928Y-15362500D01*
X13122214Y-15391071D01*
X13122214Y-15548214D01*
X13122214Y-15391071D02*
X13136500Y-15362500D01*
X13165071Y-15348214D01*
X13207928Y-15348214D01*
X13236500Y-15362500D01*
X13250786Y-15391071D01*
X13250786Y-15548214D01*
X13836500Y-15233929D02*
X13579357Y-15619643D01*
X14222214Y-15248214D02*
X14250786Y-15248214D01*
X14279357Y-15262500D01*
X14293643Y-15276786D01*
X14307928Y-15305357D01*
X14322214Y-15362500D01*
X14322214Y-15433929D01*
X14307928Y-15491071D01*
X14293643Y-15519643D01*
X14279357Y-15533929D01*
X14250786Y-15548214D01*
X14222214Y-15548214D01*
X14193643Y-15533929D01*
X14179357Y-15519643D01*
X14165071Y-15491071D01*
X14150786Y-15433929D01*
X14150786Y-15362500D01*
X14165071Y-15305357D01*
X14179357Y-15276786D01*
X14193643Y-15262500D01*
X14222214Y-15248214D01*
X14450786Y-15519643D02*
X14465071Y-15533929D01*
X14450786Y-15548214D01*
X14436500Y-15533929D01*
X14450786Y-15519643D01*
X14450786Y-15548214D01*
X14650786Y-15248214D02*
X14679357Y-15248214D01*
X14707928Y-15262500D01*
X14722214Y-15276786D01*
X14736500Y-15305357D01*
X14750786Y-15362500D01*
X14750786Y-15433929D01*
X14736500Y-15491071D01*
X14722214Y-15519643D01*
X14707928Y-15533929D01*
X14679357Y-15548214D01*
X14650786Y-15548214D01*
X14622214Y-15533929D01*
X14607928Y-15519643D01*
X14593643Y-15491071D01*
X14579357Y-15433929D01*
X14579357Y-15362500D01*
X14593643Y-15305357D01*
X14607928Y-15276786D01*
X14622214Y-15262500D01*
X14650786Y-15248214D01*
X14850786Y-15248214D02*
X15036500Y-15248214D01*
X14936500Y-15362500D01*
X14979357Y-15362500D01*
X15007928Y-15376786D01*
X15022214Y-15391071D01*
X15036500Y-15419643D01*
X15036500Y-15491071D01*
X15022214Y-15519643D01*
X15007928Y-15533929D01*
X14979357Y-15548214D01*
X14893643Y-15548214D01*
X14865071Y-15533929D01*
X14850786Y-15519643D01*
X15136500Y-15248214D02*
X15336500Y-15248214D01*
X15207928Y-15548214D01*
X15579357Y-15348214D02*
X15579357Y-15548214D01*
X15507928Y-15233929D02*
X15436500Y-15448214D01*
X15622214Y-15448214D01*
X15722214Y-15248214D02*
X15722214Y-15305357D01*
X15836500Y-15248214D02*
X15836500Y-15305357D01*
X16279357Y-15662500D02*
X16265071Y-15648214D01*
X16236500Y-15605357D01*
X16222214Y-15576786D01*
X16207928Y-15533929D01*
X16193643Y-15462500D01*
X16193643Y-15405357D01*
X16207928Y-15333929D01*
X16222214Y-15291071D01*
X16236500Y-15262500D01*
X16265071Y-15219643D01*
X16279357Y-15205357D01*
X16550786Y-15548214D02*
X16379357Y-15548214D01*
X16465071Y-15548214D02*
X16465071Y-15248214D01*
X16436500Y-15291071D01*
X16407928Y-15319643D01*
X16379357Y-15333929D01*
X16665071Y-15276786D02*
X16679357Y-15262500D01*
X16707928Y-15248214D01*
X16779357Y-15248214D01*
X16807928Y-15262500D01*
X16822214Y-15276786D01*
X16836500Y-15305357D01*
X16836500Y-15333929D01*
X16822214Y-15376786D01*
X16650786Y-15548214D01*
X16836500Y-15548214D01*
X17193643Y-15548214D02*
X17193643Y-15248214D01*
X17322214Y-15548214D02*
X17322214Y-15391071D01*
X17307928Y-15362500D01*
X17279357Y-15348214D01*
X17236500Y-15348214D01*
X17207928Y-15362500D01*
X17193643Y-15376786D01*
X17507928Y-15548214D02*
X17479357Y-15533929D01*
X17465071Y-15519643D01*
X17450786Y-15491071D01*
X17450786Y-15405357D01*
X17465071Y-15376786D01*
X17479357Y-15362500D01*
X17507928Y-15348214D01*
X17550786Y-15348214D01*
X17579357Y-15362500D01*
X17593643Y-15376786D01*
X17607928Y-15405357D01*
X17607928Y-15491071D01*
X17593643Y-15519643D01*
X17579357Y-15533929D01*
X17550786Y-15548214D01*
X17507928Y-15548214D01*
X17779357Y-15548214D02*
X17750786Y-15533929D01*
X17736500Y-15505357D01*
X17736500Y-15248214D01*
X18007928Y-15533929D02*
X17979357Y-15548214D01*
X17922214Y-15548214D01*
X17893643Y-15533929D01*
X17879357Y-15505357D01*
X17879357Y-15391071D01*
X17893643Y-15362500D01*
X17922214Y-15348214D01*
X17979357Y-15348214D01*
X18007928Y-15362500D01*
X18022214Y-15391071D01*
X18022214Y-15419643D01*
X17879357Y-15448214D01*
X18136500Y-15533929D02*
X18165071Y-15548214D01*
X18222214Y-15548214D01*
X18250786Y-15533929D01*
X18265071Y-15505357D01*
X18265071Y-15491071D01*
X18250786Y-15462500D01*
X18222214Y-15448214D01*
X18179357Y-15448214D01*
X18150786Y-15433929D01*
X18136500Y-15405357D01*
X18136500Y-15391071D01*
X18150786Y-15362500D01*
X18179357Y-15348214D01*
X18222214Y-15348214D01*
X18250786Y-15362500D01*
X18365071Y-15662500D02*
X18379357Y-15648214D01*
X18407928Y-15605357D01*
X18422214Y-15576786D01*
X18436500Y-15533929D01*
X18450786Y-15462500D01*
X18450786Y-15405357D01*
X18436500Y-15333929D01*
X18422214Y-15291071D01*
X18407928Y-15262500D01*
X18379357Y-15219643D01*
X18365071Y-15205357D01*
X11006856Y-15843856D02*
X11006856Y-15773144D01*
X10936144Y-15773144D01*
X10936144Y-15843856D01*
X11006856Y-15843856D01*
X11465071Y-15944214D02*
X11293643Y-15944214D01*
X11379357Y-15944214D02*
X11379357Y-15644214D01*
X11350786Y-15687071D01*
X11322214Y-15715643D01*
X11293643Y-15729929D01*
X11593643Y-15915643D02*
X11607928Y-15929929D01*
X11593643Y-15944214D01*
X11579357Y-15929929D01*
X11593643Y-15915643D01*
X11593643Y-15944214D01*
X11793643Y-15644214D02*
X11822214Y-15644214D01*
X11850786Y-15658500D01*
X11865071Y-15672786D01*
X11879357Y-15701357D01*
X11893643Y-15758500D01*
X11893643Y-15829929D01*
X11879357Y-15887071D01*
X11865071Y-15915643D01*
X11850786Y-15929929D01*
X11822214Y-15944214D01*
X11793643Y-15944214D01*
X11765071Y-15929929D01*
X11750786Y-15915643D01*
X11736500Y-15887071D01*
X11722214Y-15829929D01*
X11722214Y-15758500D01*
X11736500Y-15701357D01*
X11750786Y-15672786D01*
X11765071Y-15658500D01*
X11793643Y-15644214D01*
X12079357Y-15644214D02*
X12107928Y-15644214D01*
X12136500Y-15658500D01*
X12150786Y-15672786D01*
X12165071Y-15701357D01*
X12179357Y-15758500D01*
X12179357Y-15829929D01*
X12165071Y-15887071D01*
X12150786Y-15915643D01*
X12136500Y-15929929D01*
X12107928Y-15944214D01*
X12079357Y-15944214D01*
X12050786Y-15929929D01*
X12036500Y-15915643D01*
X12022214Y-15887071D01*
X12007928Y-15829929D01*
X12007928Y-15758500D01*
X12022214Y-15701357D01*
X12036500Y-15672786D01*
X12050786Y-15658500D01*
X12079357Y-15644214D01*
X12365071Y-15644214D02*
X12393643Y-15644214D01*
X12422214Y-15658500D01*
X12436500Y-15672786D01*
X12450786Y-15701357D01*
X12465071Y-15758500D01*
X12465071Y-15829929D01*
X12450786Y-15887071D01*
X12436500Y-15915643D01*
X12422214Y-15929929D01*
X12393643Y-15944214D01*
X12365071Y-15944214D01*
X12336500Y-15929929D01*
X12322214Y-15915643D01*
X12307928Y-15887071D01*
X12293643Y-15829929D01*
X12293643Y-15758500D01*
X12307928Y-15701357D01*
X12322214Y-15672786D01*
X12336500Y-15658500D01*
X12365071Y-15644214D01*
X12593643Y-15944214D02*
X12593643Y-15744214D01*
X12593643Y-15772786D02*
X12607928Y-15758500D01*
X12636500Y-15744214D01*
X12679357Y-15744214D01*
X12707928Y-15758500D01*
X12722214Y-15787071D01*
X12722214Y-15944214D01*
X12722214Y-15787071D02*
X12736500Y-15758500D01*
X12765071Y-15744214D01*
X12807928Y-15744214D01*
X12836500Y-15758500D01*
X12850786Y-15787071D01*
X12850786Y-15944214D01*
X12993643Y-15944214D02*
X12993643Y-15744214D01*
X12993643Y-15772786D02*
X13007928Y-15758500D01*
X13036500Y-15744214D01*
X13079357Y-15744214D01*
X13107928Y-15758500D01*
X13122214Y-15787071D01*
X13122214Y-15944214D01*
X13122214Y-15787071D02*
X13136500Y-15758500D01*
X13165071Y-15744214D01*
X13207928Y-15744214D01*
X13236500Y-15758500D01*
X13250786Y-15787071D01*
X13250786Y-15944214D01*
X13836500Y-15629929D02*
X13579357Y-16015643D01*
X14222214Y-15644214D02*
X14250786Y-15644214D01*
X14279357Y-15658500D01*
X14293643Y-15672786D01*
X14307928Y-15701357D01*
X14322214Y-15758500D01*
X14322214Y-15829929D01*
X14307928Y-15887071D01*
X14293643Y-15915643D01*
X14279357Y-15929929D01*
X14250786Y-15944214D01*
X14222214Y-15944214D01*
X14193643Y-15929929D01*
X14179357Y-15915643D01*
X14165071Y-15887071D01*
X14150786Y-15829929D01*
X14150786Y-15758500D01*
X14165071Y-15701357D01*
X14179357Y-15672786D01*
X14193643Y-15658500D01*
X14222214Y-15644214D01*
X14450786Y-15915643D02*
X14465071Y-15929929D01*
X14450786Y-15944214D01*
X14436500Y-15929929D01*
X14450786Y-15915643D01*
X14450786Y-15944214D01*
X14650786Y-15644214D02*
X14679357Y-15644214D01*
X14707928Y-15658500D01*
X14722214Y-15672786D01*
X14736500Y-15701357D01*
X14750786Y-15758500D01*
X14750786Y-15829929D01*
X14736500Y-15887071D01*
X14722214Y-15915643D01*
X14707928Y-15929929D01*
X14679357Y-15944214D01*
X14650786Y-15944214D01*
X14622214Y-15929929D01*
X14607928Y-15915643D01*
X14593643Y-15887071D01*
X14579357Y-15829929D01*
X14579357Y-15758500D01*
X14593643Y-15701357D01*
X14607928Y-15672786D01*
X14622214Y-15658500D01*
X14650786Y-15644214D01*
X14850786Y-15644214D02*
X15036500Y-15644214D01*
X14936500Y-15758500D01*
X14979357Y-15758500D01*
X15007928Y-15772786D01*
X15022214Y-15787071D01*
X15036500Y-15815643D01*
X15036500Y-15887071D01*
X15022214Y-15915643D01*
X15007928Y-15929929D01*
X14979357Y-15944214D01*
X14893643Y-15944214D01*
X14865071Y-15929929D01*
X14850786Y-15915643D01*
X15179357Y-15944214D02*
X15236500Y-15944214D01*
X15265071Y-15929929D01*
X15279357Y-15915643D01*
X15307928Y-15872786D01*
X15322214Y-15815643D01*
X15322214Y-15701357D01*
X15307928Y-15672786D01*
X15293643Y-15658500D01*
X15265071Y-15644214D01*
X15207928Y-15644214D01*
X15179357Y-15658500D01*
X15165071Y-15672786D01*
X15150786Y-15701357D01*
X15150786Y-15772786D01*
X15165071Y-15801357D01*
X15179357Y-15815643D01*
X15207928Y-15829929D01*
X15265071Y-15829929D01*
X15293643Y-15815643D01*
X15307928Y-15801357D01*
X15322214Y-15772786D01*
X15579357Y-15744214D02*
X15579357Y-15944214D01*
X15507928Y-15629929D02*
X15436500Y-15844214D01*
X15622214Y-15844214D01*
X15722214Y-15644214D02*
X15722214Y-15701357D01*
X15836500Y-15644214D02*
X15836500Y-15701357D01*
X16279357Y-16058500D02*
X16265071Y-16044214D01*
X16236500Y-16001357D01*
X16222214Y-15972786D01*
X16207928Y-15929929D01*
X16193643Y-15858500D01*
X16193643Y-15801357D01*
X16207928Y-15729929D01*
X16222214Y-15687071D01*
X16236500Y-15658500D01*
X16265071Y-15615643D01*
X16279357Y-15601357D01*
X16550786Y-15944214D02*
X16379357Y-15944214D01*
X16465071Y-15944214D02*
X16465071Y-15644214D01*
X16436500Y-15687071D01*
X16407928Y-15715643D01*
X16379357Y-15729929D01*
X16650786Y-15644214D02*
X16836500Y-15644214D01*
X16736500Y-15758500D01*
X16779357Y-15758500D01*
X16807928Y-15772786D01*
X16822214Y-15787071D01*
X16836500Y-15815643D01*
X16836500Y-15887071D01*
X16822214Y-15915643D01*
X16807928Y-15929929D01*
X16779357Y-15944214D01*
X16693643Y-15944214D01*
X16665071Y-15929929D01*
X16650786Y-15915643D01*
X17107928Y-15644214D02*
X16965071Y-15644214D01*
X16950786Y-15787071D01*
X16965071Y-15772786D01*
X16993643Y-15758500D01*
X17065071Y-15758500D01*
X17093643Y-15772786D01*
X17107928Y-15787071D01*
X17122214Y-15815643D01*
X17122214Y-15887071D01*
X17107928Y-15915643D01*
X17093643Y-15929929D01*
X17065071Y-15944214D01*
X16993643Y-15944214D01*
X16965071Y-15929929D01*
X16950786Y-15915643D01*
X17479357Y-15944214D02*
X17479357Y-15644214D01*
X17607928Y-15944214D02*
X17607928Y-15787071D01*
X17593643Y-15758500D01*
X17565071Y-15744214D01*
X17522214Y-15744214D01*
X17493643Y-15758500D01*
X17479357Y-15772786D01*
X17793643Y-15944214D02*
X17765071Y-15929929D01*
X17750786Y-15915643D01*
X17736500Y-15887071D01*
X17736500Y-15801357D01*
X17750786Y-15772786D01*
X17765071Y-15758500D01*
X17793643Y-15744214D01*
X17836500Y-15744214D01*
X17865071Y-15758500D01*
X17879357Y-15772786D01*
X17893643Y-15801357D01*
X17893643Y-15887071D01*
X17879357Y-15915643D01*
X17865071Y-15929929D01*
X17836500Y-15944214D01*
X17793643Y-15944214D01*
X18065071Y-15944214D02*
X18036500Y-15929929D01*
X18022214Y-15901357D01*
X18022214Y-15644214D01*
X18293643Y-15929929D02*
X18265071Y-15944214D01*
X18207928Y-15944214D01*
X18179357Y-15929929D01*
X18165071Y-15901357D01*
X18165071Y-15787071D01*
X18179357Y-15758500D01*
X18207928Y-15744214D01*
X18265071Y-15744214D01*
X18293643Y-15758500D01*
X18307928Y-15787071D01*
X18307928Y-15815643D01*
X18165071Y-15844214D01*
X18422214Y-15929929D02*
X18450786Y-15944214D01*
X18507928Y-15944214D01*
X18536500Y-15929929D01*
X18550786Y-15901357D01*
X18550786Y-15887071D01*
X18536500Y-15858500D01*
X18507928Y-15844214D01*
X18465071Y-15844214D01*
X18436500Y-15829929D01*
X18422214Y-15801357D01*
X18422214Y-15787071D01*
X18436500Y-15758500D01*
X18465071Y-15744214D01*
X18507928Y-15744214D01*
X18536500Y-15758500D01*
X18650786Y-16058500D02*
X18665071Y-16044214D01*
X18693643Y-16001357D01*
X18707928Y-15972786D01*
X18722214Y-15929929D01*
X18736500Y-15858500D01*
X18736500Y-15801357D01*
X18722214Y-15729929D01*
X18707928Y-15687071D01*
X18693643Y-15658500D01*
X18665071Y-15615643D01*
X18650786Y-15601357D01*
X10956500Y-16269500D02*
X11021500Y-16204500D01*
X10956500Y-16139500D01*
X10891500Y-16204500D01*
X10956500Y-16269500D01*
X11465071Y-16340214D02*
X11293643Y-16340214D01*
X11379357Y-16340214D02*
X11379357Y-16040214D01*
X11350786Y-16083071D01*
X11322214Y-16111643D01*
X11293643Y-16125929D01*
X11593643Y-16311643D02*
X11607928Y-16325929D01*
X11593643Y-16340214D01*
X11579357Y-16325929D01*
X11593643Y-16311643D01*
X11593643Y-16340214D01*
X11707928Y-16040214D02*
X11893643Y-16040214D01*
X11793643Y-16154500D01*
X11836500Y-16154500D01*
X11865071Y-16168786D01*
X11879357Y-16183071D01*
X11893643Y-16211643D01*
X11893643Y-16283071D01*
X11879357Y-16311643D01*
X11865071Y-16325929D01*
X11836500Y-16340214D01*
X11750786Y-16340214D01*
X11722214Y-16325929D01*
X11707928Y-16311643D01*
X12079357Y-16040214D02*
X12107928Y-16040214D01*
X12136500Y-16054500D01*
X12150786Y-16068786D01*
X12165071Y-16097357D01*
X12179357Y-16154500D01*
X12179357Y-16225929D01*
X12165071Y-16283071D01*
X12150786Y-16311643D01*
X12136500Y-16325929D01*
X12107928Y-16340214D01*
X12079357Y-16340214D01*
X12050786Y-16325929D01*
X12036500Y-16311643D01*
X12022214Y-16283071D01*
X12007928Y-16225929D01*
X12007928Y-16154500D01*
X12022214Y-16097357D01*
X12036500Y-16068786D01*
X12050786Y-16054500D01*
X12079357Y-16040214D01*
X12365071Y-16040214D02*
X12393643Y-16040214D01*
X12422214Y-16054500D01*
X12436500Y-16068786D01*
X12450786Y-16097357D01*
X12465071Y-16154500D01*
X12465071Y-16225929D01*
X12450786Y-16283071D01*
X12436500Y-16311643D01*
X12422214Y-16325929D01*
X12393643Y-16340214D01*
X12365071Y-16340214D01*
X12336500Y-16325929D01*
X12322214Y-16311643D01*
X12307928Y-16283071D01*
X12293643Y-16225929D01*
X12293643Y-16154500D01*
X12307928Y-16097357D01*
X12322214Y-16068786D01*
X12336500Y-16054500D01*
X12365071Y-16040214D01*
X12593643Y-16340214D02*
X12593643Y-16140214D01*
X12593643Y-16168786D02*
X12607928Y-16154500D01*
X12636500Y-16140214D01*
X12679357Y-16140214D01*
X12707928Y-16154500D01*
X12722214Y-16183071D01*
X12722214Y-16340214D01*
X12722214Y-16183071D02*
X12736500Y-16154500D01*
X12765071Y-16140214D01*
X12807928Y-16140214D01*
X12836500Y-16154500D01*
X12850786Y-16183071D01*
X12850786Y-16340214D01*
X12993643Y-16340214D02*
X12993643Y-16140214D01*
X12993643Y-16168786D02*
X13007928Y-16154500D01*
X13036500Y-16140214D01*
X13079357Y-16140214D01*
X13107928Y-16154500D01*
X13122214Y-16183071D01*
X13122214Y-16340214D01*
X13122214Y-16183071D02*
X13136500Y-16154500D01*
X13165071Y-16140214D01*
X13207928Y-16140214D01*
X13236500Y-16154500D01*
X13250786Y-16183071D01*
X13250786Y-16340214D01*
X13836500Y-16025929D02*
X13579357Y-16411643D01*
X14222214Y-16040214D02*
X14250786Y-16040214D01*
X14279357Y-16054500D01*
X14293643Y-16068786D01*
X14307928Y-16097357D01*
X14322214Y-16154500D01*
X14322214Y-16225929D01*
X14307928Y-16283071D01*
X14293643Y-16311643D01*
X14279357Y-16325929D01*
X14250786Y-16340214D01*
X14222214Y-16340214D01*
X14193643Y-16325929D01*
X14179357Y-16311643D01*
X14165071Y-16283071D01*
X14150786Y-16225929D01*
X14150786Y-16154500D01*
X14165071Y-16097357D01*
X14179357Y-16068786D01*
X14193643Y-16054500D01*
X14222214Y-16040214D01*
X14450786Y-16311643D02*
X14465071Y-16325929D01*
X14450786Y-16340214D01*
X14436500Y-16325929D01*
X14450786Y-16311643D01*
X14450786Y-16340214D01*
X14650786Y-16040214D02*
X14679357Y-16040214D01*
X14707928Y-16054500D01*
X14722214Y-16068786D01*
X14736500Y-16097357D01*
X14750786Y-16154500D01*
X14750786Y-16225929D01*
X14736500Y-16283071D01*
X14722214Y-16311643D01*
X14707928Y-16325929D01*
X14679357Y-16340214D01*
X14650786Y-16340214D01*
X14622214Y-16325929D01*
X14607928Y-16311643D01*
X14593643Y-16283071D01*
X14579357Y-16225929D01*
X14579357Y-16154500D01*
X14593643Y-16097357D01*
X14607928Y-16068786D01*
X14622214Y-16054500D01*
X14650786Y-16040214D01*
X15022214Y-16040214D02*
X14879357Y-16040214D01*
X14865071Y-16183071D01*
X14879357Y-16168786D01*
X14907928Y-16154500D01*
X14979357Y-16154500D01*
X15007928Y-16168786D01*
X15022214Y-16183071D01*
X15036500Y-16211643D01*
X15036500Y-16283071D01*
X15022214Y-16311643D01*
X15007928Y-16325929D01*
X14979357Y-16340214D01*
X14907928Y-16340214D01*
X14879357Y-16325929D01*
X14865071Y-16311643D01*
X15322214Y-16340214D02*
X15150786Y-16340214D01*
X15236500Y-16340214D02*
X15236500Y-16040214D01*
X15207928Y-16083071D01*
X15179357Y-16111643D01*
X15150786Y-16125929D01*
X15436500Y-16068786D02*
X15450786Y-16054500D01*
X15479357Y-16040214D01*
X15550786Y-16040214D01*
X15579357Y-16054500D01*
X15593643Y-16068786D01*
X15607928Y-16097357D01*
X15607928Y-16125929D01*
X15593643Y-16168786D01*
X15422214Y-16340214D01*
X15607928Y-16340214D01*
X15722214Y-16040214D02*
X15722214Y-16097357D01*
X15836500Y-16040214D02*
X15836500Y-16097357D01*
X16279357Y-16454500D02*
X16265071Y-16440214D01*
X16236500Y-16397357D01*
X16222214Y-16368786D01*
X16207928Y-16325929D01*
X16193643Y-16254500D01*
X16193643Y-16197357D01*
X16207928Y-16125929D01*
X16222214Y-16083071D01*
X16236500Y-16054500D01*
X16265071Y-16011643D01*
X16279357Y-15997357D01*
X16522214Y-16140214D02*
X16522214Y-16340214D01*
X16450786Y-16025929D02*
X16379357Y-16240214D01*
X16565071Y-16240214D01*
X16907928Y-16340214D02*
X16907928Y-16040214D01*
X17036500Y-16340214D02*
X17036500Y-16183071D01*
X17022214Y-16154500D01*
X16993643Y-16140214D01*
X16950786Y-16140214D01*
X16922214Y-16154500D01*
X16907928Y-16168786D01*
X17222214Y-16340214D02*
X17193643Y-16325929D01*
X17179357Y-16311643D01*
X17165071Y-16283071D01*
X17165071Y-16197357D01*
X17179357Y-16168786D01*
X17193643Y-16154500D01*
X17222214Y-16140214D01*
X17265071Y-16140214D01*
X17293643Y-16154500D01*
X17307928Y-16168786D01*
X17322214Y-16197357D01*
X17322214Y-16283071D01*
X17307928Y-16311643D01*
X17293643Y-16325929D01*
X17265071Y-16340214D01*
X17222214Y-16340214D01*
X17493643Y-16340214D02*
X17465071Y-16325929D01*
X17450786Y-16297357D01*
X17450786Y-16040214D01*
X17722214Y-16325929D02*
X17693643Y-16340214D01*
X17636500Y-16340214D01*
X17607928Y-16325929D01*
X17593643Y-16297357D01*
X17593643Y-16183071D01*
X17607928Y-16154500D01*
X17636500Y-16140214D01*
X17693643Y-16140214D01*
X17722214Y-16154500D01*
X17736500Y-16183071D01*
X17736500Y-16211643D01*
X17593643Y-16240214D01*
X17850786Y-16325929D02*
X17879357Y-16340214D01*
X17936500Y-16340214D01*
X17965071Y-16325929D01*
X17979357Y-16297357D01*
X17979357Y-16283071D01*
X17965071Y-16254500D01*
X17936500Y-16240214D01*
X17893643Y-16240214D01*
X17865071Y-16225929D01*
X17850786Y-16197357D01*
X17850786Y-16183071D01*
X17865071Y-16154500D01*
X17893643Y-16140214D01*
X17936500Y-16140214D01*
X17965071Y-16154500D01*
X18079357Y-16454500D02*
X18093643Y-16440214D01*
X18122214Y-16397357D01*
X18136500Y-16368786D01*
X18150786Y-16325929D01*
X18165071Y-16254500D01*
X18165071Y-16197357D01*
X18150786Y-16125929D01*
X18136500Y-16083071D01*
X18122214Y-16054500D01*
X18093643Y-16011643D01*
X18079357Y-15997357D01*
X10491500Y-16335500D02*
X11021500Y-16865500D01*
X11021500Y-16335500D02*
X10491500Y-16865500D01*
X11021500Y-16600500D02*
G75*
G03*
X11021500Y-16600500I-265000J0D01*
G01*
X11450786Y-16436214D02*
X11307928Y-16436214D01*
X11293643Y-16579071D01*
X11307928Y-16564786D01*
X11336500Y-16550500D01*
X11407928Y-16550500D01*
X11436500Y-16564786D01*
X11450786Y-16579071D01*
X11465071Y-16607643D01*
X11465071Y-16679071D01*
X11450786Y-16707643D01*
X11436500Y-16721929D01*
X11407928Y-16736214D01*
X11336500Y-16736214D01*
X11307928Y-16721929D01*
X11293643Y-16707643D01*
X11593643Y-16707643D02*
X11607928Y-16721929D01*
X11593643Y-16736214D01*
X11579357Y-16721929D01*
X11593643Y-16707643D01*
X11593643Y-16736214D01*
X11707928Y-16436214D02*
X11893643Y-16436214D01*
X11793643Y-16550500D01*
X11836500Y-16550500D01*
X11865071Y-16564786D01*
X11879357Y-16579071D01*
X11893643Y-16607643D01*
X11893643Y-16679071D01*
X11879357Y-16707643D01*
X11865071Y-16721929D01*
X11836500Y-16736214D01*
X11750786Y-16736214D01*
X11722214Y-16721929D01*
X11707928Y-16707643D01*
X12079357Y-16436214D02*
X12107928Y-16436214D01*
X12136500Y-16450500D01*
X12150786Y-16464786D01*
X12165071Y-16493357D01*
X12179357Y-16550500D01*
X12179357Y-16621929D01*
X12165071Y-16679071D01*
X12150786Y-16707643D01*
X12136500Y-16721929D01*
X12107928Y-16736214D01*
X12079357Y-16736214D01*
X12050786Y-16721929D01*
X12036500Y-16707643D01*
X12022214Y-16679071D01*
X12007928Y-16621929D01*
X12007928Y-16550500D01*
X12022214Y-16493357D01*
X12036500Y-16464786D01*
X12050786Y-16450500D01*
X12079357Y-16436214D01*
X12365071Y-16436214D02*
X12393643Y-16436214D01*
X12422214Y-16450500D01*
X12436500Y-16464786D01*
X12450786Y-16493357D01*
X12465071Y-16550500D01*
X12465071Y-16621929D01*
X12450786Y-16679071D01*
X12436500Y-16707643D01*
X12422214Y-16721929D01*
X12393643Y-16736214D01*
X12365071Y-16736214D01*
X12336500Y-16721929D01*
X12322214Y-16707643D01*
X12307928Y-16679071D01*
X12293643Y-16621929D01*
X12293643Y-16550500D01*
X12307928Y-16493357D01*
X12322214Y-16464786D01*
X12336500Y-16450500D01*
X12365071Y-16436214D01*
X12593643Y-16736214D02*
X12593643Y-16536214D01*
X12593643Y-16564786D02*
X12607928Y-16550500D01*
X12636500Y-16536214D01*
X12679357Y-16536214D01*
X12707928Y-16550500D01*
X12722214Y-16579071D01*
X12722214Y-16736214D01*
X12722214Y-16579071D02*
X12736500Y-16550500D01*
X12765071Y-16536214D01*
X12807928Y-16536214D01*
X12836500Y-16550500D01*
X12850786Y-16579071D01*
X12850786Y-16736214D01*
X12993643Y-16736214D02*
X12993643Y-16536214D01*
X12993643Y-16564786D02*
X13007928Y-16550500D01*
X13036500Y-16536214D01*
X13079357Y-16536214D01*
X13107928Y-16550500D01*
X13122214Y-16579071D01*
X13122214Y-16736214D01*
X13122214Y-16579071D02*
X13136500Y-16550500D01*
X13165071Y-16536214D01*
X13207928Y-16536214D01*
X13236500Y-16550500D01*
X13250786Y-16579071D01*
X13250786Y-16736214D01*
X13836500Y-16421929D02*
X13579357Y-16807643D01*
X14222214Y-16436214D02*
X14250786Y-16436214D01*
X14279357Y-16450500D01*
X14293643Y-16464786D01*
X14307928Y-16493357D01*
X14322214Y-16550500D01*
X14322214Y-16621929D01*
X14307928Y-16679071D01*
X14293643Y-16707643D01*
X14279357Y-16721929D01*
X14250786Y-16736214D01*
X14222214Y-16736214D01*
X14193643Y-16721929D01*
X14179357Y-16707643D01*
X14165071Y-16679071D01*
X14150786Y-16621929D01*
X14150786Y-16550500D01*
X14165071Y-16493357D01*
X14179357Y-16464786D01*
X14193643Y-16450500D01*
X14222214Y-16436214D01*
X14450786Y-16707643D02*
X14465071Y-16721929D01*
X14450786Y-16736214D01*
X14436500Y-16721929D01*
X14450786Y-16707643D01*
X14450786Y-16736214D01*
X14579357Y-16464786D02*
X14593643Y-16450500D01*
X14622214Y-16436214D01*
X14693643Y-16436214D01*
X14722214Y-16450500D01*
X14736500Y-16464786D01*
X14750786Y-16493357D01*
X14750786Y-16521929D01*
X14736500Y-16564786D01*
X14565071Y-16736214D01*
X14750786Y-16736214D01*
X14936500Y-16436214D02*
X14965071Y-16436214D01*
X14993643Y-16450500D01*
X15007928Y-16464786D01*
X15022214Y-16493357D01*
X15036500Y-16550500D01*
X15036500Y-16621929D01*
X15022214Y-16679071D01*
X15007928Y-16707643D01*
X14993643Y-16721929D01*
X14965071Y-16736214D01*
X14936500Y-16736214D01*
X14907928Y-16721929D01*
X14893643Y-16707643D01*
X14879357Y-16679071D01*
X14865071Y-16621929D01*
X14865071Y-16550500D01*
X14879357Y-16493357D01*
X14893643Y-16464786D01*
X14907928Y-16450500D01*
X14936500Y-16436214D01*
X15207928Y-16564786D02*
X15179357Y-16550500D01*
X15165071Y-16536214D01*
X15150786Y-16507643D01*
X15150786Y-16493357D01*
X15165071Y-16464786D01*
X15179357Y-16450500D01*
X15207928Y-16436214D01*
X15265071Y-16436214D01*
X15293643Y-16450500D01*
X15307928Y-16464786D01*
X15322214Y-16493357D01*
X15322214Y-16507643D01*
X15307928Y-16536214D01*
X15293643Y-16550500D01*
X15265071Y-16564786D01*
X15207928Y-16564786D01*
X15179357Y-16579071D01*
X15165071Y-16593357D01*
X15150786Y-16621929D01*
X15150786Y-16679071D01*
X15165071Y-16707643D01*
X15179357Y-16721929D01*
X15207928Y-16736214D01*
X15265071Y-16736214D01*
X15293643Y-16721929D01*
X15307928Y-16707643D01*
X15322214Y-16679071D01*
X15322214Y-16621929D01*
X15307928Y-16593357D01*
X15293643Y-16579071D01*
X15265071Y-16564786D01*
X15422214Y-16436214D02*
X15622214Y-16436214D01*
X15493643Y-16736214D01*
X15722214Y-16436214D02*
X15722214Y-16493357D01*
X15836500Y-16436214D02*
X15836500Y-16493357D01*
X16279357Y-16850500D02*
X16265071Y-16836214D01*
X16236500Y-16793357D01*
X16222214Y-16764786D01*
X16207928Y-16721929D01*
X16193643Y-16650500D01*
X16193643Y-16593357D01*
X16207928Y-16521929D01*
X16222214Y-16479071D01*
X16236500Y-16450500D01*
X16265071Y-16407643D01*
X16279357Y-16393357D01*
X16522214Y-16536214D02*
X16522214Y-16736214D01*
X16450786Y-16421929D02*
X16379357Y-16636214D01*
X16565071Y-16636214D01*
X16907928Y-16736214D02*
X16907928Y-16436214D01*
X17036500Y-16736214D02*
X17036500Y-16579071D01*
X17022214Y-16550500D01*
X16993643Y-16536214D01*
X16950786Y-16536214D01*
X16922214Y-16550500D01*
X16907928Y-16564786D01*
X17222214Y-16736214D02*
X17193643Y-16721929D01*
X17179357Y-16707643D01*
X17165071Y-16679071D01*
X17165071Y-16593357D01*
X17179357Y-16564786D01*
X17193643Y-16550500D01*
X17222214Y-16536214D01*
X17265071Y-16536214D01*
X17293643Y-16550500D01*
X17307928Y-16564786D01*
X17322214Y-16593357D01*
X17322214Y-16679071D01*
X17307928Y-16707643D01*
X17293643Y-16721929D01*
X17265071Y-16736214D01*
X17222214Y-16736214D01*
X17493643Y-16736214D02*
X17465071Y-16721929D01*
X17450786Y-16693357D01*
X17450786Y-16436214D01*
X17722214Y-16721929D02*
X17693643Y-16736214D01*
X17636500Y-16736214D01*
X17607928Y-16721929D01*
X17593643Y-16693357D01*
X17593643Y-16579071D01*
X17607928Y-16550500D01*
X17636500Y-16536214D01*
X17693643Y-16536214D01*
X17722214Y-16550500D01*
X17736500Y-16579071D01*
X17736500Y-16607643D01*
X17593643Y-16636214D01*
X17850786Y-16721929D02*
X17879357Y-16736214D01*
X17936500Y-16736214D01*
X17965071Y-16721929D01*
X17979357Y-16693357D01*
X17979357Y-16679071D01*
X17965071Y-16650500D01*
X17936500Y-16636214D01*
X17893643Y-16636214D01*
X17865071Y-16621929D01*
X17850786Y-16593357D01*
X17850786Y-16579071D01*
X17865071Y-16550500D01*
X17893643Y-16536214D01*
X17936500Y-16536214D01*
X17965071Y-16550500D01*
X18079357Y-16850500D02*
X18093643Y-16836214D01*
X18122214Y-16793357D01*
X18136500Y-16764786D01*
X18150786Y-16721929D01*
X18165071Y-16650500D01*
X18165071Y-16593357D01*
X18150786Y-16521929D01*
X18136500Y-16479071D01*
X18122214Y-16450500D01*
X18093643Y-16407643D01*
X18079357Y-16393357D01*
M02*
