G04 #@! TF.GenerationSoftware,KiCad,Pcbnew,5.1.10*
G04 #@! TF.CreationDate,2021-06-04T18:58:03-05:00*
G04 #@! TF.ProjectId,Rectifier,52656374-6966-4696-9572-2e6b69636164,rev?*
G04 #@! TF.SameCoordinates,Original*
G04 #@! TF.FileFunction,Copper,L1,Top*
G04 #@! TF.FilePolarity,Positive*
%FSLAX46Y46*%
G04 Gerber Fmt 4.6, Leading zero omitted, Abs format (unit mm)*
G04 Created by KiCad (PCBNEW 5.1.10) date 2021-06-04 18:58:03*
%MOMM*%
%LPD*%
G01*
G04 APERTURE LIST*
G04 #@! TA.AperFunction,ComponentPad*
%ADD10C,0.900000*%
G04 #@! TD*
G04 #@! TA.AperFunction,ComponentPad*
%ADD11C,10.600000*%
G04 #@! TD*
G04 #@! TA.AperFunction,ComponentPad*
%ADD12C,2.600000*%
G04 #@! TD*
G04 #@! TA.AperFunction,ComponentPad*
%ADD13R,2.600000X2.600000*%
G04 #@! TD*
G04 #@! TA.AperFunction,ComponentPad*
%ADD14O,1.950000X1.700000*%
G04 #@! TD*
G04 #@! TA.AperFunction,ComponentPad*
%ADD15O,3.200000X3.200000*%
G04 #@! TD*
G04 #@! TA.AperFunction,ComponentPad*
%ADD16R,3.200000X3.200000*%
G04 #@! TD*
G04 #@! TA.AperFunction,Conductor*
%ADD17C,1.200000*%
G04 #@! TD*
G04 APERTURE END LIST*
D10*
X178310749Y-35689251D03*
X175500000Y-34525000D03*
X172689251Y-35689251D03*
X171525000Y-38500000D03*
X172689251Y-41310749D03*
X175500000Y-42475000D03*
X178310749Y-41310749D03*
X179475000Y-38500000D03*
D11*
X175500000Y-38500000D03*
X130250000Y-39000000D03*
D10*
X134225000Y-39000000D03*
X133060749Y-41810749D03*
X130250000Y-42975000D03*
X127439251Y-41810749D03*
X126275000Y-39000000D03*
X127439251Y-36189251D03*
X130250000Y-35025000D03*
X133060749Y-36189251D03*
D12*
X126250000Y-57000000D03*
D13*
X126250000Y-52000000D03*
D12*
X126250000Y-78000000D03*
D13*
X126250000Y-73000000D03*
D12*
X179500000Y-52000000D03*
D13*
X179500000Y-57000000D03*
D14*
X182000000Y-79250000D03*
X182000000Y-76750000D03*
X182000000Y-74250000D03*
G04 #@! TA.AperFunction,ComponentPad*
G36*
G01*
X181275000Y-70900000D02*
X182725000Y-70900000D01*
G75*
G02*
X182975000Y-71150000I0J-250000D01*
G01*
X182975000Y-72350000D01*
G75*
G02*
X182725000Y-72600000I-250000J0D01*
G01*
X181275000Y-72600000D01*
G75*
G02*
X181025000Y-72350000I0J250000D01*
G01*
X181025000Y-71150000D01*
G75*
G02*
X181275000Y-70900000I250000J0D01*
G01*
G37*
G04 #@! TD.AperFunction*
D15*
X150990000Y-57500000D03*
D16*
X135750000Y-57500000D03*
D15*
X150990000Y-78500000D03*
D16*
X135750000Y-78500000D03*
D15*
X150990000Y-66500000D03*
D16*
X135750000Y-66500000D03*
D15*
X150990000Y-51500000D03*
D16*
X135750000Y-51500000D03*
D15*
X170240000Y-57500000D03*
D16*
X155000000Y-57500000D03*
D15*
X150990000Y-84500000D03*
D16*
X135750000Y-84500000D03*
D15*
X170240000Y-78500000D03*
D16*
X155000000Y-78500000D03*
D15*
X150990000Y-72500000D03*
D16*
X135750000Y-72500000D03*
D15*
X170240000Y-66500000D03*
D16*
X155000000Y-66500000D03*
D15*
X170240000Y-51500000D03*
D16*
X155000000Y-51500000D03*
D15*
X170240000Y-84500000D03*
D16*
X155000000Y-84500000D03*
D15*
X170240000Y-72500000D03*
D16*
X155000000Y-72500000D03*
D17*
X155000000Y-72500000D02*
X157800000Y-72500000D01*
X157800000Y-72500000D02*
X160237500Y-70062500D01*
X160237500Y-70062500D02*
X173196700Y-70062500D01*
X173196700Y-70062500D02*
X177384200Y-74250000D01*
X177384200Y-74250000D02*
X182000000Y-74250000D01*
X155000000Y-72500000D02*
X150990000Y-72500000D01*
X182000000Y-79250000D02*
X182000000Y-81300000D01*
X155000000Y-84500000D02*
X157800000Y-84500000D01*
X157800000Y-84500000D02*
X161000000Y-81300000D01*
X161000000Y-81300000D02*
X182000000Y-81300000D01*
X150990000Y-84500000D02*
X155000000Y-84500000D01*
X155000000Y-51500000D02*
X150990000Y-51500000D01*
X150990000Y-66500000D02*
X155000000Y-66500000D01*
X182000000Y-76750000D02*
X179825000Y-76750000D01*
X155000000Y-78500000D02*
X164432600Y-78500000D01*
X164432600Y-78500000D02*
X166872900Y-76059700D01*
X166872900Y-76059700D02*
X179134700Y-76059700D01*
X179134700Y-76059700D02*
X179825000Y-76750000D01*
X150990000Y-78500000D02*
X155000000Y-78500000D01*
X179500000Y-57000000D02*
X177000000Y-57000000D01*
X155000000Y-57500000D02*
X164432600Y-57500000D01*
X164432600Y-57500000D02*
X166885700Y-55046900D01*
X166885700Y-55046900D02*
X175046900Y-55046900D01*
X175046900Y-55046900D02*
X177000000Y-57000000D01*
X150990000Y-57500000D02*
X155000000Y-57500000D01*
X126250000Y-73000000D02*
X128750000Y-73000000D01*
X170240000Y-72500000D02*
X167440000Y-72500000D01*
X167440000Y-72500000D02*
X165039600Y-74900400D01*
X165039600Y-74900400D02*
X130650400Y-74900400D01*
X130650400Y-74900400D02*
X128750000Y-73000000D01*
X126250000Y-52000000D02*
X128750000Y-52000000D01*
X170240000Y-51500000D02*
X167440000Y-51500000D01*
X167440000Y-51500000D02*
X165039600Y-53900400D01*
X165039600Y-53900400D02*
X130650400Y-53900400D01*
X130650400Y-53900400D02*
X128750000Y-52000000D01*
X135750000Y-78500000D02*
X126750000Y-78500000D01*
X126750000Y-78500000D02*
X126250000Y-78000000D01*
M02*
