G04 #@! TF.GenerationSoftware,KiCad,Pcbnew,5.1.10*
G04 #@! TF.CreationDate,2021-06-29T02:57:08-05:00*
G04 #@! TF.ProjectId,Power Board,506f7765-7220-4426-9f61-72642e6b6963,rev?*
G04 #@! TF.SameCoordinates,Original*
G04 #@! TF.FileFunction,Soldermask,Top*
G04 #@! TF.FilePolarity,Negative*
%FSLAX46Y46*%
G04 Gerber Fmt 4.6, Leading zero omitted, Abs format (unit mm)*
G04 Created by KiCad (PCBNEW 5.1.10) date 2021-06-29 02:57:08*
%MOMM*%
%LPD*%
G01*
G04 APERTURE LIST*
%ADD10O,1.700000X1.700000*%
%ADD11R,1.700000X1.700000*%
%ADD12O,1.950000X1.700000*%
%ADD13C,5.500000*%
%ADD14R,3.750000X3.750000*%
%ADD15C,2.600000*%
%ADD16R,2.600000X2.600000*%
%ADD17C,2.000000*%
%ADD18O,2.000000X1.700000*%
%ADD19C,10.600000*%
%ADD20C,0.900000*%
G04 APERTURE END LIST*
D10*
X80360000Y-126250000D03*
X77820000Y-126250000D03*
X75280000Y-126250000D03*
X72740000Y-126250000D03*
X70200000Y-126250000D03*
X67660000Y-126250000D03*
X65120000Y-126250000D03*
X62580000Y-126250000D03*
X60040000Y-126250000D03*
D11*
X57500000Y-126250000D03*
D10*
X108790000Y-52120000D03*
X106250000Y-52120000D03*
X108790000Y-49580000D03*
X106250000Y-49580000D03*
X108790000Y-47040000D03*
X106250000Y-47040000D03*
X108790000Y-44500000D03*
X106250000Y-44500000D03*
X108790000Y-41960000D03*
D11*
X106250000Y-41960000D03*
D12*
X42750000Y-55750000D03*
X42750000Y-53250000D03*
G36*
G01*
X42025000Y-49900000D02*
X43475000Y-49900000D01*
G75*
G02*
X43725000Y-50150000I0J-250000D01*
G01*
X43725000Y-51350000D01*
G75*
G02*
X43475000Y-51600000I-250000J0D01*
G01*
X42025000Y-51600000D01*
G75*
G02*
X41775000Y-51350000I0J250000D01*
G01*
X41775000Y-50150000D01*
G75*
G02*
X42025000Y-49900000I250000J0D01*
G01*
G37*
D13*
X80000000Y-30500000D03*
X55000000Y-25500000D03*
D14*
X91250000Y-41500000D03*
X91250000Y-19500000D03*
X43750000Y-41500000D03*
X43750000Y-19500000D03*
D15*
X41750000Y-120000000D03*
D16*
X46750000Y-120000000D03*
D14*
X53000000Y-120750000D03*
X53000000Y-102250000D03*
X94000000Y-120750000D03*
X94000000Y-102250000D03*
D13*
X88500000Y-103500000D03*
X58500000Y-119500000D03*
D14*
X93850000Y-48500000D03*
X93850000Y-67500000D03*
X49650000Y-48500000D03*
X49650000Y-67500000D03*
D13*
X55150000Y-66750000D03*
X88350000Y-49250000D03*
D17*
X94750000Y-63200000D03*
D15*
X107500000Y-58750000D03*
D16*
X107500000Y-63750000D03*
D15*
X107500000Y-68750000D03*
D16*
X107500000Y-73750000D03*
D18*
X42750000Y-67250000D03*
G36*
G01*
X42000000Y-63900000D02*
X43500000Y-63900000D01*
G75*
G02*
X43750000Y-64150000I0J-250000D01*
G01*
X43750000Y-65350000D01*
G75*
G02*
X43500000Y-65600000I-250000J0D01*
G01*
X42000000Y-65600000D01*
G75*
G02*
X41750000Y-65350000I0J250000D01*
G01*
X41750000Y-64150000D01*
G75*
G02*
X42000000Y-63900000I250000J0D01*
G01*
G37*
D15*
X107500000Y-88750000D03*
D16*
X107500000Y-93750000D03*
D19*
X107500000Y-118000000D03*
D20*
X111475000Y-118000000D03*
X110310749Y-120810749D03*
X107500000Y-121975000D03*
X104689251Y-120810749D03*
X103525000Y-118000000D03*
X104689251Y-115189251D03*
X107500000Y-114025000D03*
X110310749Y-115189251D03*
D19*
X107500000Y-26000000D03*
D20*
X111475000Y-26000000D03*
X110310749Y-28810749D03*
X107500000Y-29975000D03*
X104689251Y-28810749D03*
X103525000Y-26000000D03*
X104689251Y-23189251D03*
X107500000Y-22025000D03*
X110310749Y-23189251D03*
D19*
X27500000Y-118000000D03*
D20*
X31475000Y-118000000D03*
X30310749Y-120810749D03*
X27500000Y-121975000D03*
X24689251Y-120810749D03*
X23525000Y-118000000D03*
X24689251Y-115189251D03*
X27500000Y-114025000D03*
X30310749Y-115189251D03*
D19*
X27500000Y-26000000D03*
D20*
X31475000Y-26000000D03*
X30310749Y-28810749D03*
X27500000Y-29975000D03*
X24689251Y-28810749D03*
X23525000Y-26000000D03*
X24689251Y-23189251D03*
X27500000Y-22025000D03*
X30310749Y-23189251D03*
M02*
