G04 #@! TF.GenerationSoftware,KiCad,Pcbnew,5.1.10*
G04 #@! TF.CreationDate,2021-06-29T02:57:08-05:00*
G04 #@! TF.ProjectId,Power Board,506f7765-7220-4426-9f61-72642e6b6963,rev?*
G04 #@! TF.SameCoordinates,Original*
G04 #@! TF.FileFunction,Copper,L2,Bot*
G04 #@! TF.FilePolarity,Positive*
%FSLAX46Y46*%
G04 Gerber Fmt 4.6, Leading zero omitted, Abs format (unit mm)*
G04 Created by KiCad (PCBNEW 5.1.10) date 2021-06-29 02:57:08*
%MOMM*%
%LPD*%
G01*
G04 APERTURE LIST*
G04 #@! TA.AperFunction,ComponentPad*
%ADD10O,1.700000X1.700000*%
G04 #@! TD*
G04 #@! TA.AperFunction,ComponentPad*
%ADD11R,1.700000X1.700000*%
G04 #@! TD*
G04 #@! TA.AperFunction,ComponentPad*
%ADD12O,1.950000X1.700000*%
G04 #@! TD*
G04 #@! TA.AperFunction,ComponentPad*
%ADD13C,0.500000*%
G04 #@! TD*
G04 #@! TA.AperFunction,ComponentPad*
%ADD14C,5.500000*%
G04 #@! TD*
G04 #@! TA.AperFunction,ComponentPad*
%ADD15R,3.750000X3.750000*%
G04 #@! TD*
G04 #@! TA.AperFunction,ComponentPad*
%ADD16C,2.600000*%
G04 #@! TD*
G04 #@! TA.AperFunction,ComponentPad*
%ADD17R,2.600000X2.600000*%
G04 #@! TD*
G04 #@! TA.AperFunction,ComponentPad*
%ADD18C,2.000000*%
G04 #@! TD*
G04 #@! TA.AperFunction,ComponentPad*
%ADD19O,2.000000X1.700000*%
G04 #@! TD*
G04 #@! TA.AperFunction,ComponentPad*
%ADD20C,10.600000*%
G04 #@! TD*
G04 #@! TA.AperFunction,ComponentPad*
%ADD21C,0.900000*%
G04 #@! TD*
G04 #@! TA.AperFunction,ViaPad*
%ADD22C,0.800000*%
G04 #@! TD*
G04 #@! TA.AperFunction,Conductor*
%ADD23C,1.200000*%
G04 #@! TD*
G04 APERTURE END LIST*
D10*
X80360000Y-126250000D03*
X77820000Y-126250000D03*
X75280000Y-126250000D03*
X72740000Y-126250000D03*
X70200000Y-126250000D03*
X67660000Y-126250000D03*
X65120000Y-126250000D03*
X62580000Y-126250000D03*
X60040000Y-126250000D03*
D11*
X57500000Y-126250000D03*
D10*
X108790000Y-52120000D03*
X106250000Y-52120000D03*
X108790000Y-49580000D03*
X106250000Y-49580000D03*
X108790000Y-47040000D03*
X106250000Y-47040000D03*
X108790000Y-44500000D03*
X106250000Y-44500000D03*
X108790000Y-41960000D03*
D11*
X106250000Y-41960000D03*
D12*
X42750000Y-55750000D03*
X42750000Y-53250000D03*
G04 #@! TA.AperFunction,ComponentPad*
G36*
G01*
X42025000Y-49900000D02*
X43475000Y-49900000D01*
G75*
G02*
X43725000Y-50150000I0J-250000D01*
G01*
X43725000Y-51350000D01*
G75*
G02*
X43475000Y-51600000I-250000J0D01*
G01*
X42025000Y-51600000D01*
G75*
G02*
X41775000Y-51350000I0J250000D01*
G01*
X41775000Y-50150000D01*
G75*
G02*
X42025000Y-49900000I250000J0D01*
G01*
G37*
G04 #@! TD.AperFunction*
D13*
X78479720Y-29000000D03*
X56520280Y-23979720D03*
X52850000Y-25500000D03*
X53479720Y-27020280D03*
X56520280Y-27020280D03*
X57150000Y-25500000D03*
X55000000Y-27750000D03*
X81520280Y-28979720D03*
X77850000Y-30500000D03*
D14*
X80000000Y-30500000D03*
X55000000Y-25500000D03*
D13*
X80000000Y-28350000D03*
X55000000Y-23350000D03*
X53479720Y-23979720D03*
X80000000Y-32650000D03*
X82150000Y-30500000D03*
D15*
X91250000Y-41500000D03*
X91250000Y-19500000D03*
X43750000Y-41500000D03*
X43750000Y-19500000D03*
D13*
X78479720Y-32000000D03*
X81520280Y-32020280D03*
D16*
X41750000Y-120000000D03*
D17*
X46750000Y-120000000D03*
D15*
X53000000Y-120750000D03*
X53000000Y-102250000D03*
X94000000Y-120750000D03*
X94000000Y-102250000D03*
D13*
X90020280Y-105020280D03*
X86979720Y-105020280D03*
X90650000Y-103500000D03*
X86979720Y-101979720D03*
X88500000Y-105650000D03*
X88500000Y-101350000D03*
X90020280Y-101979720D03*
X86350000Y-103500000D03*
X60020280Y-117979720D03*
X58500000Y-117350000D03*
X56979720Y-117979720D03*
X56350000Y-119500000D03*
X56979720Y-121020280D03*
X60020280Y-121020280D03*
X60650000Y-119500000D03*
X58500000Y-121650000D03*
D14*
X88500000Y-103500000D03*
X58500000Y-119500000D03*
D15*
X93850000Y-48500000D03*
X93850000Y-67500000D03*
X49650000Y-48500000D03*
X49650000Y-67500000D03*
D13*
X53629720Y-65179720D03*
X56670280Y-65179720D03*
X53000000Y-66700000D03*
X56670280Y-68220280D03*
X55150000Y-64550000D03*
X55150000Y-68850000D03*
X53629720Y-68220280D03*
X57300000Y-66700000D03*
X86829720Y-50820280D03*
X88350000Y-51450000D03*
X89870280Y-50820280D03*
X90500000Y-49300000D03*
X89870280Y-47779720D03*
X86829720Y-47779720D03*
X86200000Y-49300000D03*
X88350000Y-47150000D03*
D14*
X55150000Y-66750000D03*
X88350000Y-49250000D03*
D18*
X94750000Y-63200000D03*
D16*
X107500000Y-58750000D03*
D17*
X107500000Y-63750000D03*
D16*
X107500000Y-68750000D03*
D17*
X107500000Y-73750000D03*
D19*
X42750000Y-67250000D03*
G04 #@! TA.AperFunction,ComponentPad*
G36*
G01*
X42000000Y-63900000D02*
X43500000Y-63900000D01*
G75*
G02*
X43750000Y-64150000I0J-250000D01*
G01*
X43750000Y-65350000D01*
G75*
G02*
X43500000Y-65600000I-250000J0D01*
G01*
X42000000Y-65600000D01*
G75*
G02*
X41750000Y-65350000I0J250000D01*
G01*
X41750000Y-64150000D01*
G75*
G02*
X42000000Y-63900000I250000J0D01*
G01*
G37*
G04 #@! TD.AperFunction*
D16*
X107500000Y-88750000D03*
D17*
X107500000Y-93750000D03*
D20*
X107500000Y-118000000D03*
D21*
X111475000Y-118000000D03*
X110310749Y-120810749D03*
X107500000Y-121975000D03*
X104689251Y-120810749D03*
X103525000Y-118000000D03*
X104689251Y-115189251D03*
X107500000Y-114025000D03*
X110310749Y-115189251D03*
D20*
X107500000Y-26000000D03*
D21*
X111475000Y-26000000D03*
X110310749Y-28810749D03*
X107500000Y-29975000D03*
X104689251Y-28810749D03*
X103525000Y-26000000D03*
X104689251Y-23189251D03*
X107500000Y-22025000D03*
X110310749Y-23189251D03*
D20*
X27500000Y-118000000D03*
D21*
X31475000Y-118000000D03*
X30310749Y-120810749D03*
X27500000Y-121975000D03*
X24689251Y-120810749D03*
X23525000Y-118000000D03*
X24689251Y-115189251D03*
X27500000Y-114025000D03*
X30310749Y-115189251D03*
D20*
X27500000Y-26000000D03*
D21*
X31475000Y-26000000D03*
X30310749Y-28810749D03*
X27500000Y-29975000D03*
X24689251Y-28810749D03*
X23525000Y-26000000D03*
X24689251Y-23189251D03*
X27500000Y-22025000D03*
X30310749Y-23189251D03*
D22*
X51712500Y-107920100D03*
X83295300Y-116767600D03*
D23*
X42750000Y-67250000D02*
X40550000Y-67250000D01*
X40550000Y-67250000D02*
X40550000Y-64105200D01*
X40550000Y-64105200D02*
X85155200Y-19500000D01*
X85155200Y-19500000D02*
X91250000Y-19500000D01*
X42750000Y-64750000D02*
X66000000Y-41500000D01*
X66000000Y-41500000D02*
X91250000Y-41500000D01*
X106250000Y-52120000D02*
X106250000Y-54170000D01*
X107500000Y-63750000D02*
X107500000Y-61250000D01*
X107500000Y-61250000D02*
X106965600Y-61250000D01*
X106965600Y-61250000D02*
X105362800Y-59647200D01*
X105362800Y-59647200D02*
X105362800Y-55057200D01*
X105362800Y-55057200D02*
X106250000Y-54170000D01*
X93850000Y-67500000D02*
X93850000Y-70575000D01*
X107500000Y-88750000D02*
X107500000Y-81774600D01*
X107500000Y-81774600D02*
X96300400Y-70575000D01*
X96300400Y-70575000D02*
X93850000Y-70575000D01*
X93850000Y-67500000D02*
X90775000Y-67500000D01*
X49650000Y-67500000D02*
X49650000Y-64425000D01*
X49650000Y-64425000D02*
X50883200Y-63191800D01*
X50883200Y-63191800D02*
X86466800Y-63191800D01*
X86466800Y-63191800D02*
X90775000Y-67500000D01*
X67660000Y-126250000D02*
X67660000Y-123619800D01*
X67660000Y-123619800D02*
X51960300Y-107920100D01*
X51960300Y-107920100D02*
X51712500Y-107920100D01*
X42750000Y-50750000D02*
X44527700Y-52527700D01*
X44527700Y-52527700D02*
X44527700Y-53972300D01*
X44527700Y-53972300D02*
X42750000Y-55750000D01*
X43750000Y-41500000D02*
X46825000Y-41500000D01*
X49650000Y-48500000D02*
X49650000Y-45425000D01*
X49650000Y-45425000D02*
X46825000Y-42600000D01*
X46825000Y-42600000D02*
X46825000Y-41500000D01*
X83295300Y-116767600D02*
X71852700Y-105325000D01*
X71852700Y-105325000D02*
X53000000Y-105325000D01*
X83295300Y-116767600D02*
X94000000Y-106062900D01*
X94000000Y-106062900D02*
X94000000Y-102250000D01*
X53000000Y-102250000D02*
X53000000Y-105325000D01*
X53000000Y-105325000D02*
X52327300Y-105325000D01*
X52327300Y-105325000D02*
X41750000Y-115902300D01*
X41750000Y-115902300D02*
X41750000Y-120000000D01*
X107500000Y-68750000D02*
X109600400Y-66649600D01*
X109600400Y-66649600D02*
X109600400Y-60850400D01*
X109600400Y-60850400D02*
X107500000Y-58750000D01*
X53000000Y-120750000D02*
X56588100Y-124338100D01*
X56588100Y-124338100D02*
X60668100Y-124338100D01*
X60668100Y-124338100D02*
X62580000Y-126250000D01*
X46750000Y-120000000D02*
X49250000Y-120000000D01*
X49250000Y-120000000D02*
X49250000Y-121953100D01*
X49250000Y-121953100D02*
X53546900Y-126250000D01*
X53546900Y-126250000D02*
X57500000Y-126250000D01*
X70200000Y-126250000D02*
X71886300Y-124563700D01*
X71886300Y-124563700D02*
X77479600Y-124563700D01*
X77479600Y-124563700D02*
X96844100Y-105199200D01*
X96844100Y-105199200D02*
X96844100Y-100621500D01*
X96844100Y-100621500D02*
X105816000Y-91649600D01*
X105816000Y-91649600D02*
X107620400Y-91649600D01*
X107620400Y-91649600D02*
X109629800Y-89640200D01*
X109629800Y-89640200D02*
X109629800Y-78379800D01*
X109629800Y-78379800D02*
X107500000Y-76250000D01*
X107500000Y-73750000D02*
X107500000Y-76250000D01*
X80360000Y-126250000D02*
X80360000Y-124200000D01*
X80360000Y-124200000D02*
X107500000Y-97060000D01*
X107500000Y-97060000D02*
X107500000Y-96250000D01*
X107500000Y-93750000D02*
X107500000Y-96250000D01*
M02*
