M48
; DRILL file {KiCad 5.1.10} date Fri Jun  4 18:58:06 2021
; FORMAT={-:-/ absolute / metric / decimal}
; #@! TF.CreationDate,2021-06-04T18:58:06-05:00
; #@! TF.GenerationSoftware,Kicad,Pcbnew,5.1.10
; #@! TF.FileFunction,Plated,1,2,PTH
FMAT,2
METRIC
T1C0.600
T2C0.950
T3C1.300
T4C1.600
T5C5.300
%
G90
G05
T1
X126.275Y-39.0
X127.439Y-36.189
X127.439Y-41.811
X130.25Y-35.025
X130.25Y-42.975
X133.061Y-36.189
X133.061Y-41.811
X134.225Y-39.0
X171.525Y-38.5
X172.689Y-35.689
X172.689Y-41.311
X175.5Y-34.525
X175.5Y-42.475
X178.311Y-35.689
X178.311Y-41.311
X179.475Y-38.5
T2
X182.0Y-71.75
X182.0Y-74.25
X182.0Y-76.75
X182.0Y-79.25
T3
X126.25Y-52.0
X126.25Y-57.0
X126.25Y-73.0
X126.25Y-78.0
X179.5Y-52.0
X179.5Y-57.0
T4
X135.75Y-51.5
X135.75Y-57.5
X135.75Y-66.5
X135.75Y-72.5
X135.75Y-78.5
X135.75Y-84.5
X150.99Y-51.5
X150.99Y-57.5
X150.99Y-66.5
X150.99Y-72.5
X150.99Y-78.5
X150.99Y-84.5
X155.0Y-51.5
X155.0Y-57.5
X155.0Y-66.5
X155.0Y-72.5
X155.0Y-78.5
X155.0Y-84.5
X170.24Y-51.5
X170.24Y-57.5
X170.24Y-66.5
X170.24Y-72.5
X170.24Y-78.5
X170.24Y-84.5
T5
X130.25Y-39.0
X175.5Y-38.5
T0
M30
