G04 #@! TF.GenerationSoftware,KiCad,Pcbnew,5.1.10*
G04 #@! TF.CreationDate,2021-05-19T15:42:40-05:00*
G04 #@! TF.ProjectId,Power Board,506f7765-7220-4426-9f61-72642e6b6963,rev?*
G04 #@! TF.SameCoordinates,Original*
G04 #@! TF.FileFunction,Legend,Bot*
G04 #@! TF.FilePolarity,Positive*
%FSLAX46Y46*%
G04 Gerber Fmt 4.6, Leading zero omitted, Abs format (unit mm)*
G04 Created by KiCad (PCBNEW 5.1.10) date 2021-05-19 15:42:40*
%MOMM*%
%LPD*%
G01*
G04 APERTURE LIST*
%ADD10C,0.120000*%
%ADD11C,0.150000*%
%ADD12O,4.000000X3.200000*%
%ADD13O,5.000000X3.200000*%
%ADD14O,1.700000X1.700000*%
%ADD15R,1.700000X1.700000*%
G04 APERTURE END LIST*
D10*
X49170000Y-124670000D02*
X49170000Y-126000000D01*
X50500000Y-124670000D02*
X49170000Y-124670000D01*
X51770000Y-124670000D02*
X51770000Y-127330000D01*
X51770000Y-127330000D02*
X56910000Y-127330000D01*
X51770000Y-124670000D02*
X56910000Y-124670000D01*
X56910000Y-124670000D02*
X56910000Y-127330000D01*
X61870000Y-124670000D02*
X61870000Y-126000000D01*
X63200000Y-124670000D02*
X61870000Y-124670000D01*
X64470000Y-124670000D02*
X64470000Y-127330000D01*
X64470000Y-127330000D02*
X67070000Y-127330000D01*
X64470000Y-124670000D02*
X67070000Y-124670000D01*
X67070000Y-124670000D02*
X67070000Y-127330000D01*
X69490000Y-124670000D02*
X69490000Y-126000000D01*
X70820000Y-124670000D02*
X69490000Y-124670000D01*
X72090000Y-124670000D02*
X72090000Y-127330000D01*
X72090000Y-127330000D02*
X74690000Y-127330000D01*
X72090000Y-124670000D02*
X74690000Y-124670000D01*
X74690000Y-124670000D02*
X74690000Y-127330000D01*
X79650000Y-124670000D02*
X79650000Y-126000000D01*
X80980000Y-124670000D02*
X79650000Y-124670000D01*
X82250000Y-124670000D02*
X82250000Y-127330000D01*
X82250000Y-127330000D02*
X84850000Y-127330000D01*
X82250000Y-124670000D02*
X84850000Y-124670000D01*
X84850000Y-124670000D02*
X84850000Y-127330000D01*
X74570000Y-124670000D02*
X74570000Y-126000000D01*
X75900000Y-124670000D02*
X74570000Y-124670000D01*
X77170000Y-124670000D02*
X77170000Y-127330000D01*
X77170000Y-127330000D02*
X79770000Y-127330000D01*
X77170000Y-124670000D02*
X79770000Y-124670000D01*
X79770000Y-124670000D02*
X79770000Y-127330000D01*
X66950000Y-127330000D02*
X68280000Y-127330000D01*
X66950000Y-126000000D02*
X66950000Y-127330000D01*
X66950000Y-124730000D02*
X69610000Y-124730000D01*
X69610000Y-124730000D02*
X69610000Y-124670000D01*
X66950000Y-124730000D02*
X66950000Y-124670000D01*
X66950000Y-124670000D02*
X69610000Y-124670000D01*
X56790000Y-124670000D02*
X56790000Y-126000000D01*
X58120000Y-124670000D02*
X56790000Y-124670000D01*
X59390000Y-124670000D02*
X59390000Y-127330000D01*
X59390000Y-127330000D02*
X61990000Y-127330000D01*
X59390000Y-124670000D02*
X61990000Y-124670000D01*
X61990000Y-124670000D02*
X61990000Y-127330000D01*
X74920000Y-170670000D02*
X74920000Y-172000000D01*
X76250000Y-170670000D02*
X74920000Y-170670000D01*
X77520000Y-170670000D02*
X77520000Y-173330000D01*
X77520000Y-173330000D02*
X80120000Y-173330000D01*
X77520000Y-170670000D02*
X80120000Y-170670000D01*
X80120000Y-170670000D02*
X80120000Y-173330000D01*
D11*
X47622380Y-125190476D02*
X48336666Y-125190476D01*
X48479523Y-125142857D01*
X48574761Y-125047619D01*
X48622380Y-124904761D01*
X48622380Y-124809523D01*
X47717619Y-125619047D02*
X47670000Y-125666666D01*
X47622380Y-125761904D01*
X47622380Y-126000000D01*
X47670000Y-126095238D01*
X47717619Y-126142857D01*
X47812857Y-126190476D01*
X47908095Y-126190476D01*
X48050952Y-126142857D01*
X48622380Y-125571428D01*
X48622380Y-126190476D01*
X47717619Y-126571428D02*
X47670000Y-126619047D01*
X47622380Y-126714285D01*
X47622380Y-126952380D01*
X47670000Y-127047619D01*
X47717619Y-127095238D01*
X47812857Y-127142857D01*
X47908095Y-127142857D01*
X48050952Y-127095238D01*
X48622380Y-126523809D01*
X48622380Y-127142857D01*
X60322380Y-125190476D02*
X61036666Y-125190476D01*
X61179523Y-125142857D01*
X61274761Y-125047619D01*
X61322380Y-124904761D01*
X61322380Y-124809523D01*
X61322380Y-126190476D02*
X61322380Y-125619047D01*
X61322380Y-125904761D02*
X60322380Y-125904761D01*
X60465238Y-125809523D01*
X60560476Y-125714285D01*
X60608095Y-125619047D01*
X60750952Y-126761904D02*
X60703333Y-126666666D01*
X60655714Y-126619047D01*
X60560476Y-126571428D01*
X60512857Y-126571428D01*
X60417619Y-126619047D01*
X60370000Y-126666666D01*
X60322380Y-126761904D01*
X60322380Y-126952380D01*
X60370000Y-127047619D01*
X60417619Y-127095238D01*
X60512857Y-127142857D01*
X60560476Y-127142857D01*
X60655714Y-127095238D01*
X60703333Y-127047619D01*
X60750952Y-126952380D01*
X60750952Y-126761904D01*
X60798571Y-126666666D01*
X60846190Y-126619047D01*
X60941428Y-126571428D01*
X61131904Y-126571428D01*
X61227142Y-126619047D01*
X61274761Y-126666666D01*
X61322380Y-126761904D01*
X61322380Y-126952380D01*
X61274761Y-127047619D01*
X61227142Y-127095238D01*
X61131904Y-127142857D01*
X60941428Y-127142857D01*
X60846190Y-127095238D01*
X60798571Y-127047619D01*
X60750952Y-126952380D01*
X67942380Y-125190476D02*
X68656666Y-125190476D01*
X68799523Y-125142857D01*
X68894761Y-125047619D01*
X68942380Y-124904761D01*
X68942380Y-124809523D01*
X68942380Y-126190476D02*
X68942380Y-125619047D01*
X68942380Y-125904761D02*
X67942380Y-125904761D01*
X68085238Y-125809523D01*
X68180476Y-125714285D01*
X68228095Y-125619047D01*
X68942380Y-126666666D02*
X68942380Y-126857142D01*
X68894761Y-126952380D01*
X68847142Y-127000000D01*
X68704285Y-127095238D01*
X68513809Y-127142857D01*
X68132857Y-127142857D01*
X68037619Y-127095238D01*
X67990000Y-127047619D01*
X67942380Y-126952380D01*
X67942380Y-126761904D01*
X67990000Y-126666666D01*
X68037619Y-126619047D01*
X68132857Y-126571428D01*
X68370952Y-126571428D01*
X68466190Y-126619047D01*
X68513809Y-126666666D01*
X68561428Y-126761904D01*
X68561428Y-126952380D01*
X68513809Y-127047619D01*
X68466190Y-127095238D01*
X68370952Y-127142857D01*
X78102380Y-125190476D02*
X78816666Y-125190476D01*
X78959523Y-125142857D01*
X79054761Y-125047619D01*
X79102380Y-124904761D01*
X79102380Y-124809523D01*
X78197619Y-125619047D02*
X78150000Y-125666666D01*
X78102380Y-125761904D01*
X78102380Y-126000000D01*
X78150000Y-126095238D01*
X78197619Y-126142857D01*
X78292857Y-126190476D01*
X78388095Y-126190476D01*
X78530952Y-126142857D01*
X79102380Y-125571428D01*
X79102380Y-126190476D01*
X78102380Y-127095238D02*
X78102380Y-126619047D01*
X78578571Y-126571428D01*
X78530952Y-126619047D01*
X78483333Y-126714285D01*
X78483333Y-126952380D01*
X78530952Y-127047619D01*
X78578571Y-127095238D01*
X78673809Y-127142857D01*
X78911904Y-127142857D01*
X79007142Y-127095238D01*
X79054761Y-127047619D01*
X79102380Y-126952380D01*
X79102380Y-126714285D01*
X79054761Y-126619047D01*
X79007142Y-126571428D01*
X73022380Y-125190476D02*
X73736666Y-125190476D01*
X73879523Y-125142857D01*
X73974761Y-125047619D01*
X74022380Y-124904761D01*
X74022380Y-124809523D01*
X74022380Y-126190476D02*
X74022380Y-125619047D01*
X74022380Y-125904761D02*
X73022380Y-125904761D01*
X73165238Y-125809523D01*
X73260476Y-125714285D01*
X73308095Y-125619047D01*
X73022380Y-127047619D02*
X73022380Y-126857142D01*
X73070000Y-126761904D01*
X73117619Y-126714285D01*
X73260476Y-126619047D01*
X73450952Y-126571428D01*
X73831904Y-126571428D01*
X73927142Y-126619047D01*
X73974761Y-126666666D01*
X74022380Y-126761904D01*
X74022380Y-126952380D01*
X73974761Y-127047619D01*
X73927142Y-127095238D01*
X73831904Y-127142857D01*
X73593809Y-127142857D01*
X73498571Y-127095238D01*
X73450952Y-127047619D01*
X73403333Y-126952380D01*
X73403333Y-126761904D01*
X73450952Y-126666666D01*
X73498571Y-126619047D01*
X73593809Y-126571428D01*
X69089523Y-127782380D02*
X69089523Y-128496666D01*
X69137142Y-128639523D01*
X69232380Y-128734761D01*
X69375238Y-128782380D01*
X69470476Y-128782380D01*
X68089523Y-128782380D02*
X68660952Y-128782380D01*
X68375238Y-128782380D02*
X68375238Y-127782380D01*
X68470476Y-127925238D01*
X68565714Y-128020476D01*
X68660952Y-128068095D01*
X67756190Y-127782380D02*
X67089523Y-127782380D01*
X67518095Y-128782380D01*
X55242380Y-125190476D02*
X55956666Y-125190476D01*
X56099523Y-125142857D01*
X56194761Y-125047619D01*
X56242380Y-124904761D01*
X56242380Y-124809523D01*
X56242380Y-126190476D02*
X56242380Y-125619047D01*
X56242380Y-125904761D02*
X55242380Y-125904761D01*
X55385238Y-125809523D01*
X55480476Y-125714285D01*
X55528095Y-125619047D01*
X55242380Y-126523809D02*
X55242380Y-127142857D01*
X55623333Y-126809523D01*
X55623333Y-126952380D01*
X55670952Y-127047619D01*
X55718571Y-127095238D01*
X55813809Y-127142857D01*
X56051904Y-127142857D01*
X56147142Y-127095238D01*
X56194761Y-127047619D01*
X56242380Y-126952380D01*
X56242380Y-126666666D01*
X56194761Y-126571428D01*
X56147142Y-126523809D01*
X73372380Y-171190476D02*
X74086666Y-171190476D01*
X74229523Y-171142857D01*
X74324761Y-171047619D01*
X74372380Y-170904761D01*
X74372380Y-170809523D01*
X73467619Y-171619047D02*
X73420000Y-171666666D01*
X73372380Y-171761904D01*
X73372380Y-172000000D01*
X73420000Y-172095238D01*
X73467619Y-172142857D01*
X73562857Y-172190476D01*
X73658095Y-172190476D01*
X73800952Y-172142857D01*
X74372380Y-171571428D01*
X74372380Y-172190476D01*
X73705714Y-173047619D02*
X74372380Y-173047619D01*
X73324761Y-172809523D02*
X74039047Y-172571428D01*
X74039047Y-173190476D01*
%LPC*%
D12*
X45250000Y-136050000D03*
X45250000Y-140500000D03*
X45250000Y-144950000D03*
X49750000Y-140500000D03*
X49750000Y-144950000D03*
X49750000Y-136050000D03*
X69750000Y-144950000D03*
X69750000Y-140500000D03*
X69750000Y-136050000D03*
X65250000Y-140500000D03*
X65250000Y-136050000D03*
X65250000Y-144950000D03*
D13*
X67500000Y-169950000D03*
X67500000Y-165500000D03*
X67500000Y-161050000D03*
X47500000Y-169950000D03*
X47500000Y-165500000D03*
X47500000Y-161050000D03*
D14*
X55580000Y-126000000D03*
X53040000Y-126000000D03*
D15*
X50500000Y-126000000D03*
D14*
X65740000Y-126000000D03*
D15*
X63200000Y-126000000D03*
D14*
X73360000Y-126000000D03*
D15*
X70820000Y-126000000D03*
D13*
X87500000Y-169950000D03*
X87500000Y-165500000D03*
X87500000Y-161050000D03*
D12*
X89750000Y-144950000D03*
X89750000Y-140500000D03*
X89750000Y-136050000D03*
X85250000Y-140500000D03*
X85250000Y-136050000D03*
X85250000Y-144950000D03*
D14*
X83520000Y-126000000D03*
D15*
X80980000Y-126000000D03*
D14*
X78440000Y-126000000D03*
D15*
X75900000Y-126000000D03*
X68280000Y-126000000D03*
D14*
X60660000Y-126000000D03*
D15*
X58120000Y-126000000D03*
D14*
X78790000Y-172000000D03*
D15*
X76250000Y-172000000D03*
M02*
