%FSLAX45Y45*%
G04 Gerber Fmt 4.5, Leading zero omitted, Abs format (unit mm)*
G04 Created by KiCad (PCBNEW 5.1.10) date 2021-05-19 15:42:45*
%MOMM*%
%LPD*%
G01*
G04 APERTURE LIST*
%TA.AperFunction,Profile*%
%ADD10C,0.050000*%
%TD*%
%ADD11C,0.200000*%
%ADD12C,0.300000*%
G04 APERTURE END LIST*
D10*
X3800000Y-12450000D02*
X3825000Y-12450000D01*
X9700000Y-12450000D02*
X3825000Y-12450000D01*
X9700000Y-12450000D02*
X9700000Y-17375000D01*
X3800000Y-17375000D02*
X9700000Y-17375000D01*
X3800000Y-12450000D02*
X3800000Y-17375000D01*
D11*
X5663010Y-13775770D02*
X5703010Y-13815770D01*
X5703010Y-13775770D02*
X5663010Y-13815770D01*
X7237170Y-13101920D02*
X7277170Y-13141920D01*
X7277170Y-13101920D02*
X7237170Y-13141920D01*
X7824000Y-12935510D02*
X7864000Y-12975510D01*
X7864000Y-12935510D02*
X7824000Y-12975510D01*
X7955630Y-13600760D02*
X7995630Y-13640760D01*
X7995630Y-13600760D02*
X7955630Y-13640760D01*
X4575000Y-13605000D02*
G75*
G03*
X4575000Y-13605000I-50000J0D01*
G01*
X4600000Y-13565000D02*
X4450000Y-13565000D01*
X4600000Y-13645000D02*
X4450000Y-13645000D01*
X4450000Y-13565000D02*
G75*
G03*
X4450000Y-13645000I0J-40000D01*
G01*
X4600000Y-13645000D02*
G75*
G03*
X4600000Y-13565000I0J40000D01*
G01*
X4575000Y-14050000D02*
G75*
G03*
X4575000Y-14050000I-50000J0D01*
G01*
X4600000Y-14010000D02*
X4450000Y-14010000D01*
X4600000Y-14090000D02*
X4450000Y-14090000D01*
X4450000Y-14010000D02*
G75*
G03*
X4450000Y-14090000I0J-40000D01*
G01*
X4600000Y-14090000D02*
G75*
G03*
X4600000Y-14010000I0J40000D01*
G01*
X4575000Y-14495000D02*
G75*
G03*
X4575000Y-14495000I-50000J0D01*
G01*
X4600000Y-14455000D02*
X4450000Y-14455000D01*
X4600000Y-14535000D02*
X4450000Y-14535000D01*
X4450000Y-14455000D02*
G75*
G03*
X4450000Y-14535000I0J-40000D01*
G01*
X4600000Y-14535000D02*
G75*
G03*
X4600000Y-14455000I0J40000D01*
G01*
X4800000Y-16105000D02*
G75*
G03*
X4800000Y-16105000I-50000J0D01*
G01*
X4675000Y-16145000D02*
X4825000Y-16145000D01*
X4675000Y-16065000D02*
X4825000Y-16065000D01*
X4825000Y-16145000D02*
G75*
G03*
X4825000Y-16065000I0J40000D01*
G01*
X4675000Y-16065000D02*
G75*
G03*
X4675000Y-16145000I0J-40000D01*
G01*
X4800000Y-16550000D02*
G75*
G03*
X4800000Y-16550000I-50000J0D01*
G01*
X4675000Y-16590000D02*
X4825000Y-16590000D01*
X4675000Y-16510000D02*
X4825000Y-16510000D01*
X4825000Y-16590000D02*
G75*
G03*
X4825000Y-16510000I0J40000D01*
G01*
X4675000Y-16510000D02*
G75*
G03*
X4675000Y-16590000I0J-40000D01*
G01*
X4800000Y-16995000D02*
G75*
G03*
X4800000Y-16995000I-50000J0D01*
G01*
X4675000Y-17035000D02*
X4825000Y-17035000D01*
X4675000Y-16955000D02*
X4825000Y-16955000D01*
X4825000Y-17035000D02*
G75*
G03*
X4825000Y-16955000I0J40000D01*
G01*
X4675000Y-16955000D02*
G75*
G03*
X4675000Y-17035000I0J-40000D01*
G01*
X5025000Y-13605000D02*
G75*
G03*
X5025000Y-13605000I-50000J0D01*
G01*
X4900000Y-13645000D02*
X5050000Y-13645000D01*
X4900000Y-13565000D02*
X5050000Y-13565000D01*
X5050000Y-13645000D02*
G75*
G03*
X5050000Y-13565000I0J40000D01*
G01*
X4900000Y-13565000D02*
G75*
G03*
X4900000Y-13645000I0J-40000D01*
G01*
X5025000Y-14050000D02*
G75*
G03*
X5025000Y-14050000I-50000J0D01*
G01*
X4900000Y-14090000D02*
X5050000Y-14090000D01*
X4900000Y-14010000D02*
X5050000Y-14010000D01*
X5050000Y-14090000D02*
G75*
G03*
X5050000Y-14010000I0J40000D01*
G01*
X4900000Y-14010000D02*
G75*
G03*
X4900000Y-14090000I0J-40000D01*
G01*
X5025000Y-14495000D02*
G75*
G03*
X5025000Y-14495000I-50000J0D01*
G01*
X4900000Y-14535000D02*
X5050000Y-14535000D01*
X4900000Y-14455000D02*
X5050000Y-14455000D01*
X5050000Y-14535000D02*
G75*
G03*
X5050000Y-14455000I0J40000D01*
G01*
X4900000Y-14455000D02*
G75*
G03*
X4900000Y-14535000I0J-40000D01*
G01*
X5100000Y-12600000D02*
G75*
G03*
X5100000Y-12600000I-50000J0D01*
G01*
X5354000Y-12600000D02*
G75*
G03*
X5354000Y-12600000I-50000J0D01*
G01*
X5608000Y-12600000D02*
G75*
G03*
X5608000Y-12600000I-50000J0D01*
G01*
X5862000Y-12600000D02*
G75*
G03*
X5862000Y-12600000I-50000J0D01*
G01*
X6116000Y-12600000D02*
G75*
G03*
X6116000Y-12600000I-50000J0D01*
G01*
X6370000Y-12600000D02*
G75*
G03*
X6370000Y-12600000I-50000J0D01*
G01*
X6575000Y-13605000D02*
G75*
G03*
X6575000Y-13605000I-50000J0D01*
G01*
X6600000Y-13565000D02*
X6450000Y-13565000D01*
X6600000Y-13645000D02*
X6450000Y-13645000D01*
X6450000Y-13565000D02*
G75*
G03*
X6450000Y-13645000I0J-40000D01*
G01*
X6600000Y-13645000D02*
G75*
G03*
X6600000Y-13565000I0J40000D01*
G01*
X6575000Y-14050000D02*
G75*
G03*
X6575000Y-14050000I-50000J0D01*
G01*
X6600000Y-14010000D02*
X6450000Y-14010000D01*
X6600000Y-14090000D02*
X6450000Y-14090000D01*
X6450000Y-14010000D02*
G75*
G03*
X6450000Y-14090000I0J-40000D01*
G01*
X6600000Y-14090000D02*
G75*
G03*
X6600000Y-14010000I0J40000D01*
G01*
X6575000Y-14495000D02*
G75*
G03*
X6575000Y-14495000I-50000J0D01*
G01*
X6600000Y-14455000D02*
X6450000Y-14455000D01*
X6600000Y-14535000D02*
X6450000Y-14535000D01*
X6450000Y-14455000D02*
G75*
G03*
X6450000Y-14535000I0J-40000D01*
G01*
X6600000Y-14535000D02*
G75*
G03*
X6600000Y-14455000I0J40000D01*
G01*
X6624000Y-12600000D02*
G75*
G03*
X6624000Y-12600000I-50000J0D01*
G01*
X6800000Y-16105000D02*
G75*
G03*
X6800000Y-16105000I-50000J0D01*
G01*
X6675000Y-16145000D02*
X6825000Y-16145000D01*
X6675000Y-16065000D02*
X6825000Y-16065000D01*
X6825000Y-16145000D02*
G75*
G03*
X6825000Y-16065000I0J40000D01*
G01*
X6675000Y-16065000D02*
G75*
G03*
X6675000Y-16145000I0J-40000D01*
G01*
X6800000Y-16550000D02*
G75*
G03*
X6800000Y-16550000I-50000J0D01*
G01*
X6675000Y-16590000D02*
X6825000Y-16590000D01*
X6675000Y-16510000D02*
X6825000Y-16510000D01*
X6825000Y-16590000D02*
G75*
G03*
X6825000Y-16510000I0J40000D01*
G01*
X6675000Y-16510000D02*
G75*
G03*
X6675000Y-16590000I0J-40000D01*
G01*
X6800000Y-16995000D02*
G75*
G03*
X6800000Y-16995000I-50000J0D01*
G01*
X6675000Y-17035000D02*
X6825000Y-17035000D01*
X6675000Y-16955000D02*
X6825000Y-16955000D01*
X6825000Y-17035000D02*
G75*
G03*
X6825000Y-16955000I0J40000D01*
G01*
X6675000Y-16955000D02*
G75*
G03*
X6675000Y-17035000I0J-40000D01*
G01*
X6878000Y-12600000D02*
G75*
G03*
X6878000Y-12600000I-50000J0D01*
G01*
X7025000Y-13605000D02*
G75*
G03*
X7025000Y-13605000I-50000J0D01*
G01*
X6900000Y-13645000D02*
X7050000Y-13645000D01*
X6900000Y-13565000D02*
X7050000Y-13565000D01*
X7050000Y-13645000D02*
G75*
G03*
X7050000Y-13565000I0J40000D01*
G01*
X6900000Y-13565000D02*
G75*
G03*
X6900000Y-13645000I0J-40000D01*
G01*
X7025000Y-14050000D02*
G75*
G03*
X7025000Y-14050000I-50000J0D01*
G01*
X6900000Y-14090000D02*
X7050000Y-14090000D01*
X6900000Y-14010000D02*
X7050000Y-14010000D01*
X7050000Y-14090000D02*
G75*
G03*
X7050000Y-14010000I0J40000D01*
G01*
X6900000Y-14010000D02*
G75*
G03*
X6900000Y-14090000I0J-40000D01*
G01*
X7025000Y-14495000D02*
G75*
G03*
X7025000Y-14495000I-50000J0D01*
G01*
X6900000Y-14535000D02*
X7050000Y-14535000D01*
X6900000Y-14455000D02*
X7050000Y-14455000D01*
X7050000Y-14535000D02*
G75*
G03*
X7050000Y-14455000I0J40000D01*
G01*
X6900000Y-14455000D02*
G75*
G03*
X6900000Y-14535000I0J-40000D01*
G01*
X7132000Y-12600000D02*
G75*
G03*
X7132000Y-12600000I-50000J0D01*
G01*
X7386000Y-12600000D02*
G75*
G03*
X7386000Y-12600000I-50000J0D01*
G01*
X7640000Y-12600000D02*
G75*
G03*
X7640000Y-12600000I-50000J0D01*
G01*
X7675000Y-17200000D02*
G75*
G03*
X7675000Y-17200000I-50000J0D01*
G01*
X7894000Y-12600000D02*
G75*
G03*
X7894000Y-12600000I-50000J0D01*
G01*
X7929000Y-17200000D02*
G75*
G03*
X7929000Y-17200000I-50000J0D01*
G01*
X8148000Y-12600000D02*
G75*
G03*
X8148000Y-12600000I-50000J0D01*
G01*
X8402000Y-12600000D02*
G75*
G03*
X8402000Y-12600000I-50000J0D01*
G01*
X8575000Y-13605000D02*
G75*
G03*
X8575000Y-13605000I-50000J0D01*
G01*
X8600000Y-13565000D02*
X8450000Y-13565000D01*
X8600000Y-13645000D02*
X8450000Y-13645000D01*
X8450000Y-13565000D02*
G75*
G03*
X8450000Y-13645000I0J-40000D01*
G01*
X8600000Y-13645000D02*
G75*
G03*
X8600000Y-13565000I0J40000D01*
G01*
X8575000Y-14050000D02*
G75*
G03*
X8575000Y-14050000I-50000J0D01*
G01*
X8600000Y-14010000D02*
X8450000Y-14010000D01*
X8600000Y-14090000D02*
X8450000Y-14090000D01*
X8450000Y-14010000D02*
G75*
G03*
X8450000Y-14090000I0J-40000D01*
G01*
X8600000Y-14090000D02*
G75*
G03*
X8600000Y-14010000I0J40000D01*
G01*
X8575000Y-14495000D02*
G75*
G03*
X8575000Y-14495000I-50000J0D01*
G01*
X8600000Y-14455000D02*
X8450000Y-14455000D01*
X8600000Y-14535000D02*
X8450000Y-14535000D01*
X8450000Y-14455000D02*
G75*
G03*
X8450000Y-14535000I0J-40000D01*
G01*
X8600000Y-14535000D02*
G75*
G03*
X8600000Y-14455000I0J40000D01*
G01*
X8800000Y-16105000D02*
G75*
G03*
X8800000Y-16105000I-50000J0D01*
G01*
X8675000Y-16145000D02*
X8825000Y-16145000D01*
X8675000Y-16065000D02*
X8825000Y-16065000D01*
X8825000Y-16145000D02*
G75*
G03*
X8825000Y-16065000I0J40000D01*
G01*
X8675000Y-16065000D02*
G75*
G03*
X8675000Y-16145000I0J-40000D01*
G01*
X8800000Y-16550000D02*
G75*
G03*
X8800000Y-16550000I-50000J0D01*
G01*
X8675000Y-16590000D02*
X8825000Y-16590000D01*
X8675000Y-16510000D02*
X8825000Y-16510000D01*
X8825000Y-16590000D02*
G75*
G03*
X8825000Y-16510000I0J40000D01*
G01*
X8675000Y-16510000D02*
G75*
G03*
X8675000Y-16590000I0J-40000D01*
G01*
X8800000Y-16995000D02*
G75*
G03*
X8800000Y-16995000I-50000J0D01*
G01*
X8675000Y-17035000D02*
X8825000Y-17035000D01*
X8675000Y-16955000D02*
X8825000Y-16955000D01*
X8825000Y-17035000D02*
G75*
G03*
X8825000Y-16955000I0J40000D01*
G01*
X8675000Y-16955000D02*
G75*
G03*
X8675000Y-17035000I0J-40000D01*
G01*
X9025000Y-13605000D02*
G75*
G03*
X9025000Y-13605000I-50000J0D01*
G01*
X8900000Y-13645000D02*
X9050000Y-13645000D01*
X8900000Y-13565000D02*
X9050000Y-13565000D01*
X9050000Y-13645000D02*
G75*
G03*
X9050000Y-13565000I0J40000D01*
G01*
X8900000Y-13565000D02*
G75*
G03*
X8900000Y-13645000I0J-40000D01*
G01*
X9025000Y-14050000D02*
G75*
G03*
X9025000Y-14050000I-50000J0D01*
G01*
X8900000Y-14090000D02*
X9050000Y-14090000D01*
X8900000Y-14010000D02*
X9050000Y-14010000D01*
X9050000Y-14090000D02*
G75*
G03*
X9050000Y-14010000I0J40000D01*
G01*
X8900000Y-14010000D02*
G75*
G03*
X8900000Y-14090000I0J-40000D01*
G01*
X9025000Y-14495000D02*
G75*
G03*
X9025000Y-14495000I-50000J0D01*
G01*
X8900000Y-14535000D02*
X9050000Y-14535000D01*
X8900000Y-14455000D02*
X9050000Y-14455000D01*
X9050000Y-14535000D02*
G75*
G03*
X9050000Y-14455000I0J40000D01*
G01*
X8900000Y-14455000D02*
G75*
G03*
X8900000Y-14535000I0J-40000D01*
G01*
D12*
X4083928Y-17843214D02*
X4083928Y-17543214D01*
X4155357Y-17543214D01*
X4198214Y-17557500D01*
X4226786Y-17586072D01*
X4241071Y-17614643D01*
X4255357Y-17671786D01*
X4255357Y-17714643D01*
X4241071Y-17771786D01*
X4226786Y-17800357D01*
X4198214Y-17828929D01*
X4155357Y-17843214D01*
X4083928Y-17843214D01*
X4383928Y-17843214D02*
X4383928Y-17643214D01*
X4383928Y-17700357D02*
X4398214Y-17671786D01*
X4412500Y-17657500D01*
X4441071Y-17643214D01*
X4469643Y-17643214D01*
X4569643Y-17843214D02*
X4569643Y-17643214D01*
X4569643Y-17543214D02*
X4555357Y-17557500D01*
X4569643Y-17571786D01*
X4583928Y-17557500D01*
X4569643Y-17543214D01*
X4569643Y-17571786D01*
X4755357Y-17843214D02*
X4726786Y-17828929D01*
X4712500Y-17800357D01*
X4712500Y-17543214D01*
X4912500Y-17843214D02*
X4883928Y-17828929D01*
X4869643Y-17800357D01*
X4869643Y-17543214D01*
X5255357Y-17843214D02*
X5255357Y-17543214D01*
X5355357Y-17757500D01*
X5455357Y-17543214D01*
X5455357Y-17843214D01*
X5726786Y-17843214D02*
X5726786Y-17686072D01*
X5712500Y-17657500D01*
X5683928Y-17643214D01*
X5626786Y-17643214D01*
X5598214Y-17657500D01*
X5726786Y-17828929D02*
X5698214Y-17843214D01*
X5626786Y-17843214D01*
X5598214Y-17828929D01*
X5583928Y-17800357D01*
X5583928Y-17771786D01*
X5598214Y-17743214D01*
X5626786Y-17728929D01*
X5698214Y-17728929D01*
X5726786Y-17714643D01*
X5869643Y-17643214D02*
X5869643Y-17943214D01*
X5869643Y-17657500D02*
X5898214Y-17643214D01*
X5955357Y-17643214D01*
X5983928Y-17657500D01*
X5998214Y-17671786D01*
X6012500Y-17700357D01*
X6012500Y-17786072D01*
X5998214Y-17814643D01*
X5983928Y-17828929D01*
X5955357Y-17843214D01*
X5898214Y-17843214D01*
X5869643Y-17828929D01*
X6141071Y-17814643D02*
X6155357Y-17828929D01*
X6141071Y-17843214D01*
X6126786Y-17828929D01*
X6141071Y-17814643D01*
X6141071Y-17843214D01*
X6141071Y-17657500D02*
X6155357Y-17671786D01*
X6141071Y-17686072D01*
X6126786Y-17671786D01*
X6141071Y-17657500D01*
X6141071Y-17686072D01*
X3757500Y-18317500D02*
X3797500Y-18357500D01*
X3797500Y-18317500D02*
X3757500Y-18357500D01*
X4141071Y-18173214D02*
X4169643Y-18173214D01*
X4198214Y-18187500D01*
X4212500Y-18201786D01*
X4226786Y-18230357D01*
X4241071Y-18287500D01*
X4241071Y-18358929D01*
X4226786Y-18416072D01*
X4212500Y-18444643D01*
X4198214Y-18458929D01*
X4169643Y-18473214D01*
X4141071Y-18473214D01*
X4112500Y-18458929D01*
X4098214Y-18444643D01*
X4083928Y-18416072D01*
X4069643Y-18358929D01*
X4069643Y-18287500D01*
X4083928Y-18230357D01*
X4098214Y-18201786D01*
X4112500Y-18187500D01*
X4141071Y-18173214D01*
X4369643Y-18444643D02*
X4383928Y-18458929D01*
X4369643Y-18473214D01*
X4355357Y-18458929D01*
X4369643Y-18444643D01*
X4369643Y-18473214D01*
X4641071Y-18273214D02*
X4641071Y-18473214D01*
X4569643Y-18158929D02*
X4498214Y-18373214D01*
X4683928Y-18373214D01*
X4855357Y-18173214D02*
X4883928Y-18173214D01*
X4912500Y-18187500D01*
X4926786Y-18201786D01*
X4941071Y-18230357D01*
X4955357Y-18287500D01*
X4955357Y-18358929D01*
X4941071Y-18416072D01*
X4926786Y-18444643D01*
X4912500Y-18458929D01*
X4883928Y-18473214D01*
X4855357Y-18473214D01*
X4826786Y-18458929D01*
X4812500Y-18444643D01*
X4798214Y-18416072D01*
X4783928Y-18358929D01*
X4783928Y-18287500D01*
X4798214Y-18230357D01*
X4812500Y-18201786D01*
X4826786Y-18187500D01*
X4855357Y-18173214D01*
X5141071Y-18173214D02*
X5169643Y-18173214D01*
X5198214Y-18187500D01*
X5212500Y-18201786D01*
X5226786Y-18230357D01*
X5241071Y-18287500D01*
X5241071Y-18358929D01*
X5226786Y-18416072D01*
X5212500Y-18444643D01*
X5198214Y-18458929D01*
X5169643Y-18473214D01*
X5141071Y-18473214D01*
X5112500Y-18458929D01*
X5098214Y-18444643D01*
X5083928Y-18416072D01*
X5069643Y-18358929D01*
X5069643Y-18287500D01*
X5083928Y-18230357D01*
X5098214Y-18201786D01*
X5112500Y-18187500D01*
X5141071Y-18173214D01*
X5369643Y-18473214D02*
X5369643Y-18273214D01*
X5369643Y-18301786D02*
X5383928Y-18287500D01*
X5412500Y-18273214D01*
X5455357Y-18273214D01*
X5483928Y-18287500D01*
X5498214Y-18316072D01*
X5498214Y-18473214D01*
X5498214Y-18316072D02*
X5512500Y-18287500D01*
X5541071Y-18273214D01*
X5583928Y-18273214D01*
X5612500Y-18287500D01*
X5626786Y-18316072D01*
X5626786Y-18473214D01*
X5769643Y-18473214D02*
X5769643Y-18273214D01*
X5769643Y-18301786D02*
X5783928Y-18287500D01*
X5812500Y-18273214D01*
X5855357Y-18273214D01*
X5883928Y-18287500D01*
X5898214Y-18316072D01*
X5898214Y-18473214D01*
X5898214Y-18316072D02*
X5912500Y-18287500D01*
X5941071Y-18273214D01*
X5983928Y-18273214D01*
X6012500Y-18287500D01*
X6026786Y-18316072D01*
X6026786Y-18473214D01*
X6612500Y-18158929D02*
X6355357Y-18544643D01*
X6998214Y-18173214D02*
X7026786Y-18173214D01*
X7055357Y-18187500D01*
X7069643Y-18201786D01*
X7083928Y-18230357D01*
X7098214Y-18287500D01*
X7098214Y-18358929D01*
X7083928Y-18416072D01*
X7069643Y-18444643D01*
X7055357Y-18458929D01*
X7026786Y-18473214D01*
X6998214Y-18473214D01*
X6969643Y-18458929D01*
X6955357Y-18444643D01*
X6941071Y-18416072D01*
X6926786Y-18358929D01*
X6926786Y-18287500D01*
X6941071Y-18230357D01*
X6955357Y-18201786D01*
X6969643Y-18187500D01*
X6998214Y-18173214D01*
X7226786Y-18444643D02*
X7241071Y-18458929D01*
X7226786Y-18473214D01*
X7212500Y-18458929D01*
X7226786Y-18444643D01*
X7226786Y-18473214D01*
X7426786Y-18173214D02*
X7455357Y-18173214D01*
X7483928Y-18187500D01*
X7498214Y-18201786D01*
X7512500Y-18230357D01*
X7526786Y-18287500D01*
X7526786Y-18358929D01*
X7512500Y-18416072D01*
X7498214Y-18444643D01*
X7483928Y-18458929D01*
X7455357Y-18473214D01*
X7426786Y-18473214D01*
X7398214Y-18458929D01*
X7383928Y-18444643D01*
X7369643Y-18416072D01*
X7355357Y-18358929D01*
X7355357Y-18287500D01*
X7369643Y-18230357D01*
X7383928Y-18201786D01*
X7398214Y-18187500D01*
X7426786Y-18173214D01*
X7812500Y-18473214D02*
X7641071Y-18473214D01*
X7726786Y-18473214D02*
X7726786Y-18173214D01*
X7698214Y-18216072D01*
X7669643Y-18244643D01*
X7641071Y-18258929D01*
X8083928Y-18173214D02*
X7941071Y-18173214D01*
X7926786Y-18316072D01*
X7941071Y-18301786D01*
X7969643Y-18287500D01*
X8041071Y-18287500D01*
X8069643Y-18301786D01*
X8083928Y-18316072D01*
X8098214Y-18344643D01*
X8098214Y-18416072D01*
X8083928Y-18444643D01*
X8069643Y-18458929D01*
X8041071Y-18473214D01*
X7969643Y-18473214D01*
X7941071Y-18458929D01*
X7926786Y-18444643D01*
X8198214Y-18173214D02*
X8398214Y-18173214D01*
X8269643Y-18473214D01*
X8498214Y-18173214D02*
X8498214Y-18230357D01*
X8612500Y-18173214D02*
X8612500Y-18230357D01*
X9055357Y-18587500D02*
X9041071Y-18573214D01*
X9012500Y-18530357D01*
X8998214Y-18501786D01*
X8983928Y-18458929D01*
X8969643Y-18387500D01*
X8969643Y-18330357D01*
X8983928Y-18258929D01*
X8998214Y-18216072D01*
X9012500Y-18187500D01*
X9041071Y-18144643D01*
X9055357Y-18130357D01*
X9298214Y-18273214D02*
X9298214Y-18473214D01*
X9226786Y-18158929D02*
X9155357Y-18373214D01*
X9341071Y-18373214D01*
X9683928Y-18473214D02*
X9683928Y-18173214D01*
X9812500Y-18473214D02*
X9812500Y-18316072D01*
X9798214Y-18287500D01*
X9769643Y-18273214D01*
X9726786Y-18273214D01*
X9698214Y-18287500D01*
X9683928Y-18301786D01*
X9998214Y-18473214D02*
X9969643Y-18458929D01*
X9955357Y-18444643D01*
X9941071Y-18416072D01*
X9941071Y-18330357D01*
X9955357Y-18301786D01*
X9969643Y-18287500D01*
X9998214Y-18273214D01*
X10041071Y-18273214D01*
X10069643Y-18287500D01*
X10083928Y-18301786D01*
X10098214Y-18330357D01*
X10098214Y-18416072D01*
X10083928Y-18444643D01*
X10069643Y-18458929D01*
X10041071Y-18473214D01*
X9998214Y-18473214D01*
X10269643Y-18473214D02*
X10241071Y-18458929D01*
X10226786Y-18430357D01*
X10226786Y-18173214D01*
X10498214Y-18458929D02*
X10469643Y-18473214D01*
X10412500Y-18473214D01*
X10383928Y-18458929D01*
X10369643Y-18430357D01*
X10369643Y-18316072D01*
X10383928Y-18287500D01*
X10412500Y-18273214D01*
X10469643Y-18273214D01*
X10498214Y-18287500D01*
X10512500Y-18316072D01*
X10512500Y-18344643D01*
X10369643Y-18373214D01*
X10626786Y-18458929D02*
X10655357Y-18473214D01*
X10712500Y-18473214D01*
X10741071Y-18458929D01*
X10755357Y-18430357D01*
X10755357Y-18416072D01*
X10741071Y-18387500D01*
X10712500Y-18373214D01*
X10669643Y-18373214D01*
X10641071Y-18358929D01*
X10626786Y-18330357D01*
X10626786Y-18316072D01*
X10641071Y-18287500D01*
X10669643Y-18273214D01*
X10712500Y-18273214D01*
X10741071Y-18287500D01*
X10855357Y-18587500D02*
X10869643Y-18573214D01*
X10898214Y-18530357D01*
X10912500Y-18501786D01*
X10926786Y-18458929D01*
X10941071Y-18387500D01*
X10941071Y-18330357D01*
X10926786Y-18258929D01*
X10912500Y-18216072D01*
X10898214Y-18187500D01*
X10869643Y-18144643D01*
X10855357Y-18130357D01*
X3797500Y-18733500D02*
G75*
G03*
X3797500Y-18733500I-50000J0D01*
G01*
X4241071Y-18869214D02*
X4069643Y-18869214D01*
X4155357Y-18869214D02*
X4155357Y-18569214D01*
X4126786Y-18612072D01*
X4098214Y-18640643D01*
X4069643Y-18654929D01*
X4369643Y-18840643D02*
X4383928Y-18854929D01*
X4369643Y-18869214D01*
X4355357Y-18854929D01*
X4369643Y-18840643D01*
X4369643Y-18869214D01*
X4569643Y-18569214D02*
X4598214Y-18569214D01*
X4626786Y-18583500D01*
X4641071Y-18597786D01*
X4655357Y-18626357D01*
X4669643Y-18683500D01*
X4669643Y-18754929D01*
X4655357Y-18812072D01*
X4641071Y-18840643D01*
X4626786Y-18854929D01*
X4598214Y-18869214D01*
X4569643Y-18869214D01*
X4541071Y-18854929D01*
X4526786Y-18840643D01*
X4512500Y-18812072D01*
X4498214Y-18754929D01*
X4498214Y-18683500D01*
X4512500Y-18626357D01*
X4526786Y-18597786D01*
X4541071Y-18583500D01*
X4569643Y-18569214D01*
X4855357Y-18569214D02*
X4883928Y-18569214D01*
X4912500Y-18583500D01*
X4926786Y-18597786D01*
X4941071Y-18626357D01*
X4955357Y-18683500D01*
X4955357Y-18754929D01*
X4941071Y-18812072D01*
X4926786Y-18840643D01*
X4912500Y-18854929D01*
X4883928Y-18869214D01*
X4855357Y-18869214D01*
X4826786Y-18854929D01*
X4812500Y-18840643D01*
X4798214Y-18812072D01*
X4783928Y-18754929D01*
X4783928Y-18683500D01*
X4798214Y-18626357D01*
X4812500Y-18597786D01*
X4826786Y-18583500D01*
X4855357Y-18569214D01*
X5141071Y-18569214D02*
X5169643Y-18569214D01*
X5198214Y-18583500D01*
X5212500Y-18597786D01*
X5226786Y-18626357D01*
X5241071Y-18683500D01*
X5241071Y-18754929D01*
X5226786Y-18812072D01*
X5212500Y-18840643D01*
X5198214Y-18854929D01*
X5169643Y-18869214D01*
X5141071Y-18869214D01*
X5112500Y-18854929D01*
X5098214Y-18840643D01*
X5083928Y-18812072D01*
X5069643Y-18754929D01*
X5069643Y-18683500D01*
X5083928Y-18626357D01*
X5098214Y-18597786D01*
X5112500Y-18583500D01*
X5141071Y-18569214D01*
X5369643Y-18869214D02*
X5369643Y-18669214D01*
X5369643Y-18697786D02*
X5383928Y-18683500D01*
X5412500Y-18669214D01*
X5455357Y-18669214D01*
X5483928Y-18683500D01*
X5498214Y-18712072D01*
X5498214Y-18869214D01*
X5498214Y-18712072D02*
X5512500Y-18683500D01*
X5541071Y-18669214D01*
X5583928Y-18669214D01*
X5612500Y-18683500D01*
X5626786Y-18712072D01*
X5626786Y-18869214D01*
X5769643Y-18869214D02*
X5769643Y-18669214D01*
X5769643Y-18697786D02*
X5783928Y-18683500D01*
X5812500Y-18669214D01*
X5855357Y-18669214D01*
X5883928Y-18683500D01*
X5898214Y-18712072D01*
X5898214Y-18869214D01*
X5898214Y-18712072D02*
X5912500Y-18683500D01*
X5941071Y-18669214D01*
X5983928Y-18669214D01*
X6012500Y-18683500D01*
X6026786Y-18712072D01*
X6026786Y-18869214D01*
X6612500Y-18554929D02*
X6355357Y-18940643D01*
X6998214Y-18569214D02*
X7026786Y-18569214D01*
X7055357Y-18583500D01*
X7069643Y-18597786D01*
X7083928Y-18626357D01*
X7098214Y-18683500D01*
X7098214Y-18754929D01*
X7083928Y-18812072D01*
X7069643Y-18840643D01*
X7055357Y-18854929D01*
X7026786Y-18869214D01*
X6998214Y-18869214D01*
X6969643Y-18854929D01*
X6955357Y-18840643D01*
X6941071Y-18812072D01*
X6926786Y-18754929D01*
X6926786Y-18683500D01*
X6941071Y-18626357D01*
X6955357Y-18597786D01*
X6969643Y-18583500D01*
X6998214Y-18569214D01*
X7226786Y-18840643D02*
X7241071Y-18854929D01*
X7226786Y-18869214D01*
X7212500Y-18854929D01*
X7226786Y-18840643D01*
X7226786Y-18869214D01*
X7426786Y-18569214D02*
X7455357Y-18569214D01*
X7483928Y-18583500D01*
X7498214Y-18597786D01*
X7512500Y-18626357D01*
X7526786Y-18683500D01*
X7526786Y-18754929D01*
X7512500Y-18812072D01*
X7498214Y-18840643D01*
X7483928Y-18854929D01*
X7455357Y-18869214D01*
X7426786Y-18869214D01*
X7398214Y-18854929D01*
X7383928Y-18840643D01*
X7369643Y-18812072D01*
X7355357Y-18754929D01*
X7355357Y-18683500D01*
X7369643Y-18626357D01*
X7383928Y-18597786D01*
X7398214Y-18583500D01*
X7426786Y-18569214D01*
X7626786Y-18569214D02*
X7812500Y-18569214D01*
X7712500Y-18683500D01*
X7755357Y-18683500D01*
X7783928Y-18697786D01*
X7798214Y-18712072D01*
X7812500Y-18740643D01*
X7812500Y-18812072D01*
X7798214Y-18840643D01*
X7783928Y-18854929D01*
X7755357Y-18869214D01*
X7669643Y-18869214D01*
X7641071Y-18854929D01*
X7626786Y-18840643D01*
X7955357Y-18869214D02*
X8012500Y-18869214D01*
X8041071Y-18854929D01*
X8055357Y-18840643D01*
X8083928Y-18797786D01*
X8098214Y-18740643D01*
X8098214Y-18626357D01*
X8083928Y-18597786D01*
X8069643Y-18583500D01*
X8041071Y-18569214D01*
X7983928Y-18569214D01*
X7955357Y-18583500D01*
X7941071Y-18597786D01*
X7926786Y-18626357D01*
X7926786Y-18697786D01*
X7941071Y-18726357D01*
X7955357Y-18740643D01*
X7983928Y-18754929D01*
X8041071Y-18754929D01*
X8069643Y-18740643D01*
X8083928Y-18726357D01*
X8098214Y-18697786D01*
X8355357Y-18669214D02*
X8355357Y-18869214D01*
X8283928Y-18554929D02*
X8212500Y-18769214D01*
X8398214Y-18769214D01*
X8498214Y-18569214D02*
X8498214Y-18626357D01*
X8612500Y-18569214D02*
X8612500Y-18626357D01*
X9055357Y-18983500D02*
X9041071Y-18969214D01*
X9012500Y-18926357D01*
X8998214Y-18897786D01*
X8983928Y-18854929D01*
X8969643Y-18783500D01*
X8969643Y-18726357D01*
X8983928Y-18654929D01*
X8998214Y-18612072D01*
X9012500Y-18583500D01*
X9041071Y-18540643D01*
X9055357Y-18526357D01*
X9326786Y-18869214D02*
X9155357Y-18869214D01*
X9241071Y-18869214D02*
X9241071Y-18569214D01*
X9212500Y-18612072D01*
X9183928Y-18640643D01*
X9155357Y-18654929D01*
X9583928Y-18569214D02*
X9526786Y-18569214D01*
X9498214Y-18583500D01*
X9483928Y-18597786D01*
X9455357Y-18640643D01*
X9441071Y-18697786D01*
X9441071Y-18812072D01*
X9455357Y-18840643D01*
X9469643Y-18854929D01*
X9498214Y-18869214D01*
X9555357Y-18869214D01*
X9583928Y-18854929D01*
X9598214Y-18840643D01*
X9612500Y-18812072D01*
X9612500Y-18740643D01*
X9598214Y-18712072D01*
X9583928Y-18697786D01*
X9555357Y-18683500D01*
X9498214Y-18683500D01*
X9469643Y-18697786D01*
X9455357Y-18712072D01*
X9441071Y-18740643D01*
X9969643Y-18869214D02*
X9969643Y-18569214D01*
X10098214Y-18869214D02*
X10098214Y-18712072D01*
X10083928Y-18683500D01*
X10055357Y-18669214D01*
X10012500Y-18669214D01*
X9983928Y-18683500D01*
X9969643Y-18697786D01*
X10283928Y-18869214D02*
X10255357Y-18854929D01*
X10241071Y-18840643D01*
X10226786Y-18812072D01*
X10226786Y-18726357D01*
X10241071Y-18697786D01*
X10255357Y-18683500D01*
X10283928Y-18669214D01*
X10326786Y-18669214D01*
X10355357Y-18683500D01*
X10369643Y-18697786D01*
X10383928Y-18726357D01*
X10383928Y-18812072D01*
X10369643Y-18840643D01*
X10355357Y-18854929D01*
X10326786Y-18869214D01*
X10283928Y-18869214D01*
X10555357Y-18869214D02*
X10526786Y-18854929D01*
X10512500Y-18826357D01*
X10512500Y-18569214D01*
X10783928Y-18854929D02*
X10755357Y-18869214D01*
X10698214Y-18869214D01*
X10669643Y-18854929D01*
X10655357Y-18826357D01*
X10655357Y-18712072D01*
X10669643Y-18683500D01*
X10698214Y-18669214D01*
X10755357Y-18669214D01*
X10783928Y-18683500D01*
X10798214Y-18712072D01*
X10798214Y-18740643D01*
X10655357Y-18769214D01*
X10912500Y-18854929D02*
X10941071Y-18869214D01*
X10998214Y-18869214D01*
X11026786Y-18854929D01*
X11041071Y-18826357D01*
X11041071Y-18812072D01*
X11026786Y-18783500D01*
X10998214Y-18769214D01*
X10955357Y-18769214D01*
X10926786Y-18754929D01*
X10912500Y-18726357D01*
X10912500Y-18712072D01*
X10926786Y-18683500D01*
X10955357Y-18669214D01*
X10998214Y-18669214D01*
X11026786Y-18683500D01*
X11398214Y-18754929D02*
X11626786Y-18754929D01*
X11512500Y-18869214D02*
X11512500Y-18640643D01*
X11983928Y-18597786D02*
X11998214Y-18583500D01*
X12026786Y-18569214D01*
X12098214Y-18569214D01*
X12126786Y-18583500D01*
X12141071Y-18597786D01*
X12155357Y-18626357D01*
X12155357Y-18654929D01*
X12141071Y-18697786D01*
X11969643Y-18869214D01*
X12155357Y-18869214D01*
X12255357Y-18569214D02*
X12455357Y-18569214D01*
X12326786Y-18869214D01*
X12783928Y-18854929D02*
X12812500Y-18869214D01*
X12869643Y-18869214D01*
X12898214Y-18854929D01*
X12912500Y-18826357D01*
X12912500Y-18812072D01*
X12898214Y-18783500D01*
X12869643Y-18769214D01*
X12826786Y-18769214D01*
X12798214Y-18754929D01*
X12783928Y-18726357D01*
X12783928Y-18712072D01*
X12798214Y-18683500D01*
X12826786Y-18669214D01*
X12869643Y-18669214D01*
X12898214Y-18683500D01*
X13083928Y-18869214D02*
X13055357Y-18854929D01*
X13041071Y-18826357D01*
X13041071Y-18569214D01*
X13241071Y-18869214D02*
X13212500Y-18854929D01*
X13198214Y-18840643D01*
X13183928Y-18812072D01*
X13183928Y-18726357D01*
X13198214Y-18697786D01*
X13212500Y-18683500D01*
X13241071Y-18669214D01*
X13283928Y-18669214D01*
X13312500Y-18683500D01*
X13326786Y-18697786D01*
X13341071Y-18726357D01*
X13341071Y-18812072D01*
X13326786Y-18840643D01*
X13312500Y-18854929D01*
X13283928Y-18869214D01*
X13241071Y-18869214D01*
X13426786Y-18669214D02*
X13541071Y-18669214D01*
X13469643Y-18569214D02*
X13469643Y-18826357D01*
X13483928Y-18854929D01*
X13512500Y-18869214D01*
X13541071Y-18869214D01*
X13626786Y-18854929D02*
X13655357Y-18869214D01*
X13712500Y-18869214D01*
X13741071Y-18854929D01*
X13755357Y-18826357D01*
X13755357Y-18812072D01*
X13741071Y-18783500D01*
X13712500Y-18769214D01*
X13669643Y-18769214D01*
X13641071Y-18754929D01*
X13626786Y-18726357D01*
X13626786Y-18712072D01*
X13641071Y-18683500D01*
X13669643Y-18669214D01*
X13712500Y-18669214D01*
X13741071Y-18683500D01*
X13855357Y-18983500D02*
X13869643Y-18969214D01*
X13898214Y-18926357D01*
X13912500Y-18897786D01*
X13926786Y-18854929D01*
X13941071Y-18783500D01*
X13941071Y-18726357D01*
X13926786Y-18654929D01*
X13912500Y-18612072D01*
X13898214Y-18583500D01*
X13869643Y-18540643D01*
X13855357Y-18526357D01*
M02*
