G04 #@! TF.GenerationSoftware,KiCad,Pcbnew,5.1.10*
G04 #@! TF.CreationDate,2021-05-19T15:41:42-05:00*
G04 #@! TF.ProjectId,Power Board,506f7765-7220-4426-9f61-72642e6b6963,rev?*
G04 #@! TF.SameCoordinates,Original*
G04 #@! TF.FileFunction,Legend,Bot*
G04 #@! TF.FilePolarity,Positive*
%FSLAX46Y46*%
G04 Gerber Fmt 4.6, Leading zero omitted, Abs format (unit mm)*
G04 Created by KiCad (PCBNEW 5.1.10) date 2021-05-19 15:41:42*
%MOMM*%
%LPD*%
G01*
G04 APERTURE LIST*
%ADD10C,0.120000*%
%ADD11C,0.150000*%
%ADD12C,2.600000*%
%ADD13R,2.600000X2.600000*%
%ADD14C,5.500000*%
%ADD15R,3.750000X3.750000*%
%ADD16C,2.000000*%
%ADD17O,1.700000X1.700000*%
%ADD18R,1.700000X1.700000*%
%ADD19O,2.000000X1.700000*%
%ADD20O,1.950000X1.700000*%
%ADD21C,0.900000*%
%ADD22C,10.600000*%
G04 APERTURE END LIST*
D10*
X97500000Y-16000000D02*
X97500000Y-116000000D01*
X37500000Y-116000000D02*
X37500000Y-16000000D01*
X86200000Y-82450000D02*
X86600000Y-82450000D01*
X86200000Y-83090000D02*
X86200000Y-82450000D01*
X92742000Y-86758000D02*
X92347000Y-86362000D01*
X95388000Y-89404000D02*
X95008000Y-89024000D01*
X92993000Y-86476000D02*
X92613000Y-86096000D01*
X95654000Y-89138000D02*
X95259000Y-88742000D01*
X87452000Y-86469000D02*
X87346000Y-86362000D01*
X90388000Y-89404000D02*
X90281000Y-89297000D01*
X87718000Y-86203000D02*
X87612000Y-86096000D01*
X90654000Y-89138000D02*
X90547000Y-89031000D01*
X96560000Y-91810000D02*
X96560000Y-82690000D01*
X86440000Y-91810000D02*
X86440000Y-82690000D01*
X86440000Y-82690000D02*
X96560000Y-82690000D01*
X86440000Y-91810000D02*
X96560000Y-91810000D01*
X86440000Y-84250000D02*
X96560000Y-84250000D01*
X86440000Y-83150000D02*
X96560000Y-83150000D01*
X96180000Y-87750000D02*
G75*
G03*
X96180000Y-87750000I-2180000J0D01*
G01*
X91180000Y-87750000D02*
G75*
G03*
X91180000Y-87750000I-2180000J0D01*
G01*
X38000000Y-92750000D02*
X38000000Y-121750000D01*
X92000000Y-121750000D02*
X92000000Y-92750000D01*
X38000000Y-121750000D02*
X92000000Y-121750000D01*
X38000000Y-92750000D02*
X92000000Y-92750000D01*
X83000000Y-63500000D02*
X38000000Y-63500000D01*
X83000000Y-41500000D02*
X83000000Y-63500000D01*
X38000000Y-41500000D02*
X83000000Y-41500000D01*
X38000000Y-63500000D02*
X38000000Y-41500000D01*
X49150000Y-53000000D02*
X49150000Y-62600000D01*
X49150000Y-62600000D02*
X59150000Y-62600000D01*
X59150000Y-62600000D02*
X59150000Y-53000000D01*
X59150000Y-53000000D02*
X49150000Y-53000000D01*
X60400000Y-55500000D02*
X72600000Y-55500000D01*
X72600000Y-55500000D02*
X72600000Y-43200000D01*
X72600000Y-43200000D02*
X60400000Y-43200000D01*
X60400000Y-43200000D02*
X60400000Y-55500000D01*
X47550000Y-53000000D02*
G75*
G03*
X47550000Y-53000000I-4000000J0D01*
G01*
X81450000Y-53000000D02*
G75*
G03*
X81450000Y-53000000I-4000000J0D01*
G01*
X63700000Y-58250000D02*
X63700000Y-62250000D01*
X63700000Y-62250000D02*
X73000000Y-62250000D01*
X73000000Y-62250000D02*
X73000000Y-58250000D01*
X73000000Y-58250000D02*
X63700000Y-58250000D01*
X75150000Y-23200000D02*
X64150000Y-23200000D01*
X75150000Y-34200000D02*
X75150000Y-23200000D01*
X64150000Y-34200000D02*
X75150000Y-34200000D01*
X64150000Y-23200000D02*
X64150000Y-34200000D01*
X61050000Y-29200000D02*
X50050000Y-29200000D01*
X61050000Y-40200000D02*
X61050000Y-29200000D01*
X50050000Y-40200000D02*
X61050000Y-40200000D01*
X50050000Y-40200000D02*
X50050000Y-29200000D01*
X87100000Y-27500000D02*
G75*
G03*
X87100000Y-27500000I-4150000J0D01*
G01*
X46700000Y-29700000D02*
G75*
G03*
X46700000Y-29700000I-4150000J0D01*
G01*
X37850000Y-40700000D02*
X37850000Y-16300000D01*
X37850000Y-16300000D02*
X87650000Y-16300000D01*
X87650000Y-40700000D02*
X37850000Y-40700000D01*
X87650000Y-16300000D02*
X87650000Y-40700000D01*
X53350000Y-27500000D02*
X53350000Y-17700000D01*
X53350000Y-17700000D02*
X63050000Y-17700000D01*
X63050000Y-17700000D02*
X63050000Y-27500000D01*
X63050000Y-27500000D02*
X53350000Y-27500000D01*
X75150000Y-18100000D02*
X65850000Y-18100000D01*
X65850000Y-22100000D02*
X75150000Y-22100000D01*
X75150000Y-22100000D02*
X75150000Y-18100000D01*
X65850000Y-18100000D02*
X65850000Y-22100000D01*
X79650000Y-119170000D02*
X79650000Y-120500000D01*
X80980000Y-119170000D02*
X79650000Y-119170000D01*
X82250000Y-119170000D02*
X82250000Y-121830000D01*
X82250000Y-121830000D02*
X84850000Y-121830000D01*
X82250000Y-119170000D02*
X84850000Y-119170000D01*
X84850000Y-119170000D02*
X84850000Y-121830000D01*
X49170000Y-119170000D02*
X49170000Y-120500000D01*
X50500000Y-119170000D02*
X49170000Y-119170000D01*
X51770000Y-119170000D02*
X51770000Y-121830000D01*
X51770000Y-121830000D02*
X56910000Y-121830000D01*
X51770000Y-119170000D02*
X56910000Y-119170000D01*
X56910000Y-119170000D02*
X56910000Y-121830000D01*
X61870000Y-119170000D02*
X61870000Y-120500000D01*
X63200000Y-119170000D02*
X61870000Y-119170000D01*
X64470000Y-119170000D02*
X64470000Y-121830000D01*
X64470000Y-121830000D02*
X67070000Y-121830000D01*
X64470000Y-119170000D02*
X67070000Y-119170000D01*
X67070000Y-119170000D02*
X67070000Y-121830000D01*
X69490000Y-119170000D02*
X69490000Y-120500000D01*
X70820000Y-119170000D02*
X69490000Y-119170000D01*
X72090000Y-119170000D02*
X72090000Y-121830000D01*
X72090000Y-121830000D02*
X74690000Y-121830000D01*
X72090000Y-119170000D02*
X74690000Y-119170000D01*
X74690000Y-119170000D02*
X74690000Y-121830000D01*
X66950000Y-121830000D02*
X68280000Y-121830000D01*
X66950000Y-120500000D02*
X66950000Y-121830000D01*
X66950000Y-119230000D02*
X69610000Y-119230000D01*
X69610000Y-119230000D02*
X69610000Y-119170000D01*
X66950000Y-119230000D02*
X66950000Y-119170000D01*
X66950000Y-119170000D02*
X69610000Y-119170000D01*
X74570000Y-119170000D02*
X74570000Y-120500000D01*
X75900000Y-119170000D02*
X74570000Y-119170000D01*
X77170000Y-119170000D02*
X77170000Y-121830000D01*
X77170000Y-121830000D02*
X79770000Y-121830000D01*
X77170000Y-119170000D02*
X79770000Y-119170000D01*
X79770000Y-119170000D02*
X79770000Y-121830000D01*
X56790000Y-119170000D02*
X56790000Y-120500000D01*
X58120000Y-119170000D02*
X56790000Y-119170000D01*
X59390000Y-119170000D02*
X59390000Y-121830000D01*
X59390000Y-121830000D02*
X61990000Y-121830000D01*
X59390000Y-119170000D02*
X61990000Y-119170000D01*
X61990000Y-119170000D02*
X61990000Y-121830000D01*
X89250000Y-27400000D02*
X90500000Y-27400000D01*
X89250000Y-28650000D02*
X89250000Y-27400000D01*
X94750000Y-34550000D02*
X94750000Y-31500000D01*
X91800000Y-34550000D02*
X94750000Y-34550000D01*
X91800000Y-35300000D02*
X91800000Y-34550000D01*
X94750000Y-28450000D02*
X94750000Y-31500000D01*
X91800000Y-28450000D02*
X94750000Y-28450000D01*
X91800000Y-27700000D02*
X91800000Y-28450000D01*
X89550000Y-35300000D02*
X89550000Y-33500000D01*
X90300000Y-35300000D02*
X89550000Y-35300000D01*
X90300000Y-33500000D02*
X90300000Y-35300000D01*
X89550000Y-33500000D02*
X90300000Y-33500000D01*
X89550000Y-29500000D02*
X89550000Y-27700000D01*
X90300000Y-29500000D02*
X89550000Y-29500000D01*
X90300000Y-27700000D02*
X90300000Y-29500000D01*
X89550000Y-27700000D02*
X90300000Y-27700000D01*
X89550000Y-32000000D02*
X89550000Y-31000000D01*
X90300000Y-32000000D02*
X89550000Y-32000000D01*
X90300000Y-31000000D02*
X90300000Y-32000000D01*
X89550000Y-31000000D02*
X90300000Y-31000000D01*
X89540000Y-35310000D02*
X89540000Y-27690000D01*
X95510000Y-35310000D02*
X89540000Y-35310000D01*
X95510000Y-27690000D02*
X95510000Y-35310000D01*
X89540000Y-27690000D02*
X95510000Y-27690000D01*
X96800000Y-65800000D02*
X96400000Y-65800000D01*
X96800000Y-65160000D02*
X96800000Y-65800000D01*
X90258000Y-61492000D02*
X90653000Y-61888000D01*
X87612000Y-58846000D02*
X87992000Y-59226000D01*
X90007000Y-61774000D02*
X90387000Y-62154000D01*
X87346000Y-59112000D02*
X87741000Y-59508000D01*
X95548000Y-61781000D02*
X95654000Y-61888000D01*
X92612000Y-58846000D02*
X92719000Y-58953000D01*
X95282000Y-62047000D02*
X95388000Y-62154000D01*
X92346000Y-59112000D02*
X92453000Y-59219000D01*
X86440000Y-56440000D02*
X86440000Y-65560000D01*
X96560000Y-56440000D02*
X96560000Y-65560000D01*
X96560000Y-65560000D02*
X86440000Y-65560000D01*
X96560000Y-56440000D02*
X86440000Y-56440000D01*
X96560000Y-64000000D02*
X86440000Y-64000000D01*
X96560000Y-65100000D02*
X86440000Y-65100000D01*
X91180000Y-60500000D02*
G75*
G03*
X91180000Y-60500000I-2180000J0D01*
G01*
X96180000Y-60500000D02*
G75*
G03*
X96180000Y-60500000I-2180000J0D01*
G01*
X86200000Y-46200000D02*
X86600000Y-46200000D01*
X86200000Y-46840000D02*
X86200000Y-46200000D01*
X92742000Y-50508000D02*
X92347000Y-50112000D01*
X95388000Y-53154000D02*
X95008000Y-52774000D01*
X92993000Y-50226000D02*
X92613000Y-49846000D01*
X95654000Y-52888000D02*
X95259000Y-52492000D01*
X87452000Y-50219000D02*
X87346000Y-50112000D01*
X90388000Y-53154000D02*
X90281000Y-53047000D01*
X87718000Y-49953000D02*
X87612000Y-49846000D01*
X90654000Y-52888000D02*
X90547000Y-52781000D01*
X96560000Y-55560000D02*
X96560000Y-46440000D01*
X86440000Y-55560000D02*
X86440000Y-46440000D01*
X86440000Y-46440000D02*
X96560000Y-46440000D01*
X86440000Y-55560000D02*
X96560000Y-55560000D01*
X86440000Y-48000000D02*
X96560000Y-48000000D01*
X86440000Y-46900000D02*
X96560000Y-46900000D01*
X96180000Y-51500000D02*
G75*
G03*
X96180000Y-51500000I-2180000J0D01*
G01*
X91180000Y-51500000D02*
G75*
G03*
X91180000Y-51500000I-2180000J0D01*
G01*
X89250000Y-16400000D02*
X90500000Y-16400000D01*
X89250000Y-17650000D02*
X89250000Y-16400000D01*
X94750000Y-26050000D02*
X94750000Y-21750000D01*
X91800000Y-26050000D02*
X94750000Y-26050000D01*
X91800000Y-26800000D02*
X91800000Y-26050000D01*
X94750000Y-17450000D02*
X94750000Y-21750000D01*
X91800000Y-17450000D02*
X94750000Y-17450000D01*
X91800000Y-16700000D02*
X91800000Y-17450000D01*
X89550000Y-26800000D02*
X89550000Y-25000000D01*
X90300000Y-26800000D02*
X89550000Y-26800000D01*
X90300000Y-25000000D02*
X90300000Y-26800000D01*
X89550000Y-25000000D02*
X90300000Y-25000000D01*
X89550000Y-18500000D02*
X89550000Y-16700000D01*
X90300000Y-18500000D02*
X89550000Y-18500000D01*
X90300000Y-16700000D02*
X90300000Y-18500000D01*
X89550000Y-16700000D02*
X90300000Y-16700000D01*
X89550000Y-23500000D02*
X89550000Y-20000000D01*
X90300000Y-23500000D02*
X89550000Y-23500000D01*
X90300000Y-20000000D02*
X90300000Y-23500000D01*
X89550000Y-20000000D02*
X90300000Y-20000000D01*
X89540000Y-26810000D02*
X89540000Y-16690000D01*
X95510000Y-26810000D02*
X89540000Y-26810000D01*
X95510000Y-16690000D02*
X95510000Y-26810000D01*
X89540000Y-16690000D02*
X95510000Y-16690000D01*
D11*
X91833333Y-92262380D02*
X91833333Y-92976666D01*
X91880952Y-93119523D01*
X91976190Y-93214761D01*
X92119047Y-93262380D01*
X92214285Y-93262380D01*
X90928571Y-92262380D02*
X91119047Y-92262380D01*
X91214285Y-92310000D01*
X91261904Y-92357619D01*
X91357142Y-92500476D01*
X91404761Y-92690952D01*
X91404761Y-93071904D01*
X91357142Y-93167142D01*
X91309523Y-93214761D01*
X91214285Y-93262380D01*
X91023809Y-93262380D01*
X90928571Y-93214761D01*
X90880952Y-93167142D01*
X90833333Y-93071904D01*
X90833333Y-92833809D01*
X90880952Y-92738571D01*
X90928571Y-92690952D01*
X91023809Y-92643333D01*
X91214285Y-92643333D01*
X91309523Y-92690952D01*
X91357142Y-92738571D01*
X91404761Y-92833809D01*
X65666666Y-107107142D02*
X65714285Y-107154761D01*
X65857142Y-107202380D01*
X65952380Y-107202380D01*
X66095238Y-107154761D01*
X66190476Y-107059523D01*
X66238095Y-106964285D01*
X66285714Y-106773809D01*
X66285714Y-106630952D01*
X66238095Y-106440476D01*
X66190476Y-106345238D01*
X66095238Y-106250000D01*
X65952380Y-106202380D01*
X65857142Y-106202380D01*
X65714285Y-106250000D01*
X65666666Y-106297619D01*
X64666666Y-107107142D02*
X64714285Y-107154761D01*
X64857142Y-107202380D01*
X64952380Y-107202380D01*
X65095238Y-107154761D01*
X65190476Y-107059523D01*
X65238095Y-106964285D01*
X65285714Y-106773809D01*
X65285714Y-106630952D01*
X65238095Y-106440476D01*
X65190476Y-106345238D01*
X65095238Y-106250000D01*
X64952380Y-106202380D01*
X64857142Y-106202380D01*
X64714285Y-106250000D01*
X64666666Y-106297619D01*
X63714285Y-107202380D02*
X64285714Y-107202380D01*
X64000000Y-107202380D02*
X64000000Y-106202380D01*
X64095238Y-106345238D01*
X64190476Y-106440476D01*
X64285714Y-106488095D01*
X90169047Y-98352380D02*
X89978571Y-98352380D01*
X89883333Y-98400000D01*
X89788095Y-98495238D01*
X89740476Y-98685714D01*
X89740476Y-99019047D01*
X89788095Y-99209523D01*
X89883333Y-99304761D01*
X89978571Y-99352380D01*
X90169047Y-99352380D01*
X90264285Y-99304761D01*
X90359523Y-99209523D01*
X90407142Y-99019047D01*
X90407142Y-98685714D01*
X90359523Y-98495238D01*
X90264285Y-98400000D01*
X90169047Y-98352380D01*
X89311904Y-98352380D02*
X89311904Y-99161904D01*
X89264285Y-99257142D01*
X89216666Y-99304761D01*
X89121428Y-99352380D01*
X88930952Y-99352380D01*
X88835714Y-99304761D01*
X88788095Y-99257142D01*
X88740476Y-99161904D01*
X88740476Y-98352380D01*
X88407142Y-98352380D02*
X87835714Y-98352380D01*
X88121428Y-99352380D02*
X88121428Y-98352380D01*
X87502380Y-98971428D02*
X86740476Y-98971428D01*
X90369047Y-115052380D02*
X90178571Y-115052380D01*
X90083333Y-115100000D01*
X89988095Y-115195238D01*
X89940476Y-115385714D01*
X89940476Y-115719047D01*
X89988095Y-115909523D01*
X90083333Y-116004761D01*
X90178571Y-116052380D01*
X90369047Y-116052380D01*
X90464285Y-116004761D01*
X90559523Y-115909523D01*
X90607142Y-115719047D01*
X90607142Y-115385714D01*
X90559523Y-115195238D01*
X90464285Y-115100000D01*
X90369047Y-115052380D01*
X89511904Y-115052380D02*
X89511904Y-115861904D01*
X89464285Y-115957142D01*
X89416666Y-116004761D01*
X89321428Y-116052380D01*
X89130952Y-116052380D01*
X89035714Y-116004761D01*
X88988095Y-115957142D01*
X88940476Y-115861904D01*
X88940476Y-115052380D01*
X88607142Y-115052380D02*
X88035714Y-115052380D01*
X88321428Y-116052380D02*
X88321428Y-115052380D01*
X87702380Y-115671428D02*
X86940476Y-115671428D01*
X87321428Y-116052380D02*
X87321428Y-115290476D01*
X42592857Y-99352380D02*
X42592857Y-98352380D01*
X42116666Y-99352380D02*
X42116666Y-98352380D01*
X41545238Y-99352380D01*
X41545238Y-98352380D01*
X41069047Y-98971428D02*
X40307142Y-98971428D01*
X42792857Y-116052380D02*
X42792857Y-115052380D01*
X42316666Y-116052380D02*
X42316666Y-115052380D01*
X41745238Y-116052380D01*
X41745238Y-115052380D01*
X41269047Y-115671428D02*
X40507142Y-115671428D01*
X40888095Y-116052380D02*
X40888095Y-115290476D01*
X54404761Y-47428571D02*
X54261904Y-47476190D01*
X54214285Y-47523809D01*
X54166666Y-47619047D01*
X54166666Y-47761904D01*
X54214285Y-47857142D01*
X54261904Y-47904761D01*
X54357142Y-47952380D01*
X54738095Y-47952380D01*
X54738095Y-46952380D01*
X54404761Y-46952380D01*
X54309523Y-47000000D01*
X54261904Y-47047619D01*
X54214285Y-47142857D01*
X54214285Y-47238095D01*
X54261904Y-47333333D01*
X54309523Y-47380952D01*
X54404761Y-47428571D01*
X54738095Y-47428571D01*
X53214285Y-47952380D02*
X53785714Y-47952380D01*
X53500000Y-47952380D02*
X53500000Y-46952380D01*
X53595238Y-47095238D01*
X53690476Y-47190476D01*
X53785714Y-47238095D01*
X82419047Y-45352380D02*
X82228571Y-45352380D01*
X82133333Y-45400000D01*
X82038095Y-45495238D01*
X81990476Y-45685714D01*
X81990476Y-46019047D01*
X82038095Y-46209523D01*
X82133333Y-46304761D01*
X82228571Y-46352380D01*
X82419047Y-46352380D01*
X82514285Y-46304761D01*
X82609523Y-46209523D01*
X82657142Y-46019047D01*
X82657142Y-45685714D01*
X82609523Y-45495238D01*
X82514285Y-45400000D01*
X82419047Y-45352380D01*
X81561904Y-45352380D02*
X81561904Y-46161904D01*
X81514285Y-46257142D01*
X81466666Y-46304761D01*
X81371428Y-46352380D01*
X81180952Y-46352380D01*
X81085714Y-46304761D01*
X81038095Y-46257142D01*
X80990476Y-46161904D01*
X80990476Y-45352380D01*
X80657142Y-45352380D02*
X80085714Y-45352380D01*
X80371428Y-46352380D02*
X80371428Y-45352380D01*
X79752380Y-45971428D02*
X78990476Y-45971428D01*
X82619047Y-58552380D02*
X82428571Y-58552380D01*
X82333333Y-58600000D01*
X82238095Y-58695238D01*
X82190476Y-58885714D01*
X82190476Y-59219047D01*
X82238095Y-59409523D01*
X82333333Y-59504761D01*
X82428571Y-59552380D01*
X82619047Y-59552380D01*
X82714285Y-59504761D01*
X82809523Y-59409523D01*
X82857142Y-59219047D01*
X82857142Y-58885714D01*
X82809523Y-58695238D01*
X82714285Y-58600000D01*
X82619047Y-58552380D01*
X81761904Y-58552380D02*
X81761904Y-59361904D01*
X81714285Y-59457142D01*
X81666666Y-59504761D01*
X81571428Y-59552380D01*
X81380952Y-59552380D01*
X81285714Y-59504761D01*
X81238095Y-59457142D01*
X81190476Y-59361904D01*
X81190476Y-58552380D01*
X80857142Y-58552380D02*
X80285714Y-58552380D01*
X80571428Y-59552380D02*
X80571428Y-58552380D01*
X79952380Y-59171428D02*
X79190476Y-59171428D01*
X79571428Y-59552380D02*
X79571428Y-58790476D01*
X41342857Y-46352380D02*
X41342857Y-45352380D01*
X40866666Y-46352380D02*
X40866666Y-45352380D01*
X40295238Y-46352380D01*
X40295238Y-45352380D01*
X39819047Y-45971428D02*
X39057142Y-45971428D01*
X41542857Y-59552380D02*
X41542857Y-58552380D01*
X41066666Y-59552380D02*
X41066666Y-58552380D01*
X40495238Y-59552380D01*
X40495238Y-58552380D01*
X40019047Y-59171428D02*
X39257142Y-59171428D01*
X39638095Y-59552380D02*
X39638095Y-58790476D01*
X57154761Y-26128571D02*
X57011904Y-26176190D01*
X56964285Y-26223809D01*
X56916666Y-26319047D01*
X56916666Y-26461904D01*
X56964285Y-26557142D01*
X57011904Y-26604761D01*
X57107142Y-26652380D01*
X57488095Y-26652380D01*
X57488095Y-25652380D01*
X57154761Y-25652380D01*
X57059523Y-25700000D01*
X57011904Y-25747619D01*
X56964285Y-25842857D01*
X56964285Y-25938095D01*
X57011904Y-26033333D01*
X57059523Y-26080952D01*
X57154761Y-26128571D01*
X57488095Y-26128571D01*
X56535714Y-25747619D02*
X56488095Y-25700000D01*
X56392857Y-25652380D01*
X56154761Y-25652380D01*
X56059523Y-25700000D01*
X56011904Y-25747619D01*
X55964285Y-25842857D01*
X55964285Y-25938095D01*
X56011904Y-26080952D01*
X56583333Y-26652380D01*
X55964285Y-26652380D01*
X42888095Y-23128571D02*
X42554761Y-23128571D01*
X42411904Y-23652380D02*
X42888095Y-23652380D01*
X42888095Y-22652380D01*
X42411904Y-22652380D01*
X41983333Y-23652380D02*
X41983333Y-22652380D01*
X41411904Y-23652380D01*
X41411904Y-22652380D01*
X86469047Y-21252380D02*
X86278571Y-21252380D01*
X86183333Y-21300000D01*
X86088095Y-21395238D01*
X86040476Y-21585714D01*
X86040476Y-21919047D01*
X86088095Y-22109523D01*
X86183333Y-22204761D01*
X86278571Y-22252380D01*
X86469047Y-22252380D01*
X86564285Y-22204761D01*
X86659523Y-22109523D01*
X86707142Y-21919047D01*
X86707142Y-21585714D01*
X86659523Y-21395238D01*
X86564285Y-21300000D01*
X86469047Y-21252380D01*
X85611904Y-21252380D02*
X85611904Y-22061904D01*
X85564285Y-22157142D01*
X85516666Y-22204761D01*
X85421428Y-22252380D01*
X85230952Y-22252380D01*
X85135714Y-22204761D01*
X85088095Y-22157142D01*
X85040476Y-22061904D01*
X85040476Y-21252380D01*
X84707142Y-21252380D02*
X84135714Y-21252380D01*
X84421428Y-22252380D02*
X84421428Y-21252380D01*
X83802380Y-21871428D02*
X83040476Y-21871428D01*
X86469047Y-34652380D02*
X86278571Y-34652380D01*
X86183333Y-34700000D01*
X86088095Y-34795238D01*
X86040476Y-34985714D01*
X86040476Y-35319047D01*
X86088095Y-35509523D01*
X86183333Y-35604761D01*
X86278571Y-35652380D01*
X86469047Y-35652380D01*
X86564285Y-35604761D01*
X86659523Y-35509523D01*
X86707142Y-35319047D01*
X86707142Y-34985714D01*
X86659523Y-34795238D01*
X86564285Y-34700000D01*
X86469047Y-34652380D01*
X85611904Y-34652380D02*
X85611904Y-35461904D01*
X85564285Y-35557142D01*
X85516666Y-35604761D01*
X85421428Y-35652380D01*
X85230952Y-35652380D01*
X85135714Y-35604761D01*
X85088095Y-35557142D01*
X85040476Y-35461904D01*
X85040476Y-34652380D01*
X84707142Y-34652380D02*
X84135714Y-34652380D01*
X84421428Y-35652380D02*
X84421428Y-34652380D01*
X83802380Y-35271428D02*
X83040476Y-35271428D01*
X83421428Y-35652380D02*
X83421428Y-34890476D01*
X41492857Y-21952380D02*
X41492857Y-20952380D01*
X41016666Y-21952380D02*
X41016666Y-20952380D01*
X40445238Y-21952380D01*
X40445238Y-20952380D01*
X39969047Y-21571428D02*
X39207142Y-21571428D01*
X41792857Y-35652380D02*
X41792857Y-34652380D01*
X41316666Y-35652380D02*
X41316666Y-34652380D01*
X40745238Y-35652380D01*
X40745238Y-34652380D01*
X40269047Y-35271428D02*
X39507142Y-35271428D01*
X39888095Y-35652380D02*
X39888095Y-34890476D01*
X78102380Y-119690476D02*
X78816666Y-119690476D01*
X78959523Y-119642857D01*
X79054761Y-119547619D01*
X79102380Y-119404761D01*
X79102380Y-119309523D01*
X79102380Y-120690476D02*
X79102380Y-120119047D01*
X79102380Y-120404761D02*
X78102380Y-120404761D01*
X78245238Y-120309523D01*
X78340476Y-120214285D01*
X78388095Y-120119047D01*
X79102380Y-121642857D02*
X79102380Y-121071428D01*
X79102380Y-121357142D02*
X78102380Y-121357142D01*
X78245238Y-121261904D01*
X78340476Y-121166666D01*
X78388095Y-121071428D01*
X47622380Y-119690476D02*
X48336666Y-119690476D01*
X48479523Y-119642857D01*
X48574761Y-119547619D01*
X48622380Y-119404761D01*
X48622380Y-119309523D01*
X47717619Y-120119047D02*
X47670000Y-120166666D01*
X47622380Y-120261904D01*
X47622380Y-120500000D01*
X47670000Y-120595238D01*
X47717619Y-120642857D01*
X47812857Y-120690476D01*
X47908095Y-120690476D01*
X48050952Y-120642857D01*
X48622380Y-120071428D01*
X48622380Y-120690476D01*
X47622380Y-121023809D02*
X47622380Y-121642857D01*
X48003333Y-121309523D01*
X48003333Y-121452380D01*
X48050952Y-121547619D01*
X48098571Y-121595238D01*
X48193809Y-121642857D01*
X48431904Y-121642857D01*
X48527142Y-121595238D01*
X48574761Y-121547619D01*
X48622380Y-121452380D01*
X48622380Y-121166666D01*
X48574761Y-121071428D01*
X48527142Y-121023809D01*
X60322380Y-119690476D02*
X61036666Y-119690476D01*
X61179523Y-119642857D01*
X61274761Y-119547619D01*
X61322380Y-119404761D01*
X61322380Y-119309523D01*
X60417619Y-120119047D02*
X60370000Y-120166666D01*
X60322380Y-120261904D01*
X60322380Y-120500000D01*
X60370000Y-120595238D01*
X60417619Y-120642857D01*
X60512857Y-120690476D01*
X60608095Y-120690476D01*
X60750952Y-120642857D01*
X61322380Y-120071428D01*
X61322380Y-120690476D01*
X61322380Y-121642857D02*
X61322380Y-121071428D01*
X61322380Y-121357142D02*
X60322380Y-121357142D01*
X60465238Y-121261904D01*
X60560476Y-121166666D01*
X60608095Y-121071428D01*
X67942380Y-119690476D02*
X68656666Y-119690476D01*
X68799523Y-119642857D01*
X68894761Y-119547619D01*
X68942380Y-119404761D01*
X68942380Y-119309523D01*
X68037619Y-120119047D02*
X67990000Y-120166666D01*
X67942380Y-120261904D01*
X67942380Y-120500000D01*
X67990000Y-120595238D01*
X68037619Y-120642857D01*
X68132857Y-120690476D01*
X68228095Y-120690476D01*
X68370952Y-120642857D01*
X68942380Y-120071428D01*
X68942380Y-120690476D01*
X67942380Y-121309523D02*
X67942380Y-121404761D01*
X67990000Y-121500000D01*
X68037619Y-121547619D01*
X68132857Y-121595238D01*
X68323333Y-121642857D01*
X68561428Y-121642857D01*
X68751904Y-121595238D01*
X68847142Y-121547619D01*
X68894761Y-121500000D01*
X68942380Y-121404761D01*
X68942380Y-121309523D01*
X68894761Y-121214285D01*
X68847142Y-121166666D01*
X68751904Y-121119047D01*
X68561428Y-121071428D01*
X68323333Y-121071428D01*
X68132857Y-121119047D01*
X68037619Y-121166666D01*
X67990000Y-121214285D01*
X67942380Y-121309523D01*
X69089523Y-122282380D02*
X69089523Y-122996666D01*
X69137142Y-123139523D01*
X69232380Y-123234761D01*
X69375238Y-123282380D01*
X69470476Y-123282380D01*
X68089523Y-123282380D02*
X68660952Y-123282380D01*
X68375238Y-123282380D02*
X68375238Y-122282380D01*
X68470476Y-122425238D01*
X68565714Y-122520476D01*
X68660952Y-122568095D01*
X67184761Y-122282380D02*
X67660952Y-122282380D01*
X67708571Y-122758571D01*
X67660952Y-122710952D01*
X67565714Y-122663333D01*
X67327619Y-122663333D01*
X67232380Y-122710952D01*
X67184761Y-122758571D01*
X67137142Y-122853809D01*
X67137142Y-123091904D01*
X67184761Y-123187142D01*
X67232380Y-123234761D01*
X67327619Y-123282380D01*
X67565714Y-123282380D01*
X67660952Y-123234761D01*
X67708571Y-123187142D01*
X73022380Y-119690476D02*
X73736666Y-119690476D01*
X73879523Y-119642857D01*
X73974761Y-119547619D01*
X74022380Y-119404761D01*
X74022380Y-119309523D01*
X74022380Y-120690476D02*
X74022380Y-120119047D01*
X74022380Y-120404761D02*
X73022380Y-120404761D01*
X73165238Y-120309523D01*
X73260476Y-120214285D01*
X73308095Y-120119047D01*
X73355714Y-121547619D02*
X74022380Y-121547619D01*
X72974761Y-121309523D02*
X73689047Y-121071428D01*
X73689047Y-121690476D01*
X55242380Y-119690476D02*
X55956666Y-119690476D01*
X56099523Y-119642857D01*
X56194761Y-119547619D01*
X56242380Y-119404761D01*
X56242380Y-119309523D01*
X56242380Y-120690476D02*
X56242380Y-120119047D01*
X56242380Y-120404761D02*
X55242380Y-120404761D01*
X55385238Y-120309523D01*
X55480476Y-120214285D01*
X55528095Y-120119047D01*
X55337619Y-121071428D02*
X55290000Y-121119047D01*
X55242380Y-121214285D01*
X55242380Y-121452380D01*
X55290000Y-121547619D01*
X55337619Y-121595238D01*
X55432857Y-121642857D01*
X55528095Y-121642857D01*
X55670952Y-121595238D01*
X56242380Y-121023809D01*
X56242380Y-121642857D01*
X87902380Y-31166666D02*
X88616666Y-31166666D01*
X88759523Y-31119047D01*
X88854761Y-31023809D01*
X88902380Y-30880952D01*
X88902380Y-30785714D01*
X87902380Y-32119047D02*
X87902380Y-31642857D01*
X88378571Y-31595238D01*
X88330952Y-31642857D01*
X88283333Y-31738095D01*
X88283333Y-31976190D01*
X88330952Y-32071428D01*
X88378571Y-32119047D01*
X88473809Y-32166666D01*
X88711904Y-32166666D01*
X88807142Y-32119047D01*
X88854761Y-32071428D01*
X88902380Y-31976190D01*
X88902380Y-31738095D01*
X88854761Y-31642857D01*
X88807142Y-31595238D01*
X91833333Y-54892380D02*
X91833333Y-55606666D01*
X91880952Y-55749523D01*
X91976190Y-55844761D01*
X92119047Y-55892380D01*
X92214285Y-55892380D01*
X91404761Y-54987619D02*
X91357142Y-54940000D01*
X91261904Y-54892380D01*
X91023809Y-54892380D01*
X90928571Y-54940000D01*
X90880952Y-54987619D01*
X90833333Y-55082857D01*
X90833333Y-55178095D01*
X90880952Y-55320952D01*
X91452380Y-55892380D01*
X90833333Y-55892380D01*
X91833333Y-56012380D02*
X91833333Y-56726666D01*
X91880952Y-56869523D01*
X91976190Y-56964761D01*
X92119047Y-57012380D01*
X92214285Y-57012380D01*
X90928571Y-56345714D02*
X90928571Y-57012380D01*
X91166666Y-55964761D02*
X91404761Y-56679047D01*
X90785714Y-56679047D01*
X87902380Y-21416666D02*
X88616666Y-21416666D01*
X88759523Y-21369047D01*
X88854761Y-21273809D01*
X88902380Y-21130952D01*
X88902380Y-21035714D01*
X87902380Y-21797619D02*
X87902380Y-22416666D01*
X88283333Y-22083333D01*
X88283333Y-22226190D01*
X88330952Y-22321428D01*
X88378571Y-22369047D01*
X88473809Y-22416666D01*
X88711904Y-22416666D01*
X88807142Y-22369047D01*
X88854761Y-22321428D01*
X88902380Y-22226190D01*
X88902380Y-21940476D01*
X88854761Y-21845238D01*
X88807142Y-21797619D01*
%LPC*%
D12*
X94000000Y-87750000D03*
D13*
X89000000Y-87750000D03*
D14*
X77500000Y-107250000D03*
X52500000Y-102250000D03*
D15*
X88750000Y-118250000D03*
X88750000Y-96250000D03*
X41250000Y-118250000D03*
X41250000Y-96250000D03*
D14*
X45500000Y-60500000D03*
X75500000Y-44500000D03*
D15*
X81000000Y-43250000D03*
X81000000Y-61750000D03*
X40000000Y-43250000D03*
X40000000Y-61750000D03*
D16*
X39750000Y-23300000D03*
D14*
X46150000Y-37250000D03*
X79350000Y-19750000D03*
D15*
X84850000Y-19000000D03*
X84850000Y-38000000D03*
X40650000Y-19000000D03*
X40650000Y-38000000D03*
D17*
X83520000Y-120500000D03*
D18*
X80980000Y-120500000D03*
D17*
X55580000Y-120500000D03*
X53040000Y-120500000D03*
D18*
X50500000Y-120500000D03*
D17*
X65740000Y-120500000D03*
D18*
X63200000Y-120500000D03*
D17*
X73360000Y-120500000D03*
D18*
X70820000Y-120500000D03*
X68280000Y-120500000D03*
D17*
X78440000Y-120500000D03*
D18*
X75900000Y-120500000D03*
D17*
X60660000Y-120500000D03*
D18*
X58120000Y-120500000D03*
D17*
X108790000Y-51660000D03*
X108790000Y-49120000D03*
X108790000Y-46580000D03*
X108790000Y-44040000D03*
D18*
X108790000Y-41500000D03*
D17*
X106250000Y-51660000D03*
X106250000Y-49120000D03*
X106250000Y-46580000D03*
X106250000Y-44040000D03*
D18*
X106250000Y-41500000D03*
D12*
X107500000Y-58750000D03*
D13*
X107500000Y-63750000D03*
D12*
X107500000Y-68750000D03*
D13*
X107500000Y-73750000D03*
D19*
X92000000Y-32750000D03*
G36*
G01*
X91250000Y-29400000D02*
X92750000Y-29400000D01*
G75*
G02*
X93000000Y-29650000I0J-250000D01*
G01*
X93000000Y-30850000D01*
G75*
G02*
X92750000Y-31100000I-250000J0D01*
G01*
X91250000Y-31100000D01*
G75*
G02*
X91000000Y-30850000I0J250000D01*
G01*
X91000000Y-29650000D01*
G75*
G02*
X91250000Y-29400000I250000J0D01*
G01*
G37*
D12*
X89000000Y-60500000D03*
D13*
X94000000Y-60500000D03*
D12*
X107500000Y-88750000D03*
D13*
X107500000Y-93750000D03*
D12*
X94000000Y-51500000D03*
D13*
X89000000Y-51500000D03*
D20*
X92000000Y-24250000D03*
X92000000Y-21750000D03*
G36*
G01*
X91275000Y-18400000D02*
X92725000Y-18400000D01*
G75*
G02*
X92975000Y-18650000I0J-250000D01*
G01*
X92975000Y-19850000D01*
G75*
G02*
X92725000Y-20100000I-250000J0D01*
G01*
X91275000Y-20100000D01*
G75*
G02*
X91025000Y-19850000I0J250000D01*
G01*
X91025000Y-18650000D01*
G75*
G02*
X91275000Y-18400000I250000J0D01*
G01*
G37*
D21*
X110310749Y-103189251D03*
X107500000Y-102025000D03*
X104689251Y-103189251D03*
X103525000Y-106000000D03*
X104689251Y-108810749D03*
X107500000Y-109975000D03*
X110310749Y-108810749D03*
X111475000Y-106000000D03*
D22*
X107500000Y-106000000D03*
D21*
X110310749Y-23189251D03*
X107500000Y-22025000D03*
X104689251Y-23189251D03*
X103525000Y-26000000D03*
X104689251Y-28810749D03*
X107500000Y-29975000D03*
X110310749Y-28810749D03*
X111475000Y-26000000D03*
D22*
X107500000Y-26000000D03*
D21*
X30310749Y-103189251D03*
X27500000Y-102025000D03*
X24689251Y-103189251D03*
X23525000Y-106000000D03*
X24689251Y-108810749D03*
X27500000Y-109975000D03*
X30310749Y-108810749D03*
X31475000Y-106000000D03*
D22*
X27500000Y-106000000D03*
D21*
X30310749Y-23189251D03*
X27500000Y-22025000D03*
X24689251Y-23189251D03*
X23525000Y-26000000D03*
X24689251Y-28810749D03*
X27500000Y-29975000D03*
X30310749Y-28810749D03*
X31475000Y-26000000D03*
D22*
X27500000Y-26000000D03*
M02*
