%FSLAX45Y45*%
G04 Gerber Fmt 4.5, Leading zero omitted, Abs format (unit mm)*
G04 Created by KiCad (PCBNEW 5.1.10) date 2021-05-19 15:42:02*
%MOMM*%
%LPD*%
G01*
G04 APERTURE LIST*
%TA.AperFunction,Profile*%
%ADD10C,0.050000*%
%TD*%
%ADD11C,0.200000*%
%ADD12C,0.300000*%
G04 APERTURE END LIST*
D10*
X3800000Y-12200000D02*
X3825000Y-12200000D01*
X1750000Y-12200000D02*
X3800000Y-12200000D01*
X11750000Y-12200000D02*
X3825000Y-12200000D01*
X3837500Y-6505000D02*
X4337500Y-6505000D01*
X7912500Y-6505000D02*
X8412500Y-6505000D01*
X4337500Y-6442500D02*
X7912500Y-6442500D01*
X4337500Y-6505000D02*
X4337500Y-6442500D01*
X8412500Y-9155000D02*
X8412500Y-6505000D01*
X7912500Y-6505000D02*
X7912500Y-6442500D01*
X3837500Y-6505000D02*
X3837500Y-9155000D01*
X4337500Y-9155000D02*
X3837500Y-9155000D01*
X7912500Y-9217500D02*
X4337500Y-9217500D01*
X8412500Y-9155000D02*
X7912500Y-9155000D01*
X7912500Y-9155000D02*
X7912500Y-9217500D01*
X4337500Y-9155000D02*
X4337500Y-9217500D01*
X1750000Y-12200000D02*
X1750000Y-1600000D01*
X11750000Y-1600000D02*
X11750000Y-12200000D01*
X1750000Y-1600000D02*
X11750000Y-1600000D01*
D11*
D12*
X2033928Y-12668214D02*
X2033928Y-12368214D01*
X2105357Y-12368214D01*
X2148214Y-12382500D01*
X2176786Y-12411071D01*
X2191071Y-12439643D01*
X2205357Y-12496786D01*
X2205357Y-12539643D01*
X2191071Y-12596786D01*
X2176786Y-12625357D01*
X2148214Y-12653929D01*
X2105357Y-12668214D01*
X2033928Y-12668214D01*
X2333928Y-12668214D02*
X2333928Y-12468214D01*
X2333928Y-12525357D02*
X2348214Y-12496786D01*
X2362500Y-12482500D01*
X2391071Y-12468214D01*
X2419643Y-12468214D01*
X2519643Y-12668214D02*
X2519643Y-12468214D01*
X2519643Y-12368214D02*
X2505357Y-12382500D01*
X2519643Y-12396786D01*
X2533928Y-12382500D01*
X2519643Y-12368214D01*
X2519643Y-12396786D01*
X2705357Y-12668214D02*
X2676786Y-12653929D01*
X2662500Y-12625357D01*
X2662500Y-12368214D01*
X2862500Y-12668214D02*
X2833928Y-12653929D01*
X2819643Y-12625357D01*
X2819643Y-12368214D01*
X3205357Y-12668214D02*
X3205357Y-12368214D01*
X3305357Y-12582500D01*
X3405357Y-12368214D01*
X3405357Y-12668214D01*
X3676786Y-12668214D02*
X3676786Y-12511071D01*
X3662500Y-12482500D01*
X3633928Y-12468214D01*
X3576786Y-12468214D01*
X3548214Y-12482500D01*
X3676786Y-12653929D02*
X3648214Y-12668214D01*
X3576786Y-12668214D01*
X3548214Y-12653929D01*
X3533928Y-12625357D01*
X3533928Y-12596786D01*
X3548214Y-12568214D01*
X3576786Y-12553929D01*
X3648214Y-12553929D01*
X3676786Y-12539643D01*
X3819643Y-12468214D02*
X3819643Y-12768214D01*
X3819643Y-12482500D02*
X3848214Y-12468214D01*
X3905357Y-12468214D01*
X3933928Y-12482500D01*
X3948214Y-12496786D01*
X3962500Y-12525357D01*
X3962500Y-12611071D01*
X3948214Y-12639643D01*
X3933928Y-12653929D01*
X3905357Y-12668214D01*
X3848214Y-12668214D01*
X3819643Y-12653929D01*
X4091071Y-12639643D02*
X4105357Y-12653929D01*
X4091071Y-12668214D01*
X4076786Y-12653929D01*
X4091071Y-12639643D01*
X4091071Y-12668214D01*
X4091071Y-12482500D02*
X4105357Y-12496786D01*
X4091071Y-12511071D01*
X4076786Y-12496786D01*
X4091071Y-12482500D01*
X4091071Y-12511071D01*
M02*
