G04 #@! TF.GenerationSoftware,KiCad,Pcbnew,5.1.10*
G04 #@! TF.CreationDate,2021-05-19T15:41:42-05:00*
G04 #@! TF.ProjectId,Power Board,506f7765-7220-4426-9f61-72642e6b6963,rev?*
G04 #@! TF.SameCoordinates,Original*
G04 #@! TF.FileFunction,Copper,L1,Top*
G04 #@! TF.FilePolarity,Positive*
%FSLAX46Y46*%
G04 Gerber Fmt 4.6, Leading zero omitted, Abs format (unit mm)*
G04 Created by KiCad (PCBNEW 5.1.10) date 2021-05-19 15:41:42*
%MOMM*%
%LPD*%
G01*
G04 APERTURE LIST*
G04 #@! TA.AperFunction,ComponentPad*
%ADD10C,2.600000*%
G04 #@! TD*
G04 #@! TA.AperFunction,ComponentPad*
%ADD11R,2.600000X2.600000*%
G04 #@! TD*
G04 #@! TA.AperFunction,ComponentPad*
%ADD12C,0.500000*%
G04 #@! TD*
G04 #@! TA.AperFunction,ComponentPad*
%ADD13C,5.500000*%
G04 #@! TD*
G04 #@! TA.AperFunction,ComponentPad*
%ADD14R,3.750000X3.750000*%
G04 #@! TD*
G04 #@! TA.AperFunction,ComponentPad*
%ADD15C,2.000000*%
G04 #@! TD*
G04 #@! TA.AperFunction,ComponentPad*
%ADD16O,1.700000X1.700000*%
G04 #@! TD*
G04 #@! TA.AperFunction,ComponentPad*
%ADD17R,1.700000X1.700000*%
G04 #@! TD*
G04 #@! TA.AperFunction,ComponentPad*
%ADD18O,2.000000X1.700000*%
G04 #@! TD*
G04 #@! TA.AperFunction,ComponentPad*
%ADD19O,1.950000X1.700000*%
G04 #@! TD*
G04 #@! TA.AperFunction,ComponentPad*
%ADD20C,0.900000*%
G04 #@! TD*
G04 #@! TA.AperFunction,ComponentPad*
%ADD21C,10.600000*%
G04 #@! TD*
G04 #@! TA.AperFunction,ViaPad*
%ADD22C,0.800000*%
G04 #@! TD*
G04 #@! TA.AperFunction,Conductor*
%ADD23C,1.200000*%
G04 #@! TD*
G04 APERTURE END LIST*
D10*
X94000000Y-87750000D03*
D11*
X89000000Y-87750000D03*
D12*
X75979720Y-105750000D03*
X54020280Y-100729720D03*
X50350000Y-102250000D03*
X50979720Y-103770280D03*
X54020280Y-103770280D03*
X54650000Y-102250000D03*
X52500000Y-104500000D03*
X79020280Y-105729720D03*
X75350000Y-107250000D03*
D13*
X77500000Y-107250000D03*
X52500000Y-102250000D03*
D12*
X77500000Y-105100000D03*
X52500000Y-100100000D03*
X50979720Y-100729720D03*
X77500000Y-109400000D03*
X79650000Y-107250000D03*
D14*
X88750000Y-118250000D03*
X88750000Y-96250000D03*
X41250000Y-118250000D03*
X41250000Y-96250000D03*
D12*
X75979720Y-108750000D03*
X79020280Y-108770280D03*
D13*
X45500000Y-60500000D03*
X75500000Y-44500000D03*
D12*
X45500000Y-62650000D03*
X47650000Y-60500000D03*
X47020280Y-62020280D03*
X43979720Y-62020280D03*
X43350000Y-60500000D03*
X43979720Y-58979720D03*
X45500000Y-58350000D03*
X47020280Y-58979720D03*
X73350000Y-44500000D03*
X77020280Y-42979720D03*
X75500000Y-42350000D03*
X75500000Y-46650000D03*
X73979720Y-42979720D03*
X77650000Y-44500000D03*
X73979720Y-46020280D03*
X77020280Y-46020280D03*
D14*
X81000000Y-43250000D03*
X81000000Y-61750000D03*
X40000000Y-43250000D03*
X40000000Y-61750000D03*
D15*
X39750000Y-23300000D03*
D13*
X46150000Y-37250000D03*
X79350000Y-19750000D03*
D12*
X46150000Y-39350000D03*
X48300000Y-37200000D03*
X47670280Y-38720280D03*
X44629720Y-38720280D03*
X44000000Y-37200000D03*
X44629720Y-35679720D03*
X46150000Y-35050000D03*
X47670280Y-35679720D03*
X77200000Y-19800000D03*
X80870280Y-18279720D03*
X79350000Y-17650000D03*
X79350000Y-21950000D03*
X77829720Y-18279720D03*
X81500000Y-19800000D03*
X77829720Y-21320280D03*
X80870280Y-21320280D03*
D14*
X84850000Y-19000000D03*
X84850000Y-38000000D03*
X40650000Y-19000000D03*
X40650000Y-38000000D03*
D16*
X83520000Y-120500000D03*
D17*
X80980000Y-120500000D03*
D16*
X55580000Y-120500000D03*
X53040000Y-120500000D03*
D17*
X50500000Y-120500000D03*
D16*
X65740000Y-120500000D03*
D17*
X63200000Y-120500000D03*
D16*
X73360000Y-120500000D03*
D17*
X70820000Y-120500000D03*
X68280000Y-120500000D03*
D16*
X78440000Y-120500000D03*
D17*
X75900000Y-120500000D03*
D16*
X60660000Y-120500000D03*
D17*
X58120000Y-120500000D03*
D16*
X108790000Y-51660000D03*
X108790000Y-49120000D03*
X108790000Y-46580000D03*
X108790000Y-44040000D03*
D17*
X108790000Y-41500000D03*
D16*
X106250000Y-51660000D03*
X106250000Y-49120000D03*
X106250000Y-46580000D03*
X106250000Y-44040000D03*
D17*
X106250000Y-41500000D03*
D10*
X107500000Y-58750000D03*
D11*
X107500000Y-63750000D03*
D10*
X107500000Y-68750000D03*
D11*
X107500000Y-73750000D03*
D18*
X92000000Y-32750000D03*
G04 #@! TA.AperFunction,ComponentPad*
G36*
G01*
X91250000Y-29400000D02*
X92750000Y-29400000D01*
G75*
G02*
X93000000Y-29650000I0J-250000D01*
G01*
X93000000Y-30850000D01*
G75*
G02*
X92750000Y-31100000I-250000J0D01*
G01*
X91250000Y-31100000D01*
G75*
G02*
X91000000Y-30850000I0J250000D01*
G01*
X91000000Y-29650000D01*
G75*
G02*
X91250000Y-29400000I250000J0D01*
G01*
G37*
G04 #@! TD.AperFunction*
D10*
X89000000Y-60500000D03*
D11*
X94000000Y-60500000D03*
D10*
X107500000Y-88750000D03*
D11*
X107500000Y-93750000D03*
D10*
X94000000Y-51500000D03*
D11*
X89000000Y-51500000D03*
D19*
X92000000Y-24250000D03*
X92000000Y-21750000D03*
G04 #@! TA.AperFunction,ComponentPad*
G36*
G01*
X91275000Y-18400000D02*
X92725000Y-18400000D01*
G75*
G02*
X92975000Y-18650000I0J-250000D01*
G01*
X92975000Y-19850000D01*
G75*
G02*
X92725000Y-20100000I-250000J0D01*
G01*
X91275000Y-20100000D01*
G75*
G02*
X91025000Y-19850000I0J250000D01*
G01*
X91025000Y-18650000D01*
G75*
G02*
X91275000Y-18400000I250000J0D01*
G01*
G37*
G04 #@! TD.AperFunction*
D20*
X110310749Y-103189251D03*
X107500000Y-102025000D03*
X104689251Y-103189251D03*
X103525000Y-106000000D03*
X104689251Y-108810749D03*
X107500000Y-109975000D03*
X110310749Y-108810749D03*
X111475000Y-106000000D03*
D21*
X107500000Y-106000000D03*
D20*
X110310749Y-23189251D03*
X107500000Y-22025000D03*
X104689251Y-23189251D03*
X103525000Y-26000000D03*
X104689251Y-28810749D03*
X107500000Y-29975000D03*
X110310749Y-28810749D03*
X111475000Y-26000000D03*
D21*
X107500000Y-26000000D03*
D20*
X30310749Y-103189251D03*
X27500000Y-102025000D03*
X24689251Y-103189251D03*
X23525000Y-106000000D03*
X24689251Y-108810749D03*
X27500000Y-109975000D03*
X30310749Y-108810749D03*
X31475000Y-106000000D03*
D21*
X27500000Y-106000000D03*
D20*
X30310749Y-23189251D03*
X27500000Y-22025000D03*
X24689251Y-23189251D03*
X23525000Y-26000000D03*
X24689251Y-28810749D03*
X27500000Y-29975000D03*
X30310749Y-28810749D03*
X31475000Y-26000000D03*
D21*
X27500000Y-26000000D03*
D22*
X95989000Y-104746000D03*
X84934400Y-84738800D03*
X74878600Y-110847200D03*
X38300300Y-54860500D03*
X38631700Y-33862800D03*
X94368700Y-91782600D03*
X86395300Y-61390700D03*
X95503600Y-99063600D03*
X89348800Y-49284100D03*
X71827800Y-113029200D03*
D23*
X107500000Y-88750000D02*
X107500000Y-89958200D01*
X107500000Y-89958200D02*
X95989000Y-101469200D01*
X95989000Y-101469200D02*
X95989000Y-104746000D01*
X87925000Y-19000000D02*
X89338600Y-17586400D01*
X89338600Y-17586400D02*
X93164800Y-17586400D01*
X93164800Y-17586400D02*
X96261100Y-20682700D01*
X96261100Y-20682700D02*
X96261100Y-23448400D01*
X96261100Y-23448400D02*
X105766500Y-32953800D01*
X105766500Y-32953800D02*
X106304800Y-32953800D01*
X106304800Y-32953800D02*
X112442500Y-39091500D01*
X112442500Y-39091500D02*
X112442500Y-83807500D01*
X112442500Y-83807500D02*
X107500000Y-88750000D01*
X84850000Y-19000000D02*
X87925000Y-19000000D01*
X41250000Y-96250000D02*
X53147300Y-96250000D01*
X53147300Y-96250000D02*
X70427500Y-113530200D01*
X70427500Y-113530200D02*
X70427500Y-113609200D01*
X70427500Y-113609200D02*
X71247800Y-114429500D01*
X71247800Y-114429500D02*
X71879500Y-114429500D01*
X71879500Y-114429500D02*
X75900000Y-118450000D01*
X75900000Y-120500000D02*
X75900000Y-118450000D01*
X40650000Y-38000000D02*
X42701400Y-40051400D01*
X42701400Y-40051400D02*
X42701400Y-52445200D01*
X42701400Y-52445200D02*
X38879200Y-56267400D01*
X38879200Y-56267400D02*
X36640200Y-56267400D01*
X36640200Y-56267400D02*
X34524100Y-58383500D01*
X34524100Y-58383500D02*
X34524100Y-96417700D01*
X34524100Y-96417700D02*
X54503800Y-116397400D01*
X54503800Y-116397400D02*
X64177400Y-116397400D01*
X64177400Y-116397400D02*
X68280000Y-120500000D01*
X84934400Y-84738800D02*
X84934400Y-94189000D01*
X84934400Y-94189000D02*
X73478300Y-105645100D01*
X73478300Y-105645100D02*
X73478300Y-113488300D01*
X73478300Y-113488300D02*
X78440000Y-118450000D01*
X78440000Y-120500000D02*
X78440000Y-118450000D01*
X84870800Y-61750000D02*
X84934400Y-61813600D01*
X84934400Y-61813600D02*
X84934400Y-84738800D01*
X106250000Y-49120000D02*
X106250000Y-51660000D01*
X106250000Y-46580000D02*
X106250000Y-49120000D01*
X107500000Y-58750000D02*
X105397300Y-60852700D01*
X105397300Y-60852700D02*
X105397300Y-66647300D01*
X105397300Y-66647300D02*
X107500000Y-68750000D01*
X106250000Y-51660000D02*
X106250000Y-57500000D01*
X106250000Y-57500000D02*
X107500000Y-58750000D01*
X94000000Y-87750000D02*
X94000000Y-82250000D01*
X94000000Y-82250000D02*
X107500000Y-68750000D01*
X89000000Y-60500000D02*
X88490400Y-59990400D01*
X88490400Y-59990400D02*
X85815300Y-59990400D01*
X85815300Y-59990400D02*
X84870800Y-60934900D01*
X84870800Y-60934900D02*
X84870800Y-61750000D01*
X84075000Y-61750000D02*
X84870800Y-61750000D01*
X81000000Y-61750000D02*
X84075000Y-61750000D01*
X106250000Y-44040000D02*
X106250000Y-46580000D01*
X106250000Y-41500000D02*
X106250000Y-44040000D01*
X50500000Y-118450000D02*
X50500000Y-117375400D01*
X50500000Y-117375400D02*
X31720600Y-98596000D01*
X31720600Y-98596000D02*
X31720600Y-54604400D01*
X31720600Y-54604400D02*
X40000000Y-46325000D01*
X50500000Y-120500000D02*
X50500000Y-118450000D01*
X40000000Y-43250000D02*
X40000000Y-46325000D01*
X81139600Y-118840300D02*
X84237700Y-118840300D01*
X84237700Y-118840300D02*
X86322800Y-120925400D01*
X86322800Y-120925400D02*
X90995200Y-120925400D01*
X90995200Y-120925400D02*
X97389400Y-114531200D01*
X97389400Y-114531200D02*
X97389400Y-106360600D01*
X97389400Y-106360600D02*
X107500000Y-96250000D01*
X80980000Y-118999900D02*
X81139600Y-118840300D01*
X74878600Y-110847200D02*
X81139600Y-117108200D01*
X81139600Y-117108200D02*
X81139600Y-118840300D01*
X107500000Y-93750000D02*
X107500000Y-96250000D01*
X80980000Y-120500000D02*
X80980000Y-118999900D01*
X38300300Y-54860500D02*
X36066800Y-54860500D01*
X36066800Y-54860500D02*
X33123800Y-57803500D01*
X33123800Y-57803500D02*
X33123800Y-97053900D01*
X33123800Y-97053900D02*
X54519900Y-118450000D01*
X54519900Y-118450000D02*
X60660000Y-118450000D01*
X60660000Y-120500000D02*
X60660000Y-118450000D01*
X38631700Y-33862800D02*
X30299900Y-42194600D01*
X30299900Y-42194600D02*
X30299900Y-100145700D01*
X30299900Y-100145700D02*
X41250000Y-111095800D01*
X41250000Y-111095800D02*
X41250000Y-115175000D01*
X41250000Y-118250000D02*
X41250000Y-115175000D01*
X94368700Y-91782600D02*
X107500000Y-78651300D01*
X107500000Y-78651300D02*
X107500000Y-73750000D01*
X108790000Y-41500000D02*
X108790000Y-39450000D01*
X108790000Y-39450000D02*
X107067200Y-39450000D01*
X107067200Y-39450000D02*
X96182500Y-28565300D01*
X96182500Y-28565300D02*
X89348000Y-28565300D01*
X89348000Y-28565300D02*
X81000000Y-36913300D01*
X81000000Y-36913300D02*
X81000000Y-43250000D01*
X108790000Y-44040000D02*
X108790000Y-41500000D01*
X108790000Y-51660000D02*
X108790000Y-53710000D01*
X108790000Y-53710000D02*
X109621100Y-54541100D01*
X109621100Y-54541100D02*
X109621100Y-59659300D01*
X109621100Y-59659300D02*
X108030400Y-61250000D01*
X108030400Y-61250000D02*
X107500000Y-61250000D01*
X108790000Y-49120000D02*
X108790000Y-51660000D01*
X107500000Y-63750000D02*
X107500000Y-61250000D01*
X108790000Y-46580000D02*
X108790000Y-49120000D01*
X108790000Y-44040000D02*
X108790000Y-46580000D01*
X88750000Y-93175000D02*
X86395300Y-90820300D01*
X86395300Y-90820300D02*
X86395300Y-61390700D01*
X88750000Y-96250000D02*
X88750000Y-93175000D01*
X88750000Y-118250000D02*
X88750000Y-115175000D01*
X92000000Y-30250000D02*
X90199600Y-32050400D01*
X90199600Y-32050400D02*
X90199600Y-40867100D01*
X90199600Y-40867100D02*
X91425400Y-42092900D01*
X91425400Y-42092900D02*
X91425400Y-112499600D01*
X91425400Y-112499600D02*
X88750000Y-115175000D01*
X92000000Y-21750000D02*
X60163200Y-53586800D01*
X60163200Y-53586800D02*
X43626300Y-53586800D01*
X43626300Y-53586800D02*
X39545400Y-57667700D01*
X39545400Y-57667700D02*
X37220200Y-57667700D01*
X37220200Y-57667700D02*
X35924400Y-58963500D01*
X35924400Y-58963500D02*
X35924400Y-95837700D01*
X35924400Y-95837700D02*
X54275800Y-114189100D01*
X54275800Y-114189100D02*
X69027200Y-114189100D01*
X69027200Y-114189100D02*
X69027200Y-114189200D01*
X69027200Y-114189200D02*
X73288000Y-118450000D01*
X73288000Y-118450000D02*
X73360000Y-118450000D01*
X73360000Y-120500000D02*
X73360000Y-118450000D01*
X94175000Y-24250000D02*
X107616900Y-37691900D01*
X107616900Y-37691900D02*
X109051300Y-37691900D01*
X109051300Y-37691900D02*
X111042100Y-39682700D01*
X111042100Y-39682700D02*
X111042100Y-78177100D01*
X111042100Y-78177100D02*
X95503600Y-93715600D01*
X95503600Y-93715600D02*
X95503600Y-99063600D01*
X92000000Y-19250000D02*
X94175000Y-21425000D01*
X94175000Y-21425000D02*
X94175000Y-24250000D01*
X92000000Y-24250000D02*
X94175000Y-24250000D01*
X71827800Y-113029200D02*
X71827800Y-112941800D01*
X71827800Y-112941800D02*
X52138000Y-93252000D01*
X52138000Y-93252000D02*
X38945200Y-93252000D01*
X38945200Y-93252000D02*
X37324700Y-91631500D01*
X37324700Y-91631500D02*
X37324700Y-59543500D01*
X37324700Y-59543500D02*
X37793600Y-59074600D01*
X37793600Y-59074600D02*
X40311500Y-59074600D01*
X40311500Y-59074600D02*
X43622900Y-55763200D01*
X43622900Y-55763200D02*
X74891600Y-55763200D01*
X74891600Y-55763200D02*
X81370700Y-49284100D01*
X81370700Y-49284100D02*
X89348800Y-49284100D01*
M02*
