G04 #@! TF.GenerationSoftware,KiCad,Pcbnew,5.1.10*
G04 #@! TF.CreationDate,2021-07-21T04:13:33-05:00*
G04 #@! TF.ProjectId,Power Board,506f7765-7220-4426-9f61-72642e6b6963,rev?*
G04 #@! TF.SameCoordinates,Original*
G04 #@! TF.FileFunction,Copper,L2,Bot*
G04 #@! TF.FilePolarity,Positive*
%FSLAX46Y46*%
G04 Gerber Fmt 4.6, Leading zero omitted, Abs format (unit mm)*
G04 Created by KiCad (PCBNEW 5.1.10) date 2021-07-21 04:13:33*
%MOMM*%
%LPD*%
G01*
G04 APERTURE LIST*
G04 #@! TA.AperFunction,ComponentPad*
%ADD10O,1.700000X1.700000*%
G04 #@! TD*
G04 #@! TA.AperFunction,ComponentPad*
%ADD11R,1.700000X1.700000*%
G04 #@! TD*
G04 #@! TA.AperFunction,ComponentPad*
%ADD12C,10.600000*%
G04 #@! TD*
G04 #@! TA.AperFunction,ComponentPad*
%ADD13C,0.900000*%
G04 #@! TD*
G04 #@! TA.AperFunction,ComponentPad*
%ADD14C,2.600000*%
G04 #@! TD*
G04 #@! TA.AperFunction,ComponentPad*
%ADD15R,2.600000X2.600000*%
G04 #@! TD*
G04 #@! TA.AperFunction,ComponentPad*
%ADD16O,2.000000X1.700000*%
G04 #@! TD*
G04 #@! TA.AperFunction,ComponentPad*
%ADD17R,3.750000X3.750000*%
G04 #@! TD*
G04 #@! TA.AperFunction,ComponentPad*
%ADD18C,0.500000*%
G04 #@! TD*
G04 #@! TA.AperFunction,ComponentPad*
%ADD19C,5.500000*%
G04 #@! TD*
G04 #@! TA.AperFunction,ComponentPad*
%ADD20C,2.000000*%
G04 #@! TD*
G04 #@! TA.AperFunction,ComponentPad*
%ADD21O,1.950000X1.700000*%
G04 #@! TD*
G04 #@! TA.AperFunction,ViaPad*
%ADD22C,0.800000*%
G04 #@! TD*
G04 #@! TA.AperFunction,Conductor*
%ADD23C,1.200000*%
G04 #@! TD*
G04 APERTURE END LIST*
D10*
X108790000Y-52120000D03*
X106250000Y-52120000D03*
X108790000Y-49580000D03*
X106250000Y-49580000D03*
X108790000Y-47040000D03*
X106250000Y-47040000D03*
X108790000Y-44500000D03*
X106250000Y-44500000D03*
X108790000Y-41960000D03*
D11*
X106250000Y-41960000D03*
D12*
X107500000Y-26000000D03*
D13*
X111475000Y-26000000D03*
X110310749Y-28810749D03*
X107500000Y-29975000D03*
X104689251Y-28810749D03*
X103525000Y-26000000D03*
X104689251Y-23189251D03*
X107500000Y-22025000D03*
X110310749Y-23189251D03*
D14*
X107500000Y-58750000D03*
D15*
X107500000Y-63750000D03*
D12*
X107500000Y-118000000D03*
D13*
X111475000Y-118000000D03*
X110310749Y-120810749D03*
X107500000Y-121975000D03*
X104689251Y-120810749D03*
X103525000Y-118000000D03*
X104689251Y-115189251D03*
X107500000Y-114025000D03*
X110310749Y-115189251D03*
D16*
X42750000Y-67250000D03*
G04 #@! TA.AperFunction,ComponentPad*
G36*
G01*
X42000000Y-63900000D02*
X43500000Y-63900000D01*
G75*
G02*
X43750000Y-64150000I0J-250000D01*
G01*
X43750000Y-65350000D01*
G75*
G02*
X43500000Y-65600000I-250000J0D01*
G01*
X42000000Y-65600000D01*
G75*
G02*
X41750000Y-65350000I0J250000D01*
G01*
X41750000Y-64150000D01*
G75*
G02*
X42000000Y-63900000I250000J0D01*
G01*
G37*
G04 #@! TD.AperFunction*
D10*
X80360000Y-126250000D03*
X77820000Y-126250000D03*
X75280000Y-126250000D03*
X72740000Y-126250000D03*
X70200000Y-126250000D03*
X67660000Y-126250000D03*
X65120000Y-126250000D03*
X62580000Y-126250000D03*
X60040000Y-126250000D03*
D11*
X57500000Y-126250000D03*
D17*
X93850000Y-48500000D03*
X93850000Y-67500000D03*
X49650000Y-48500000D03*
X49650000Y-67500000D03*
D18*
X53629720Y-65179720D03*
X56670280Y-65179720D03*
X53000000Y-66700000D03*
X56670280Y-68220280D03*
X55150000Y-64550000D03*
X55150000Y-68850000D03*
X53629720Y-68220280D03*
X57300000Y-66700000D03*
X86829720Y-50820280D03*
X88350000Y-51450000D03*
X89870280Y-50820280D03*
X90500000Y-49300000D03*
X89870280Y-47779720D03*
X86829720Y-47779720D03*
X86200000Y-49300000D03*
X88350000Y-47150000D03*
D19*
X55150000Y-66750000D03*
X88350000Y-49250000D03*
D20*
X94750000Y-63200000D03*
D12*
X27500000Y-26000000D03*
D13*
X31475000Y-26000000D03*
X30310749Y-28810749D03*
X27500000Y-29975000D03*
X24689251Y-28810749D03*
X23525000Y-26000000D03*
X24689251Y-23189251D03*
X27500000Y-22025000D03*
X30310749Y-23189251D03*
D12*
X27500000Y-118000000D03*
D13*
X31475000Y-118000000D03*
X30310749Y-120810749D03*
X27500000Y-121975000D03*
X24689251Y-120810749D03*
X23525000Y-118000000D03*
X24689251Y-115189251D03*
X27500000Y-114025000D03*
X30310749Y-115189251D03*
D14*
X107500000Y-88750000D03*
D15*
X107500000Y-93750000D03*
D14*
X41750000Y-81900000D03*
D15*
X46750000Y-81900000D03*
D18*
X78479720Y-29000000D03*
X56520280Y-23979720D03*
X52850000Y-25500000D03*
X53479720Y-27020280D03*
X56520280Y-27020280D03*
X57150000Y-25500000D03*
X55000000Y-27750000D03*
X81520280Y-28979720D03*
X77850000Y-30500000D03*
D19*
X80000000Y-30500000D03*
X55000000Y-25500000D03*
D18*
X80000000Y-28350000D03*
X55000000Y-23350000D03*
X53479720Y-23979720D03*
X80000000Y-32650000D03*
X82150000Y-30500000D03*
D17*
X91250000Y-41500000D03*
X91250000Y-19500000D03*
X43750000Y-41500000D03*
X43750000Y-19500000D03*
D18*
X78479720Y-32000000D03*
X81520280Y-32020280D03*
D14*
X107500000Y-68750000D03*
D15*
X107500000Y-73750000D03*
D17*
X53000000Y-120750000D03*
X53000000Y-102250000D03*
X94000000Y-120750000D03*
X94000000Y-102250000D03*
D18*
X90020280Y-105020280D03*
X86979720Y-105020280D03*
X90650000Y-103500000D03*
X86979720Y-101979720D03*
X88500000Y-105650000D03*
X88500000Y-101350000D03*
X90020280Y-101979720D03*
X86350000Y-103500000D03*
X60020280Y-117979720D03*
X58500000Y-117350000D03*
X56979720Y-117979720D03*
X56350000Y-119500000D03*
X56979720Y-121020280D03*
X60020280Y-121020280D03*
X60650000Y-119500000D03*
X58500000Y-121650000D03*
D19*
X88500000Y-103500000D03*
X58500000Y-119500000D03*
D21*
X42750000Y-55750000D03*
X42750000Y-53250000D03*
G04 #@! TA.AperFunction,ComponentPad*
G36*
G01*
X42025000Y-49900000D02*
X43475000Y-49900000D01*
G75*
G02*
X43725000Y-50150000I0J-250000D01*
G01*
X43725000Y-51350000D01*
G75*
G02*
X43475000Y-51600000I-250000J0D01*
G01*
X42025000Y-51600000D01*
G75*
G02*
X41775000Y-51350000I0J250000D01*
G01*
X41775000Y-50150000D01*
G75*
G02*
X42025000Y-49900000I250000J0D01*
G01*
G37*
G04 #@! TD.AperFunction*
D22*
X68232900Y-119601900D03*
X43156300Y-88919400D03*
X41371700Y-100960400D03*
X73035300Y-124286200D03*
D23*
X65120000Y-126250000D02*
X65120000Y-122714800D01*
X65120000Y-122714800D02*
X68232900Y-119601900D01*
X42750000Y-67250000D02*
X40550000Y-67250000D01*
X40550000Y-67250000D02*
X40550000Y-64085000D01*
X40550000Y-64085000D02*
X85135000Y-19500000D01*
X85135000Y-19500000D02*
X91250000Y-19500000D01*
X91250000Y-41500000D02*
X66000000Y-41500000D01*
X66000000Y-41500000D02*
X42750000Y-64750000D01*
X106250000Y-52120000D02*
X106250000Y-54170000D01*
X107500000Y-63750000D02*
X107500000Y-61250000D01*
X107500000Y-61250000D02*
X106965600Y-61250000D01*
X106965600Y-61250000D02*
X105362800Y-59647200D01*
X105362800Y-59647200D02*
X105362800Y-55057200D01*
X105362800Y-55057200D02*
X106250000Y-54170000D01*
X43156300Y-88919400D02*
X43512300Y-88919400D01*
X43512300Y-88919400D02*
X49650000Y-82781700D01*
X49650000Y-82781700D02*
X49650000Y-67500000D01*
X92928000Y-67500000D02*
X93223000Y-67500000D01*
X93223000Y-67500000D02*
X107500000Y-81777000D01*
X107500000Y-81777000D02*
X107500000Y-88750000D01*
X92928000Y-67500000D02*
X90775000Y-67500000D01*
X93850000Y-67500000D02*
X92928000Y-67500000D01*
X49650000Y-67500000D02*
X49650000Y-64425000D01*
X49650000Y-64425000D02*
X50913900Y-63161100D01*
X50913900Y-63161100D02*
X86436100Y-63161100D01*
X86436100Y-63161100D02*
X90775000Y-67500000D01*
X42750000Y-50750000D02*
X44572300Y-52572300D01*
X44572300Y-52572300D02*
X44572300Y-53927700D01*
X44572300Y-53927700D02*
X42750000Y-55750000D01*
X41371700Y-100960400D02*
X49933700Y-109522400D01*
X49933700Y-109522400D02*
X60602400Y-109522400D01*
X60602400Y-109522400D02*
X75280000Y-124200000D01*
X75280000Y-126250000D02*
X75280000Y-124200000D01*
X49650000Y-48500000D02*
X46575000Y-48500000D01*
X43750000Y-41500000D02*
X43750000Y-44575000D01*
X43750000Y-44575000D02*
X46575000Y-47400000D01*
X46575000Y-47400000D02*
X46575000Y-48500000D01*
X94000000Y-102250000D02*
X94000000Y-105325000D01*
X77820000Y-119365100D02*
X73190100Y-119365100D01*
X73190100Y-119365100D02*
X56075000Y-102250000D01*
X94000000Y-105325000D02*
X91860100Y-105325000D01*
X91860100Y-105325000D02*
X77820000Y-119365100D01*
X77820000Y-119365100D02*
X77820000Y-124200000D01*
X53000000Y-102250000D02*
X56075000Y-102250000D01*
X41750000Y-81900000D02*
X41750000Y-91000000D01*
X41750000Y-91000000D02*
X53000000Y-102250000D01*
X94000000Y-102250000D02*
X97075000Y-102250000D01*
X109250300Y-66999700D02*
X109606200Y-67355600D01*
X109606200Y-67355600D02*
X109606200Y-89663800D01*
X109606200Y-89663800D02*
X107620400Y-91649600D01*
X107620400Y-91649600D02*
X105781400Y-91649600D01*
X105781400Y-91649600D02*
X97075000Y-100356000D01*
X97075000Y-100356000D02*
X97075000Y-102250000D01*
X109250300Y-66999700D02*
X109600400Y-66649600D01*
X109600400Y-66649600D02*
X109600400Y-60850400D01*
X109600400Y-60850400D02*
X107500000Y-58750000D01*
X107500000Y-68750000D02*
X109250300Y-66999700D01*
X77820000Y-126250000D02*
X77820000Y-124200000D01*
X53000000Y-120750000D02*
X56588100Y-124338100D01*
X56588100Y-124338100D02*
X60668100Y-124338100D01*
X60668100Y-124338100D02*
X62580000Y-126250000D01*
X46750000Y-81900000D02*
X44250000Y-81900000D01*
X44250000Y-81900000D02*
X44250000Y-81369700D01*
X44250000Y-81369700D02*
X42659700Y-79779400D01*
X42659700Y-79779400D02*
X40893500Y-79779400D01*
X40893500Y-79779400D02*
X39640000Y-81032900D01*
X39640000Y-81032900D02*
X39640000Y-112311500D01*
X39640000Y-112311500D02*
X53578500Y-126250000D01*
X53578500Y-126250000D02*
X57500000Y-126250000D01*
X70200000Y-126250000D02*
X72163800Y-124286200D01*
X72163800Y-124286200D02*
X73035300Y-124286200D01*
X80360000Y-126250000D02*
X80360000Y-124200000D01*
X80360000Y-124200000D02*
X107500000Y-97060000D01*
X107500000Y-97060000D02*
X107500000Y-93750000D01*
M02*
