G04 #@! TF.GenerationSoftware,KiCad,Pcbnew,5.1.10*
G04 #@! TF.CreationDate,2021-07-21T04:13:33-05:00*
G04 #@! TF.ProjectId,Power Board,506f7765-7220-4426-9f61-72642e6b6963,rev?*
G04 #@! TF.SameCoordinates,Original*
G04 #@! TF.FileFunction,Legend,Top*
G04 #@! TF.FilePolarity,Positive*
%FSLAX46Y46*%
G04 Gerber Fmt 4.6, Leading zero omitted, Abs format (unit mm)*
G04 Created by KiCad (PCBNEW 5.1.10) date 2021-07-21 04:13:33*
%MOMM*%
%LPD*%
G01*
G04 APERTURE LIST*
%ADD10C,0.120000*%
%ADD11C,0.150000*%
%ADD12C,0.200000*%
%ADD13O,1.700000X1.700000*%
%ADD14R,1.700000X1.700000*%
%ADD15C,10.600000*%
%ADD16C,0.900000*%
%ADD17C,2.600000*%
%ADD18R,2.600000X2.600000*%
%ADD19O,2.000000X1.700000*%
%ADD20R,3.750000X3.750000*%
%ADD21C,5.500000*%
%ADD22C,2.000000*%
%ADD23O,1.950000X1.700000*%
G04 APERTURE END LIST*
D10*
X117000000Y-55750000D02*
X115000000Y-55750000D01*
X117000000Y-76750000D02*
X117000000Y-55750000D01*
X115000000Y-76750000D02*
X117000000Y-76750000D01*
X115000000Y-66250000D02*
X113000000Y-66250000D01*
X115000000Y-55750000D02*
X113000000Y-55750000D01*
X115000000Y-76750000D02*
X115000000Y-55750000D01*
X113000000Y-76750000D02*
X115000000Y-76750000D01*
D11*
X113452380Y-95273809D02*
X114452380Y-94940476D01*
X113452380Y-94607142D01*
X114452380Y-94130952D02*
X114404761Y-94226190D01*
X114357142Y-94273809D01*
X114261904Y-94321428D01*
X113976190Y-94321428D01*
X113880952Y-94273809D01*
X113833333Y-94226190D01*
X113785714Y-94130952D01*
X113785714Y-93988095D01*
X113833333Y-93892857D01*
X113880952Y-93845238D01*
X113976190Y-93797619D01*
X114261904Y-93797619D01*
X114357142Y-93845238D01*
X114404761Y-93892857D01*
X114452380Y-93988095D01*
X114452380Y-94130952D01*
X113785714Y-92940476D02*
X114452380Y-92940476D01*
X113785714Y-93369047D02*
X114309523Y-93369047D01*
X114404761Y-93321428D01*
X114452380Y-93226190D01*
X114452380Y-93083333D01*
X114404761Y-92988095D01*
X114357142Y-92940476D01*
X113785714Y-92607142D02*
X113785714Y-92226190D01*
X113452380Y-92464285D02*
X114309523Y-92464285D01*
X114404761Y-92416666D01*
X114452380Y-92321428D01*
X114452380Y-92226190D01*
X113500000Y-89511904D02*
X113452380Y-89607142D01*
X113452380Y-89750000D01*
X113500000Y-89892857D01*
X113595238Y-89988095D01*
X113690476Y-90035714D01*
X113880952Y-90083333D01*
X114023809Y-90083333D01*
X114214285Y-90035714D01*
X114309523Y-89988095D01*
X114404761Y-89892857D01*
X114452380Y-89750000D01*
X114452380Y-89654761D01*
X114404761Y-89511904D01*
X114357142Y-89464285D01*
X114023809Y-89464285D01*
X114023809Y-89654761D01*
X114452380Y-89035714D02*
X113452380Y-89035714D01*
X114452380Y-88464285D01*
X113452380Y-88464285D01*
X114452380Y-87988095D02*
X113452380Y-87988095D01*
X113452380Y-87750000D01*
X113500000Y-87607142D01*
X113595238Y-87511904D01*
X113690476Y-87464285D01*
X113880952Y-87416666D01*
X114023809Y-87416666D01*
X114214285Y-87464285D01*
X114309523Y-87511904D01*
X114404761Y-87607142D01*
X114452380Y-87750000D01*
X114452380Y-87988095D01*
X114452380Y-74369047D02*
X114452380Y-74940476D01*
X114452380Y-74654761D02*
X113452380Y-74654761D01*
X113595238Y-74750000D01*
X113690476Y-74845238D01*
X113738095Y-74940476D01*
X113547619Y-73988095D02*
X113500000Y-73940476D01*
X113452380Y-73845238D01*
X113452380Y-73607142D01*
X113500000Y-73511904D01*
X113547619Y-73464285D01*
X113642857Y-73416666D01*
X113738095Y-73416666D01*
X113880952Y-73464285D01*
X114452380Y-74035714D01*
X114452380Y-73416666D01*
X113452380Y-73130952D02*
X114452380Y-72797619D01*
X113452380Y-72464285D01*
X113500000Y-69511904D02*
X113452380Y-69607142D01*
X113452380Y-69750000D01*
X113500000Y-69892857D01*
X113595238Y-69988095D01*
X113690476Y-70035714D01*
X113880952Y-70083333D01*
X114023809Y-70083333D01*
X114214285Y-70035714D01*
X114309523Y-69988095D01*
X114404761Y-69892857D01*
X114452380Y-69750000D01*
X114452380Y-69654761D01*
X114404761Y-69511904D01*
X114357142Y-69464285D01*
X114023809Y-69464285D01*
X114023809Y-69654761D01*
X114452380Y-69035714D02*
X113452380Y-69035714D01*
X114452380Y-68464285D01*
X113452380Y-68464285D01*
X114452380Y-67988095D02*
X113452380Y-67988095D01*
X113452380Y-67750000D01*
X113500000Y-67607142D01*
X113595238Y-67511904D01*
X113690476Y-67464285D01*
X113880952Y-67416666D01*
X114023809Y-67416666D01*
X114214285Y-67464285D01*
X114309523Y-67511904D01*
X114404761Y-67607142D01*
X114452380Y-67750000D01*
X114452380Y-67988095D01*
X113500000Y-59511904D02*
X113452380Y-59607142D01*
X113452380Y-59750000D01*
X113500000Y-59892857D01*
X113595238Y-59988095D01*
X113690476Y-60035714D01*
X113880952Y-60083333D01*
X114023809Y-60083333D01*
X114214285Y-60035714D01*
X114309523Y-59988095D01*
X114404761Y-59892857D01*
X114452380Y-59750000D01*
X114452380Y-59654761D01*
X114404761Y-59511904D01*
X114357142Y-59464285D01*
X114023809Y-59464285D01*
X114023809Y-59654761D01*
X114452380Y-59035714D02*
X113452380Y-59035714D01*
X114452380Y-58464285D01*
X113452380Y-58464285D01*
X114452380Y-57988095D02*
X113452380Y-57988095D01*
X113452380Y-57750000D01*
X113500000Y-57607142D01*
X113595238Y-57511904D01*
X113690476Y-57464285D01*
X113880952Y-57416666D01*
X114023809Y-57416666D01*
X114214285Y-57464285D01*
X114309523Y-57511904D01*
X114404761Y-57607142D01*
X114452380Y-57750000D01*
X114452380Y-57988095D01*
X113452380Y-63940476D02*
X113452380Y-64416666D01*
X113928571Y-64464285D01*
X113880952Y-64416666D01*
X113833333Y-64321428D01*
X113833333Y-64083333D01*
X113880952Y-63988095D01*
X113928571Y-63940476D01*
X114023809Y-63892857D01*
X114261904Y-63892857D01*
X114357142Y-63940476D01*
X114404761Y-63988095D01*
X114452380Y-64083333D01*
X114452380Y-64321428D01*
X114404761Y-64416666D01*
X114357142Y-64464285D01*
X113452380Y-63607142D02*
X114452380Y-63273809D01*
X113452380Y-62940476D01*
X105702380Y-39190476D02*
X105702380Y-39666666D01*
X106178571Y-39714285D01*
X106130952Y-39666666D01*
X106083333Y-39571428D01*
X106083333Y-39333333D01*
X106130952Y-39238095D01*
X106178571Y-39190476D01*
X106273809Y-39142857D01*
X106511904Y-39142857D01*
X106607142Y-39190476D01*
X106654761Y-39238095D01*
X106702380Y-39333333D01*
X106702380Y-39571428D01*
X106654761Y-39666666D01*
X106607142Y-39714285D01*
X105702380Y-38857142D02*
X106702380Y-38523809D01*
X105702380Y-38190476D01*
X108500000Y-39261904D02*
X108452380Y-39357142D01*
X108452380Y-39500000D01*
X108500000Y-39642857D01*
X108595238Y-39738095D01*
X108690476Y-39785714D01*
X108880952Y-39833333D01*
X109023809Y-39833333D01*
X109214285Y-39785714D01*
X109309523Y-39738095D01*
X109404761Y-39642857D01*
X109452380Y-39500000D01*
X109452380Y-39404761D01*
X109404761Y-39261904D01*
X109357142Y-39214285D01*
X109023809Y-39214285D01*
X109023809Y-39404761D01*
X109452380Y-38785714D02*
X108452380Y-38785714D01*
X109452380Y-38214285D01*
X108452380Y-38214285D01*
X109452380Y-37738095D02*
X108452380Y-37738095D01*
X108452380Y-37500000D01*
X108500000Y-37357142D01*
X108595238Y-37261904D01*
X108690476Y-37214285D01*
X108880952Y-37166666D01*
X109023809Y-37166666D01*
X109214285Y-37214285D01*
X109309523Y-37261904D01*
X109404761Y-37357142D01*
X109452380Y-37500000D01*
X109452380Y-37738095D01*
D10*
X97500000Y-128000000D02*
X97500000Y-16000000D01*
X37500000Y-16000000D02*
X37500000Y-128000000D01*
D12*
X99952380Y-125527976D02*
X99476190Y-125527976D01*
X99476190Y-124277976D01*
X100285714Y-124873214D02*
X100619047Y-124873214D01*
X100761904Y-125527976D02*
X100285714Y-125527976D01*
X100285714Y-124277976D01*
X100761904Y-124277976D01*
X101047619Y-124277976D02*
X101619047Y-124277976D01*
X101333333Y-125527976D02*
X101333333Y-124277976D01*
X101952380Y-124277976D02*
X101952380Y-125289880D01*
X102000000Y-125408928D01*
X102047619Y-125468452D01*
X102142857Y-125527976D01*
X102333333Y-125527976D01*
X102428571Y-125468452D01*
X102476190Y-125408928D01*
X102523809Y-125289880D01*
X102523809Y-124277976D01*
X103761904Y-125527976D02*
X103761904Y-124277976D01*
X104238095Y-124873214D02*
X104571428Y-124873214D01*
X104714285Y-125527976D02*
X104238095Y-125527976D01*
X104238095Y-124277976D01*
X104714285Y-124277976D01*
X105142857Y-125527976D02*
X105142857Y-124277976D01*
X105523809Y-124277976D01*
X105619047Y-124337500D01*
X105666666Y-124397023D01*
X105714285Y-124516071D01*
X105714285Y-124694642D01*
X105666666Y-124813690D01*
X105619047Y-124873214D01*
X105523809Y-124932738D01*
X105142857Y-124932738D01*
X107428571Y-125527976D02*
X106857142Y-125527976D01*
X107142857Y-125527976D02*
X107142857Y-124277976D01*
X107047619Y-124456547D01*
X106952380Y-124575595D01*
X106857142Y-124635119D01*
X108952380Y-124873214D02*
X108619047Y-124873214D01*
X108619047Y-125527976D02*
X108619047Y-124277976D01*
X109095238Y-124277976D01*
X109904761Y-125527976D02*
X109904761Y-124873214D01*
X109857142Y-124754166D01*
X109761904Y-124694642D01*
X109571428Y-124694642D01*
X109476190Y-124754166D01*
X109904761Y-125468452D02*
X109809523Y-125527976D01*
X109571428Y-125527976D01*
X109476190Y-125468452D01*
X109428571Y-125349404D01*
X109428571Y-125230357D01*
X109476190Y-125111309D01*
X109571428Y-125051785D01*
X109809523Y-125051785D01*
X109904761Y-124992261D01*
X110523809Y-125527976D02*
X110428571Y-125468452D01*
X110380952Y-125349404D01*
X110380952Y-124277976D01*
X111047619Y-125527976D02*
X110952380Y-125468452D01*
X110904761Y-125349404D01*
X110904761Y-124277976D01*
X112142857Y-124397023D02*
X112190476Y-124337500D01*
X112285714Y-124277976D01*
X112523809Y-124277976D01*
X112619047Y-124337500D01*
X112666666Y-124397023D01*
X112714285Y-124516071D01*
X112714285Y-124635119D01*
X112666666Y-124813690D01*
X112095238Y-125527976D01*
X112714285Y-125527976D01*
X113333333Y-124277976D02*
X113428571Y-124277976D01*
X113523809Y-124337500D01*
X113571428Y-124397023D01*
X113619047Y-124516071D01*
X113666666Y-124754166D01*
X113666666Y-125051785D01*
X113619047Y-125289880D01*
X113571428Y-125408928D01*
X113523809Y-125468452D01*
X113428571Y-125527976D01*
X113333333Y-125527976D01*
X113238095Y-125468452D01*
X113190476Y-125408928D01*
X113142857Y-125289880D01*
X113095238Y-125051785D01*
X113095238Y-124754166D01*
X113142857Y-124516071D01*
X113190476Y-124397023D01*
X113238095Y-124337500D01*
X113333333Y-124277976D01*
X114047619Y-124397023D02*
X114095238Y-124337500D01*
X114190476Y-124277976D01*
X114428571Y-124277976D01*
X114523809Y-124337500D01*
X114571428Y-124397023D01*
X114619047Y-124516071D01*
X114619047Y-124635119D01*
X114571428Y-124813690D01*
X114000000Y-125527976D01*
X114619047Y-125527976D01*
X115571428Y-125527976D02*
X115000000Y-125527976D01*
X115285714Y-125527976D02*
X115285714Y-124277976D01*
X115190476Y-124456547D01*
X115095238Y-124575595D01*
X115000000Y-124635119D01*
X100023809Y-127602976D02*
X100023809Y-126352976D01*
X100404761Y-126352976D01*
X100500000Y-126412500D01*
X100547619Y-126472023D01*
X100595238Y-126591071D01*
X100595238Y-126769642D01*
X100547619Y-126888690D01*
X100500000Y-126948214D01*
X100404761Y-127007738D01*
X100023809Y-127007738D01*
X101166666Y-127602976D02*
X101071428Y-127543452D01*
X101023809Y-127483928D01*
X100976190Y-127364880D01*
X100976190Y-127007738D01*
X101023809Y-126888690D01*
X101071428Y-126829166D01*
X101166666Y-126769642D01*
X101309523Y-126769642D01*
X101404761Y-126829166D01*
X101452380Y-126888690D01*
X101500000Y-127007738D01*
X101500000Y-127364880D01*
X101452380Y-127483928D01*
X101404761Y-127543452D01*
X101309523Y-127602976D01*
X101166666Y-127602976D01*
X101833333Y-126769642D02*
X102023809Y-127602976D01*
X102214285Y-127007738D01*
X102404761Y-127602976D01*
X102595238Y-126769642D01*
X103357142Y-127543452D02*
X103261904Y-127602976D01*
X103071428Y-127602976D01*
X102976190Y-127543452D01*
X102928571Y-127424404D01*
X102928571Y-126948214D01*
X102976190Y-126829166D01*
X103071428Y-126769642D01*
X103261904Y-126769642D01*
X103357142Y-126829166D01*
X103404761Y-126948214D01*
X103404761Y-127067261D01*
X102928571Y-127186309D01*
X103833333Y-127602976D02*
X103833333Y-126769642D01*
X103833333Y-127007738D02*
X103880952Y-126888690D01*
X103928571Y-126829166D01*
X104023809Y-126769642D01*
X104119047Y-126769642D01*
X105547619Y-126948214D02*
X105690476Y-127007738D01*
X105738095Y-127067261D01*
X105785714Y-127186309D01*
X105785714Y-127364880D01*
X105738095Y-127483928D01*
X105690476Y-127543452D01*
X105595238Y-127602976D01*
X105214285Y-127602976D01*
X105214285Y-126352976D01*
X105547619Y-126352976D01*
X105642857Y-126412500D01*
X105690476Y-126472023D01*
X105738095Y-126591071D01*
X105738095Y-126710119D01*
X105690476Y-126829166D01*
X105642857Y-126888690D01*
X105547619Y-126948214D01*
X105214285Y-126948214D01*
X106357142Y-127602976D02*
X106261904Y-127543452D01*
X106214285Y-127483928D01*
X106166666Y-127364880D01*
X106166666Y-127007738D01*
X106214285Y-126888690D01*
X106261904Y-126829166D01*
X106357142Y-126769642D01*
X106500000Y-126769642D01*
X106595238Y-126829166D01*
X106642857Y-126888690D01*
X106690476Y-127007738D01*
X106690476Y-127364880D01*
X106642857Y-127483928D01*
X106595238Y-127543452D01*
X106500000Y-127602976D01*
X106357142Y-127602976D01*
X107547619Y-127602976D02*
X107547619Y-126948214D01*
X107500000Y-126829166D01*
X107404761Y-126769642D01*
X107214285Y-126769642D01*
X107119047Y-126829166D01*
X107547619Y-127543452D02*
X107452380Y-127602976D01*
X107214285Y-127602976D01*
X107119047Y-127543452D01*
X107071428Y-127424404D01*
X107071428Y-127305357D01*
X107119047Y-127186309D01*
X107214285Y-127126785D01*
X107452380Y-127126785D01*
X107547619Y-127067261D01*
X108023809Y-127602976D02*
X108023809Y-126769642D01*
X108023809Y-127007738D02*
X108071428Y-126888690D01*
X108119047Y-126829166D01*
X108214285Y-126769642D01*
X108309523Y-126769642D01*
X109071428Y-127602976D02*
X109071428Y-126352976D01*
X109071428Y-127543452D02*
X108976190Y-127602976D01*
X108785714Y-127602976D01*
X108690476Y-127543452D01*
X108642857Y-127483928D01*
X108595238Y-127364880D01*
X108595238Y-127007738D01*
X108642857Y-126888690D01*
X108690476Y-126829166D01*
X108785714Y-126769642D01*
X108976190Y-126769642D01*
X109071428Y-126829166D01*
X110309523Y-127126785D02*
X111071428Y-127126785D01*
X112214285Y-126769642D02*
X112452380Y-127602976D01*
X112690476Y-126769642D01*
X113261904Y-126352976D02*
X113357142Y-126352976D01*
X113452380Y-126412500D01*
X113500000Y-126472023D01*
X113547619Y-126591071D01*
X113595238Y-126829166D01*
X113595238Y-127126785D01*
X113547619Y-127364880D01*
X113500000Y-127483928D01*
X113452380Y-127543452D01*
X113357142Y-127602976D01*
X113261904Y-127602976D01*
X113166666Y-127543452D01*
X113119047Y-127483928D01*
X113071428Y-127364880D01*
X113023809Y-127126785D01*
X113023809Y-126829166D01*
X113071428Y-126591071D01*
X113119047Y-126472023D01*
X113166666Y-126412500D01*
X113261904Y-126352976D01*
X114023809Y-127483928D02*
X114071428Y-127543452D01*
X114023809Y-127602976D01*
X113976190Y-127543452D01*
X114023809Y-127483928D01*
X114023809Y-127602976D01*
X114976190Y-126352976D02*
X114500000Y-126352976D01*
X114452380Y-126948214D01*
X114500000Y-126888690D01*
X114595238Y-126829166D01*
X114833333Y-126829166D01*
X114928571Y-126888690D01*
X114976190Y-126948214D01*
X115023809Y-127067261D01*
X115023809Y-127364880D01*
X114976190Y-127483928D01*
X114928571Y-127543452D01*
X114833333Y-127602976D01*
X114595238Y-127602976D01*
X114500000Y-127543452D01*
X114452380Y-127483928D01*
D11*
X116452380Y-95654761D02*
X115452380Y-95654761D01*
X115452380Y-95416666D01*
X115500000Y-95273809D01*
X115595238Y-95178571D01*
X115690476Y-95130952D01*
X115880952Y-95083333D01*
X116023809Y-95083333D01*
X116214285Y-95130952D01*
X116309523Y-95178571D01*
X116404761Y-95273809D01*
X116452380Y-95416666D01*
X116452380Y-95654761D01*
X116357142Y-94083333D02*
X116404761Y-94130952D01*
X116452380Y-94273809D01*
X116452380Y-94369047D01*
X116404761Y-94511904D01*
X116309523Y-94607142D01*
X116214285Y-94654761D01*
X116023809Y-94702380D01*
X115880952Y-94702380D01*
X115690476Y-94654761D01*
X115595238Y-94607142D01*
X115500000Y-94511904D01*
X115452380Y-94369047D01*
X115452380Y-94273809D01*
X115500000Y-94130952D01*
X115547619Y-94083333D01*
X116452380Y-92892857D02*
X115452380Y-92892857D01*
X115452380Y-92511904D01*
X115500000Y-92416666D01*
X115547619Y-92369047D01*
X115642857Y-92321428D01*
X115785714Y-92321428D01*
X115880952Y-92369047D01*
X115928571Y-92416666D01*
X115976190Y-92511904D01*
X115976190Y-92892857D01*
X116452380Y-91464285D02*
X115928571Y-91464285D01*
X115833333Y-91511904D01*
X115785714Y-91607142D01*
X115785714Y-91797619D01*
X115833333Y-91892857D01*
X116404761Y-91464285D02*
X116452380Y-91559523D01*
X116452380Y-91797619D01*
X116404761Y-91892857D01*
X116309523Y-91940476D01*
X116214285Y-91940476D01*
X116119047Y-91892857D01*
X116071428Y-91797619D01*
X116071428Y-91559523D01*
X116023809Y-91464285D01*
X116404761Y-91035714D02*
X116452380Y-90940476D01*
X116452380Y-90750000D01*
X116404761Y-90654761D01*
X116309523Y-90607142D01*
X116261904Y-90607142D01*
X116166666Y-90654761D01*
X116119047Y-90750000D01*
X116119047Y-90892857D01*
X116071428Y-90988095D01*
X115976190Y-91035714D01*
X115928571Y-91035714D01*
X115833333Y-90988095D01*
X115785714Y-90892857D01*
X115785714Y-90750000D01*
X115833333Y-90654761D01*
X116404761Y-90226190D02*
X116452380Y-90130952D01*
X116452380Y-89940476D01*
X116404761Y-89845238D01*
X116309523Y-89797619D01*
X116261904Y-89797619D01*
X116166666Y-89845238D01*
X116119047Y-89940476D01*
X116119047Y-90083333D01*
X116071428Y-90178571D01*
X115976190Y-90226190D01*
X115928571Y-90226190D01*
X115833333Y-90178571D01*
X115785714Y-90083333D01*
X115785714Y-89940476D01*
X115833333Y-89845238D01*
X115785714Y-89511904D02*
X115785714Y-89130952D01*
X115452380Y-89369047D02*
X116309523Y-89369047D01*
X116404761Y-89321428D01*
X116452380Y-89226190D01*
X116452380Y-89130952D01*
X116452380Y-88797619D02*
X115452380Y-88797619D01*
X116452380Y-88369047D02*
X115928571Y-88369047D01*
X115833333Y-88416666D01*
X115785714Y-88511904D01*
X115785714Y-88654761D01*
X115833333Y-88750000D01*
X115880952Y-88797619D01*
X116452380Y-87892857D02*
X115785714Y-87892857D01*
X115976190Y-87892857D02*
X115880952Y-87845238D01*
X115833333Y-87797619D01*
X115785714Y-87702380D01*
X115785714Y-87607142D01*
X115785714Y-86845238D02*
X116452380Y-86845238D01*
X115785714Y-87273809D02*
X116309523Y-87273809D01*
X116404761Y-87226190D01*
X116452380Y-87130952D01*
X116452380Y-86988095D01*
X116404761Y-86892857D01*
X116357142Y-86845238D01*
D10*
X117000000Y-96750000D02*
X115000000Y-96750000D01*
X117000000Y-85750000D02*
X117000000Y-96750000D01*
X115000000Y-85750000D02*
X117000000Y-85750000D01*
X115000000Y-96750000D02*
X113000000Y-96750000D01*
X115000000Y-85750000D02*
X115000000Y-96750000D01*
X113000000Y-85750000D02*
X115000000Y-85750000D01*
D11*
X115452380Y-72011904D02*
X115452380Y-71630952D01*
X115500000Y-71440476D01*
X115595238Y-71250000D01*
X115785714Y-71154761D01*
X116119047Y-71154761D01*
X116309523Y-71250000D01*
X116404761Y-71440476D01*
X116452380Y-71630952D01*
X116452380Y-72011904D01*
X116404761Y-72202380D01*
X116309523Y-72392857D01*
X116119047Y-72488095D01*
X115785714Y-72488095D01*
X115595238Y-72392857D01*
X115500000Y-72202380D01*
X115452380Y-72011904D01*
X115452380Y-70297619D02*
X116261904Y-70297619D01*
X116357142Y-70202380D01*
X116404761Y-70107142D01*
X116452380Y-69916666D01*
X116452380Y-69535714D01*
X116404761Y-69345238D01*
X116357142Y-69250000D01*
X116261904Y-69154761D01*
X115452380Y-69154761D01*
X115452380Y-68488095D02*
X115452380Y-67345238D01*
X116452380Y-67916666D02*
X115452380Y-67916666D01*
X116452380Y-66678571D02*
X115452380Y-66678571D01*
X115452380Y-65916666D01*
X115500000Y-65726190D01*
X115547619Y-65630952D01*
X115642857Y-65535714D01*
X115785714Y-65535714D01*
X115880952Y-65630952D01*
X115928571Y-65726190D01*
X115976190Y-65916666D01*
X115976190Y-66678571D01*
X115452380Y-64678571D02*
X116261904Y-64678571D01*
X116357142Y-64583333D01*
X116404761Y-64488095D01*
X116452380Y-64297619D01*
X116452380Y-63916666D01*
X116404761Y-63726190D01*
X116357142Y-63630952D01*
X116261904Y-63535714D01*
X115452380Y-63535714D01*
X115452380Y-62869047D02*
X115452380Y-61726190D01*
X116452380Y-62297619D02*
X115452380Y-62297619D01*
X116404761Y-61154761D02*
X116452380Y-60869047D01*
X116452380Y-60392857D01*
X116404761Y-60202380D01*
X116357142Y-60107142D01*
X116261904Y-60011904D01*
X116166666Y-60011904D01*
X116071428Y-60107142D01*
X116023809Y-60202380D01*
X115976190Y-60392857D01*
X115928571Y-60773809D01*
X115880952Y-60964285D01*
X115833333Y-61059523D01*
X115738095Y-61154761D01*
X115642857Y-61154761D01*
X115547619Y-61059523D01*
X115500000Y-60964285D01*
X115452380Y-60773809D01*
X115452380Y-60297619D01*
X115500000Y-60011904D01*
D10*
X104920000Y-53450000D02*
X110120000Y-53450000D01*
X104920000Y-43230000D02*
X104920000Y-53450000D01*
X110120000Y-40630000D02*
X110120000Y-53450000D01*
X104920000Y-43230000D02*
X107520000Y-43230000D01*
X107520000Y-43230000D02*
X107520000Y-40630000D01*
X107520000Y-40630000D02*
X110120000Y-40630000D01*
X104920000Y-41960000D02*
X104920000Y-40630000D01*
X104920000Y-40630000D02*
X106250000Y-40630000D01*
X109680000Y-63750000D02*
G75*
G03*
X109680000Y-63750000I-2180000J0D01*
G01*
X109680000Y-58750000D02*
G75*
G03*
X109680000Y-58750000I-2180000J0D01*
G01*
X112100000Y-66310000D02*
X112100000Y-56190000D01*
X111000000Y-66310000D02*
X111000000Y-56190000D01*
X103440000Y-66310000D02*
X103440000Y-56190000D01*
X112560000Y-66310000D02*
X112560000Y-56190000D01*
X103440000Y-66310000D02*
X112560000Y-66310000D01*
X103440000Y-56190000D02*
X112560000Y-56190000D01*
X106112000Y-62096000D02*
X106219000Y-62203000D01*
X109047000Y-65032000D02*
X109154000Y-65138000D01*
X105846000Y-62362000D02*
X105953000Y-62469000D01*
X108781000Y-65298000D02*
X108888000Y-65404000D01*
X106112000Y-57096000D02*
X106508000Y-57491000D01*
X108774000Y-59757000D02*
X109154000Y-60137000D01*
X105846000Y-57362000D02*
X106226000Y-57742000D01*
X108492000Y-60008000D02*
X108888000Y-60403000D01*
X112160000Y-66550000D02*
X112800000Y-66550000D01*
X112800000Y-66550000D02*
X112800000Y-66150000D01*
X56170000Y-127580000D02*
X56170000Y-126250000D01*
X57500000Y-127580000D02*
X56170000Y-127580000D01*
X58770000Y-127580000D02*
X58770000Y-124920000D01*
X58770000Y-124920000D02*
X81690000Y-124920000D01*
X58770000Y-127580000D02*
X81690000Y-127580000D01*
X81690000Y-127580000D02*
X81690000Y-124920000D01*
X58650000Y-66700000D02*
G75*
G03*
X58650000Y-66700000I-3500000J0D01*
G01*
X91850000Y-49300000D02*
G75*
G03*
X91850000Y-49300000I-3500000J0D01*
G01*
X109680000Y-93750000D02*
G75*
G03*
X109680000Y-93750000I-2180000J0D01*
G01*
X109680000Y-88750000D02*
G75*
G03*
X109680000Y-88750000I-2180000J0D01*
G01*
X112100000Y-96310000D02*
X112100000Y-86190000D01*
X111000000Y-96310000D02*
X111000000Y-86190000D01*
X103440000Y-96310000D02*
X103440000Y-86190000D01*
X112560000Y-96310000D02*
X112560000Y-86190000D01*
X103440000Y-96310000D02*
X112560000Y-96310000D01*
X103440000Y-86190000D02*
X112560000Y-86190000D01*
X106112000Y-92096000D02*
X106219000Y-92203000D01*
X109047000Y-95032000D02*
X109154000Y-95138000D01*
X105846000Y-92362000D02*
X105953000Y-92469000D01*
X108781000Y-95298000D02*
X108888000Y-95404000D01*
X106112000Y-87096000D02*
X106508000Y-87491000D01*
X108774000Y-89757000D02*
X109154000Y-90137000D01*
X105846000Y-87362000D02*
X106226000Y-87742000D01*
X108492000Y-90008000D02*
X108888000Y-90403000D01*
X112160000Y-96550000D02*
X112800000Y-96550000D01*
X112800000Y-96550000D02*
X112800000Y-96150000D01*
X58500000Y-25500000D02*
G75*
G03*
X58500000Y-25500000I-3500000J0D01*
G01*
X83500000Y-30500000D02*
G75*
G03*
X83500000Y-30500000I-3500000J0D01*
G01*
X109680000Y-73750000D02*
G75*
G03*
X109680000Y-73750000I-2180000J0D01*
G01*
X109680000Y-68750000D02*
G75*
G03*
X109680000Y-68750000I-2180000J0D01*
G01*
X112100000Y-76310000D02*
X112100000Y-66190000D01*
X111000000Y-76310000D02*
X111000000Y-66190000D01*
X103440000Y-76310000D02*
X103440000Y-66190000D01*
X112560000Y-76310000D02*
X112560000Y-66190000D01*
X103440000Y-76310000D02*
X112560000Y-76310000D01*
X103440000Y-66190000D02*
X112560000Y-66190000D01*
X106112000Y-72096000D02*
X106219000Y-72203000D01*
X109047000Y-75032000D02*
X109154000Y-75138000D01*
X105846000Y-72362000D02*
X105953000Y-72469000D01*
X108781000Y-75298000D02*
X108888000Y-75404000D01*
X106112000Y-67096000D02*
X106508000Y-67491000D01*
X108774000Y-69757000D02*
X109154000Y-70137000D01*
X105846000Y-67362000D02*
X106226000Y-67742000D01*
X108492000Y-70008000D02*
X108888000Y-70403000D01*
X112160000Y-76550000D02*
X112800000Y-76550000D01*
X112800000Y-76550000D02*
X112800000Y-76150000D01*
X92000000Y-103500000D02*
G75*
G03*
X92000000Y-103500000I-3500000J0D01*
G01*
X62000000Y-119500000D02*
G75*
G03*
X62000000Y-119500000I-3500000J0D01*
G01*
D11*
X107166666Y-53952380D02*
X107166666Y-54666666D01*
X107119047Y-54809523D01*
X107023809Y-54904761D01*
X106880952Y-54952380D01*
X106785714Y-54952380D01*
X107690476Y-54952380D02*
X107880952Y-54952380D01*
X107976190Y-54904761D01*
X108023809Y-54857142D01*
X108119047Y-54714285D01*
X108166666Y-54523809D01*
X108166666Y-54142857D01*
X108119047Y-54047619D01*
X108071428Y-54000000D01*
X107976190Y-53952380D01*
X107785714Y-53952380D01*
X107690476Y-54000000D01*
X107642857Y-54047619D01*
X107595238Y-54142857D01*
X107595238Y-54380952D01*
X107642857Y-54476190D01*
X107690476Y-54523809D01*
X107785714Y-54571428D01*
X107976190Y-54571428D01*
X108071428Y-54523809D01*
X108119047Y-54476190D01*
X108166666Y-54380952D01*
X106738095Y-20152380D02*
X106738095Y-19152380D01*
X106738095Y-19628571D02*
X107309523Y-19628571D01*
X107309523Y-20152380D02*
X107309523Y-19152380D01*
X107690476Y-19152380D02*
X108309523Y-19152380D01*
X107976190Y-19533333D01*
X108119047Y-19533333D01*
X108214285Y-19580952D01*
X108261904Y-19628571D01*
X108309523Y-19723809D01*
X108309523Y-19961904D01*
X108261904Y-20057142D01*
X108214285Y-20104761D01*
X108119047Y-20152380D01*
X107833333Y-20152380D01*
X107738095Y-20104761D01*
X107690476Y-20057142D01*
X101892380Y-61583333D02*
X102606666Y-61583333D01*
X102749523Y-61630952D01*
X102844761Y-61726190D01*
X102892380Y-61869047D01*
X102892380Y-61964285D01*
X102320952Y-60964285D02*
X102273333Y-61059523D01*
X102225714Y-61107142D01*
X102130476Y-61154761D01*
X102082857Y-61154761D01*
X101987619Y-61107142D01*
X101940000Y-61059523D01*
X101892380Y-60964285D01*
X101892380Y-60773809D01*
X101940000Y-60678571D01*
X101987619Y-60630952D01*
X102082857Y-60583333D01*
X102130476Y-60583333D01*
X102225714Y-60630952D01*
X102273333Y-60678571D01*
X102320952Y-60773809D01*
X102320952Y-60964285D01*
X102368571Y-61059523D01*
X102416190Y-61107142D01*
X102511428Y-61154761D01*
X102701904Y-61154761D01*
X102797142Y-61107142D01*
X102844761Y-61059523D01*
X102892380Y-60964285D01*
X102892380Y-60773809D01*
X102844761Y-60678571D01*
X102797142Y-60630952D01*
X102701904Y-60583333D01*
X102511428Y-60583333D01*
X102416190Y-60630952D01*
X102368571Y-60678571D01*
X102320952Y-60773809D01*
X106738095Y-112152380D02*
X106738095Y-111152380D01*
X106738095Y-111628571D02*
X107309523Y-111628571D01*
X107309523Y-112152380D02*
X107309523Y-111152380D01*
X108214285Y-111485714D02*
X108214285Y-112152380D01*
X107976190Y-111104761D02*
X107738095Y-111819047D01*
X108357142Y-111819047D01*
X54622380Y-127059523D02*
X55336666Y-127059523D01*
X55479523Y-127107142D01*
X55574761Y-127202380D01*
X55622380Y-127345238D01*
X55622380Y-127440476D01*
X55622380Y-126059523D02*
X55622380Y-126630952D01*
X55622380Y-126345238D02*
X54622380Y-126345238D01*
X54765238Y-126440476D01*
X54860476Y-126535714D01*
X54908095Y-126630952D01*
X54717619Y-125678571D02*
X54670000Y-125630952D01*
X54622380Y-125535714D01*
X54622380Y-125297619D01*
X54670000Y-125202380D01*
X54717619Y-125154761D01*
X54812857Y-125107142D01*
X54908095Y-125107142D01*
X55050952Y-125154761D01*
X55622380Y-125726190D01*
X55622380Y-125107142D01*
X26738095Y-20152380D02*
X26738095Y-19152380D01*
X26738095Y-19628571D02*
X27309523Y-19628571D01*
X27309523Y-20152380D02*
X27309523Y-19152380D01*
X28309523Y-20152380D02*
X27738095Y-20152380D01*
X28023809Y-20152380D02*
X28023809Y-19152380D01*
X27928571Y-19295238D01*
X27833333Y-19390476D01*
X27738095Y-19438095D01*
X26738095Y-112152380D02*
X26738095Y-111152380D01*
X26738095Y-111628571D02*
X27309523Y-111628571D01*
X27309523Y-112152380D02*
X27309523Y-111152380D01*
X27738095Y-111247619D02*
X27785714Y-111200000D01*
X27880952Y-111152380D01*
X28119047Y-111152380D01*
X28214285Y-111200000D01*
X28261904Y-111247619D01*
X28309523Y-111342857D01*
X28309523Y-111438095D01*
X28261904Y-111580952D01*
X27690476Y-112152380D01*
X28309523Y-112152380D01*
X101892380Y-91583333D02*
X102606666Y-91583333D01*
X102749523Y-91630952D01*
X102844761Y-91726190D01*
X102892380Y-91869047D01*
X102892380Y-91964285D01*
X102892380Y-90583333D02*
X102892380Y-91154761D01*
X102892380Y-90869047D02*
X101892380Y-90869047D01*
X102035238Y-90964285D01*
X102130476Y-91059523D01*
X102178095Y-91154761D01*
X101892380Y-71583333D02*
X102606666Y-71583333D01*
X102749523Y-71630952D01*
X102844761Y-71726190D01*
X102892380Y-71869047D01*
X102892380Y-71964285D01*
X101892380Y-71202380D02*
X101892380Y-70535714D01*
X102892380Y-70964285D01*
%LPC*%
D13*
X108790000Y-52120000D03*
X106250000Y-52120000D03*
X108790000Y-49580000D03*
X106250000Y-49580000D03*
X108790000Y-47040000D03*
X106250000Y-47040000D03*
X108790000Y-44500000D03*
X106250000Y-44500000D03*
X108790000Y-41960000D03*
D14*
X106250000Y-41960000D03*
D15*
X107500000Y-26000000D03*
D16*
X111475000Y-26000000D03*
X110310749Y-28810749D03*
X107500000Y-29975000D03*
X104689251Y-28810749D03*
X103525000Y-26000000D03*
X104689251Y-23189251D03*
X107500000Y-22025000D03*
X110310749Y-23189251D03*
D17*
X107500000Y-58750000D03*
D18*
X107500000Y-63750000D03*
D15*
X107500000Y-118000000D03*
D16*
X111475000Y-118000000D03*
X110310749Y-120810749D03*
X107500000Y-121975000D03*
X104689251Y-120810749D03*
X103525000Y-118000000D03*
X104689251Y-115189251D03*
X107500000Y-114025000D03*
X110310749Y-115189251D03*
D19*
X42750000Y-67250000D03*
G36*
G01*
X42000000Y-63900000D02*
X43500000Y-63900000D01*
G75*
G02*
X43750000Y-64150000I0J-250000D01*
G01*
X43750000Y-65350000D01*
G75*
G02*
X43500000Y-65600000I-250000J0D01*
G01*
X42000000Y-65600000D01*
G75*
G02*
X41750000Y-65350000I0J250000D01*
G01*
X41750000Y-64150000D01*
G75*
G02*
X42000000Y-63900000I250000J0D01*
G01*
G37*
D13*
X80360000Y-126250000D03*
X77820000Y-126250000D03*
X75280000Y-126250000D03*
X72740000Y-126250000D03*
X70200000Y-126250000D03*
X67660000Y-126250000D03*
X65120000Y-126250000D03*
X62580000Y-126250000D03*
X60040000Y-126250000D03*
D14*
X57500000Y-126250000D03*
D20*
X93850000Y-48500000D03*
X93850000Y-67500000D03*
X49650000Y-48500000D03*
X49650000Y-67500000D03*
D21*
X55150000Y-66750000D03*
X88350000Y-49250000D03*
D22*
X94750000Y-63200000D03*
D15*
X27500000Y-26000000D03*
D16*
X31475000Y-26000000D03*
X30310749Y-28810749D03*
X27500000Y-29975000D03*
X24689251Y-28810749D03*
X23525000Y-26000000D03*
X24689251Y-23189251D03*
X27500000Y-22025000D03*
X30310749Y-23189251D03*
D15*
X27500000Y-118000000D03*
D16*
X31475000Y-118000000D03*
X30310749Y-120810749D03*
X27500000Y-121975000D03*
X24689251Y-120810749D03*
X23525000Y-118000000D03*
X24689251Y-115189251D03*
X27500000Y-114025000D03*
X30310749Y-115189251D03*
D17*
X107500000Y-88750000D03*
D18*
X107500000Y-93750000D03*
D17*
X41750000Y-81900000D03*
D18*
X46750000Y-81900000D03*
D21*
X80000000Y-30500000D03*
X55000000Y-25500000D03*
D20*
X91250000Y-41500000D03*
X91250000Y-19500000D03*
X43750000Y-41500000D03*
X43750000Y-19500000D03*
D17*
X107500000Y-68750000D03*
D18*
X107500000Y-73750000D03*
D20*
X53000000Y-120750000D03*
X53000000Y-102250000D03*
X94000000Y-120750000D03*
X94000000Y-102250000D03*
D21*
X88500000Y-103500000D03*
X58500000Y-119500000D03*
D23*
X42750000Y-55750000D03*
X42750000Y-53250000D03*
G36*
G01*
X42025000Y-49900000D02*
X43475000Y-49900000D01*
G75*
G02*
X43725000Y-50150000I0J-250000D01*
G01*
X43725000Y-51350000D01*
G75*
G02*
X43475000Y-51600000I-250000J0D01*
G01*
X42025000Y-51600000D01*
G75*
G02*
X41775000Y-51350000I0J250000D01*
G01*
X41775000Y-50150000D01*
G75*
G02*
X42025000Y-49900000I250000J0D01*
G01*
G37*
M02*
