G04 #@! TF.GenerationSoftware,KiCad,Pcbnew,5.1.10*
G04 #@! TF.CreationDate,2021-06-29T02:58:05-05:00*
G04 #@! TF.ProjectId,Power Board,506f7765-7220-4426-9f61-72642e6b6963,rev?*
G04 #@! TF.SameCoordinates,Original*
G04 #@! TF.FileFunction,Copper,L1,Top*
G04 #@! TF.FilePolarity,Positive*
%FSLAX46Y46*%
G04 Gerber Fmt 4.6, Leading zero omitted, Abs format (unit mm)*
G04 Created by KiCad (PCBNEW 5.1.10) date 2021-06-29 02:58:05*
%MOMM*%
%LPD*%
G01*
G04 APERTURE LIST*
G04 #@! TA.AperFunction,ComponentPad*
%ADD10C,2.600000*%
G04 #@! TD*
G04 #@! TA.AperFunction,ComponentPad*
%ADD11R,2.600000X2.600000*%
G04 #@! TD*
G04 #@! TA.AperFunction,ComponentPad*
%ADD12O,4.000000X3.200000*%
G04 #@! TD*
G04 #@! TA.AperFunction,ComponentPad*
%ADD13O,5.000000X3.200000*%
G04 #@! TD*
G04 #@! TA.AperFunction,ComponentPad*
%ADD14O,1.700000X1.700000*%
G04 #@! TD*
G04 #@! TA.AperFunction,ComponentPad*
%ADD15R,1.700000X1.700000*%
G04 #@! TD*
G04 #@! TA.AperFunction,ViaPad*
%ADD16C,0.800000*%
G04 #@! TD*
G04 #@! TA.AperFunction,Conductor*
%ADD17C,1.200000*%
G04 #@! TD*
G04 #@! TA.AperFunction,Conductor*
%ADD18C,0.800000*%
G04 #@! TD*
G04 APERTURE END LIST*
D10*
X89000000Y-158250000D03*
D11*
X94000000Y-158250000D03*
D12*
X59750000Y-141050000D03*
X59750000Y-149950000D03*
X59750000Y-145500000D03*
X55250000Y-149950000D03*
X55250000Y-145500000D03*
X55250000Y-141050000D03*
X72900000Y-149950000D03*
X72900000Y-141050000D03*
X72900000Y-145500000D03*
X77500000Y-141050000D03*
X77500000Y-145500000D03*
X77500000Y-149950000D03*
X82100000Y-149950000D03*
X82100000Y-141050000D03*
X82100000Y-145500000D03*
D10*
X41000000Y-158250000D03*
D11*
X46000000Y-158250000D03*
D13*
X67500000Y-166050000D03*
X67500000Y-170500000D03*
X67500000Y-174950000D03*
D14*
X76154000Y-176720000D03*
D15*
X78694000Y-176720000D03*
D13*
X47500000Y-166050000D03*
X47500000Y-170500000D03*
X47500000Y-174950000D03*
X87500000Y-166050000D03*
X87500000Y-170500000D03*
X87500000Y-174950000D03*
D14*
X80360000Y-132750000D03*
X77820000Y-132750000D03*
X75280000Y-132750000D03*
X72740000Y-132750000D03*
X70200000Y-132750000D03*
X67660000Y-132750000D03*
X65120000Y-132750000D03*
X62580000Y-132750000D03*
X60040000Y-132750000D03*
D15*
X57500000Y-132750000D03*
D16*
X57689500Y-135768900D03*
X81256400Y-136123800D03*
X70653100Y-136704800D03*
X69133800Y-138112600D03*
X72807900Y-153829000D03*
X63886700Y-138093800D03*
D17*
X76154000Y-176720000D02*
X76154000Y-174670000D01*
X74486700Y-152428700D02*
X76154000Y-154096000D01*
X71559200Y-152428700D02*
X74486700Y-152428700D01*
X66546000Y-147415500D02*
X71559200Y-152428700D01*
X66546000Y-142733400D02*
X66546000Y-147415500D01*
X60040000Y-136227400D02*
X66546000Y-142733400D01*
X60040000Y-134800000D02*
X60040000Y-136227400D01*
X77500000Y-149950000D02*
X77500000Y-152750000D01*
X60040000Y-132750000D02*
X60040000Y-134800000D01*
X76154000Y-154096000D02*
X77500000Y-152750000D01*
X76154000Y-174670000D02*
X76154000Y-154096000D01*
X56725000Y-135768900D02*
X57689500Y-135768900D01*
X52438000Y-140055900D02*
X56725000Y-135768900D01*
X52438000Y-142688000D02*
X52438000Y-140055900D01*
X55250000Y-145500000D02*
X52438000Y-142688000D01*
X76113800Y-136123800D02*
X72740000Y-132750000D01*
X81256400Y-136123800D02*
X76113800Y-136123800D01*
X67660000Y-140260000D02*
X67660000Y-134800000D01*
X72900000Y-145500000D02*
X67660000Y-140260000D01*
X67660000Y-132750000D02*
X67660000Y-134800000D01*
X77500000Y-141050000D02*
X77500000Y-138250000D01*
X72198300Y-138250000D02*
X70653100Y-136704800D01*
X77500000Y-138250000D02*
X72198300Y-138250000D01*
X89000000Y-152400000D02*
X89000000Y-158250000D01*
X82100000Y-145500000D02*
X89000000Y-152400000D01*
D18*
X79700000Y-143300000D02*
X83950000Y-143300000D01*
D17*
X77500000Y-145500000D02*
X79700000Y-143300000D01*
X83950000Y-143300000D02*
X87950000Y-143300000D01*
X94000000Y-149350000D02*
X94000000Y-158250000D01*
X87950000Y-143300000D02*
X94000000Y-149350000D01*
X69133800Y-135866200D02*
X69133800Y-138112600D01*
X70200000Y-134800000D02*
X69133800Y-135866200D01*
X70200000Y-132750000D02*
X70200000Y-134800000D01*
X57500000Y-132750000D02*
X55450000Y-132750000D01*
X50836700Y-167163300D02*
X47500000Y-170500000D01*
X50836700Y-137363300D02*
X50836700Y-167163300D01*
X55450000Y-132750000D02*
X50836700Y-137363300D01*
X56329000Y-153829000D02*
X72807900Y-153829000D01*
X55250000Y-152750000D02*
X56329000Y-153829000D01*
X55250000Y-149950000D02*
X55250000Y-152750000D01*
X63886700Y-136106700D02*
X62580000Y-134800000D01*
X63886700Y-138093800D02*
X63886700Y-136106700D01*
X62580000Y-132750000D02*
X62580000Y-134800000D01*
M02*
