G04 #@! TF.GenerationSoftware,KiCad,Pcbnew,5.1.10*
G04 #@! TF.CreationDate,2021-06-04T18:55:33-05:00*
G04 #@! TF.ProjectId,Multiboard,4d756c74-6962-46f6-9172-642e6b696361,rev?*
G04 #@! TF.SameCoordinates,Original*
G04 #@! TF.FileFunction,Copper,L1,Top*
G04 #@! TF.FilePolarity,Positive*
%FSLAX46Y46*%
G04 Gerber Fmt 4.6, Leading zero omitted, Abs format (unit mm)*
G04 Created by KiCad (PCBNEW 5.1.10) date 2021-06-04 18:55:33*
%MOMM*%
%LPD*%
G01*
G04 APERTURE LIST*
G04 #@! TA.AperFunction,ComponentPad*
%ADD10R,2.600000X2.600000*%
G04 #@! TD*
G04 #@! TA.AperFunction,ComponentPad*
%ADD11C,2.600000*%
G04 #@! TD*
G04 #@! TA.AperFunction,ComponentPad*
%ADD12R,1.700000X1.700000*%
G04 #@! TD*
G04 #@! TA.AperFunction,ComponentPad*
%ADD13O,1.700000X1.700000*%
G04 #@! TD*
G04 #@! TA.AperFunction,ComponentPad*
%ADD14C,1.600000*%
G04 #@! TD*
G04 #@! TA.AperFunction,ComponentPad*
%ADD15R,1.600000X1.600000*%
G04 #@! TD*
G04 #@! TA.AperFunction,ComponentPad*
%ADD16O,1.950000X1.700000*%
G04 #@! TD*
G04 #@! TA.AperFunction,ComponentPad*
%ADD17O,1.600000X1.600000*%
G04 #@! TD*
G04 #@! TA.AperFunction,ComponentPad*
%ADD18C,0.900000*%
G04 #@! TD*
G04 #@! TA.AperFunction,ComponentPad*
%ADD19C,10.600000*%
G04 #@! TD*
G04 #@! TA.AperFunction,Conductor*
%ADD20C,0.250000*%
G04 #@! TD*
G04 #@! TA.AperFunction,Conductor*
%ADD21C,0.600000*%
G04 #@! TD*
G04 #@! TA.AperFunction,Conductor*
%ADD22C,1.200000*%
G04 #@! TD*
G04 #@! TA.AperFunction,Conductor*
%ADD23C,0.254000*%
G04 #@! TD*
G04 #@! TA.AperFunction,Conductor*
%ADD24C,0.100000*%
G04 #@! TD*
G04 APERTURE END LIST*
D10*
X120240000Y-107580000D03*
D11*
X120240000Y-112580000D03*
D10*
X120240000Y-97445000D03*
D11*
X120240000Y-102445000D03*
D12*
X171580000Y-70580000D03*
D13*
X171580000Y-68040000D03*
X171580000Y-65500000D03*
D12*
X169040000Y-70580000D03*
D13*
X169040000Y-68040000D03*
X169040000Y-65500000D03*
D12*
X176660000Y-70580000D03*
D13*
X176660000Y-68040000D03*
X176660000Y-65500000D03*
D12*
X179200000Y-70580000D03*
D13*
X179200000Y-68040000D03*
X179200000Y-65500000D03*
D12*
X181740000Y-70580000D03*
D13*
X181740000Y-68040000D03*
X181740000Y-65500000D03*
D12*
X174120000Y-70580000D03*
D13*
X174120000Y-68040000D03*
X174120000Y-65500000D03*
D14*
X134760000Y-127095000D03*
D15*
X134760000Y-129595000D03*
D16*
X134125000Y-113840000D03*
X134125000Y-116340000D03*
X134125000Y-118840000D03*
G04 #@! TA.AperFunction,ComponentPad*
G36*
G01*
X134850000Y-122190000D02*
X133400000Y-122190000D01*
G75*
G02*
X133150000Y-121940000I0J250000D01*
G01*
X133150000Y-120740000D01*
G75*
G02*
X133400000Y-120490000I250000J0D01*
G01*
X134850000Y-120490000D01*
G75*
G02*
X135100000Y-120740000I0J-250000D01*
G01*
X135100000Y-121940000D01*
G75*
G02*
X134850000Y-122190000I-250000J0D01*
G01*
G37*
G04 #@! TD.AperFunction*
D17*
X152540000Y-112450000D03*
X139840000Y-130230000D03*
X152540000Y-114990000D03*
X139840000Y-127690000D03*
X152540000Y-117530000D03*
X139840000Y-125150000D03*
X152540000Y-120070000D03*
X139840000Y-122610000D03*
X152540000Y-122610000D03*
X139840000Y-120070000D03*
X152540000Y-125150000D03*
X139840000Y-117530000D03*
X152540000Y-127690000D03*
X139840000Y-114990000D03*
X152540000Y-130230000D03*
D15*
X139840000Y-112450000D03*
D13*
X155715000Y-130230000D03*
X155715000Y-127690000D03*
D12*
X155715000Y-125150000D03*
D17*
X142380000Y-120705000D03*
D14*
X150000000Y-120705000D03*
X134760000Y-101595000D03*
D15*
X134760000Y-104095000D03*
D17*
X152540000Y-86950000D03*
X139840000Y-104730000D03*
X152540000Y-89490000D03*
X139840000Y-102190000D03*
X152540000Y-92030000D03*
X139840000Y-99650000D03*
X152540000Y-94570000D03*
X139840000Y-97110000D03*
X152540000Y-97110000D03*
X139840000Y-94570000D03*
X152540000Y-99650000D03*
X139840000Y-92030000D03*
X152540000Y-102190000D03*
X139840000Y-89490000D03*
X152540000Y-104730000D03*
D15*
X139840000Y-86950000D03*
D17*
X142380000Y-95205000D03*
D14*
X150000000Y-95205000D03*
D16*
X134125000Y-88340000D03*
X134125000Y-90840000D03*
X134125000Y-93340000D03*
G04 #@! TA.AperFunction,ComponentPad*
G36*
G01*
X134850000Y-96690000D02*
X133400000Y-96690000D01*
G75*
G02*
X133150000Y-96440000I0J250000D01*
G01*
X133150000Y-95240000D01*
G75*
G02*
X133400000Y-94990000I250000J0D01*
G01*
X134850000Y-94990000D01*
G75*
G02*
X135100000Y-95240000I0J-250000D01*
G01*
X135100000Y-96440000D01*
G75*
G02*
X134850000Y-96690000I-250000J0D01*
G01*
G37*
G04 #@! TD.AperFunction*
D13*
X155715000Y-104730000D03*
X155715000Y-102190000D03*
D12*
X155715000Y-99650000D03*
D18*
X203050749Y-123769251D03*
X200240000Y-122605000D03*
X197429251Y-123769251D03*
X196265000Y-126580000D03*
X197429251Y-129390749D03*
X200240000Y-130555000D03*
X203050749Y-129390749D03*
X204215000Y-126580000D03*
D19*
X200240000Y-126580000D03*
D18*
X123050749Y-123769251D03*
X120240000Y-122605000D03*
X117429251Y-123769251D03*
X116265000Y-126580000D03*
X117429251Y-129390749D03*
X120240000Y-130555000D03*
X123050749Y-129390749D03*
X124215000Y-126580000D03*
D19*
X120240000Y-126580000D03*
D18*
X203050749Y-62769251D03*
X200240000Y-61605000D03*
X197429251Y-62769251D03*
X196265000Y-65580000D03*
X197429251Y-68390749D03*
X200240000Y-69555000D03*
X203050749Y-68390749D03*
X204215000Y-65580000D03*
D19*
X200240000Y-65580000D03*
D18*
X123050749Y-62769251D03*
X120240000Y-61605000D03*
X117429251Y-62769251D03*
X116265000Y-65580000D03*
X117429251Y-68390749D03*
X120240000Y-69555000D03*
X123050749Y-68390749D03*
X124215000Y-65580000D03*
D19*
X120240000Y-65580000D03*
D15*
X134760000Y-78595000D03*
D14*
X134760000Y-76095000D03*
X150000000Y-69705000D03*
D17*
X142380000Y-69705000D03*
G04 #@! TA.AperFunction,ComponentPad*
G36*
G01*
X134850000Y-71190000D02*
X133400000Y-71190000D01*
G75*
G02*
X133150000Y-70940000I0J250000D01*
G01*
X133150000Y-69740000D01*
G75*
G02*
X133400000Y-69490000I250000J0D01*
G01*
X134850000Y-69490000D01*
G75*
G02*
X135100000Y-69740000I0J-250000D01*
G01*
X135100000Y-70940000D01*
G75*
G02*
X134850000Y-71190000I-250000J0D01*
G01*
G37*
G04 #@! TD.AperFunction*
D16*
X134125000Y-67840000D03*
X134125000Y-65340000D03*
X134125000Y-62840000D03*
D12*
X155715000Y-74150000D03*
D13*
X155715000Y-76690000D03*
X155715000Y-79230000D03*
D15*
X139840000Y-61450000D03*
D17*
X152540000Y-79230000D03*
X139840000Y-63990000D03*
X152540000Y-76690000D03*
X139840000Y-66530000D03*
X152540000Y-74150000D03*
X139840000Y-69070000D03*
X152540000Y-71610000D03*
X139840000Y-71610000D03*
X152540000Y-69070000D03*
X139840000Y-74150000D03*
X152540000Y-66530000D03*
X139840000Y-76690000D03*
X152540000Y-63990000D03*
X139840000Y-79230000D03*
X152540000Y-61450000D03*
X190480000Y-114140000D03*
X175240000Y-114140000D03*
X190480000Y-78580000D03*
X175240000Y-111600000D03*
X190480000Y-81120000D03*
X175240000Y-109060000D03*
X190480000Y-83660000D03*
X175240000Y-106520000D03*
X190480000Y-86200000D03*
X175240000Y-103980000D03*
X190480000Y-88740000D03*
X175240000Y-101440000D03*
X190480000Y-91280000D03*
X175240000Y-98900000D03*
X190480000Y-93820000D03*
X175240000Y-96360000D03*
X190480000Y-96360000D03*
X175240000Y-93820000D03*
X190480000Y-98900000D03*
X175240000Y-91280000D03*
X190480000Y-101440000D03*
X175240000Y-88740000D03*
X190480000Y-103980000D03*
X175240000Y-86200000D03*
X190480000Y-106520000D03*
X175240000Y-83660000D03*
X190480000Y-109060000D03*
X175240000Y-81120000D03*
X190480000Y-111600000D03*
D15*
X175240000Y-78580000D03*
D13*
X200640000Y-78580000D03*
X200640000Y-81120000D03*
X200640000Y-83660000D03*
X200640000Y-86200000D03*
X200640000Y-88740000D03*
X200640000Y-91280000D03*
X200640000Y-93820000D03*
X200640000Y-96360000D03*
X200640000Y-98900000D03*
X200640000Y-101440000D03*
X200640000Y-103980000D03*
X200640000Y-106520000D03*
X200640000Y-109060000D03*
X200640000Y-111600000D03*
D12*
X200640000Y-114140000D03*
D13*
X165080000Y-114140000D03*
X165080000Y-111600000D03*
X165080000Y-109060000D03*
X165080000Y-106520000D03*
X165080000Y-103980000D03*
X165080000Y-101440000D03*
X165080000Y-98900000D03*
X165080000Y-96360000D03*
X165080000Y-93820000D03*
X165080000Y-91280000D03*
X165080000Y-88740000D03*
X165080000Y-86200000D03*
X165080000Y-83660000D03*
X165080000Y-81120000D03*
D12*
X165080000Y-78580000D03*
D13*
X195560000Y-78580000D03*
X195560000Y-81120000D03*
X195560000Y-83660000D03*
X195560000Y-86200000D03*
X195560000Y-88740000D03*
X195560000Y-91280000D03*
X195560000Y-93820000D03*
X195560000Y-96360000D03*
X195560000Y-98900000D03*
X195560000Y-101440000D03*
X195560000Y-103980000D03*
X195560000Y-106520000D03*
X195560000Y-109060000D03*
X195560000Y-111600000D03*
D12*
X195560000Y-114140000D03*
D13*
X170160000Y-114140000D03*
X170160000Y-111600000D03*
X170160000Y-109060000D03*
X170160000Y-106520000D03*
X170160000Y-103980000D03*
X170160000Y-101440000D03*
X170160000Y-98900000D03*
X170160000Y-96360000D03*
X170160000Y-93820000D03*
X170160000Y-91280000D03*
X170160000Y-88740000D03*
X170160000Y-86200000D03*
X170160000Y-83660000D03*
X170160000Y-81120000D03*
D12*
X170160000Y-78580000D03*
D20*
X195560000Y-114140000D02*
X190480000Y-114140000D01*
X200640000Y-114140000D02*
X195560000Y-114140000D01*
X170160000Y-114140000D02*
X175240000Y-114140000D01*
X165080000Y-114140000D02*
X170160000Y-114140000D01*
X195560000Y-78580000D02*
X190480000Y-78580000D01*
X200640000Y-78580000D02*
X195560000Y-78580000D01*
X170160000Y-111600000D02*
X175240000Y-111600000D01*
X165080000Y-111600000D02*
X170160000Y-111600000D01*
X170160000Y-109060000D02*
X175240000Y-109060000D01*
X165080000Y-109060000D02*
X170160000Y-109060000D01*
X195560000Y-83660000D02*
X190480000Y-83660000D01*
X200640000Y-83660000D02*
X195560000Y-83660000D01*
X170160000Y-106520000D02*
X175240000Y-106520000D01*
X165080000Y-106520000D02*
X170160000Y-106520000D01*
X165080000Y-98900000D02*
X170160000Y-98900000D01*
X195560000Y-93820000D02*
X190480000Y-93820000D01*
X200640000Y-93820000D02*
X195560000Y-93820000D01*
X170160000Y-96360000D02*
X175240000Y-96360000D01*
X165080000Y-96360000D02*
X170160000Y-96360000D01*
X195560000Y-96360000D02*
X190480000Y-96360000D01*
X200640000Y-96360000D02*
X195560000Y-96360000D01*
X195560000Y-98900000D02*
X190480000Y-98900000D01*
X200640000Y-98900000D02*
X195560000Y-98900000D01*
X170160000Y-91280000D02*
X175240000Y-91280000D01*
X195560000Y-101440000D02*
X190480000Y-101440000D01*
X200640000Y-101440000D02*
X195560000Y-101440000D01*
X195560000Y-103980000D02*
X190480000Y-103980000D01*
X200640000Y-103980000D02*
X195560000Y-103980000D01*
X195560000Y-106520000D02*
X190480000Y-106520000D01*
X200640000Y-106520000D02*
X195560000Y-106520000D01*
X170160000Y-83660000D02*
X175240000Y-83660000D01*
X165080000Y-83660000D02*
X170160000Y-83660000D01*
X195560000Y-109060000D02*
X190480000Y-109060000D01*
X200640000Y-109060000D02*
X195560000Y-109060000D01*
X170160000Y-81120000D02*
X175240000Y-81120000D01*
X165080000Y-81120000D02*
X170160000Y-81120000D01*
X195560000Y-111600000D02*
X190480000Y-111600000D01*
X200640000Y-111600000D02*
X195560000Y-111600000D01*
X170160000Y-78580000D02*
X175240000Y-78580000D01*
X165080000Y-78580000D02*
X170160000Y-78580000D01*
D21*
X152540000Y-76690000D02*
X139840000Y-89390000D01*
X139840000Y-89390000D02*
X139840000Y-89490000D01*
X152540000Y-71610000D02*
X153840300Y-71610000D01*
X169040000Y-68040000D02*
X157410300Y-68040000D01*
X157410300Y-68040000D02*
X153840300Y-71610000D01*
X171580000Y-68040000D02*
X169040000Y-68040000D01*
X174120000Y-68040000D02*
X171580000Y-68040000D01*
X176660000Y-68040000D02*
X174120000Y-68040000D01*
X179200000Y-68040000D02*
X176660000Y-68040000D01*
X181740000Y-68040000D02*
X179200000Y-68040000D01*
X152540000Y-127690000D02*
X152540000Y-125150000D01*
X142380000Y-120705000D02*
X143680300Y-120705000D01*
X143680300Y-120705000D02*
X145585300Y-122610000D01*
X145585300Y-122610000D02*
X152540000Y-122610000D01*
X152540000Y-102190000D02*
X152540000Y-99650000D01*
X142380000Y-95205000D02*
X143680300Y-95205000D01*
X143680300Y-95205000D02*
X145585300Y-97110000D01*
X145585300Y-97110000D02*
X152540000Y-97110000D01*
X142380000Y-69705000D02*
X143680300Y-69705000D01*
X152540000Y-71610000D02*
X145585300Y-71610000D01*
X145585300Y-71610000D02*
X143680300Y-69705000D01*
X195560000Y-86200000D02*
X190480000Y-86200000D01*
X200640000Y-86200000D02*
X195560000Y-86200000D01*
D22*
X139840000Y-74150000D02*
X137935000Y-74150000D01*
X137935000Y-74150000D02*
X134125000Y-70340000D01*
D20*
X152540000Y-69070000D02*
X151414700Y-69070000D01*
X151414700Y-69070000D02*
X150779700Y-69705000D01*
X150779700Y-69705000D02*
X150000000Y-69705000D01*
D22*
X134125000Y-67840000D02*
X135900300Y-67840000D01*
X139840000Y-71610000D02*
X138239700Y-71610000D01*
X138239700Y-71610000D02*
X135900300Y-69270600D01*
X135900300Y-69270600D02*
X135900300Y-67840000D01*
X134125000Y-65340000D02*
X135900300Y-65340000D01*
X139840000Y-69070000D02*
X138239700Y-69070000D01*
X138239700Y-69070000D02*
X138239700Y-67679400D01*
X138239700Y-67679400D02*
X135900300Y-65340000D01*
X139840000Y-66530000D02*
X136150000Y-62840000D01*
X136150000Y-62840000D02*
X134125000Y-62840000D01*
D20*
X152540000Y-79230000D02*
X155715000Y-79230000D01*
X152540000Y-92030000D02*
X152540000Y-93155300D01*
X155715000Y-99650000D02*
X155715000Y-96049000D01*
X155715000Y-96049000D02*
X152821300Y-93155300D01*
X152821300Y-93155300D02*
X152540000Y-93155300D01*
D22*
X139840000Y-99650000D02*
X137935000Y-99650000D01*
X137935000Y-99650000D02*
X134125000Y-95840000D01*
D20*
X155715000Y-102190000D02*
X155715000Y-101014700D01*
X152540000Y-94570000D02*
X152540000Y-95695300D01*
X152540000Y-95695300D02*
X152821400Y-95695300D01*
X152821400Y-95695300D02*
X154539700Y-97413600D01*
X154539700Y-97413600D02*
X154539700Y-100647500D01*
X154539700Y-100647500D02*
X154906900Y-101014700D01*
X154906900Y-101014700D02*
X155715000Y-101014700D01*
X151977400Y-94570000D02*
X152540000Y-94570000D01*
X151977400Y-94570000D02*
X151414700Y-94570000D01*
X150000000Y-95205000D02*
X150779700Y-95205000D01*
X150779700Y-95205000D02*
X151414700Y-94570000D01*
D22*
X139840000Y-97110000D02*
X138239700Y-97110000D01*
X138239700Y-97110000D02*
X134469700Y-93340000D01*
X134469700Y-93340000D02*
X134125000Y-93340000D01*
X139840000Y-94570000D02*
X137855000Y-94570000D01*
X137855000Y-94570000D02*
X134125000Y-90840000D01*
X139840000Y-92030000D02*
X137815000Y-92030000D01*
X137815000Y-92030000D02*
X134125000Y-88340000D01*
D20*
X155715000Y-104730000D02*
X152540000Y-104730000D01*
D22*
X134760000Y-129595000D02*
X136360300Y-129595000D01*
X139840000Y-130230000D02*
X136995300Y-130230000D01*
X136995300Y-130230000D02*
X136360300Y-129595000D01*
X134760000Y-129595000D02*
X129674700Y-124509700D01*
X129674700Y-124509700D02*
X129674700Y-107580000D01*
X129674700Y-107580000D02*
X120240000Y-107580000D01*
X133159700Y-104095000D02*
X129674700Y-107580000D01*
X134760000Y-104095000D02*
X133159700Y-104095000D01*
X134760000Y-78595000D02*
X136360300Y-78595000D01*
X139840000Y-79230000D02*
X136995300Y-79230000D01*
X136995300Y-79230000D02*
X136360300Y-78595000D01*
D20*
X170160000Y-88740000D02*
X175240000Y-88740000D01*
X165080000Y-88740000D02*
X170160000Y-88740000D01*
X170160000Y-93820000D02*
X175240000Y-93820000D01*
X165080000Y-93820000D02*
X170160000Y-93820000D01*
X170160000Y-101440000D02*
X175240000Y-101440000D01*
X165080000Y-101440000D02*
X170160000Y-101440000D01*
X170160000Y-103980000D02*
X175240000Y-103980000D01*
X165080000Y-103980000D02*
X170160000Y-103980000D01*
X152540000Y-112450000D02*
X152540000Y-111324700D01*
X190480000Y-88740000D02*
X189354700Y-88740000D01*
X189354700Y-88740000D02*
X177924700Y-100170000D01*
X177924700Y-100170000D02*
X163694700Y-100170000D01*
X163694700Y-100170000D02*
X152540000Y-111324700D01*
X195560000Y-88740000D02*
X190480000Y-88740000D01*
X200640000Y-88740000D02*
X195560000Y-88740000D01*
X152540000Y-114990000D02*
X152540000Y-113864700D01*
X190480000Y-91280000D02*
X189354700Y-91280000D01*
X189354700Y-91280000D02*
X177924700Y-102710000D01*
X177924700Y-102710000D02*
X164626700Y-102710000D01*
X164626700Y-102710000D02*
X153472000Y-113864700D01*
X153472000Y-113864700D02*
X152540000Y-113864700D01*
X195560000Y-91280000D02*
X190480000Y-91280000D01*
X200640000Y-91280000D02*
X195560000Y-91280000D01*
X152540000Y-120070000D02*
X151414700Y-120070000D01*
X150000000Y-120705000D02*
X150779700Y-120705000D01*
X150779700Y-120705000D02*
X151414700Y-120070000D01*
D22*
X139840000Y-117530000D02*
X137815000Y-117530000D01*
X137815000Y-117530000D02*
X134125000Y-113840000D01*
D20*
X155715000Y-130230000D02*
X152540000Y-130230000D01*
D23*
X209580000Y-135920000D02*
X110900000Y-135920000D01*
X110900000Y-125995454D01*
X114305000Y-125995454D01*
X114305000Y-127164546D01*
X114533079Y-128311176D01*
X114980471Y-129391277D01*
X115629984Y-130363342D01*
X116456658Y-131190016D01*
X117428723Y-131839529D01*
X118508824Y-132286921D01*
X119655454Y-132515000D01*
X120824546Y-132515000D01*
X121971176Y-132286921D01*
X123051277Y-131839529D01*
X124023342Y-131190016D01*
X124850016Y-130363342D01*
X125499529Y-129391277D01*
X125946921Y-128311176D01*
X126175000Y-127164546D01*
X126175000Y-125995454D01*
X125946921Y-124848824D01*
X125499529Y-123768723D01*
X124850016Y-122796658D01*
X124023342Y-121969984D01*
X123051277Y-121320471D01*
X121971176Y-120873079D01*
X120824546Y-120645000D01*
X119655454Y-120645000D01*
X118508824Y-120873079D01*
X117428723Y-121320471D01*
X116456658Y-121969984D01*
X115629984Y-122796658D01*
X114980471Y-123768723D01*
X114533079Y-124848824D01*
X114305000Y-125995454D01*
X110900000Y-125995454D01*
X110900000Y-113929224D01*
X119070381Y-113929224D01*
X119202317Y-114224312D01*
X119543045Y-114395159D01*
X119910557Y-114496250D01*
X120290729Y-114523701D01*
X120668951Y-114476457D01*
X121030690Y-114356333D01*
X121277683Y-114224312D01*
X121409619Y-113929224D01*
X120240000Y-112759605D01*
X119070381Y-113929224D01*
X110900000Y-113929224D01*
X110900000Y-112630729D01*
X118296299Y-112630729D01*
X118343543Y-113008951D01*
X118463667Y-113370690D01*
X118595688Y-113617683D01*
X118890776Y-113749619D01*
X120060395Y-112580000D01*
X120419605Y-112580000D01*
X121589224Y-113749619D01*
X121884312Y-113617683D01*
X122055159Y-113276955D01*
X122156250Y-112909443D01*
X122183701Y-112529271D01*
X122136457Y-112151049D01*
X122016333Y-111789310D01*
X121884312Y-111542317D01*
X121589224Y-111410381D01*
X120419605Y-112580000D01*
X120060395Y-112580000D01*
X118890776Y-111410381D01*
X118595688Y-111542317D01*
X118424841Y-111883045D01*
X118323750Y-112250557D01*
X118296299Y-112630729D01*
X110900000Y-112630729D01*
X110900000Y-111230776D01*
X119070381Y-111230776D01*
X120240000Y-112400395D01*
X121409619Y-111230776D01*
X121277683Y-110935688D01*
X120936955Y-110764841D01*
X120569443Y-110663750D01*
X120189271Y-110636299D01*
X119811049Y-110683543D01*
X119449310Y-110803667D01*
X119202317Y-110935688D01*
X119070381Y-111230776D01*
X110900000Y-111230776D01*
X110900000Y-106280000D01*
X118301928Y-106280000D01*
X118301928Y-108880000D01*
X118314188Y-109004482D01*
X118350498Y-109124180D01*
X118409463Y-109234494D01*
X118488815Y-109331185D01*
X118585506Y-109410537D01*
X118695820Y-109469502D01*
X118815518Y-109505812D01*
X118940000Y-109518072D01*
X121540000Y-109518072D01*
X121664482Y-109505812D01*
X121784180Y-109469502D01*
X121894494Y-109410537D01*
X121991185Y-109331185D01*
X122070537Y-109234494D01*
X122129502Y-109124180D01*
X122165812Y-109004482D01*
X122178072Y-108880000D01*
X122178072Y-108815000D01*
X128439701Y-108815000D01*
X128439700Y-124449035D01*
X128433725Y-124509700D01*
X128457570Y-124751802D01*
X128487002Y-124848824D01*
X128528189Y-124984600D01*
X128642867Y-125199148D01*
X128797198Y-125387202D01*
X128844325Y-125425878D01*
X133321928Y-129903482D01*
X133321928Y-130395000D01*
X133334188Y-130519482D01*
X133370498Y-130639180D01*
X133429463Y-130749494D01*
X133508815Y-130846185D01*
X133605506Y-130925537D01*
X133715820Y-130984502D01*
X133835518Y-131020812D01*
X133960000Y-131033072D01*
X135560000Y-131033072D01*
X135684482Y-131020812D01*
X135804180Y-130984502D01*
X135914494Y-130925537D01*
X135930856Y-130912109D01*
X136079117Y-131060370D01*
X136117798Y-131107502D01*
X136305851Y-131261833D01*
X136520399Y-131376511D01*
X136753198Y-131447130D01*
X136995300Y-131470975D01*
X137055965Y-131465000D01*
X139105377Y-131465000D01*
X139160273Y-131501680D01*
X139421426Y-131609853D01*
X139698665Y-131665000D01*
X139981335Y-131665000D01*
X140258574Y-131609853D01*
X140519727Y-131501680D01*
X140754759Y-131344637D01*
X140954637Y-131144759D01*
X141111680Y-130909727D01*
X141219853Y-130648574D01*
X141275000Y-130371335D01*
X141275000Y-130088665D01*
X141219853Y-129811426D01*
X141111680Y-129550273D01*
X140954637Y-129315241D01*
X140754759Y-129115363D01*
X140519727Y-128958320D01*
X140509135Y-128953933D01*
X140695131Y-128842385D01*
X140903519Y-128653414D01*
X141071037Y-128427420D01*
X141191246Y-128173087D01*
X141231904Y-128039039D01*
X141109915Y-127817000D01*
X139967000Y-127817000D01*
X139967000Y-127837000D01*
X139713000Y-127837000D01*
X139713000Y-127817000D01*
X138570085Y-127817000D01*
X138448096Y-128039039D01*
X138488754Y-128173087D01*
X138608963Y-128427420D01*
X138776481Y-128653414D01*
X138984869Y-128842385D01*
X139170865Y-128953933D01*
X139160273Y-128958320D01*
X139105377Y-128995000D01*
X137506853Y-128995000D01*
X137276479Y-128764626D01*
X137237802Y-128717498D01*
X137049749Y-128563167D01*
X136835201Y-128448489D01*
X136602402Y-128377870D01*
X136420965Y-128360000D01*
X136360300Y-128354025D01*
X136299635Y-128360000D01*
X136024468Y-128360000D01*
X136011185Y-128343815D01*
X135914494Y-128264463D01*
X135804180Y-128205498D01*
X135684482Y-128169188D01*
X135560000Y-128156928D01*
X135552785Y-128156928D01*
X135573097Y-128087702D01*
X134760000Y-127274605D01*
X134745858Y-127288748D01*
X134566253Y-127109143D01*
X134580395Y-127095000D01*
X134939605Y-127095000D01*
X135752702Y-127908097D01*
X135996671Y-127836514D01*
X136117571Y-127581004D01*
X136186300Y-127306816D01*
X136200217Y-127024488D01*
X136158787Y-126744870D01*
X136063603Y-126478708D01*
X135996671Y-126353486D01*
X135752702Y-126281903D01*
X134939605Y-127095000D01*
X134580395Y-127095000D01*
X133767298Y-126281903D01*
X133523329Y-126353486D01*
X133440368Y-126528815D01*
X133013851Y-126102298D01*
X133946903Y-126102298D01*
X134760000Y-126915395D01*
X135573097Y-126102298D01*
X135501514Y-125858329D01*
X135246004Y-125737429D01*
X134971816Y-125668700D01*
X134689488Y-125654783D01*
X134409870Y-125696213D01*
X134143708Y-125791397D01*
X134018486Y-125858329D01*
X133946903Y-126102298D01*
X133013851Y-126102298D01*
X130909700Y-123998147D01*
X130909700Y-113840000D01*
X132507815Y-113840000D01*
X132536487Y-114131111D01*
X132621401Y-114411034D01*
X132759294Y-114669014D01*
X132944866Y-114895134D01*
X133170986Y-115080706D01*
X133188374Y-115090000D01*
X133170986Y-115099294D01*
X132944866Y-115284866D01*
X132759294Y-115510986D01*
X132621401Y-115768966D01*
X132536487Y-116048889D01*
X132507815Y-116340000D01*
X132536487Y-116631111D01*
X132621401Y-116911034D01*
X132759294Y-117169014D01*
X132944866Y-117395134D01*
X133170986Y-117580706D01*
X133188374Y-117590000D01*
X133170986Y-117599294D01*
X132944866Y-117784866D01*
X132759294Y-118010986D01*
X132621401Y-118268966D01*
X132536487Y-118548889D01*
X132507815Y-118840000D01*
X132536487Y-119131111D01*
X132621401Y-119411034D01*
X132759294Y-119669014D01*
X132944866Y-119895134D01*
X133008337Y-119947223D01*
X132906614Y-120001595D01*
X132772038Y-120112038D01*
X132661595Y-120246614D01*
X132579528Y-120400150D01*
X132528992Y-120566746D01*
X132511928Y-120740000D01*
X132511928Y-121940000D01*
X132528992Y-122113254D01*
X132579528Y-122279850D01*
X132661595Y-122433386D01*
X132772038Y-122567962D01*
X132906614Y-122678405D01*
X133060150Y-122760472D01*
X133226746Y-122811008D01*
X133400000Y-122828072D01*
X134850000Y-122828072D01*
X135023254Y-122811008D01*
X135189850Y-122760472D01*
X135343386Y-122678405D01*
X135477962Y-122567962D01*
X135588405Y-122433386D01*
X135670472Y-122279850D01*
X135721008Y-122113254D01*
X135738072Y-121940000D01*
X135738072Y-120740000D01*
X135721008Y-120566746D01*
X135670472Y-120400150D01*
X135588405Y-120246614D01*
X135477962Y-120112038D01*
X135343386Y-120001595D01*
X135241663Y-119947223D01*
X135305134Y-119895134D01*
X135490706Y-119669014D01*
X135628599Y-119411034D01*
X135713513Y-119131111D01*
X135742185Y-118840000D01*
X135713513Y-118548889D01*
X135628599Y-118268966D01*
X135490706Y-118010986D01*
X135305134Y-117784866D01*
X135079014Y-117599294D01*
X135061626Y-117590000D01*
X135079014Y-117580706D01*
X135305134Y-117395134D01*
X135490706Y-117169014D01*
X135566207Y-117027761D01*
X136898826Y-118360380D01*
X136937498Y-118407502D01*
X137125551Y-118561833D01*
X137280467Y-118644637D01*
X137340099Y-118676511D01*
X137572897Y-118747130D01*
X137814999Y-118770975D01*
X137875664Y-118765000D01*
X139105377Y-118765000D01*
X139157759Y-118800000D01*
X138925241Y-118955363D01*
X138725363Y-119155241D01*
X138568320Y-119390273D01*
X138460147Y-119651426D01*
X138405000Y-119928665D01*
X138405000Y-120211335D01*
X138460147Y-120488574D01*
X138568320Y-120749727D01*
X138725363Y-120984759D01*
X138925241Y-121184637D01*
X139157759Y-121340000D01*
X138925241Y-121495363D01*
X138725363Y-121695241D01*
X138568320Y-121930273D01*
X138460147Y-122191426D01*
X138405000Y-122468665D01*
X138405000Y-122751335D01*
X138460147Y-123028574D01*
X138568320Y-123289727D01*
X138725363Y-123524759D01*
X138925241Y-123724637D01*
X139157759Y-123880000D01*
X138925241Y-124035363D01*
X138725363Y-124235241D01*
X138568320Y-124470273D01*
X138460147Y-124731426D01*
X138405000Y-125008665D01*
X138405000Y-125291335D01*
X138460147Y-125568574D01*
X138568320Y-125829727D01*
X138725363Y-126064759D01*
X138925241Y-126264637D01*
X139160273Y-126421680D01*
X139170865Y-126426067D01*
X138984869Y-126537615D01*
X138776481Y-126726586D01*
X138608963Y-126952580D01*
X138488754Y-127206913D01*
X138448096Y-127340961D01*
X138570085Y-127563000D01*
X139713000Y-127563000D01*
X139713000Y-127543000D01*
X139967000Y-127543000D01*
X139967000Y-127563000D01*
X141109915Y-127563000D01*
X141231904Y-127340961D01*
X141191246Y-127206913D01*
X141071037Y-126952580D01*
X140903519Y-126726586D01*
X140695131Y-126537615D01*
X140509135Y-126426067D01*
X140519727Y-126421680D01*
X140754759Y-126264637D01*
X140954637Y-126064759D01*
X141111680Y-125829727D01*
X141219853Y-125568574D01*
X141275000Y-125291335D01*
X141275000Y-125008665D01*
X141219853Y-124731426D01*
X141111680Y-124470273D01*
X140954637Y-124235241D01*
X140754759Y-124035363D01*
X140522241Y-123880000D01*
X140754759Y-123724637D01*
X140954637Y-123524759D01*
X141111680Y-123289727D01*
X141219853Y-123028574D01*
X141275000Y-122751335D01*
X141275000Y-122468665D01*
X141219853Y-122191426D01*
X141111680Y-121930273D01*
X140954637Y-121695241D01*
X140754759Y-121495363D01*
X140522241Y-121340000D01*
X140754759Y-121184637D01*
X140954637Y-120984759D01*
X140968429Y-120964118D01*
X141000147Y-121123574D01*
X141108320Y-121384727D01*
X141265363Y-121619759D01*
X141465241Y-121819637D01*
X141700273Y-121976680D01*
X141961426Y-122084853D01*
X142238665Y-122140000D01*
X142521335Y-122140000D01*
X142798574Y-122084853D01*
X143059727Y-121976680D01*
X143294759Y-121819637D01*
X143383704Y-121730693D01*
X144891670Y-123238659D01*
X144920956Y-123274344D01*
X145063328Y-123391186D01*
X145225760Y-123478007D01*
X145402008Y-123531471D01*
X145585300Y-123549524D01*
X145631232Y-123545000D01*
X151445604Y-123545000D01*
X151625241Y-123724637D01*
X151857759Y-123880000D01*
X151625241Y-124035363D01*
X151425363Y-124235241D01*
X151268320Y-124470273D01*
X151160147Y-124731426D01*
X151105000Y-125008665D01*
X151105000Y-125291335D01*
X151160147Y-125568574D01*
X151268320Y-125829727D01*
X151425363Y-126064759D01*
X151605001Y-126244397D01*
X151605000Y-126595604D01*
X151425363Y-126775241D01*
X151268320Y-127010273D01*
X151160147Y-127271426D01*
X151105000Y-127548665D01*
X151105000Y-127831335D01*
X151160147Y-128108574D01*
X151268320Y-128369727D01*
X151425363Y-128604759D01*
X151625241Y-128804637D01*
X151857759Y-128960000D01*
X151625241Y-129115363D01*
X151425363Y-129315241D01*
X151268320Y-129550273D01*
X151160147Y-129811426D01*
X151105000Y-130088665D01*
X151105000Y-130371335D01*
X151160147Y-130648574D01*
X151268320Y-130909727D01*
X151425363Y-131144759D01*
X151625241Y-131344637D01*
X151860273Y-131501680D01*
X152121426Y-131609853D01*
X152398665Y-131665000D01*
X152681335Y-131665000D01*
X152958574Y-131609853D01*
X153219727Y-131501680D01*
X153454759Y-131344637D01*
X153654637Y-131144759D01*
X153758043Y-130990000D01*
X154436822Y-130990000D01*
X154561525Y-131176632D01*
X154768368Y-131383475D01*
X155011589Y-131545990D01*
X155281842Y-131657932D01*
X155568740Y-131715000D01*
X155861260Y-131715000D01*
X156148158Y-131657932D01*
X156418411Y-131545990D01*
X156661632Y-131383475D01*
X156868475Y-131176632D01*
X157030990Y-130933411D01*
X157142932Y-130663158D01*
X157200000Y-130376260D01*
X157200000Y-130083740D01*
X157142932Y-129796842D01*
X157030990Y-129526589D01*
X156868475Y-129283368D01*
X156661632Y-129076525D01*
X156487240Y-128960000D01*
X156661632Y-128843475D01*
X156868475Y-128636632D01*
X157030990Y-128393411D01*
X157142932Y-128123158D01*
X157200000Y-127836260D01*
X157200000Y-127543740D01*
X157142932Y-127256842D01*
X157030990Y-126986589D01*
X156868475Y-126743368D01*
X156736620Y-126611513D01*
X156809180Y-126589502D01*
X156919494Y-126530537D01*
X157016185Y-126451185D01*
X157095537Y-126354494D01*
X157154502Y-126244180D01*
X157190812Y-126124482D01*
X157203072Y-126000000D01*
X157203072Y-125995454D01*
X194305000Y-125995454D01*
X194305000Y-127164546D01*
X194533079Y-128311176D01*
X194980471Y-129391277D01*
X195629984Y-130363342D01*
X196456658Y-131190016D01*
X197428723Y-131839529D01*
X198508824Y-132286921D01*
X199655454Y-132515000D01*
X200824546Y-132515000D01*
X201971176Y-132286921D01*
X203051277Y-131839529D01*
X204023342Y-131190016D01*
X204850016Y-130363342D01*
X205499529Y-129391277D01*
X205946921Y-128311176D01*
X206175000Y-127164546D01*
X206175000Y-125995454D01*
X205946921Y-124848824D01*
X205499529Y-123768723D01*
X204850016Y-122796658D01*
X204023342Y-121969984D01*
X203051277Y-121320471D01*
X201971176Y-120873079D01*
X200824546Y-120645000D01*
X199655454Y-120645000D01*
X198508824Y-120873079D01*
X197428723Y-121320471D01*
X196456658Y-121969984D01*
X195629984Y-122796658D01*
X194980471Y-123768723D01*
X194533079Y-124848824D01*
X194305000Y-125995454D01*
X157203072Y-125995454D01*
X157203072Y-124300000D01*
X157190812Y-124175518D01*
X157154502Y-124055820D01*
X157095537Y-123945506D01*
X157016185Y-123848815D01*
X156919494Y-123769463D01*
X156809180Y-123710498D01*
X156689482Y-123674188D01*
X156565000Y-123661928D01*
X154865000Y-123661928D01*
X154740518Y-123674188D01*
X154620820Y-123710498D01*
X154510506Y-123769463D01*
X154413815Y-123848815D01*
X154334463Y-123945506D01*
X154275498Y-124055820D01*
X154239188Y-124175518D01*
X154226928Y-124300000D01*
X154226928Y-126000000D01*
X154239188Y-126124482D01*
X154275498Y-126244180D01*
X154334463Y-126354494D01*
X154413815Y-126451185D01*
X154510506Y-126530537D01*
X154620820Y-126589502D01*
X154693380Y-126611513D01*
X154561525Y-126743368D01*
X154399010Y-126986589D01*
X154287068Y-127256842D01*
X154230000Y-127543740D01*
X154230000Y-127836260D01*
X154287068Y-128123158D01*
X154399010Y-128393411D01*
X154561525Y-128636632D01*
X154768368Y-128843475D01*
X154942760Y-128960000D01*
X154768368Y-129076525D01*
X154561525Y-129283368D01*
X154436822Y-129470000D01*
X153758043Y-129470000D01*
X153654637Y-129315241D01*
X153454759Y-129115363D01*
X153222241Y-128960000D01*
X153454759Y-128804637D01*
X153654637Y-128604759D01*
X153811680Y-128369727D01*
X153919853Y-128108574D01*
X153975000Y-127831335D01*
X153975000Y-127548665D01*
X153919853Y-127271426D01*
X153811680Y-127010273D01*
X153654637Y-126775241D01*
X153475000Y-126595604D01*
X153475000Y-126244396D01*
X153654637Y-126064759D01*
X153811680Y-125829727D01*
X153919853Y-125568574D01*
X153975000Y-125291335D01*
X153975000Y-125008665D01*
X153919853Y-124731426D01*
X153811680Y-124470273D01*
X153654637Y-124235241D01*
X153454759Y-124035363D01*
X153222241Y-123880000D01*
X153454759Y-123724637D01*
X153654637Y-123524759D01*
X153811680Y-123289727D01*
X153919853Y-123028574D01*
X153975000Y-122751335D01*
X153975000Y-122468665D01*
X153919853Y-122191426D01*
X153811680Y-121930273D01*
X153654637Y-121695241D01*
X153454759Y-121495363D01*
X153222241Y-121340000D01*
X153454759Y-121184637D01*
X153654637Y-120984759D01*
X153811680Y-120749727D01*
X153919853Y-120488574D01*
X153975000Y-120211335D01*
X153975000Y-119928665D01*
X153919853Y-119651426D01*
X153811680Y-119390273D01*
X153654637Y-119155241D01*
X153454759Y-118955363D01*
X153222241Y-118800000D01*
X153454759Y-118644637D01*
X153654637Y-118444759D01*
X153811680Y-118209727D01*
X153919853Y-117948574D01*
X153975000Y-117671335D01*
X153975000Y-117388665D01*
X153919853Y-117111426D01*
X153811680Y-116850273D01*
X153654637Y-116615241D01*
X153454759Y-116415363D01*
X153222241Y-116260000D01*
X153454759Y-116104637D01*
X153654637Y-115904759D01*
X153811680Y-115669727D01*
X153919853Y-115408574D01*
X153975000Y-115131335D01*
X153975000Y-114848665D01*
X153919853Y-114571426D01*
X153891246Y-114502363D01*
X153896276Y-114499674D01*
X154012001Y-114404701D01*
X154035804Y-114375697D01*
X163753490Y-104658012D01*
X163764010Y-104683411D01*
X163926525Y-104926632D01*
X164133368Y-105133475D01*
X164307760Y-105250000D01*
X164133368Y-105366525D01*
X163926525Y-105573368D01*
X163764010Y-105816589D01*
X163652068Y-106086842D01*
X163595000Y-106373740D01*
X163595000Y-106666260D01*
X163652068Y-106953158D01*
X163764010Y-107223411D01*
X163926525Y-107466632D01*
X164133368Y-107673475D01*
X164307760Y-107790000D01*
X164133368Y-107906525D01*
X163926525Y-108113368D01*
X163764010Y-108356589D01*
X163652068Y-108626842D01*
X163595000Y-108913740D01*
X163595000Y-109206260D01*
X163652068Y-109493158D01*
X163764010Y-109763411D01*
X163926525Y-110006632D01*
X164133368Y-110213475D01*
X164307760Y-110330000D01*
X164133368Y-110446525D01*
X163926525Y-110653368D01*
X163764010Y-110896589D01*
X163652068Y-111166842D01*
X163595000Y-111453740D01*
X163595000Y-111746260D01*
X163652068Y-112033158D01*
X163764010Y-112303411D01*
X163926525Y-112546632D01*
X164133368Y-112753475D01*
X164307760Y-112870000D01*
X164133368Y-112986525D01*
X163926525Y-113193368D01*
X163764010Y-113436589D01*
X163652068Y-113706842D01*
X163595000Y-113993740D01*
X163595000Y-114286260D01*
X163652068Y-114573158D01*
X163764010Y-114843411D01*
X163926525Y-115086632D01*
X164133368Y-115293475D01*
X164376589Y-115455990D01*
X164646842Y-115567932D01*
X164933740Y-115625000D01*
X165226260Y-115625000D01*
X165513158Y-115567932D01*
X165783411Y-115455990D01*
X166026632Y-115293475D01*
X166233475Y-115086632D01*
X166358178Y-114900000D01*
X168881822Y-114900000D01*
X169006525Y-115086632D01*
X169213368Y-115293475D01*
X169456589Y-115455990D01*
X169726842Y-115567932D01*
X170013740Y-115625000D01*
X170306260Y-115625000D01*
X170593158Y-115567932D01*
X170863411Y-115455990D01*
X171106632Y-115293475D01*
X171313475Y-115086632D01*
X171438178Y-114900000D01*
X174021957Y-114900000D01*
X174125363Y-115054759D01*
X174325241Y-115254637D01*
X174560273Y-115411680D01*
X174821426Y-115519853D01*
X175098665Y-115575000D01*
X175381335Y-115575000D01*
X175658574Y-115519853D01*
X175919727Y-115411680D01*
X176154759Y-115254637D01*
X176354637Y-115054759D01*
X176511680Y-114819727D01*
X176619853Y-114558574D01*
X176675000Y-114281335D01*
X176675000Y-113998665D01*
X176619853Y-113721426D01*
X176511680Y-113460273D01*
X176354637Y-113225241D01*
X176154759Y-113025363D01*
X175922241Y-112870000D01*
X176154759Y-112714637D01*
X176354637Y-112514759D01*
X176511680Y-112279727D01*
X176619853Y-112018574D01*
X176675000Y-111741335D01*
X176675000Y-111458665D01*
X176619853Y-111181426D01*
X176511680Y-110920273D01*
X176354637Y-110685241D01*
X176154759Y-110485363D01*
X175922241Y-110330000D01*
X176154759Y-110174637D01*
X176354637Y-109974759D01*
X176511680Y-109739727D01*
X176619853Y-109478574D01*
X176675000Y-109201335D01*
X176675000Y-108918665D01*
X176619853Y-108641426D01*
X176511680Y-108380273D01*
X176354637Y-108145241D01*
X176154759Y-107945363D01*
X175922241Y-107790000D01*
X176154759Y-107634637D01*
X176354637Y-107434759D01*
X176511680Y-107199727D01*
X176619853Y-106938574D01*
X176675000Y-106661335D01*
X176675000Y-106378665D01*
X176619853Y-106101426D01*
X176511680Y-105840273D01*
X176354637Y-105605241D01*
X176154759Y-105405363D01*
X175922241Y-105250000D01*
X176154759Y-105094637D01*
X176354637Y-104894759D01*
X176511680Y-104659727D01*
X176619853Y-104398574D01*
X176675000Y-104121335D01*
X176675000Y-103838665D01*
X176619853Y-103561426D01*
X176581983Y-103470000D01*
X177887378Y-103470000D01*
X177924700Y-103473676D01*
X177962022Y-103470000D01*
X177962033Y-103470000D01*
X178073686Y-103459003D01*
X178216947Y-103415546D01*
X178348976Y-103344974D01*
X178464701Y-103250001D01*
X178488504Y-103220997D01*
X189440053Y-92269449D01*
X189565241Y-92394637D01*
X189797759Y-92550000D01*
X189565241Y-92705363D01*
X189365363Y-92905241D01*
X189208320Y-93140273D01*
X189100147Y-93401426D01*
X189045000Y-93678665D01*
X189045000Y-93961335D01*
X189100147Y-94238574D01*
X189208320Y-94499727D01*
X189365363Y-94734759D01*
X189565241Y-94934637D01*
X189797759Y-95090000D01*
X189565241Y-95245363D01*
X189365363Y-95445241D01*
X189208320Y-95680273D01*
X189100147Y-95941426D01*
X189045000Y-96218665D01*
X189045000Y-96501335D01*
X189100147Y-96778574D01*
X189208320Y-97039727D01*
X189365363Y-97274759D01*
X189565241Y-97474637D01*
X189797759Y-97630000D01*
X189565241Y-97785363D01*
X189365363Y-97985241D01*
X189208320Y-98220273D01*
X189100147Y-98481426D01*
X189045000Y-98758665D01*
X189045000Y-99041335D01*
X189100147Y-99318574D01*
X189208320Y-99579727D01*
X189365363Y-99814759D01*
X189565241Y-100014637D01*
X189797759Y-100170000D01*
X189565241Y-100325363D01*
X189365363Y-100525241D01*
X189208320Y-100760273D01*
X189100147Y-101021426D01*
X189045000Y-101298665D01*
X189045000Y-101581335D01*
X189100147Y-101858574D01*
X189208320Y-102119727D01*
X189365363Y-102354759D01*
X189565241Y-102554637D01*
X189797759Y-102710000D01*
X189565241Y-102865363D01*
X189365363Y-103065241D01*
X189208320Y-103300273D01*
X189100147Y-103561426D01*
X189045000Y-103838665D01*
X189045000Y-104121335D01*
X189100147Y-104398574D01*
X189208320Y-104659727D01*
X189365363Y-104894759D01*
X189565241Y-105094637D01*
X189797759Y-105250000D01*
X189565241Y-105405363D01*
X189365363Y-105605241D01*
X189208320Y-105840273D01*
X189100147Y-106101426D01*
X189045000Y-106378665D01*
X189045000Y-106661335D01*
X189100147Y-106938574D01*
X189208320Y-107199727D01*
X189365363Y-107434759D01*
X189565241Y-107634637D01*
X189797759Y-107790000D01*
X189565241Y-107945363D01*
X189365363Y-108145241D01*
X189208320Y-108380273D01*
X189100147Y-108641426D01*
X189045000Y-108918665D01*
X189045000Y-109201335D01*
X189100147Y-109478574D01*
X189208320Y-109739727D01*
X189365363Y-109974759D01*
X189565241Y-110174637D01*
X189797759Y-110330000D01*
X189565241Y-110485363D01*
X189365363Y-110685241D01*
X189208320Y-110920273D01*
X189100147Y-111181426D01*
X189045000Y-111458665D01*
X189045000Y-111741335D01*
X189100147Y-112018574D01*
X189208320Y-112279727D01*
X189365363Y-112514759D01*
X189565241Y-112714637D01*
X189797759Y-112870000D01*
X189565241Y-113025363D01*
X189365363Y-113225241D01*
X189208320Y-113460273D01*
X189100147Y-113721426D01*
X189045000Y-113998665D01*
X189045000Y-114281335D01*
X189100147Y-114558574D01*
X189208320Y-114819727D01*
X189365363Y-115054759D01*
X189565241Y-115254637D01*
X189800273Y-115411680D01*
X190061426Y-115519853D01*
X190338665Y-115575000D01*
X190621335Y-115575000D01*
X190898574Y-115519853D01*
X191159727Y-115411680D01*
X191394759Y-115254637D01*
X191594637Y-115054759D01*
X191698043Y-114900000D01*
X194071928Y-114900000D01*
X194071928Y-114990000D01*
X194084188Y-115114482D01*
X194120498Y-115234180D01*
X194179463Y-115344494D01*
X194258815Y-115441185D01*
X194355506Y-115520537D01*
X194465820Y-115579502D01*
X194585518Y-115615812D01*
X194710000Y-115628072D01*
X196410000Y-115628072D01*
X196534482Y-115615812D01*
X196654180Y-115579502D01*
X196764494Y-115520537D01*
X196861185Y-115441185D01*
X196940537Y-115344494D01*
X196999502Y-115234180D01*
X197035812Y-115114482D01*
X197048072Y-114990000D01*
X197048072Y-114900000D01*
X199151928Y-114900000D01*
X199151928Y-114990000D01*
X199164188Y-115114482D01*
X199200498Y-115234180D01*
X199259463Y-115344494D01*
X199338815Y-115441185D01*
X199435506Y-115520537D01*
X199545820Y-115579502D01*
X199665518Y-115615812D01*
X199790000Y-115628072D01*
X201490000Y-115628072D01*
X201614482Y-115615812D01*
X201734180Y-115579502D01*
X201844494Y-115520537D01*
X201941185Y-115441185D01*
X202020537Y-115344494D01*
X202079502Y-115234180D01*
X202115812Y-115114482D01*
X202128072Y-114990000D01*
X202128072Y-113290000D01*
X202115812Y-113165518D01*
X202079502Y-113045820D01*
X202020537Y-112935506D01*
X201941185Y-112838815D01*
X201844494Y-112759463D01*
X201734180Y-112700498D01*
X201661620Y-112678487D01*
X201793475Y-112546632D01*
X201955990Y-112303411D01*
X202067932Y-112033158D01*
X202125000Y-111746260D01*
X202125000Y-111453740D01*
X202067932Y-111166842D01*
X201955990Y-110896589D01*
X201793475Y-110653368D01*
X201586632Y-110446525D01*
X201412240Y-110330000D01*
X201586632Y-110213475D01*
X201793475Y-110006632D01*
X201955990Y-109763411D01*
X202067932Y-109493158D01*
X202125000Y-109206260D01*
X202125000Y-108913740D01*
X202067932Y-108626842D01*
X201955990Y-108356589D01*
X201793475Y-108113368D01*
X201586632Y-107906525D01*
X201412240Y-107790000D01*
X201586632Y-107673475D01*
X201793475Y-107466632D01*
X201955990Y-107223411D01*
X202067932Y-106953158D01*
X202125000Y-106666260D01*
X202125000Y-106373740D01*
X202067932Y-106086842D01*
X201955990Y-105816589D01*
X201793475Y-105573368D01*
X201586632Y-105366525D01*
X201412240Y-105250000D01*
X201586632Y-105133475D01*
X201793475Y-104926632D01*
X201955990Y-104683411D01*
X202067932Y-104413158D01*
X202125000Y-104126260D01*
X202125000Y-103833740D01*
X202067932Y-103546842D01*
X201955990Y-103276589D01*
X201793475Y-103033368D01*
X201586632Y-102826525D01*
X201412240Y-102710000D01*
X201586632Y-102593475D01*
X201793475Y-102386632D01*
X201955990Y-102143411D01*
X202067932Y-101873158D01*
X202125000Y-101586260D01*
X202125000Y-101293740D01*
X202067932Y-101006842D01*
X201955990Y-100736589D01*
X201793475Y-100493368D01*
X201586632Y-100286525D01*
X201412240Y-100170000D01*
X201586632Y-100053475D01*
X201793475Y-99846632D01*
X201955990Y-99603411D01*
X202067932Y-99333158D01*
X202125000Y-99046260D01*
X202125000Y-98753740D01*
X202067932Y-98466842D01*
X201955990Y-98196589D01*
X201793475Y-97953368D01*
X201586632Y-97746525D01*
X201412240Y-97630000D01*
X201586632Y-97513475D01*
X201793475Y-97306632D01*
X201955990Y-97063411D01*
X202067932Y-96793158D01*
X202125000Y-96506260D01*
X202125000Y-96213740D01*
X202067932Y-95926842D01*
X201955990Y-95656589D01*
X201793475Y-95413368D01*
X201586632Y-95206525D01*
X201412240Y-95090000D01*
X201586632Y-94973475D01*
X201793475Y-94766632D01*
X201955990Y-94523411D01*
X202067932Y-94253158D01*
X202125000Y-93966260D01*
X202125000Y-93673740D01*
X202067932Y-93386842D01*
X201955990Y-93116589D01*
X201793475Y-92873368D01*
X201586632Y-92666525D01*
X201412240Y-92550000D01*
X201586632Y-92433475D01*
X201793475Y-92226632D01*
X201955990Y-91983411D01*
X202067932Y-91713158D01*
X202125000Y-91426260D01*
X202125000Y-91133740D01*
X202067932Y-90846842D01*
X201955990Y-90576589D01*
X201793475Y-90333368D01*
X201586632Y-90126525D01*
X201412240Y-90010000D01*
X201586632Y-89893475D01*
X201793475Y-89686632D01*
X201955990Y-89443411D01*
X202067932Y-89173158D01*
X202125000Y-88886260D01*
X202125000Y-88593740D01*
X202067932Y-88306842D01*
X201955990Y-88036589D01*
X201793475Y-87793368D01*
X201586632Y-87586525D01*
X201412240Y-87470000D01*
X201586632Y-87353475D01*
X201793475Y-87146632D01*
X201955990Y-86903411D01*
X202067932Y-86633158D01*
X202125000Y-86346260D01*
X202125000Y-86053740D01*
X202067932Y-85766842D01*
X201955990Y-85496589D01*
X201793475Y-85253368D01*
X201586632Y-85046525D01*
X201412240Y-84930000D01*
X201586632Y-84813475D01*
X201793475Y-84606632D01*
X201955990Y-84363411D01*
X202067932Y-84093158D01*
X202125000Y-83806260D01*
X202125000Y-83513740D01*
X202067932Y-83226842D01*
X201955990Y-82956589D01*
X201793475Y-82713368D01*
X201586632Y-82506525D01*
X201404466Y-82384805D01*
X201521355Y-82315178D01*
X201737588Y-82120269D01*
X201911641Y-81886920D01*
X202036825Y-81624099D01*
X202081476Y-81476890D01*
X201960155Y-81247000D01*
X200767000Y-81247000D01*
X200767000Y-81267000D01*
X200513000Y-81267000D01*
X200513000Y-81247000D01*
X199319845Y-81247000D01*
X199198524Y-81476890D01*
X199243175Y-81624099D01*
X199368359Y-81886920D01*
X199542412Y-82120269D01*
X199758645Y-82315178D01*
X199875534Y-82384805D01*
X199693368Y-82506525D01*
X199486525Y-82713368D01*
X199361822Y-82900000D01*
X196838178Y-82900000D01*
X196713475Y-82713368D01*
X196506632Y-82506525D01*
X196324466Y-82384805D01*
X196441355Y-82315178D01*
X196657588Y-82120269D01*
X196831641Y-81886920D01*
X196956825Y-81624099D01*
X197001476Y-81476890D01*
X196880155Y-81247000D01*
X195687000Y-81247000D01*
X195687000Y-81267000D01*
X195433000Y-81267000D01*
X195433000Y-81247000D01*
X194239845Y-81247000D01*
X194118524Y-81476890D01*
X194163175Y-81624099D01*
X194288359Y-81886920D01*
X194462412Y-82120269D01*
X194678645Y-82315178D01*
X194795534Y-82384805D01*
X194613368Y-82506525D01*
X194406525Y-82713368D01*
X194281822Y-82900000D01*
X191698043Y-82900000D01*
X191594637Y-82745241D01*
X191394759Y-82545363D01*
X191159727Y-82388320D01*
X191149135Y-82383933D01*
X191335131Y-82272385D01*
X191543519Y-82083414D01*
X191711037Y-81857420D01*
X191831246Y-81603087D01*
X191871904Y-81469039D01*
X191749915Y-81247000D01*
X190607000Y-81247000D01*
X190607000Y-81267000D01*
X190353000Y-81267000D01*
X190353000Y-81247000D01*
X189210085Y-81247000D01*
X189088096Y-81469039D01*
X189128754Y-81603087D01*
X189248963Y-81857420D01*
X189416481Y-82083414D01*
X189624869Y-82272385D01*
X189810865Y-82383933D01*
X189800273Y-82388320D01*
X189565241Y-82545363D01*
X189365363Y-82745241D01*
X189208320Y-82980273D01*
X189100147Y-83241426D01*
X189045000Y-83518665D01*
X189045000Y-83801335D01*
X189100147Y-84078574D01*
X189208320Y-84339727D01*
X189365363Y-84574759D01*
X189565241Y-84774637D01*
X189797759Y-84930000D01*
X189565241Y-85085363D01*
X189365363Y-85285241D01*
X189208320Y-85520273D01*
X189100147Y-85781426D01*
X189045000Y-86058665D01*
X189045000Y-86341335D01*
X189100147Y-86618574D01*
X189208320Y-86879727D01*
X189365363Y-87114759D01*
X189565241Y-87314637D01*
X189797759Y-87470000D01*
X189565241Y-87625363D01*
X189365363Y-87825241D01*
X189258053Y-87985842D01*
X189205714Y-87990997D01*
X189062453Y-88034454D01*
X188930423Y-88105026D01*
X188846783Y-88173668D01*
X188814699Y-88199999D01*
X188790901Y-88228997D01*
X177609899Y-99410000D01*
X176581983Y-99410000D01*
X176619853Y-99318574D01*
X176675000Y-99041335D01*
X176675000Y-98758665D01*
X176619853Y-98481426D01*
X176511680Y-98220273D01*
X176354637Y-97985241D01*
X176154759Y-97785363D01*
X175922241Y-97630000D01*
X176154759Y-97474637D01*
X176354637Y-97274759D01*
X176511680Y-97039727D01*
X176619853Y-96778574D01*
X176675000Y-96501335D01*
X176675000Y-96218665D01*
X176619853Y-95941426D01*
X176511680Y-95680273D01*
X176354637Y-95445241D01*
X176154759Y-95245363D01*
X175922241Y-95090000D01*
X176154759Y-94934637D01*
X176354637Y-94734759D01*
X176511680Y-94499727D01*
X176619853Y-94238574D01*
X176675000Y-93961335D01*
X176675000Y-93678665D01*
X176619853Y-93401426D01*
X176511680Y-93140273D01*
X176354637Y-92905241D01*
X176154759Y-92705363D01*
X175922241Y-92550000D01*
X176154759Y-92394637D01*
X176354637Y-92194759D01*
X176511680Y-91959727D01*
X176619853Y-91698574D01*
X176675000Y-91421335D01*
X176675000Y-91138665D01*
X176619853Y-90861426D01*
X176511680Y-90600273D01*
X176354637Y-90365241D01*
X176154759Y-90165363D01*
X175922241Y-90010000D01*
X176154759Y-89854637D01*
X176354637Y-89654759D01*
X176511680Y-89419727D01*
X176619853Y-89158574D01*
X176675000Y-88881335D01*
X176675000Y-88598665D01*
X176619853Y-88321426D01*
X176511680Y-88060273D01*
X176354637Y-87825241D01*
X176154759Y-87625363D01*
X175919727Y-87468320D01*
X175909135Y-87463933D01*
X176095131Y-87352385D01*
X176303519Y-87163414D01*
X176471037Y-86937420D01*
X176591246Y-86683087D01*
X176631904Y-86549039D01*
X176509915Y-86327000D01*
X175367000Y-86327000D01*
X175367000Y-86347000D01*
X175113000Y-86347000D01*
X175113000Y-86327000D01*
X173970085Y-86327000D01*
X173848096Y-86549039D01*
X173888754Y-86683087D01*
X174008963Y-86937420D01*
X174176481Y-87163414D01*
X174384869Y-87352385D01*
X174570865Y-87463933D01*
X174560273Y-87468320D01*
X174325241Y-87625363D01*
X174125363Y-87825241D01*
X174021957Y-87980000D01*
X171438178Y-87980000D01*
X171313475Y-87793368D01*
X171106632Y-87586525D01*
X170924466Y-87464805D01*
X171041355Y-87395178D01*
X171257588Y-87200269D01*
X171431641Y-86966920D01*
X171556825Y-86704099D01*
X171601476Y-86556890D01*
X171480155Y-86327000D01*
X170287000Y-86327000D01*
X170287000Y-86347000D01*
X170033000Y-86347000D01*
X170033000Y-86327000D01*
X168839845Y-86327000D01*
X168718524Y-86556890D01*
X168763175Y-86704099D01*
X168888359Y-86966920D01*
X169062412Y-87200269D01*
X169278645Y-87395178D01*
X169395534Y-87464805D01*
X169213368Y-87586525D01*
X169006525Y-87793368D01*
X168881822Y-87980000D01*
X166358178Y-87980000D01*
X166233475Y-87793368D01*
X166026632Y-87586525D01*
X165844466Y-87464805D01*
X165961355Y-87395178D01*
X166177588Y-87200269D01*
X166351641Y-86966920D01*
X166476825Y-86704099D01*
X166521476Y-86556890D01*
X166400155Y-86327000D01*
X165207000Y-86327000D01*
X165207000Y-86347000D01*
X164953000Y-86347000D01*
X164953000Y-86327000D01*
X163759845Y-86327000D01*
X163638524Y-86556890D01*
X163683175Y-86704099D01*
X163808359Y-86966920D01*
X163982412Y-87200269D01*
X164198645Y-87395178D01*
X164315534Y-87464805D01*
X164133368Y-87586525D01*
X163926525Y-87793368D01*
X163764010Y-88036589D01*
X163652068Y-88306842D01*
X163595000Y-88593740D01*
X163595000Y-88886260D01*
X163652068Y-89173158D01*
X163764010Y-89443411D01*
X163926525Y-89686632D01*
X164133368Y-89893475D01*
X164307760Y-90010000D01*
X164133368Y-90126525D01*
X163926525Y-90333368D01*
X163764010Y-90576589D01*
X163652068Y-90846842D01*
X163595000Y-91133740D01*
X163595000Y-91426260D01*
X163652068Y-91713158D01*
X163764010Y-91983411D01*
X163926525Y-92226632D01*
X164133368Y-92433475D01*
X164307760Y-92550000D01*
X164133368Y-92666525D01*
X163926525Y-92873368D01*
X163764010Y-93116589D01*
X163652068Y-93386842D01*
X163595000Y-93673740D01*
X163595000Y-93966260D01*
X163652068Y-94253158D01*
X163764010Y-94523411D01*
X163926525Y-94766632D01*
X164133368Y-94973475D01*
X164307760Y-95090000D01*
X164133368Y-95206525D01*
X163926525Y-95413368D01*
X163764010Y-95656589D01*
X163652068Y-95926842D01*
X163595000Y-96213740D01*
X163595000Y-96506260D01*
X163652068Y-96793158D01*
X163764010Y-97063411D01*
X163926525Y-97306632D01*
X164133368Y-97513475D01*
X164307760Y-97630000D01*
X164133368Y-97746525D01*
X163926525Y-97953368D01*
X163764010Y-98196589D01*
X163652068Y-98466842D01*
X163595000Y-98753740D01*
X163595000Y-99046260D01*
X163652068Y-99333158D01*
X163682857Y-99407490D01*
X163657376Y-99410000D01*
X163657367Y-99410000D01*
X163545714Y-99420997D01*
X163402453Y-99464454D01*
X163270423Y-99535026D01*
X163187097Y-99603411D01*
X163154699Y-99629999D01*
X163130901Y-99658997D01*
X152028998Y-110760901D01*
X152000000Y-110784699D01*
X151976202Y-110813697D01*
X151976201Y-110813698D01*
X151905026Y-110900424D01*
X151834454Y-111032454D01*
X151808061Y-111119463D01*
X151790998Y-111175714D01*
X151788723Y-111198815D01*
X151785843Y-111228052D01*
X151625241Y-111335363D01*
X151425363Y-111535241D01*
X151268320Y-111770273D01*
X151160147Y-112031426D01*
X151105000Y-112308665D01*
X151105000Y-112591335D01*
X151160147Y-112868574D01*
X151268320Y-113129727D01*
X151425363Y-113364759D01*
X151625241Y-113564637D01*
X151801167Y-113682187D01*
X151790997Y-113715714D01*
X151785842Y-113768053D01*
X151625241Y-113875363D01*
X151425363Y-114075241D01*
X151268320Y-114310273D01*
X151160147Y-114571426D01*
X151105000Y-114848665D01*
X151105000Y-115131335D01*
X151160147Y-115408574D01*
X151268320Y-115669727D01*
X151425363Y-115904759D01*
X151625241Y-116104637D01*
X151857759Y-116260000D01*
X151625241Y-116415363D01*
X151425363Y-116615241D01*
X151268320Y-116850273D01*
X151160147Y-117111426D01*
X151105000Y-117388665D01*
X151105000Y-117671335D01*
X151160147Y-117948574D01*
X151268320Y-118209727D01*
X151425363Y-118444759D01*
X151625241Y-118644637D01*
X151857759Y-118800000D01*
X151625241Y-118955363D01*
X151425363Y-119155241D01*
X151318053Y-119315842D01*
X151265714Y-119320997D01*
X151122453Y-119364454D01*
X150990424Y-119435026D01*
X150874699Y-119529999D01*
X150856892Y-119551697D01*
X150679727Y-119433320D01*
X150418574Y-119325147D01*
X150141335Y-119270000D01*
X149858665Y-119270000D01*
X149581426Y-119325147D01*
X149320273Y-119433320D01*
X149085241Y-119590363D01*
X148885363Y-119790241D01*
X148728320Y-120025273D01*
X148620147Y-120286426D01*
X148565000Y-120563665D01*
X148565000Y-120846335D01*
X148620147Y-121123574D01*
X148728320Y-121384727D01*
X148885363Y-121619759D01*
X148940604Y-121675000D01*
X145972589Y-121675000D01*
X144373930Y-120076341D01*
X144344644Y-120040656D01*
X144202272Y-119923814D01*
X144039840Y-119836993D01*
X143863592Y-119783529D01*
X143726232Y-119770000D01*
X143680300Y-119765476D01*
X143634368Y-119770000D01*
X143474396Y-119770000D01*
X143294759Y-119590363D01*
X143059727Y-119433320D01*
X142798574Y-119325147D01*
X142521335Y-119270000D01*
X142238665Y-119270000D01*
X141961426Y-119325147D01*
X141700273Y-119433320D01*
X141465241Y-119590363D01*
X141265363Y-119790241D01*
X141251571Y-119810882D01*
X141219853Y-119651426D01*
X141111680Y-119390273D01*
X140954637Y-119155241D01*
X140754759Y-118955363D01*
X140522241Y-118800000D01*
X140754759Y-118644637D01*
X140954637Y-118444759D01*
X141111680Y-118209727D01*
X141219853Y-117948574D01*
X141275000Y-117671335D01*
X141275000Y-117388665D01*
X141219853Y-117111426D01*
X141111680Y-116850273D01*
X140954637Y-116615241D01*
X140754759Y-116415363D01*
X140522241Y-116260000D01*
X140754759Y-116104637D01*
X140954637Y-115904759D01*
X141111680Y-115669727D01*
X141219853Y-115408574D01*
X141275000Y-115131335D01*
X141275000Y-114848665D01*
X141219853Y-114571426D01*
X141111680Y-114310273D01*
X140954637Y-114075241D01*
X140756039Y-113876643D01*
X140764482Y-113875812D01*
X140884180Y-113839502D01*
X140994494Y-113780537D01*
X141091185Y-113701185D01*
X141170537Y-113604494D01*
X141229502Y-113494180D01*
X141265812Y-113374482D01*
X141278072Y-113250000D01*
X141275000Y-112735750D01*
X141116250Y-112577000D01*
X139967000Y-112577000D01*
X139967000Y-112597000D01*
X139713000Y-112597000D01*
X139713000Y-112577000D01*
X138563750Y-112577000D01*
X138405000Y-112735750D01*
X138401928Y-113250000D01*
X138414188Y-113374482D01*
X138450498Y-113494180D01*
X138509463Y-113604494D01*
X138588815Y-113701185D01*
X138685506Y-113780537D01*
X138795820Y-113839502D01*
X138915518Y-113875812D01*
X138923961Y-113876643D01*
X138725363Y-114075241D01*
X138568320Y-114310273D01*
X138460147Y-114571426D01*
X138405000Y-114848665D01*
X138405000Y-115131335D01*
X138460147Y-115408574D01*
X138568320Y-115669727D01*
X138725363Y-115904759D01*
X138925241Y-116104637D01*
X139157759Y-116260000D01*
X139105377Y-116295000D01*
X138326554Y-116295000D01*
X135728051Y-113696498D01*
X135713513Y-113548889D01*
X135628599Y-113268966D01*
X135490706Y-113010986D01*
X135305134Y-112784866D01*
X135079014Y-112599294D01*
X134821034Y-112461401D01*
X134541111Y-112376487D01*
X134322950Y-112355000D01*
X133927050Y-112355000D01*
X133708889Y-112376487D01*
X133428966Y-112461401D01*
X133170986Y-112599294D01*
X132944866Y-112784866D01*
X132759294Y-113010986D01*
X132621401Y-113268966D01*
X132536487Y-113548889D01*
X132507815Y-113840000D01*
X130909700Y-113840000D01*
X130909700Y-111650000D01*
X138401928Y-111650000D01*
X138405000Y-112164250D01*
X138563750Y-112323000D01*
X139713000Y-112323000D01*
X139713000Y-111173750D01*
X139967000Y-111173750D01*
X139967000Y-112323000D01*
X141116250Y-112323000D01*
X141275000Y-112164250D01*
X141278072Y-111650000D01*
X141265812Y-111525518D01*
X141229502Y-111405820D01*
X141170537Y-111295506D01*
X141091185Y-111198815D01*
X140994494Y-111119463D01*
X140884180Y-111060498D01*
X140764482Y-111024188D01*
X140640000Y-111011928D01*
X140125750Y-111015000D01*
X139967000Y-111173750D01*
X139713000Y-111173750D01*
X139554250Y-111015000D01*
X139040000Y-111011928D01*
X138915518Y-111024188D01*
X138795820Y-111060498D01*
X138685506Y-111119463D01*
X138588815Y-111198815D01*
X138509463Y-111295506D01*
X138450498Y-111405820D01*
X138414188Y-111525518D01*
X138401928Y-111650000D01*
X130909700Y-111650000D01*
X130909700Y-108091553D01*
X133589144Y-105412109D01*
X133605506Y-105425537D01*
X133715820Y-105484502D01*
X133835518Y-105520812D01*
X133960000Y-105533072D01*
X135560000Y-105533072D01*
X135684482Y-105520812D01*
X135804180Y-105484502D01*
X135914494Y-105425537D01*
X136011185Y-105346185D01*
X136090537Y-105249494D01*
X136149502Y-105139180D01*
X136185812Y-105019482D01*
X136198072Y-104895000D01*
X136198072Y-104588665D01*
X138405000Y-104588665D01*
X138405000Y-104871335D01*
X138460147Y-105148574D01*
X138568320Y-105409727D01*
X138725363Y-105644759D01*
X138925241Y-105844637D01*
X139160273Y-106001680D01*
X139421426Y-106109853D01*
X139698665Y-106165000D01*
X139981335Y-106165000D01*
X140258574Y-106109853D01*
X140519727Y-106001680D01*
X140754759Y-105844637D01*
X140954637Y-105644759D01*
X141111680Y-105409727D01*
X141219853Y-105148574D01*
X141275000Y-104871335D01*
X141275000Y-104588665D01*
X141219853Y-104311426D01*
X141111680Y-104050273D01*
X140954637Y-103815241D01*
X140754759Y-103615363D01*
X140519727Y-103458320D01*
X140509135Y-103453933D01*
X140695131Y-103342385D01*
X140903519Y-103153414D01*
X141071037Y-102927420D01*
X141191246Y-102673087D01*
X141231904Y-102539039D01*
X141109915Y-102317000D01*
X139967000Y-102317000D01*
X139967000Y-102337000D01*
X139713000Y-102337000D01*
X139713000Y-102317000D01*
X138570085Y-102317000D01*
X138448096Y-102539039D01*
X138488754Y-102673087D01*
X138608963Y-102927420D01*
X138776481Y-103153414D01*
X138984869Y-103342385D01*
X139170865Y-103453933D01*
X139160273Y-103458320D01*
X138925241Y-103615363D01*
X138725363Y-103815241D01*
X138568320Y-104050273D01*
X138460147Y-104311426D01*
X138405000Y-104588665D01*
X136198072Y-104588665D01*
X136198072Y-103295000D01*
X136185812Y-103170518D01*
X136149502Y-103050820D01*
X136090537Y-102940506D01*
X136011185Y-102843815D01*
X135914494Y-102764463D01*
X135804180Y-102705498D01*
X135684482Y-102669188D01*
X135560000Y-102656928D01*
X135552785Y-102656928D01*
X135573097Y-102587702D01*
X134760000Y-101774605D01*
X133946903Y-102587702D01*
X133967215Y-102656928D01*
X133960000Y-102656928D01*
X133835518Y-102669188D01*
X133715820Y-102705498D01*
X133605506Y-102764463D01*
X133508815Y-102843815D01*
X133495532Y-102860000D01*
X133220362Y-102860000D01*
X133159699Y-102854025D01*
X133099036Y-102860000D01*
X133099035Y-102860000D01*
X132917598Y-102877870D01*
X132684799Y-102948489D01*
X132470251Y-103063167D01*
X132282198Y-103217498D01*
X132243526Y-103264620D01*
X129163147Y-106345000D01*
X122178072Y-106345000D01*
X122178072Y-106280000D01*
X122165812Y-106155518D01*
X122129502Y-106035820D01*
X122070537Y-105925506D01*
X121991185Y-105828815D01*
X121894494Y-105749463D01*
X121784180Y-105690498D01*
X121664482Y-105654188D01*
X121540000Y-105641928D01*
X118940000Y-105641928D01*
X118815518Y-105654188D01*
X118695820Y-105690498D01*
X118585506Y-105749463D01*
X118488815Y-105828815D01*
X118409463Y-105925506D01*
X118350498Y-106035820D01*
X118314188Y-106155518D01*
X118301928Y-106280000D01*
X110900000Y-106280000D01*
X110900000Y-103794224D01*
X119070381Y-103794224D01*
X119202317Y-104089312D01*
X119543045Y-104260159D01*
X119910557Y-104361250D01*
X120290729Y-104388701D01*
X120668951Y-104341457D01*
X121030690Y-104221333D01*
X121277683Y-104089312D01*
X121409619Y-103794224D01*
X120240000Y-102624605D01*
X119070381Y-103794224D01*
X110900000Y-103794224D01*
X110900000Y-102495729D01*
X118296299Y-102495729D01*
X118343543Y-102873951D01*
X118463667Y-103235690D01*
X118595688Y-103482683D01*
X118890776Y-103614619D01*
X120060395Y-102445000D01*
X120419605Y-102445000D01*
X121589224Y-103614619D01*
X121884312Y-103482683D01*
X122055159Y-103141955D01*
X122156250Y-102774443D01*
X122183701Y-102394271D01*
X122136457Y-102016049D01*
X122020053Y-101665512D01*
X133319783Y-101665512D01*
X133361213Y-101945130D01*
X133456397Y-102211292D01*
X133523329Y-102336514D01*
X133767298Y-102408097D01*
X134580395Y-101595000D01*
X134939605Y-101595000D01*
X135752702Y-102408097D01*
X135996671Y-102336514D01*
X136117571Y-102081004D01*
X136186300Y-101806816D01*
X136200217Y-101524488D01*
X136158787Y-101244870D01*
X136063603Y-100978708D01*
X135996671Y-100853486D01*
X135752702Y-100781903D01*
X134939605Y-101595000D01*
X134580395Y-101595000D01*
X133767298Y-100781903D01*
X133523329Y-100853486D01*
X133402429Y-101108996D01*
X133333700Y-101383184D01*
X133319783Y-101665512D01*
X122020053Y-101665512D01*
X122016333Y-101654310D01*
X121884312Y-101407317D01*
X121589224Y-101275381D01*
X120419605Y-102445000D01*
X120060395Y-102445000D01*
X118890776Y-101275381D01*
X118595688Y-101407317D01*
X118424841Y-101748045D01*
X118323750Y-102115557D01*
X118296299Y-102495729D01*
X110900000Y-102495729D01*
X110900000Y-101095776D01*
X119070381Y-101095776D01*
X120240000Y-102265395D01*
X121409619Y-101095776D01*
X121277683Y-100800688D01*
X120936955Y-100629841D01*
X120836824Y-100602298D01*
X133946903Y-100602298D01*
X134760000Y-101415395D01*
X135573097Y-100602298D01*
X135501514Y-100358329D01*
X135246004Y-100237429D01*
X134971816Y-100168700D01*
X134689488Y-100154783D01*
X134409870Y-100196213D01*
X134143708Y-100291397D01*
X134018486Y-100358329D01*
X133946903Y-100602298D01*
X120836824Y-100602298D01*
X120569443Y-100528750D01*
X120189271Y-100501299D01*
X119811049Y-100548543D01*
X119449310Y-100668667D01*
X119202317Y-100800688D01*
X119070381Y-101095776D01*
X110900000Y-101095776D01*
X110900000Y-96145000D01*
X118301928Y-96145000D01*
X118301928Y-98745000D01*
X118314188Y-98869482D01*
X118350498Y-98989180D01*
X118409463Y-99099494D01*
X118488815Y-99196185D01*
X118585506Y-99275537D01*
X118695820Y-99334502D01*
X118815518Y-99370812D01*
X118940000Y-99383072D01*
X121540000Y-99383072D01*
X121664482Y-99370812D01*
X121784180Y-99334502D01*
X121894494Y-99275537D01*
X121991185Y-99196185D01*
X122070537Y-99099494D01*
X122129502Y-98989180D01*
X122165812Y-98869482D01*
X122178072Y-98745000D01*
X122178072Y-96145000D01*
X122165812Y-96020518D01*
X122129502Y-95900820D01*
X122070537Y-95790506D01*
X121991185Y-95693815D01*
X121894494Y-95614463D01*
X121784180Y-95555498D01*
X121664482Y-95519188D01*
X121540000Y-95506928D01*
X118940000Y-95506928D01*
X118815518Y-95519188D01*
X118695820Y-95555498D01*
X118585506Y-95614463D01*
X118488815Y-95693815D01*
X118409463Y-95790506D01*
X118350498Y-95900820D01*
X118314188Y-96020518D01*
X118301928Y-96145000D01*
X110900000Y-96145000D01*
X110900000Y-86150000D01*
X138401928Y-86150000D01*
X138405000Y-86664250D01*
X138563750Y-86823000D01*
X139713000Y-86823000D01*
X139713000Y-85673750D01*
X139554250Y-85515000D01*
X139040000Y-85511928D01*
X138915518Y-85524188D01*
X138795820Y-85560498D01*
X138685506Y-85619463D01*
X138588815Y-85698815D01*
X138509463Y-85795506D01*
X138450498Y-85905820D01*
X138414188Y-86025518D01*
X138401928Y-86150000D01*
X110900000Y-86150000D01*
X110900000Y-77795000D01*
X133321928Y-77795000D01*
X133321928Y-79395000D01*
X133334188Y-79519482D01*
X133370498Y-79639180D01*
X133429463Y-79749494D01*
X133508815Y-79846185D01*
X133605506Y-79925537D01*
X133715820Y-79984502D01*
X133835518Y-80020812D01*
X133960000Y-80033072D01*
X135560000Y-80033072D01*
X135684482Y-80020812D01*
X135804180Y-79984502D01*
X135914494Y-79925537D01*
X135930856Y-79912109D01*
X136079117Y-80060370D01*
X136117798Y-80107502D01*
X136305851Y-80261833D01*
X136520399Y-80376511D01*
X136730594Y-80440273D01*
X136753198Y-80447130D01*
X136995300Y-80470975D01*
X137055965Y-80465000D01*
X139105377Y-80465000D01*
X139160273Y-80501680D01*
X139421426Y-80609853D01*
X139698665Y-80665000D01*
X139981335Y-80665000D01*
X140258574Y-80609853D01*
X140519727Y-80501680D01*
X140754759Y-80344637D01*
X140954637Y-80144759D01*
X141111680Y-79909727D01*
X141219853Y-79648574D01*
X141275000Y-79371335D01*
X141275000Y-79088665D01*
X141219853Y-78811426D01*
X141111680Y-78550273D01*
X140954637Y-78315241D01*
X140754759Y-78115363D01*
X140519727Y-77958320D01*
X140509135Y-77953933D01*
X140695131Y-77842385D01*
X140903519Y-77653414D01*
X141071037Y-77427420D01*
X141191246Y-77173087D01*
X141231904Y-77039039D01*
X141109915Y-76817000D01*
X139967000Y-76817000D01*
X139967000Y-76837000D01*
X139713000Y-76837000D01*
X139713000Y-76817000D01*
X138570085Y-76817000D01*
X138448096Y-77039039D01*
X138488754Y-77173087D01*
X138608963Y-77427420D01*
X138776481Y-77653414D01*
X138984869Y-77842385D01*
X139170865Y-77953933D01*
X139160273Y-77958320D01*
X139105377Y-77995000D01*
X137506853Y-77995000D01*
X137276479Y-77764626D01*
X137237802Y-77717498D01*
X137049749Y-77563167D01*
X136835201Y-77448489D01*
X136602402Y-77377870D01*
X136420965Y-77360000D01*
X136360300Y-77354025D01*
X136299635Y-77360000D01*
X136024468Y-77360000D01*
X136011185Y-77343815D01*
X135914494Y-77264463D01*
X135804180Y-77205498D01*
X135684482Y-77169188D01*
X135560000Y-77156928D01*
X135552785Y-77156928D01*
X135573097Y-77087702D01*
X134760000Y-76274605D01*
X133946903Y-77087702D01*
X133967215Y-77156928D01*
X133960000Y-77156928D01*
X133835518Y-77169188D01*
X133715820Y-77205498D01*
X133605506Y-77264463D01*
X133508815Y-77343815D01*
X133429463Y-77440506D01*
X133370498Y-77550820D01*
X133334188Y-77670518D01*
X133321928Y-77795000D01*
X110900000Y-77795000D01*
X110900000Y-76165512D01*
X133319783Y-76165512D01*
X133361213Y-76445130D01*
X133456397Y-76711292D01*
X133523329Y-76836514D01*
X133767298Y-76908097D01*
X134580395Y-76095000D01*
X134939605Y-76095000D01*
X135752702Y-76908097D01*
X135996671Y-76836514D01*
X136117571Y-76581004D01*
X136186300Y-76306816D01*
X136200217Y-76024488D01*
X136158787Y-75744870D01*
X136063603Y-75478708D01*
X135996671Y-75353486D01*
X135752702Y-75281903D01*
X134939605Y-76095000D01*
X134580395Y-76095000D01*
X133767298Y-75281903D01*
X133523329Y-75353486D01*
X133402429Y-75608996D01*
X133333700Y-75883184D01*
X133319783Y-76165512D01*
X110900000Y-76165512D01*
X110900000Y-75102298D01*
X133946903Y-75102298D01*
X134760000Y-75915395D01*
X135573097Y-75102298D01*
X135501514Y-74858329D01*
X135246004Y-74737429D01*
X134971816Y-74668700D01*
X134689488Y-74654783D01*
X134409870Y-74696213D01*
X134143708Y-74791397D01*
X134018486Y-74858329D01*
X133946903Y-75102298D01*
X110900000Y-75102298D01*
X110900000Y-64995454D01*
X114305000Y-64995454D01*
X114305000Y-66164546D01*
X114533079Y-67311176D01*
X114980471Y-68391277D01*
X115629984Y-69363342D01*
X116456658Y-70190016D01*
X117428723Y-70839529D01*
X118508824Y-71286921D01*
X119655454Y-71515000D01*
X120824546Y-71515000D01*
X121971176Y-71286921D01*
X123051277Y-70839529D01*
X124023342Y-70190016D01*
X124850016Y-69363342D01*
X125499529Y-68391277D01*
X125946921Y-67311176D01*
X126175000Y-66164546D01*
X126175000Y-64995454D01*
X125946921Y-63848824D01*
X125529053Y-62840000D01*
X132507815Y-62840000D01*
X132536487Y-63131111D01*
X132621401Y-63411034D01*
X132759294Y-63669014D01*
X132944866Y-63895134D01*
X133170986Y-64080706D01*
X133188374Y-64090000D01*
X133170986Y-64099294D01*
X132944866Y-64284866D01*
X132759294Y-64510986D01*
X132621401Y-64768966D01*
X132536487Y-65048889D01*
X132507815Y-65340000D01*
X132536487Y-65631111D01*
X132621401Y-65911034D01*
X132759294Y-66169014D01*
X132944866Y-66395134D01*
X133170986Y-66580706D01*
X133188374Y-66590000D01*
X133170986Y-66599294D01*
X132944866Y-66784866D01*
X132759294Y-67010986D01*
X132621401Y-67268966D01*
X132536487Y-67548889D01*
X132507815Y-67840000D01*
X132536487Y-68131111D01*
X132621401Y-68411034D01*
X132759294Y-68669014D01*
X132944866Y-68895134D01*
X133008337Y-68947223D01*
X132906614Y-69001595D01*
X132772038Y-69112038D01*
X132661595Y-69246614D01*
X132579528Y-69400150D01*
X132528992Y-69566746D01*
X132511928Y-69740000D01*
X132511928Y-70940000D01*
X132528992Y-71113254D01*
X132579528Y-71279850D01*
X132661595Y-71433386D01*
X132772038Y-71567962D01*
X132906614Y-71678405D01*
X133060150Y-71760472D01*
X133226746Y-71811008D01*
X133400000Y-71828072D01*
X133866519Y-71828072D01*
X137018826Y-74980380D01*
X137057498Y-75027502D01*
X137245551Y-75181833D01*
X137460099Y-75296511D01*
X137647920Y-75353486D01*
X137692898Y-75367130D01*
X137935000Y-75390975D01*
X137995665Y-75385000D01*
X139105377Y-75385000D01*
X139160273Y-75421680D01*
X139170865Y-75426067D01*
X138984869Y-75537615D01*
X138776481Y-75726586D01*
X138608963Y-75952580D01*
X138488754Y-76206913D01*
X138448096Y-76340961D01*
X138570085Y-76563000D01*
X139713000Y-76563000D01*
X139713000Y-76543000D01*
X139967000Y-76543000D01*
X139967000Y-76563000D01*
X141109915Y-76563000D01*
X141231904Y-76340961D01*
X141191246Y-76206913D01*
X141071037Y-75952580D01*
X140903519Y-75726586D01*
X140695131Y-75537615D01*
X140509135Y-75426067D01*
X140519727Y-75421680D01*
X140754759Y-75264637D01*
X140954637Y-75064759D01*
X141111680Y-74829727D01*
X141219853Y-74568574D01*
X141275000Y-74291335D01*
X141275000Y-74008665D01*
X141219853Y-73731426D01*
X141111680Y-73470273D01*
X140954637Y-73235241D01*
X140754759Y-73035363D01*
X140522241Y-72880000D01*
X140754759Y-72724637D01*
X140954637Y-72524759D01*
X141111680Y-72289727D01*
X141219853Y-72028574D01*
X141275000Y-71751335D01*
X141275000Y-71468665D01*
X141219853Y-71191426D01*
X141111680Y-70930273D01*
X140954637Y-70695241D01*
X140754759Y-70495363D01*
X140522241Y-70340000D01*
X140754759Y-70184637D01*
X140954637Y-69984759D01*
X140968429Y-69964118D01*
X141000147Y-70123574D01*
X141108320Y-70384727D01*
X141265363Y-70619759D01*
X141465241Y-70819637D01*
X141700273Y-70976680D01*
X141961426Y-71084853D01*
X142238665Y-71140000D01*
X142521335Y-71140000D01*
X142798574Y-71084853D01*
X143059727Y-70976680D01*
X143294759Y-70819637D01*
X143383704Y-70730693D01*
X144891670Y-72238659D01*
X144920956Y-72274344D01*
X145063328Y-72391186D01*
X145225760Y-72478007D01*
X145384543Y-72526173D01*
X145402008Y-72531471D01*
X145585300Y-72549524D01*
X145631232Y-72545000D01*
X151445604Y-72545000D01*
X151625241Y-72724637D01*
X151857759Y-72880000D01*
X151625241Y-73035363D01*
X151425363Y-73235241D01*
X151268320Y-73470273D01*
X151160147Y-73731426D01*
X151105000Y-74008665D01*
X151105000Y-74291335D01*
X151160147Y-74568574D01*
X151268320Y-74829727D01*
X151425363Y-75064759D01*
X151625241Y-75264637D01*
X151857759Y-75420000D01*
X151625241Y-75575363D01*
X151425363Y-75775241D01*
X151268320Y-76010273D01*
X151160147Y-76271426D01*
X151105000Y-76548665D01*
X151105000Y-76802710D01*
X141275190Y-86632521D01*
X141278072Y-86150000D01*
X141265812Y-86025518D01*
X141229502Y-85905820D01*
X141170537Y-85795506D01*
X141091185Y-85698815D01*
X140994494Y-85619463D01*
X140884180Y-85560498D01*
X140764482Y-85524188D01*
X140640000Y-85511928D01*
X140125750Y-85515000D01*
X139967000Y-85673750D01*
X139967000Y-86823000D01*
X139987000Y-86823000D01*
X139987000Y-87077000D01*
X139967000Y-87077000D01*
X139967000Y-87097000D01*
X139713000Y-87097000D01*
X139713000Y-87077000D01*
X138563750Y-87077000D01*
X138405000Y-87235750D01*
X138401928Y-87750000D01*
X138414188Y-87874482D01*
X138450498Y-87994180D01*
X138509463Y-88104494D01*
X138588815Y-88201185D01*
X138685506Y-88280537D01*
X138795820Y-88339502D01*
X138915518Y-88375812D01*
X138923961Y-88376643D01*
X138725363Y-88575241D01*
X138568320Y-88810273D01*
X138460147Y-89071426D01*
X138405000Y-89348665D01*
X138405000Y-89631335D01*
X138460147Y-89908574D01*
X138568320Y-90169727D01*
X138725363Y-90404759D01*
X138925241Y-90604637D01*
X139157759Y-90760000D01*
X139105377Y-90795000D01*
X138326554Y-90795000D01*
X135728051Y-88196498D01*
X135713513Y-88048889D01*
X135628599Y-87768966D01*
X135490706Y-87510986D01*
X135305134Y-87284866D01*
X135079014Y-87099294D01*
X134821034Y-86961401D01*
X134541111Y-86876487D01*
X134322950Y-86855000D01*
X133927050Y-86855000D01*
X133708889Y-86876487D01*
X133428966Y-86961401D01*
X133170986Y-87099294D01*
X132944866Y-87284866D01*
X132759294Y-87510986D01*
X132621401Y-87768966D01*
X132536487Y-88048889D01*
X132507815Y-88340000D01*
X132536487Y-88631111D01*
X132621401Y-88911034D01*
X132759294Y-89169014D01*
X132944866Y-89395134D01*
X133170986Y-89580706D01*
X133188374Y-89590000D01*
X133170986Y-89599294D01*
X132944866Y-89784866D01*
X132759294Y-90010986D01*
X132621401Y-90268966D01*
X132536487Y-90548889D01*
X132507815Y-90840000D01*
X132536487Y-91131111D01*
X132621401Y-91411034D01*
X132759294Y-91669014D01*
X132944866Y-91895134D01*
X133170986Y-92080706D01*
X133188374Y-92090000D01*
X133170986Y-92099294D01*
X132944866Y-92284866D01*
X132759294Y-92510986D01*
X132621401Y-92768966D01*
X132536487Y-93048889D01*
X132507815Y-93340000D01*
X132536487Y-93631111D01*
X132621401Y-93911034D01*
X132759294Y-94169014D01*
X132944866Y-94395134D01*
X133008337Y-94447223D01*
X132906614Y-94501595D01*
X132772038Y-94612038D01*
X132661595Y-94746614D01*
X132579528Y-94900150D01*
X132528992Y-95066746D01*
X132511928Y-95240000D01*
X132511928Y-96440000D01*
X132528992Y-96613254D01*
X132579528Y-96779850D01*
X132661595Y-96933386D01*
X132772038Y-97067962D01*
X132906614Y-97178405D01*
X133060150Y-97260472D01*
X133226746Y-97311008D01*
X133400000Y-97328072D01*
X133866519Y-97328072D01*
X137018826Y-100480380D01*
X137057498Y-100527502D01*
X137245551Y-100681833D01*
X137460099Y-100796511D01*
X137647920Y-100853486D01*
X137692898Y-100867130D01*
X137935000Y-100890975D01*
X137995665Y-100885000D01*
X139105377Y-100885000D01*
X139160273Y-100921680D01*
X139170865Y-100926067D01*
X138984869Y-101037615D01*
X138776481Y-101226586D01*
X138608963Y-101452580D01*
X138488754Y-101706913D01*
X138448096Y-101840961D01*
X138570085Y-102063000D01*
X139713000Y-102063000D01*
X139713000Y-102043000D01*
X139967000Y-102043000D01*
X139967000Y-102063000D01*
X141109915Y-102063000D01*
X141231904Y-101840961D01*
X141191246Y-101706913D01*
X141071037Y-101452580D01*
X140903519Y-101226586D01*
X140695131Y-101037615D01*
X140509135Y-100926067D01*
X140519727Y-100921680D01*
X140754759Y-100764637D01*
X140954637Y-100564759D01*
X141111680Y-100329727D01*
X141219853Y-100068574D01*
X141275000Y-99791335D01*
X141275000Y-99508665D01*
X141219853Y-99231426D01*
X141111680Y-98970273D01*
X140954637Y-98735241D01*
X140754759Y-98535363D01*
X140522241Y-98380000D01*
X140754759Y-98224637D01*
X140954637Y-98024759D01*
X141111680Y-97789727D01*
X141219853Y-97528574D01*
X141275000Y-97251335D01*
X141275000Y-96968665D01*
X141219853Y-96691426D01*
X141111680Y-96430273D01*
X140954637Y-96195241D01*
X140754759Y-95995363D01*
X140522241Y-95840000D01*
X140754759Y-95684637D01*
X140954637Y-95484759D01*
X140968429Y-95464118D01*
X141000147Y-95623574D01*
X141108320Y-95884727D01*
X141265363Y-96119759D01*
X141465241Y-96319637D01*
X141700273Y-96476680D01*
X141961426Y-96584853D01*
X142238665Y-96640000D01*
X142521335Y-96640000D01*
X142798574Y-96584853D01*
X143059727Y-96476680D01*
X143294759Y-96319637D01*
X143383704Y-96230693D01*
X144891670Y-97738659D01*
X144920956Y-97774344D01*
X145063328Y-97891186D01*
X145225760Y-97978007D01*
X145384543Y-98026173D01*
X145402008Y-98031471D01*
X145585300Y-98049524D01*
X145631232Y-98045000D01*
X151445604Y-98045000D01*
X151625241Y-98224637D01*
X151857759Y-98380000D01*
X151625241Y-98535363D01*
X151425363Y-98735241D01*
X151268320Y-98970273D01*
X151160147Y-99231426D01*
X151105000Y-99508665D01*
X151105000Y-99791335D01*
X151160147Y-100068574D01*
X151268320Y-100329727D01*
X151425363Y-100564759D01*
X151605001Y-100744397D01*
X151605000Y-101095604D01*
X151425363Y-101275241D01*
X151268320Y-101510273D01*
X151160147Y-101771426D01*
X151105000Y-102048665D01*
X151105000Y-102331335D01*
X151160147Y-102608574D01*
X151268320Y-102869727D01*
X151425363Y-103104759D01*
X151625241Y-103304637D01*
X151857759Y-103460000D01*
X151625241Y-103615363D01*
X151425363Y-103815241D01*
X151268320Y-104050273D01*
X151160147Y-104311426D01*
X151105000Y-104588665D01*
X151105000Y-104871335D01*
X151160147Y-105148574D01*
X151268320Y-105409727D01*
X151425363Y-105644759D01*
X151625241Y-105844637D01*
X151860273Y-106001680D01*
X152121426Y-106109853D01*
X152398665Y-106165000D01*
X152681335Y-106165000D01*
X152958574Y-106109853D01*
X153219727Y-106001680D01*
X153454759Y-105844637D01*
X153654637Y-105644759D01*
X153758043Y-105490000D01*
X154436822Y-105490000D01*
X154561525Y-105676632D01*
X154768368Y-105883475D01*
X155011589Y-106045990D01*
X155281842Y-106157932D01*
X155568740Y-106215000D01*
X155861260Y-106215000D01*
X156148158Y-106157932D01*
X156418411Y-106045990D01*
X156661632Y-105883475D01*
X156868475Y-105676632D01*
X157030990Y-105433411D01*
X157142932Y-105163158D01*
X157200000Y-104876260D01*
X157200000Y-104583740D01*
X157142932Y-104296842D01*
X157030990Y-104026589D01*
X156868475Y-103783368D01*
X156661632Y-103576525D01*
X156487240Y-103460000D01*
X156661632Y-103343475D01*
X156868475Y-103136632D01*
X157030990Y-102893411D01*
X157142932Y-102623158D01*
X157200000Y-102336260D01*
X157200000Y-102043740D01*
X157142932Y-101756842D01*
X157030990Y-101486589D01*
X156868475Y-101243368D01*
X156736620Y-101111513D01*
X156809180Y-101089502D01*
X156919494Y-101030537D01*
X157016185Y-100951185D01*
X157095537Y-100854494D01*
X157154502Y-100744180D01*
X157190812Y-100624482D01*
X157203072Y-100500000D01*
X157203072Y-98800000D01*
X157190812Y-98675518D01*
X157154502Y-98555820D01*
X157095537Y-98445506D01*
X157016185Y-98348815D01*
X156919494Y-98269463D01*
X156809180Y-98210498D01*
X156689482Y-98174188D01*
X156565000Y-98161928D01*
X156475000Y-98161928D01*
X156475000Y-96086325D01*
X156478676Y-96049000D01*
X156475000Y-96011675D01*
X156475000Y-96011667D01*
X156464003Y-95900014D01*
X156420546Y-95756753D01*
X156349974Y-95624724D01*
X156255001Y-95508999D01*
X156226003Y-95485201D01*
X153667023Y-92926222D01*
X153811680Y-92709727D01*
X153919853Y-92448574D01*
X153975000Y-92171335D01*
X153975000Y-91888665D01*
X153919853Y-91611426D01*
X153811680Y-91350273D01*
X153654637Y-91115241D01*
X153454759Y-90915363D01*
X153222241Y-90760000D01*
X153454759Y-90604637D01*
X153654637Y-90404759D01*
X153811680Y-90169727D01*
X153919853Y-89908574D01*
X153975000Y-89631335D01*
X153975000Y-89348665D01*
X153919853Y-89071426D01*
X153811680Y-88810273D01*
X153654637Y-88575241D01*
X153454759Y-88375363D01*
X153222241Y-88220000D01*
X153454759Y-88064637D01*
X153654637Y-87864759D01*
X153811680Y-87629727D01*
X153919853Y-87368574D01*
X153975000Y-87091335D01*
X153975000Y-86808665D01*
X153919853Y-86531426D01*
X153811680Y-86270273D01*
X153654637Y-86035241D01*
X153454759Y-85835363D01*
X153219727Y-85678320D01*
X152958574Y-85570147D01*
X152681335Y-85515000D01*
X152398665Y-85515000D01*
X152121426Y-85570147D01*
X151860273Y-85678320D01*
X151625241Y-85835363D01*
X151425363Y-86035241D01*
X151268320Y-86270273D01*
X151160147Y-86531426D01*
X151105000Y-86808665D01*
X151105000Y-87091335D01*
X151160147Y-87368574D01*
X151268320Y-87629727D01*
X151425363Y-87864759D01*
X151625241Y-88064637D01*
X151857759Y-88220000D01*
X151625241Y-88375363D01*
X151425363Y-88575241D01*
X151268320Y-88810273D01*
X151160147Y-89071426D01*
X151105000Y-89348665D01*
X151105000Y-89631335D01*
X151160147Y-89908574D01*
X151268320Y-90169727D01*
X151425363Y-90404759D01*
X151625241Y-90604637D01*
X151857759Y-90760000D01*
X151625241Y-90915363D01*
X151425363Y-91115241D01*
X151268320Y-91350273D01*
X151160147Y-91611426D01*
X151105000Y-91888665D01*
X151105000Y-92171335D01*
X151160147Y-92448574D01*
X151268320Y-92709727D01*
X151425363Y-92944759D01*
X151625241Y-93144637D01*
X151785842Y-93251947D01*
X151790997Y-93304286D01*
X151801167Y-93337813D01*
X151625241Y-93455363D01*
X151425363Y-93655241D01*
X151318053Y-93815842D01*
X151265714Y-93820997D01*
X151122453Y-93864454D01*
X150990424Y-93935026D01*
X150874699Y-94029999D01*
X150856892Y-94051697D01*
X150679727Y-93933320D01*
X150418574Y-93825147D01*
X150141335Y-93770000D01*
X149858665Y-93770000D01*
X149581426Y-93825147D01*
X149320273Y-93933320D01*
X149085241Y-94090363D01*
X148885363Y-94290241D01*
X148728320Y-94525273D01*
X148620147Y-94786426D01*
X148565000Y-95063665D01*
X148565000Y-95346335D01*
X148620147Y-95623574D01*
X148728320Y-95884727D01*
X148885363Y-96119759D01*
X148940604Y-96175000D01*
X145972589Y-96175000D01*
X144373930Y-94576341D01*
X144344644Y-94540656D01*
X144202272Y-94423814D01*
X144039840Y-94336993D01*
X143863592Y-94283529D01*
X143726232Y-94270000D01*
X143680300Y-94265476D01*
X143634368Y-94270000D01*
X143474396Y-94270000D01*
X143294759Y-94090363D01*
X143059727Y-93933320D01*
X142798574Y-93825147D01*
X142521335Y-93770000D01*
X142238665Y-93770000D01*
X141961426Y-93825147D01*
X141700273Y-93933320D01*
X141465241Y-94090363D01*
X141265363Y-94290241D01*
X141251571Y-94310882D01*
X141219853Y-94151426D01*
X141111680Y-93890273D01*
X140954637Y-93655241D01*
X140754759Y-93455363D01*
X140522241Y-93300000D01*
X140754759Y-93144637D01*
X140954637Y-92944759D01*
X141111680Y-92709727D01*
X141219853Y-92448574D01*
X141275000Y-92171335D01*
X141275000Y-91888665D01*
X141219853Y-91611426D01*
X141111680Y-91350273D01*
X140954637Y-91115241D01*
X140754759Y-90915363D01*
X140522241Y-90760000D01*
X140754759Y-90604637D01*
X140954637Y-90404759D01*
X141111680Y-90169727D01*
X141219853Y-89908574D01*
X141275000Y-89631335D01*
X141275000Y-89348665D01*
X141263158Y-89289131D01*
X151117602Y-79434688D01*
X151160147Y-79648574D01*
X151268320Y-79909727D01*
X151425363Y-80144759D01*
X151625241Y-80344637D01*
X151860273Y-80501680D01*
X152121426Y-80609853D01*
X152398665Y-80665000D01*
X152681335Y-80665000D01*
X152958574Y-80609853D01*
X153219727Y-80501680D01*
X153454759Y-80344637D01*
X153654637Y-80144759D01*
X153758043Y-79990000D01*
X154436822Y-79990000D01*
X154561525Y-80176632D01*
X154768368Y-80383475D01*
X155011589Y-80545990D01*
X155281842Y-80657932D01*
X155568740Y-80715000D01*
X155861260Y-80715000D01*
X156148158Y-80657932D01*
X156418411Y-80545990D01*
X156661632Y-80383475D01*
X156868475Y-80176632D01*
X157030990Y-79933411D01*
X157142932Y-79663158D01*
X157200000Y-79376260D01*
X157200000Y-79083740D01*
X157142932Y-78796842D01*
X157030990Y-78526589D01*
X156868475Y-78283368D01*
X156661632Y-78076525D01*
X156487240Y-77960000D01*
X156661632Y-77843475D01*
X156775107Y-77730000D01*
X163591928Y-77730000D01*
X163591928Y-79430000D01*
X163604188Y-79554482D01*
X163640498Y-79674180D01*
X163699463Y-79784494D01*
X163778815Y-79881185D01*
X163875506Y-79960537D01*
X163985820Y-80019502D01*
X164058380Y-80041513D01*
X163926525Y-80173368D01*
X163764010Y-80416589D01*
X163652068Y-80686842D01*
X163595000Y-80973740D01*
X163595000Y-81266260D01*
X163652068Y-81553158D01*
X163764010Y-81823411D01*
X163926525Y-82066632D01*
X164133368Y-82273475D01*
X164307760Y-82390000D01*
X164133368Y-82506525D01*
X163926525Y-82713368D01*
X163764010Y-82956589D01*
X163652068Y-83226842D01*
X163595000Y-83513740D01*
X163595000Y-83806260D01*
X163652068Y-84093158D01*
X163764010Y-84363411D01*
X163926525Y-84606632D01*
X164133368Y-84813475D01*
X164315534Y-84935195D01*
X164198645Y-85004822D01*
X163982412Y-85199731D01*
X163808359Y-85433080D01*
X163683175Y-85695901D01*
X163638524Y-85843110D01*
X163759845Y-86073000D01*
X164953000Y-86073000D01*
X164953000Y-86053000D01*
X165207000Y-86053000D01*
X165207000Y-86073000D01*
X166400155Y-86073000D01*
X166521476Y-85843110D01*
X166476825Y-85695901D01*
X166351641Y-85433080D01*
X166177588Y-85199731D01*
X165961355Y-85004822D01*
X165844466Y-84935195D01*
X166026632Y-84813475D01*
X166233475Y-84606632D01*
X166358178Y-84420000D01*
X168881822Y-84420000D01*
X169006525Y-84606632D01*
X169213368Y-84813475D01*
X169395534Y-84935195D01*
X169278645Y-85004822D01*
X169062412Y-85199731D01*
X168888359Y-85433080D01*
X168763175Y-85695901D01*
X168718524Y-85843110D01*
X168839845Y-86073000D01*
X170033000Y-86073000D01*
X170033000Y-86053000D01*
X170287000Y-86053000D01*
X170287000Y-86073000D01*
X171480155Y-86073000D01*
X171601476Y-85843110D01*
X171556825Y-85695901D01*
X171431641Y-85433080D01*
X171257588Y-85199731D01*
X171041355Y-85004822D01*
X170924466Y-84935195D01*
X171106632Y-84813475D01*
X171313475Y-84606632D01*
X171438178Y-84420000D01*
X174021957Y-84420000D01*
X174125363Y-84574759D01*
X174325241Y-84774637D01*
X174560273Y-84931680D01*
X174570865Y-84936067D01*
X174384869Y-85047615D01*
X174176481Y-85236586D01*
X174008963Y-85462580D01*
X173888754Y-85716913D01*
X173848096Y-85850961D01*
X173970085Y-86073000D01*
X175113000Y-86073000D01*
X175113000Y-86053000D01*
X175367000Y-86053000D01*
X175367000Y-86073000D01*
X176509915Y-86073000D01*
X176631904Y-85850961D01*
X176591246Y-85716913D01*
X176471037Y-85462580D01*
X176303519Y-85236586D01*
X176095131Y-85047615D01*
X175909135Y-84936067D01*
X175919727Y-84931680D01*
X176154759Y-84774637D01*
X176354637Y-84574759D01*
X176511680Y-84339727D01*
X176619853Y-84078574D01*
X176675000Y-83801335D01*
X176675000Y-83518665D01*
X176619853Y-83241426D01*
X176511680Y-82980273D01*
X176354637Y-82745241D01*
X176154759Y-82545363D01*
X175922241Y-82390000D01*
X176154759Y-82234637D01*
X176354637Y-82034759D01*
X176511680Y-81799727D01*
X176619853Y-81538574D01*
X176675000Y-81261335D01*
X176675000Y-80978665D01*
X176619853Y-80701426D01*
X176511680Y-80440273D01*
X176354637Y-80205241D01*
X176156039Y-80006643D01*
X176164482Y-80005812D01*
X176284180Y-79969502D01*
X176394494Y-79910537D01*
X176491185Y-79831185D01*
X176570537Y-79734494D01*
X176629502Y-79624180D01*
X176665812Y-79504482D01*
X176678072Y-79380000D01*
X176678072Y-78438665D01*
X189045000Y-78438665D01*
X189045000Y-78721335D01*
X189100147Y-78998574D01*
X189208320Y-79259727D01*
X189365363Y-79494759D01*
X189565241Y-79694637D01*
X189800273Y-79851680D01*
X189810865Y-79856067D01*
X189624869Y-79967615D01*
X189416481Y-80156586D01*
X189248963Y-80382580D01*
X189128754Y-80636913D01*
X189088096Y-80770961D01*
X189210085Y-80993000D01*
X190353000Y-80993000D01*
X190353000Y-80973000D01*
X190607000Y-80973000D01*
X190607000Y-80993000D01*
X191749915Y-80993000D01*
X191871904Y-80770961D01*
X191831246Y-80636913D01*
X191711037Y-80382580D01*
X191543519Y-80156586D01*
X191335131Y-79967615D01*
X191149135Y-79856067D01*
X191159727Y-79851680D01*
X191394759Y-79694637D01*
X191594637Y-79494759D01*
X191698043Y-79340000D01*
X194281822Y-79340000D01*
X194406525Y-79526632D01*
X194613368Y-79733475D01*
X194795534Y-79855195D01*
X194678645Y-79924822D01*
X194462412Y-80119731D01*
X194288359Y-80353080D01*
X194163175Y-80615901D01*
X194118524Y-80763110D01*
X194239845Y-80993000D01*
X195433000Y-80993000D01*
X195433000Y-80973000D01*
X195687000Y-80973000D01*
X195687000Y-80993000D01*
X196880155Y-80993000D01*
X197001476Y-80763110D01*
X196956825Y-80615901D01*
X196831641Y-80353080D01*
X196657588Y-80119731D01*
X196441355Y-79924822D01*
X196324466Y-79855195D01*
X196506632Y-79733475D01*
X196713475Y-79526632D01*
X196838178Y-79340000D01*
X199361822Y-79340000D01*
X199486525Y-79526632D01*
X199693368Y-79733475D01*
X199875534Y-79855195D01*
X199758645Y-79924822D01*
X199542412Y-80119731D01*
X199368359Y-80353080D01*
X199243175Y-80615901D01*
X199198524Y-80763110D01*
X199319845Y-80993000D01*
X200513000Y-80993000D01*
X200513000Y-80973000D01*
X200767000Y-80973000D01*
X200767000Y-80993000D01*
X201960155Y-80993000D01*
X202081476Y-80763110D01*
X202036825Y-80615901D01*
X201911641Y-80353080D01*
X201737588Y-80119731D01*
X201521355Y-79924822D01*
X201404466Y-79855195D01*
X201586632Y-79733475D01*
X201793475Y-79526632D01*
X201955990Y-79283411D01*
X202067932Y-79013158D01*
X202125000Y-78726260D01*
X202125000Y-78433740D01*
X202067932Y-78146842D01*
X201955990Y-77876589D01*
X201793475Y-77633368D01*
X201586632Y-77426525D01*
X201343411Y-77264010D01*
X201073158Y-77152068D01*
X200786260Y-77095000D01*
X200493740Y-77095000D01*
X200206842Y-77152068D01*
X199936589Y-77264010D01*
X199693368Y-77426525D01*
X199486525Y-77633368D01*
X199361822Y-77820000D01*
X196838178Y-77820000D01*
X196713475Y-77633368D01*
X196506632Y-77426525D01*
X196263411Y-77264010D01*
X195993158Y-77152068D01*
X195706260Y-77095000D01*
X195413740Y-77095000D01*
X195126842Y-77152068D01*
X194856589Y-77264010D01*
X194613368Y-77426525D01*
X194406525Y-77633368D01*
X194281822Y-77820000D01*
X191698043Y-77820000D01*
X191594637Y-77665241D01*
X191394759Y-77465363D01*
X191159727Y-77308320D01*
X190898574Y-77200147D01*
X190621335Y-77145000D01*
X190338665Y-77145000D01*
X190061426Y-77200147D01*
X189800273Y-77308320D01*
X189565241Y-77465363D01*
X189365363Y-77665241D01*
X189208320Y-77900273D01*
X189100147Y-78161426D01*
X189045000Y-78438665D01*
X176678072Y-78438665D01*
X176678072Y-77780000D01*
X176665812Y-77655518D01*
X176629502Y-77535820D01*
X176570537Y-77425506D01*
X176491185Y-77328815D01*
X176394494Y-77249463D01*
X176284180Y-77190498D01*
X176164482Y-77154188D01*
X176040000Y-77141928D01*
X174440000Y-77141928D01*
X174315518Y-77154188D01*
X174195820Y-77190498D01*
X174085506Y-77249463D01*
X173988815Y-77328815D01*
X173909463Y-77425506D01*
X173850498Y-77535820D01*
X173814188Y-77655518D01*
X173801928Y-77780000D01*
X173801928Y-77820000D01*
X171648072Y-77820000D01*
X171648072Y-77730000D01*
X171635812Y-77605518D01*
X171599502Y-77485820D01*
X171540537Y-77375506D01*
X171461185Y-77278815D01*
X171364494Y-77199463D01*
X171254180Y-77140498D01*
X171134482Y-77104188D01*
X171010000Y-77091928D01*
X169310000Y-77091928D01*
X169185518Y-77104188D01*
X169065820Y-77140498D01*
X168955506Y-77199463D01*
X168858815Y-77278815D01*
X168779463Y-77375506D01*
X168720498Y-77485820D01*
X168684188Y-77605518D01*
X168671928Y-77730000D01*
X168671928Y-77820000D01*
X166568072Y-77820000D01*
X166568072Y-77730000D01*
X166555812Y-77605518D01*
X166519502Y-77485820D01*
X166460537Y-77375506D01*
X166381185Y-77278815D01*
X166284494Y-77199463D01*
X166174180Y-77140498D01*
X166054482Y-77104188D01*
X165930000Y-77091928D01*
X164230000Y-77091928D01*
X164105518Y-77104188D01*
X163985820Y-77140498D01*
X163875506Y-77199463D01*
X163778815Y-77278815D01*
X163699463Y-77375506D01*
X163640498Y-77485820D01*
X163604188Y-77605518D01*
X163591928Y-77730000D01*
X156775107Y-77730000D01*
X156868475Y-77636632D01*
X157030990Y-77393411D01*
X157142932Y-77123158D01*
X157200000Y-76836260D01*
X157200000Y-76543740D01*
X157142932Y-76256842D01*
X157030990Y-75986589D01*
X156868475Y-75743368D01*
X156736620Y-75611513D01*
X156809180Y-75589502D01*
X156919494Y-75530537D01*
X157016185Y-75451185D01*
X157095537Y-75354494D01*
X157154502Y-75244180D01*
X157190812Y-75124482D01*
X157203072Y-75000000D01*
X157203072Y-73300000D01*
X157190812Y-73175518D01*
X157154502Y-73055820D01*
X157095537Y-72945506D01*
X157016185Y-72848815D01*
X156919494Y-72769463D01*
X156809180Y-72710498D01*
X156689482Y-72674188D01*
X156565000Y-72661928D01*
X154865000Y-72661928D01*
X154740518Y-72674188D01*
X154620820Y-72710498D01*
X154510506Y-72769463D01*
X154413815Y-72848815D01*
X154334463Y-72945506D01*
X154275498Y-73055820D01*
X154239188Y-73175518D01*
X154226928Y-73300000D01*
X154226928Y-75000000D01*
X154239188Y-75124482D01*
X154275498Y-75244180D01*
X154334463Y-75354494D01*
X154413815Y-75451185D01*
X154510506Y-75530537D01*
X154620820Y-75589502D01*
X154693380Y-75611513D01*
X154561525Y-75743368D01*
X154399010Y-75986589D01*
X154287068Y-76256842D01*
X154230000Y-76543740D01*
X154230000Y-76836260D01*
X154287068Y-77123158D01*
X154399010Y-77393411D01*
X154561525Y-77636632D01*
X154768368Y-77843475D01*
X154942760Y-77960000D01*
X154768368Y-78076525D01*
X154561525Y-78283368D01*
X154436822Y-78470000D01*
X153758043Y-78470000D01*
X153654637Y-78315241D01*
X153454759Y-78115363D01*
X153222241Y-77960000D01*
X153454759Y-77804637D01*
X153654637Y-77604759D01*
X153811680Y-77369727D01*
X153919853Y-77108574D01*
X153975000Y-76831335D01*
X153975000Y-76548665D01*
X153919853Y-76271426D01*
X153811680Y-76010273D01*
X153654637Y-75775241D01*
X153454759Y-75575363D01*
X153222241Y-75420000D01*
X153454759Y-75264637D01*
X153654637Y-75064759D01*
X153811680Y-74829727D01*
X153919853Y-74568574D01*
X153975000Y-74291335D01*
X153975000Y-74008665D01*
X153919853Y-73731426D01*
X153811680Y-73470273D01*
X153654637Y-73235241D01*
X153454759Y-73035363D01*
X153222241Y-72880000D01*
X153454759Y-72724637D01*
X153634396Y-72545000D01*
X153794368Y-72545000D01*
X153840300Y-72549524D01*
X153886232Y-72545000D01*
X154023592Y-72531471D01*
X154199840Y-72478007D01*
X154362272Y-72391186D01*
X154504644Y-72274344D01*
X154533930Y-72238659D01*
X157797590Y-68975000D01*
X167878753Y-68975000D01*
X167886525Y-68986632D01*
X168018380Y-69118487D01*
X167945820Y-69140498D01*
X167835506Y-69199463D01*
X167738815Y-69278815D01*
X167659463Y-69375506D01*
X167600498Y-69485820D01*
X167564188Y-69605518D01*
X167551928Y-69730000D01*
X167551928Y-71430000D01*
X167564188Y-71554482D01*
X167600498Y-71674180D01*
X167659463Y-71784494D01*
X167738815Y-71881185D01*
X167835506Y-71960537D01*
X167945820Y-72019502D01*
X168065518Y-72055812D01*
X168190000Y-72068072D01*
X169890000Y-72068072D01*
X170014482Y-72055812D01*
X170134180Y-72019502D01*
X170244494Y-71960537D01*
X170310000Y-71906778D01*
X170375506Y-71960537D01*
X170485820Y-72019502D01*
X170605518Y-72055812D01*
X170730000Y-72068072D01*
X172430000Y-72068072D01*
X172554482Y-72055812D01*
X172674180Y-72019502D01*
X172784494Y-71960537D01*
X172850000Y-71906778D01*
X172915506Y-71960537D01*
X173025820Y-72019502D01*
X173145518Y-72055812D01*
X173270000Y-72068072D01*
X174970000Y-72068072D01*
X175094482Y-72055812D01*
X175214180Y-72019502D01*
X175324494Y-71960537D01*
X175390000Y-71906778D01*
X175455506Y-71960537D01*
X175565820Y-72019502D01*
X175685518Y-72055812D01*
X175810000Y-72068072D01*
X177510000Y-72068072D01*
X177634482Y-72055812D01*
X177754180Y-72019502D01*
X177864494Y-71960537D01*
X177930000Y-71906778D01*
X177995506Y-71960537D01*
X178105820Y-72019502D01*
X178225518Y-72055812D01*
X178350000Y-72068072D01*
X180050000Y-72068072D01*
X180174482Y-72055812D01*
X180294180Y-72019502D01*
X180404494Y-71960537D01*
X180470000Y-71906778D01*
X180535506Y-71960537D01*
X180645820Y-72019502D01*
X180765518Y-72055812D01*
X180890000Y-72068072D01*
X182590000Y-72068072D01*
X182714482Y-72055812D01*
X182834180Y-72019502D01*
X182944494Y-71960537D01*
X183041185Y-71881185D01*
X183120537Y-71784494D01*
X183179502Y-71674180D01*
X183215812Y-71554482D01*
X183228072Y-71430000D01*
X183228072Y-69730000D01*
X183215812Y-69605518D01*
X183179502Y-69485820D01*
X183120537Y-69375506D01*
X183041185Y-69278815D01*
X182944494Y-69199463D01*
X182834180Y-69140498D01*
X182761620Y-69118487D01*
X182893475Y-68986632D01*
X183055990Y-68743411D01*
X183167932Y-68473158D01*
X183225000Y-68186260D01*
X183225000Y-67893740D01*
X183167932Y-67606842D01*
X183055990Y-67336589D01*
X182893475Y-67093368D01*
X182686632Y-66886525D01*
X182504466Y-66764805D01*
X182621355Y-66695178D01*
X182837588Y-66500269D01*
X183011641Y-66266920D01*
X183136825Y-66004099D01*
X183181476Y-65856890D01*
X183060155Y-65627000D01*
X181867000Y-65627000D01*
X181867000Y-65647000D01*
X181613000Y-65647000D01*
X181613000Y-65627000D01*
X179327000Y-65627000D01*
X179327000Y-65647000D01*
X179073000Y-65647000D01*
X179073000Y-65627000D01*
X176787000Y-65627000D01*
X176787000Y-65647000D01*
X176533000Y-65647000D01*
X176533000Y-65627000D01*
X174247000Y-65627000D01*
X174247000Y-65647000D01*
X173993000Y-65647000D01*
X173993000Y-65627000D01*
X171707000Y-65627000D01*
X171707000Y-65647000D01*
X171453000Y-65647000D01*
X171453000Y-65627000D01*
X169167000Y-65627000D01*
X169167000Y-65647000D01*
X168913000Y-65647000D01*
X168913000Y-65627000D01*
X167719845Y-65627000D01*
X167598524Y-65856890D01*
X167643175Y-66004099D01*
X167768359Y-66266920D01*
X167942412Y-66500269D01*
X168158645Y-66695178D01*
X168275534Y-66764805D01*
X168093368Y-66886525D01*
X167886525Y-67093368D01*
X167878753Y-67105000D01*
X157456224Y-67105000D01*
X157410299Y-67100477D01*
X157364374Y-67105000D01*
X157364368Y-67105000D01*
X157245410Y-67116717D01*
X157227007Y-67118529D01*
X157173543Y-67134747D01*
X157050760Y-67171993D01*
X156888328Y-67258814D01*
X156745956Y-67375656D01*
X156716674Y-67411336D01*
X153543703Y-70584307D01*
X153454759Y-70495363D01*
X153222241Y-70340000D01*
X153454759Y-70184637D01*
X153654637Y-69984759D01*
X153811680Y-69749727D01*
X153919853Y-69488574D01*
X153975000Y-69211335D01*
X153975000Y-68928665D01*
X153919853Y-68651426D01*
X153811680Y-68390273D01*
X153654637Y-68155241D01*
X153454759Y-67955363D01*
X153222241Y-67800000D01*
X153454759Y-67644637D01*
X153654637Y-67444759D01*
X153811680Y-67209727D01*
X153919853Y-66948574D01*
X153975000Y-66671335D01*
X153975000Y-66388665D01*
X153919853Y-66111426D01*
X153811680Y-65850273D01*
X153654637Y-65615241D01*
X153454759Y-65415363D01*
X153222241Y-65260000D01*
X153397179Y-65143110D01*
X167598524Y-65143110D01*
X167719845Y-65373000D01*
X168913000Y-65373000D01*
X168913000Y-64179186D01*
X169167000Y-64179186D01*
X169167000Y-65373000D01*
X171453000Y-65373000D01*
X171453000Y-64179186D01*
X171707000Y-64179186D01*
X171707000Y-65373000D01*
X173993000Y-65373000D01*
X173993000Y-64179186D01*
X174247000Y-64179186D01*
X174247000Y-65373000D01*
X176533000Y-65373000D01*
X176533000Y-64179186D01*
X176787000Y-64179186D01*
X176787000Y-65373000D01*
X179073000Y-65373000D01*
X179073000Y-64179186D01*
X179327000Y-64179186D01*
X179327000Y-65373000D01*
X181613000Y-65373000D01*
X181613000Y-64179186D01*
X181867000Y-64179186D01*
X181867000Y-65373000D01*
X183060155Y-65373000D01*
X183181476Y-65143110D01*
X183136825Y-64995901D01*
X183136613Y-64995454D01*
X194305000Y-64995454D01*
X194305000Y-66164546D01*
X194533079Y-67311176D01*
X194980471Y-68391277D01*
X195629984Y-69363342D01*
X196456658Y-70190016D01*
X197428723Y-70839529D01*
X198508824Y-71286921D01*
X199655454Y-71515000D01*
X200824546Y-71515000D01*
X201971176Y-71286921D01*
X203051277Y-70839529D01*
X204023342Y-70190016D01*
X204850016Y-69363342D01*
X205499529Y-68391277D01*
X205946921Y-67311176D01*
X206175000Y-66164546D01*
X206175000Y-64995454D01*
X205946921Y-63848824D01*
X205499529Y-62768723D01*
X204850016Y-61796658D01*
X204023342Y-60969984D01*
X203051277Y-60320471D01*
X201971176Y-59873079D01*
X200824546Y-59645000D01*
X199655454Y-59645000D01*
X198508824Y-59873079D01*
X197428723Y-60320471D01*
X196456658Y-60969984D01*
X195629984Y-61796658D01*
X194980471Y-62768723D01*
X194533079Y-63848824D01*
X194305000Y-64995454D01*
X183136613Y-64995454D01*
X183011641Y-64733080D01*
X182837588Y-64499731D01*
X182621355Y-64304822D01*
X182371252Y-64155843D01*
X182096891Y-64058519D01*
X181867000Y-64179186D01*
X181613000Y-64179186D01*
X181383109Y-64058519D01*
X181108748Y-64155843D01*
X180858645Y-64304822D01*
X180642412Y-64499731D01*
X180470000Y-64730880D01*
X180297588Y-64499731D01*
X180081355Y-64304822D01*
X179831252Y-64155843D01*
X179556891Y-64058519D01*
X179327000Y-64179186D01*
X179073000Y-64179186D01*
X178843109Y-64058519D01*
X178568748Y-64155843D01*
X178318645Y-64304822D01*
X178102412Y-64499731D01*
X177930000Y-64730880D01*
X177757588Y-64499731D01*
X177541355Y-64304822D01*
X177291252Y-64155843D01*
X177016891Y-64058519D01*
X176787000Y-64179186D01*
X176533000Y-64179186D01*
X176303109Y-64058519D01*
X176028748Y-64155843D01*
X175778645Y-64304822D01*
X175562412Y-64499731D01*
X175390000Y-64730880D01*
X175217588Y-64499731D01*
X175001355Y-64304822D01*
X174751252Y-64155843D01*
X174476891Y-64058519D01*
X174247000Y-64179186D01*
X173993000Y-64179186D01*
X173763109Y-64058519D01*
X173488748Y-64155843D01*
X173238645Y-64304822D01*
X173022412Y-64499731D01*
X172850000Y-64730880D01*
X172677588Y-64499731D01*
X172461355Y-64304822D01*
X172211252Y-64155843D01*
X171936891Y-64058519D01*
X171707000Y-64179186D01*
X171453000Y-64179186D01*
X171223109Y-64058519D01*
X170948748Y-64155843D01*
X170698645Y-64304822D01*
X170482412Y-64499731D01*
X170310000Y-64730880D01*
X170137588Y-64499731D01*
X169921355Y-64304822D01*
X169671252Y-64155843D01*
X169396891Y-64058519D01*
X169167000Y-64179186D01*
X168913000Y-64179186D01*
X168683109Y-64058519D01*
X168408748Y-64155843D01*
X168158645Y-64304822D01*
X167942412Y-64499731D01*
X167768359Y-64733080D01*
X167643175Y-64995901D01*
X167598524Y-65143110D01*
X153397179Y-65143110D01*
X153454759Y-65104637D01*
X153654637Y-64904759D01*
X153811680Y-64669727D01*
X153919853Y-64408574D01*
X153975000Y-64131335D01*
X153975000Y-63848665D01*
X153919853Y-63571426D01*
X153811680Y-63310273D01*
X153654637Y-63075241D01*
X153454759Y-62875363D01*
X153222241Y-62720000D01*
X153454759Y-62564637D01*
X153654637Y-62364759D01*
X153811680Y-62129727D01*
X153919853Y-61868574D01*
X153975000Y-61591335D01*
X153975000Y-61308665D01*
X153919853Y-61031426D01*
X153811680Y-60770273D01*
X153654637Y-60535241D01*
X153454759Y-60335363D01*
X153219727Y-60178320D01*
X152958574Y-60070147D01*
X152681335Y-60015000D01*
X152398665Y-60015000D01*
X152121426Y-60070147D01*
X151860273Y-60178320D01*
X151625241Y-60335363D01*
X151425363Y-60535241D01*
X151268320Y-60770273D01*
X151160147Y-61031426D01*
X151105000Y-61308665D01*
X151105000Y-61591335D01*
X151160147Y-61868574D01*
X151268320Y-62129727D01*
X151425363Y-62364759D01*
X151625241Y-62564637D01*
X151857759Y-62720000D01*
X151625241Y-62875363D01*
X151425363Y-63075241D01*
X151268320Y-63310273D01*
X151160147Y-63571426D01*
X151105000Y-63848665D01*
X151105000Y-64131335D01*
X151160147Y-64408574D01*
X151268320Y-64669727D01*
X151425363Y-64904759D01*
X151625241Y-65104637D01*
X151857759Y-65260000D01*
X151625241Y-65415363D01*
X151425363Y-65615241D01*
X151268320Y-65850273D01*
X151160147Y-66111426D01*
X151105000Y-66388665D01*
X151105000Y-66671335D01*
X151160147Y-66948574D01*
X151268320Y-67209727D01*
X151425363Y-67444759D01*
X151625241Y-67644637D01*
X151857759Y-67800000D01*
X151625241Y-67955363D01*
X151425363Y-68155241D01*
X151318053Y-68315842D01*
X151265714Y-68320997D01*
X151122453Y-68364454D01*
X150990424Y-68435026D01*
X150874699Y-68529999D01*
X150856892Y-68551697D01*
X150679727Y-68433320D01*
X150418574Y-68325147D01*
X150141335Y-68270000D01*
X149858665Y-68270000D01*
X149581426Y-68325147D01*
X149320273Y-68433320D01*
X149085241Y-68590363D01*
X148885363Y-68790241D01*
X148728320Y-69025273D01*
X148620147Y-69286426D01*
X148565000Y-69563665D01*
X148565000Y-69846335D01*
X148620147Y-70123574D01*
X148728320Y-70384727D01*
X148885363Y-70619759D01*
X148940604Y-70675000D01*
X145972589Y-70675000D01*
X144373930Y-69076341D01*
X144344644Y-69040656D01*
X144202272Y-68923814D01*
X144039840Y-68836993D01*
X143863592Y-68783529D01*
X143726232Y-68770000D01*
X143680300Y-68765476D01*
X143634368Y-68770000D01*
X143474396Y-68770000D01*
X143294759Y-68590363D01*
X143059727Y-68433320D01*
X142798574Y-68325147D01*
X142521335Y-68270000D01*
X142238665Y-68270000D01*
X141961426Y-68325147D01*
X141700273Y-68433320D01*
X141465241Y-68590363D01*
X141265363Y-68790241D01*
X141251571Y-68810882D01*
X141219853Y-68651426D01*
X141111680Y-68390273D01*
X140954637Y-68155241D01*
X140754759Y-67955363D01*
X140522241Y-67800000D01*
X140754759Y-67644637D01*
X140954637Y-67444759D01*
X141111680Y-67209727D01*
X141219853Y-66948574D01*
X141275000Y-66671335D01*
X141275000Y-66388665D01*
X141219853Y-66111426D01*
X141111680Y-65850273D01*
X140954637Y-65615241D01*
X140754759Y-65415363D01*
X140522241Y-65260000D01*
X140754759Y-65104637D01*
X140954637Y-64904759D01*
X141111680Y-64669727D01*
X141219853Y-64408574D01*
X141275000Y-64131335D01*
X141275000Y-63848665D01*
X141219853Y-63571426D01*
X141111680Y-63310273D01*
X140954637Y-63075241D01*
X140756039Y-62876643D01*
X140764482Y-62875812D01*
X140884180Y-62839502D01*
X140994494Y-62780537D01*
X141091185Y-62701185D01*
X141170537Y-62604494D01*
X141229502Y-62494180D01*
X141265812Y-62374482D01*
X141278072Y-62250000D01*
X141275000Y-61735750D01*
X141116250Y-61577000D01*
X139967000Y-61577000D01*
X139967000Y-61597000D01*
X139713000Y-61597000D01*
X139713000Y-61577000D01*
X138563750Y-61577000D01*
X138405000Y-61735750D01*
X138401928Y-62250000D01*
X138414188Y-62374482D01*
X138450498Y-62494180D01*
X138509463Y-62604494D01*
X138588815Y-62701185D01*
X138685506Y-62780537D01*
X138795820Y-62839502D01*
X138915518Y-62875812D01*
X138923961Y-62876643D01*
X138725363Y-63075241D01*
X138568320Y-63310273D01*
X138509304Y-63452751D01*
X137066178Y-62009625D01*
X137027502Y-61962498D01*
X136839449Y-61808167D01*
X136624901Y-61693489D01*
X136392102Y-61622870D01*
X136210665Y-61605000D01*
X136150000Y-61599025D01*
X136089335Y-61605000D01*
X135085967Y-61605000D01*
X135079014Y-61599294D01*
X134821034Y-61461401D01*
X134541111Y-61376487D01*
X134322950Y-61355000D01*
X133927050Y-61355000D01*
X133708889Y-61376487D01*
X133428966Y-61461401D01*
X133170986Y-61599294D01*
X132944866Y-61784866D01*
X132759294Y-62010986D01*
X132621401Y-62268966D01*
X132536487Y-62548889D01*
X132507815Y-62840000D01*
X125529053Y-62840000D01*
X125499529Y-62768723D01*
X124850016Y-61796658D01*
X124023342Y-60969984D01*
X123544453Y-60650000D01*
X138401928Y-60650000D01*
X138405000Y-61164250D01*
X138563750Y-61323000D01*
X139713000Y-61323000D01*
X139713000Y-60173750D01*
X139967000Y-60173750D01*
X139967000Y-61323000D01*
X141116250Y-61323000D01*
X141275000Y-61164250D01*
X141278072Y-60650000D01*
X141265812Y-60525518D01*
X141229502Y-60405820D01*
X141170537Y-60295506D01*
X141091185Y-60198815D01*
X140994494Y-60119463D01*
X140884180Y-60060498D01*
X140764482Y-60024188D01*
X140640000Y-60011928D01*
X140125750Y-60015000D01*
X139967000Y-60173750D01*
X139713000Y-60173750D01*
X139554250Y-60015000D01*
X139040000Y-60011928D01*
X138915518Y-60024188D01*
X138795820Y-60060498D01*
X138685506Y-60119463D01*
X138588815Y-60198815D01*
X138509463Y-60295506D01*
X138450498Y-60405820D01*
X138414188Y-60525518D01*
X138401928Y-60650000D01*
X123544453Y-60650000D01*
X123051277Y-60320471D01*
X121971176Y-59873079D01*
X120824546Y-59645000D01*
X119655454Y-59645000D01*
X118508824Y-59873079D01*
X117428723Y-60320471D01*
X116456658Y-60969984D01*
X115629984Y-61796658D01*
X114980471Y-62768723D01*
X114533079Y-63848824D01*
X114305000Y-64995454D01*
X110900000Y-64995454D01*
X110900000Y-56240000D01*
X209580001Y-56240000D01*
X209580000Y-135920000D01*
G04 #@! TA.AperFunction,Conductor*
D24*
G36*
X209580000Y-135920000D02*
G01*
X110900000Y-135920000D01*
X110900000Y-125995454D01*
X114305000Y-125995454D01*
X114305000Y-127164546D01*
X114533079Y-128311176D01*
X114980471Y-129391277D01*
X115629984Y-130363342D01*
X116456658Y-131190016D01*
X117428723Y-131839529D01*
X118508824Y-132286921D01*
X119655454Y-132515000D01*
X120824546Y-132515000D01*
X121971176Y-132286921D01*
X123051277Y-131839529D01*
X124023342Y-131190016D01*
X124850016Y-130363342D01*
X125499529Y-129391277D01*
X125946921Y-128311176D01*
X126175000Y-127164546D01*
X126175000Y-125995454D01*
X125946921Y-124848824D01*
X125499529Y-123768723D01*
X124850016Y-122796658D01*
X124023342Y-121969984D01*
X123051277Y-121320471D01*
X121971176Y-120873079D01*
X120824546Y-120645000D01*
X119655454Y-120645000D01*
X118508824Y-120873079D01*
X117428723Y-121320471D01*
X116456658Y-121969984D01*
X115629984Y-122796658D01*
X114980471Y-123768723D01*
X114533079Y-124848824D01*
X114305000Y-125995454D01*
X110900000Y-125995454D01*
X110900000Y-113929224D01*
X119070381Y-113929224D01*
X119202317Y-114224312D01*
X119543045Y-114395159D01*
X119910557Y-114496250D01*
X120290729Y-114523701D01*
X120668951Y-114476457D01*
X121030690Y-114356333D01*
X121277683Y-114224312D01*
X121409619Y-113929224D01*
X120240000Y-112759605D01*
X119070381Y-113929224D01*
X110900000Y-113929224D01*
X110900000Y-112630729D01*
X118296299Y-112630729D01*
X118343543Y-113008951D01*
X118463667Y-113370690D01*
X118595688Y-113617683D01*
X118890776Y-113749619D01*
X120060395Y-112580000D01*
X120419605Y-112580000D01*
X121589224Y-113749619D01*
X121884312Y-113617683D01*
X122055159Y-113276955D01*
X122156250Y-112909443D01*
X122183701Y-112529271D01*
X122136457Y-112151049D01*
X122016333Y-111789310D01*
X121884312Y-111542317D01*
X121589224Y-111410381D01*
X120419605Y-112580000D01*
X120060395Y-112580000D01*
X118890776Y-111410381D01*
X118595688Y-111542317D01*
X118424841Y-111883045D01*
X118323750Y-112250557D01*
X118296299Y-112630729D01*
X110900000Y-112630729D01*
X110900000Y-111230776D01*
X119070381Y-111230776D01*
X120240000Y-112400395D01*
X121409619Y-111230776D01*
X121277683Y-110935688D01*
X120936955Y-110764841D01*
X120569443Y-110663750D01*
X120189271Y-110636299D01*
X119811049Y-110683543D01*
X119449310Y-110803667D01*
X119202317Y-110935688D01*
X119070381Y-111230776D01*
X110900000Y-111230776D01*
X110900000Y-106280000D01*
X118301928Y-106280000D01*
X118301928Y-108880000D01*
X118314188Y-109004482D01*
X118350498Y-109124180D01*
X118409463Y-109234494D01*
X118488815Y-109331185D01*
X118585506Y-109410537D01*
X118695820Y-109469502D01*
X118815518Y-109505812D01*
X118940000Y-109518072D01*
X121540000Y-109518072D01*
X121664482Y-109505812D01*
X121784180Y-109469502D01*
X121894494Y-109410537D01*
X121991185Y-109331185D01*
X122070537Y-109234494D01*
X122129502Y-109124180D01*
X122165812Y-109004482D01*
X122178072Y-108880000D01*
X122178072Y-108815000D01*
X128439701Y-108815000D01*
X128439700Y-124449035D01*
X128433725Y-124509700D01*
X128457570Y-124751802D01*
X128487002Y-124848824D01*
X128528189Y-124984600D01*
X128642867Y-125199148D01*
X128797198Y-125387202D01*
X128844325Y-125425878D01*
X133321928Y-129903482D01*
X133321928Y-130395000D01*
X133334188Y-130519482D01*
X133370498Y-130639180D01*
X133429463Y-130749494D01*
X133508815Y-130846185D01*
X133605506Y-130925537D01*
X133715820Y-130984502D01*
X133835518Y-131020812D01*
X133960000Y-131033072D01*
X135560000Y-131033072D01*
X135684482Y-131020812D01*
X135804180Y-130984502D01*
X135914494Y-130925537D01*
X135930856Y-130912109D01*
X136079117Y-131060370D01*
X136117798Y-131107502D01*
X136305851Y-131261833D01*
X136520399Y-131376511D01*
X136753198Y-131447130D01*
X136995300Y-131470975D01*
X137055965Y-131465000D01*
X139105377Y-131465000D01*
X139160273Y-131501680D01*
X139421426Y-131609853D01*
X139698665Y-131665000D01*
X139981335Y-131665000D01*
X140258574Y-131609853D01*
X140519727Y-131501680D01*
X140754759Y-131344637D01*
X140954637Y-131144759D01*
X141111680Y-130909727D01*
X141219853Y-130648574D01*
X141275000Y-130371335D01*
X141275000Y-130088665D01*
X141219853Y-129811426D01*
X141111680Y-129550273D01*
X140954637Y-129315241D01*
X140754759Y-129115363D01*
X140519727Y-128958320D01*
X140509135Y-128953933D01*
X140695131Y-128842385D01*
X140903519Y-128653414D01*
X141071037Y-128427420D01*
X141191246Y-128173087D01*
X141231904Y-128039039D01*
X141109915Y-127817000D01*
X139967000Y-127817000D01*
X139967000Y-127837000D01*
X139713000Y-127837000D01*
X139713000Y-127817000D01*
X138570085Y-127817000D01*
X138448096Y-128039039D01*
X138488754Y-128173087D01*
X138608963Y-128427420D01*
X138776481Y-128653414D01*
X138984869Y-128842385D01*
X139170865Y-128953933D01*
X139160273Y-128958320D01*
X139105377Y-128995000D01*
X137506853Y-128995000D01*
X137276479Y-128764626D01*
X137237802Y-128717498D01*
X137049749Y-128563167D01*
X136835201Y-128448489D01*
X136602402Y-128377870D01*
X136420965Y-128360000D01*
X136360300Y-128354025D01*
X136299635Y-128360000D01*
X136024468Y-128360000D01*
X136011185Y-128343815D01*
X135914494Y-128264463D01*
X135804180Y-128205498D01*
X135684482Y-128169188D01*
X135560000Y-128156928D01*
X135552785Y-128156928D01*
X135573097Y-128087702D01*
X134760000Y-127274605D01*
X134745858Y-127288748D01*
X134566253Y-127109143D01*
X134580395Y-127095000D01*
X134939605Y-127095000D01*
X135752702Y-127908097D01*
X135996671Y-127836514D01*
X136117571Y-127581004D01*
X136186300Y-127306816D01*
X136200217Y-127024488D01*
X136158787Y-126744870D01*
X136063603Y-126478708D01*
X135996671Y-126353486D01*
X135752702Y-126281903D01*
X134939605Y-127095000D01*
X134580395Y-127095000D01*
X133767298Y-126281903D01*
X133523329Y-126353486D01*
X133440368Y-126528815D01*
X133013851Y-126102298D01*
X133946903Y-126102298D01*
X134760000Y-126915395D01*
X135573097Y-126102298D01*
X135501514Y-125858329D01*
X135246004Y-125737429D01*
X134971816Y-125668700D01*
X134689488Y-125654783D01*
X134409870Y-125696213D01*
X134143708Y-125791397D01*
X134018486Y-125858329D01*
X133946903Y-126102298D01*
X133013851Y-126102298D01*
X130909700Y-123998147D01*
X130909700Y-113840000D01*
X132507815Y-113840000D01*
X132536487Y-114131111D01*
X132621401Y-114411034D01*
X132759294Y-114669014D01*
X132944866Y-114895134D01*
X133170986Y-115080706D01*
X133188374Y-115090000D01*
X133170986Y-115099294D01*
X132944866Y-115284866D01*
X132759294Y-115510986D01*
X132621401Y-115768966D01*
X132536487Y-116048889D01*
X132507815Y-116340000D01*
X132536487Y-116631111D01*
X132621401Y-116911034D01*
X132759294Y-117169014D01*
X132944866Y-117395134D01*
X133170986Y-117580706D01*
X133188374Y-117590000D01*
X133170986Y-117599294D01*
X132944866Y-117784866D01*
X132759294Y-118010986D01*
X132621401Y-118268966D01*
X132536487Y-118548889D01*
X132507815Y-118840000D01*
X132536487Y-119131111D01*
X132621401Y-119411034D01*
X132759294Y-119669014D01*
X132944866Y-119895134D01*
X133008337Y-119947223D01*
X132906614Y-120001595D01*
X132772038Y-120112038D01*
X132661595Y-120246614D01*
X132579528Y-120400150D01*
X132528992Y-120566746D01*
X132511928Y-120740000D01*
X132511928Y-121940000D01*
X132528992Y-122113254D01*
X132579528Y-122279850D01*
X132661595Y-122433386D01*
X132772038Y-122567962D01*
X132906614Y-122678405D01*
X133060150Y-122760472D01*
X133226746Y-122811008D01*
X133400000Y-122828072D01*
X134850000Y-122828072D01*
X135023254Y-122811008D01*
X135189850Y-122760472D01*
X135343386Y-122678405D01*
X135477962Y-122567962D01*
X135588405Y-122433386D01*
X135670472Y-122279850D01*
X135721008Y-122113254D01*
X135738072Y-121940000D01*
X135738072Y-120740000D01*
X135721008Y-120566746D01*
X135670472Y-120400150D01*
X135588405Y-120246614D01*
X135477962Y-120112038D01*
X135343386Y-120001595D01*
X135241663Y-119947223D01*
X135305134Y-119895134D01*
X135490706Y-119669014D01*
X135628599Y-119411034D01*
X135713513Y-119131111D01*
X135742185Y-118840000D01*
X135713513Y-118548889D01*
X135628599Y-118268966D01*
X135490706Y-118010986D01*
X135305134Y-117784866D01*
X135079014Y-117599294D01*
X135061626Y-117590000D01*
X135079014Y-117580706D01*
X135305134Y-117395134D01*
X135490706Y-117169014D01*
X135566207Y-117027761D01*
X136898826Y-118360380D01*
X136937498Y-118407502D01*
X137125551Y-118561833D01*
X137280467Y-118644637D01*
X137340099Y-118676511D01*
X137572897Y-118747130D01*
X137814999Y-118770975D01*
X137875664Y-118765000D01*
X139105377Y-118765000D01*
X139157759Y-118800000D01*
X138925241Y-118955363D01*
X138725363Y-119155241D01*
X138568320Y-119390273D01*
X138460147Y-119651426D01*
X138405000Y-119928665D01*
X138405000Y-120211335D01*
X138460147Y-120488574D01*
X138568320Y-120749727D01*
X138725363Y-120984759D01*
X138925241Y-121184637D01*
X139157759Y-121340000D01*
X138925241Y-121495363D01*
X138725363Y-121695241D01*
X138568320Y-121930273D01*
X138460147Y-122191426D01*
X138405000Y-122468665D01*
X138405000Y-122751335D01*
X138460147Y-123028574D01*
X138568320Y-123289727D01*
X138725363Y-123524759D01*
X138925241Y-123724637D01*
X139157759Y-123880000D01*
X138925241Y-124035363D01*
X138725363Y-124235241D01*
X138568320Y-124470273D01*
X138460147Y-124731426D01*
X138405000Y-125008665D01*
X138405000Y-125291335D01*
X138460147Y-125568574D01*
X138568320Y-125829727D01*
X138725363Y-126064759D01*
X138925241Y-126264637D01*
X139160273Y-126421680D01*
X139170865Y-126426067D01*
X138984869Y-126537615D01*
X138776481Y-126726586D01*
X138608963Y-126952580D01*
X138488754Y-127206913D01*
X138448096Y-127340961D01*
X138570085Y-127563000D01*
X139713000Y-127563000D01*
X139713000Y-127543000D01*
X139967000Y-127543000D01*
X139967000Y-127563000D01*
X141109915Y-127563000D01*
X141231904Y-127340961D01*
X141191246Y-127206913D01*
X141071037Y-126952580D01*
X140903519Y-126726586D01*
X140695131Y-126537615D01*
X140509135Y-126426067D01*
X140519727Y-126421680D01*
X140754759Y-126264637D01*
X140954637Y-126064759D01*
X141111680Y-125829727D01*
X141219853Y-125568574D01*
X141275000Y-125291335D01*
X141275000Y-125008665D01*
X141219853Y-124731426D01*
X141111680Y-124470273D01*
X140954637Y-124235241D01*
X140754759Y-124035363D01*
X140522241Y-123880000D01*
X140754759Y-123724637D01*
X140954637Y-123524759D01*
X141111680Y-123289727D01*
X141219853Y-123028574D01*
X141275000Y-122751335D01*
X141275000Y-122468665D01*
X141219853Y-122191426D01*
X141111680Y-121930273D01*
X140954637Y-121695241D01*
X140754759Y-121495363D01*
X140522241Y-121340000D01*
X140754759Y-121184637D01*
X140954637Y-120984759D01*
X140968429Y-120964118D01*
X141000147Y-121123574D01*
X141108320Y-121384727D01*
X141265363Y-121619759D01*
X141465241Y-121819637D01*
X141700273Y-121976680D01*
X141961426Y-122084853D01*
X142238665Y-122140000D01*
X142521335Y-122140000D01*
X142798574Y-122084853D01*
X143059727Y-121976680D01*
X143294759Y-121819637D01*
X143383704Y-121730693D01*
X144891670Y-123238659D01*
X144920956Y-123274344D01*
X145063328Y-123391186D01*
X145225760Y-123478007D01*
X145402008Y-123531471D01*
X145585300Y-123549524D01*
X145631232Y-123545000D01*
X151445604Y-123545000D01*
X151625241Y-123724637D01*
X151857759Y-123880000D01*
X151625241Y-124035363D01*
X151425363Y-124235241D01*
X151268320Y-124470273D01*
X151160147Y-124731426D01*
X151105000Y-125008665D01*
X151105000Y-125291335D01*
X151160147Y-125568574D01*
X151268320Y-125829727D01*
X151425363Y-126064759D01*
X151605001Y-126244397D01*
X151605000Y-126595604D01*
X151425363Y-126775241D01*
X151268320Y-127010273D01*
X151160147Y-127271426D01*
X151105000Y-127548665D01*
X151105000Y-127831335D01*
X151160147Y-128108574D01*
X151268320Y-128369727D01*
X151425363Y-128604759D01*
X151625241Y-128804637D01*
X151857759Y-128960000D01*
X151625241Y-129115363D01*
X151425363Y-129315241D01*
X151268320Y-129550273D01*
X151160147Y-129811426D01*
X151105000Y-130088665D01*
X151105000Y-130371335D01*
X151160147Y-130648574D01*
X151268320Y-130909727D01*
X151425363Y-131144759D01*
X151625241Y-131344637D01*
X151860273Y-131501680D01*
X152121426Y-131609853D01*
X152398665Y-131665000D01*
X152681335Y-131665000D01*
X152958574Y-131609853D01*
X153219727Y-131501680D01*
X153454759Y-131344637D01*
X153654637Y-131144759D01*
X153758043Y-130990000D01*
X154436822Y-130990000D01*
X154561525Y-131176632D01*
X154768368Y-131383475D01*
X155011589Y-131545990D01*
X155281842Y-131657932D01*
X155568740Y-131715000D01*
X155861260Y-131715000D01*
X156148158Y-131657932D01*
X156418411Y-131545990D01*
X156661632Y-131383475D01*
X156868475Y-131176632D01*
X157030990Y-130933411D01*
X157142932Y-130663158D01*
X157200000Y-130376260D01*
X157200000Y-130083740D01*
X157142932Y-129796842D01*
X157030990Y-129526589D01*
X156868475Y-129283368D01*
X156661632Y-129076525D01*
X156487240Y-128960000D01*
X156661632Y-128843475D01*
X156868475Y-128636632D01*
X157030990Y-128393411D01*
X157142932Y-128123158D01*
X157200000Y-127836260D01*
X157200000Y-127543740D01*
X157142932Y-127256842D01*
X157030990Y-126986589D01*
X156868475Y-126743368D01*
X156736620Y-126611513D01*
X156809180Y-126589502D01*
X156919494Y-126530537D01*
X157016185Y-126451185D01*
X157095537Y-126354494D01*
X157154502Y-126244180D01*
X157190812Y-126124482D01*
X157203072Y-126000000D01*
X157203072Y-125995454D01*
X194305000Y-125995454D01*
X194305000Y-127164546D01*
X194533079Y-128311176D01*
X194980471Y-129391277D01*
X195629984Y-130363342D01*
X196456658Y-131190016D01*
X197428723Y-131839529D01*
X198508824Y-132286921D01*
X199655454Y-132515000D01*
X200824546Y-132515000D01*
X201971176Y-132286921D01*
X203051277Y-131839529D01*
X204023342Y-131190016D01*
X204850016Y-130363342D01*
X205499529Y-129391277D01*
X205946921Y-128311176D01*
X206175000Y-127164546D01*
X206175000Y-125995454D01*
X205946921Y-124848824D01*
X205499529Y-123768723D01*
X204850016Y-122796658D01*
X204023342Y-121969984D01*
X203051277Y-121320471D01*
X201971176Y-120873079D01*
X200824546Y-120645000D01*
X199655454Y-120645000D01*
X198508824Y-120873079D01*
X197428723Y-121320471D01*
X196456658Y-121969984D01*
X195629984Y-122796658D01*
X194980471Y-123768723D01*
X194533079Y-124848824D01*
X194305000Y-125995454D01*
X157203072Y-125995454D01*
X157203072Y-124300000D01*
X157190812Y-124175518D01*
X157154502Y-124055820D01*
X157095537Y-123945506D01*
X157016185Y-123848815D01*
X156919494Y-123769463D01*
X156809180Y-123710498D01*
X156689482Y-123674188D01*
X156565000Y-123661928D01*
X154865000Y-123661928D01*
X154740518Y-123674188D01*
X154620820Y-123710498D01*
X154510506Y-123769463D01*
X154413815Y-123848815D01*
X154334463Y-123945506D01*
X154275498Y-124055820D01*
X154239188Y-124175518D01*
X154226928Y-124300000D01*
X154226928Y-126000000D01*
X154239188Y-126124482D01*
X154275498Y-126244180D01*
X154334463Y-126354494D01*
X154413815Y-126451185D01*
X154510506Y-126530537D01*
X154620820Y-126589502D01*
X154693380Y-126611513D01*
X154561525Y-126743368D01*
X154399010Y-126986589D01*
X154287068Y-127256842D01*
X154230000Y-127543740D01*
X154230000Y-127836260D01*
X154287068Y-128123158D01*
X154399010Y-128393411D01*
X154561525Y-128636632D01*
X154768368Y-128843475D01*
X154942760Y-128960000D01*
X154768368Y-129076525D01*
X154561525Y-129283368D01*
X154436822Y-129470000D01*
X153758043Y-129470000D01*
X153654637Y-129315241D01*
X153454759Y-129115363D01*
X153222241Y-128960000D01*
X153454759Y-128804637D01*
X153654637Y-128604759D01*
X153811680Y-128369727D01*
X153919853Y-128108574D01*
X153975000Y-127831335D01*
X153975000Y-127548665D01*
X153919853Y-127271426D01*
X153811680Y-127010273D01*
X153654637Y-126775241D01*
X153475000Y-126595604D01*
X153475000Y-126244396D01*
X153654637Y-126064759D01*
X153811680Y-125829727D01*
X153919853Y-125568574D01*
X153975000Y-125291335D01*
X153975000Y-125008665D01*
X153919853Y-124731426D01*
X153811680Y-124470273D01*
X153654637Y-124235241D01*
X153454759Y-124035363D01*
X153222241Y-123880000D01*
X153454759Y-123724637D01*
X153654637Y-123524759D01*
X153811680Y-123289727D01*
X153919853Y-123028574D01*
X153975000Y-122751335D01*
X153975000Y-122468665D01*
X153919853Y-122191426D01*
X153811680Y-121930273D01*
X153654637Y-121695241D01*
X153454759Y-121495363D01*
X153222241Y-121340000D01*
X153454759Y-121184637D01*
X153654637Y-120984759D01*
X153811680Y-120749727D01*
X153919853Y-120488574D01*
X153975000Y-120211335D01*
X153975000Y-119928665D01*
X153919853Y-119651426D01*
X153811680Y-119390273D01*
X153654637Y-119155241D01*
X153454759Y-118955363D01*
X153222241Y-118800000D01*
X153454759Y-118644637D01*
X153654637Y-118444759D01*
X153811680Y-118209727D01*
X153919853Y-117948574D01*
X153975000Y-117671335D01*
X153975000Y-117388665D01*
X153919853Y-117111426D01*
X153811680Y-116850273D01*
X153654637Y-116615241D01*
X153454759Y-116415363D01*
X153222241Y-116260000D01*
X153454759Y-116104637D01*
X153654637Y-115904759D01*
X153811680Y-115669727D01*
X153919853Y-115408574D01*
X153975000Y-115131335D01*
X153975000Y-114848665D01*
X153919853Y-114571426D01*
X153891246Y-114502363D01*
X153896276Y-114499674D01*
X154012001Y-114404701D01*
X154035804Y-114375697D01*
X163753490Y-104658012D01*
X163764010Y-104683411D01*
X163926525Y-104926632D01*
X164133368Y-105133475D01*
X164307760Y-105250000D01*
X164133368Y-105366525D01*
X163926525Y-105573368D01*
X163764010Y-105816589D01*
X163652068Y-106086842D01*
X163595000Y-106373740D01*
X163595000Y-106666260D01*
X163652068Y-106953158D01*
X163764010Y-107223411D01*
X163926525Y-107466632D01*
X164133368Y-107673475D01*
X164307760Y-107790000D01*
X164133368Y-107906525D01*
X163926525Y-108113368D01*
X163764010Y-108356589D01*
X163652068Y-108626842D01*
X163595000Y-108913740D01*
X163595000Y-109206260D01*
X163652068Y-109493158D01*
X163764010Y-109763411D01*
X163926525Y-110006632D01*
X164133368Y-110213475D01*
X164307760Y-110330000D01*
X164133368Y-110446525D01*
X163926525Y-110653368D01*
X163764010Y-110896589D01*
X163652068Y-111166842D01*
X163595000Y-111453740D01*
X163595000Y-111746260D01*
X163652068Y-112033158D01*
X163764010Y-112303411D01*
X163926525Y-112546632D01*
X164133368Y-112753475D01*
X164307760Y-112870000D01*
X164133368Y-112986525D01*
X163926525Y-113193368D01*
X163764010Y-113436589D01*
X163652068Y-113706842D01*
X163595000Y-113993740D01*
X163595000Y-114286260D01*
X163652068Y-114573158D01*
X163764010Y-114843411D01*
X163926525Y-115086632D01*
X164133368Y-115293475D01*
X164376589Y-115455990D01*
X164646842Y-115567932D01*
X164933740Y-115625000D01*
X165226260Y-115625000D01*
X165513158Y-115567932D01*
X165783411Y-115455990D01*
X166026632Y-115293475D01*
X166233475Y-115086632D01*
X166358178Y-114900000D01*
X168881822Y-114900000D01*
X169006525Y-115086632D01*
X169213368Y-115293475D01*
X169456589Y-115455990D01*
X169726842Y-115567932D01*
X170013740Y-115625000D01*
X170306260Y-115625000D01*
X170593158Y-115567932D01*
X170863411Y-115455990D01*
X171106632Y-115293475D01*
X171313475Y-115086632D01*
X171438178Y-114900000D01*
X174021957Y-114900000D01*
X174125363Y-115054759D01*
X174325241Y-115254637D01*
X174560273Y-115411680D01*
X174821426Y-115519853D01*
X175098665Y-115575000D01*
X175381335Y-115575000D01*
X175658574Y-115519853D01*
X175919727Y-115411680D01*
X176154759Y-115254637D01*
X176354637Y-115054759D01*
X176511680Y-114819727D01*
X176619853Y-114558574D01*
X176675000Y-114281335D01*
X176675000Y-113998665D01*
X176619853Y-113721426D01*
X176511680Y-113460273D01*
X176354637Y-113225241D01*
X176154759Y-113025363D01*
X175922241Y-112870000D01*
X176154759Y-112714637D01*
X176354637Y-112514759D01*
X176511680Y-112279727D01*
X176619853Y-112018574D01*
X176675000Y-111741335D01*
X176675000Y-111458665D01*
X176619853Y-111181426D01*
X176511680Y-110920273D01*
X176354637Y-110685241D01*
X176154759Y-110485363D01*
X175922241Y-110330000D01*
X176154759Y-110174637D01*
X176354637Y-109974759D01*
X176511680Y-109739727D01*
X176619853Y-109478574D01*
X176675000Y-109201335D01*
X176675000Y-108918665D01*
X176619853Y-108641426D01*
X176511680Y-108380273D01*
X176354637Y-108145241D01*
X176154759Y-107945363D01*
X175922241Y-107790000D01*
X176154759Y-107634637D01*
X176354637Y-107434759D01*
X176511680Y-107199727D01*
X176619853Y-106938574D01*
X176675000Y-106661335D01*
X176675000Y-106378665D01*
X176619853Y-106101426D01*
X176511680Y-105840273D01*
X176354637Y-105605241D01*
X176154759Y-105405363D01*
X175922241Y-105250000D01*
X176154759Y-105094637D01*
X176354637Y-104894759D01*
X176511680Y-104659727D01*
X176619853Y-104398574D01*
X176675000Y-104121335D01*
X176675000Y-103838665D01*
X176619853Y-103561426D01*
X176581983Y-103470000D01*
X177887378Y-103470000D01*
X177924700Y-103473676D01*
X177962022Y-103470000D01*
X177962033Y-103470000D01*
X178073686Y-103459003D01*
X178216947Y-103415546D01*
X178348976Y-103344974D01*
X178464701Y-103250001D01*
X178488504Y-103220997D01*
X189440053Y-92269449D01*
X189565241Y-92394637D01*
X189797759Y-92550000D01*
X189565241Y-92705363D01*
X189365363Y-92905241D01*
X189208320Y-93140273D01*
X189100147Y-93401426D01*
X189045000Y-93678665D01*
X189045000Y-93961335D01*
X189100147Y-94238574D01*
X189208320Y-94499727D01*
X189365363Y-94734759D01*
X189565241Y-94934637D01*
X189797759Y-95090000D01*
X189565241Y-95245363D01*
X189365363Y-95445241D01*
X189208320Y-95680273D01*
X189100147Y-95941426D01*
X189045000Y-96218665D01*
X189045000Y-96501335D01*
X189100147Y-96778574D01*
X189208320Y-97039727D01*
X189365363Y-97274759D01*
X189565241Y-97474637D01*
X189797759Y-97630000D01*
X189565241Y-97785363D01*
X189365363Y-97985241D01*
X189208320Y-98220273D01*
X189100147Y-98481426D01*
X189045000Y-98758665D01*
X189045000Y-99041335D01*
X189100147Y-99318574D01*
X189208320Y-99579727D01*
X189365363Y-99814759D01*
X189565241Y-100014637D01*
X189797759Y-100170000D01*
X189565241Y-100325363D01*
X189365363Y-100525241D01*
X189208320Y-100760273D01*
X189100147Y-101021426D01*
X189045000Y-101298665D01*
X189045000Y-101581335D01*
X189100147Y-101858574D01*
X189208320Y-102119727D01*
X189365363Y-102354759D01*
X189565241Y-102554637D01*
X189797759Y-102710000D01*
X189565241Y-102865363D01*
X189365363Y-103065241D01*
X189208320Y-103300273D01*
X189100147Y-103561426D01*
X189045000Y-103838665D01*
X189045000Y-104121335D01*
X189100147Y-104398574D01*
X189208320Y-104659727D01*
X189365363Y-104894759D01*
X189565241Y-105094637D01*
X189797759Y-105250000D01*
X189565241Y-105405363D01*
X189365363Y-105605241D01*
X189208320Y-105840273D01*
X189100147Y-106101426D01*
X189045000Y-106378665D01*
X189045000Y-106661335D01*
X189100147Y-106938574D01*
X189208320Y-107199727D01*
X189365363Y-107434759D01*
X189565241Y-107634637D01*
X189797759Y-107790000D01*
X189565241Y-107945363D01*
X189365363Y-108145241D01*
X189208320Y-108380273D01*
X189100147Y-108641426D01*
X189045000Y-108918665D01*
X189045000Y-109201335D01*
X189100147Y-109478574D01*
X189208320Y-109739727D01*
X189365363Y-109974759D01*
X189565241Y-110174637D01*
X189797759Y-110330000D01*
X189565241Y-110485363D01*
X189365363Y-110685241D01*
X189208320Y-110920273D01*
X189100147Y-111181426D01*
X189045000Y-111458665D01*
X189045000Y-111741335D01*
X189100147Y-112018574D01*
X189208320Y-112279727D01*
X189365363Y-112514759D01*
X189565241Y-112714637D01*
X189797759Y-112870000D01*
X189565241Y-113025363D01*
X189365363Y-113225241D01*
X189208320Y-113460273D01*
X189100147Y-113721426D01*
X189045000Y-113998665D01*
X189045000Y-114281335D01*
X189100147Y-114558574D01*
X189208320Y-114819727D01*
X189365363Y-115054759D01*
X189565241Y-115254637D01*
X189800273Y-115411680D01*
X190061426Y-115519853D01*
X190338665Y-115575000D01*
X190621335Y-115575000D01*
X190898574Y-115519853D01*
X191159727Y-115411680D01*
X191394759Y-115254637D01*
X191594637Y-115054759D01*
X191698043Y-114900000D01*
X194071928Y-114900000D01*
X194071928Y-114990000D01*
X194084188Y-115114482D01*
X194120498Y-115234180D01*
X194179463Y-115344494D01*
X194258815Y-115441185D01*
X194355506Y-115520537D01*
X194465820Y-115579502D01*
X194585518Y-115615812D01*
X194710000Y-115628072D01*
X196410000Y-115628072D01*
X196534482Y-115615812D01*
X196654180Y-115579502D01*
X196764494Y-115520537D01*
X196861185Y-115441185D01*
X196940537Y-115344494D01*
X196999502Y-115234180D01*
X197035812Y-115114482D01*
X197048072Y-114990000D01*
X197048072Y-114900000D01*
X199151928Y-114900000D01*
X199151928Y-114990000D01*
X199164188Y-115114482D01*
X199200498Y-115234180D01*
X199259463Y-115344494D01*
X199338815Y-115441185D01*
X199435506Y-115520537D01*
X199545820Y-115579502D01*
X199665518Y-115615812D01*
X199790000Y-115628072D01*
X201490000Y-115628072D01*
X201614482Y-115615812D01*
X201734180Y-115579502D01*
X201844494Y-115520537D01*
X201941185Y-115441185D01*
X202020537Y-115344494D01*
X202079502Y-115234180D01*
X202115812Y-115114482D01*
X202128072Y-114990000D01*
X202128072Y-113290000D01*
X202115812Y-113165518D01*
X202079502Y-113045820D01*
X202020537Y-112935506D01*
X201941185Y-112838815D01*
X201844494Y-112759463D01*
X201734180Y-112700498D01*
X201661620Y-112678487D01*
X201793475Y-112546632D01*
X201955990Y-112303411D01*
X202067932Y-112033158D01*
X202125000Y-111746260D01*
X202125000Y-111453740D01*
X202067932Y-111166842D01*
X201955990Y-110896589D01*
X201793475Y-110653368D01*
X201586632Y-110446525D01*
X201412240Y-110330000D01*
X201586632Y-110213475D01*
X201793475Y-110006632D01*
X201955990Y-109763411D01*
X202067932Y-109493158D01*
X202125000Y-109206260D01*
X202125000Y-108913740D01*
X202067932Y-108626842D01*
X201955990Y-108356589D01*
X201793475Y-108113368D01*
X201586632Y-107906525D01*
X201412240Y-107790000D01*
X201586632Y-107673475D01*
X201793475Y-107466632D01*
X201955990Y-107223411D01*
X202067932Y-106953158D01*
X202125000Y-106666260D01*
X202125000Y-106373740D01*
X202067932Y-106086842D01*
X201955990Y-105816589D01*
X201793475Y-105573368D01*
X201586632Y-105366525D01*
X201412240Y-105250000D01*
X201586632Y-105133475D01*
X201793475Y-104926632D01*
X201955990Y-104683411D01*
X202067932Y-104413158D01*
X202125000Y-104126260D01*
X202125000Y-103833740D01*
X202067932Y-103546842D01*
X201955990Y-103276589D01*
X201793475Y-103033368D01*
X201586632Y-102826525D01*
X201412240Y-102710000D01*
X201586632Y-102593475D01*
X201793475Y-102386632D01*
X201955990Y-102143411D01*
X202067932Y-101873158D01*
X202125000Y-101586260D01*
X202125000Y-101293740D01*
X202067932Y-101006842D01*
X201955990Y-100736589D01*
X201793475Y-100493368D01*
X201586632Y-100286525D01*
X201412240Y-100170000D01*
X201586632Y-100053475D01*
X201793475Y-99846632D01*
X201955990Y-99603411D01*
X202067932Y-99333158D01*
X202125000Y-99046260D01*
X202125000Y-98753740D01*
X202067932Y-98466842D01*
X201955990Y-98196589D01*
X201793475Y-97953368D01*
X201586632Y-97746525D01*
X201412240Y-97630000D01*
X201586632Y-97513475D01*
X201793475Y-97306632D01*
X201955990Y-97063411D01*
X202067932Y-96793158D01*
X202125000Y-96506260D01*
X202125000Y-96213740D01*
X202067932Y-95926842D01*
X201955990Y-95656589D01*
X201793475Y-95413368D01*
X201586632Y-95206525D01*
X201412240Y-95090000D01*
X201586632Y-94973475D01*
X201793475Y-94766632D01*
X201955990Y-94523411D01*
X202067932Y-94253158D01*
X202125000Y-93966260D01*
X202125000Y-93673740D01*
X202067932Y-93386842D01*
X201955990Y-93116589D01*
X201793475Y-92873368D01*
X201586632Y-92666525D01*
X201412240Y-92550000D01*
X201586632Y-92433475D01*
X201793475Y-92226632D01*
X201955990Y-91983411D01*
X202067932Y-91713158D01*
X202125000Y-91426260D01*
X202125000Y-91133740D01*
X202067932Y-90846842D01*
X201955990Y-90576589D01*
X201793475Y-90333368D01*
X201586632Y-90126525D01*
X201412240Y-90010000D01*
X201586632Y-89893475D01*
X201793475Y-89686632D01*
X201955990Y-89443411D01*
X202067932Y-89173158D01*
X202125000Y-88886260D01*
X202125000Y-88593740D01*
X202067932Y-88306842D01*
X201955990Y-88036589D01*
X201793475Y-87793368D01*
X201586632Y-87586525D01*
X201412240Y-87470000D01*
X201586632Y-87353475D01*
X201793475Y-87146632D01*
X201955990Y-86903411D01*
X202067932Y-86633158D01*
X202125000Y-86346260D01*
X202125000Y-86053740D01*
X202067932Y-85766842D01*
X201955990Y-85496589D01*
X201793475Y-85253368D01*
X201586632Y-85046525D01*
X201412240Y-84930000D01*
X201586632Y-84813475D01*
X201793475Y-84606632D01*
X201955990Y-84363411D01*
X202067932Y-84093158D01*
X202125000Y-83806260D01*
X202125000Y-83513740D01*
X202067932Y-83226842D01*
X201955990Y-82956589D01*
X201793475Y-82713368D01*
X201586632Y-82506525D01*
X201404466Y-82384805D01*
X201521355Y-82315178D01*
X201737588Y-82120269D01*
X201911641Y-81886920D01*
X202036825Y-81624099D01*
X202081476Y-81476890D01*
X201960155Y-81247000D01*
X200767000Y-81247000D01*
X200767000Y-81267000D01*
X200513000Y-81267000D01*
X200513000Y-81247000D01*
X199319845Y-81247000D01*
X199198524Y-81476890D01*
X199243175Y-81624099D01*
X199368359Y-81886920D01*
X199542412Y-82120269D01*
X199758645Y-82315178D01*
X199875534Y-82384805D01*
X199693368Y-82506525D01*
X199486525Y-82713368D01*
X199361822Y-82900000D01*
X196838178Y-82900000D01*
X196713475Y-82713368D01*
X196506632Y-82506525D01*
X196324466Y-82384805D01*
X196441355Y-82315178D01*
X196657588Y-82120269D01*
X196831641Y-81886920D01*
X196956825Y-81624099D01*
X197001476Y-81476890D01*
X196880155Y-81247000D01*
X195687000Y-81247000D01*
X195687000Y-81267000D01*
X195433000Y-81267000D01*
X195433000Y-81247000D01*
X194239845Y-81247000D01*
X194118524Y-81476890D01*
X194163175Y-81624099D01*
X194288359Y-81886920D01*
X194462412Y-82120269D01*
X194678645Y-82315178D01*
X194795534Y-82384805D01*
X194613368Y-82506525D01*
X194406525Y-82713368D01*
X194281822Y-82900000D01*
X191698043Y-82900000D01*
X191594637Y-82745241D01*
X191394759Y-82545363D01*
X191159727Y-82388320D01*
X191149135Y-82383933D01*
X191335131Y-82272385D01*
X191543519Y-82083414D01*
X191711037Y-81857420D01*
X191831246Y-81603087D01*
X191871904Y-81469039D01*
X191749915Y-81247000D01*
X190607000Y-81247000D01*
X190607000Y-81267000D01*
X190353000Y-81267000D01*
X190353000Y-81247000D01*
X189210085Y-81247000D01*
X189088096Y-81469039D01*
X189128754Y-81603087D01*
X189248963Y-81857420D01*
X189416481Y-82083414D01*
X189624869Y-82272385D01*
X189810865Y-82383933D01*
X189800273Y-82388320D01*
X189565241Y-82545363D01*
X189365363Y-82745241D01*
X189208320Y-82980273D01*
X189100147Y-83241426D01*
X189045000Y-83518665D01*
X189045000Y-83801335D01*
X189100147Y-84078574D01*
X189208320Y-84339727D01*
X189365363Y-84574759D01*
X189565241Y-84774637D01*
X189797759Y-84930000D01*
X189565241Y-85085363D01*
X189365363Y-85285241D01*
X189208320Y-85520273D01*
X189100147Y-85781426D01*
X189045000Y-86058665D01*
X189045000Y-86341335D01*
X189100147Y-86618574D01*
X189208320Y-86879727D01*
X189365363Y-87114759D01*
X189565241Y-87314637D01*
X189797759Y-87470000D01*
X189565241Y-87625363D01*
X189365363Y-87825241D01*
X189258053Y-87985842D01*
X189205714Y-87990997D01*
X189062453Y-88034454D01*
X188930423Y-88105026D01*
X188846783Y-88173668D01*
X188814699Y-88199999D01*
X188790901Y-88228997D01*
X177609899Y-99410000D01*
X176581983Y-99410000D01*
X176619853Y-99318574D01*
X176675000Y-99041335D01*
X176675000Y-98758665D01*
X176619853Y-98481426D01*
X176511680Y-98220273D01*
X176354637Y-97985241D01*
X176154759Y-97785363D01*
X175922241Y-97630000D01*
X176154759Y-97474637D01*
X176354637Y-97274759D01*
X176511680Y-97039727D01*
X176619853Y-96778574D01*
X176675000Y-96501335D01*
X176675000Y-96218665D01*
X176619853Y-95941426D01*
X176511680Y-95680273D01*
X176354637Y-95445241D01*
X176154759Y-95245363D01*
X175922241Y-95090000D01*
X176154759Y-94934637D01*
X176354637Y-94734759D01*
X176511680Y-94499727D01*
X176619853Y-94238574D01*
X176675000Y-93961335D01*
X176675000Y-93678665D01*
X176619853Y-93401426D01*
X176511680Y-93140273D01*
X176354637Y-92905241D01*
X176154759Y-92705363D01*
X175922241Y-92550000D01*
X176154759Y-92394637D01*
X176354637Y-92194759D01*
X176511680Y-91959727D01*
X176619853Y-91698574D01*
X176675000Y-91421335D01*
X176675000Y-91138665D01*
X176619853Y-90861426D01*
X176511680Y-90600273D01*
X176354637Y-90365241D01*
X176154759Y-90165363D01*
X175922241Y-90010000D01*
X176154759Y-89854637D01*
X176354637Y-89654759D01*
X176511680Y-89419727D01*
X176619853Y-89158574D01*
X176675000Y-88881335D01*
X176675000Y-88598665D01*
X176619853Y-88321426D01*
X176511680Y-88060273D01*
X176354637Y-87825241D01*
X176154759Y-87625363D01*
X175919727Y-87468320D01*
X175909135Y-87463933D01*
X176095131Y-87352385D01*
X176303519Y-87163414D01*
X176471037Y-86937420D01*
X176591246Y-86683087D01*
X176631904Y-86549039D01*
X176509915Y-86327000D01*
X175367000Y-86327000D01*
X175367000Y-86347000D01*
X175113000Y-86347000D01*
X175113000Y-86327000D01*
X173970085Y-86327000D01*
X173848096Y-86549039D01*
X173888754Y-86683087D01*
X174008963Y-86937420D01*
X174176481Y-87163414D01*
X174384869Y-87352385D01*
X174570865Y-87463933D01*
X174560273Y-87468320D01*
X174325241Y-87625363D01*
X174125363Y-87825241D01*
X174021957Y-87980000D01*
X171438178Y-87980000D01*
X171313475Y-87793368D01*
X171106632Y-87586525D01*
X170924466Y-87464805D01*
X171041355Y-87395178D01*
X171257588Y-87200269D01*
X171431641Y-86966920D01*
X171556825Y-86704099D01*
X171601476Y-86556890D01*
X171480155Y-86327000D01*
X170287000Y-86327000D01*
X170287000Y-86347000D01*
X170033000Y-86347000D01*
X170033000Y-86327000D01*
X168839845Y-86327000D01*
X168718524Y-86556890D01*
X168763175Y-86704099D01*
X168888359Y-86966920D01*
X169062412Y-87200269D01*
X169278645Y-87395178D01*
X169395534Y-87464805D01*
X169213368Y-87586525D01*
X169006525Y-87793368D01*
X168881822Y-87980000D01*
X166358178Y-87980000D01*
X166233475Y-87793368D01*
X166026632Y-87586525D01*
X165844466Y-87464805D01*
X165961355Y-87395178D01*
X166177588Y-87200269D01*
X166351641Y-86966920D01*
X166476825Y-86704099D01*
X166521476Y-86556890D01*
X166400155Y-86327000D01*
X165207000Y-86327000D01*
X165207000Y-86347000D01*
X164953000Y-86347000D01*
X164953000Y-86327000D01*
X163759845Y-86327000D01*
X163638524Y-86556890D01*
X163683175Y-86704099D01*
X163808359Y-86966920D01*
X163982412Y-87200269D01*
X164198645Y-87395178D01*
X164315534Y-87464805D01*
X164133368Y-87586525D01*
X163926525Y-87793368D01*
X163764010Y-88036589D01*
X163652068Y-88306842D01*
X163595000Y-88593740D01*
X163595000Y-88886260D01*
X163652068Y-89173158D01*
X163764010Y-89443411D01*
X163926525Y-89686632D01*
X164133368Y-89893475D01*
X164307760Y-90010000D01*
X164133368Y-90126525D01*
X163926525Y-90333368D01*
X163764010Y-90576589D01*
X163652068Y-90846842D01*
X163595000Y-91133740D01*
X163595000Y-91426260D01*
X163652068Y-91713158D01*
X163764010Y-91983411D01*
X163926525Y-92226632D01*
X164133368Y-92433475D01*
X164307760Y-92550000D01*
X164133368Y-92666525D01*
X163926525Y-92873368D01*
X163764010Y-93116589D01*
X163652068Y-93386842D01*
X163595000Y-93673740D01*
X163595000Y-93966260D01*
X163652068Y-94253158D01*
X163764010Y-94523411D01*
X163926525Y-94766632D01*
X164133368Y-94973475D01*
X164307760Y-95090000D01*
X164133368Y-95206525D01*
X163926525Y-95413368D01*
X163764010Y-95656589D01*
X163652068Y-95926842D01*
X163595000Y-96213740D01*
X163595000Y-96506260D01*
X163652068Y-96793158D01*
X163764010Y-97063411D01*
X163926525Y-97306632D01*
X164133368Y-97513475D01*
X164307760Y-97630000D01*
X164133368Y-97746525D01*
X163926525Y-97953368D01*
X163764010Y-98196589D01*
X163652068Y-98466842D01*
X163595000Y-98753740D01*
X163595000Y-99046260D01*
X163652068Y-99333158D01*
X163682857Y-99407490D01*
X163657376Y-99410000D01*
X163657367Y-99410000D01*
X163545714Y-99420997D01*
X163402453Y-99464454D01*
X163270423Y-99535026D01*
X163187097Y-99603411D01*
X163154699Y-99629999D01*
X163130901Y-99658997D01*
X152028998Y-110760901D01*
X152000000Y-110784699D01*
X151976202Y-110813697D01*
X151976201Y-110813698D01*
X151905026Y-110900424D01*
X151834454Y-111032454D01*
X151808061Y-111119463D01*
X151790998Y-111175714D01*
X151788723Y-111198815D01*
X151785843Y-111228052D01*
X151625241Y-111335363D01*
X151425363Y-111535241D01*
X151268320Y-111770273D01*
X151160147Y-112031426D01*
X151105000Y-112308665D01*
X151105000Y-112591335D01*
X151160147Y-112868574D01*
X151268320Y-113129727D01*
X151425363Y-113364759D01*
X151625241Y-113564637D01*
X151801167Y-113682187D01*
X151790997Y-113715714D01*
X151785842Y-113768053D01*
X151625241Y-113875363D01*
X151425363Y-114075241D01*
X151268320Y-114310273D01*
X151160147Y-114571426D01*
X151105000Y-114848665D01*
X151105000Y-115131335D01*
X151160147Y-115408574D01*
X151268320Y-115669727D01*
X151425363Y-115904759D01*
X151625241Y-116104637D01*
X151857759Y-116260000D01*
X151625241Y-116415363D01*
X151425363Y-116615241D01*
X151268320Y-116850273D01*
X151160147Y-117111426D01*
X151105000Y-117388665D01*
X151105000Y-117671335D01*
X151160147Y-117948574D01*
X151268320Y-118209727D01*
X151425363Y-118444759D01*
X151625241Y-118644637D01*
X151857759Y-118800000D01*
X151625241Y-118955363D01*
X151425363Y-119155241D01*
X151318053Y-119315842D01*
X151265714Y-119320997D01*
X151122453Y-119364454D01*
X150990424Y-119435026D01*
X150874699Y-119529999D01*
X150856892Y-119551697D01*
X150679727Y-119433320D01*
X150418574Y-119325147D01*
X150141335Y-119270000D01*
X149858665Y-119270000D01*
X149581426Y-119325147D01*
X149320273Y-119433320D01*
X149085241Y-119590363D01*
X148885363Y-119790241D01*
X148728320Y-120025273D01*
X148620147Y-120286426D01*
X148565000Y-120563665D01*
X148565000Y-120846335D01*
X148620147Y-121123574D01*
X148728320Y-121384727D01*
X148885363Y-121619759D01*
X148940604Y-121675000D01*
X145972589Y-121675000D01*
X144373930Y-120076341D01*
X144344644Y-120040656D01*
X144202272Y-119923814D01*
X144039840Y-119836993D01*
X143863592Y-119783529D01*
X143726232Y-119770000D01*
X143680300Y-119765476D01*
X143634368Y-119770000D01*
X143474396Y-119770000D01*
X143294759Y-119590363D01*
X143059727Y-119433320D01*
X142798574Y-119325147D01*
X142521335Y-119270000D01*
X142238665Y-119270000D01*
X141961426Y-119325147D01*
X141700273Y-119433320D01*
X141465241Y-119590363D01*
X141265363Y-119790241D01*
X141251571Y-119810882D01*
X141219853Y-119651426D01*
X141111680Y-119390273D01*
X140954637Y-119155241D01*
X140754759Y-118955363D01*
X140522241Y-118800000D01*
X140754759Y-118644637D01*
X140954637Y-118444759D01*
X141111680Y-118209727D01*
X141219853Y-117948574D01*
X141275000Y-117671335D01*
X141275000Y-117388665D01*
X141219853Y-117111426D01*
X141111680Y-116850273D01*
X140954637Y-116615241D01*
X140754759Y-116415363D01*
X140522241Y-116260000D01*
X140754759Y-116104637D01*
X140954637Y-115904759D01*
X141111680Y-115669727D01*
X141219853Y-115408574D01*
X141275000Y-115131335D01*
X141275000Y-114848665D01*
X141219853Y-114571426D01*
X141111680Y-114310273D01*
X140954637Y-114075241D01*
X140756039Y-113876643D01*
X140764482Y-113875812D01*
X140884180Y-113839502D01*
X140994494Y-113780537D01*
X141091185Y-113701185D01*
X141170537Y-113604494D01*
X141229502Y-113494180D01*
X141265812Y-113374482D01*
X141278072Y-113250000D01*
X141275000Y-112735750D01*
X141116250Y-112577000D01*
X139967000Y-112577000D01*
X139967000Y-112597000D01*
X139713000Y-112597000D01*
X139713000Y-112577000D01*
X138563750Y-112577000D01*
X138405000Y-112735750D01*
X138401928Y-113250000D01*
X138414188Y-113374482D01*
X138450498Y-113494180D01*
X138509463Y-113604494D01*
X138588815Y-113701185D01*
X138685506Y-113780537D01*
X138795820Y-113839502D01*
X138915518Y-113875812D01*
X138923961Y-113876643D01*
X138725363Y-114075241D01*
X138568320Y-114310273D01*
X138460147Y-114571426D01*
X138405000Y-114848665D01*
X138405000Y-115131335D01*
X138460147Y-115408574D01*
X138568320Y-115669727D01*
X138725363Y-115904759D01*
X138925241Y-116104637D01*
X139157759Y-116260000D01*
X139105377Y-116295000D01*
X138326554Y-116295000D01*
X135728051Y-113696498D01*
X135713513Y-113548889D01*
X135628599Y-113268966D01*
X135490706Y-113010986D01*
X135305134Y-112784866D01*
X135079014Y-112599294D01*
X134821034Y-112461401D01*
X134541111Y-112376487D01*
X134322950Y-112355000D01*
X133927050Y-112355000D01*
X133708889Y-112376487D01*
X133428966Y-112461401D01*
X133170986Y-112599294D01*
X132944866Y-112784866D01*
X132759294Y-113010986D01*
X132621401Y-113268966D01*
X132536487Y-113548889D01*
X132507815Y-113840000D01*
X130909700Y-113840000D01*
X130909700Y-111650000D01*
X138401928Y-111650000D01*
X138405000Y-112164250D01*
X138563750Y-112323000D01*
X139713000Y-112323000D01*
X139713000Y-111173750D01*
X139967000Y-111173750D01*
X139967000Y-112323000D01*
X141116250Y-112323000D01*
X141275000Y-112164250D01*
X141278072Y-111650000D01*
X141265812Y-111525518D01*
X141229502Y-111405820D01*
X141170537Y-111295506D01*
X141091185Y-111198815D01*
X140994494Y-111119463D01*
X140884180Y-111060498D01*
X140764482Y-111024188D01*
X140640000Y-111011928D01*
X140125750Y-111015000D01*
X139967000Y-111173750D01*
X139713000Y-111173750D01*
X139554250Y-111015000D01*
X139040000Y-111011928D01*
X138915518Y-111024188D01*
X138795820Y-111060498D01*
X138685506Y-111119463D01*
X138588815Y-111198815D01*
X138509463Y-111295506D01*
X138450498Y-111405820D01*
X138414188Y-111525518D01*
X138401928Y-111650000D01*
X130909700Y-111650000D01*
X130909700Y-108091553D01*
X133589144Y-105412109D01*
X133605506Y-105425537D01*
X133715820Y-105484502D01*
X133835518Y-105520812D01*
X133960000Y-105533072D01*
X135560000Y-105533072D01*
X135684482Y-105520812D01*
X135804180Y-105484502D01*
X135914494Y-105425537D01*
X136011185Y-105346185D01*
X136090537Y-105249494D01*
X136149502Y-105139180D01*
X136185812Y-105019482D01*
X136198072Y-104895000D01*
X136198072Y-104588665D01*
X138405000Y-104588665D01*
X138405000Y-104871335D01*
X138460147Y-105148574D01*
X138568320Y-105409727D01*
X138725363Y-105644759D01*
X138925241Y-105844637D01*
X139160273Y-106001680D01*
X139421426Y-106109853D01*
X139698665Y-106165000D01*
X139981335Y-106165000D01*
X140258574Y-106109853D01*
X140519727Y-106001680D01*
X140754759Y-105844637D01*
X140954637Y-105644759D01*
X141111680Y-105409727D01*
X141219853Y-105148574D01*
X141275000Y-104871335D01*
X141275000Y-104588665D01*
X141219853Y-104311426D01*
X141111680Y-104050273D01*
X140954637Y-103815241D01*
X140754759Y-103615363D01*
X140519727Y-103458320D01*
X140509135Y-103453933D01*
X140695131Y-103342385D01*
X140903519Y-103153414D01*
X141071037Y-102927420D01*
X141191246Y-102673087D01*
X141231904Y-102539039D01*
X141109915Y-102317000D01*
X139967000Y-102317000D01*
X139967000Y-102337000D01*
X139713000Y-102337000D01*
X139713000Y-102317000D01*
X138570085Y-102317000D01*
X138448096Y-102539039D01*
X138488754Y-102673087D01*
X138608963Y-102927420D01*
X138776481Y-103153414D01*
X138984869Y-103342385D01*
X139170865Y-103453933D01*
X139160273Y-103458320D01*
X138925241Y-103615363D01*
X138725363Y-103815241D01*
X138568320Y-104050273D01*
X138460147Y-104311426D01*
X138405000Y-104588665D01*
X136198072Y-104588665D01*
X136198072Y-103295000D01*
X136185812Y-103170518D01*
X136149502Y-103050820D01*
X136090537Y-102940506D01*
X136011185Y-102843815D01*
X135914494Y-102764463D01*
X135804180Y-102705498D01*
X135684482Y-102669188D01*
X135560000Y-102656928D01*
X135552785Y-102656928D01*
X135573097Y-102587702D01*
X134760000Y-101774605D01*
X133946903Y-102587702D01*
X133967215Y-102656928D01*
X133960000Y-102656928D01*
X133835518Y-102669188D01*
X133715820Y-102705498D01*
X133605506Y-102764463D01*
X133508815Y-102843815D01*
X133495532Y-102860000D01*
X133220362Y-102860000D01*
X133159699Y-102854025D01*
X133099036Y-102860000D01*
X133099035Y-102860000D01*
X132917598Y-102877870D01*
X132684799Y-102948489D01*
X132470251Y-103063167D01*
X132282198Y-103217498D01*
X132243526Y-103264620D01*
X129163147Y-106345000D01*
X122178072Y-106345000D01*
X122178072Y-106280000D01*
X122165812Y-106155518D01*
X122129502Y-106035820D01*
X122070537Y-105925506D01*
X121991185Y-105828815D01*
X121894494Y-105749463D01*
X121784180Y-105690498D01*
X121664482Y-105654188D01*
X121540000Y-105641928D01*
X118940000Y-105641928D01*
X118815518Y-105654188D01*
X118695820Y-105690498D01*
X118585506Y-105749463D01*
X118488815Y-105828815D01*
X118409463Y-105925506D01*
X118350498Y-106035820D01*
X118314188Y-106155518D01*
X118301928Y-106280000D01*
X110900000Y-106280000D01*
X110900000Y-103794224D01*
X119070381Y-103794224D01*
X119202317Y-104089312D01*
X119543045Y-104260159D01*
X119910557Y-104361250D01*
X120290729Y-104388701D01*
X120668951Y-104341457D01*
X121030690Y-104221333D01*
X121277683Y-104089312D01*
X121409619Y-103794224D01*
X120240000Y-102624605D01*
X119070381Y-103794224D01*
X110900000Y-103794224D01*
X110900000Y-102495729D01*
X118296299Y-102495729D01*
X118343543Y-102873951D01*
X118463667Y-103235690D01*
X118595688Y-103482683D01*
X118890776Y-103614619D01*
X120060395Y-102445000D01*
X120419605Y-102445000D01*
X121589224Y-103614619D01*
X121884312Y-103482683D01*
X122055159Y-103141955D01*
X122156250Y-102774443D01*
X122183701Y-102394271D01*
X122136457Y-102016049D01*
X122020053Y-101665512D01*
X133319783Y-101665512D01*
X133361213Y-101945130D01*
X133456397Y-102211292D01*
X133523329Y-102336514D01*
X133767298Y-102408097D01*
X134580395Y-101595000D01*
X134939605Y-101595000D01*
X135752702Y-102408097D01*
X135996671Y-102336514D01*
X136117571Y-102081004D01*
X136186300Y-101806816D01*
X136200217Y-101524488D01*
X136158787Y-101244870D01*
X136063603Y-100978708D01*
X135996671Y-100853486D01*
X135752702Y-100781903D01*
X134939605Y-101595000D01*
X134580395Y-101595000D01*
X133767298Y-100781903D01*
X133523329Y-100853486D01*
X133402429Y-101108996D01*
X133333700Y-101383184D01*
X133319783Y-101665512D01*
X122020053Y-101665512D01*
X122016333Y-101654310D01*
X121884312Y-101407317D01*
X121589224Y-101275381D01*
X120419605Y-102445000D01*
X120060395Y-102445000D01*
X118890776Y-101275381D01*
X118595688Y-101407317D01*
X118424841Y-101748045D01*
X118323750Y-102115557D01*
X118296299Y-102495729D01*
X110900000Y-102495729D01*
X110900000Y-101095776D01*
X119070381Y-101095776D01*
X120240000Y-102265395D01*
X121409619Y-101095776D01*
X121277683Y-100800688D01*
X120936955Y-100629841D01*
X120836824Y-100602298D01*
X133946903Y-100602298D01*
X134760000Y-101415395D01*
X135573097Y-100602298D01*
X135501514Y-100358329D01*
X135246004Y-100237429D01*
X134971816Y-100168700D01*
X134689488Y-100154783D01*
X134409870Y-100196213D01*
X134143708Y-100291397D01*
X134018486Y-100358329D01*
X133946903Y-100602298D01*
X120836824Y-100602298D01*
X120569443Y-100528750D01*
X120189271Y-100501299D01*
X119811049Y-100548543D01*
X119449310Y-100668667D01*
X119202317Y-100800688D01*
X119070381Y-101095776D01*
X110900000Y-101095776D01*
X110900000Y-96145000D01*
X118301928Y-96145000D01*
X118301928Y-98745000D01*
X118314188Y-98869482D01*
X118350498Y-98989180D01*
X118409463Y-99099494D01*
X118488815Y-99196185D01*
X118585506Y-99275537D01*
X118695820Y-99334502D01*
X118815518Y-99370812D01*
X118940000Y-99383072D01*
X121540000Y-99383072D01*
X121664482Y-99370812D01*
X121784180Y-99334502D01*
X121894494Y-99275537D01*
X121991185Y-99196185D01*
X122070537Y-99099494D01*
X122129502Y-98989180D01*
X122165812Y-98869482D01*
X122178072Y-98745000D01*
X122178072Y-96145000D01*
X122165812Y-96020518D01*
X122129502Y-95900820D01*
X122070537Y-95790506D01*
X121991185Y-95693815D01*
X121894494Y-95614463D01*
X121784180Y-95555498D01*
X121664482Y-95519188D01*
X121540000Y-95506928D01*
X118940000Y-95506928D01*
X118815518Y-95519188D01*
X118695820Y-95555498D01*
X118585506Y-95614463D01*
X118488815Y-95693815D01*
X118409463Y-95790506D01*
X118350498Y-95900820D01*
X118314188Y-96020518D01*
X118301928Y-96145000D01*
X110900000Y-96145000D01*
X110900000Y-86150000D01*
X138401928Y-86150000D01*
X138405000Y-86664250D01*
X138563750Y-86823000D01*
X139713000Y-86823000D01*
X139713000Y-85673750D01*
X139554250Y-85515000D01*
X139040000Y-85511928D01*
X138915518Y-85524188D01*
X138795820Y-85560498D01*
X138685506Y-85619463D01*
X138588815Y-85698815D01*
X138509463Y-85795506D01*
X138450498Y-85905820D01*
X138414188Y-86025518D01*
X138401928Y-86150000D01*
X110900000Y-86150000D01*
X110900000Y-77795000D01*
X133321928Y-77795000D01*
X133321928Y-79395000D01*
X133334188Y-79519482D01*
X133370498Y-79639180D01*
X133429463Y-79749494D01*
X133508815Y-79846185D01*
X133605506Y-79925537D01*
X133715820Y-79984502D01*
X133835518Y-80020812D01*
X133960000Y-80033072D01*
X135560000Y-80033072D01*
X135684482Y-80020812D01*
X135804180Y-79984502D01*
X135914494Y-79925537D01*
X135930856Y-79912109D01*
X136079117Y-80060370D01*
X136117798Y-80107502D01*
X136305851Y-80261833D01*
X136520399Y-80376511D01*
X136730594Y-80440273D01*
X136753198Y-80447130D01*
X136995300Y-80470975D01*
X137055965Y-80465000D01*
X139105377Y-80465000D01*
X139160273Y-80501680D01*
X139421426Y-80609853D01*
X139698665Y-80665000D01*
X139981335Y-80665000D01*
X140258574Y-80609853D01*
X140519727Y-80501680D01*
X140754759Y-80344637D01*
X140954637Y-80144759D01*
X141111680Y-79909727D01*
X141219853Y-79648574D01*
X141275000Y-79371335D01*
X141275000Y-79088665D01*
X141219853Y-78811426D01*
X141111680Y-78550273D01*
X140954637Y-78315241D01*
X140754759Y-78115363D01*
X140519727Y-77958320D01*
X140509135Y-77953933D01*
X140695131Y-77842385D01*
X140903519Y-77653414D01*
X141071037Y-77427420D01*
X141191246Y-77173087D01*
X141231904Y-77039039D01*
X141109915Y-76817000D01*
X139967000Y-76817000D01*
X139967000Y-76837000D01*
X139713000Y-76837000D01*
X139713000Y-76817000D01*
X138570085Y-76817000D01*
X138448096Y-77039039D01*
X138488754Y-77173087D01*
X138608963Y-77427420D01*
X138776481Y-77653414D01*
X138984869Y-77842385D01*
X139170865Y-77953933D01*
X139160273Y-77958320D01*
X139105377Y-77995000D01*
X137506853Y-77995000D01*
X137276479Y-77764626D01*
X137237802Y-77717498D01*
X137049749Y-77563167D01*
X136835201Y-77448489D01*
X136602402Y-77377870D01*
X136420965Y-77360000D01*
X136360300Y-77354025D01*
X136299635Y-77360000D01*
X136024468Y-77360000D01*
X136011185Y-77343815D01*
X135914494Y-77264463D01*
X135804180Y-77205498D01*
X135684482Y-77169188D01*
X135560000Y-77156928D01*
X135552785Y-77156928D01*
X135573097Y-77087702D01*
X134760000Y-76274605D01*
X133946903Y-77087702D01*
X133967215Y-77156928D01*
X133960000Y-77156928D01*
X133835518Y-77169188D01*
X133715820Y-77205498D01*
X133605506Y-77264463D01*
X133508815Y-77343815D01*
X133429463Y-77440506D01*
X133370498Y-77550820D01*
X133334188Y-77670518D01*
X133321928Y-77795000D01*
X110900000Y-77795000D01*
X110900000Y-76165512D01*
X133319783Y-76165512D01*
X133361213Y-76445130D01*
X133456397Y-76711292D01*
X133523329Y-76836514D01*
X133767298Y-76908097D01*
X134580395Y-76095000D01*
X134939605Y-76095000D01*
X135752702Y-76908097D01*
X135996671Y-76836514D01*
X136117571Y-76581004D01*
X136186300Y-76306816D01*
X136200217Y-76024488D01*
X136158787Y-75744870D01*
X136063603Y-75478708D01*
X135996671Y-75353486D01*
X135752702Y-75281903D01*
X134939605Y-76095000D01*
X134580395Y-76095000D01*
X133767298Y-75281903D01*
X133523329Y-75353486D01*
X133402429Y-75608996D01*
X133333700Y-75883184D01*
X133319783Y-76165512D01*
X110900000Y-76165512D01*
X110900000Y-75102298D01*
X133946903Y-75102298D01*
X134760000Y-75915395D01*
X135573097Y-75102298D01*
X135501514Y-74858329D01*
X135246004Y-74737429D01*
X134971816Y-74668700D01*
X134689488Y-74654783D01*
X134409870Y-74696213D01*
X134143708Y-74791397D01*
X134018486Y-74858329D01*
X133946903Y-75102298D01*
X110900000Y-75102298D01*
X110900000Y-64995454D01*
X114305000Y-64995454D01*
X114305000Y-66164546D01*
X114533079Y-67311176D01*
X114980471Y-68391277D01*
X115629984Y-69363342D01*
X116456658Y-70190016D01*
X117428723Y-70839529D01*
X118508824Y-71286921D01*
X119655454Y-71515000D01*
X120824546Y-71515000D01*
X121971176Y-71286921D01*
X123051277Y-70839529D01*
X124023342Y-70190016D01*
X124850016Y-69363342D01*
X125499529Y-68391277D01*
X125946921Y-67311176D01*
X126175000Y-66164546D01*
X126175000Y-64995454D01*
X125946921Y-63848824D01*
X125529053Y-62840000D01*
X132507815Y-62840000D01*
X132536487Y-63131111D01*
X132621401Y-63411034D01*
X132759294Y-63669014D01*
X132944866Y-63895134D01*
X133170986Y-64080706D01*
X133188374Y-64090000D01*
X133170986Y-64099294D01*
X132944866Y-64284866D01*
X132759294Y-64510986D01*
X132621401Y-64768966D01*
X132536487Y-65048889D01*
X132507815Y-65340000D01*
X132536487Y-65631111D01*
X132621401Y-65911034D01*
X132759294Y-66169014D01*
X132944866Y-66395134D01*
X133170986Y-66580706D01*
X133188374Y-66590000D01*
X133170986Y-66599294D01*
X132944866Y-66784866D01*
X132759294Y-67010986D01*
X132621401Y-67268966D01*
X132536487Y-67548889D01*
X132507815Y-67840000D01*
X132536487Y-68131111D01*
X132621401Y-68411034D01*
X132759294Y-68669014D01*
X132944866Y-68895134D01*
X133008337Y-68947223D01*
X132906614Y-69001595D01*
X132772038Y-69112038D01*
X132661595Y-69246614D01*
X132579528Y-69400150D01*
X132528992Y-69566746D01*
X132511928Y-69740000D01*
X132511928Y-70940000D01*
X132528992Y-71113254D01*
X132579528Y-71279850D01*
X132661595Y-71433386D01*
X132772038Y-71567962D01*
X132906614Y-71678405D01*
X133060150Y-71760472D01*
X133226746Y-71811008D01*
X133400000Y-71828072D01*
X133866519Y-71828072D01*
X137018826Y-74980380D01*
X137057498Y-75027502D01*
X137245551Y-75181833D01*
X137460099Y-75296511D01*
X137647920Y-75353486D01*
X137692898Y-75367130D01*
X137935000Y-75390975D01*
X137995665Y-75385000D01*
X139105377Y-75385000D01*
X139160273Y-75421680D01*
X139170865Y-75426067D01*
X138984869Y-75537615D01*
X138776481Y-75726586D01*
X138608963Y-75952580D01*
X138488754Y-76206913D01*
X138448096Y-76340961D01*
X138570085Y-76563000D01*
X139713000Y-76563000D01*
X139713000Y-76543000D01*
X139967000Y-76543000D01*
X139967000Y-76563000D01*
X141109915Y-76563000D01*
X141231904Y-76340961D01*
X141191246Y-76206913D01*
X141071037Y-75952580D01*
X140903519Y-75726586D01*
X140695131Y-75537615D01*
X140509135Y-75426067D01*
X140519727Y-75421680D01*
X140754759Y-75264637D01*
X140954637Y-75064759D01*
X141111680Y-74829727D01*
X141219853Y-74568574D01*
X141275000Y-74291335D01*
X141275000Y-74008665D01*
X141219853Y-73731426D01*
X141111680Y-73470273D01*
X140954637Y-73235241D01*
X140754759Y-73035363D01*
X140522241Y-72880000D01*
X140754759Y-72724637D01*
X140954637Y-72524759D01*
X141111680Y-72289727D01*
X141219853Y-72028574D01*
X141275000Y-71751335D01*
X141275000Y-71468665D01*
X141219853Y-71191426D01*
X141111680Y-70930273D01*
X140954637Y-70695241D01*
X140754759Y-70495363D01*
X140522241Y-70340000D01*
X140754759Y-70184637D01*
X140954637Y-69984759D01*
X140968429Y-69964118D01*
X141000147Y-70123574D01*
X141108320Y-70384727D01*
X141265363Y-70619759D01*
X141465241Y-70819637D01*
X141700273Y-70976680D01*
X141961426Y-71084853D01*
X142238665Y-71140000D01*
X142521335Y-71140000D01*
X142798574Y-71084853D01*
X143059727Y-70976680D01*
X143294759Y-70819637D01*
X143383704Y-70730693D01*
X144891670Y-72238659D01*
X144920956Y-72274344D01*
X145063328Y-72391186D01*
X145225760Y-72478007D01*
X145384543Y-72526173D01*
X145402008Y-72531471D01*
X145585300Y-72549524D01*
X145631232Y-72545000D01*
X151445604Y-72545000D01*
X151625241Y-72724637D01*
X151857759Y-72880000D01*
X151625241Y-73035363D01*
X151425363Y-73235241D01*
X151268320Y-73470273D01*
X151160147Y-73731426D01*
X151105000Y-74008665D01*
X151105000Y-74291335D01*
X151160147Y-74568574D01*
X151268320Y-74829727D01*
X151425363Y-75064759D01*
X151625241Y-75264637D01*
X151857759Y-75420000D01*
X151625241Y-75575363D01*
X151425363Y-75775241D01*
X151268320Y-76010273D01*
X151160147Y-76271426D01*
X151105000Y-76548665D01*
X151105000Y-76802710D01*
X141275190Y-86632521D01*
X141278072Y-86150000D01*
X141265812Y-86025518D01*
X141229502Y-85905820D01*
X141170537Y-85795506D01*
X141091185Y-85698815D01*
X140994494Y-85619463D01*
X140884180Y-85560498D01*
X140764482Y-85524188D01*
X140640000Y-85511928D01*
X140125750Y-85515000D01*
X139967000Y-85673750D01*
X139967000Y-86823000D01*
X139987000Y-86823000D01*
X139987000Y-87077000D01*
X139967000Y-87077000D01*
X139967000Y-87097000D01*
X139713000Y-87097000D01*
X139713000Y-87077000D01*
X138563750Y-87077000D01*
X138405000Y-87235750D01*
X138401928Y-87750000D01*
X138414188Y-87874482D01*
X138450498Y-87994180D01*
X138509463Y-88104494D01*
X138588815Y-88201185D01*
X138685506Y-88280537D01*
X138795820Y-88339502D01*
X138915518Y-88375812D01*
X138923961Y-88376643D01*
X138725363Y-88575241D01*
X138568320Y-88810273D01*
X138460147Y-89071426D01*
X138405000Y-89348665D01*
X138405000Y-89631335D01*
X138460147Y-89908574D01*
X138568320Y-90169727D01*
X138725363Y-90404759D01*
X138925241Y-90604637D01*
X139157759Y-90760000D01*
X139105377Y-90795000D01*
X138326554Y-90795000D01*
X135728051Y-88196498D01*
X135713513Y-88048889D01*
X135628599Y-87768966D01*
X135490706Y-87510986D01*
X135305134Y-87284866D01*
X135079014Y-87099294D01*
X134821034Y-86961401D01*
X134541111Y-86876487D01*
X134322950Y-86855000D01*
X133927050Y-86855000D01*
X133708889Y-86876487D01*
X133428966Y-86961401D01*
X133170986Y-87099294D01*
X132944866Y-87284866D01*
X132759294Y-87510986D01*
X132621401Y-87768966D01*
X132536487Y-88048889D01*
X132507815Y-88340000D01*
X132536487Y-88631111D01*
X132621401Y-88911034D01*
X132759294Y-89169014D01*
X132944866Y-89395134D01*
X133170986Y-89580706D01*
X133188374Y-89590000D01*
X133170986Y-89599294D01*
X132944866Y-89784866D01*
X132759294Y-90010986D01*
X132621401Y-90268966D01*
X132536487Y-90548889D01*
X132507815Y-90840000D01*
X132536487Y-91131111D01*
X132621401Y-91411034D01*
X132759294Y-91669014D01*
X132944866Y-91895134D01*
X133170986Y-92080706D01*
X133188374Y-92090000D01*
X133170986Y-92099294D01*
X132944866Y-92284866D01*
X132759294Y-92510986D01*
X132621401Y-92768966D01*
X132536487Y-93048889D01*
X132507815Y-93340000D01*
X132536487Y-93631111D01*
X132621401Y-93911034D01*
X132759294Y-94169014D01*
X132944866Y-94395134D01*
X133008337Y-94447223D01*
X132906614Y-94501595D01*
X132772038Y-94612038D01*
X132661595Y-94746614D01*
X132579528Y-94900150D01*
X132528992Y-95066746D01*
X132511928Y-95240000D01*
X132511928Y-96440000D01*
X132528992Y-96613254D01*
X132579528Y-96779850D01*
X132661595Y-96933386D01*
X132772038Y-97067962D01*
X132906614Y-97178405D01*
X133060150Y-97260472D01*
X133226746Y-97311008D01*
X133400000Y-97328072D01*
X133866519Y-97328072D01*
X137018826Y-100480380D01*
X137057498Y-100527502D01*
X137245551Y-100681833D01*
X137460099Y-100796511D01*
X137647920Y-100853486D01*
X137692898Y-100867130D01*
X137935000Y-100890975D01*
X137995665Y-100885000D01*
X139105377Y-100885000D01*
X139160273Y-100921680D01*
X139170865Y-100926067D01*
X138984869Y-101037615D01*
X138776481Y-101226586D01*
X138608963Y-101452580D01*
X138488754Y-101706913D01*
X138448096Y-101840961D01*
X138570085Y-102063000D01*
X139713000Y-102063000D01*
X139713000Y-102043000D01*
X139967000Y-102043000D01*
X139967000Y-102063000D01*
X141109915Y-102063000D01*
X141231904Y-101840961D01*
X141191246Y-101706913D01*
X141071037Y-101452580D01*
X140903519Y-101226586D01*
X140695131Y-101037615D01*
X140509135Y-100926067D01*
X140519727Y-100921680D01*
X140754759Y-100764637D01*
X140954637Y-100564759D01*
X141111680Y-100329727D01*
X141219853Y-100068574D01*
X141275000Y-99791335D01*
X141275000Y-99508665D01*
X141219853Y-99231426D01*
X141111680Y-98970273D01*
X140954637Y-98735241D01*
X140754759Y-98535363D01*
X140522241Y-98380000D01*
X140754759Y-98224637D01*
X140954637Y-98024759D01*
X141111680Y-97789727D01*
X141219853Y-97528574D01*
X141275000Y-97251335D01*
X141275000Y-96968665D01*
X141219853Y-96691426D01*
X141111680Y-96430273D01*
X140954637Y-96195241D01*
X140754759Y-95995363D01*
X140522241Y-95840000D01*
X140754759Y-95684637D01*
X140954637Y-95484759D01*
X140968429Y-95464118D01*
X141000147Y-95623574D01*
X141108320Y-95884727D01*
X141265363Y-96119759D01*
X141465241Y-96319637D01*
X141700273Y-96476680D01*
X141961426Y-96584853D01*
X142238665Y-96640000D01*
X142521335Y-96640000D01*
X142798574Y-96584853D01*
X143059727Y-96476680D01*
X143294759Y-96319637D01*
X143383704Y-96230693D01*
X144891670Y-97738659D01*
X144920956Y-97774344D01*
X145063328Y-97891186D01*
X145225760Y-97978007D01*
X145384543Y-98026173D01*
X145402008Y-98031471D01*
X145585300Y-98049524D01*
X145631232Y-98045000D01*
X151445604Y-98045000D01*
X151625241Y-98224637D01*
X151857759Y-98380000D01*
X151625241Y-98535363D01*
X151425363Y-98735241D01*
X151268320Y-98970273D01*
X151160147Y-99231426D01*
X151105000Y-99508665D01*
X151105000Y-99791335D01*
X151160147Y-100068574D01*
X151268320Y-100329727D01*
X151425363Y-100564759D01*
X151605001Y-100744397D01*
X151605000Y-101095604D01*
X151425363Y-101275241D01*
X151268320Y-101510273D01*
X151160147Y-101771426D01*
X151105000Y-102048665D01*
X151105000Y-102331335D01*
X151160147Y-102608574D01*
X151268320Y-102869727D01*
X151425363Y-103104759D01*
X151625241Y-103304637D01*
X151857759Y-103460000D01*
X151625241Y-103615363D01*
X151425363Y-103815241D01*
X151268320Y-104050273D01*
X151160147Y-104311426D01*
X151105000Y-104588665D01*
X151105000Y-104871335D01*
X151160147Y-105148574D01*
X151268320Y-105409727D01*
X151425363Y-105644759D01*
X151625241Y-105844637D01*
X151860273Y-106001680D01*
X152121426Y-106109853D01*
X152398665Y-106165000D01*
X152681335Y-106165000D01*
X152958574Y-106109853D01*
X153219727Y-106001680D01*
X153454759Y-105844637D01*
X153654637Y-105644759D01*
X153758043Y-105490000D01*
X154436822Y-105490000D01*
X154561525Y-105676632D01*
X154768368Y-105883475D01*
X155011589Y-106045990D01*
X155281842Y-106157932D01*
X155568740Y-106215000D01*
X155861260Y-106215000D01*
X156148158Y-106157932D01*
X156418411Y-106045990D01*
X156661632Y-105883475D01*
X156868475Y-105676632D01*
X157030990Y-105433411D01*
X157142932Y-105163158D01*
X157200000Y-104876260D01*
X157200000Y-104583740D01*
X157142932Y-104296842D01*
X157030990Y-104026589D01*
X156868475Y-103783368D01*
X156661632Y-103576525D01*
X156487240Y-103460000D01*
X156661632Y-103343475D01*
X156868475Y-103136632D01*
X157030990Y-102893411D01*
X157142932Y-102623158D01*
X157200000Y-102336260D01*
X157200000Y-102043740D01*
X157142932Y-101756842D01*
X157030990Y-101486589D01*
X156868475Y-101243368D01*
X156736620Y-101111513D01*
X156809180Y-101089502D01*
X156919494Y-101030537D01*
X157016185Y-100951185D01*
X157095537Y-100854494D01*
X157154502Y-100744180D01*
X157190812Y-100624482D01*
X157203072Y-100500000D01*
X157203072Y-98800000D01*
X157190812Y-98675518D01*
X157154502Y-98555820D01*
X157095537Y-98445506D01*
X157016185Y-98348815D01*
X156919494Y-98269463D01*
X156809180Y-98210498D01*
X156689482Y-98174188D01*
X156565000Y-98161928D01*
X156475000Y-98161928D01*
X156475000Y-96086325D01*
X156478676Y-96049000D01*
X156475000Y-96011675D01*
X156475000Y-96011667D01*
X156464003Y-95900014D01*
X156420546Y-95756753D01*
X156349974Y-95624724D01*
X156255001Y-95508999D01*
X156226003Y-95485201D01*
X153667023Y-92926222D01*
X153811680Y-92709727D01*
X153919853Y-92448574D01*
X153975000Y-92171335D01*
X153975000Y-91888665D01*
X153919853Y-91611426D01*
X153811680Y-91350273D01*
X153654637Y-91115241D01*
X153454759Y-90915363D01*
X153222241Y-90760000D01*
X153454759Y-90604637D01*
X153654637Y-90404759D01*
X153811680Y-90169727D01*
X153919853Y-89908574D01*
X153975000Y-89631335D01*
X153975000Y-89348665D01*
X153919853Y-89071426D01*
X153811680Y-88810273D01*
X153654637Y-88575241D01*
X153454759Y-88375363D01*
X153222241Y-88220000D01*
X153454759Y-88064637D01*
X153654637Y-87864759D01*
X153811680Y-87629727D01*
X153919853Y-87368574D01*
X153975000Y-87091335D01*
X153975000Y-86808665D01*
X153919853Y-86531426D01*
X153811680Y-86270273D01*
X153654637Y-86035241D01*
X153454759Y-85835363D01*
X153219727Y-85678320D01*
X152958574Y-85570147D01*
X152681335Y-85515000D01*
X152398665Y-85515000D01*
X152121426Y-85570147D01*
X151860273Y-85678320D01*
X151625241Y-85835363D01*
X151425363Y-86035241D01*
X151268320Y-86270273D01*
X151160147Y-86531426D01*
X151105000Y-86808665D01*
X151105000Y-87091335D01*
X151160147Y-87368574D01*
X151268320Y-87629727D01*
X151425363Y-87864759D01*
X151625241Y-88064637D01*
X151857759Y-88220000D01*
X151625241Y-88375363D01*
X151425363Y-88575241D01*
X151268320Y-88810273D01*
X151160147Y-89071426D01*
X151105000Y-89348665D01*
X151105000Y-89631335D01*
X151160147Y-89908574D01*
X151268320Y-90169727D01*
X151425363Y-90404759D01*
X151625241Y-90604637D01*
X151857759Y-90760000D01*
X151625241Y-90915363D01*
X151425363Y-91115241D01*
X151268320Y-91350273D01*
X151160147Y-91611426D01*
X151105000Y-91888665D01*
X151105000Y-92171335D01*
X151160147Y-92448574D01*
X151268320Y-92709727D01*
X151425363Y-92944759D01*
X151625241Y-93144637D01*
X151785842Y-93251947D01*
X151790997Y-93304286D01*
X151801167Y-93337813D01*
X151625241Y-93455363D01*
X151425363Y-93655241D01*
X151318053Y-93815842D01*
X151265714Y-93820997D01*
X151122453Y-93864454D01*
X150990424Y-93935026D01*
X150874699Y-94029999D01*
X150856892Y-94051697D01*
X150679727Y-93933320D01*
X150418574Y-93825147D01*
X150141335Y-93770000D01*
X149858665Y-93770000D01*
X149581426Y-93825147D01*
X149320273Y-93933320D01*
X149085241Y-94090363D01*
X148885363Y-94290241D01*
X148728320Y-94525273D01*
X148620147Y-94786426D01*
X148565000Y-95063665D01*
X148565000Y-95346335D01*
X148620147Y-95623574D01*
X148728320Y-95884727D01*
X148885363Y-96119759D01*
X148940604Y-96175000D01*
X145972589Y-96175000D01*
X144373930Y-94576341D01*
X144344644Y-94540656D01*
X144202272Y-94423814D01*
X144039840Y-94336993D01*
X143863592Y-94283529D01*
X143726232Y-94270000D01*
X143680300Y-94265476D01*
X143634368Y-94270000D01*
X143474396Y-94270000D01*
X143294759Y-94090363D01*
X143059727Y-93933320D01*
X142798574Y-93825147D01*
X142521335Y-93770000D01*
X142238665Y-93770000D01*
X141961426Y-93825147D01*
X141700273Y-93933320D01*
X141465241Y-94090363D01*
X141265363Y-94290241D01*
X141251571Y-94310882D01*
X141219853Y-94151426D01*
X141111680Y-93890273D01*
X140954637Y-93655241D01*
X140754759Y-93455363D01*
X140522241Y-93300000D01*
X140754759Y-93144637D01*
X140954637Y-92944759D01*
X141111680Y-92709727D01*
X141219853Y-92448574D01*
X141275000Y-92171335D01*
X141275000Y-91888665D01*
X141219853Y-91611426D01*
X141111680Y-91350273D01*
X140954637Y-91115241D01*
X140754759Y-90915363D01*
X140522241Y-90760000D01*
X140754759Y-90604637D01*
X140954637Y-90404759D01*
X141111680Y-90169727D01*
X141219853Y-89908574D01*
X141275000Y-89631335D01*
X141275000Y-89348665D01*
X141263158Y-89289131D01*
X151117602Y-79434688D01*
X151160147Y-79648574D01*
X151268320Y-79909727D01*
X151425363Y-80144759D01*
X151625241Y-80344637D01*
X151860273Y-80501680D01*
X152121426Y-80609853D01*
X152398665Y-80665000D01*
X152681335Y-80665000D01*
X152958574Y-80609853D01*
X153219727Y-80501680D01*
X153454759Y-80344637D01*
X153654637Y-80144759D01*
X153758043Y-79990000D01*
X154436822Y-79990000D01*
X154561525Y-80176632D01*
X154768368Y-80383475D01*
X155011589Y-80545990D01*
X155281842Y-80657932D01*
X155568740Y-80715000D01*
X155861260Y-80715000D01*
X156148158Y-80657932D01*
X156418411Y-80545990D01*
X156661632Y-80383475D01*
X156868475Y-80176632D01*
X157030990Y-79933411D01*
X157142932Y-79663158D01*
X157200000Y-79376260D01*
X157200000Y-79083740D01*
X157142932Y-78796842D01*
X157030990Y-78526589D01*
X156868475Y-78283368D01*
X156661632Y-78076525D01*
X156487240Y-77960000D01*
X156661632Y-77843475D01*
X156775107Y-77730000D01*
X163591928Y-77730000D01*
X163591928Y-79430000D01*
X163604188Y-79554482D01*
X163640498Y-79674180D01*
X163699463Y-79784494D01*
X163778815Y-79881185D01*
X163875506Y-79960537D01*
X163985820Y-80019502D01*
X164058380Y-80041513D01*
X163926525Y-80173368D01*
X163764010Y-80416589D01*
X163652068Y-80686842D01*
X163595000Y-80973740D01*
X163595000Y-81266260D01*
X163652068Y-81553158D01*
X163764010Y-81823411D01*
X163926525Y-82066632D01*
X164133368Y-82273475D01*
X164307760Y-82390000D01*
X164133368Y-82506525D01*
X163926525Y-82713368D01*
X163764010Y-82956589D01*
X163652068Y-83226842D01*
X163595000Y-83513740D01*
X163595000Y-83806260D01*
X163652068Y-84093158D01*
X163764010Y-84363411D01*
X163926525Y-84606632D01*
X164133368Y-84813475D01*
X164315534Y-84935195D01*
X164198645Y-85004822D01*
X163982412Y-85199731D01*
X163808359Y-85433080D01*
X163683175Y-85695901D01*
X163638524Y-85843110D01*
X163759845Y-86073000D01*
X164953000Y-86073000D01*
X164953000Y-86053000D01*
X165207000Y-86053000D01*
X165207000Y-86073000D01*
X166400155Y-86073000D01*
X166521476Y-85843110D01*
X166476825Y-85695901D01*
X166351641Y-85433080D01*
X166177588Y-85199731D01*
X165961355Y-85004822D01*
X165844466Y-84935195D01*
X166026632Y-84813475D01*
X166233475Y-84606632D01*
X166358178Y-84420000D01*
X168881822Y-84420000D01*
X169006525Y-84606632D01*
X169213368Y-84813475D01*
X169395534Y-84935195D01*
X169278645Y-85004822D01*
X169062412Y-85199731D01*
X168888359Y-85433080D01*
X168763175Y-85695901D01*
X168718524Y-85843110D01*
X168839845Y-86073000D01*
X170033000Y-86073000D01*
X170033000Y-86053000D01*
X170287000Y-86053000D01*
X170287000Y-86073000D01*
X171480155Y-86073000D01*
X171601476Y-85843110D01*
X171556825Y-85695901D01*
X171431641Y-85433080D01*
X171257588Y-85199731D01*
X171041355Y-85004822D01*
X170924466Y-84935195D01*
X171106632Y-84813475D01*
X171313475Y-84606632D01*
X171438178Y-84420000D01*
X174021957Y-84420000D01*
X174125363Y-84574759D01*
X174325241Y-84774637D01*
X174560273Y-84931680D01*
X174570865Y-84936067D01*
X174384869Y-85047615D01*
X174176481Y-85236586D01*
X174008963Y-85462580D01*
X173888754Y-85716913D01*
X173848096Y-85850961D01*
X173970085Y-86073000D01*
X175113000Y-86073000D01*
X175113000Y-86053000D01*
X175367000Y-86053000D01*
X175367000Y-86073000D01*
X176509915Y-86073000D01*
X176631904Y-85850961D01*
X176591246Y-85716913D01*
X176471037Y-85462580D01*
X176303519Y-85236586D01*
X176095131Y-85047615D01*
X175909135Y-84936067D01*
X175919727Y-84931680D01*
X176154759Y-84774637D01*
X176354637Y-84574759D01*
X176511680Y-84339727D01*
X176619853Y-84078574D01*
X176675000Y-83801335D01*
X176675000Y-83518665D01*
X176619853Y-83241426D01*
X176511680Y-82980273D01*
X176354637Y-82745241D01*
X176154759Y-82545363D01*
X175922241Y-82390000D01*
X176154759Y-82234637D01*
X176354637Y-82034759D01*
X176511680Y-81799727D01*
X176619853Y-81538574D01*
X176675000Y-81261335D01*
X176675000Y-80978665D01*
X176619853Y-80701426D01*
X176511680Y-80440273D01*
X176354637Y-80205241D01*
X176156039Y-80006643D01*
X176164482Y-80005812D01*
X176284180Y-79969502D01*
X176394494Y-79910537D01*
X176491185Y-79831185D01*
X176570537Y-79734494D01*
X176629502Y-79624180D01*
X176665812Y-79504482D01*
X176678072Y-79380000D01*
X176678072Y-78438665D01*
X189045000Y-78438665D01*
X189045000Y-78721335D01*
X189100147Y-78998574D01*
X189208320Y-79259727D01*
X189365363Y-79494759D01*
X189565241Y-79694637D01*
X189800273Y-79851680D01*
X189810865Y-79856067D01*
X189624869Y-79967615D01*
X189416481Y-80156586D01*
X189248963Y-80382580D01*
X189128754Y-80636913D01*
X189088096Y-80770961D01*
X189210085Y-80993000D01*
X190353000Y-80993000D01*
X190353000Y-80973000D01*
X190607000Y-80973000D01*
X190607000Y-80993000D01*
X191749915Y-80993000D01*
X191871904Y-80770961D01*
X191831246Y-80636913D01*
X191711037Y-80382580D01*
X191543519Y-80156586D01*
X191335131Y-79967615D01*
X191149135Y-79856067D01*
X191159727Y-79851680D01*
X191394759Y-79694637D01*
X191594637Y-79494759D01*
X191698043Y-79340000D01*
X194281822Y-79340000D01*
X194406525Y-79526632D01*
X194613368Y-79733475D01*
X194795534Y-79855195D01*
X194678645Y-79924822D01*
X194462412Y-80119731D01*
X194288359Y-80353080D01*
X194163175Y-80615901D01*
X194118524Y-80763110D01*
X194239845Y-80993000D01*
X195433000Y-80993000D01*
X195433000Y-80973000D01*
X195687000Y-80973000D01*
X195687000Y-80993000D01*
X196880155Y-80993000D01*
X197001476Y-80763110D01*
X196956825Y-80615901D01*
X196831641Y-80353080D01*
X196657588Y-80119731D01*
X196441355Y-79924822D01*
X196324466Y-79855195D01*
X196506632Y-79733475D01*
X196713475Y-79526632D01*
X196838178Y-79340000D01*
X199361822Y-79340000D01*
X199486525Y-79526632D01*
X199693368Y-79733475D01*
X199875534Y-79855195D01*
X199758645Y-79924822D01*
X199542412Y-80119731D01*
X199368359Y-80353080D01*
X199243175Y-80615901D01*
X199198524Y-80763110D01*
X199319845Y-80993000D01*
X200513000Y-80993000D01*
X200513000Y-80973000D01*
X200767000Y-80973000D01*
X200767000Y-80993000D01*
X201960155Y-80993000D01*
X202081476Y-80763110D01*
X202036825Y-80615901D01*
X201911641Y-80353080D01*
X201737588Y-80119731D01*
X201521355Y-79924822D01*
X201404466Y-79855195D01*
X201586632Y-79733475D01*
X201793475Y-79526632D01*
X201955990Y-79283411D01*
X202067932Y-79013158D01*
X202125000Y-78726260D01*
X202125000Y-78433740D01*
X202067932Y-78146842D01*
X201955990Y-77876589D01*
X201793475Y-77633368D01*
X201586632Y-77426525D01*
X201343411Y-77264010D01*
X201073158Y-77152068D01*
X200786260Y-77095000D01*
X200493740Y-77095000D01*
X200206842Y-77152068D01*
X199936589Y-77264010D01*
X199693368Y-77426525D01*
X199486525Y-77633368D01*
X199361822Y-77820000D01*
X196838178Y-77820000D01*
X196713475Y-77633368D01*
X196506632Y-77426525D01*
X196263411Y-77264010D01*
X195993158Y-77152068D01*
X195706260Y-77095000D01*
X195413740Y-77095000D01*
X195126842Y-77152068D01*
X194856589Y-77264010D01*
X194613368Y-77426525D01*
X194406525Y-77633368D01*
X194281822Y-77820000D01*
X191698043Y-77820000D01*
X191594637Y-77665241D01*
X191394759Y-77465363D01*
X191159727Y-77308320D01*
X190898574Y-77200147D01*
X190621335Y-77145000D01*
X190338665Y-77145000D01*
X190061426Y-77200147D01*
X189800273Y-77308320D01*
X189565241Y-77465363D01*
X189365363Y-77665241D01*
X189208320Y-77900273D01*
X189100147Y-78161426D01*
X189045000Y-78438665D01*
X176678072Y-78438665D01*
X176678072Y-77780000D01*
X176665812Y-77655518D01*
X176629502Y-77535820D01*
X176570537Y-77425506D01*
X176491185Y-77328815D01*
X176394494Y-77249463D01*
X176284180Y-77190498D01*
X176164482Y-77154188D01*
X176040000Y-77141928D01*
X174440000Y-77141928D01*
X174315518Y-77154188D01*
X174195820Y-77190498D01*
X174085506Y-77249463D01*
X173988815Y-77328815D01*
X173909463Y-77425506D01*
X173850498Y-77535820D01*
X173814188Y-77655518D01*
X173801928Y-77780000D01*
X173801928Y-77820000D01*
X171648072Y-77820000D01*
X171648072Y-77730000D01*
X171635812Y-77605518D01*
X171599502Y-77485820D01*
X171540537Y-77375506D01*
X171461185Y-77278815D01*
X171364494Y-77199463D01*
X171254180Y-77140498D01*
X171134482Y-77104188D01*
X171010000Y-77091928D01*
X169310000Y-77091928D01*
X169185518Y-77104188D01*
X169065820Y-77140498D01*
X168955506Y-77199463D01*
X168858815Y-77278815D01*
X168779463Y-77375506D01*
X168720498Y-77485820D01*
X168684188Y-77605518D01*
X168671928Y-77730000D01*
X168671928Y-77820000D01*
X166568072Y-77820000D01*
X166568072Y-77730000D01*
X166555812Y-77605518D01*
X166519502Y-77485820D01*
X166460537Y-77375506D01*
X166381185Y-77278815D01*
X166284494Y-77199463D01*
X166174180Y-77140498D01*
X166054482Y-77104188D01*
X165930000Y-77091928D01*
X164230000Y-77091928D01*
X164105518Y-77104188D01*
X163985820Y-77140498D01*
X163875506Y-77199463D01*
X163778815Y-77278815D01*
X163699463Y-77375506D01*
X163640498Y-77485820D01*
X163604188Y-77605518D01*
X163591928Y-77730000D01*
X156775107Y-77730000D01*
X156868475Y-77636632D01*
X157030990Y-77393411D01*
X157142932Y-77123158D01*
X157200000Y-76836260D01*
X157200000Y-76543740D01*
X157142932Y-76256842D01*
X157030990Y-75986589D01*
X156868475Y-75743368D01*
X156736620Y-75611513D01*
X156809180Y-75589502D01*
X156919494Y-75530537D01*
X157016185Y-75451185D01*
X157095537Y-75354494D01*
X157154502Y-75244180D01*
X157190812Y-75124482D01*
X157203072Y-75000000D01*
X157203072Y-73300000D01*
X157190812Y-73175518D01*
X157154502Y-73055820D01*
X157095537Y-72945506D01*
X157016185Y-72848815D01*
X156919494Y-72769463D01*
X156809180Y-72710498D01*
X156689482Y-72674188D01*
X156565000Y-72661928D01*
X154865000Y-72661928D01*
X154740518Y-72674188D01*
X154620820Y-72710498D01*
X154510506Y-72769463D01*
X154413815Y-72848815D01*
X154334463Y-72945506D01*
X154275498Y-73055820D01*
X154239188Y-73175518D01*
X154226928Y-73300000D01*
X154226928Y-75000000D01*
X154239188Y-75124482D01*
X154275498Y-75244180D01*
X154334463Y-75354494D01*
X154413815Y-75451185D01*
X154510506Y-75530537D01*
X154620820Y-75589502D01*
X154693380Y-75611513D01*
X154561525Y-75743368D01*
X154399010Y-75986589D01*
X154287068Y-76256842D01*
X154230000Y-76543740D01*
X154230000Y-76836260D01*
X154287068Y-77123158D01*
X154399010Y-77393411D01*
X154561525Y-77636632D01*
X154768368Y-77843475D01*
X154942760Y-77960000D01*
X154768368Y-78076525D01*
X154561525Y-78283368D01*
X154436822Y-78470000D01*
X153758043Y-78470000D01*
X153654637Y-78315241D01*
X153454759Y-78115363D01*
X153222241Y-77960000D01*
X153454759Y-77804637D01*
X153654637Y-77604759D01*
X153811680Y-77369727D01*
X153919853Y-77108574D01*
X153975000Y-76831335D01*
X153975000Y-76548665D01*
X153919853Y-76271426D01*
X153811680Y-76010273D01*
X153654637Y-75775241D01*
X153454759Y-75575363D01*
X153222241Y-75420000D01*
X153454759Y-75264637D01*
X153654637Y-75064759D01*
X153811680Y-74829727D01*
X153919853Y-74568574D01*
X153975000Y-74291335D01*
X153975000Y-74008665D01*
X153919853Y-73731426D01*
X153811680Y-73470273D01*
X153654637Y-73235241D01*
X153454759Y-73035363D01*
X153222241Y-72880000D01*
X153454759Y-72724637D01*
X153634396Y-72545000D01*
X153794368Y-72545000D01*
X153840300Y-72549524D01*
X153886232Y-72545000D01*
X154023592Y-72531471D01*
X154199840Y-72478007D01*
X154362272Y-72391186D01*
X154504644Y-72274344D01*
X154533930Y-72238659D01*
X157797590Y-68975000D01*
X167878753Y-68975000D01*
X167886525Y-68986632D01*
X168018380Y-69118487D01*
X167945820Y-69140498D01*
X167835506Y-69199463D01*
X167738815Y-69278815D01*
X167659463Y-69375506D01*
X167600498Y-69485820D01*
X167564188Y-69605518D01*
X167551928Y-69730000D01*
X167551928Y-71430000D01*
X167564188Y-71554482D01*
X167600498Y-71674180D01*
X167659463Y-71784494D01*
X167738815Y-71881185D01*
X167835506Y-71960537D01*
X167945820Y-72019502D01*
X168065518Y-72055812D01*
X168190000Y-72068072D01*
X169890000Y-72068072D01*
X170014482Y-72055812D01*
X170134180Y-72019502D01*
X170244494Y-71960537D01*
X170310000Y-71906778D01*
X170375506Y-71960537D01*
X170485820Y-72019502D01*
X170605518Y-72055812D01*
X170730000Y-72068072D01*
X172430000Y-72068072D01*
X172554482Y-72055812D01*
X172674180Y-72019502D01*
X172784494Y-71960537D01*
X172850000Y-71906778D01*
X172915506Y-71960537D01*
X173025820Y-72019502D01*
X173145518Y-72055812D01*
X173270000Y-72068072D01*
X174970000Y-72068072D01*
X175094482Y-72055812D01*
X175214180Y-72019502D01*
X175324494Y-71960537D01*
X175390000Y-71906778D01*
X175455506Y-71960537D01*
X175565820Y-72019502D01*
X175685518Y-72055812D01*
X175810000Y-72068072D01*
X177510000Y-72068072D01*
X177634482Y-72055812D01*
X177754180Y-72019502D01*
X177864494Y-71960537D01*
X177930000Y-71906778D01*
X177995506Y-71960537D01*
X178105820Y-72019502D01*
X178225518Y-72055812D01*
X178350000Y-72068072D01*
X180050000Y-72068072D01*
X180174482Y-72055812D01*
X180294180Y-72019502D01*
X180404494Y-71960537D01*
X180470000Y-71906778D01*
X180535506Y-71960537D01*
X180645820Y-72019502D01*
X180765518Y-72055812D01*
X180890000Y-72068072D01*
X182590000Y-72068072D01*
X182714482Y-72055812D01*
X182834180Y-72019502D01*
X182944494Y-71960537D01*
X183041185Y-71881185D01*
X183120537Y-71784494D01*
X183179502Y-71674180D01*
X183215812Y-71554482D01*
X183228072Y-71430000D01*
X183228072Y-69730000D01*
X183215812Y-69605518D01*
X183179502Y-69485820D01*
X183120537Y-69375506D01*
X183041185Y-69278815D01*
X182944494Y-69199463D01*
X182834180Y-69140498D01*
X182761620Y-69118487D01*
X182893475Y-68986632D01*
X183055990Y-68743411D01*
X183167932Y-68473158D01*
X183225000Y-68186260D01*
X183225000Y-67893740D01*
X183167932Y-67606842D01*
X183055990Y-67336589D01*
X182893475Y-67093368D01*
X182686632Y-66886525D01*
X182504466Y-66764805D01*
X182621355Y-66695178D01*
X182837588Y-66500269D01*
X183011641Y-66266920D01*
X183136825Y-66004099D01*
X183181476Y-65856890D01*
X183060155Y-65627000D01*
X181867000Y-65627000D01*
X181867000Y-65647000D01*
X181613000Y-65647000D01*
X181613000Y-65627000D01*
X179327000Y-65627000D01*
X179327000Y-65647000D01*
X179073000Y-65647000D01*
X179073000Y-65627000D01*
X176787000Y-65627000D01*
X176787000Y-65647000D01*
X176533000Y-65647000D01*
X176533000Y-65627000D01*
X174247000Y-65627000D01*
X174247000Y-65647000D01*
X173993000Y-65647000D01*
X173993000Y-65627000D01*
X171707000Y-65627000D01*
X171707000Y-65647000D01*
X171453000Y-65647000D01*
X171453000Y-65627000D01*
X169167000Y-65627000D01*
X169167000Y-65647000D01*
X168913000Y-65647000D01*
X168913000Y-65627000D01*
X167719845Y-65627000D01*
X167598524Y-65856890D01*
X167643175Y-66004099D01*
X167768359Y-66266920D01*
X167942412Y-66500269D01*
X168158645Y-66695178D01*
X168275534Y-66764805D01*
X168093368Y-66886525D01*
X167886525Y-67093368D01*
X167878753Y-67105000D01*
X157456224Y-67105000D01*
X157410299Y-67100477D01*
X157364374Y-67105000D01*
X157364368Y-67105000D01*
X157245410Y-67116717D01*
X157227007Y-67118529D01*
X157173543Y-67134747D01*
X157050760Y-67171993D01*
X156888328Y-67258814D01*
X156745956Y-67375656D01*
X156716674Y-67411336D01*
X153543703Y-70584307D01*
X153454759Y-70495363D01*
X153222241Y-70340000D01*
X153454759Y-70184637D01*
X153654637Y-69984759D01*
X153811680Y-69749727D01*
X153919853Y-69488574D01*
X153975000Y-69211335D01*
X153975000Y-68928665D01*
X153919853Y-68651426D01*
X153811680Y-68390273D01*
X153654637Y-68155241D01*
X153454759Y-67955363D01*
X153222241Y-67800000D01*
X153454759Y-67644637D01*
X153654637Y-67444759D01*
X153811680Y-67209727D01*
X153919853Y-66948574D01*
X153975000Y-66671335D01*
X153975000Y-66388665D01*
X153919853Y-66111426D01*
X153811680Y-65850273D01*
X153654637Y-65615241D01*
X153454759Y-65415363D01*
X153222241Y-65260000D01*
X153397179Y-65143110D01*
X167598524Y-65143110D01*
X167719845Y-65373000D01*
X168913000Y-65373000D01*
X168913000Y-64179186D01*
X169167000Y-64179186D01*
X169167000Y-65373000D01*
X171453000Y-65373000D01*
X171453000Y-64179186D01*
X171707000Y-64179186D01*
X171707000Y-65373000D01*
X173993000Y-65373000D01*
X173993000Y-64179186D01*
X174247000Y-64179186D01*
X174247000Y-65373000D01*
X176533000Y-65373000D01*
X176533000Y-64179186D01*
X176787000Y-64179186D01*
X176787000Y-65373000D01*
X179073000Y-65373000D01*
X179073000Y-64179186D01*
X179327000Y-64179186D01*
X179327000Y-65373000D01*
X181613000Y-65373000D01*
X181613000Y-64179186D01*
X181867000Y-64179186D01*
X181867000Y-65373000D01*
X183060155Y-65373000D01*
X183181476Y-65143110D01*
X183136825Y-64995901D01*
X183136613Y-64995454D01*
X194305000Y-64995454D01*
X194305000Y-66164546D01*
X194533079Y-67311176D01*
X194980471Y-68391277D01*
X195629984Y-69363342D01*
X196456658Y-70190016D01*
X197428723Y-70839529D01*
X198508824Y-71286921D01*
X199655454Y-71515000D01*
X200824546Y-71515000D01*
X201971176Y-71286921D01*
X203051277Y-70839529D01*
X204023342Y-70190016D01*
X204850016Y-69363342D01*
X205499529Y-68391277D01*
X205946921Y-67311176D01*
X206175000Y-66164546D01*
X206175000Y-64995454D01*
X205946921Y-63848824D01*
X205499529Y-62768723D01*
X204850016Y-61796658D01*
X204023342Y-60969984D01*
X203051277Y-60320471D01*
X201971176Y-59873079D01*
X200824546Y-59645000D01*
X199655454Y-59645000D01*
X198508824Y-59873079D01*
X197428723Y-60320471D01*
X196456658Y-60969984D01*
X195629984Y-61796658D01*
X194980471Y-62768723D01*
X194533079Y-63848824D01*
X194305000Y-64995454D01*
X183136613Y-64995454D01*
X183011641Y-64733080D01*
X182837588Y-64499731D01*
X182621355Y-64304822D01*
X182371252Y-64155843D01*
X182096891Y-64058519D01*
X181867000Y-64179186D01*
X181613000Y-64179186D01*
X181383109Y-64058519D01*
X181108748Y-64155843D01*
X180858645Y-64304822D01*
X180642412Y-64499731D01*
X180470000Y-64730880D01*
X180297588Y-64499731D01*
X180081355Y-64304822D01*
X179831252Y-64155843D01*
X179556891Y-64058519D01*
X179327000Y-64179186D01*
X179073000Y-64179186D01*
X178843109Y-64058519D01*
X178568748Y-64155843D01*
X178318645Y-64304822D01*
X178102412Y-64499731D01*
X177930000Y-64730880D01*
X177757588Y-64499731D01*
X177541355Y-64304822D01*
X177291252Y-64155843D01*
X177016891Y-64058519D01*
X176787000Y-64179186D01*
X176533000Y-64179186D01*
X176303109Y-64058519D01*
X176028748Y-64155843D01*
X175778645Y-64304822D01*
X175562412Y-64499731D01*
X175390000Y-64730880D01*
X175217588Y-64499731D01*
X175001355Y-64304822D01*
X174751252Y-64155843D01*
X174476891Y-64058519D01*
X174247000Y-64179186D01*
X173993000Y-64179186D01*
X173763109Y-64058519D01*
X173488748Y-64155843D01*
X173238645Y-64304822D01*
X173022412Y-64499731D01*
X172850000Y-64730880D01*
X172677588Y-64499731D01*
X172461355Y-64304822D01*
X172211252Y-64155843D01*
X171936891Y-64058519D01*
X171707000Y-64179186D01*
X171453000Y-64179186D01*
X171223109Y-64058519D01*
X170948748Y-64155843D01*
X170698645Y-64304822D01*
X170482412Y-64499731D01*
X170310000Y-64730880D01*
X170137588Y-64499731D01*
X169921355Y-64304822D01*
X169671252Y-64155843D01*
X169396891Y-64058519D01*
X169167000Y-64179186D01*
X168913000Y-64179186D01*
X168683109Y-64058519D01*
X168408748Y-64155843D01*
X168158645Y-64304822D01*
X167942412Y-64499731D01*
X167768359Y-64733080D01*
X167643175Y-64995901D01*
X167598524Y-65143110D01*
X153397179Y-65143110D01*
X153454759Y-65104637D01*
X153654637Y-64904759D01*
X153811680Y-64669727D01*
X153919853Y-64408574D01*
X153975000Y-64131335D01*
X153975000Y-63848665D01*
X153919853Y-63571426D01*
X153811680Y-63310273D01*
X153654637Y-63075241D01*
X153454759Y-62875363D01*
X153222241Y-62720000D01*
X153454759Y-62564637D01*
X153654637Y-62364759D01*
X153811680Y-62129727D01*
X153919853Y-61868574D01*
X153975000Y-61591335D01*
X153975000Y-61308665D01*
X153919853Y-61031426D01*
X153811680Y-60770273D01*
X153654637Y-60535241D01*
X153454759Y-60335363D01*
X153219727Y-60178320D01*
X152958574Y-60070147D01*
X152681335Y-60015000D01*
X152398665Y-60015000D01*
X152121426Y-60070147D01*
X151860273Y-60178320D01*
X151625241Y-60335363D01*
X151425363Y-60535241D01*
X151268320Y-60770273D01*
X151160147Y-61031426D01*
X151105000Y-61308665D01*
X151105000Y-61591335D01*
X151160147Y-61868574D01*
X151268320Y-62129727D01*
X151425363Y-62364759D01*
X151625241Y-62564637D01*
X151857759Y-62720000D01*
X151625241Y-62875363D01*
X151425363Y-63075241D01*
X151268320Y-63310273D01*
X151160147Y-63571426D01*
X151105000Y-63848665D01*
X151105000Y-64131335D01*
X151160147Y-64408574D01*
X151268320Y-64669727D01*
X151425363Y-64904759D01*
X151625241Y-65104637D01*
X151857759Y-65260000D01*
X151625241Y-65415363D01*
X151425363Y-65615241D01*
X151268320Y-65850273D01*
X151160147Y-66111426D01*
X151105000Y-66388665D01*
X151105000Y-66671335D01*
X151160147Y-66948574D01*
X151268320Y-67209727D01*
X151425363Y-67444759D01*
X151625241Y-67644637D01*
X151857759Y-67800000D01*
X151625241Y-67955363D01*
X151425363Y-68155241D01*
X151318053Y-68315842D01*
X151265714Y-68320997D01*
X151122453Y-68364454D01*
X150990424Y-68435026D01*
X150874699Y-68529999D01*
X150856892Y-68551697D01*
X150679727Y-68433320D01*
X150418574Y-68325147D01*
X150141335Y-68270000D01*
X149858665Y-68270000D01*
X149581426Y-68325147D01*
X149320273Y-68433320D01*
X149085241Y-68590363D01*
X148885363Y-68790241D01*
X148728320Y-69025273D01*
X148620147Y-69286426D01*
X148565000Y-69563665D01*
X148565000Y-69846335D01*
X148620147Y-70123574D01*
X148728320Y-70384727D01*
X148885363Y-70619759D01*
X148940604Y-70675000D01*
X145972589Y-70675000D01*
X144373930Y-69076341D01*
X144344644Y-69040656D01*
X144202272Y-68923814D01*
X144039840Y-68836993D01*
X143863592Y-68783529D01*
X143726232Y-68770000D01*
X143680300Y-68765476D01*
X143634368Y-68770000D01*
X143474396Y-68770000D01*
X143294759Y-68590363D01*
X143059727Y-68433320D01*
X142798574Y-68325147D01*
X142521335Y-68270000D01*
X142238665Y-68270000D01*
X141961426Y-68325147D01*
X141700273Y-68433320D01*
X141465241Y-68590363D01*
X141265363Y-68790241D01*
X141251571Y-68810882D01*
X141219853Y-68651426D01*
X141111680Y-68390273D01*
X140954637Y-68155241D01*
X140754759Y-67955363D01*
X140522241Y-67800000D01*
X140754759Y-67644637D01*
X140954637Y-67444759D01*
X141111680Y-67209727D01*
X141219853Y-66948574D01*
X141275000Y-66671335D01*
X141275000Y-66388665D01*
X141219853Y-66111426D01*
X141111680Y-65850273D01*
X140954637Y-65615241D01*
X140754759Y-65415363D01*
X140522241Y-65260000D01*
X140754759Y-65104637D01*
X140954637Y-64904759D01*
X141111680Y-64669727D01*
X141219853Y-64408574D01*
X141275000Y-64131335D01*
X141275000Y-63848665D01*
X141219853Y-63571426D01*
X141111680Y-63310273D01*
X140954637Y-63075241D01*
X140756039Y-62876643D01*
X140764482Y-62875812D01*
X140884180Y-62839502D01*
X140994494Y-62780537D01*
X141091185Y-62701185D01*
X141170537Y-62604494D01*
X141229502Y-62494180D01*
X141265812Y-62374482D01*
X141278072Y-62250000D01*
X141275000Y-61735750D01*
X141116250Y-61577000D01*
X139967000Y-61577000D01*
X139967000Y-61597000D01*
X139713000Y-61597000D01*
X139713000Y-61577000D01*
X138563750Y-61577000D01*
X138405000Y-61735750D01*
X138401928Y-62250000D01*
X138414188Y-62374482D01*
X138450498Y-62494180D01*
X138509463Y-62604494D01*
X138588815Y-62701185D01*
X138685506Y-62780537D01*
X138795820Y-62839502D01*
X138915518Y-62875812D01*
X138923961Y-62876643D01*
X138725363Y-63075241D01*
X138568320Y-63310273D01*
X138509304Y-63452751D01*
X137066178Y-62009625D01*
X137027502Y-61962498D01*
X136839449Y-61808167D01*
X136624901Y-61693489D01*
X136392102Y-61622870D01*
X136210665Y-61605000D01*
X136150000Y-61599025D01*
X136089335Y-61605000D01*
X135085967Y-61605000D01*
X135079014Y-61599294D01*
X134821034Y-61461401D01*
X134541111Y-61376487D01*
X134322950Y-61355000D01*
X133927050Y-61355000D01*
X133708889Y-61376487D01*
X133428966Y-61461401D01*
X133170986Y-61599294D01*
X132944866Y-61784866D01*
X132759294Y-62010986D01*
X132621401Y-62268966D01*
X132536487Y-62548889D01*
X132507815Y-62840000D01*
X125529053Y-62840000D01*
X125499529Y-62768723D01*
X124850016Y-61796658D01*
X124023342Y-60969984D01*
X123544453Y-60650000D01*
X138401928Y-60650000D01*
X138405000Y-61164250D01*
X138563750Y-61323000D01*
X139713000Y-61323000D01*
X139713000Y-60173750D01*
X139967000Y-60173750D01*
X139967000Y-61323000D01*
X141116250Y-61323000D01*
X141275000Y-61164250D01*
X141278072Y-60650000D01*
X141265812Y-60525518D01*
X141229502Y-60405820D01*
X141170537Y-60295506D01*
X141091185Y-60198815D01*
X140994494Y-60119463D01*
X140884180Y-60060498D01*
X140764482Y-60024188D01*
X140640000Y-60011928D01*
X140125750Y-60015000D01*
X139967000Y-60173750D01*
X139713000Y-60173750D01*
X139554250Y-60015000D01*
X139040000Y-60011928D01*
X138915518Y-60024188D01*
X138795820Y-60060498D01*
X138685506Y-60119463D01*
X138588815Y-60198815D01*
X138509463Y-60295506D01*
X138450498Y-60405820D01*
X138414188Y-60525518D01*
X138401928Y-60650000D01*
X123544453Y-60650000D01*
X123051277Y-60320471D01*
X121971176Y-59873079D01*
X120824546Y-59645000D01*
X119655454Y-59645000D01*
X118508824Y-59873079D01*
X117428723Y-60320471D01*
X116456658Y-60969984D01*
X115629984Y-61796658D01*
X114980471Y-62768723D01*
X114533079Y-63848824D01*
X114305000Y-64995454D01*
X110900000Y-64995454D01*
X110900000Y-56240000D01*
X209580001Y-56240000D01*
X209580000Y-135920000D01*
G37*
G04 #@! TD.AperFunction*
M02*
