M48
; DRILL file {KiCad 5.1.10} date Fri Jun  4 18:55:49 2021
; FORMAT={-:-/ absolute / metric / decimal}
; #@! TF.CreationDate,2021-06-04T18:55:49-05:00
; #@! TF.GenerationSoftware,Kicad,Pcbnew,5.1.10
; #@! TF.FileFunction,Plated,1,2,PTH
FMAT,2
METRIC
T1C0.600
T2C0.800
T3C0.950
T4C1.000
T5C1.300
T6C5.300
%
G90
G05
T1
X116.265Y-65.58
X116.265Y-126.58
X117.429Y-62.769
X117.429Y-68.391
X117.429Y-123.769
X117.429Y-129.391
X120.24Y-61.605
X120.24Y-69.555
X120.24Y-122.605
X120.24Y-130.555
X123.051Y-62.769
X123.051Y-68.391
X123.051Y-123.769
X123.051Y-129.391
X124.215Y-65.58
X124.215Y-126.58
X196.265Y-65.58
X196.265Y-126.58
X197.429Y-62.769
X197.429Y-68.391
X197.429Y-123.769
X197.429Y-129.391
X200.24Y-61.605
X200.24Y-69.555
X200.24Y-122.605
X200.24Y-130.555
X203.051Y-62.769
X203.051Y-68.391
X203.051Y-123.769
X203.051Y-129.391
X204.215Y-65.58
X204.215Y-126.58
T2
X134.76Y-76.095
X134.76Y-78.595
X134.76Y-101.595
X134.76Y-104.095
X134.76Y-127.095
X134.76Y-129.595
X139.84Y-61.45
X139.84Y-63.99
X139.84Y-66.53
X139.84Y-69.07
X139.84Y-71.61
X139.84Y-74.15
X139.84Y-76.69
X139.84Y-79.23
X139.84Y-86.95
X139.84Y-89.49
X139.84Y-92.03
X139.84Y-94.57
X139.84Y-97.11
X139.84Y-99.65
X139.84Y-102.19
X139.84Y-104.73
X139.84Y-112.45
X139.84Y-114.99
X139.84Y-117.53
X139.84Y-120.07
X139.84Y-122.61
X139.84Y-125.15
X139.84Y-127.69
X139.84Y-130.23
X142.38Y-69.705
X142.38Y-95.205
X142.38Y-120.705
X150.0Y-69.705
X150.0Y-95.205
X150.0Y-120.705
X152.54Y-61.45
X152.54Y-63.99
X152.54Y-66.53
X152.54Y-69.07
X152.54Y-71.61
X152.54Y-74.15
X152.54Y-76.69
X152.54Y-79.23
X152.54Y-86.95
X152.54Y-89.49
X152.54Y-92.03
X152.54Y-94.57
X152.54Y-97.11
X152.54Y-99.65
X152.54Y-102.19
X152.54Y-104.73
X152.54Y-112.45
X152.54Y-114.99
X152.54Y-117.53
X152.54Y-120.07
X152.54Y-122.61
X152.54Y-125.15
X152.54Y-127.69
X152.54Y-130.23
T3
X134.125Y-62.84
X134.125Y-65.34
X134.125Y-67.84
X134.125Y-70.34
X134.125Y-88.34
X134.125Y-90.84
X134.125Y-93.34
X134.125Y-95.84
X134.125Y-113.84
X134.125Y-116.34
X134.125Y-118.84
X134.125Y-121.34
T4
X155.715Y-74.15
X155.715Y-76.69
X155.715Y-79.23
X155.715Y-99.65
X155.715Y-102.19
X155.715Y-104.73
X155.715Y-125.15
X155.715Y-127.69
X155.715Y-130.23
X165.08Y-78.58
X165.08Y-81.12
X165.08Y-83.66
X165.08Y-86.2
X165.08Y-88.74
X165.08Y-91.28
X165.08Y-93.82
X165.08Y-96.36
X165.08Y-98.9
X165.08Y-101.44
X165.08Y-103.98
X165.08Y-106.52
X165.08Y-109.06
X165.08Y-111.6
X165.08Y-114.14
X169.04Y-65.5
X169.04Y-68.04
X169.04Y-70.58
X170.16Y-78.58
X170.16Y-81.12
X170.16Y-83.66
X170.16Y-86.2
X170.16Y-88.74
X170.16Y-91.28
X170.16Y-93.82
X170.16Y-96.36
X170.16Y-98.9
X170.16Y-101.44
X170.16Y-103.98
X170.16Y-106.52
X170.16Y-109.06
X170.16Y-111.6
X170.16Y-114.14
X171.58Y-65.5
X171.58Y-68.04
X171.58Y-70.58
X174.12Y-65.5
X174.12Y-68.04
X174.12Y-70.58
X175.24Y-78.58
X175.24Y-81.12
X175.24Y-83.66
X175.24Y-86.2
X175.24Y-88.74
X175.24Y-91.28
X175.24Y-93.82
X175.24Y-96.36
X175.24Y-98.9
X175.24Y-101.44
X175.24Y-103.98
X175.24Y-106.52
X175.24Y-109.06
X175.24Y-111.6
X175.24Y-114.14
X176.66Y-65.5
X176.66Y-68.04
X176.66Y-70.58
X179.2Y-65.5
X179.2Y-68.04
X179.2Y-70.58
X181.74Y-65.5
X181.74Y-68.04
X181.74Y-70.58
X190.48Y-78.58
X190.48Y-81.12
X190.48Y-83.66
X190.48Y-86.2
X190.48Y-88.74
X190.48Y-91.28
X190.48Y-93.82
X190.48Y-96.36
X190.48Y-98.9
X190.48Y-101.44
X190.48Y-103.98
X190.48Y-106.52
X190.48Y-109.06
X190.48Y-111.6
X190.48Y-114.14
X195.56Y-78.58
X195.56Y-81.12
X195.56Y-83.66
X195.56Y-86.2
X195.56Y-88.74
X195.56Y-91.28
X195.56Y-93.82
X195.56Y-96.36
X195.56Y-98.9
X195.56Y-101.44
X195.56Y-103.98
X195.56Y-106.52
X195.56Y-109.06
X195.56Y-111.6
X195.56Y-114.14
X200.64Y-78.58
X200.64Y-81.12
X200.64Y-83.66
X200.64Y-86.2
X200.64Y-88.74
X200.64Y-91.28
X200.64Y-93.82
X200.64Y-96.36
X200.64Y-98.9
X200.64Y-101.44
X200.64Y-103.98
X200.64Y-106.52
X200.64Y-109.06
X200.64Y-111.6
X200.64Y-114.14
T5
X120.24Y-97.445
X120.24Y-102.445
X120.24Y-107.58
X120.24Y-112.58
T6
X120.24Y-65.58
X120.24Y-126.58
X200.24Y-65.58
X200.24Y-126.58
T0
M30
