M48
; DRILL file {KiCad 5.1.10} date Wed May 19 15:47:09 2021
; FORMAT={-:-/ absolute / metric / decimal}
; #@! TF.CreationDate,2021-05-19T15:47:09-05:00
; #@! TF.GenerationSoftware,Kicad,Pcbnew,5.1.10
; #@! TF.FileFunction,Plated,1,2,PTH
FMAT,2
METRIC
T1C0.600
T2C0.950
T3C1.200
T4C1.300
T5C1.600
T6C5.300
%
G90
G05
T1
X129.025Y-39.0
X130.189Y-36.189
X130.189Y-41.811
X133.0Y-35.025
X133.0Y-42.975
X135.811Y-36.189
X135.811Y-41.811
X136.975Y-39.0
X169.025Y-38.5
X170.189Y-35.689
X170.189Y-41.311
X173.0Y-34.525
X173.0Y-42.475
X175.811Y-35.689
X175.811Y-41.311
X176.975Y-38.5
T2
X182.0Y-76.75
X182.0Y-79.25
X182.0Y-81.75
X182.0Y-84.25
T3
X127.25Y-64.75
X127.25Y-69.75
X178.75Y-64.75
X178.75Y-69.75
T4
X126.25Y-52.0
X126.25Y-57.0
X126.25Y-79.25
X126.25Y-84.25
X179.5Y-52.0
X179.5Y-57.0
T5
X135.75Y-51.5
X135.75Y-57.5
X135.75Y-66.5
X135.75Y-72.5
X135.75Y-78.5
X135.75Y-84.5
X150.99Y-51.5
X150.99Y-57.5
X150.99Y-66.5
X150.99Y-72.5
X150.99Y-78.5
X150.99Y-84.5
X155.0Y-51.5
X155.0Y-57.5
X155.0Y-66.5
X155.0Y-72.5
X155.0Y-78.5
X155.0Y-84.5
X170.24Y-51.5
X170.24Y-57.5
X170.24Y-66.5
X170.24Y-72.5
X170.24Y-78.5
X170.24Y-84.5
T6
X133.0Y-39.0
X173.0Y-38.5
T0
M30
