%FSLAX45Y45*%
G04 Gerber Fmt 4.5, Leading zero omitted, Abs format (unit mm)*
G04 Created by KiCad (PCBNEW 5.1.10) date 2021-05-19 15:47:10*
%MOMM*%
%LPD*%
G01*
G04 APERTURE LIST*
%TA.AperFunction,Profile*%
%ADD10C,0.050000*%
%TD*%
%ADD11C,0.200000*%
%ADD12C,0.300000*%
G04 APERTURE END LIST*
D10*
X18550000Y-8775000D02*
X12025000Y-8775000D01*
X18550000Y-2850000D02*
X18550000Y-8775000D01*
X12025000Y-2850000D02*
X18550000Y-2850000D01*
X12025000Y-8775000D02*
X12025000Y-2850000D01*
D11*
X12872500Y-3870000D02*
X12932500Y-3930000D01*
X12932500Y-3870000D02*
X12872500Y-3930000D01*
X12988925Y-3588925D02*
X13048925Y-3648925D01*
X13048925Y-3588925D02*
X12988925Y-3648925D01*
X12988925Y-4151075D02*
X13048925Y-4211075D01*
X13048925Y-4151075D02*
X12988925Y-4211075D01*
X13270000Y-3472500D02*
X13330000Y-3532500D01*
X13330000Y-3472500D02*
X13270000Y-3532500D01*
X13270000Y-4267500D02*
X13330000Y-4327500D01*
X13330000Y-4267500D02*
X13270000Y-4327500D01*
X13551075Y-3588925D02*
X13611075Y-3648925D01*
X13611075Y-3588925D02*
X13551075Y-3648925D01*
X13551075Y-4151075D02*
X13611075Y-4211075D01*
X13611075Y-4151075D02*
X13551075Y-4211075D01*
X13667500Y-3870000D02*
X13727500Y-3930000D01*
X13727500Y-3870000D02*
X13667500Y-3930000D01*
X16872500Y-3820000D02*
X16932500Y-3880000D01*
X16932500Y-3820000D02*
X16872500Y-3880000D01*
X16988925Y-3538925D02*
X17048925Y-3598925D01*
X17048925Y-3538925D02*
X16988925Y-3598925D01*
X16988925Y-4101075D02*
X17048925Y-4161075D01*
X17048925Y-4101075D02*
X16988925Y-4161075D01*
X17270000Y-3422500D02*
X17330000Y-3482500D01*
X17330000Y-3422500D02*
X17270000Y-3482500D01*
X17270000Y-4217500D02*
X17330000Y-4277500D01*
X17330000Y-4217500D02*
X17270000Y-4277500D01*
X17551075Y-3538925D02*
X17611075Y-3598925D01*
X17611075Y-3538925D02*
X17551075Y-3598925D01*
X17551075Y-4101075D02*
X17611075Y-4161075D01*
X17611075Y-4101075D02*
X17551075Y-4161075D01*
X17667500Y-3820000D02*
X17727500Y-3880000D01*
X17727500Y-3820000D02*
X17667500Y-3880000D01*
X18247500Y-7675000D02*
G75*
G03*
X18247500Y-7675000I-47500J0D01*
G01*
X18247500Y-7925000D02*
G75*
G03*
X18247500Y-7925000I-47500J0D01*
G01*
X18247500Y-8175000D02*
G75*
G03*
X18247500Y-8175000I-47500J0D01*
G01*
X18247500Y-8425000D02*
G75*
G03*
X18247500Y-8425000I-47500J0D01*
G01*
X12725000Y-6415000D02*
X12725000Y-6535000D01*
X12665000Y-6475000D02*
X12785000Y-6475000D01*
X12725000Y-6915000D02*
X12725000Y-7035000D01*
X12665000Y-6975000D02*
X12785000Y-6975000D01*
X17875000Y-6415000D02*
X17875000Y-6535000D01*
X17815000Y-6475000D02*
X17935000Y-6475000D01*
X17875000Y-6915000D02*
X17875000Y-7035000D01*
X17815000Y-6975000D02*
X17935000Y-6975000D01*
X12670962Y-5245962D02*
X12670962Y-5154038D01*
X12579038Y-5154038D01*
X12579038Y-5245962D01*
X12670962Y-5245962D01*
X12670962Y-5745962D02*
X12670962Y-5654038D01*
X12579038Y-5654038D01*
X12579038Y-5745962D01*
X12670962Y-5745962D01*
X12670962Y-7970962D02*
X12670962Y-7879038D01*
X12579038Y-7879038D01*
X12579038Y-7970962D01*
X12670962Y-7970962D01*
X12670962Y-8470962D02*
X12670962Y-8379038D01*
X12579038Y-8379038D01*
X12579038Y-8470962D01*
X12670962Y-8470962D01*
X17995962Y-5245962D02*
X17995962Y-5154038D01*
X17904038Y-5154038D01*
X17904038Y-5245962D01*
X17995962Y-5245962D01*
X17995962Y-5745962D02*
X17995962Y-5654038D01*
X17904038Y-5654038D01*
X17904038Y-5745962D01*
X17995962Y-5745962D01*
X13575000Y-5230000D02*
X13655000Y-5150000D01*
X13575000Y-5070000D01*
X13495000Y-5150000D01*
X13575000Y-5230000D01*
X13575000Y-5830000D02*
X13655000Y-5750000D01*
X13575000Y-5670000D01*
X13495000Y-5750000D01*
X13575000Y-5830000D01*
X13575000Y-6730000D02*
X13655000Y-6650000D01*
X13575000Y-6570000D01*
X13495000Y-6650000D01*
X13575000Y-6730000D01*
X13575000Y-7330000D02*
X13655000Y-7250000D01*
X13575000Y-7170000D01*
X13495000Y-7250000D01*
X13575000Y-7330000D01*
X13575000Y-7930000D02*
X13655000Y-7850000D01*
X13575000Y-7770000D01*
X13495000Y-7850000D01*
X13575000Y-7930000D01*
X13575000Y-8530000D02*
X13655000Y-8450000D01*
X13575000Y-8370000D01*
X13495000Y-8450000D01*
X13575000Y-8530000D01*
X15099000Y-5230000D02*
X15179000Y-5150000D01*
X15099000Y-5070000D01*
X15019000Y-5150000D01*
X15099000Y-5230000D01*
X15099000Y-5830000D02*
X15179000Y-5750000D01*
X15099000Y-5670000D01*
X15019000Y-5750000D01*
X15099000Y-5830000D01*
X15099000Y-6730000D02*
X15179000Y-6650000D01*
X15099000Y-6570000D01*
X15019000Y-6650000D01*
X15099000Y-6730000D01*
X15099000Y-7330000D02*
X15179000Y-7250000D01*
X15099000Y-7170000D01*
X15019000Y-7250000D01*
X15099000Y-7330000D01*
X15099000Y-7930000D02*
X15179000Y-7850000D01*
X15099000Y-7770000D01*
X15019000Y-7850000D01*
X15099000Y-7930000D01*
X15099000Y-8530000D02*
X15179000Y-8450000D01*
X15099000Y-8370000D01*
X15019000Y-8450000D01*
X15099000Y-8530000D01*
X15500000Y-5230000D02*
X15580000Y-5150000D01*
X15500000Y-5070000D01*
X15420000Y-5150000D01*
X15500000Y-5230000D01*
X15500000Y-5830000D02*
X15580000Y-5750000D01*
X15500000Y-5670000D01*
X15420000Y-5750000D01*
X15500000Y-5830000D01*
X15500000Y-6730000D02*
X15580000Y-6650000D01*
X15500000Y-6570000D01*
X15420000Y-6650000D01*
X15500000Y-6730000D01*
X15500000Y-7330000D02*
X15580000Y-7250000D01*
X15500000Y-7170000D01*
X15420000Y-7250000D01*
X15500000Y-7330000D01*
X15500000Y-7930000D02*
X15580000Y-7850000D01*
X15500000Y-7770000D01*
X15420000Y-7850000D01*
X15500000Y-7930000D01*
X15500000Y-8530000D02*
X15580000Y-8450000D01*
X15500000Y-8370000D01*
X15420000Y-8450000D01*
X15500000Y-8530000D01*
X17024000Y-5230000D02*
X17104000Y-5150000D01*
X17024000Y-5070000D01*
X16944000Y-5150000D01*
X17024000Y-5230000D01*
X17024000Y-5830000D02*
X17104000Y-5750000D01*
X17024000Y-5670000D01*
X16944000Y-5750000D01*
X17024000Y-5830000D01*
X17024000Y-6730000D02*
X17104000Y-6650000D01*
X17024000Y-6570000D01*
X16944000Y-6650000D01*
X17024000Y-6730000D01*
X17024000Y-7330000D02*
X17104000Y-7250000D01*
X17024000Y-7170000D01*
X16944000Y-7250000D01*
X17024000Y-7330000D01*
X17024000Y-7930000D02*
X17104000Y-7850000D01*
X17024000Y-7770000D01*
X16944000Y-7850000D01*
X17024000Y-7930000D01*
X17024000Y-8530000D02*
X17104000Y-8450000D01*
X17024000Y-8370000D01*
X16944000Y-8450000D01*
X17024000Y-8530000D01*
X13035000Y-3635000D02*
X13565000Y-4165000D01*
X13565000Y-3635000D02*
X13035000Y-4165000D01*
X13565000Y-3900000D02*
G75*
G03*
X13565000Y-3900000I-265000J0D01*
G01*
X17035000Y-3585000D02*
X17565000Y-4115000D01*
X17565000Y-3585000D02*
X17035000Y-4115000D01*
X17565000Y-3850000D02*
G75*
G03*
X17565000Y-3850000I-265000J0D01*
G01*
D12*
X12308928Y-9243214D02*
X12308928Y-8943214D01*
X12380357Y-8943214D01*
X12423214Y-8957500D01*
X12451786Y-8986072D01*
X12466071Y-9014643D01*
X12480357Y-9071786D01*
X12480357Y-9114643D01*
X12466071Y-9171786D01*
X12451786Y-9200357D01*
X12423214Y-9228929D01*
X12380357Y-9243214D01*
X12308928Y-9243214D01*
X12608928Y-9243214D02*
X12608928Y-9043214D01*
X12608928Y-9100357D02*
X12623214Y-9071786D01*
X12637500Y-9057500D01*
X12666071Y-9043214D01*
X12694643Y-9043214D01*
X12794643Y-9243214D02*
X12794643Y-9043214D01*
X12794643Y-8943214D02*
X12780357Y-8957500D01*
X12794643Y-8971786D01*
X12808928Y-8957500D01*
X12794643Y-8943214D01*
X12794643Y-8971786D01*
X12980357Y-9243214D02*
X12951786Y-9228929D01*
X12937500Y-9200357D01*
X12937500Y-8943214D01*
X13137500Y-9243214D02*
X13108928Y-9228929D01*
X13094643Y-9200357D01*
X13094643Y-8943214D01*
X13480357Y-9243214D02*
X13480357Y-8943214D01*
X13580357Y-9157500D01*
X13680357Y-8943214D01*
X13680357Y-9243214D01*
X13951786Y-9243214D02*
X13951786Y-9086072D01*
X13937500Y-9057500D01*
X13908928Y-9043214D01*
X13851786Y-9043214D01*
X13823214Y-9057500D01*
X13951786Y-9228929D02*
X13923214Y-9243214D01*
X13851786Y-9243214D01*
X13823214Y-9228929D01*
X13808928Y-9200357D01*
X13808928Y-9171786D01*
X13823214Y-9143214D01*
X13851786Y-9128929D01*
X13923214Y-9128929D01*
X13951786Y-9114643D01*
X14094643Y-9043214D02*
X14094643Y-9343214D01*
X14094643Y-9057500D02*
X14123214Y-9043214D01*
X14180357Y-9043214D01*
X14208928Y-9057500D01*
X14223214Y-9071786D01*
X14237500Y-9100357D01*
X14237500Y-9186072D01*
X14223214Y-9214643D01*
X14208928Y-9228929D01*
X14180357Y-9243214D01*
X14123214Y-9243214D01*
X14094643Y-9228929D01*
X14366071Y-9214643D02*
X14380357Y-9228929D01*
X14366071Y-9243214D01*
X14351786Y-9228929D01*
X14366071Y-9214643D01*
X14366071Y-9243214D01*
X14366071Y-9057500D02*
X14380357Y-9071786D01*
X14366071Y-9086072D01*
X14351786Y-9071786D01*
X14366071Y-9057500D01*
X14366071Y-9086072D01*
X11962500Y-9707500D02*
X12022500Y-9767500D01*
X12022500Y-9707500D02*
X11962500Y-9767500D01*
X12366071Y-9573214D02*
X12394643Y-9573214D01*
X12423214Y-9587500D01*
X12437500Y-9601786D01*
X12451786Y-9630357D01*
X12466071Y-9687500D01*
X12466071Y-9758929D01*
X12451786Y-9816072D01*
X12437500Y-9844643D01*
X12423214Y-9858929D01*
X12394643Y-9873214D01*
X12366071Y-9873214D01*
X12337500Y-9858929D01*
X12323214Y-9844643D01*
X12308928Y-9816072D01*
X12294643Y-9758929D01*
X12294643Y-9687500D01*
X12308928Y-9630357D01*
X12323214Y-9601786D01*
X12337500Y-9587500D01*
X12366071Y-9573214D01*
X12594643Y-9844643D02*
X12608928Y-9858929D01*
X12594643Y-9873214D01*
X12580357Y-9858929D01*
X12594643Y-9844643D01*
X12594643Y-9873214D01*
X12866071Y-9573214D02*
X12808928Y-9573214D01*
X12780357Y-9587500D01*
X12766071Y-9601786D01*
X12737500Y-9644643D01*
X12723214Y-9701786D01*
X12723214Y-9816072D01*
X12737500Y-9844643D01*
X12751786Y-9858929D01*
X12780357Y-9873214D01*
X12837500Y-9873214D01*
X12866071Y-9858929D01*
X12880357Y-9844643D01*
X12894643Y-9816072D01*
X12894643Y-9744643D01*
X12880357Y-9716072D01*
X12866071Y-9701786D01*
X12837500Y-9687500D01*
X12780357Y-9687500D01*
X12751786Y-9701786D01*
X12737500Y-9716072D01*
X12723214Y-9744643D01*
X13080357Y-9573214D02*
X13108928Y-9573214D01*
X13137500Y-9587500D01*
X13151786Y-9601786D01*
X13166071Y-9630357D01*
X13180357Y-9687500D01*
X13180357Y-9758929D01*
X13166071Y-9816072D01*
X13151786Y-9844643D01*
X13137500Y-9858929D01*
X13108928Y-9873214D01*
X13080357Y-9873214D01*
X13051786Y-9858929D01*
X13037500Y-9844643D01*
X13023214Y-9816072D01*
X13008928Y-9758929D01*
X13008928Y-9687500D01*
X13023214Y-9630357D01*
X13037500Y-9601786D01*
X13051786Y-9587500D01*
X13080357Y-9573214D01*
X13366071Y-9573214D02*
X13394643Y-9573214D01*
X13423214Y-9587500D01*
X13437500Y-9601786D01*
X13451786Y-9630357D01*
X13466071Y-9687500D01*
X13466071Y-9758929D01*
X13451786Y-9816072D01*
X13437500Y-9844643D01*
X13423214Y-9858929D01*
X13394643Y-9873214D01*
X13366071Y-9873214D01*
X13337500Y-9858929D01*
X13323214Y-9844643D01*
X13308928Y-9816072D01*
X13294643Y-9758929D01*
X13294643Y-9687500D01*
X13308928Y-9630357D01*
X13323214Y-9601786D01*
X13337500Y-9587500D01*
X13366071Y-9573214D01*
X13594643Y-9873214D02*
X13594643Y-9673214D01*
X13594643Y-9701786D02*
X13608928Y-9687500D01*
X13637500Y-9673214D01*
X13680357Y-9673214D01*
X13708928Y-9687500D01*
X13723214Y-9716072D01*
X13723214Y-9873214D01*
X13723214Y-9716072D02*
X13737500Y-9687500D01*
X13766071Y-9673214D01*
X13808928Y-9673214D01*
X13837500Y-9687500D01*
X13851786Y-9716072D01*
X13851786Y-9873214D01*
X13994643Y-9873214D02*
X13994643Y-9673214D01*
X13994643Y-9701786D02*
X14008928Y-9687500D01*
X14037500Y-9673214D01*
X14080357Y-9673214D01*
X14108928Y-9687500D01*
X14123214Y-9716072D01*
X14123214Y-9873214D01*
X14123214Y-9716072D02*
X14137500Y-9687500D01*
X14166071Y-9673214D01*
X14208928Y-9673214D01*
X14237500Y-9687500D01*
X14251786Y-9716072D01*
X14251786Y-9873214D01*
X14837500Y-9558929D02*
X14580357Y-9944643D01*
X15223214Y-9573214D02*
X15251786Y-9573214D01*
X15280357Y-9587500D01*
X15294643Y-9601786D01*
X15308928Y-9630357D01*
X15323214Y-9687500D01*
X15323214Y-9758929D01*
X15308928Y-9816072D01*
X15294643Y-9844643D01*
X15280357Y-9858929D01*
X15251786Y-9873214D01*
X15223214Y-9873214D01*
X15194643Y-9858929D01*
X15180357Y-9844643D01*
X15166071Y-9816072D01*
X15151786Y-9758929D01*
X15151786Y-9687500D01*
X15166071Y-9630357D01*
X15180357Y-9601786D01*
X15194643Y-9587500D01*
X15223214Y-9573214D01*
X15451786Y-9844643D02*
X15466071Y-9858929D01*
X15451786Y-9873214D01*
X15437500Y-9858929D01*
X15451786Y-9844643D01*
X15451786Y-9873214D01*
X15651786Y-9573214D02*
X15680357Y-9573214D01*
X15708928Y-9587500D01*
X15723214Y-9601786D01*
X15737500Y-9630357D01*
X15751786Y-9687500D01*
X15751786Y-9758929D01*
X15737500Y-9816072D01*
X15723214Y-9844643D01*
X15708928Y-9858929D01*
X15680357Y-9873214D01*
X15651786Y-9873214D01*
X15623214Y-9858929D01*
X15608928Y-9844643D01*
X15594643Y-9816072D01*
X15580357Y-9758929D01*
X15580357Y-9687500D01*
X15594643Y-9630357D01*
X15608928Y-9601786D01*
X15623214Y-9587500D01*
X15651786Y-9573214D01*
X15866071Y-9601786D02*
X15880357Y-9587500D01*
X15908928Y-9573214D01*
X15980357Y-9573214D01*
X16008928Y-9587500D01*
X16023214Y-9601786D01*
X16037500Y-9630357D01*
X16037500Y-9658929D01*
X16023214Y-9701786D01*
X15851786Y-9873214D01*
X16037500Y-9873214D01*
X16137500Y-9573214D02*
X16323214Y-9573214D01*
X16223214Y-9687500D01*
X16266071Y-9687500D01*
X16294643Y-9701786D01*
X16308928Y-9716072D01*
X16323214Y-9744643D01*
X16323214Y-9816072D01*
X16308928Y-9844643D01*
X16294643Y-9858929D01*
X16266071Y-9873214D01*
X16180357Y-9873214D01*
X16151786Y-9858929D01*
X16137500Y-9844643D01*
X16580357Y-9573214D02*
X16523214Y-9573214D01*
X16494643Y-9587500D01*
X16480357Y-9601786D01*
X16451786Y-9644643D01*
X16437500Y-9701786D01*
X16437500Y-9816072D01*
X16451786Y-9844643D01*
X16466071Y-9858929D01*
X16494643Y-9873214D01*
X16551786Y-9873214D01*
X16580357Y-9858929D01*
X16594643Y-9844643D01*
X16608928Y-9816072D01*
X16608928Y-9744643D01*
X16594643Y-9716072D01*
X16580357Y-9701786D01*
X16551786Y-9687500D01*
X16494643Y-9687500D01*
X16466071Y-9701786D01*
X16451786Y-9716072D01*
X16437500Y-9744643D01*
X16723214Y-9573214D02*
X16723214Y-9630357D01*
X16837500Y-9573214D02*
X16837500Y-9630357D01*
X17280357Y-9987500D02*
X17266071Y-9973214D01*
X17237500Y-9930357D01*
X17223214Y-9901786D01*
X17208928Y-9858929D01*
X17194643Y-9787500D01*
X17194643Y-9730357D01*
X17208928Y-9658929D01*
X17223214Y-9616072D01*
X17237500Y-9587500D01*
X17266071Y-9544643D01*
X17280357Y-9530357D01*
X17551786Y-9873214D02*
X17380357Y-9873214D01*
X17466071Y-9873214D02*
X17466071Y-9573214D01*
X17437500Y-9616072D01*
X17408928Y-9644643D01*
X17380357Y-9658929D01*
X17808928Y-9573214D02*
X17751786Y-9573214D01*
X17723214Y-9587500D01*
X17708928Y-9601786D01*
X17680357Y-9644643D01*
X17666071Y-9701786D01*
X17666071Y-9816072D01*
X17680357Y-9844643D01*
X17694643Y-9858929D01*
X17723214Y-9873214D01*
X17780357Y-9873214D01*
X17808928Y-9858929D01*
X17823214Y-9844643D01*
X17837500Y-9816072D01*
X17837500Y-9744643D01*
X17823214Y-9716072D01*
X17808928Y-9701786D01*
X17780357Y-9687500D01*
X17723214Y-9687500D01*
X17694643Y-9701786D01*
X17680357Y-9716072D01*
X17666071Y-9744643D01*
X18194643Y-9873214D02*
X18194643Y-9573214D01*
X18323214Y-9873214D02*
X18323214Y-9716072D01*
X18308928Y-9687500D01*
X18280357Y-9673214D01*
X18237500Y-9673214D01*
X18208928Y-9687500D01*
X18194643Y-9701786D01*
X18508928Y-9873214D02*
X18480357Y-9858929D01*
X18466071Y-9844643D01*
X18451786Y-9816072D01*
X18451786Y-9730357D01*
X18466071Y-9701786D01*
X18480357Y-9687500D01*
X18508928Y-9673214D01*
X18551786Y-9673214D01*
X18580357Y-9687500D01*
X18594643Y-9701786D01*
X18608928Y-9730357D01*
X18608928Y-9816072D01*
X18594643Y-9844643D01*
X18580357Y-9858929D01*
X18551786Y-9873214D01*
X18508928Y-9873214D01*
X18780357Y-9873214D02*
X18751786Y-9858929D01*
X18737500Y-9830357D01*
X18737500Y-9573214D01*
X19008928Y-9858929D02*
X18980357Y-9873214D01*
X18923214Y-9873214D01*
X18894643Y-9858929D01*
X18880357Y-9830357D01*
X18880357Y-9716072D01*
X18894643Y-9687500D01*
X18923214Y-9673214D01*
X18980357Y-9673214D01*
X19008928Y-9687500D01*
X19023214Y-9716072D01*
X19023214Y-9744643D01*
X18880357Y-9773214D01*
X19137500Y-9858929D02*
X19166071Y-9873214D01*
X19223214Y-9873214D01*
X19251786Y-9858929D01*
X19266071Y-9830357D01*
X19266071Y-9816072D01*
X19251786Y-9787500D01*
X19223214Y-9773214D01*
X19180357Y-9773214D01*
X19151786Y-9758929D01*
X19137500Y-9730357D01*
X19137500Y-9716072D01*
X19151786Y-9687500D01*
X19180357Y-9673214D01*
X19223214Y-9673214D01*
X19251786Y-9687500D01*
X19366071Y-9987500D02*
X19380357Y-9973214D01*
X19408928Y-9930357D01*
X19423214Y-9901786D01*
X19437500Y-9858929D01*
X19451786Y-9787500D01*
X19451786Y-9730357D01*
X19437500Y-9658929D01*
X19423214Y-9616072D01*
X19408928Y-9587500D01*
X19380357Y-9544643D01*
X19366071Y-9530357D01*
X12022500Y-10133500D02*
G75*
G03*
X12022500Y-10133500I-47500J0D01*
G01*
X12366071Y-9969214D02*
X12394643Y-9969214D01*
X12423214Y-9983500D01*
X12437500Y-9997786D01*
X12451786Y-10026357D01*
X12466071Y-10083500D01*
X12466071Y-10154929D01*
X12451786Y-10212072D01*
X12437500Y-10240643D01*
X12423214Y-10254929D01*
X12394643Y-10269214D01*
X12366071Y-10269214D01*
X12337500Y-10254929D01*
X12323214Y-10240643D01*
X12308928Y-10212072D01*
X12294643Y-10154929D01*
X12294643Y-10083500D01*
X12308928Y-10026357D01*
X12323214Y-9997786D01*
X12337500Y-9983500D01*
X12366071Y-9969214D01*
X12594643Y-10240643D02*
X12608928Y-10254929D01*
X12594643Y-10269214D01*
X12580357Y-10254929D01*
X12594643Y-10240643D01*
X12594643Y-10269214D01*
X12751786Y-10269214D02*
X12808928Y-10269214D01*
X12837500Y-10254929D01*
X12851786Y-10240643D01*
X12880357Y-10197786D01*
X12894643Y-10140643D01*
X12894643Y-10026357D01*
X12880357Y-9997786D01*
X12866071Y-9983500D01*
X12837500Y-9969214D01*
X12780357Y-9969214D01*
X12751786Y-9983500D01*
X12737500Y-9997786D01*
X12723214Y-10026357D01*
X12723214Y-10097786D01*
X12737500Y-10126357D01*
X12751786Y-10140643D01*
X12780357Y-10154929D01*
X12837500Y-10154929D01*
X12866071Y-10140643D01*
X12880357Y-10126357D01*
X12894643Y-10097786D01*
X13166071Y-9969214D02*
X13023214Y-9969214D01*
X13008928Y-10112072D01*
X13023214Y-10097786D01*
X13051786Y-10083500D01*
X13123214Y-10083500D01*
X13151786Y-10097786D01*
X13166071Y-10112072D01*
X13180357Y-10140643D01*
X13180357Y-10212072D01*
X13166071Y-10240643D01*
X13151786Y-10254929D01*
X13123214Y-10269214D01*
X13051786Y-10269214D01*
X13023214Y-10254929D01*
X13008928Y-10240643D01*
X13366071Y-9969214D02*
X13394643Y-9969214D01*
X13423214Y-9983500D01*
X13437500Y-9997786D01*
X13451786Y-10026357D01*
X13466071Y-10083500D01*
X13466071Y-10154929D01*
X13451786Y-10212072D01*
X13437500Y-10240643D01*
X13423214Y-10254929D01*
X13394643Y-10269214D01*
X13366071Y-10269214D01*
X13337500Y-10254929D01*
X13323214Y-10240643D01*
X13308928Y-10212072D01*
X13294643Y-10154929D01*
X13294643Y-10083500D01*
X13308928Y-10026357D01*
X13323214Y-9997786D01*
X13337500Y-9983500D01*
X13366071Y-9969214D01*
X13594643Y-10269214D02*
X13594643Y-10069214D01*
X13594643Y-10097786D02*
X13608928Y-10083500D01*
X13637500Y-10069214D01*
X13680357Y-10069214D01*
X13708928Y-10083500D01*
X13723214Y-10112072D01*
X13723214Y-10269214D01*
X13723214Y-10112072D02*
X13737500Y-10083500D01*
X13766071Y-10069214D01*
X13808928Y-10069214D01*
X13837500Y-10083500D01*
X13851786Y-10112072D01*
X13851786Y-10269214D01*
X13994643Y-10269214D02*
X13994643Y-10069214D01*
X13994643Y-10097786D02*
X14008928Y-10083500D01*
X14037500Y-10069214D01*
X14080357Y-10069214D01*
X14108928Y-10083500D01*
X14123214Y-10112072D01*
X14123214Y-10269214D01*
X14123214Y-10112072D02*
X14137500Y-10083500D01*
X14166071Y-10069214D01*
X14208928Y-10069214D01*
X14237500Y-10083500D01*
X14251786Y-10112072D01*
X14251786Y-10269214D01*
X14837500Y-9954929D02*
X14580357Y-10340643D01*
X15223214Y-9969214D02*
X15251786Y-9969214D01*
X15280357Y-9983500D01*
X15294643Y-9997786D01*
X15308928Y-10026357D01*
X15323214Y-10083500D01*
X15323214Y-10154929D01*
X15308928Y-10212072D01*
X15294643Y-10240643D01*
X15280357Y-10254929D01*
X15251786Y-10269214D01*
X15223214Y-10269214D01*
X15194643Y-10254929D01*
X15180357Y-10240643D01*
X15166071Y-10212072D01*
X15151786Y-10154929D01*
X15151786Y-10083500D01*
X15166071Y-10026357D01*
X15180357Y-9997786D01*
X15194643Y-9983500D01*
X15223214Y-9969214D01*
X15451786Y-10240643D02*
X15466071Y-10254929D01*
X15451786Y-10269214D01*
X15437500Y-10254929D01*
X15451786Y-10240643D01*
X15451786Y-10269214D01*
X15651786Y-9969214D02*
X15680357Y-9969214D01*
X15708928Y-9983500D01*
X15723214Y-9997786D01*
X15737500Y-10026357D01*
X15751786Y-10083500D01*
X15751786Y-10154929D01*
X15737500Y-10212072D01*
X15723214Y-10240643D01*
X15708928Y-10254929D01*
X15680357Y-10269214D01*
X15651786Y-10269214D01*
X15623214Y-10254929D01*
X15608928Y-10240643D01*
X15594643Y-10212072D01*
X15580357Y-10154929D01*
X15580357Y-10083500D01*
X15594643Y-10026357D01*
X15608928Y-9997786D01*
X15623214Y-9983500D01*
X15651786Y-9969214D01*
X15851786Y-9969214D02*
X16037500Y-9969214D01*
X15937500Y-10083500D01*
X15980357Y-10083500D01*
X16008928Y-10097786D01*
X16023214Y-10112072D01*
X16037500Y-10140643D01*
X16037500Y-10212072D01*
X16023214Y-10240643D01*
X16008928Y-10254929D01*
X15980357Y-10269214D01*
X15894643Y-10269214D01*
X15866071Y-10254929D01*
X15851786Y-10240643D01*
X16137500Y-9969214D02*
X16337500Y-9969214D01*
X16208928Y-10269214D01*
X16580357Y-10069214D02*
X16580357Y-10269214D01*
X16508928Y-9954929D02*
X16437500Y-10169214D01*
X16623214Y-10169214D01*
X16723214Y-9969214D02*
X16723214Y-10026357D01*
X16837500Y-9969214D02*
X16837500Y-10026357D01*
X17280357Y-10383500D02*
X17266071Y-10369214D01*
X17237500Y-10326357D01*
X17223214Y-10297786D01*
X17208928Y-10254929D01*
X17194643Y-10183500D01*
X17194643Y-10126357D01*
X17208928Y-10054929D01*
X17223214Y-10012072D01*
X17237500Y-9983500D01*
X17266071Y-9940643D01*
X17280357Y-9926357D01*
X17523214Y-10069214D02*
X17523214Y-10269214D01*
X17451786Y-9954929D02*
X17380357Y-10169214D01*
X17566071Y-10169214D01*
X17908928Y-10269214D02*
X17908928Y-9969214D01*
X18037500Y-10269214D02*
X18037500Y-10112072D01*
X18023214Y-10083500D01*
X17994643Y-10069214D01*
X17951786Y-10069214D01*
X17923214Y-10083500D01*
X17908928Y-10097786D01*
X18223214Y-10269214D02*
X18194643Y-10254929D01*
X18180357Y-10240643D01*
X18166071Y-10212072D01*
X18166071Y-10126357D01*
X18180357Y-10097786D01*
X18194643Y-10083500D01*
X18223214Y-10069214D01*
X18266071Y-10069214D01*
X18294643Y-10083500D01*
X18308928Y-10097786D01*
X18323214Y-10126357D01*
X18323214Y-10212072D01*
X18308928Y-10240643D01*
X18294643Y-10254929D01*
X18266071Y-10269214D01*
X18223214Y-10269214D01*
X18494643Y-10269214D02*
X18466071Y-10254929D01*
X18451786Y-10226357D01*
X18451786Y-9969214D01*
X18723214Y-10254929D02*
X18694643Y-10269214D01*
X18637500Y-10269214D01*
X18608928Y-10254929D01*
X18594643Y-10226357D01*
X18594643Y-10112072D01*
X18608928Y-10083500D01*
X18637500Y-10069214D01*
X18694643Y-10069214D01*
X18723214Y-10083500D01*
X18737500Y-10112072D01*
X18737500Y-10140643D01*
X18594643Y-10169214D01*
X18851786Y-10254929D02*
X18880357Y-10269214D01*
X18937500Y-10269214D01*
X18966071Y-10254929D01*
X18980357Y-10226357D01*
X18980357Y-10212072D01*
X18966071Y-10183500D01*
X18937500Y-10169214D01*
X18894643Y-10169214D01*
X18866071Y-10154929D01*
X18851786Y-10126357D01*
X18851786Y-10112072D01*
X18866071Y-10083500D01*
X18894643Y-10069214D01*
X18937500Y-10069214D01*
X18966071Y-10083500D01*
X19080357Y-10383500D02*
X19094643Y-10369214D01*
X19123214Y-10326357D01*
X19137500Y-10297786D01*
X19151786Y-10254929D01*
X19166071Y-10183500D01*
X19166071Y-10126357D01*
X19151786Y-10054929D01*
X19137500Y-10012072D01*
X19123214Y-9983500D01*
X19094643Y-9940643D01*
X19080357Y-9926357D01*
X11962500Y-10469500D02*
X11962500Y-10589500D01*
X11902500Y-10529500D02*
X12022500Y-10529500D01*
X12466071Y-10665214D02*
X12294643Y-10665214D01*
X12380357Y-10665214D02*
X12380357Y-10365214D01*
X12351786Y-10408072D01*
X12323214Y-10436643D01*
X12294643Y-10450929D01*
X12594643Y-10636643D02*
X12608928Y-10650929D01*
X12594643Y-10665214D01*
X12580357Y-10650929D01*
X12594643Y-10636643D01*
X12594643Y-10665214D01*
X12723214Y-10393786D02*
X12737500Y-10379500D01*
X12766071Y-10365214D01*
X12837500Y-10365214D01*
X12866071Y-10379500D01*
X12880357Y-10393786D01*
X12894643Y-10422357D01*
X12894643Y-10450929D01*
X12880357Y-10493786D01*
X12708928Y-10665214D01*
X12894643Y-10665214D01*
X13080357Y-10365214D02*
X13108928Y-10365214D01*
X13137500Y-10379500D01*
X13151786Y-10393786D01*
X13166071Y-10422357D01*
X13180357Y-10479500D01*
X13180357Y-10550929D01*
X13166071Y-10608072D01*
X13151786Y-10636643D01*
X13137500Y-10650929D01*
X13108928Y-10665214D01*
X13080357Y-10665214D01*
X13051786Y-10650929D01*
X13037500Y-10636643D01*
X13023214Y-10608072D01*
X13008928Y-10550929D01*
X13008928Y-10479500D01*
X13023214Y-10422357D01*
X13037500Y-10393786D01*
X13051786Y-10379500D01*
X13080357Y-10365214D01*
X13366071Y-10365214D02*
X13394643Y-10365214D01*
X13423214Y-10379500D01*
X13437500Y-10393786D01*
X13451786Y-10422357D01*
X13466071Y-10479500D01*
X13466071Y-10550929D01*
X13451786Y-10608072D01*
X13437500Y-10636643D01*
X13423214Y-10650929D01*
X13394643Y-10665214D01*
X13366071Y-10665214D01*
X13337500Y-10650929D01*
X13323214Y-10636643D01*
X13308928Y-10608072D01*
X13294643Y-10550929D01*
X13294643Y-10479500D01*
X13308928Y-10422357D01*
X13323214Y-10393786D01*
X13337500Y-10379500D01*
X13366071Y-10365214D01*
X13594643Y-10665214D02*
X13594643Y-10465214D01*
X13594643Y-10493786D02*
X13608928Y-10479500D01*
X13637500Y-10465214D01*
X13680357Y-10465214D01*
X13708928Y-10479500D01*
X13723214Y-10508072D01*
X13723214Y-10665214D01*
X13723214Y-10508072D02*
X13737500Y-10479500D01*
X13766071Y-10465214D01*
X13808928Y-10465214D01*
X13837500Y-10479500D01*
X13851786Y-10508072D01*
X13851786Y-10665214D01*
X13994643Y-10665214D02*
X13994643Y-10465214D01*
X13994643Y-10493786D02*
X14008928Y-10479500D01*
X14037500Y-10465214D01*
X14080357Y-10465214D01*
X14108928Y-10479500D01*
X14123214Y-10508072D01*
X14123214Y-10665214D01*
X14123214Y-10508072D02*
X14137500Y-10479500D01*
X14166071Y-10465214D01*
X14208928Y-10465214D01*
X14237500Y-10479500D01*
X14251786Y-10508072D01*
X14251786Y-10665214D01*
X14837500Y-10350929D02*
X14580357Y-10736643D01*
X15223214Y-10365214D02*
X15251786Y-10365214D01*
X15280357Y-10379500D01*
X15294643Y-10393786D01*
X15308928Y-10422357D01*
X15323214Y-10479500D01*
X15323214Y-10550929D01*
X15308928Y-10608072D01*
X15294643Y-10636643D01*
X15280357Y-10650929D01*
X15251786Y-10665214D01*
X15223214Y-10665214D01*
X15194643Y-10650929D01*
X15180357Y-10636643D01*
X15166071Y-10608072D01*
X15151786Y-10550929D01*
X15151786Y-10479500D01*
X15166071Y-10422357D01*
X15180357Y-10393786D01*
X15194643Y-10379500D01*
X15223214Y-10365214D01*
X15451786Y-10636643D02*
X15466071Y-10650929D01*
X15451786Y-10665214D01*
X15437500Y-10650929D01*
X15451786Y-10636643D01*
X15451786Y-10665214D01*
X15651786Y-10365214D02*
X15680357Y-10365214D01*
X15708928Y-10379500D01*
X15723214Y-10393786D01*
X15737500Y-10422357D01*
X15751786Y-10479500D01*
X15751786Y-10550929D01*
X15737500Y-10608072D01*
X15723214Y-10636643D01*
X15708928Y-10650929D01*
X15680357Y-10665214D01*
X15651786Y-10665214D01*
X15623214Y-10650929D01*
X15608928Y-10636643D01*
X15594643Y-10608072D01*
X15580357Y-10550929D01*
X15580357Y-10479500D01*
X15594643Y-10422357D01*
X15608928Y-10393786D01*
X15623214Y-10379500D01*
X15651786Y-10365214D01*
X16008928Y-10465214D02*
X16008928Y-10665214D01*
X15937500Y-10350929D02*
X15866071Y-10565214D01*
X16051786Y-10565214D01*
X16137500Y-10365214D02*
X16337500Y-10365214D01*
X16208928Y-10665214D01*
X16437500Y-10393786D02*
X16451786Y-10379500D01*
X16480357Y-10365214D01*
X16551786Y-10365214D01*
X16580357Y-10379500D01*
X16594643Y-10393786D01*
X16608928Y-10422357D01*
X16608928Y-10450929D01*
X16594643Y-10493786D01*
X16423214Y-10665214D01*
X16608928Y-10665214D01*
X16723214Y-10365214D02*
X16723214Y-10422357D01*
X16837500Y-10365214D02*
X16837500Y-10422357D01*
X17280357Y-10779500D02*
X17266071Y-10765214D01*
X17237500Y-10722357D01*
X17223214Y-10693786D01*
X17208928Y-10650929D01*
X17194643Y-10579500D01*
X17194643Y-10522357D01*
X17208928Y-10450929D01*
X17223214Y-10408072D01*
X17237500Y-10379500D01*
X17266071Y-10336643D01*
X17280357Y-10322357D01*
X17523214Y-10465214D02*
X17523214Y-10665214D01*
X17451786Y-10350929D02*
X17380357Y-10565214D01*
X17566071Y-10565214D01*
X17908928Y-10665214D02*
X17908928Y-10365214D01*
X18037500Y-10665214D02*
X18037500Y-10508072D01*
X18023214Y-10479500D01*
X17994643Y-10465214D01*
X17951786Y-10465214D01*
X17923214Y-10479500D01*
X17908928Y-10493786D01*
X18223214Y-10665214D02*
X18194643Y-10650929D01*
X18180357Y-10636643D01*
X18166071Y-10608072D01*
X18166071Y-10522357D01*
X18180357Y-10493786D01*
X18194643Y-10479500D01*
X18223214Y-10465214D01*
X18266071Y-10465214D01*
X18294643Y-10479500D01*
X18308928Y-10493786D01*
X18323214Y-10522357D01*
X18323214Y-10608072D01*
X18308928Y-10636643D01*
X18294643Y-10650929D01*
X18266071Y-10665214D01*
X18223214Y-10665214D01*
X18494643Y-10665214D02*
X18466071Y-10650929D01*
X18451786Y-10622357D01*
X18451786Y-10365214D01*
X18723214Y-10650929D02*
X18694643Y-10665214D01*
X18637500Y-10665214D01*
X18608928Y-10650929D01*
X18594643Y-10622357D01*
X18594643Y-10508072D01*
X18608928Y-10479500D01*
X18637500Y-10465214D01*
X18694643Y-10465214D01*
X18723214Y-10479500D01*
X18737500Y-10508072D01*
X18737500Y-10536643D01*
X18594643Y-10565214D01*
X18851786Y-10650929D02*
X18880357Y-10665214D01*
X18937500Y-10665214D01*
X18966071Y-10650929D01*
X18980357Y-10622357D01*
X18980357Y-10608072D01*
X18966071Y-10579500D01*
X18937500Y-10565214D01*
X18894643Y-10565214D01*
X18866071Y-10550929D01*
X18851786Y-10522357D01*
X18851786Y-10508072D01*
X18866071Y-10479500D01*
X18894643Y-10465214D01*
X18937500Y-10465214D01*
X18966071Y-10479500D01*
X19080357Y-10779500D02*
X19094643Y-10765214D01*
X19123214Y-10722357D01*
X19137500Y-10693786D01*
X19151786Y-10650929D01*
X19166071Y-10579500D01*
X19166071Y-10522357D01*
X19151786Y-10450929D01*
X19137500Y-10408072D01*
X19123214Y-10379500D01*
X19094643Y-10336643D01*
X19080357Y-10322357D01*
X12003462Y-10971463D02*
X12003462Y-10879538D01*
X11911537Y-10879538D01*
X11911537Y-10971463D01*
X12003462Y-10971463D01*
X12466071Y-11061214D02*
X12294643Y-11061214D01*
X12380357Y-11061214D02*
X12380357Y-10761214D01*
X12351786Y-10804072D01*
X12323214Y-10832643D01*
X12294643Y-10846929D01*
X12594643Y-11032643D02*
X12608928Y-11046929D01*
X12594643Y-11061214D01*
X12580357Y-11046929D01*
X12594643Y-11032643D01*
X12594643Y-11061214D01*
X12708928Y-10761214D02*
X12894643Y-10761214D01*
X12794643Y-10875500D01*
X12837500Y-10875500D01*
X12866071Y-10889786D01*
X12880357Y-10904072D01*
X12894643Y-10932643D01*
X12894643Y-11004072D01*
X12880357Y-11032643D01*
X12866071Y-11046929D01*
X12837500Y-11061214D01*
X12751786Y-11061214D01*
X12723214Y-11046929D01*
X12708928Y-11032643D01*
X13080357Y-10761214D02*
X13108928Y-10761214D01*
X13137500Y-10775500D01*
X13151786Y-10789786D01*
X13166071Y-10818357D01*
X13180357Y-10875500D01*
X13180357Y-10946929D01*
X13166071Y-11004072D01*
X13151786Y-11032643D01*
X13137500Y-11046929D01*
X13108928Y-11061214D01*
X13080357Y-11061214D01*
X13051786Y-11046929D01*
X13037500Y-11032643D01*
X13023214Y-11004072D01*
X13008928Y-10946929D01*
X13008928Y-10875500D01*
X13023214Y-10818357D01*
X13037500Y-10789786D01*
X13051786Y-10775500D01*
X13080357Y-10761214D01*
X13366071Y-10761214D02*
X13394643Y-10761214D01*
X13423214Y-10775500D01*
X13437500Y-10789786D01*
X13451786Y-10818357D01*
X13466071Y-10875500D01*
X13466071Y-10946929D01*
X13451786Y-11004072D01*
X13437500Y-11032643D01*
X13423214Y-11046929D01*
X13394643Y-11061214D01*
X13366071Y-11061214D01*
X13337500Y-11046929D01*
X13323214Y-11032643D01*
X13308928Y-11004072D01*
X13294643Y-10946929D01*
X13294643Y-10875500D01*
X13308928Y-10818357D01*
X13323214Y-10789786D01*
X13337500Y-10775500D01*
X13366071Y-10761214D01*
X13594643Y-11061214D02*
X13594643Y-10861214D01*
X13594643Y-10889786D02*
X13608928Y-10875500D01*
X13637500Y-10861214D01*
X13680357Y-10861214D01*
X13708928Y-10875500D01*
X13723214Y-10904072D01*
X13723214Y-11061214D01*
X13723214Y-10904072D02*
X13737500Y-10875500D01*
X13766071Y-10861214D01*
X13808928Y-10861214D01*
X13837500Y-10875500D01*
X13851786Y-10904072D01*
X13851786Y-11061214D01*
X13994643Y-11061214D02*
X13994643Y-10861214D01*
X13994643Y-10889786D02*
X14008928Y-10875500D01*
X14037500Y-10861214D01*
X14080357Y-10861214D01*
X14108928Y-10875500D01*
X14123214Y-10904072D01*
X14123214Y-11061214D01*
X14123214Y-10904072D02*
X14137500Y-10875500D01*
X14166071Y-10861214D01*
X14208928Y-10861214D01*
X14237500Y-10875500D01*
X14251786Y-10904072D01*
X14251786Y-11061214D01*
X14837500Y-10746929D02*
X14580357Y-11132643D01*
X15223214Y-10761214D02*
X15251786Y-10761214D01*
X15280357Y-10775500D01*
X15294643Y-10789786D01*
X15308928Y-10818357D01*
X15323214Y-10875500D01*
X15323214Y-10946929D01*
X15308928Y-11004072D01*
X15294643Y-11032643D01*
X15280357Y-11046929D01*
X15251786Y-11061214D01*
X15223214Y-11061214D01*
X15194643Y-11046929D01*
X15180357Y-11032643D01*
X15166071Y-11004072D01*
X15151786Y-10946929D01*
X15151786Y-10875500D01*
X15166071Y-10818357D01*
X15180357Y-10789786D01*
X15194643Y-10775500D01*
X15223214Y-10761214D01*
X15451786Y-11032643D02*
X15466071Y-11046929D01*
X15451786Y-11061214D01*
X15437500Y-11046929D01*
X15451786Y-11032643D01*
X15451786Y-11061214D01*
X15651786Y-10761214D02*
X15680357Y-10761214D01*
X15708928Y-10775500D01*
X15723214Y-10789786D01*
X15737500Y-10818357D01*
X15751786Y-10875500D01*
X15751786Y-10946929D01*
X15737500Y-11004072D01*
X15723214Y-11032643D01*
X15708928Y-11046929D01*
X15680357Y-11061214D01*
X15651786Y-11061214D01*
X15623214Y-11046929D01*
X15608928Y-11032643D01*
X15594643Y-11004072D01*
X15580357Y-10946929D01*
X15580357Y-10875500D01*
X15594643Y-10818357D01*
X15608928Y-10789786D01*
X15623214Y-10775500D01*
X15651786Y-10761214D01*
X16023214Y-10761214D02*
X15880357Y-10761214D01*
X15866071Y-10904072D01*
X15880357Y-10889786D01*
X15908928Y-10875500D01*
X15980357Y-10875500D01*
X16008928Y-10889786D01*
X16023214Y-10904072D01*
X16037500Y-10932643D01*
X16037500Y-11004072D01*
X16023214Y-11032643D01*
X16008928Y-11046929D01*
X15980357Y-11061214D01*
X15908928Y-11061214D01*
X15880357Y-11046929D01*
X15866071Y-11032643D01*
X16323214Y-11061214D02*
X16151786Y-11061214D01*
X16237500Y-11061214D02*
X16237500Y-10761214D01*
X16208928Y-10804072D01*
X16180357Y-10832643D01*
X16151786Y-10846929D01*
X16437500Y-10789786D02*
X16451786Y-10775500D01*
X16480357Y-10761214D01*
X16551786Y-10761214D01*
X16580357Y-10775500D01*
X16594643Y-10789786D01*
X16608928Y-10818357D01*
X16608928Y-10846929D01*
X16594643Y-10889786D01*
X16423214Y-11061214D01*
X16608928Y-11061214D01*
X16723214Y-10761214D02*
X16723214Y-10818357D01*
X16837500Y-10761214D02*
X16837500Y-10818357D01*
X17280357Y-11175500D02*
X17266071Y-11161214D01*
X17237500Y-11118357D01*
X17223214Y-11089786D01*
X17208928Y-11046929D01*
X17194643Y-10975500D01*
X17194643Y-10918357D01*
X17208928Y-10846929D01*
X17223214Y-10804072D01*
X17237500Y-10775500D01*
X17266071Y-10732643D01*
X17280357Y-10718357D01*
X17523214Y-10761214D02*
X17466071Y-10761214D01*
X17437500Y-10775500D01*
X17423214Y-10789786D01*
X17394643Y-10832643D01*
X17380357Y-10889786D01*
X17380357Y-11004072D01*
X17394643Y-11032643D01*
X17408928Y-11046929D01*
X17437500Y-11061214D01*
X17494643Y-11061214D01*
X17523214Y-11046929D01*
X17537500Y-11032643D01*
X17551786Y-11004072D01*
X17551786Y-10932643D01*
X17537500Y-10904072D01*
X17523214Y-10889786D01*
X17494643Y-10875500D01*
X17437500Y-10875500D01*
X17408928Y-10889786D01*
X17394643Y-10904072D01*
X17380357Y-10932643D01*
X17908928Y-11061214D02*
X17908928Y-10761214D01*
X18037500Y-11061214D02*
X18037500Y-10904072D01*
X18023214Y-10875500D01*
X17994643Y-10861214D01*
X17951786Y-10861214D01*
X17923214Y-10875500D01*
X17908928Y-10889786D01*
X18223214Y-11061214D02*
X18194643Y-11046929D01*
X18180357Y-11032643D01*
X18166071Y-11004072D01*
X18166071Y-10918357D01*
X18180357Y-10889786D01*
X18194643Y-10875500D01*
X18223214Y-10861214D01*
X18266071Y-10861214D01*
X18294643Y-10875500D01*
X18308928Y-10889786D01*
X18323214Y-10918357D01*
X18323214Y-11004072D01*
X18308928Y-11032643D01*
X18294643Y-11046929D01*
X18266071Y-11061214D01*
X18223214Y-11061214D01*
X18494643Y-11061214D02*
X18466071Y-11046929D01*
X18451786Y-11018357D01*
X18451786Y-10761214D01*
X18723214Y-11046929D02*
X18694643Y-11061214D01*
X18637500Y-11061214D01*
X18608928Y-11046929D01*
X18594643Y-11018357D01*
X18594643Y-10904072D01*
X18608928Y-10875500D01*
X18637500Y-10861214D01*
X18694643Y-10861214D01*
X18723214Y-10875500D01*
X18737500Y-10904072D01*
X18737500Y-10932643D01*
X18594643Y-10961214D01*
X18851786Y-11046929D02*
X18880357Y-11061214D01*
X18937500Y-11061214D01*
X18966071Y-11046929D01*
X18980357Y-11018357D01*
X18980357Y-11004072D01*
X18966071Y-10975500D01*
X18937500Y-10961214D01*
X18894643Y-10961214D01*
X18866071Y-10946929D01*
X18851786Y-10918357D01*
X18851786Y-10904072D01*
X18866071Y-10875500D01*
X18894643Y-10861214D01*
X18937500Y-10861214D01*
X18966071Y-10875500D01*
X19080357Y-11175500D02*
X19094643Y-11161214D01*
X19123214Y-11118357D01*
X19137500Y-11089786D01*
X19151786Y-11046929D01*
X19166071Y-10975500D01*
X19166071Y-10918357D01*
X19151786Y-10846929D01*
X19137500Y-10804072D01*
X19123214Y-10775500D01*
X19094643Y-10732643D01*
X19080357Y-10718357D01*
X11942500Y-11401500D02*
X12022500Y-11321500D01*
X11942500Y-11241500D01*
X11862500Y-11321500D01*
X11942500Y-11401500D01*
X12466071Y-11457214D02*
X12294643Y-11457214D01*
X12380357Y-11457214D02*
X12380357Y-11157214D01*
X12351786Y-11200071D01*
X12323214Y-11228643D01*
X12294643Y-11242929D01*
X12594643Y-11428643D02*
X12608928Y-11442929D01*
X12594643Y-11457214D01*
X12580357Y-11442929D01*
X12594643Y-11428643D01*
X12594643Y-11457214D01*
X12866071Y-11157214D02*
X12808928Y-11157214D01*
X12780357Y-11171500D01*
X12766071Y-11185786D01*
X12737500Y-11228643D01*
X12723214Y-11285786D01*
X12723214Y-11400071D01*
X12737500Y-11428643D01*
X12751786Y-11442929D01*
X12780357Y-11457214D01*
X12837500Y-11457214D01*
X12866071Y-11442929D01*
X12880357Y-11428643D01*
X12894643Y-11400071D01*
X12894643Y-11328643D01*
X12880357Y-11300071D01*
X12866071Y-11285786D01*
X12837500Y-11271500D01*
X12780357Y-11271500D01*
X12751786Y-11285786D01*
X12737500Y-11300071D01*
X12723214Y-11328643D01*
X13080357Y-11157214D02*
X13108928Y-11157214D01*
X13137500Y-11171500D01*
X13151786Y-11185786D01*
X13166071Y-11214357D01*
X13180357Y-11271500D01*
X13180357Y-11342929D01*
X13166071Y-11400071D01*
X13151786Y-11428643D01*
X13137500Y-11442929D01*
X13108928Y-11457214D01*
X13080357Y-11457214D01*
X13051786Y-11442929D01*
X13037500Y-11428643D01*
X13023214Y-11400071D01*
X13008928Y-11342929D01*
X13008928Y-11271500D01*
X13023214Y-11214357D01*
X13037500Y-11185786D01*
X13051786Y-11171500D01*
X13080357Y-11157214D01*
X13366071Y-11157214D02*
X13394643Y-11157214D01*
X13423214Y-11171500D01*
X13437500Y-11185786D01*
X13451786Y-11214357D01*
X13466071Y-11271500D01*
X13466071Y-11342929D01*
X13451786Y-11400071D01*
X13437500Y-11428643D01*
X13423214Y-11442929D01*
X13394643Y-11457214D01*
X13366071Y-11457214D01*
X13337500Y-11442929D01*
X13323214Y-11428643D01*
X13308928Y-11400071D01*
X13294643Y-11342929D01*
X13294643Y-11271500D01*
X13308928Y-11214357D01*
X13323214Y-11185786D01*
X13337500Y-11171500D01*
X13366071Y-11157214D01*
X13594643Y-11457214D02*
X13594643Y-11257214D01*
X13594643Y-11285786D02*
X13608928Y-11271500D01*
X13637500Y-11257214D01*
X13680357Y-11257214D01*
X13708928Y-11271500D01*
X13723214Y-11300071D01*
X13723214Y-11457214D01*
X13723214Y-11300071D02*
X13737500Y-11271500D01*
X13766071Y-11257214D01*
X13808928Y-11257214D01*
X13837500Y-11271500D01*
X13851786Y-11300071D01*
X13851786Y-11457214D01*
X13994643Y-11457214D02*
X13994643Y-11257214D01*
X13994643Y-11285786D02*
X14008928Y-11271500D01*
X14037500Y-11257214D01*
X14080357Y-11257214D01*
X14108928Y-11271500D01*
X14123214Y-11300071D01*
X14123214Y-11457214D01*
X14123214Y-11300071D02*
X14137500Y-11271500D01*
X14166071Y-11257214D01*
X14208928Y-11257214D01*
X14237500Y-11271500D01*
X14251786Y-11300071D01*
X14251786Y-11457214D01*
X14837500Y-11142929D02*
X14580357Y-11528643D01*
X15223214Y-11157214D02*
X15251786Y-11157214D01*
X15280357Y-11171500D01*
X15294643Y-11185786D01*
X15308928Y-11214357D01*
X15323214Y-11271500D01*
X15323214Y-11342929D01*
X15308928Y-11400071D01*
X15294643Y-11428643D01*
X15280357Y-11442929D01*
X15251786Y-11457214D01*
X15223214Y-11457214D01*
X15194643Y-11442929D01*
X15180357Y-11428643D01*
X15166071Y-11400071D01*
X15151786Y-11342929D01*
X15151786Y-11271500D01*
X15166071Y-11214357D01*
X15180357Y-11185786D01*
X15194643Y-11171500D01*
X15223214Y-11157214D01*
X15451786Y-11428643D02*
X15466071Y-11442929D01*
X15451786Y-11457214D01*
X15437500Y-11442929D01*
X15451786Y-11428643D01*
X15451786Y-11457214D01*
X15651786Y-11157214D02*
X15680357Y-11157214D01*
X15708928Y-11171500D01*
X15723214Y-11185786D01*
X15737500Y-11214357D01*
X15751786Y-11271500D01*
X15751786Y-11342929D01*
X15737500Y-11400071D01*
X15723214Y-11428643D01*
X15708928Y-11442929D01*
X15680357Y-11457214D01*
X15651786Y-11457214D01*
X15623214Y-11442929D01*
X15608928Y-11428643D01*
X15594643Y-11400071D01*
X15580357Y-11342929D01*
X15580357Y-11271500D01*
X15594643Y-11214357D01*
X15608928Y-11185786D01*
X15623214Y-11171500D01*
X15651786Y-11157214D01*
X16008928Y-11157214D02*
X15951786Y-11157214D01*
X15923214Y-11171500D01*
X15908928Y-11185786D01*
X15880357Y-11228643D01*
X15866071Y-11285786D01*
X15866071Y-11400071D01*
X15880357Y-11428643D01*
X15894643Y-11442929D01*
X15923214Y-11457214D01*
X15980357Y-11457214D01*
X16008928Y-11442929D01*
X16023214Y-11428643D01*
X16037500Y-11400071D01*
X16037500Y-11328643D01*
X16023214Y-11300071D01*
X16008928Y-11285786D01*
X15980357Y-11271500D01*
X15923214Y-11271500D01*
X15894643Y-11285786D01*
X15880357Y-11300071D01*
X15866071Y-11328643D01*
X16137500Y-11157214D02*
X16323214Y-11157214D01*
X16223214Y-11271500D01*
X16266071Y-11271500D01*
X16294643Y-11285786D01*
X16308928Y-11300071D01*
X16323214Y-11328643D01*
X16323214Y-11400071D01*
X16308928Y-11428643D01*
X16294643Y-11442929D01*
X16266071Y-11457214D01*
X16180357Y-11457214D01*
X16151786Y-11442929D01*
X16137500Y-11428643D01*
X16508928Y-11157214D02*
X16537500Y-11157214D01*
X16566071Y-11171500D01*
X16580357Y-11185786D01*
X16594643Y-11214357D01*
X16608928Y-11271500D01*
X16608928Y-11342929D01*
X16594643Y-11400071D01*
X16580357Y-11428643D01*
X16566071Y-11442929D01*
X16537500Y-11457214D01*
X16508928Y-11457214D01*
X16480357Y-11442929D01*
X16466071Y-11428643D01*
X16451786Y-11400071D01*
X16437500Y-11342929D01*
X16437500Y-11271500D01*
X16451786Y-11214357D01*
X16466071Y-11185786D01*
X16480357Y-11171500D01*
X16508928Y-11157214D01*
X16723214Y-11157214D02*
X16723214Y-11214357D01*
X16837500Y-11157214D02*
X16837500Y-11214357D01*
X17280357Y-11571500D02*
X17266071Y-11557214D01*
X17237500Y-11514357D01*
X17223214Y-11485786D01*
X17208928Y-11442929D01*
X17194643Y-11371500D01*
X17194643Y-11314357D01*
X17208928Y-11242929D01*
X17223214Y-11200071D01*
X17237500Y-11171500D01*
X17266071Y-11128643D01*
X17280357Y-11114357D01*
X17380357Y-11185786D02*
X17394643Y-11171500D01*
X17423214Y-11157214D01*
X17494643Y-11157214D01*
X17523214Y-11171500D01*
X17537500Y-11185786D01*
X17551786Y-11214357D01*
X17551786Y-11242929D01*
X17537500Y-11285786D01*
X17366071Y-11457214D01*
X17551786Y-11457214D01*
X17808928Y-11257214D02*
X17808928Y-11457214D01*
X17737500Y-11142929D02*
X17666071Y-11357214D01*
X17851786Y-11357214D01*
X18194643Y-11457214D02*
X18194643Y-11157214D01*
X18323214Y-11457214D02*
X18323214Y-11300071D01*
X18308928Y-11271500D01*
X18280357Y-11257214D01*
X18237500Y-11257214D01*
X18208928Y-11271500D01*
X18194643Y-11285786D01*
X18508928Y-11457214D02*
X18480357Y-11442929D01*
X18466071Y-11428643D01*
X18451786Y-11400071D01*
X18451786Y-11314357D01*
X18466071Y-11285786D01*
X18480357Y-11271500D01*
X18508928Y-11257214D01*
X18551786Y-11257214D01*
X18580357Y-11271500D01*
X18594643Y-11285786D01*
X18608928Y-11314357D01*
X18608928Y-11400071D01*
X18594643Y-11428643D01*
X18580357Y-11442929D01*
X18551786Y-11457214D01*
X18508928Y-11457214D01*
X18780357Y-11457214D02*
X18751786Y-11442929D01*
X18737500Y-11414357D01*
X18737500Y-11157214D01*
X19008928Y-11442929D02*
X18980357Y-11457214D01*
X18923214Y-11457214D01*
X18894643Y-11442929D01*
X18880357Y-11414357D01*
X18880357Y-11300071D01*
X18894643Y-11271500D01*
X18923214Y-11257214D01*
X18980357Y-11257214D01*
X19008928Y-11271500D01*
X19023214Y-11300071D01*
X19023214Y-11328643D01*
X18880357Y-11357214D01*
X19137500Y-11442929D02*
X19166071Y-11457214D01*
X19223214Y-11457214D01*
X19251786Y-11442929D01*
X19266071Y-11414357D01*
X19266071Y-11400071D01*
X19251786Y-11371500D01*
X19223214Y-11357214D01*
X19180357Y-11357214D01*
X19151786Y-11342929D01*
X19137500Y-11314357D01*
X19137500Y-11300071D01*
X19151786Y-11271500D01*
X19180357Y-11257214D01*
X19223214Y-11257214D01*
X19251786Y-11271500D01*
X19366071Y-11571500D02*
X19380357Y-11557214D01*
X19408928Y-11514357D01*
X19423214Y-11485786D01*
X19437500Y-11442929D01*
X19451786Y-11371500D01*
X19451786Y-11314357D01*
X19437500Y-11242929D01*
X19423214Y-11200071D01*
X19408928Y-11171500D01*
X19380357Y-11128643D01*
X19366071Y-11114357D01*
X11492500Y-11452500D02*
X12022500Y-11982500D01*
X12022500Y-11452500D02*
X11492500Y-11982500D01*
X12022500Y-11717500D02*
G75*
G03*
X12022500Y-11717500I-265000J0D01*
G01*
X12451786Y-11553214D02*
X12308928Y-11553214D01*
X12294643Y-11696071D01*
X12308928Y-11681786D01*
X12337500Y-11667500D01*
X12408928Y-11667500D01*
X12437500Y-11681786D01*
X12451786Y-11696071D01*
X12466071Y-11724643D01*
X12466071Y-11796071D01*
X12451786Y-11824643D01*
X12437500Y-11838929D01*
X12408928Y-11853214D01*
X12337500Y-11853214D01*
X12308928Y-11838929D01*
X12294643Y-11824643D01*
X12594643Y-11824643D02*
X12608928Y-11838929D01*
X12594643Y-11853214D01*
X12580357Y-11838929D01*
X12594643Y-11824643D01*
X12594643Y-11853214D01*
X12708928Y-11553214D02*
X12894643Y-11553214D01*
X12794643Y-11667500D01*
X12837500Y-11667500D01*
X12866071Y-11681786D01*
X12880357Y-11696071D01*
X12894643Y-11724643D01*
X12894643Y-11796071D01*
X12880357Y-11824643D01*
X12866071Y-11838929D01*
X12837500Y-11853214D01*
X12751786Y-11853214D01*
X12723214Y-11838929D01*
X12708928Y-11824643D01*
X13080357Y-11553214D02*
X13108928Y-11553214D01*
X13137500Y-11567500D01*
X13151786Y-11581786D01*
X13166071Y-11610357D01*
X13180357Y-11667500D01*
X13180357Y-11738929D01*
X13166071Y-11796071D01*
X13151786Y-11824643D01*
X13137500Y-11838929D01*
X13108928Y-11853214D01*
X13080357Y-11853214D01*
X13051786Y-11838929D01*
X13037500Y-11824643D01*
X13023214Y-11796071D01*
X13008928Y-11738929D01*
X13008928Y-11667500D01*
X13023214Y-11610357D01*
X13037500Y-11581786D01*
X13051786Y-11567500D01*
X13080357Y-11553214D01*
X13366071Y-11553214D02*
X13394643Y-11553214D01*
X13423214Y-11567500D01*
X13437500Y-11581786D01*
X13451786Y-11610357D01*
X13466071Y-11667500D01*
X13466071Y-11738929D01*
X13451786Y-11796071D01*
X13437500Y-11824643D01*
X13423214Y-11838929D01*
X13394643Y-11853214D01*
X13366071Y-11853214D01*
X13337500Y-11838929D01*
X13323214Y-11824643D01*
X13308928Y-11796071D01*
X13294643Y-11738929D01*
X13294643Y-11667500D01*
X13308928Y-11610357D01*
X13323214Y-11581786D01*
X13337500Y-11567500D01*
X13366071Y-11553214D01*
X13594643Y-11853214D02*
X13594643Y-11653214D01*
X13594643Y-11681786D02*
X13608928Y-11667500D01*
X13637500Y-11653214D01*
X13680357Y-11653214D01*
X13708928Y-11667500D01*
X13723214Y-11696071D01*
X13723214Y-11853214D01*
X13723214Y-11696071D02*
X13737500Y-11667500D01*
X13766071Y-11653214D01*
X13808928Y-11653214D01*
X13837500Y-11667500D01*
X13851786Y-11696071D01*
X13851786Y-11853214D01*
X13994643Y-11853214D02*
X13994643Y-11653214D01*
X13994643Y-11681786D02*
X14008928Y-11667500D01*
X14037500Y-11653214D01*
X14080357Y-11653214D01*
X14108928Y-11667500D01*
X14123214Y-11696071D01*
X14123214Y-11853214D01*
X14123214Y-11696071D02*
X14137500Y-11667500D01*
X14166071Y-11653214D01*
X14208928Y-11653214D01*
X14237500Y-11667500D01*
X14251786Y-11696071D01*
X14251786Y-11853214D01*
X14837500Y-11538929D02*
X14580357Y-11924643D01*
X15223214Y-11553214D02*
X15251786Y-11553214D01*
X15280357Y-11567500D01*
X15294643Y-11581786D01*
X15308928Y-11610357D01*
X15323214Y-11667500D01*
X15323214Y-11738929D01*
X15308928Y-11796071D01*
X15294643Y-11824643D01*
X15280357Y-11838929D01*
X15251786Y-11853214D01*
X15223214Y-11853214D01*
X15194643Y-11838929D01*
X15180357Y-11824643D01*
X15166071Y-11796071D01*
X15151786Y-11738929D01*
X15151786Y-11667500D01*
X15166071Y-11610357D01*
X15180357Y-11581786D01*
X15194643Y-11567500D01*
X15223214Y-11553214D01*
X15451786Y-11824643D02*
X15466071Y-11838929D01*
X15451786Y-11853214D01*
X15437500Y-11838929D01*
X15451786Y-11824643D01*
X15451786Y-11853214D01*
X15580357Y-11581786D02*
X15594643Y-11567500D01*
X15623214Y-11553214D01*
X15694643Y-11553214D01*
X15723214Y-11567500D01*
X15737500Y-11581786D01*
X15751786Y-11610357D01*
X15751786Y-11638929D01*
X15737500Y-11681786D01*
X15566071Y-11853214D01*
X15751786Y-11853214D01*
X15937500Y-11553214D02*
X15966071Y-11553214D01*
X15994643Y-11567500D01*
X16008928Y-11581786D01*
X16023214Y-11610357D01*
X16037500Y-11667500D01*
X16037500Y-11738929D01*
X16023214Y-11796071D01*
X16008928Y-11824643D01*
X15994643Y-11838929D01*
X15966071Y-11853214D01*
X15937500Y-11853214D01*
X15908928Y-11838929D01*
X15894643Y-11824643D01*
X15880357Y-11796071D01*
X15866071Y-11738929D01*
X15866071Y-11667500D01*
X15880357Y-11610357D01*
X15894643Y-11581786D01*
X15908928Y-11567500D01*
X15937500Y-11553214D01*
X16208928Y-11681786D02*
X16180357Y-11667500D01*
X16166071Y-11653214D01*
X16151786Y-11624643D01*
X16151786Y-11610357D01*
X16166071Y-11581786D01*
X16180357Y-11567500D01*
X16208928Y-11553214D01*
X16266071Y-11553214D01*
X16294643Y-11567500D01*
X16308928Y-11581786D01*
X16323214Y-11610357D01*
X16323214Y-11624643D01*
X16308928Y-11653214D01*
X16294643Y-11667500D01*
X16266071Y-11681786D01*
X16208928Y-11681786D01*
X16180357Y-11696071D01*
X16166071Y-11710357D01*
X16151786Y-11738929D01*
X16151786Y-11796071D01*
X16166071Y-11824643D01*
X16180357Y-11838929D01*
X16208928Y-11853214D01*
X16266071Y-11853214D01*
X16294643Y-11838929D01*
X16308928Y-11824643D01*
X16323214Y-11796071D01*
X16323214Y-11738929D01*
X16308928Y-11710357D01*
X16294643Y-11696071D01*
X16266071Y-11681786D01*
X16423214Y-11553214D02*
X16623214Y-11553214D01*
X16494643Y-11853214D01*
X16723214Y-11553214D02*
X16723214Y-11610357D01*
X16837500Y-11553214D02*
X16837500Y-11610357D01*
X17280357Y-11967500D02*
X17266071Y-11953214D01*
X17237500Y-11910357D01*
X17223214Y-11881786D01*
X17208928Y-11838929D01*
X17194643Y-11767500D01*
X17194643Y-11710357D01*
X17208928Y-11638929D01*
X17223214Y-11596071D01*
X17237500Y-11567500D01*
X17266071Y-11524643D01*
X17280357Y-11510357D01*
X17380357Y-11581786D02*
X17394643Y-11567500D01*
X17423214Y-11553214D01*
X17494643Y-11553214D01*
X17523214Y-11567500D01*
X17537500Y-11581786D01*
X17551786Y-11610357D01*
X17551786Y-11638929D01*
X17537500Y-11681786D01*
X17366071Y-11853214D01*
X17551786Y-11853214D01*
X17908928Y-11853214D02*
X17908928Y-11553214D01*
X18037500Y-11853214D02*
X18037500Y-11696071D01*
X18023214Y-11667500D01*
X17994643Y-11653214D01*
X17951786Y-11653214D01*
X17923214Y-11667500D01*
X17908928Y-11681786D01*
X18223214Y-11853214D02*
X18194643Y-11838929D01*
X18180357Y-11824643D01*
X18166071Y-11796071D01*
X18166071Y-11710357D01*
X18180357Y-11681786D01*
X18194643Y-11667500D01*
X18223214Y-11653214D01*
X18266071Y-11653214D01*
X18294643Y-11667500D01*
X18308928Y-11681786D01*
X18323214Y-11710357D01*
X18323214Y-11796071D01*
X18308928Y-11824643D01*
X18294643Y-11838929D01*
X18266071Y-11853214D01*
X18223214Y-11853214D01*
X18494643Y-11853214D02*
X18466071Y-11838929D01*
X18451786Y-11810357D01*
X18451786Y-11553214D01*
X18723214Y-11838929D02*
X18694643Y-11853214D01*
X18637500Y-11853214D01*
X18608928Y-11838929D01*
X18594643Y-11810357D01*
X18594643Y-11696071D01*
X18608928Y-11667500D01*
X18637500Y-11653214D01*
X18694643Y-11653214D01*
X18723214Y-11667500D01*
X18737500Y-11696071D01*
X18737500Y-11724643D01*
X18594643Y-11753214D01*
X18851786Y-11838929D02*
X18880357Y-11853214D01*
X18937500Y-11853214D01*
X18966071Y-11838929D01*
X18980357Y-11810357D01*
X18980357Y-11796071D01*
X18966071Y-11767500D01*
X18937500Y-11753214D01*
X18894643Y-11753214D01*
X18866071Y-11738929D01*
X18851786Y-11710357D01*
X18851786Y-11696071D01*
X18866071Y-11667500D01*
X18894643Y-11653214D01*
X18937500Y-11653214D01*
X18966071Y-11667500D01*
X19080357Y-11967500D02*
X19094643Y-11953214D01*
X19123214Y-11910357D01*
X19137500Y-11881786D01*
X19151786Y-11838929D01*
X19166071Y-11767500D01*
X19166071Y-11710357D01*
X19151786Y-11638929D01*
X19137500Y-11596071D01*
X19123214Y-11567500D01*
X19094643Y-11524643D01*
X19080357Y-11510357D01*
M02*
