%FSLAX45Y45*%
G04 Gerber Fmt 4.5, Leading zero omitted, Abs format (unit mm)*
G04 Created by KiCad (PCBNEW 5.1.10) date 2021-05-19 15:47:10*
%MOMM*%
%LPD*%
G01*
G04 APERTURE LIST*
%TA.AperFunction,Profile*%
%ADD10C,0.050000*%
%TD*%
%ADD11C,0.200000*%
%ADD12C,0.300000*%
G04 APERTURE END LIST*
D10*
X18550000Y-8775000D02*
X12025000Y-8775000D01*
X18550000Y-2850000D02*
X18550000Y-8775000D01*
X12025000Y-2850000D02*
X18550000Y-2850000D01*
X12025000Y-8775000D02*
X12025000Y-2850000D01*
D11*
D12*
X12308928Y-9243214D02*
X12308928Y-8943214D01*
X12380357Y-8943214D01*
X12423214Y-8957500D01*
X12451786Y-8986072D01*
X12466071Y-9014643D01*
X12480357Y-9071786D01*
X12480357Y-9114643D01*
X12466071Y-9171786D01*
X12451786Y-9200357D01*
X12423214Y-9228929D01*
X12380357Y-9243214D01*
X12308928Y-9243214D01*
X12608928Y-9243214D02*
X12608928Y-9043214D01*
X12608928Y-9100357D02*
X12623214Y-9071786D01*
X12637500Y-9057500D01*
X12666071Y-9043214D01*
X12694643Y-9043214D01*
X12794643Y-9243214D02*
X12794643Y-9043214D01*
X12794643Y-8943214D02*
X12780357Y-8957500D01*
X12794643Y-8971786D01*
X12808928Y-8957500D01*
X12794643Y-8943214D01*
X12794643Y-8971786D01*
X12980357Y-9243214D02*
X12951786Y-9228929D01*
X12937500Y-9200357D01*
X12937500Y-8943214D01*
X13137500Y-9243214D02*
X13108928Y-9228929D01*
X13094643Y-9200357D01*
X13094643Y-8943214D01*
X13480357Y-9243214D02*
X13480357Y-8943214D01*
X13580357Y-9157500D01*
X13680357Y-8943214D01*
X13680357Y-9243214D01*
X13951786Y-9243214D02*
X13951786Y-9086072D01*
X13937500Y-9057500D01*
X13908928Y-9043214D01*
X13851786Y-9043214D01*
X13823214Y-9057500D01*
X13951786Y-9228929D02*
X13923214Y-9243214D01*
X13851786Y-9243214D01*
X13823214Y-9228929D01*
X13808928Y-9200357D01*
X13808928Y-9171786D01*
X13823214Y-9143214D01*
X13851786Y-9128929D01*
X13923214Y-9128929D01*
X13951786Y-9114643D01*
X14094643Y-9043214D02*
X14094643Y-9343214D01*
X14094643Y-9057500D02*
X14123214Y-9043214D01*
X14180357Y-9043214D01*
X14208928Y-9057500D01*
X14223214Y-9071786D01*
X14237500Y-9100357D01*
X14237500Y-9186072D01*
X14223214Y-9214643D01*
X14208928Y-9228929D01*
X14180357Y-9243214D01*
X14123214Y-9243214D01*
X14094643Y-9228929D01*
X14366071Y-9214643D02*
X14380357Y-9228929D01*
X14366071Y-9243214D01*
X14351786Y-9228929D01*
X14366071Y-9214643D01*
X14366071Y-9243214D01*
X14366071Y-9057500D02*
X14380357Y-9071786D01*
X14366071Y-9086072D01*
X14351786Y-9071786D01*
X14366071Y-9057500D01*
X14366071Y-9086072D01*
M02*
