%FSLAX45Y45*%
G04 Gerber Fmt 4.5, Leading zero omitted, Abs format (unit mm)*
G04 Created by KiCad (PCBNEW 5.1.10) date 2021-06-29 02:58:11*
%MOMM*%
%LPD*%
G01*
G04 APERTURE LIST*
%TA.AperFunction,Profile*%
%ADD10C,0.050000*%
%TD*%
%ADD11C,0.200000*%
%ADD12C,0.300000*%
G04 APERTURE END LIST*
D10*
X9700000Y-13100000D02*
X3800000Y-13100000D01*
X9700000Y-13100000D02*
X9700000Y-17875000D01*
X3800000Y-17875000D02*
X9700000Y-17875000D01*
X3800000Y-13100000D02*
X3800000Y-17875000D01*
D11*
D12*
X4083928Y-18343214D02*
X4083928Y-18043214D01*
X4155357Y-18043214D01*
X4198214Y-18057500D01*
X4226786Y-18086072D01*
X4241071Y-18114643D01*
X4255357Y-18171786D01*
X4255357Y-18214643D01*
X4241071Y-18271786D01*
X4226786Y-18300357D01*
X4198214Y-18328929D01*
X4155357Y-18343214D01*
X4083928Y-18343214D01*
X4383928Y-18343214D02*
X4383928Y-18143214D01*
X4383928Y-18200357D02*
X4398214Y-18171786D01*
X4412500Y-18157500D01*
X4441071Y-18143214D01*
X4469643Y-18143214D01*
X4569643Y-18343214D02*
X4569643Y-18143214D01*
X4569643Y-18043214D02*
X4555357Y-18057500D01*
X4569643Y-18071786D01*
X4583928Y-18057500D01*
X4569643Y-18043214D01*
X4569643Y-18071786D01*
X4755357Y-18343214D02*
X4726786Y-18328929D01*
X4712500Y-18300357D01*
X4712500Y-18043214D01*
X4912500Y-18343214D02*
X4883928Y-18328929D01*
X4869643Y-18300357D01*
X4869643Y-18043214D01*
X5255357Y-18343214D02*
X5255357Y-18043214D01*
X5355357Y-18257500D01*
X5455357Y-18043214D01*
X5455357Y-18343214D01*
X5726786Y-18343214D02*
X5726786Y-18186072D01*
X5712500Y-18157500D01*
X5683928Y-18143214D01*
X5626786Y-18143214D01*
X5598214Y-18157500D01*
X5726786Y-18328929D02*
X5698214Y-18343214D01*
X5626786Y-18343214D01*
X5598214Y-18328929D01*
X5583928Y-18300357D01*
X5583928Y-18271786D01*
X5598214Y-18243214D01*
X5626786Y-18228929D01*
X5698214Y-18228929D01*
X5726786Y-18214643D01*
X5869643Y-18143214D02*
X5869643Y-18443214D01*
X5869643Y-18157500D02*
X5898214Y-18143214D01*
X5955357Y-18143214D01*
X5983928Y-18157500D01*
X5998214Y-18171786D01*
X6012500Y-18200357D01*
X6012500Y-18286072D01*
X5998214Y-18314643D01*
X5983928Y-18328929D01*
X5955357Y-18343214D01*
X5898214Y-18343214D01*
X5869643Y-18328929D01*
X6141071Y-18314643D02*
X6155357Y-18328929D01*
X6141071Y-18343214D01*
X6126786Y-18328929D01*
X6141071Y-18314643D01*
X6141071Y-18343214D01*
X6141071Y-18157500D02*
X6155357Y-18171786D01*
X6141071Y-18186072D01*
X6126786Y-18171786D01*
X6141071Y-18157500D01*
X6141071Y-18186072D01*
M02*
