G04 #@! TF.GenerationSoftware,KiCad,Pcbnew,5.1.10*
G04 #@! TF.CreationDate,2021-06-29T02:58:05-05:00*
G04 #@! TF.ProjectId,Power Board,506f7765-7220-4426-9f61-72642e6b6963,rev?*
G04 #@! TF.SameCoordinates,Original*
G04 #@! TF.FileFunction,Legend,Bot*
G04 #@! TF.FilePolarity,Positive*
%FSLAX46Y46*%
G04 Gerber Fmt 4.6, Leading zero omitted, Abs format (unit mm)*
G04 Created by KiCad (PCBNEW 5.1.10) date 2021-06-29 02:58:05*
%MOMM*%
%LPD*%
G01*
G04 APERTURE LIST*
%ADD10C,0.200000*%
%ADD11C,0.120000*%
%ADD12C,0.150000*%
%ADD13C,2.600000*%
%ADD14R,2.600000X2.600000*%
%ADD15O,4.000000X3.200000*%
%ADD16O,5.000000X3.200000*%
%ADD17O,1.700000X1.700000*%
%ADD18R,1.700000X1.700000*%
G04 APERTURE END LIST*
D10*
X53797619Y-132777976D02*
X54273809Y-132777976D01*
X54273809Y-131527976D01*
X53464285Y-132123214D02*
X53130952Y-132123214D01*
X52988095Y-132777976D02*
X53464285Y-132777976D01*
X53464285Y-131527976D01*
X52988095Y-131527976D01*
X52702380Y-131527976D02*
X52130952Y-131527976D01*
X52416666Y-132777976D02*
X52416666Y-131527976D01*
X51797619Y-131527976D02*
X51797619Y-132539880D01*
X51750000Y-132658928D01*
X51702380Y-132718452D01*
X51607142Y-132777976D01*
X51416666Y-132777976D01*
X51321428Y-132718452D01*
X51273809Y-132658928D01*
X51226190Y-132539880D01*
X51226190Y-131527976D01*
X49988095Y-132777976D02*
X49988095Y-131527976D01*
X49511904Y-132123214D02*
X49178571Y-132123214D01*
X49035714Y-132777976D02*
X49511904Y-132777976D01*
X49511904Y-131527976D01*
X49035714Y-131527976D01*
X48607142Y-132777976D02*
X48607142Y-131527976D01*
X48226190Y-131527976D01*
X48130952Y-131587500D01*
X48083333Y-131647023D01*
X48035714Y-131766071D01*
X48035714Y-131944642D01*
X48083333Y-132063690D01*
X48130952Y-132123214D01*
X48226190Y-132182738D01*
X48607142Y-132182738D01*
X46321428Y-132777976D02*
X46892857Y-132777976D01*
X46607142Y-132777976D02*
X46607142Y-131527976D01*
X46702380Y-131706547D01*
X46797619Y-131825595D01*
X46892857Y-131885119D01*
X44797619Y-132123214D02*
X45130952Y-132123214D01*
X45130952Y-132777976D02*
X45130952Y-131527976D01*
X44654761Y-131527976D01*
X43845238Y-132777976D02*
X43845238Y-132123214D01*
X43892857Y-132004166D01*
X43988095Y-131944642D01*
X44178571Y-131944642D01*
X44273809Y-132004166D01*
X43845238Y-132718452D02*
X43940476Y-132777976D01*
X44178571Y-132777976D01*
X44273809Y-132718452D01*
X44321428Y-132599404D01*
X44321428Y-132480357D01*
X44273809Y-132361309D01*
X44178571Y-132301785D01*
X43940476Y-132301785D01*
X43845238Y-132242261D01*
X43226190Y-132777976D02*
X43321428Y-132718452D01*
X43369047Y-132599404D01*
X43369047Y-131527976D01*
X42702380Y-132777976D02*
X42797619Y-132718452D01*
X42845238Y-132599404D01*
X42845238Y-131527976D01*
X41607142Y-131647023D02*
X41559523Y-131587500D01*
X41464285Y-131527976D01*
X41226190Y-131527976D01*
X41130952Y-131587500D01*
X41083333Y-131647023D01*
X41035714Y-131766071D01*
X41035714Y-131885119D01*
X41083333Y-132063690D01*
X41654761Y-132777976D01*
X41035714Y-132777976D01*
X40416666Y-131527976D02*
X40321428Y-131527976D01*
X40226190Y-131587500D01*
X40178571Y-131647023D01*
X40130952Y-131766071D01*
X40083333Y-132004166D01*
X40083333Y-132301785D01*
X40130952Y-132539880D01*
X40178571Y-132658928D01*
X40226190Y-132718452D01*
X40321428Y-132777976D01*
X40416666Y-132777976D01*
X40511904Y-132718452D01*
X40559523Y-132658928D01*
X40607142Y-132539880D01*
X40654761Y-132301785D01*
X40654761Y-132004166D01*
X40607142Y-131766071D01*
X40559523Y-131647023D01*
X40511904Y-131587500D01*
X40416666Y-131527976D01*
X39702380Y-131647023D02*
X39654761Y-131587500D01*
X39559523Y-131527976D01*
X39321428Y-131527976D01*
X39226190Y-131587500D01*
X39178571Y-131647023D01*
X39130952Y-131766071D01*
X39130952Y-131885119D01*
X39178571Y-132063690D01*
X39750000Y-132777976D01*
X39130952Y-132777976D01*
X38178571Y-132777976D02*
X38750000Y-132777976D01*
X38464285Y-132777976D02*
X38464285Y-131527976D01*
X38559523Y-131706547D01*
X38654761Y-131825595D01*
X38750000Y-131885119D01*
X53964285Y-134793452D02*
X53821428Y-134852976D01*
X53583333Y-134852976D01*
X53488095Y-134793452D01*
X53440476Y-134733928D01*
X53392857Y-134614880D01*
X53392857Y-134495833D01*
X53440476Y-134376785D01*
X53488095Y-134317261D01*
X53583333Y-134257738D01*
X53773809Y-134198214D01*
X53869047Y-134138690D01*
X53916666Y-134079166D01*
X53964285Y-133960119D01*
X53964285Y-133841071D01*
X53916666Y-133722023D01*
X53869047Y-133662500D01*
X53773809Y-133602976D01*
X53535714Y-133602976D01*
X53392857Y-133662500D01*
X53059523Y-134019642D02*
X52869047Y-134852976D01*
X52678571Y-134257738D01*
X52488095Y-134852976D01*
X52297619Y-134019642D01*
X51916666Y-134852976D02*
X51916666Y-134019642D01*
X51916666Y-133602976D02*
X51964285Y-133662500D01*
X51916666Y-133722023D01*
X51869047Y-133662500D01*
X51916666Y-133602976D01*
X51916666Y-133722023D01*
X51583333Y-134019642D02*
X51202380Y-134019642D01*
X51440476Y-133602976D02*
X51440476Y-134674404D01*
X51392857Y-134793452D01*
X51297619Y-134852976D01*
X51202380Y-134852976D01*
X50440476Y-134793452D02*
X50535714Y-134852976D01*
X50726190Y-134852976D01*
X50821428Y-134793452D01*
X50869047Y-134733928D01*
X50916666Y-134614880D01*
X50916666Y-134257738D01*
X50869047Y-134138690D01*
X50821428Y-134079166D01*
X50726190Y-134019642D01*
X50535714Y-134019642D01*
X50440476Y-134079166D01*
X50011904Y-134852976D02*
X50011904Y-133602976D01*
X49583333Y-134852976D02*
X49583333Y-134198214D01*
X49630952Y-134079166D01*
X49726190Y-134019642D01*
X49869047Y-134019642D01*
X49964285Y-134079166D01*
X50011904Y-134138690D01*
X48011904Y-134198214D02*
X47869047Y-134257738D01*
X47821428Y-134317261D01*
X47773809Y-134436309D01*
X47773809Y-134614880D01*
X47821428Y-134733928D01*
X47869047Y-134793452D01*
X47964285Y-134852976D01*
X48345238Y-134852976D01*
X48345238Y-133602976D01*
X48011904Y-133602976D01*
X47916666Y-133662500D01*
X47869047Y-133722023D01*
X47821428Y-133841071D01*
X47821428Y-133960119D01*
X47869047Y-134079166D01*
X47916666Y-134138690D01*
X48011904Y-134198214D01*
X48345238Y-134198214D01*
X47202380Y-134852976D02*
X47297619Y-134793452D01*
X47345238Y-134733928D01*
X47392857Y-134614880D01*
X47392857Y-134257738D01*
X47345238Y-134138690D01*
X47297619Y-134079166D01*
X47202380Y-134019642D01*
X47059523Y-134019642D01*
X46964285Y-134079166D01*
X46916666Y-134138690D01*
X46869047Y-134257738D01*
X46869047Y-134614880D01*
X46916666Y-134733928D01*
X46964285Y-134793452D01*
X47059523Y-134852976D01*
X47202380Y-134852976D01*
X46011904Y-134852976D02*
X46011904Y-134198214D01*
X46059523Y-134079166D01*
X46154761Y-134019642D01*
X46345238Y-134019642D01*
X46440476Y-134079166D01*
X46011904Y-134793452D02*
X46107142Y-134852976D01*
X46345238Y-134852976D01*
X46440476Y-134793452D01*
X46488095Y-134674404D01*
X46488095Y-134555357D01*
X46440476Y-134436309D01*
X46345238Y-134376785D01*
X46107142Y-134376785D01*
X46011904Y-134317261D01*
X45535714Y-134852976D02*
X45535714Y-134019642D01*
X45535714Y-134257738D02*
X45488095Y-134138690D01*
X45440476Y-134079166D01*
X45345238Y-134019642D01*
X45250000Y-134019642D01*
X44488095Y-134852976D02*
X44488095Y-133602976D01*
X44488095Y-134793452D02*
X44583333Y-134852976D01*
X44773809Y-134852976D01*
X44869047Y-134793452D01*
X44916666Y-134733928D01*
X44964285Y-134614880D01*
X44964285Y-134257738D01*
X44916666Y-134138690D01*
X44869047Y-134079166D01*
X44773809Y-134019642D01*
X44583333Y-134019642D01*
X44488095Y-134079166D01*
X43250000Y-134376785D02*
X42488095Y-134376785D01*
X41345238Y-134019642D02*
X41107142Y-134852976D01*
X40869047Y-134019642D01*
X40297619Y-133602976D02*
X40202380Y-133602976D01*
X40107142Y-133662500D01*
X40059523Y-133722023D01*
X40011904Y-133841071D01*
X39964285Y-134079166D01*
X39964285Y-134376785D01*
X40011904Y-134614880D01*
X40059523Y-134733928D01*
X40107142Y-134793452D01*
X40202380Y-134852976D01*
X40297619Y-134852976D01*
X40392857Y-134793452D01*
X40440476Y-134733928D01*
X40488095Y-134614880D01*
X40535714Y-134376785D01*
X40535714Y-134079166D01*
X40488095Y-133841071D01*
X40440476Y-133722023D01*
X40392857Y-133662500D01*
X40297619Y-133602976D01*
X39535714Y-134733928D02*
X39488095Y-134793452D01*
X39535714Y-134852976D01*
X39583333Y-134793452D01*
X39535714Y-134733928D01*
X39535714Y-134852976D01*
X38630952Y-134019642D02*
X38630952Y-134852976D01*
X38869047Y-133543452D02*
X39107142Y-134436309D01*
X38488095Y-134436309D01*
D11*
X74824000Y-178050000D02*
X74824000Y-175390000D01*
X77424000Y-178050000D02*
X74824000Y-178050000D01*
X77424000Y-175390000D02*
X74824000Y-175390000D01*
X77424000Y-178050000D02*
X77424000Y-175390000D01*
X78694000Y-178050000D02*
X80024000Y-178050000D01*
X80024000Y-178050000D02*
X80024000Y-176720000D01*
D12*
X80476380Y-175910476D02*
X81190666Y-175910476D01*
X81333523Y-175862857D01*
X81428761Y-175767619D01*
X81476380Y-175624761D01*
X81476380Y-175529523D01*
X81476380Y-176910476D02*
X81476380Y-176339047D01*
X81476380Y-176624761D02*
X80476380Y-176624761D01*
X80619238Y-176529523D01*
X80714476Y-176434285D01*
X80762095Y-176339047D01*
X81476380Y-177862857D02*
X81476380Y-177291428D01*
X81476380Y-177577142D02*
X80476380Y-177577142D01*
X80619238Y-177481904D01*
X80714476Y-177386666D01*
X80762095Y-177291428D01*
%LPC*%
D13*
X89000000Y-158250000D03*
D14*
X94000000Y-158250000D03*
D15*
X59750000Y-141050000D03*
X59750000Y-149950000D03*
X59750000Y-145500000D03*
X55250000Y-149950000D03*
X55250000Y-145500000D03*
X55250000Y-141050000D03*
X72900000Y-149950000D03*
X72900000Y-141050000D03*
X72900000Y-145500000D03*
X77500000Y-141050000D03*
X77500000Y-145500000D03*
X77500000Y-149950000D03*
X82100000Y-149950000D03*
X82100000Y-141050000D03*
X82100000Y-145500000D03*
D13*
X41000000Y-158250000D03*
D14*
X46000000Y-158250000D03*
D16*
X67500000Y-166050000D03*
X67500000Y-170500000D03*
X67500000Y-174950000D03*
D17*
X76154000Y-176720000D03*
D18*
X78694000Y-176720000D03*
D16*
X47500000Y-166050000D03*
X47500000Y-170500000D03*
X47500000Y-174950000D03*
X87500000Y-166050000D03*
X87500000Y-170500000D03*
X87500000Y-174950000D03*
D17*
X80360000Y-132750000D03*
X77820000Y-132750000D03*
X75280000Y-132750000D03*
X72740000Y-132750000D03*
X70200000Y-132750000D03*
X67660000Y-132750000D03*
X65120000Y-132750000D03*
X62580000Y-132750000D03*
X60040000Y-132750000D03*
D18*
X57500000Y-132750000D03*
M02*
