G04 #@! TF.GenerationSoftware,KiCad,Pcbnew,5.1.10*
G04 #@! TF.CreationDate,2021-07-21T04:31:39-05:00*
G04 #@! TF.ProjectId,Power Board,506f7765-7220-4426-9f61-72642e6b6963,rev?*
G04 #@! TF.SameCoordinates,Original*
G04 #@! TF.FileFunction,Soldermask,Top*
G04 #@! TF.FilePolarity,Negative*
%FSLAX46Y46*%
G04 Gerber Fmt 4.6, Leading zero omitted, Abs format (unit mm)*
G04 Created by KiCad (PCBNEW 5.1.10) date 2021-07-21 04:31:39*
%MOMM*%
%LPD*%
G01*
G04 APERTURE LIST*
%ADD10C,2.600000*%
%ADD11R,2.600000X2.600000*%
%ADD12O,5.000000X3.200000*%
%ADD13O,4.000000X3.200000*%
%ADD14O,1.700000X1.700000*%
%ADD15R,1.700000X1.700000*%
G04 APERTURE END LIST*
D10*
X41000000Y-158250000D03*
D11*
X46000000Y-158250000D03*
D12*
X47500000Y-166050000D03*
X47500000Y-170500000D03*
X47500000Y-174950000D03*
D13*
X59750000Y-141050000D03*
X59750000Y-149950000D03*
X59750000Y-145500000D03*
X55250000Y-149950000D03*
X55250000Y-145500000D03*
X55250000Y-141050000D03*
D10*
X89000000Y-158250000D03*
D11*
X94000000Y-158250000D03*
D14*
X80360000Y-132750000D03*
X77820000Y-132750000D03*
X75280000Y-132750000D03*
X72740000Y-132750000D03*
X70200000Y-132750000D03*
X67660000Y-132750000D03*
X65120000Y-132750000D03*
X62580000Y-132750000D03*
X60040000Y-132750000D03*
D15*
X57500000Y-132750000D03*
D12*
X67500000Y-166050000D03*
X67500000Y-170500000D03*
X67500000Y-174950000D03*
X87500000Y-166050000D03*
X87500000Y-170500000D03*
X87500000Y-174950000D03*
D13*
X72900000Y-149950000D03*
X72900000Y-141050000D03*
X72900000Y-145500000D03*
X77500000Y-141050000D03*
X77500000Y-145500000D03*
X77500000Y-149950000D03*
X82100000Y-149950000D03*
X82100000Y-141050000D03*
X82100000Y-145500000D03*
D14*
X79108000Y-176750000D03*
D15*
X76568000Y-176750000D03*
M02*
