%FSLAX45Y45*%
G04 Gerber Fmt 4.5, Leading zero omitted, Abs format (unit mm)*
G04 Created by KiCad (PCBNEW 5.1.10) date 2021-07-21 04:31:41*
%MOMM*%
%LPD*%
G01*
G04 APERTURE LIST*
%TA.AperFunction,Profile*%
%ADD10C,0.050000*%
%TD*%
%ADD11C,0.200000*%
%ADD12C,0.300000*%
G04 APERTURE END LIST*
D10*
X9700000Y-13100000D02*
X3825000Y-13100000D01*
X9700000Y-13100000D02*
X9700000Y-17875000D01*
X3800000Y-17875000D02*
X9700000Y-17875000D01*
X3800000Y-13100000D02*
X3800000Y-17875000D01*
X3800000Y-13100000D02*
X3825000Y-13100000D01*
D11*
X5727780Y-15346500D02*
X5767780Y-15386500D01*
X5767780Y-15346500D02*
X5727780Y-15386500D01*
X6743190Y-13720090D02*
X6783190Y-13760090D01*
X6783190Y-13720090D02*
X6743190Y-13760090D01*
X6816310Y-13860120D02*
X6856310Y-13900120D01*
X6856310Y-13860120D02*
X6816310Y-13900120D01*
X7494890Y-16806710D02*
X7534890Y-16846710D01*
X7534890Y-16806710D02*
X7494890Y-16846710D01*
X7941770Y-13835370D02*
X7981770Y-13875370D01*
X7981770Y-13835370D02*
X7941770Y-13875370D01*
X8375000Y-14310000D02*
X8415000Y-14350000D01*
X8415000Y-14310000D02*
X8375000Y-14350000D01*
X8905000Y-14730000D02*
X8945000Y-14770000D01*
X8945000Y-14730000D02*
X8905000Y-14770000D01*
X4800000Y-16605000D02*
G75*
G03*
X4800000Y-16605000I-50000J0D01*
G01*
X4675000Y-16645000D02*
X4825000Y-16645000D01*
X4675000Y-16565000D02*
X4825000Y-16565000D01*
X4825000Y-16645000D02*
G75*
G03*
X4825000Y-16565000I0J40000D01*
G01*
X4675000Y-16565000D02*
G75*
G03*
X4675000Y-16645000I0J-40000D01*
G01*
X4800000Y-17050000D02*
G75*
G03*
X4800000Y-17050000I-50000J0D01*
G01*
X4675000Y-17090000D02*
X4825000Y-17090000D01*
X4675000Y-17010000D02*
X4825000Y-17010000D01*
X4825000Y-17090000D02*
G75*
G03*
X4825000Y-17010000I0J40000D01*
G01*
X4675000Y-17010000D02*
G75*
G03*
X4675000Y-17090000I0J-40000D01*
G01*
X4800000Y-17495000D02*
G75*
G03*
X4800000Y-17495000I-50000J0D01*
G01*
X4675000Y-17535000D02*
X4825000Y-17535000D01*
X4675000Y-17455000D02*
X4825000Y-17455000D01*
X4825000Y-17535000D02*
G75*
G03*
X4825000Y-17455000I0J40000D01*
G01*
X4675000Y-17455000D02*
G75*
G03*
X4675000Y-17535000I0J-40000D01*
G01*
X5575000Y-14105000D02*
G75*
G03*
X5575000Y-14105000I-50000J0D01*
G01*
X5600000Y-14065000D02*
X5450000Y-14065000D01*
X5600000Y-14145000D02*
X5450000Y-14145000D01*
X5450000Y-14065000D02*
G75*
G03*
X5450000Y-14145000I0J-40000D01*
G01*
X5600000Y-14145000D02*
G75*
G03*
X5600000Y-14065000I0J40000D01*
G01*
X5575000Y-14550000D02*
G75*
G03*
X5575000Y-14550000I-50000J0D01*
G01*
X5600000Y-14510000D02*
X5450000Y-14510000D01*
X5600000Y-14590000D02*
X5450000Y-14590000D01*
X5450000Y-14510000D02*
G75*
G03*
X5450000Y-14590000I0J-40000D01*
G01*
X5600000Y-14590000D02*
G75*
G03*
X5600000Y-14510000I0J40000D01*
G01*
X5575000Y-14995000D02*
G75*
G03*
X5575000Y-14995000I-50000J0D01*
G01*
X5600000Y-14955000D02*
X5450000Y-14955000D01*
X5600000Y-15035000D02*
X5450000Y-15035000D01*
X5450000Y-14955000D02*
G75*
G03*
X5450000Y-15035000I0J-40000D01*
G01*
X5600000Y-15035000D02*
G75*
G03*
X5600000Y-14955000I0J40000D01*
G01*
X5800000Y-13275000D02*
G75*
G03*
X5800000Y-13275000I-50000J0D01*
G01*
X6025000Y-14105000D02*
G75*
G03*
X6025000Y-14105000I-50000J0D01*
G01*
X5900000Y-14145000D02*
X6050000Y-14145000D01*
X5900000Y-14065000D02*
X6050000Y-14065000D01*
X6050000Y-14145000D02*
G75*
G03*
X6050000Y-14065000I0J40000D01*
G01*
X5900000Y-14065000D02*
G75*
G03*
X5900000Y-14145000I0J-40000D01*
G01*
X6025000Y-14550000D02*
G75*
G03*
X6025000Y-14550000I-50000J0D01*
G01*
X5900000Y-14590000D02*
X6050000Y-14590000D01*
X5900000Y-14510000D02*
X6050000Y-14510000D01*
X6050000Y-14590000D02*
G75*
G03*
X6050000Y-14510000I0J40000D01*
G01*
X5900000Y-14510000D02*
G75*
G03*
X5900000Y-14590000I0J-40000D01*
G01*
X6025000Y-14995000D02*
G75*
G03*
X6025000Y-14995000I-50000J0D01*
G01*
X5900000Y-15035000D02*
X6050000Y-15035000D01*
X5900000Y-14955000D02*
X6050000Y-14955000D01*
X6050000Y-15035000D02*
G75*
G03*
X6050000Y-14955000I0J40000D01*
G01*
X5900000Y-14955000D02*
G75*
G03*
X5900000Y-15035000I0J-40000D01*
G01*
X6054000Y-13275000D02*
G75*
G03*
X6054000Y-13275000I-50000J0D01*
G01*
X6308000Y-13275000D02*
G75*
G03*
X6308000Y-13275000I-50000J0D01*
G01*
X6562000Y-13275000D02*
G75*
G03*
X6562000Y-13275000I-50000J0D01*
G01*
X6800000Y-16605000D02*
G75*
G03*
X6800000Y-16605000I-50000J0D01*
G01*
X6675000Y-16645000D02*
X6825000Y-16645000D01*
X6675000Y-16565000D02*
X6825000Y-16565000D01*
X6825000Y-16645000D02*
G75*
G03*
X6825000Y-16565000I0J40000D01*
G01*
X6675000Y-16565000D02*
G75*
G03*
X6675000Y-16645000I0J-40000D01*
G01*
X6800000Y-17050000D02*
G75*
G03*
X6800000Y-17050000I-50000J0D01*
G01*
X6675000Y-17090000D02*
X6825000Y-17090000D01*
X6675000Y-17010000D02*
X6825000Y-17010000D01*
X6825000Y-17090000D02*
G75*
G03*
X6825000Y-17010000I0J40000D01*
G01*
X6675000Y-17010000D02*
G75*
G03*
X6675000Y-17090000I0J-40000D01*
G01*
X6800000Y-17495000D02*
G75*
G03*
X6800000Y-17495000I-50000J0D01*
G01*
X6675000Y-17535000D02*
X6825000Y-17535000D01*
X6675000Y-17455000D02*
X6825000Y-17455000D01*
X6825000Y-17535000D02*
G75*
G03*
X6825000Y-17455000I0J40000D01*
G01*
X6675000Y-17455000D02*
G75*
G03*
X6675000Y-17535000I0J-40000D01*
G01*
X6816000Y-13275000D02*
G75*
G03*
X6816000Y-13275000I-50000J0D01*
G01*
X7070000Y-13275000D02*
G75*
G03*
X7070000Y-13275000I-50000J0D01*
G01*
X7324000Y-13275000D02*
G75*
G03*
X7324000Y-13275000I-50000J0D01*
G01*
X7340000Y-14105000D02*
G75*
G03*
X7340000Y-14105000I-50000J0D01*
G01*
X7365000Y-14065000D02*
X7215000Y-14065000D01*
X7365000Y-14145000D02*
X7215000Y-14145000D01*
X7215000Y-14065000D02*
G75*
G03*
X7215000Y-14145000I0J-40000D01*
G01*
X7365000Y-14145000D02*
G75*
G03*
X7365000Y-14065000I0J40000D01*
G01*
X7340000Y-14550000D02*
G75*
G03*
X7340000Y-14550000I-50000J0D01*
G01*
X7365000Y-14510000D02*
X7215000Y-14510000D01*
X7365000Y-14590000D02*
X7215000Y-14590000D01*
X7215000Y-14510000D02*
G75*
G03*
X7215000Y-14590000I0J-40000D01*
G01*
X7365000Y-14590000D02*
G75*
G03*
X7365000Y-14510000I0J40000D01*
G01*
X7340000Y-14995000D02*
G75*
G03*
X7340000Y-14995000I-50000J0D01*
G01*
X7365000Y-14955000D02*
X7215000Y-14955000D01*
X7365000Y-15035000D02*
X7215000Y-15035000D01*
X7215000Y-14955000D02*
G75*
G03*
X7215000Y-15035000I0J-40000D01*
G01*
X7365000Y-15035000D02*
G75*
G03*
X7365000Y-14955000I0J40000D01*
G01*
X7578000Y-13275000D02*
G75*
G03*
X7578000Y-13275000I-50000J0D01*
G01*
X7706800Y-17675000D02*
G75*
G03*
X7706800Y-17675000I-50000J0D01*
G01*
X7800000Y-14105000D02*
G75*
G03*
X7800000Y-14105000I-50000J0D01*
G01*
X7675000Y-14145000D02*
X7825000Y-14145000D01*
X7675000Y-14065000D02*
X7825000Y-14065000D01*
X7825000Y-14145000D02*
G75*
G03*
X7825000Y-14065000I0J40000D01*
G01*
X7675000Y-14065000D02*
G75*
G03*
X7675000Y-14145000I0J-40000D01*
G01*
X7800000Y-14550000D02*
G75*
G03*
X7800000Y-14550000I-50000J0D01*
G01*
X7675000Y-14590000D02*
X7825000Y-14590000D01*
X7675000Y-14510000D02*
X7825000Y-14510000D01*
X7825000Y-14590000D02*
G75*
G03*
X7825000Y-14510000I0J40000D01*
G01*
X7675000Y-14510000D02*
G75*
G03*
X7675000Y-14590000I0J-40000D01*
G01*
X7800000Y-14995000D02*
G75*
G03*
X7800000Y-14995000I-50000J0D01*
G01*
X7675000Y-15035000D02*
X7825000Y-15035000D01*
X7675000Y-14955000D02*
X7825000Y-14955000D01*
X7825000Y-15035000D02*
G75*
G03*
X7825000Y-14955000I0J40000D01*
G01*
X7675000Y-14955000D02*
G75*
G03*
X7675000Y-15035000I0J-40000D01*
G01*
X7832000Y-13275000D02*
G75*
G03*
X7832000Y-13275000I-50000J0D01*
G01*
X7960800Y-17675000D02*
G75*
G03*
X7960800Y-17675000I-50000J0D01*
G01*
X8086000Y-13275000D02*
G75*
G03*
X8086000Y-13275000I-50000J0D01*
G01*
X8260000Y-14105000D02*
G75*
G03*
X8260000Y-14105000I-50000J0D01*
G01*
X8135000Y-14145000D02*
X8285000Y-14145000D01*
X8135000Y-14065000D02*
X8285000Y-14065000D01*
X8285000Y-14145000D02*
G75*
G03*
X8285000Y-14065000I0J40000D01*
G01*
X8135000Y-14065000D02*
G75*
G03*
X8135000Y-14145000I0J-40000D01*
G01*
X8260000Y-14550000D02*
G75*
G03*
X8260000Y-14550000I-50000J0D01*
G01*
X8135000Y-14590000D02*
X8285000Y-14590000D01*
X8135000Y-14510000D02*
X8285000Y-14510000D01*
X8285000Y-14590000D02*
G75*
G03*
X8285000Y-14510000I0J40000D01*
G01*
X8135000Y-14510000D02*
G75*
G03*
X8135000Y-14590000I0J-40000D01*
G01*
X8260000Y-14995000D02*
G75*
G03*
X8260000Y-14995000I-50000J0D01*
G01*
X8135000Y-15035000D02*
X8285000Y-15035000D01*
X8135000Y-14955000D02*
X8285000Y-14955000D01*
X8285000Y-15035000D02*
G75*
G03*
X8285000Y-14955000I0J40000D01*
G01*
X8135000Y-14955000D02*
G75*
G03*
X8135000Y-15035000I0J-40000D01*
G01*
X8800000Y-16605000D02*
G75*
G03*
X8800000Y-16605000I-50000J0D01*
G01*
X8675000Y-16645000D02*
X8825000Y-16645000D01*
X8675000Y-16565000D02*
X8825000Y-16565000D01*
X8825000Y-16645000D02*
G75*
G03*
X8825000Y-16565000I0J40000D01*
G01*
X8675000Y-16565000D02*
G75*
G03*
X8675000Y-16645000I0J-40000D01*
G01*
X8800000Y-17050000D02*
G75*
G03*
X8800000Y-17050000I-50000J0D01*
G01*
X8675000Y-17090000D02*
X8825000Y-17090000D01*
X8675000Y-17010000D02*
X8825000Y-17010000D01*
X8825000Y-17090000D02*
G75*
G03*
X8825000Y-17010000I0J40000D01*
G01*
X8675000Y-17010000D02*
G75*
G03*
X8675000Y-17090000I0J-40000D01*
G01*
X8800000Y-17495000D02*
G75*
G03*
X8800000Y-17495000I-50000J0D01*
G01*
X8675000Y-17535000D02*
X8825000Y-17535000D01*
X8675000Y-17455000D02*
X8825000Y-17455000D01*
X8825000Y-17535000D02*
G75*
G03*
X8825000Y-17455000I0J40000D01*
G01*
X8675000Y-17455000D02*
G75*
G03*
X8675000Y-17535000I0J-40000D01*
G01*
X4100000Y-15760000D02*
X4100000Y-15890000D01*
X4035000Y-15825000D02*
X4165000Y-15825000D01*
X4600000Y-15760000D02*
X4600000Y-15890000D01*
X4535000Y-15825000D02*
X4665000Y-15825000D01*
X8900000Y-15760000D02*
X8900000Y-15890000D01*
X8835000Y-15825000D02*
X8965000Y-15825000D01*
X9400000Y-15760000D02*
X9400000Y-15890000D01*
X9335000Y-15825000D02*
X9465000Y-15825000D01*
D12*
X4083928Y-18343214D02*
X4083928Y-18043214D01*
X4155357Y-18043214D01*
X4198214Y-18057500D01*
X4226786Y-18086072D01*
X4241071Y-18114643D01*
X4255357Y-18171786D01*
X4255357Y-18214643D01*
X4241071Y-18271786D01*
X4226786Y-18300357D01*
X4198214Y-18328929D01*
X4155357Y-18343214D01*
X4083928Y-18343214D01*
X4383928Y-18343214D02*
X4383928Y-18143214D01*
X4383928Y-18200357D02*
X4398214Y-18171786D01*
X4412500Y-18157500D01*
X4441071Y-18143214D01*
X4469643Y-18143214D01*
X4569643Y-18343214D02*
X4569643Y-18143214D01*
X4569643Y-18043214D02*
X4555357Y-18057500D01*
X4569643Y-18071786D01*
X4583928Y-18057500D01*
X4569643Y-18043214D01*
X4569643Y-18071786D01*
X4755357Y-18343214D02*
X4726786Y-18328929D01*
X4712500Y-18300357D01*
X4712500Y-18043214D01*
X4912500Y-18343214D02*
X4883928Y-18328929D01*
X4869643Y-18300357D01*
X4869643Y-18043214D01*
X5255357Y-18343214D02*
X5255357Y-18043214D01*
X5355357Y-18257500D01*
X5455357Y-18043214D01*
X5455357Y-18343214D01*
X5726786Y-18343214D02*
X5726786Y-18186072D01*
X5712500Y-18157500D01*
X5683928Y-18143214D01*
X5626786Y-18143214D01*
X5598214Y-18157500D01*
X5726786Y-18328929D02*
X5698214Y-18343214D01*
X5626786Y-18343214D01*
X5598214Y-18328929D01*
X5583928Y-18300357D01*
X5583928Y-18271786D01*
X5598214Y-18243214D01*
X5626786Y-18228929D01*
X5698214Y-18228929D01*
X5726786Y-18214643D01*
X5869643Y-18143214D02*
X5869643Y-18443214D01*
X5869643Y-18157500D02*
X5898214Y-18143214D01*
X5955357Y-18143214D01*
X5983928Y-18157500D01*
X5998214Y-18171786D01*
X6012500Y-18200357D01*
X6012500Y-18286072D01*
X5998214Y-18314643D01*
X5983928Y-18328929D01*
X5955357Y-18343214D01*
X5898214Y-18343214D01*
X5869643Y-18328929D01*
X6141071Y-18314643D02*
X6155357Y-18328929D01*
X6141071Y-18343214D01*
X6126786Y-18328929D01*
X6141071Y-18314643D01*
X6141071Y-18343214D01*
X6141071Y-18157500D02*
X6155357Y-18171786D01*
X6141071Y-18186072D01*
X6126786Y-18171786D01*
X6141071Y-18157500D01*
X6141071Y-18186072D01*
X3757500Y-18817500D02*
X3797500Y-18857500D01*
X3797500Y-18817500D02*
X3757500Y-18857500D01*
X4141071Y-18673214D02*
X4169643Y-18673214D01*
X4198214Y-18687500D01*
X4212500Y-18701786D01*
X4226786Y-18730357D01*
X4241071Y-18787500D01*
X4241071Y-18858929D01*
X4226786Y-18916072D01*
X4212500Y-18944643D01*
X4198214Y-18958929D01*
X4169643Y-18973214D01*
X4141071Y-18973214D01*
X4112500Y-18958929D01*
X4098214Y-18944643D01*
X4083928Y-18916072D01*
X4069643Y-18858929D01*
X4069643Y-18787500D01*
X4083928Y-18730357D01*
X4098214Y-18701786D01*
X4112500Y-18687500D01*
X4141071Y-18673214D01*
X4369643Y-18944643D02*
X4383928Y-18958929D01*
X4369643Y-18973214D01*
X4355357Y-18958929D01*
X4369643Y-18944643D01*
X4369643Y-18973214D01*
X4641071Y-18773214D02*
X4641071Y-18973214D01*
X4569643Y-18658929D02*
X4498214Y-18873214D01*
X4683928Y-18873214D01*
X4855357Y-18673214D02*
X4883928Y-18673214D01*
X4912500Y-18687500D01*
X4926786Y-18701786D01*
X4941071Y-18730357D01*
X4955357Y-18787500D01*
X4955357Y-18858929D01*
X4941071Y-18916072D01*
X4926786Y-18944643D01*
X4912500Y-18958929D01*
X4883928Y-18973214D01*
X4855357Y-18973214D01*
X4826786Y-18958929D01*
X4812500Y-18944643D01*
X4798214Y-18916072D01*
X4783928Y-18858929D01*
X4783928Y-18787500D01*
X4798214Y-18730357D01*
X4812500Y-18701786D01*
X4826786Y-18687500D01*
X4855357Y-18673214D01*
X5141071Y-18673214D02*
X5169643Y-18673214D01*
X5198214Y-18687500D01*
X5212500Y-18701786D01*
X5226786Y-18730357D01*
X5241071Y-18787500D01*
X5241071Y-18858929D01*
X5226786Y-18916072D01*
X5212500Y-18944643D01*
X5198214Y-18958929D01*
X5169643Y-18973214D01*
X5141071Y-18973214D01*
X5112500Y-18958929D01*
X5098214Y-18944643D01*
X5083928Y-18916072D01*
X5069643Y-18858929D01*
X5069643Y-18787500D01*
X5083928Y-18730357D01*
X5098214Y-18701786D01*
X5112500Y-18687500D01*
X5141071Y-18673214D01*
X5369643Y-18973214D02*
X5369643Y-18773214D01*
X5369643Y-18801786D02*
X5383928Y-18787500D01*
X5412500Y-18773214D01*
X5455357Y-18773214D01*
X5483928Y-18787500D01*
X5498214Y-18816072D01*
X5498214Y-18973214D01*
X5498214Y-18816072D02*
X5512500Y-18787500D01*
X5541071Y-18773214D01*
X5583928Y-18773214D01*
X5612500Y-18787500D01*
X5626786Y-18816072D01*
X5626786Y-18973214D01*
X5769643Y-18973214D02*
X5769643Y-18773214D01*
X5769643Y-18801786D02*
X5783928Y-18787500D01*
X5812500Y-18773214D01*
X5855357Y-18773214D01*
X5883928Y-18787500D01*
X5898214Y-18816072D01*
X5898214Y-18973214D01*
X5898214Y-18816072D02*
X5912500Y-18787500D01*
X5941071Y-18773214D01*
X5983928Y-18773214D01*
X6012500Y-18787500D01*
X6026786Y-18816072D01*
X6026786Y-18973214D01*
X6612500Y-18658929D02*
X6355357Y-19044643D01*
X6998214Y-18673214D02*
X7026786Y-18673214D01*
X7055357Y-18687500D01*
X7069643Y-18701786D01*
X7083928Y-18730357D01*
X7098214Y-18787500D01*
X7098214Y-18858929D01*
X7083928Y-18916072D01*
X7069643Y-18944643D01*
X7055357Y-18958929D01*
X7026786Y-18973214D01*
X6998214Y-18973214D01*
X6969643Y-18958929D01*
X6955357Y-18944643D01*
X6941071Y-18916072D01*
X6926786Y-18858929D01*
X6926786Y-18787500D01*
X6941071Y-18730357D01*
X6955357Y-18701786D01*
X6969643Y-18687500D01*
X6998214Y-18673214D01*
X7226786Y-18944643D02*
X7241071Y-18958929D01*
X7226786Y-18973214D01*
X7212500Y-18958929D01*
X7226786Y-18944643D01*
X7226786Y-18973214D01*
X7426786Y-18673214D02*
X7455357Y-18673214D01*
X7483928Y-18687500D01*
X7498214Y-18701786D01*
X7512500Y-18730357D01*
X7526786Y-18787500D01*
X7526786Y-18858929D01*
X7512500Y-18916072D01*
X7498214Y-18944643D01*
X7483928Y-18958929D01*
X7455357Y-18973214D01*
X7426786Y-18973214D01*
X7398214Y-18958929D01*
X7383928Y-18944643D01*
X7369643Y-18916072D01*
X7355357Y-18858929D01*
X7355357Y-18787500D01*
X7369643Y-18730357D01*
X7383928Y-18701786D01*
X7398214Y-18687500D01*
X7426786Y-18673214D01*
X7812500Y-18973214D02*
X7641071Y-18973214D01*
X7726786Y-18973214D02*
X7726786Y-18673214D01*
X7698214Y-18716072D01*
X7669643Y-18744643D01*
X7641071Y-18758929D01*
X8083928Y-18673214D02*
X7941071Y-18673214D01*
X7926786Y-18816072D01*
X7941071Y-18801786D01*
X7969643Y-18787500D01*
X8041071Y-18787500D01*
X8069643Y-18801786D01*
X8083928Y-18816072D01*
X8098214Y-18844643D01*
X8098214Y-18916072D01*
X8083928Y-18944643D01*
X8069643Y-18958929D01*
X8041071Y-18973214D01*
X7969643Y-18973214D01*
X7941071Y-18958929D01*
X7926786Y-18944643D01*
X8198214Y-18673214D02*
X8398214Y-18673214D01*
X8269643Y-18973214D01*
X8498214Y-18673214D02*
X8498214Y-18730357D01*
X8612500Y-18673214D02*
X8612500Y-18730357D01*
X9055357Y-19087500D02*
X9041071Y-19073214D01*
X9012500Y-19030357D01*
X8998214Y-19001786D01*
X8983928Y-18958929D01*
X8969643Y-18887500D01*
X8969643Y-18830357D01*
X8983928Y-18758929D01*
X8998214Y-18716072D01*
X9012500Y-18687500D01*
X9041071Y-18644643D01*
X9055357Y-18630357D01*
X9141071Y-18673214D02*
X9341071Y-18673214D01*
X9212500Y-18973214D01*
X9683928Y-18973214D02*
X9683928Y-18673214D01*
X9812500Y-18973214D02*
X9812500Y-18816072D01*
X9798214Y-18787500D01*
X9769643Y-18773214D01*
X9726786Y-18773214D01*
X9698214Y-18787500D01*
X9683928Y-18801786D01*
X9998214Y-18973214D02*
X9969643Y-18958929D01*
X9955357Y-18944643D01*
X9941071Y-18916072D01*
X9941071Y-18830357D01*
X9955357Y-18801786D01*
X9969643Y-18787500D01*
X9998214Y-18773214D01*
X10041071Y-18773214D01*
X10069643Y-18787500D01*
X10083928Y-18801786D01*
X10098214Y-18830357D01*
X10098214Y-18916072D01*
X10083928Y-18944643D01*
X10069643Y-18958929D01*
X10041071Y-18973214D01*
X9998214Y-18973214D01*
X10269643Y-18973214D02*
X10241071Y-18958929D01*
X10226786Y-18930357D01*
X10226786Y-18673214D01*
X10498214Y-18958929D02*
X10469643Y-18973214D01*
X10412500Y-18973214D01*
X10383928Y-18958929D01*
X10369643Y-18930357D01*
X10369643Y-18816072D01*
X10383928Y-18787500D01*
X10412500Y-18773214D01*
X10469643Y-18773214D01*
X10498214Y-18787500D01*
X10512500Y-18816072D01*
X10512500Y-18844643D01*
X10369643Y-18873214D01*
X10626786Y-18958929D02*
X10655357Y-18973214D01*
X10712500Y-18973214D01*
X10741071Y-18958929D01*
X10755357Y-18930357D01*
X10755357Y-18916072D01*
X10741071Y-18887500D01*
X10712500Y-18873214D01*
X10669643Y-18873214D01*
X10641071Y-18858929D01*
X10626786Y-18830357D01*
X10626786Y-18816072D01*
X10641071Y-18787500D01*
X10669643Y-18773214D01*
X10712500Y-18773214D01*
X10741071Y-18787500D01*
X10855357Y-19087500D02*
X10869643Y-19073214D01*
X10898214Y-19030357D01*
X10912500Y-19001786D01*
X10926786Y-18958929D01*
X10941071Y-18887500D01*
X10941071Y-18830357D01*
X10926786Y-18758929D01*
X10912500Y-18716072D01*
X10898214Y-18687500D01*
X10869643Y-18644643D01*
X10855357Y-18630357D01*
X3797500Y-19233500D02*
G75*
G03*
X3797500Y-19233500I-50000J0D01*
G01*
X4241071Y-19369214D02*
X4069643Y-19369214D01*
X4155357Y-19369214D02*
X4155357Y-19069214D01*
X4126786Y-19112072D01*
X4098214Y-19140643D01*
X4069643Y-19154929D01*
X4369643Y-19340643D02*
X4383928Y-19354929D01*
X4369643Y-19369214D01*
X4355357Y-19354929D01*
X4369643Y-19340643D01*
X4369643Y-19369214D01*
X4569643Y-19069214D02*
X4598214Y-19069214D01*
X4626786Y-19083500D01*
X4641071Y-19097786D01*
X4655357Y-19126357D01*
X4669643Y-19183500D01*
X4669643Y-19254929D01*
X4655357Y-19312072D01*
X4641071Y-19340643D01*
X4626786Y-19354929D01*
X4598214Y-19369214D01*
X4569643Y-19369214D01*
X4541071Y-19354929D01*
X4526786Y-19340643D01*
X4512500Y-19312072D01*
X4498214Y-19254929D01*
X4498214Y-19183500D01*
X4512500Y-19126357D01*
X4526786Y-19097786D01*
X4541071Y-19083500D01*
X4569643Y-19069214D01*
X4855357Y-19069214D02*
X4883928Y-19069214D01*
X4912500Y-19083500D01*
X4926786Y-19097786D01*
X4941071Y-19126357D01*
X4955357Y-19183500D01*
X4955357Y-19254929D01*
X4941071Y-19312072D01*
X4926786Y-19340643D01*
X4912500Y-19354929D01*
X4883928Y-19369214D01*
X4855357Y-19369214D01*
X4826786Y-19354929D01*
X4812500Y-19340643D01*
X4798214Y-19312072D01*
X4783928Y-19254929D01*
X4783928Y-19183500D01*
X4798214Y-19126357D01*
X4812500Y-19097786D01*
X4826786Y-19083500D01*
X4855357Y-19069214D01*
X5141071Y-19069214D02*
X5169643Y-19069214D01*
X5198214Y-19083500D01*
X5212500Y-19097786D01*
X5226786Y-19126357D01*
X5241071Y-19183500D01*
X5241071Y-19254929D01*
X5226786Y-19312072D01*
X5212500Y-19340643D01*
X5198214Y-19354929D01*
X5169643Y-19369214D01*
X5141071Y-19369214D01*
X5112500Y-19354929D01*
X5098214Y-19340643D01*
X5083928Y-19312072D01*
X5069643Y-19254929D01*
X5069643Y-19183500D01*
X5083928Y-19126357D01*
X5098214Y-19097786D01*
X5112500Y-19083500D01*
X5141071Y-19069214D01*
X5369643Y-19369214D02*
X5369643Y-19169214D01*
X5369643Y-19197786D02*
X5383928Y-19183500D01*
X5412500Y-19169214D01*
X5455357Y-19169214D01*
X5483928Y-19183500D01*
X5498214Y-19212072D01*
X5498214Y-19369214D01*
X5498214Y-19212072D02*
X5512500Y-19183500D01*
X5541071Y-19169214D01*
X5583928Y-19169214D01*
X5612500Y-19183500D01*
X5626786Y-19212072D01*
X5626786Y-19369214D01*
X5769643Y-19369214D02*
X5769643Y-19169214D01*
X5769643Y-19197786D02*
X5783928Y-19183500D01*
X5812500Y-19169214D01*
X5855357Y-19169214D01*
X5883928Y-19183500D01*
X5898214Y-19212072D01*
X5898214Y-19369214D01*
X5898214Y-19212072D02*
X5912500Y-19183500D01*
X5941071Y-19169214D01*
X5983928Y-19169214D01*
X6012500Y-19183500D01*
X6026786Y-19212072D01*
X6026786Y-19369214D01*
X6612500Y-19054929D02*
X6355357Y-19440643D01*
X6998214Y-19069214D02*
X7026786Y-19069214D01*
X7055357Y-19083500D01*
X7069643Y-19097786D01*
X7083928Y-19126357D01*
X7098214Y-19183500D01*
X7098214Y-19254929D01*
X7083928Y-19312072D01*
X7069643Y-19340643D01*
X7055357Y-19354929D01*
X7026786Y-19369214D01*
X6998214Y-19369214D01*
X6969643Y-19354929D01*
X6955357Y-19340643D01*
X6941071Y-19312072D01*
X6926786Y-19254929D01*
X6926786Y-19183500D01*
X6941071Y-19126357D01*
X6955357Y-19097786D01*
X6969643Y-19083500D01*
X6998214Y-19069214D01*
X7226786Y-19340643D02*
X7241071Y-19354929D01*
X7226786Y-19369214D01*
X7212500Y-19354929D01*
X7226786Y-19340643D01*
X7226786Y-19369214D01*
X7426786Y-19069214D02*
X7455357Y-19069214D01*
X7483928Y-19083500D01*
X7498214Y-19097786D01*
X7512500Y-19126357D01*
X7526786Y-19183500D01*
X7526786Y-19254929D01*
X7512500Y-19312072D01*
X7498214Y-19340643D01*
X7483928Y-19354929D01*
X7455357Y-19369214D01*
X7426786Y-19369214D01*
X7398214Y-19354929D01*
X7383928Y-19340643D01*
X7369643Y-19312072D01*
X7355357Y-19254929D01*
X7355357Y-19183500D01*
X7369643Y-19126357D01*
X7383928Y-19097786D01*
X7398214Y-19083500D01*
X7426786Y-19069214D01*
X7626786Y-19069214D02*
X7812500Y-19069214D01*
X7712500Y-19183500D01*
X7755357Y-19183500D01*
X7783928Y-19197786D01*
X7798214Y-19212072D01*
X7812500Y-19240643D01*
X7812500Y-19312072D01*
X7798214Y-19340643D01*
X7783928Y-19354929D01*
X7755357Y-19369214D01*
X7669643Y-19369214D01*
X7641071Y-19354929D01*
X7626786Y-19340643D01*
X7955357Y-19369214D02*
X8012500Y-19369214D01*
X8041071Y-19354929D01*
X8055357Y-19340643D01*
X8083928Y-19297786D01*
X8098214Y-19240643D01*
X8098214Y-19126357D01*
X8083928Y-19097786D01*
X8069643Y-19083500D01*
X8041071Y-19069214D01*
X7983928Y-19069214D01*
X7955357Y-19083500D01*
X7941071Y-19097786D01*
X7926786Y-19126357D01*
X7926786Y-19197786D01*
X7941071Y-19226357D01*
X7955357Y-19240643D01*
X7983928Y-19254929D01*
X8041071Y-19254929D01*
X8069643Y-19240643D01*
X8083928Y-19226357D01*
X8098214Y-19197786D01*
X8355357Y-19169214D02*
X8355357Y-19369214D01*
X8283928Y-19054929D02*
X8212500Y-19269214D01*
X8398214Y-19269214D01*
X8498214Y-19069214D02*
X8498214Y-19126357D01*
X8612500Y-19069214D02*
X8612500Y-19126357D01*
X9055357Y-19483500D02*
X9041071Y-19469214D01*
X9012500Y-19426357D01*
X8998214Y-19397786D01*
X8983928Y-19354929D01*
X8969643Y-19283500D01*
X8969643Y-19226357D01*
X8983928Y-19154929D01*
X8998214Y-19112072D01*
X9012500Y-19083500D01*
X9041071Y-19040643D01*
X9055357Y-19026357D01*
X9326786Y-19369214D02*
X9155357Y-19369214D01*
X9241071Y-19369214D02*
X9241071Y-19069214D01*
X9212500Y-19112072D01*
X9183928Y-19140643D01*
X9155357Y-19154929D01*
X9441071Y-19097786D02*
X9455357Y-19083500D01*
X9483928Y-19069214D01*
X9555357Y-19069214D01*
X9583928Y-19083500D01*
X9598214Y-19097786D01*
X9612500Y-19126357D01*
X9612500Y-19154929D01*
X9598214Y-19197786D01*
X9426786Y-19369214D01*
X9612500Y-19369214D01*
X9969643Y-19369214D02*
X9969643Y-19069214D01*
X10098214Y-19369214D02*
X10098214Y-19212072D01*
X10083928Y-19183500D01*
X10055357Y-19169214D01*
X10012500Y-19169214D01*
X9983928Y-19183500D01*
X9969643Y-19197786D01*
X10283928Y-19369214D02*
X10255357Y-19354929D01*
X10241071Y-19340643D01*
X10226786Y-19312072D01*
X10226786Y-19226357D01*
X10241071Y-19197786D01*
X10255357Y-19183500D01*
X10283928Y-19169214D01*
X10326786Y-19169214D01*
X10355357Y-19183500D01*
X10369643Y-19197786D01*
X10383928Y-19226357D01*
X10383928Y-19312072D01*
X10369643Y-19340643D01*
X10355357Y-19354929D01*
X10326786Y-19369214D01*
X10283928Y-19369214D01*
X10555357Y-19369214D02*
X10526786Y-19354929D01*
X10512500Y-19326357D01*
X10512500Y-19069214D01*
X10783928Y-19354929D02*
X10755357Y-19369214D01*
X10698214Y-19369214D01*
X10669643Y-19354929D01*
X10655357Y-19326357D01*
X10655357Y-19212072D01*
X10669643Y-19183500D01*
X10698214Y-19169214D01*
X10755357Y-19169214D01*
X10783928Y-19183500D01*
X10798214Y-19212072D01*
X10798214Y-19240643D01*
X10655357Y-19269214D01*
X10912500Y-19354929D02*
X10941071Y-19369214D01*
X10998214Y-19369214D01*
X11026786Y-19354929D01*
X11041071Y-19326357D01*
X11041071Y-19312072D01*
X11026786Y-19283500D01*
X10998214Y-19269214D01*
X10955357Y-19269214D01*
X10926786Y-19254929D01*
X10912500Y-19226357D01*
X10912500Y-19212072D01*
X10926786Y-19183500D01*
X10955357Y-19169214D01*
X10998214Y-19169214D01*
X11026786Y-19183500D01*
X11398214Y-19254929D02*
X11626786Y-19254929D01*
X11512500Y-19369214D02*
X11512500Y-19140643D01*
X11983928Y-19097786D02*
X11998214Y-19083500D01*
X12026786Y-19069214D01*
X12098214Y-19069214D01*
X12126786Y-19083500D01*
X12141071Y-19097786D01*
X12155357Y-19126357D01*
X12155357Y-19154929D01*
X12141071Y-19197786D01*
X11969643Y-19369214D01*
X12155357Y-19369214D01*
X12412500Y-19169214D02*
X12412500Y-19369214D01*
X12341071Y-19054929D02*
X12269643Y-19269214D01*
X12455357Y-19269214D01*
X12783928Y-19354929D02*
X12812500Y-19369214D01*
X12869643Y-19369214D01*
X12898214Y-19354929D01*
X12912500Y-19326357D01*
X12912500Y-19312072D01*
X12898214Y-19283500D01*
X12869643Y-19269214D01*
X12826786Y-19269214D01*
X12798214Y-19254929D01*
X12783928Y-19226357D01*
X12783928Y-19212072D01*
X12798214Y-19183500D01*
X12826786Y-19169214D01*
X12869643Y-19169214D01*
X12898214Y-19183500D01*
X13083928Y-19369214D02*
X13055357Y-19354929D01*
X13041071Y-19326357D01*
X13041071Y-19069214D01*
X13241071Y-19369214D02*
X13212500Y-19354929D01*
X13198214Y-19340643D01*
X13183928Y-19312072D01*
X13183928Y-19226357D01*
X13198214Y-19197786D01*
X13212500Y-19183500D01*
X13241071Y-19169214D01*
X13283928Y-19169214D01*
X13312500Y-19183500D01*
X13326786Y-19197786D01*
X13341071Y-19226357D01*
X13341071Y-19312072D01*
X13326786Y-19340643D01*
X13312500Y-19354929D01*
X13283928Y-19369214D01*
X13241071Y-19369214D01*
X13426786Y-19169214D02*
X13541071Y-19169214D01*
X13469643Y-19069214D02*
X13469643Y-19326357D01*
X13483928Y-19354929D01*
X13512500Y-19369214D01*
X13541071Y-19369214D01*
X13626786Y-19354929D02*
X13655357Y-19369214D01*
X13712500Y-19369214D01*
X13741071Y-19354929D01*
X13755357Y-19326357D01*
X13755357Y-19312072D01*
X13741071Y-19283500D01*
X13712500Y-19269214D01*
X13669643Y-19269214D01*
X13641071Y-19254929D01*
X13626786Y-19226357D01*
X13626786Y-19212072D01*
X13641071Y-19183500D01*
X13669643Y-19169214D01*
X13712500Y-19169214D01*
X13741071Y-19183500D01*
X13855357Y-19483500D02*
X13869643Y-19469214D01*
X13898214Y-19426357D01*
X13912500Y-19397786D01*
X13926786Y-19354929D01*
X13941071Y-19283500D01*
X13941071Y-19226357D01*
X13926786Y-19154929D01*
X13912500Y-19112072D01*
X13898214Y-19083500D01*
X13869643Y-19040643D01*
X13855357Y-19026357D01*
X3732500Y-19564500D02*
X3732500Y-19694500D01*
X3667500Y-19629500D02*
X3797500Y-19629500D01*
X4241071Y-19765214D02*
X4069643Y-19765214D01*
X4155357Y-19765214D02*
X4155357Y-19465214D01*
X4126786Y-19508072D01*
X4098214Y-19536643D01*
X4069643Y-19550929D01*
X4369643Y-19736643D02*
X4383928Y-19750929D01*
X4369643Y-19765214D01*
X4355357Y-19750929D01*
X4369643Y-19736643D01*
X4369643Y-19765214D01*
X4483928Y-19465214D02*
X4669643Y-19465214D01*
X4569643Y-19579500D01*
X4612500Y-19579500D01*
X4641071Y-19593786D01*
X4655357Y-19608072D01*
X4669643Y-19636643D01*
X4669643Y-19708072D01*
X4655357Y-19736643D01*
X4641071Y-19750929D01*
X4612500Y-19765214D01*
X4526786Y-19765214D01*
X4498214Y-19750929D01*
X4483928Y-19736643D01*
X4855357Y-19465214D02*
X4883928Y-19465214D01*
X4912500Y-19479500D01*
X4926786Y-19493786D01*
X4941071Y-19522357D01*
X4955357Y-19579500D01*
X4955357Y-19650929D01*
X4941071Y-19708072D01*
X4926786Y-19736643D01*
X4912500Y-19750929D01*
X4883928Y-19765214D01*
X4855357Y-19765214D01*
X4826786Y-19750929D01*
X4812500Y-19736643D01*
X4798214Y-19708072D01*
X4783928Y-19650929D01*
X4783928Y-19579500D01*
X4798214Y-19522357D01*
X4812500Y-19493786D01*
X4826786Y-19479500D01*
X4855357Y-19465214D01*
X5141071Y-19465214D02*
X5169643Y-19465214D01*
X5198214Y-19479500D01*
X5212500Y-19493786D01*
X5226786Y-19522357D01*
X5241071Y-19579500D01*
X5241071Y-19650929D01*
X5226786Y-19708072D01*
X5212500Y-19736643D01*
X5198214Y-19750929D01*
X5169643Y-19765214D01*
X5141071Y-19765214D01*
X5112500Y-19750929D01*
X5098214Y-19736643D01*
X5083928Y-19708072D01*
X5069643Y-19650929D01*
X5069643Y-19579500D01*
X5083928Y-19522357D01*
X5098214Y-19493786D01*
X5112500Y-19479500D01*
X5141071Y-19465214D01*
X5369643Y-19765214D02*
X5369643Y-19565214D01*
X5369643Y-19593786D02*
X5383928Y-19579500D01*
X5412500Y-19565214D01*
X5455357Y-19565214D01*
X5483928Y-19579500D01*
X5498214Y-19608072D01*
X5498214Y-19765214D01*
X5498214Y-19608072D02*
X5512500Y-19579500D01*
X5541071Y-19565214D01*
X5583928Y-19565214D01*
X5612500Y-19579500D01*
X5626786Y-19608072D01*
X5626786Y-19765214D01*
X5769643Y-19765214D02*
X5769643Y-19565214D01*
X5769643Y-19593786D02*
X5783928Y-19579500D01*
X5812500Y-19565214D01*
X5855357Y-19565214D01*
X5883928Y-19579500D01*
X5898214Y-19608072D01*
X5898214Y-19765214D01*
X5898214Y-19608072D02*
X5912500Y-19579500D01*
X5941071Y-19565214D01*
X5983928Y-19565214D01*
X6012500Y-19579500D01*
X6026786Y-19608072D01*
X6026786Y-19765214D01*
X6612500Y-19450929D02*
X6355357Y-19836643D01*
X6998214Y-19465214D02*
X7026786Y-19465214D01*
X7055357Y-19479500D01*
X7069643Y-19493786D01*
X7083928Y-19522357D01*
X7098214Y-19579500D01*
X7098214Y-19650929D01*
X7083928Y-19708072D01*
X7069643Y-19736643D01*
X7055357Y-19750929D01*
X7026786Y-19765214D01*
X6998214Y-19765214D01*
X6969643Y-19750929D01*
X6955357Y-19736643D01*
X6941071Y-19708072D01*
X6926786Y-19650929D01*
X6926786Y-19579500D01*
X6941071Y-19522357D01*
X6955357Y-19493786D01*
X6969643Y-19479500D01*
X6998214Y-19465214D01*
X7226786Y-19736643D02*
X7241071Y-19750929D01*
X7226786Y-19765214D01*
X7212500Y-19750929D01*
X7226786Y-19736643D01*
X7226786Y-19765214D01*
X7426786Y-19465214D02*
X7455357Y-19465214D01*
X7483928Y-19479500D01*
X7498214Y-19493786D01*
X7512500Y-19522357D01*
X7526786Y-19579500D01*
X7526786Y-19650929D01*
X7512500Y-19708072D01*
X7498214Y-19736643D01*
X7483928Y-19750929D01*
X7455357Y-19765214D01*
X7426786Y-19765214D01*
X7398214Y-19750929D01*
X7383928Y-19736643D01*
X7369643Y-19708072D01*
X7355357Y-19650929D01*
X7355357Y-19579500D01*
X7369643Y-19522357D01*
X7383928Y-19493786D01*
X7398214Y-19479500D01*
X7426786Y-19465214D01*
X7798214Y-19465214D02*
X7655357Y-19465214D01*
X7641071Y-19608072D01*
X7655357Y-19593786D01*
X7683928Y-19579500D01*
X7755357Y-19579500D01*
X7783928Y-19593786D01*
X7798214Y-19608072D01*
X7812500Y-19636643D01*
X7812500Y-19708072D01*
X7798214Y-19736643D01*
X7783928Y-19750929D01*
X7755357Y-19765214D01*
X7683928Y-19765214D01*
X7655357Y-19750929D01*
X7641071Y-19736643D01*
X8098214Y-19765214D02*
X7926786Y-19765214D01*
X8012500Y-19765214D02*
X8012500Y-19465214D01*
X7983928Y-19508072D01*
X7955357Y-19536643D01*
X7926786Y-19550929D01*
X8212500Y-19493786D02*
X8226786Y-19479500D01*
X8255357Y-19465214D01*
X8326786Y-19465214D01*
X8355357Y-19479500D01*
X8369643Y-19493786D01*
X8383928Y-19522357D01*
X8383928Y-19550929D01*
X8369643Y-19593786D01*
X8198214Y-19765214D01*
X8383928Y-19765214D01*
X8498214Y-19465214D02*
X8498214Y-19522357D01*
X8612500Y-19465214D02*
X8612500Y-19522357D01*
X9055357Y-19879500D02*
X9041071Y-19865214D01*
X9012500Y-19822357D01*
X8998214Y-19793786D01*
X8983928Y-19750929D01*
X8969643Y-19679500D01*
X8969643Y-19622357D01*
X8983928Y-19550929D01*
X8998214Y-19508072D01*
X9012500Y-19479500D01*
X9041071Y-19436643D01*
X9055357Y-19422357D01*
X9298214Y-19565214D02*
X9298214Y-19765214D01*
X9226786Y-19450929D02*
X9155357Y-19665214D01*
X9341071Y-19665214D01*
X9683928Y-19765214D02*
X9683928Y-19465214D01*
X9812500Y-19765214D02*
X9812500Y-19608072D01*
X9798214Y-19579500D01*
X9769643Y-19565214D01*
X9726786Y-19565214D01*
X9698214Y-19579500D01*
X9683928Y-19593786D01*
X9998214Y-19765214D02*
X9969643Y-19750929D01*
X9955357Y-19736643D01*
X9941071Y-19708072D01*
X9941071Y-19622357D01*
X9955357Y-19593786D01*
X9969643Y-19579500D01*
X9998214Y-19565214D01*
X10041071Y-19565214D01*
X10069643Y-19579500D01*
X10083928Y-19593786D01*
X10098214Y-19622357D01*
X10098214Y-19708072D01*
X10083928Y-19736643D01*
X10069643Y-19750929D01*
X10041071Y-19765214D01*
X9998214Y-19765214D01*
X10269643Y-19765214D02*
X10241071Y-19750929D01*
X10226786Y-19722357D01*
X10226786Y-19465214D01*
X10498214Y-19750929D02*
X10469643Y-19765214D01*
X10412500Y-19765214D01*
X10383928Y-19750929D01*
X10369643Y-19722357D01*
X10369643Y-19608072D01*
X10383928Y-19579500D01*
X10412500Y-19565214D01*
X10469643Y-19565214D01*
X10498214Y-19579500D01*
X10512500Y-19608072D01*
X10512500Y-19636643D01*
X10369643Y-19665214D01*
X10626786Y-19750929D02*
X10655357Y-19765214D01*
X10712500Y-19765214D01*
X10741071Y-19750929D01*
X10755357Y-19722357D01*
X10755357Y-19708072D01*
X10741071Y-19679500D01*
X10712500Y-19665214D01*
X10669643Y-19665214D01*
X10641071Y-19650929D01*
X10626786Y-19622357D01*
X10626786Y-19608072D01*
X10641071Y-19579500D01*
X10669643Y-19565214D01*
X10712500Y-19565214D01*
X10741071Y-19579500D01*
X10855357Y-19879500D02*
X10869643Y-19865214D01*
X10898214Y-19822357D01*
X10912500Y-19793786D01*
X10926786Y-19750929D01*
X10941071Y-19679500D01*
X10941071Y-19622357D01*
X10926786Y-19550929D01*
X10912500Y-19508072D01*
X10898214Y-19479500D01*
X10869643Y-19436643D01*
X10855357Y-19422357D01*
M02*
