M48
; DRILL file {KiCad 5.1.10} date Wed Jul 21 04:31:42 2021
; FORMAT={-:-/ absolute / metric / decimal}
; #@! TF.CreationDate,2021-07-21T04:31:42-05:00
; #@! TF.GenerationSoftware,Kicad,Pcbnew,5.1.10
; #@! TF.FileFunction,Plated,1,2,PTH
FMAT,2
METRIC
T1C0.400
T2C1.000
T3C1.300
%
G90
G05
T1
X57.478Y-153.665
X67.632Y-137.401
X68.363Y-138.801
X75.149Y-168.267
X79.618Y-138.554
X83.95Y-143.3
X89.25Y-147.5
T2
X57.5Y-132.75
X60.04Y-132.75
X62.58Y-132.75
X65.12Y-132.75
X67.66Y-132.75
X70.2Y-132.75
X72.74Y-132.75
X75.28Y-132.75
X76.568Y-176.75
X77.82Y-132.75
X79.108Y-176.75
X80.36Y-132.75
T3
X41.0Y-158.25
X46.0Y-158.25
X89.0Y-158.25
X94.0Y-158.25
T2
X46.75Y-166.05G85X48.25Y-166.05
G05
X46.75Y-170.5G85X48.25Y-170.5
G05
X46.75Y-174.95G85X48.25Y-174.95
G05
X56.0Y-141.05G85X54.5Y-141.05
G05
X56.0Y-145.5G85X54.5Y-145.5
G05
X56.0Y-149.95G85X54.5Y-149.95
G05
X59.0Y-141.05G85X60.5Y-141.05
G05
X59.0Y-145.5G85X60.5Y-145.5
G05
X59.0Y-149.95G85X60.5Y-149.95
G05
X66.75Y-166.05G85X68.25Y-166.05
G05
X66.75Y-170.5G85X68.25Y-170.5
G05
X66.75Y-174.95G85X68.25Y-174.95
G05
X73.65Y-141.05G85X72.15Y-141.05
G05
X73.65Y-145.5G85X72.15Y-145.5
G05
X73.65Y-149.95G85X72.15Y-149.95
G05
X76.75Y-141.05G85X78.25Y-141.05
G05
X76.75Y-145.5G85X78.25Y-145.5
G05
X76.75Y-149.95G85X78.25Y-149.95
G05
X81.35Y-141.05G85X82.85Y-141.05
G05
X81.35Y-145.5G85X82.85Y-145.5
G05
X81.35Y-149.95G85X82.85Y-149.95
G05
X86.75Y-166.05G85X88.25Y-166.05
G05
X86.75Y-170.5G85X88.25Y-170.5
G05
X86.75Y-174.95G85X88.25Y-174.95
G05
T0
M30
