M48
; DRILL file {KiCad 5.1.10} date Tue Jun 29 02:57:26 2021
; FORMAT={-:-/ absolute / metric / decimal}
; #@! TF.CreationDate,2021-06-29T02:57:26-05:00
; #@! TF.GenerationSoftware,Kicad,Pcbnew,5.1.10
; #@! TF.FileFunction,Plated,1,2,PTH
FMAT,2
METRIC
T1C0.200
T2C0.400
T3C0.600
T4C0.950
T5C1.000
T6C1.300
T7C3.250
T8C5.300
%
G90
G05
T1
X52.85Y-25.5
X53.0Y-66.7
X53.48Y-23.98
X53.48Y-27.02
X53.63Y-65.18
X53.63Y-68.22
X55.0Y-23.35
X55.0Y-27.75
X55.15Y-64.55
X55.15Y-68.85
X56.35Y-119.5
X56.52Y-23.98
X56.52Y-27.02
X56.67Y-65.18
X56.67Y-68.22
X56.98Y-117.98
X56.98Y-121.02
X57.15Y-25.5
X57.3Y-66.7
X58.5Y-117.35
X58.5Y-121.65
X60.02Y-117.98
X60.02Y-121.02
X60.65Y-119.5
X77.85Y-30.5
X78.48Y-29.0
X78.48Y-32.0
X80.0Y-28.35
X80.0Y-32.65
X81.52Y-28.98
X81.52Y-32.02
X82.15Y-30.5
X86.2Y-49.3
X86.35Y-103.5
X86.83Y-47.78
X86.83Y-50.82
X86.98Y-101.98
X86.98Y-105.02
X88.35Y-47.15
X88.35Y-51.45
X88.5Y-101.35
X88.5Y-105.65
X89.87Y-47.78
X89.87Y-50.82
X90.02Y-101.98
X90.02Y-105.02
X90.5Y-49.3
X90.65Y-103.5
T2
X51.712Y-107.92
X83.295Y-116.768
T3
X23.525Y-26.0
X23.525Y-118.0
X24.689Y-23.189
X24.689Y-28.811
X24.689Y-115.189
X24.689Y-120.811
X27.5Y-22.025
X27.5Y-29.975
X27.5Y-114.025
X27.5Y-121.975
X30.311Y-23.189
X30.311Y-28.811
X30.311Y-115.189
X30.311Y-120.811
X31.475Y-26.0
X31.475Y-118.0
X103.525Y-26.0
X103.525Y-118.0
X104.689Y-23.189
X104.689Y-28.811
X104.689Y-115.189
X104.689Y-120.811
X107.5Y-22.025
X107.5Y-29.975
X107.5Y-114.025
X107.5Y-121.975
X110.311Y-23.189
X110.311Y-28.811
X110.311Y-115.189
X110.311Y-120.811
X111.475Y-26.0
X111.475Y-118.0
T4
X42.75Y-50.75
X42.75Y-53.25
X42.75Y-55.75
T5
X42.75Y-64.75
X42.75Y-67.25
X43.75Y-19.5
X43.75Y-41.5
X49.65Y-48.5
X49.65Y-67.5
X53.0Y-102.25
X53.0Y-120.75
X57.5Y-126.25
X60.04Y-126.25
X62.58Y-126.25
X65.12Y-126.25
X67.66Y-126.25
X70.2Y-126.25
X72.74Y-126.25
X75.28Y-126.25
X77.82Y-126.25
X80.36Y-126.25
X91.25Y-19.5
X91.25Y-41.5
X93.85Y-48.5
X93.85Y-67.5
X94.0Y-102.25
X94.0Y-120.75
X94.75Y-63.2
X106.25Y-41.96
X106.25Y-44.5
X106.25Y-47.04
X106.25Y-49.58
X106.25Y-52.12
X108.79Y-41.96
X108.79Y-44.5
X108.79Y-47.04
X108.79Y-49.58
X108.79Y-52.12
T6
X41.75Y-120.0
X46.75Y-120.0
X107.5Y-58.75
X107.5Y-63.75
X107.5Y-68.75
X107.5Y-73.75
X107.5Y-88.75
X107.5Y-93.75
T7
X55.0Y-25.5
X55.15Y-66.75
X58.5Y-119.5
X80.0Y-30.5
X88.35Y-49.25
X88.5Y-103.5
T8
X27.5Y-26.0
X27.5Y-118.0
X107.5Y-26.0
X107.5Y-118.0
T0
M30
