  0
SECTION
  2
HEADER
  9
$ANGBASE
  50
0.0
  9
$ANGDIR
  70
1
  9
$MEASUREMENT
  70
1
  0
ENDSEC
  0
SECTION
  2
TABLES
  0
TABLE
  2
LTYPE
  70
4
  0
LTYPE
  5
40F
  2
CONTINUOUS
  70
0
  3
Solid line
  72
65
  73
0
  40
0.0
  0
LTYPE
  5
410
  2
DASHDOT
 70
0
  3
Dash Dot ____ _ ____ _
 72
65
 73
4
 40
2.0
 49
1.25
 49
-0.25
 49
0.25
 49
-0.25
  0
LTYPE
  5
411
  2
DASHED
 70
0
  3
Dashed __ __ __ __ __
 72
65
 73
2
 40
0.75
 49
0.5
 49
-0.25
  0
LTYPE
  5
43B
  2
DOTTED
 70
0
  3
Dotted .  .  .  .
 72
65
 73
2
 40
0.2
 49
0.0
 49
-0.2
  0
ENDTAB
  0
TABLE
  2
STYLE
  70
4
  0
STYLE
  2
KICAD
  70
0
  40
0
  41
1
  42
1
  50
0
  71
0
  3
isocp.shx
  0
STYLE
  2
KICADB
  70
0
  40
0
  41
1
  42
1
  50
0
  71
0
  3
isocp.shx
  0
STYLE
  2
KICADI
  70
0
  40
0
  41
1
  42
1
  50
15
  71
0
  3
isocp.shx
  0
STYLE
  2
KICADBI
  70
0
  40
0
  41
1
  42
1
  50
15
  71
0
  3
isocp.shx
  0
ENDTAB
  0
TABLE
  2
LAYER
  70
1
  0
LAYER
  2
BLACK
  70
0
  62
7
  6
CONTINUOUS
  0
ENDTAB
  0
ENDSEC
  0
SECTION
  2
ENTITIES
0
LINE
8
BLACK
6
CONTINUOUS
10
185.512
20
-60.4409
11
185.523
21
-60.4443
0
LINE
8
BLACK
6
CONTINUOUS
10
185.523
20
-60.4443
11
185.533
21
-60.4499
0
LINE
8
BLACK
6
CONTINUOUS
10
185.533
20
-60.4499
11
185.543
21
-60.4574
0
LINE
8
BLACK
6
CONTINUOUS
10
185.543
20
-60.4574
11
185.55
21
-60.4665
0
LINE
8
BLACK
6
CONTINUOUS
10
185.55
20
-60.4665
11
185.556
21
-60.4769
0
LINE
8
BLACK
6
CONTINUOUS
10
185.556
20
-60.4769
11
185.559
21
-60.4882
0
LINE
8
BLACK
6
CONTINUOUS
10
185.559
20
-60.4882
11
185.56
21
-60.5
0
LINE
8
BLACK
6
CONTINUOUS
10
185.56
20
-60.5
11
185.559
21
-60.5118
0
LINE
8
BLACK
6
CONTINUOUS
10
185.559
20
-60.5118
11
185.556
21
-60.5231
0
LINE
8
BLACK
6
CONTINUOUS
10
185.556
20
-60.5231
11
185.55
21
-60.5335
0
LINE
8
BLACK
6
CONTINUOUS
10
185.55
20
-60.5335
11
185.543
21
-60.5426
0
LINE
8
BLACK
6
CONTINUOUS
10
185.543
20
-60.5426
11
185.533
21
-60.5501
0
LINE
8
BLACK
6
CONTINUOUS
10
185.533
20
-60.5501
11
185.523
21
-60.5557
0
LINE
8
BLACK
6
CONTINUOUS
10
185.523
20
-60.5557
11
185.512
21
-60.5591
0
LINE
8
BLACK
6
CONTINUOUS
10
185.512
20
-60.5591
11
185.503
21
-60.56
0
LINE
8
BLACK
6
CONTINUOUS
10
185.503
20
-60.56
11
120.247
21
-60.56
0
LINE
8
BLACK
6
CONTINUOUS
10
120.247
20
-60.56
11
120.238
21
-60.5591
0
LINE
8
BLACK
6
CONTINUOUS
10
120.238
20
-60.5591
11
120.227
21
-60.5557
0
LINE
8
BLACK
6
CONTINUOUS
10
120.227
20
-60.5557
11
120.217
21
-60.5501
0
LINE
8
BLACK
6
CONTINUOUS
10
120.217
20
-60.5501
11
120.207
21
-60.5426
0
LINE
8
BLACK
6
CONTINUOUS
10
120.207
20
-60.5426
11
120.2
21
-60.5335
0
LINE
8
BLACK
6
CONTINUOUS
10
120.2
20
-60.5335
11
120.194
21
-60.5231
0
LINE
8
BLACK
6
CONTINUOUS
10
120.194
20
-60.5231
11
120.191
21
-60.5118
0
LINE
8
BLACK
6
CONTINUOUS
10
120.191
20
-60.5118
11
120.19
21
-60.5
0
LINE
8
BLACK
6
CONTINUOUS
10
120.19
20
-60.5
11
120.191
21
-60.4882
0
LINE
8
BLACK
6
CONTINUOUS
10
120.191
20
-60.4882
11
120.194
21
-60.4769
0
LINE
8
BLACK
6
CONTINUOUS
10
120.194
20
-60.4769
11
120.2
21
-60.4665
0
LINE
8
BLACK
6
CONTINUOUS
10
120.2
20
-60.4665
11
120.207
21
-60.4574
0
LINE
8
BLACK
6
CONTINUOUS
10
120.207
20
-60.4574
11
120.217
21
-60.4499
0
LINE
8
BLACK
6
CONTINUOUS
10
120.217
20
-60.4499
11
120.227
21
-60.4443
0
LINE
8
BLACK
6
CONTINUOUS
10
120.227
20
-60.4443
11
120.238
21
-60.4409
0
LINE
8
BLACK
6
CONTINUOUS
10
120.238
20
-60.4409
11
120.247
21
-60.44
0
LINE
8
BLACK
6
CONTINUOUS
10
120.247
20
-60.44
11
185.503
21
-60.44
0
LINE
8
BLACK
6
CONTINUOUS
10
185.503
20
-60.44
11
185.512
21
-60.4409
0
LINE
8
BLACK
6
CONTINUOUS
10
185.512
20
-48.4409
11
185.523
21
-48.4443
0
LINE
8
BLACK
6
CONTINUOUS
10
185.523
20
-48.4443
11
185.533
21
-48.4499
0
LINE
8
BLACK
6
CONTINUOUS
10
185.533
20
-48.4499
11
185.543
21
-48.4574
0
LINE
8
BLACK
6
CONTINUOUS
10
185.543
20
-48.4574
11
185.55
21
-48.4665
0
LINE
8
BLACK
6
CONTINUOUS
10
185.55
20
-48.4665
11
185.556
21
-48.4769
0
LINE
8
BLACK
6
CONTINUOUS
10
185.556
20
-48.4769
11
185.559
21
-48.4882
0
LINE
8
BLACK
6
CONTINUOUS
10
185.559
20
-48.4882
11
185.56
21
-48.5
0
LINE
8
BLACK
6
CONTINUOUS
10
185.56
20
-48.5
11
185.559
21
-48.5118
0
LINE
8
BLACK
6
CONTINUOUS
10
185.559
20
-48.5118
11
185.556
21
-48.5231
0
LINE
8
BLACK
6
CONTINUOUS
10
185.556
20
-48.5231
11
185.55
21
-48.5335
0
LINE
8
BLACK
6
CONTINUOUS
10
185.55
20
-48.5335
11
185.543
21
-48.5426
0
LINE
8
BLACK
6
CONTINUOUS
10
185.543
20
-48.5426
11
185.533
21
-48.5501
0
LINE
8
BLACK
6
CONTINUOUS
10
185.533
20
-48.5501
11
185.523
21
-48.5557
0
LINE
8
BLACK
6
CONTINUOUS
10
185.523
20
-48.5557
11
185.512
21
-48.5591
0
LINE
8
BLACK
6
CONTINUOUS
10
185.512
20
-48.5591
11
185.503
21
-48.56
0
LINE
8
BLACK
6
CONTINUOUS
10
185.503
20
-48.56
11
120.247
21
-48.56
0
LINE
8
BLACK
6
CONTINUOUS
10
120.247
20
-48.56
11
120.238
21
-48.5591
0
LINE
8
BLACK
6
CONTINUOUS
10
120.238
20
-48.5591
11
120.227
21
-48.5557
0
LINE
8
BLACK
6
CONTINUOUS
10
120.227
20
-48.5557
11
120.217
21
-48.5501
0
LINE
8
BLACK
6
CONTINUOUS
10
120.217
20
-48.5501
11
120.207
21
-48.5426
0
LINE
8
BLACK
6
CONTINUOUS
10
120.207
20
-48.5426
11
120.2
21
-48.5335
0
LINE
8
BLACK
6
CONTINUOUS
10
120.2
20
-48.5335
11
120.194
21
-48.5231
0
LINE
8
BLACK
6
CONTINUOUS
10
120.194
20
-48.5231
11
120.191
21
-48.5118
0
LINE
8
BLACK
6
CONTINUOUS
10
120.191
20
-48.5118
11
120.19
21
-48.5
0
LINE
8
BLACK
6
CONTINUOUS
10
120.19
20
-48.5
11
120.191
21
-48.4882
0
LINE
8
BLACK
6
CONTINUOUS
10
120.191
20
-48.4882
11
120.194
21
-48.4769
0
LINE
8
BLACK
6
CONTINUOUS
10
120.194
20
-48.4769
11
120.2
21
-48.4665
0
LINE
8
BLACK
6
CONTINUOUS
10
120.2
20
-48.4665
11
120.207
21
-48.4574
0
LINE
8
BLACK
6
CONTINUOUS
10
120.207
20
-48.4574
11
120.217
21
-48.4499
0
LINE
8
BLACK
6
CONTINUOUS
10
120.217
20
-48.4499
11
120.227
21
-48.4443
0
LINE
8
BLACK
6
CONTINUOUS
10
120.227
20
-48.4443
11
120.238
21
-48.4409
0
LINE
8
BLACK
6
CONTINUOUS
10
120.238
20
-48.4409
11
120.247
21
-48.44
0
LINE
8
BLACK
6
CONTINUOUS
10
120.247
20
-48.44
11
185.503
21
-48.44
0
LINE
8
BLACK
6
CONTINUOUS
10
185.503
20
-48.44
11
185.512
21
-48.4409
  0
ENDSEC
  0
EOF
